<svg width="100" height="100" viewBox="0 0 100 100" fill="none" xmlns="http://www.w3.org/2000/svg">
<g clip-path="url(#clip0_420_2282)">
<path d="M92.2683 41.1592L92.1999 41.2524C92.1875 41.1716 92.1408 41.1373 92.0818 41.0222L92.2683 41.1592Z" fill="black"/>
<path d="M88.1287 77.3063C88.0354 77.2379 87.9079 77.216 87.8146 77.1476C87.9297 77.0885 88.0697 77.1912 88.1287 77.3063Z" fill="black"/>
<path d="M80.7801 73.9221C82.7455 74.8623 84.7451 75.7558 86.6639 76.6618C86.2873 77.1748 85.8859 77.5261 85.1798 77.5103C84.3463 77.4726 83.4631 77.1114 82.6856 76.8996C81.6406 76.5632 80.5614 76.2735 79.4822 75.9838C79.053 75.8841 78.5306 75.7159 77.9739 75.5943C78.5807 74.9632 80.3799 73.7022 80.3799 73.7022C80.3799 73.7022 80.4661 73.7634 80.7801 73.9221Z" fill="#825E41"/>
<path d="M29.087 62.6066C37.7175 64.6351 46.9373 63.2207 55.792 64.5526C60.5786 65.2669 65.2 66.7929 69.5162 69.028L80.3799 73.7022C80.1279 73.9478 78.3316 75.4981 77.9739 75.5943C77.7997 75.5383 67.2295 70.5791 67.0553 70.5231C65.6744 70.1555 64.306 69.8687 62.8815 69.7561C59.9049 69.5092 56.8411 69.7723 53.9048 70.0572C48.2405 70.6364 42.6635 70.7056 37.031 69.8727C31.6068 69.0493 26.326 67.5416 21.2694 65.3374C16.4679 63.1767 11.6261 60.4842 8.19396 56.4579C6.57736 54.5536 5.20039 52.3229 4.5389 49.8996C4.03273 47.9492 3.96517 45.8901 4.24593 43.9431C4.94211 45.2436 5.86852 46.4259 6.82915 47.5616C9.40638 50.6015 12.2481 53.4767 15.4445 55.9664C15.3418 56.1063 15.3324 56.3147 15.3914 56.4298C15.7487 57.4098 16.4731 58.085 17.2784 58.7479C18.1304 59.445 18.9699 60.0612 19.9246 60.6183C21.7064 61.7108 23.5785 62.5825 25.5751 63.1868C26.5268 63.4547 27.6184 63.8253 28.5641 63.5146C28.8409 63.4308 29.1986 63.3345 29.2299 62.9986C29.2517 62.8711 29.146 62.7217 29.087 62.6066Z" fill="#825E41"/>
<path d="M22.8996 57.3475C23.2013 57.4254 23.4688 57.5499 23.7704 57.6278C24.3862 57.8645 25.0704 58.0079 25.6177 58.3378C25.8976 58.5432 25.9938 58.9009 25.9159 59.2026C25.8381 59.5043 25.5518 59.7965 25.2283 59.8462C24.939 59.8491 24.7306 59.8397 24.4289 59.7618C24.2548 59.7058 24.1273 59.684 23.9531 59.6279C23.6514 59.55 23.3374 59.3912 23.0699 59.2667C22.7558 59.1079 22.4417 58.9492 22.1153 58.7095C21.8354 58.5041 21.4623 58.2303 21.4469 57.8601C21.4469 57.8601 21.4002 57.8259 21.4345 57.7792C21.3164 57.549 21.5094 57.1883 21.752 57.1511C21.7986 57.1853 21.8329 57.1387 21.8329 57.1387C22.203 57.1233 22.598 57.2696 22.8996 57.3475Z" fill="black"/>
<path d="M28.5175 63.4804C27.5594 63.7102 26.4335 63.3863 25.5285 63.1526C23.5319 62.5483 21.6256 61.7233 19.878 60.5841C18.9233 60.027 18.0838 59.4107 17.2319 58.7137C16.4732 58.085 15.7021 57.3755 15.3448 56.3956C15.2734 56.1996 15.3294 56.0255 15.3979 55.9322C18.9675 58.6957 22.9012 60.8653 27.1961 62.1517C27.7995 62.3075 28.4494 62.4975 29.0528 62.6533C29.1118 62.7684 29.2175 62.9177 29.1957 63.0453C29.1521 63.3003 28.7943 63.3966 28.5175 63.4804Z" fill="black"/>
<path d="M27.1962 62.1516C22.9013 60.8652 18.9675 58.6956 15.398 55.9321C15.4883 55.7113 15.7651 55.6274 16.0202 55.6711C17.1242 56.1225 17.92 56.9938 18.8529 57.6785C19.8323 58.3974 20.8461 59.0696 21.9282 59.6486C23.8127 60.6012 25.7627 61.1712 27.7593 61.7755C28.061 61.8534 28.2818 61.9437 28.5492 62.0682C28.6892 62.1709 28.9224 62.3421 29.0747 62.5257C28.4495 62.4974 27.7995 62.3074 27.1962 62.1516Z" fill="black"/>
<path d="M32.7113 61.678C31.909 61.3044 31.2684 60.906 30.5688 60.3925C29.8225 59.8447 29.2256 59.1913 28.5136 58.5969C27.1828 57.4766 25.7493 56.4962 24.1353 55.9574C21.1746 55.0044 16.8415 55.6278 15.073 52.4638C14.9549 52.2335 15.2412 51.9413 15.4278 52.0782C17.0791 52.8596 18.7368 53.1434 20.5563 53.4023C22.2482 53.6394 23.9278 53.7956 25.52 54.4619C27.1589 55.1625 28.639 56.1771 29.9356 57.344C30.6133 57.985 31.2787 58.5452 31.7729 59.3386C31.9967 59.7181 32.3014 60.0853 32.4785 60.4306C32.6557 60.7759 32.7519 61.1337 32.8482 61.4914C32.8606 61.5723 32.7579 61.7122 32.7113 61.678Z" fill="black"/>
<path d="M29.8804 32.9742C29.3451 33.8013 27.9394 33.272 28.0456 32.3451C28.5214 32.4791 29.0315 32.5664 29.5415 32.6537C29.7157 32.7097 29.8775 32.6849 30.0516 32.741L29.8804 32.9742Z" fill="black"/>
<path d="M30.0049 32.7068C29.8308 32.6508 29.6566 32.5947 29.4949 32.6195C28.9848 32.5322 28.5214 32.4792 27.9989 32.311C27.9989 32.311 28.0332 32.2643 27.9865 32.2301C28.1829 31.0824 28.7619 30.0003 29.2134 28.8963C29.851 29.0054 30.501 29.1954 31.1043 29.3512C30.827 30.5113 30.5963 31.7055 30.0049 32.7068Z" fill="black"/>
<path d="M31.4095 28.6421C31.3192 28.8629 31.2413 29.1646 31.151 29.3854C30.501 29.1953 29.8977 29.0396 29.2601 28.9304C29.4189 28.6164 29.4968 28.3147 29.5747 28.013C29.721 27.618 29.8207 27.1888 29.9671 26.7939C30.6047 26.903 31.208 27.0588 31.858 27.2488C31.7707 27.7589 31.5901 28.2005 31.4095 28.6421Z" fill="black"/>
<path d="M34.9952 37.4461C34.4633 37.4863 34.0837 37.71 33.5364 37.3801C32.9549 37.0968 32.5103 36.627 32.0657 36.1571C31.1423 35.2641 30.337 34.6012 29.0742 34.4638C28.4367 34.3547 27.7991 34.2455 27.2175 33.9622C26.8568 33.7692 26.4961 33.5763 26.1011 33.4299L26.2599 33.1158C26.5149 33.1595 26.7576 33.1223 26.9411 32.9699C27.1932 32.7243 27.3986 32.4445 27.5107 32.0961C27.5573 32.1304 27.6382 32.118 27.6849 32.1522C27.7781 32.2207 27.9523 32.2767 28.0798 32.2985C27.9737 33.2254 29.426 33.789 29.9147 32.9276C29.9832 32.8343 30.0174 32.7877 30.0392 32.6602C31.1993 32.9375 32.1197 33.5413 32.9965 34.4001C33.4411 34.87 33.9665 35.3275 34.4577 35.8315C34.6567 36.0494 34.8557 36.2672 34.9862 36.5783C35.0577 36.7742 35.0949 37.0169 35.1882 37.0853C35.213 37.2471 35.1569 37.4213 34.9952 37.4461Z" fill="black"/>
<path d="M29.967 26.7939C30.2939 25.9573 30.5866 25.1674 30.9602 24.3651C31.3085 24.4772 31.6568 24.5894 32.0394 24.6548C32.1669 24.6767 32.2602 24.7451 32.3877 24.7669C32.2691 25.6129 32.104 26.4247 31.8579 27.2488C31.2545 27.093 30.6512 26.9373 29.967 26.7939Z" fill="black"/>
<path d="M25.8867 32.8419C25.6163 32.4281 25.5418 31.9429 25.5482 31.4452C25.6291 31.4328 25.6758 31.4671 25.7566 31.4547C26.36 31.6104 26.9291 31.8129 27.464 32.0619C27.3518 32.4102 27.1464 32.6901 26.8944 32.9357C26.7108 33.088 26.4682 33.1252 26.2132 33.0816C26.0857 33.0598 25.9924 32.9913 25.8867 32.8419Z" fill="black"/>
<path d="M28.0331 32.2643C28.0331 32.2643 27.9989 32.3109 28.0455 32.3452C27.918 32.3233 27.7781 32.2206 27.6505 32.1988C27.6039 32.1646 27.5573 32.1303 27.4764 32.1427C27.6788 31.5736 27.7879 30.936 27.8752 30.426C27.9968 29.8693 28.0375 29.325 28.1248 28.8149C28.1902 28.4323 28.2215 28.0964 28.287 27.7139C28.3525 27.3313 28.3837 26.9954 28.4025 26.5786C28.4898 26.0686 28.5305 25.5243 28.5369 25.0266C28.5776 24.4823 28.6307 24.0189 28.5905 23.487C28.8113 23.5773 29.0787 23.7018 29.2995 23.7921C29.8344 24.0412 30.4035 24.2436 30.9726 24.446C30.599 25.2483 30.2721 26.0849 29.9794 26.8748C29.833 27.2697 29.6867 27.6647 29.5869 28.0939C29.5091 28.3956 29.3969 28.7439 29.2724 29.0113C28.8085 30.0344 28.2296 31.1166 28.0331 32.2643Z" fill="#D3D3D3"/>
<path d="M27.8574 28.6903C27.9382 28.6779 28.0315 28.7463 28.1124 28.7339C28.0717 29.2782 27.9502 29.835 27.8629 30.345C27.7756 30.8551 27.7131 31.5269 27.464 32.0618C26.9291 31.8127 26.36 31.6103 25.7567 31.4545C25.71 31.4203 25.6292 31.4327 25.5483 31.4451C25.5547 30.9475 25.6078 30.4841 25.7075 30.0549C25.7948 29.5448 25.8355 29.0005 25.9228 28.4904C26.5946 28.5529 27.1856 28.6278 27.8574 28.6903Z" fill="black"/>
<path d="M28.1125 28.734C28.0316 28.7464 27.9383 28.6779 27.8574 28.6904C27.2199 28.5812 26.5947 28.553 25.9229 28.4905C25.9883 28.1079 26.0196 27.772 26.0851 27.3895L26.2815 26.2418C26.9533 26.3043 27.6251 26.3668 28.3436 26.4635C28.2781 26.8461 28.2469 27.182 28.228 27.5988C28.2092 28.0156 28.1437 28.3981 28.1125 28.734Z" fill="black"/>
<path d="M32.0394 24.6547C31.6911 24.5426 31.3086 24.4771 30.9602 24.3649C31.0163 24.1908 31.119 24.0509 31.1751 23.8767C31.3214 23.4818 31.8067 23.4073 32.1208 23.5661C32.3416 23.6564 32.5063 23.9208 32.4626 24.1758C32.4532 24.3842 32.3972 24.5584 32.3411 24.7326C32.2602 24.745 32.1669 24.6765 32.0394 24.6547Z" fill="black"/>
<path d="M28.4902 24.9924C28.4496 25.5367 28.3965 26.0001 28.3558 26.5444C27.684 26.4819 26.9998 26.3386 26.2937 26.3227C26.4153 25.766 26.5026 25.256 26.6241 24.6993C26.8017 23.9684 26.8984 23.2499 27.216 22.6218C27.6357 22.9299 28.0897 23.1913 28.5904 23.487C28.6182 23.938 28.5309 24.4481 28.4902 24.9924Z" fill="black"/>
<path d="M26.1316 27.4236C26.0661 27.8061 26.0349 28.1421 25.9694 28.5246C21.4532 28.2241 16.9148 29.1273 12.9574 31.39C8.70134 33.8641 5.52698 37.9934 4.44254 42.7953L4.24611 43.943C3.78613 43.103 3.44126 42.2039 3.25813 41.2801L2.68902 41.0777C2.92268 40.1726 3.28386 39.2894 3.69168 38.4405C5.93319 33.6265 10.0156 30.0202 14.9246 28.0254C18.7044 26.4936 22.5179 25.9913 26.328 26.2759L26.1316 27.4236Z" fill="black"/>
<path d="M25.5484 31.4451C25.542 31.9427 25.6164 32.428 25.8869 32.8418C25.9459 32.9569 26.0858 33.0596 26.2134 33.0814L26.0546 33.3955C25.8338 33.3052 25.6596 33.2491 25.4388 33.1589C24.8697 32.9564 24.2321 32.8473 23.5946 32.7382C23.0378 32.6166 22.4251 32.6693 21.9586 32.3269C21.6788 32.1215 21.71 31.7856 21.9279 31.5866C22.3977 31.142 23.1504 31.1921 23.7289 31.1861C24.3075 31.1802 24.9917 31.3235 25.5484 31.4451Z" fill="black"/>
<path d="M28.5781 23.4061C28.5627 23.036 28.5007 22.6316 28.4386 22.2272C28.3796 22.1121 28.3205 21.997 28.193 21.9752L28.6351 21.0796C29.2166 21.3629 29.7981 21.6461 30.4139 21.8828C31.0763 22.1537 31.7387 22.4246 32.3887 22.6146L32.1208 23.5662C31.8067 23.4075 31.3681 23.5162 31.1751 23.8769C31.119 24.051 31.0163 24.1909 30.9603 24.3651C30.3911 24.1627 29.822 23.9603 29.2871 23.7112C29.0663 23.6209 28.8455 23.5306 28.5781 23.4061Z" fill="black"/>
<path d="M28.578 23.4061C28.124 23.1446 27.67 22.8832 27.2036 22.5408C27.2597 22.3667 27.3624 22.2267 27.4309 22.1334C27.602 21.9002 27.9255 21.8506 28.1463 21.9409C28.2396 22.0094 28.3329 22.0778 28.3919 22.193C28.5472 22.6658 28.6093 23.0702 28.578 23.4061Z" fill="black"/>
<path d="M27.2794 19.7974C27.6962 19.8163 28.113 19.8351 28.4955 19.9006C29.2606 20.0315 30.0724 20.1967 30.828 20.5361C31.5371 20.8412 32.2119 21.193 32.8525 21.5914C33.3655 21.9679 34.1336 22.3882 34.348 22.9761L34.1862 23.0009C33.7694 22.9821 33.3403 22.8824 32.9919 22.7702C32.8178 22.7142 32.6094 22.7048 32.3886 22.6145C31.7386 22.4245 31.042 22.2002 30.4138 21.8827C29.8323 21.5994 29.2165 21.3628 28.635 21.0795C28.3675 20.9549 28.1001 20.8304 27.786 20.6717C27.3444 20.4911 26.878 20.1487 26.4706 19.9215L26.7133 19.8843C26.9092 19.8128 27.1177 19.8222 27.2794 19.7974Z" fill="#D3D3D3"/>
<path d="M26.7373 22.1985C26.072 21.6384 25.1391 20.9537 24.8409 20.0889C24.8161 19.9271 24.7913 19.7654 24.894 19.6255C24.9282 19.5788 24.8816 19.5446 24.9158 19.4979C25.0656 18.3161 26.2539 17.9682 27.3177 17.8878C28.3349 17.7731 29.3426 17.8669 30.3285 18.0881C32.011 18.5336 33.5472 19.374 34.9122 20.4477C35.6242 21.0421 36.3953 21.7516 36.4633 22.7345C36.5437 23.7983 35.8933 24.6845 34.8543 24.9267C34.0922 25.085 33.2338 24.8855 32.3755 24.6861C32.4315 24.5119 32.4409 24.3036 32.497 24.1294C32.5282 23.7935 32.3759 23.6099 32.1551 23.5196L32.423 22.5679C32.5972 22.624 32.7713 22.6801 33.0263 22.7237C33.4089 22.7892 33.8039 22.9356 34.2206 22.9544C34.3015 22.942 34.3482 22.9762 34.3824 22.9296C34.1214 22.3074 33.3533 21.8872 32.8869 21.5448C32.2463 21.1464 31.6057 20.748 30.8625 20.4895C30.0725 20.1968 29.3417 20.0192 28.5299 19.854C28.1474 19.7886 27.684 19.7355 27.3138 19.7509C27.1054 19.7415 26.9437 19.7663 26.7819 19.7911L26.5393 19.8283C26.9933 20.0898 27.4131 20.3979 27.8547 20.5785C28.1221 20.703 28.3895 20.8275 28.7036 20.9863L28.2616 21.8819C28.0408 21.7916 27.7173 21.8413 27.5461 22.0745C27.4434 22.2144 27.3407 22.3543 27.3189 22.4818C27.0638 22.4382 26.9239 22.3355 26.7373 22.1985Z" fill="black"/>
<path d="M64.0758 71.0629C64.3338 71.3958 64.4767 71.7878 64.5854 72.2264C63.9945 72.1515 63.4035 72.0766 62.8592 72.036C62.9247 71.6534 63.1177 71.2927 63.404 71.0004C63.5751 70.7672 63.9235 70.8793 64.0758 71.0629Z" fill="black"/>
<path d="M86.745 76.6497C87.1057 76.8427 87.5007 76.989 87.8147 77.1478C87.908 77.2163 88.0355 77.2381 88.1288 77.3066L88.7818 77.7858C88.2807 78.5663 87.5588 79.2565 86.7749 79.5424C85.0576 80.2197 83.2322 79.3822 81.5839 78.8901C80.6322 78.6222 79.6339 78.3201 78.7165 78.0055C78.1007 77.7689 77.1957 77.5352 76.636 77.1244C77.0374 76.7731 77.7811 75.9554 77.7811 75.9554C77.8838 75.8154 78.0332 75.7098 78.1359 75.5698C78.6459 75.6572 79.1684 75.8253 79.6442 75.9593C80.7234 76.249 81.7684 76.5854 82.8476 76.8751C83.6717 77.1212 84.474 77.4947 85.3418 77.4858C85.9328 77.5607 86.3684 77.1627 86.745 76.6497Z" fill="black"/>
<path d="M76.636 77.1244C77.0374 76.7731 77.7811 75.9554 77.7811 75.9554C77.8838 75.8154 78.0332 75.7098 78.1359 75.5698L68.9373 71.1865C68.4957 71.0059 68.0075 70.791 67.5316 70.6571C67.3699 70.6819 67.2424 70.6601 67.1615 70.6725C66.7447 70.6536 66.4773 70.5291 66.0511 70.7187C65.6249 70.9082 65.3634 71.3622 65.4378 71.8475C65.4284 72.0559 65.4999 72.2518 65.6056 72.4012C65.7331 72.423 65.7797 72.4573 65.9072 72.4791C66.5106 72.6349 67.1139 72.7906 67.683 72.993L76.636 77.1244Z" fill="black"/>
<path d="M62.8819 69.7562C64.3064 69.8687 65.7091 70.1088 67.0557 70.5231C67.2298 70.5791 67.404 70.6352 67.5782 70.6913C67.463 70.7503 67.2889 70.6942 67.208 70.7067C66.8255 70.6412 66.4771 70.5291 66.0976 70.7528C65.6714 70.9424 65.4099 71.3964 65.4844 71.8817C65.4749 72.0901 65.5464 72.286 65.6521 72.4354C65.2695 72.3699 64.9213 72.2577 64.5854 72.2264C64.4767 71.7878 64.3338 71.3958 64.0758 71.0629C63.9235 70.8793 63.5408 70.814 63.3572 70.9663C63.071 71.2586 62.878 71.6193 62.8125 72.0019C57.9138 71.6359 52.8682 72.741 47.9289 72.9194C42.1217 73.1066 36.3646 72.5412 30.726 71.1298C25.215 69.7403 19.8349 67.5856 14.9217 64.6971C10.2884 62.014 5.82965 58.3107 3.53318 53.3238C1.74632 49.5003 1.52735 45.1053 2.73587 41.112L3.30498 41.3145C3.4881 42.2383 3.83296 43.1374 4.29294 43.9774C3.97795 45.971 4.04551 48.0301 4.58592 49.9339C5.21317 52.4038 6.54351 54.6003 8.24099 56.4921C11.7074 60.4718 16.5615 63.2452 21.3164 65.3716C26.3388 67.6225 31.6196 69.1302 37.078 69.907C42.7106 70.7399 48.2875 70.6707 53.9518 70.0914C56.8415 69.7723 59.8711 69.5558 62.8819 69.7562Z" fill="black"/>
<path d="M86.8695 76.3822C87.2679 75.7416 87.7691 74.9611 87.6107 74.199C87.4991 73.4711 86.5692 73.0757 85.9411 72.7582C84.9864 72.201 83.9509 71.6563 82.9962 71.0991C82.4956 70.8034 82.0416 70.542 81.5752 70.1996C81.5752 70.1996 81.4899 70.137 81.4352 70.0969C81.5474 69.7486 81.5662 69.3318 81.6317 68.9493C81.8371 68.6694 82.0425 68.3895 82.2013 68.0755C82.3754 68.1315 82.5153 68.2342 82.7361 68.3245C83.271 68.5736 83.7717 68.8693 84.3065 69.1184C85.3421 69.6631 86.39 70.2887 87.3913 70.8801C88.2527 71.3688 89.0674 71.8233 89.574 72.6975C89.975 73.4224 90.0772 74.3587 89.912 75.1704C89.7468 75.9822 89.3638 76.9929 88.7818 77.7858L88.1288 77.3066C88.0698 77.1915 87.8956 77.1354 87.8147 77.1478C87.454 76.9548 87.0591 76.8085 86.745 76.6497C86.7792 76.603 86.8011 76.4755 86.8695 76.3822Z" fill="black"/>
<path d="M69.1841 61.4634C68.876 61.8831 68.8229 62.3466 68.9782 62.8194C69.003 62.9812 69.1896 63.1181 69.3295 63.2208C69.3295 63.2208 69.2043 63.3914 69.1241 63.5006C68.8703 63.3619 68.6235 63.205 68.3903 63.0338C63.3436 59.5449 59.7253 54.3055 56.2033 49.4238C52.4823 44.3243 48.416 39.4019 43.4005 35.5771C39.7843 32.7793 35.6422 30.6003 31.1979 29.4196C31.2882 29.1988 31.3661 28.8971 31.4564 28.6763C31.637 28.2347 31.771 27.7589 31.9049 27.2831C37.5092 28.7411 42.8174 31.776 47.2077 35.5725C52.17 39.8607 56.1118 45.0505 60.0194 50.287C61.9436 52.8476 63.8336 55.4549 66.0566 57.8042C67.0981 58.9275 68.208 59.9575 69.3989 60.9751C69.3989 60.9751 69.541 61.0794 69.6321 61.1463C69.3895 61.1835 69.2868 61.3234 69.1841 61.4634Z" fill="black"/>
<path d="M81.4352 70.0969C81.5474 69.7486 81.5662 69.3318 81.6317 68.9493C81.8371 68.6694 82.0425 68.3895 82.2013 68.0755C82.2013 68.0755 75.277 63.7544 69.6321 61.1463C69.3895 61.1835 69.2868 61.3234 69.1841 61.4634C68.876 61.8831 68.8229 62.3466 68.9782 62.8194C69.003 62.9812 69.1896 63.1181 69.3295 63.2208L69.1241 63.5006C75.2506 66.3062 75.7059 66.5501 81.4352 70.0969Z" fill="black"/>
<path d="M86.8695 76.3822L86.6982 76.6153C84.7329 75.6751 82.7799 74.8158 80.8145 73.8756C80.5005 73.7169 80.1864 73.5581 79.7914 73.4118C80.5446 72.3856 81.4693 70.0501 81.4693 70.0501L81.6092 70.1528C82.1099 70.4485 82.5297 70.7566 83.0303 71.0523C83.985 71.6095 84.9863 72.2009 85.9752 72.7114C86.5691 73.0756 87.4865 73.3901 87.6448 74.1522C87.7689 74.961 87.3146 75.7759 86.8695 76.3822Z" fill="#9E744D"/>
<path d="M24.0546 55.97C25.6687 56.5088 27.1364 57.4426 28.4329 58.6095C29.1449 59.2039 29.7419 59.8573 30.4881 60.4051C31.1877 60.9186 31.8283 61.317 32.6306 61.6906C32.7239 61.759 32.8266 61.6191 32.8142 61.5382C32.7179 61.1805 32.575 60.7885 32.4445 60.4774C32.2207 60.0979 31.997 59.7183 31.7389 59.3854C31.2105 58.6386 30.5327 57.9976 29.9015 57.3909C28.605 56.2239 27.1249 55.2093 25.486 54.5088C23.8937 53.8425 22.2484 53.6396 20.5223 53.4491C18.7494 53.2244 17.0451 52.9065 15.3938 52.125C15.173 52.0348 14.8867 52.327 15.039 52.5106C16.7609 55.6404 21.1281 54.9704 24.0546 55.97ZM21.9753 59.683C20.8931 59.104 19.8794 58.4317 18.8999 57.7128C17.9671 57.0281 17.1246 56.1226 16.0672 55.7054C15.7998 55.5809 15.5696 55.699 15.445 55.9664C12.2952 53.511 9.40692 50.6015 6.82969 47.5616C5.86906 46.4259 4.94265 45.2436 4.24647 43.9431L4.4429 42.7955C5.4807 37.9592 8.7017 33.8642 12.9578 31.3901C16.8685 29.0932 21.4536 28.2242 25.9697 28.5247C25.8824 29.0348 25.7951 29.5449 25.7545 30.0892L25.5953 31.4795C24.9919 31.3237 24.4818 31.2364 23.8224 31.2548C23.163 31.2731 22.4912 31.2107 22.0213 31.6552C21.8035 31.8542 21.7723 32.1901 22.0521 32.3955C22.5185 32.7379 23.1313 32.6852 23.688 32.8068C24.3256 32.9159 24.9165 32.9908 25.5323 33.2275C25.7531 33.3178 25.9273 33.3738 26.1481 33.4641C26.543 33.6105 26.9037 33.8035 27.2645 33.9965C27.846 34.2798 28.4836 34.3889 29.1212 34.498C30.4306 34.6696 31.2359 35.3325 32.1126 36.1914C32.5572 36.6612 33.0018 37.131 33.5833 37.4143C34.1649 37.6976 34.5102 37.5205 35.0421 37.4803C35.2038 37.4555 35.2599 37.2813 35.12 37.1786C35.0609 37.0635 35.0237 36.8209 34.918 36.6715C34.7875 36.3604 34.5885 36.1426 34.3896 35.9248C33.8983 35.4207 33.4195 34.9975 32.9283 34.4934C32.0515 33.6346 31.1311 33.0308 29.971 32.7534C30.5158 31.7179 30.7931 30.5579 31.1171 29.432C35.5613 30.6127 39.6692 32.8384 43.3197 35.5895C48.3817 39.4486 52.4014 44.3367 56.1224 49.4362C59.691 54.3521 63.3436 59.5449 68.3903 63.0338C68.6235 63.205 70.816 64.2732 71.0834 64.3977C74.4967 65.6625 81.4693 70.0501 81.4693 70.0501C81.189 70.9209 80.3392 72.6655 79.7914 73.4118L69.4702 68.9938C65.2005 66.7929 60.5325 65.2326 55.7459 64.5183C46.8911 63.1865 37.6714 64.6009 29.0409 62.5724C28.8885 62.3888 28.6896 62.171 28.5154 62.1149C28.2822 61.9438 28.0272 61.9001 27.7255 61.8222C25.8098 61.2056 23.8255 60.6822 21.9753 59.683ZM22.1623 58.7437C22.4421 58.9491 22.8029 59.1421 23.117 59.3009C23.3844 59.4254 23.6985 59.5842 24.0001 59.6621C24.1743 59.7181 24.3018 59.7399 24.476 59.796C24.7777 59.8739 24.986 59.8833 25.2753 59.8803C25.5988 59.8307 25.8851 59.5384 25.963 59.2367C26.0409 58.9351 25.898 58.5431 25.6647 58.3719C25.0708 58.0078 24.4675 57.852 23.8175 57.662C23.55 57.5375 23.2484 57.4596 22.9467 57.3817C22.645 57.3038 22.2501 57.1574 21.9732 57.2413C21.939 57.2879 21.8923 57.2537 21.8923 57.2537C21.6031 57.2567 21.4567 57.6517 21.5748 57.8819C21.5748 57.8819 21.6214 57.9161 21.5872 57.9628C21.556 58.2987 21.8824 58.5383 22.1623 58.7437Z" fill="#9E744D"/>
</g>
<defs>
<clipPath id="clip0_420_2282">
<rect width="100" height="100" fill="white"/>
</clipPath>
</defs>
</svg>
