<svg width="800" height="1000" viewBox="0 0 800 1000" fill="none" xmlns="http://www.w3.org/2000/svg">

<!--Full surface (use for hover)-->
<!--<path d="M663.691 659.799C659.394 664.814 653.097 667.297 646.672 668.345C642.315 669.067 635.69 669.186 631.323 668.731C629.165 668.692 626.986 668.434 624.838 668.197C620.69 667.722 616.552 667.139 612.454 666.308C597.663 663.291 583.647 657.306 569.264 652.865C562.032 650.629 554.661 648.7 547.161 647.553C543.471 646.989 539.701 646.564 535.971 646.307C533.952 646.168 531.903 646.307 529.893 646.415C528.222 646.504 526.93 646.652 524.93 647.009C524.85 647.039 524.761 647.058 524.681 647.088C523.786 647.434 522.828 647.623 521.799 647.84C521.411 647.879 521.02 647.978 520.642 648.028C520.463 647.968 520.284 647.899 520.145 647.84C520.453 634.773 520.782 621.696 521.1 608.629C521.249 602.367 521.408 596.115 521.558 589.854C520.603 589.359 519.638 588.875 518.663 588.4C515.868 587.025 513.053 585.67 510.218 584.394C508.666 583.692 507.114 583.019 505.563 582.327C504.638 581.911 503.832 581.496 503.046 580.981C502.668 581.268 502.26 581.515 501.823 581.723C498.54 583.286 494.153 582.485 491.836 579.606C489.568 576.787 489.309 572.563 491.577 569.665C492.622 568.32 494.462 566.856 496.143 566.539C496.571 566.46 497.893 566.134 498.321 566.144C498.709 566.029 499.386 566.035 499.893 566.074C500.967 566.173 501.982 566.668 502.847 567.291C503.862 568.013 504.737 568.933 505.354 570.001C505.672 569.893 506 569.804 506.299 569.724C507.313 569.447 508.288 569.091 509.263 568.725C511.223 567.983 513.073 567.152 514.843 566.035C516.584 564.927 518.186 563.621 519.628 562.147C520.354 561.415 521.08 560.654 521.607 559.763C522.154 558.863 522.248 558.745 522.825 557.864C523.382 557.014 524.635 556.692 525.391 557.354C525.898 557.789 530.281 559.734 530.281 559.734C534.114 561.346 538.04 563.008 541.322 565.105C546.803 568.597 551.956 572.682 556.929 576.836C566.09 584.503 574.615 592.891 582.434 601.902C589.983 610.607 597.016 619.757 604.824 628.244C612.324 636.385 620.58 643.863 630.319 649.284C635.033 651.905 640.027 654.022 645.259 655.377C647.786 656.04 650.352 656.525 652.948 656.782C655.674 657.049 658.419 656.91 661.135 657.276C662.249 657.425 664.9 658.388 663.691 659.799ZM647.139 664.942C642.613 665.823 637.908 665.932 633.313 665.388C632.209 665.249 631.105 665.081 630.02 664.874C617.955 662.569 607.162 655.892 597.881 648.117C591.057 642.393 584.892 635.978 578.728 629.565C575.647 626.359 572.566 623.153 569.403 620.034C560.451 611.201 550.623 603.337 540.069 596.462C535.653 593.574 531.097 590.883 526.442 588.39C524.969 587.599 523.487 586.837 521.995 586.085C521.965 586.07 521.936 586.055 521.907 586.041C521.82 585.997 521.736 585.954 521.647 585.917C518.573 584.374 515.46 582.979 512.287 581.674C511.908 581.517 511.528 581.358 511.147 581.198C509.117 580.345 507.052 579.478 504.916 579.003C506.03 577.312 506.547 575.224 506.368 573.206C506.617 573.186 506.856 573.157 507.075 573.127C508.368 572.959 509.681 572.761 510.924 572.365C513.321 571.604 515.649 570.506 517.768 569.151C519.329 568.152 520.812 567.004 522.144 565.718C522.632 565.253 523.089 564.778 523.537 564.274C524.223 563.512 525.079 562.464 525.666 561.346C525.928 561.428 526.197 561.494 526.465 561.561C526.684 561.615 526.903 561.67 527.118 561.732C527.143 561.737 527.168 561.744 527.193 561.752C527.218 561.759 527.242 561.767 527.267 561.772C527.874 561.95 528.481 562.167 529.078 562.395C529.159 562.424 529.237 562.456 529.314 562.488C529.368 562.51 529.422 562.533 529.476 562.553C529.485 562.563 529.495 562.563 529.505 562.563C529.625 562.622 529.754 562.681 529.883 562.721C529.913 562.741 529.933 562.751 529.963 562.76C538.298 566.776 545.729 572.474 552.831 578.37C562.022 586.006 570.606 594.355 578.494 603.327C581.886 607.185 585.182 611.168 588.485 615.158C599.763 628.783 611.11 642.493 626.529 651.628C631.811 654.754 637.49 657.316 643.419 658.948C646.343 659.759 649.327 660.313 652.341 660.64C654.778 660.907 657.305 661.095 659.732 660.729C655.684 662.559 651.486 664.092 647.139 664.942ZM549.489 644.388C545.301 643.745 541.143 643.319 536.906 643.478C536.178 643.504 535.45 643.519 534.724 643.535C533.267 643.565 531.814 643.596 530.361 643.715C530.088 643.736 529.811 643.754 529.533 643.773C527.988 643.876 526.389 643.982 524.989 644.585C525.153 638.572 525.308 632.554 525.463 626.54L525.463 626.522C525.544 623.401 525.624 620.282 525.706 617.165C525.896 609.663 526.085 602.152 526.275 594.641L526.279 594.497L526.291 594.029L526.332 592.396C529.406 594.078 532.42 595.859 535.384 597.718C546.157 604.474 556.114 612.417 565.245 621.221C568.786 624.633 572.284 628.23 575.812 631.859C587.495 643.875 599.508 656.23 614.513 663.281C607.421 661.579 600.438 659.453 593.535 657.148C590.81 656.241 588.091 655.306 585.369 654.37C573.613 650.328 561.823 646.275 549.489 644.388Z" fill="black"/>-->

<!--<path fill-rule="evenodd" clip-rule="evenodd" d="M633.313 665.388C637.908 665.932 642.613 665.823 647.139 664.942C651.486 664.092 655.684 662.559 659.732 660.729C657.305 661.095 654.778 660.907 652.341 660.64C649.327 660.313 646.343 659.759 643.419 658.948C637.49 657.316 631.811 654.754 626.529 651.628C611.11 642.493 599.763 628.783 588.485 615.158C585.182 611.168 581.886 607.185 578.494 603.327C570.606 594.355 562.022 586.006 552.831 578.37C545.729 572.474 538.298 566.776 529.963 562.76C529.933 562.751 529.913 562.741 529.883 562.721C529.754 562.681 529.625 562.622 529.505 562.563C529.495 562.563 529.485 562.563 529.476 562.553C529.422 562.533 529.368 562.51 529.314 562.488C529.237 562.456 529.159 562.424 529.078 562.395C528.481 562.167 527.874 561.95 527.267 561.772C527.242 561.767 527.218 561.759 527.193 561.752C527.168 561.744 527.143 561.737 527.118 561.732C526.903 561.67 526.684 561.615 526.465 561.561C526.197 561.494 525.928 561.428 525.666 561.346C525.079 562.464 524.223 563.512 523.537 564.274C523.089 564.778 522.632 565.253 522.144 565.718C520.812 567.004 519.329 568.152 517.768 569.151C515.649 570.506 513.321 571.604 510.924 572.365C509.681 572.761 508.368 572.959 507.075 573.127C506.856 573.157 506.617 573.186 506.368 573.206C506.547 575.224 506.03 577.312 504.916 579.003C507.052 579.478 509.117 580.345 511.147 581.198C511.528 581.358 511.908 581.517 512.287 581.674C515.46 582.979 518.573 584.374 521.647 585.917C521.736 585.954 521.82 585.997 521.907 586.041C521.936 586.055 521.965 586.07 521.995 586.085C523.487 586.837 524.969 587.599 526.442 588.39C531.097 590.883 535.653 593.574 540.069 596.462C550.623 603.337 560.451 611.201 569.403 620.034C572.566 623.153 575.647 626.359 578.728 629.565C584.892 635.978 591.057 642.393 597.881 648.117C607.162 655.892 617.955 662.569 630.02 664.874C631.105 665.081 632.209 665.249 633.313 665.388ZM529.533 643.773C529.811 643.754 530.088 643.736 530.361 643.715C531.814 643.596 533.267 643.565 534.724 643.535C535.45 643.519 536.178 643.504 536.906 643.478C541.143 643.319 545.301 643.745 549.489 644.388C561.823 646.275 573.613 650.328 585.369 654.37C588.091 655.306 590.81 656.241 593.535 657.148C600.438 659.453 607.421 661.579 614.513 663.281C599.508 656.23 587.495 643.875 575.812 631.859C572.284 628.23 568.786 624.633 565.245 621.221C556.114 612.417 546.157 604.474 535.384 597.718C532.42 595.859 529.406 594.078 526.332 592.396L526.291 594.029L526.279 594.497C526.278 594.545 526.277 594.593 526.275 594.641C526.085 602.152 525.896 609.663 525.706 617.165C525.624 620.282 525.544 623.401 525.463 626.522C525.463 626.528 525.463 626.534 525.463 626.54C525.308 632.554 525.153 638.572 524.989 644.585C526.389 643.982 527.988 643.876 529.533 643.773Z" fill="black"/>-->
<path fill-rule="evenodd" clip-rule="evenodd" d="M663.691 659.799C659.394 664.814 653.097 667.297 646.672 668.345C642.315 669.067 635.69 669.186 631.323 668.731C629.165 668.692 626.986 668.434 624.838 668.197C620.69 667.722 616.552 667.139 612.454 666.308C597.663 663.291 583.647 657.306 569.264 652.865C562.032 650.629 554.661 648.7 547.161 647.553C543.471 646.989 539.701 646.564 535.971 646.307C533.952 646.168 531.903 646.307 529.893 646.415C528.222 646.504 526.93 646.652 524.93 647.009C524.85 647.039 524.761 647.058 524.681 647.088C523.786 647.434 522.828 647.623 521.799 647.84C521.411 647.879 521.02 647.978 520.642 648.028C520.463 647.968 520.284 647.899 520.145 647.84C520.453 634.773 520.782 621.696 521.1 608.629C521.249 602.367 521.408 596.115 521.558 589.854C520.603 589.359 519.638 588.875 518.663 588.4C515.868 587.025 513.053 585.67 510.218 584.394C508.666 583.692 507.114 583.019 505.563 582.327C504.638 581.911 503.832 581.496 503.046 580.981C502.668 581.268 502.26 581.515 501.823 581.723C498.54 583.286 494.153 582.485 491.836 579.606C489.568 576.787 489.309 572.563 491.577 569.665C492.622 568.32 494.462 566.856 496.143 566.539C496.571 566.46 497.893 566.134 498.321 566.144C498.709 566.029 499.386 566.035 499.893 566.074C500.967 566.173 501.982 566.668 502.847 567.291C503.862 568.013 504.737 568.933 505.354 570.001C505.672 569.893 506 569.804 506.299 569.724C507.313 569.447 508.288 569.091 509.263 568.725C511.223 567.983 513.073 567.152 514.843 566.035C516.584 564.927 518.186 563.621 519.628 562.147C520.354 561.415 521.08 560.654 521.607 559.763C522.154 558.863 522.248 558.745 522.825 557.864C523.382 557.014 524.635 556.692 525.391 557.354C525.898 557.789 530.281 559.734 530.281 559.734C534.114 561.346 538.04 563.008 541.322 565.105C546.803 568.597 551.956 572.682 556.929 576.836C566.09 584.503 574.615 592.891 582.434 601.902C589.983 610.607 597.016 619.757 604.824 628.244C612.324 636.385 620.58 643.863 630.319 649.284C635.033 651.905 640.027 654.022 645.259 655.377C647.786 656.04 650.352 656.525 652.948 656.782C655.674 657.049 658.419 656.91 661.135 657.276C662.249 657.425 664.9 658.388 663.691 659.799ZM647.139 664.942C642.613 665.823 637.908 665.932 633.313 665.388C632.209 665.249 631.105 665.081 630.02 664.874C617.955 662.569 607.162 655.892 597.881 648.117C591.057 642.393 584.892 635.978 578.728 629.565C575.647 626.359 572.566 623.153 569.403 620.034C560.451 611.201 550.623 603.337 540.069 596.462C535.653 593.574 531.097 590.883 526.442 588.39C524.969 587.599 523.487 586.837 521.995 586.085C521.965 586.07 521.936 586.055 521.907 586.041C521.82 585.997 521.736 585.954 521.647 585.917C518.573 584.374 515.46 582.979 512.287 581.674C511.908 581.517 511.528 581.358 511.147 581.198C509.117 580.345 507.052 579.478 504.916 579.003C506.03 577.312 506.547 575.224 506.368 573.206C506.617 573.186 506.856 573.157 507.075 573.127C508.368 572.959 509.681 572.761 510.924 572.365C513.321 571.604 515.649 570.506 517.768 569.151C519.329 568.152 520.812 567.004 522.144 565.718C522.632 565.253 523.089 564.778 523.537 564.274C524.223 563.512 525.079 562.464 525.666 561.346C525.928 561.428 526.197 561.494 526.465 561.561C526.684 561.615 526.903 561.67 527.118 561.732C527.143 561.737 527.168 561.744 527.193 561.752C527.218 561.759 527.242 561.767 527.267 561.772C527.874 561.95 528.481 562.167 529.078 562.395C529.159 562.424 529.237 562.456 529.314 562.488C529.368 562.51 529.422 562.533 529.476 562.553C529.485 562.563 529.495 562.563 529.505 562.563C529.625 562.622 529.754 562.681 529.883 562.721C529.913 562.741 529.933 562.751 529.963 562.76C538.298 566.776 545.729 572.474 552.831 578.37C562.022 586.006 570.606 594.355 578.494 603.327C581.886 607.185 585.182 611.168 588.485 615.158C599.763 628.783 611.11 642.493 626.529 651.628C631.811 654.754 637.49 657.316 643.419 658.948C646.343 659.759 649.327 660.313 652.341 660.64C654.778 660.907 657.305 661.095 659.732 660.729C655.684 662.559 651.486 664.092 647.139 664.942ZM549.489 644.388C545.301 643.745 541.143 643.319 536.906 643.478C536.178 643.504 535.45 643.519 534.724 643.535C533.267 643.565 531.814 643.596 530.361 643.715C530.088 643.736 529.811 643.754 529.533 643.773C527.988 643.876 526.389 643.982 524.989 644.585C525.153 638.572 525.308 632.554 525.463 626.54L525.463 626.522C525.544 623.401 525.624 620.282 525.706 617.165C525.896 609.663 526.085 602.152 526.275 594.641L526.279 594.497L526.291 594.029L526.332 592.396C529.406 594.078 532.42 595.859 535.384 597.718C546.157 604.474 556.114 612.417 565.245 621.221C568.786 624.633 572.284 628.23 575.812 631.859C587.495 643.875 599.508 656.23 614.513 663.281C607.421 661.579 600.438 659.453 593.535 657.148C590.81 656.241 588.091 655.306 585.369 654.37C573.613 650.328 561.823 646.275 549.489 644.388Z" fill="black"/>
<path d="M614.513 663.281C607.421 661.579 600.438 659.453 593.534 657.148C579.042 652.321 564.678 646.712 549.489 644.388C545.301 643.745 541.143 643.319 536.906 643.478C534.717 643.557 532.539 643.537 530.361 643.715C528.57 643.853 526.64 643.873 524.989 644.585C525.238 635.445 525.467 626.295 525.705 617.165C525.914 608.916 526.123 600.656 526.332 592.396C529.406 594.078 532.42 595.858 535.384 597.718C546.157 604.474 556.114 612.417 565.245 621.221C580.514 635.93 594.977 654.101 614.513 663.281Z" fill="#CC2E3C"/>
<path d="M659.732 660.729C657.305 661.095 654.778 660.907 652.341 660.64C649.327 660.313 646.343 659.759 643.419 658.948C637.49 657.316 631.811 654.754 626.529 651.628C606.595 639.818 593.465 620.361 578.494 603.327C570.606 594.355 562.022 586.006 552.831 578.37C545.729 572.474 538.298 566.777 529.963 562.761C529.933 562.751 529.913 562.741 529.883 562.721C529.754 562.682 529.625 562.622 529.505 562.563H529.505C529.495 562.563 529.485 562.563 529.475 562.553C529.346 562.504 529.217 562.444 529.078 562.395C528.481 562.167 527.874 561.95 527.267 561.772C527.217 561.762 527.168 561.742 527.118 561.732C526.64 561.593 526.143 561.494 525.666 561.346C525.079 562.464 524.223 563.512 523.537 564.274C523.089 564.778 522.632 565.253 522.144 565.718C520.811 567.004 519.329 568.152 517.768 569.151C515.649 570.506 513.321 571.604 510.924 572.366C509.681 572.761 508.368 572.959 507.075 573.127C506.856 573.157 506.617 573.187 506.368 573.206C506.547 575.224 506.03 577.312 504.916 579.003C507.453 579.567 509.89 580.685 512.287 581.674C515.46 582.979 518.573 584.374 521.647 585.917C521.766 585.967 521.876 586.026 521.995 586.085C523.487 586.837 524.969 587.599 526.442 588.39C531.097 590.883 535.653 593.574 540.069 596.462C550.623 603.337 560.451 611.201 569.403 620.034C578.892 629.392 587.646 639.531 597.881 648.117C607.162 655.892 617.954 662.569 630.02 664.874C631.104 665.081 632.209 665.249 633.313 665.388C637.908 665.932 642.613 665.823 647.139 664.943C651.486 664.092 655.684 662.559 659.732 660.729Z" fill="#FF3A4B"/>
<path d="M502.668 572.385C503.096 573.602 503.116 574.512 502.767 575.699C502.578 576.352 502.459 576.609 502.051 577.232C501.852 577.519 501.892 577.48 501.653 577.737C501.554 577.846 501.454 577.954 501.345 578.053C501.315 578.083 501.136 578.241 501.066 578.321C500.122 579.052 498.958 579.389 497.864 579.418C496.71 579.438 495.566 579.161 494.581 578.39C492.731 576.926 492.263 574.097 493.348 572.118C493.964 570.981 494.999 570.269 496.163 569.784C496.789 569.517 497.476 569.408 498.132 569.23C498.431 569.151 498.759 569.012 499.067 569.002C499.107 568.993 499.137 569.012 499.167 569.012C499.684 569.289 500.201 569.566 500.679 569.903C500.957 570.091 501.454 570.575 501.813 570.991C502.081 571.297 502.549 572.039 502.668 572.385Z" fill="#FFD53F"/>
</svg>
