<svg version="1.1" viewBox="0 0 800 1000" xmlns="http://www.w3.org/2000/svg">
	<g id="">
		<path d="m663.1 659.8c-0.1 0.4-0.5 0.8-1.1 1s-1.2 0.3-1.8 0.4c1-0.4 2-0.9 2.9-1.4z"/>
		<path d="m647.1 668.9c-4.4 0.7-8.8 0.8-13.2 0.4 0.3 0 0.7 0 1.1-0.1 1.1-0.1 2.2-0.4 3.3-0.6 1-0.1 1.1-1.6 0-1.7-1.5-0.1-3.1-0.3-4.6-0.5l0.1-0.5c4.6 0.5 9.4 0.4 13.9-0.5 4.4-0.9 8.6-2.4 12.7-4.3 0.6-0.1 1.2-0.2 1.8-0.4s1-0.5 1.1-1c0.2-0.1 0.4-0.2 0.5-0.3 0.5-0.2 0.9 0.3 0.5 0.7-4.4 5.2-10.7 7.7-17.2 8.8z"/>
		<path d="m638.2 668.6c-1.1 0.1-2.2 0.5-3.3 0.6-0.4 0-0.7 0.1-1.1 0.1-2.2-0.2-4.4-0.6-6.5-1.1-4.4-1-8.6-2.5-12.6-4.4 0.2 0.1 0.4 0.1 0.7 0.2 3.7 0.9 7.3 1.6 11.1 2 2 0.2 4 0.3 6.1 0.4 0.3 0 0.7 0 1 0.1 1.5 0.2 3.1 0.4 4.6 0.5 1.2 0 1.1 1.5 0 1.6z"/>
		<path d="m626.5 666c-3.8-0.4-7.4-1.1-11.1-2-0.2-0.1-0.5-0.1-0.7-0.2-19.6-9.3-34.2-27.6-49.5-42.5-9.2-8.9-19.2-16.9-30-23.8-3-1.9-6-3.7-9.1-5.4 0-1.3 0.1-2.7 0.1-4 4.7 2.5 9.3 5.2 13.7 8.2 10.6 7 20.5 14.9 29.5 23.8 9.5 9.5 18.3 19.7 28.6 28.4 9.3 7.9 20.2 14.6 32.3 16.9 1.1 0.2 2.2 0.4 3.3 0.5l-0.1 0.5c-0.3 0-0.7-0.1-1-0.1-1.9-0.1-3.9-0.1-6-0.3z"/>
		<path d="m614.8 663.8c-7.1-1.7-14.2-3.9-21.1-6.2-14.6-4.9-29-10.6-44.3-12.9-4.2-0.7-8.4-1.1-12.6-0.9-2.2 0.1-4.4 0.1-6.6 0.2-1.8 0.1-3.7 0.2-5.4 0.9 0.2-9.2 0.5-18.5 0.7-27.7 0.2-8.3 0.4-16.7 0.6-25 3.1 1.7 6.1 3.5 9.1 5.4 10.8 6.8 20.8 14.9 30 23.8 15.4 14.7 29.9 33.1 49.6 42.4z" fill="#CC2E3C"/>
		<path d="m531 562.3c0.8 0 1.4-1 1-1.7-0.3-0.5-0.7-0.8-1.1-1.1 3.7 1.1 7.1 2.9 10.4 5 5.5 3.5 10.7 7.7 15.7 11.9 9.2 7.8 17.8 16.2 25.6 25.3 7.6 8.8 14.7 18 22.5 26.6 7.5 8.2 15.8 15.8 25.6 21.3 4.7 2.6 9.8 4.8 15 6.2 2.5 0.7 5.1 1.2 7.7 1.4 2.7 0.3 5.5 0.1 8.2 0.5 1.1 0.2 1.8 1.3 1.5 2.1-1 0.5-1.9 0.9-2.9 1.4-2.4 0.4-5 0.2-7.4-0.1-3-0.3-6-0.9-9-1.7-6-1.6-11.7-4.2-17-7.4-20-11.9-33.2-31.6-48.3-48.8-7.9-9.1-16.6-17.5-25.8-25.2-7.1-6-14.6-11.7-23-15.8 0.5 0.1 0.9 0.1 1.3 0.1z"/>
		<path d="m531.9 560.6c0.5 0.7-0.2 1.7-1 1.7-0.4 0-0.8 0-1.2-0.2h-0.1c-0.9-0.4-1.8-0.9-2.8-1.2 0-0.7 0-1.5 0.1-2.2 1.3 0.2 2.6 0.5 3.8 0.9 0.6 0.2 0.9 0.6 1.2 1z"/>
		<path d="m526.2 588.1c0.2-9 0.5-18 0.7-27h0.2l1.8 0.6c0.1 0 0.3 0.1 0.4 0.2s0.2 0.1 0.4 0.2h0.1c8.4 4.1 15.8 9.8 23 15.8 9.2 7.7 17.9 16.2 25.8 25.2 15 17.2 28.2 36.9 48.3 48.8 5.3 3.2 11 5.8 17 7.4 2.9 0.8 5.9 1.4 9 1.7 2.5 0.3 5 0.5 7.4 0.1-4.1 1.8-8.3 3.4-12.7 4.3-4.5 0.9-9.3 1-13.9 0.5-1.1-0.1-2.2-0.3-3.3-0.5-12.1-2.3-23-9.1-32.3-16.9-10.3-8.7-19.1-18.9-28.6-28.4-9-8.9-18.9-16.9-29.5-23.8-4.5-3-9.1-5.7-13.8-8.2z" fill="#FF3A4B"/>
		<path d="m530.8 559.5c-1.2-0.4-2.5-0.7-3.8-0.9v-0.9c0.3 0.1 0.6 0.2 0.9 0.4 0.7 0.3 1.5 0.6 2.2 1 0.3 0.1 0.5 0.3 0.7 0.4z"/>
		<path d="m526.9 560.9c0.9 0.4 1.9 0.8 2.8 1.2-0.1 0-0.3-0.1-0.4-0.2s-0.3-0.1-0.4-0.2c-0.6-0.2-1.2-0.5-1.8-0.6h-0.2v-0.2z"/>
		<path d="m527 557.4v0.3c-0.3-0.1-0.6-0.2-0.9-0.3 0.2-0.1 0.4-0.1 0.6-0.2 0.1 0.1 0.2 0.2 0.3 0.2z"/>
		<path d="m527 557.7v0.9c-0.3 0-0.5-0.1-0.8-0.1 0-0.4 0-0.7-0.1-1 0.3 0 0.6 0.1 0.9 0.2z"/>
		<path d="m527 558.7c0 0.7 0 1.5-0.1 2.2-0.4-0.2-0.8-0.4-1.3-0.5 0.3-0.6 0.5-1.2 0.5-1.8 0.3 0 0.6 0 0.9 0.1z"/>
		<path d="m526.9 560.9v0.2c-0.5-0.1-1-0.2-1.5-0.4 0.1-0.1 0.1-0.3 0.2-0.4 0.5 0.2 0.9 0.4 1.3 0.6z"/>
		<path d="m526.9 561.1c-0.2 9-0.5 18-0.7 27-1.5-0.8-3-1.6-4.5-2.3-0.1-0.1-0.2-0.1-0.4-0.2 0.2-6.8 0.3-13.6 0.5-20.4 0.5-0.5 1-0.9 1.4-1.5 0.7-0.8 1.5-1.8 2.1-3 0.6 0.2 1.1 0.3 1.6 0.4z" fill="#FF3A4B"/>
		<path d="m530.2 644c2.2-0.2 4.4-0.2 6.6-0.2 4.3-0.2 8.4 0.3 12.6 0.9 15.3 2.3 29.7 8 44.3 12.9 6.9 2.3 14 4.5 21.1 6.2 4 1.9 8.1 3.4 12.6 4.4 2.2 0.5 4.3 0.9 6.5 1.1h-2.2c-2.2 0-4.4-0.3-6.5-0.5-4.2-0.5-8.3-1.1-12.4-1.9-14.9-3-29-9.1-43.4-13.6-7.3-2.3-14.7-4.2-22.2-5.4-3.7-0.6-7.5-1-11.2-1.3-2-0.1-4.1 0-6.1 0.1-1.7 0.1-3.3 0.4-5 0.1 0-0.6 0-1.3 0.1-2 1.4-0.6 3.4-0.6 5.2-0.8z"/>
		<path d="m526.2 588.1c0 1.3-0.1 2.7-0.1 4-1.6-0.9-3.2-1.7-4.8-2.6 0-1.3 0.1-2.7 0.1-4 0.1 0 0.2 0.1 0.4 0.2 1.5 0.8 3 1.6 4.4 2.4z"/>
		<path d="m526.1 557.5z"/>
		<path d="m524.8 644.9c0 0.6 0 1.3-0.1 2-0.1 0-0.3-0.1-0.4-0.1-0.7-0.2-0.8-1.2-0.2-1.5 0.2-0.2 0.5-0.3 0.7-0.4z"/>
		<path d="m523.7 559.6c-0.6-0.2-0.6-1.2 0.2-1.2s1.5 0.1 2.3 0.2c0 0.6-0.2 1.2-0.5 1.8-0.7-0.3-1.3-0.6-2-0.8z"/>
		<path d="m523 558.5c0.1-0.8 0.8-1.2 1.6-1.3 0.4 0 0.9 0.1 1.3 0.2h0.1c-1 0.5-2 0.8-3 1.1z"/>
		<path d="m523 558.5c1-0.3 2-0.7 3-1 0.1 0.3 0.1 0.7 0.1 1-0.8-0.1-1.5-0.1-2.3-0.2-0.7 0-0.8 1-0.2 1.2 0.7 0.2 1.3 0.5 1.9 0.7-0.1 0.1-0.1 0.3-0.2 0.4-0.1 0-0.2-0.1-0.3-0.1-0.9-0.3-2.2-0.7-2.1-1.9 0.1 0.1 0.1 0 0.1-0.1z"/>
		<path d="m523 558.8c-0.1 1.2 1.2 1.5 2.1 1.9 0.1 0 0.2 0.1 0.3 0.1-0.6 1.1-1.5 2.2-2.1 3-0.5 0.5-0.9 1-1.4 1.5 0-2.1 0.1-4.2 0.2-6.3 0.3-0.1 0.6-0.2 1-0.3-0.1-0.1-0.1 0-0.1 0.1z"/>
		<path d="m521.9 565.2c-0.2 6.8-0.3 13.6-0.5 20.4-3.1-1.6-6.2-3-9.4-4.3-2.4-1-4.9-2.1-7.4-2.7 1.1-1.7 1.6-3.8 1.5-5.9 0.2 0 0.5 0 0.7-0.1 1.3-0.2 2.6-0.4 3.9-0.8 2.4-0.8 4.8-1.9 6.9-3.2 1.5-1 3-2.1 4.3-3.4z" fill="#FF3A4B"/>
		<path d="m521.4 585.6c0 1.3-0.1 2.6-0.1 4-1-0.5-1.9-1-2.9-1.5-2.8-1.4-5.6-2.8-8.5-4.1-1.6-0.7-3.1-1.4-4.7-2.1-0.9-0.4-1.7-0.8-2.5-1.4 0.7-0.6 1.4-1.2 1.9-2 2.5 0.6 5 1.7 7.4 2.7 3.2 1.4 6.3 2.8 9.4 4.4z"/>
		<path d="m519.9 648.2c0.3-13.2 0.6-26.4 1-39.6 0.2-6.3 0.3-12.6 0.5-19 1.6 0.8 3.2 1.7 4.8 2.6-0.2 8.3-0.4 16.7-0.6 25-0.2 9.2-0.5 18.5-0.7 27.7-0.2 0.1-0.4 0.2-0.7 0.3-0.6 0.4-0.5 1.3 0.2 1.5 0.1 0 0.3 0.1 0.4 0.1v0.5c-0.1 0-0.2 0-0.2 0.1-0.9 0.4-2.2 0.9-3.2 0.9 0.5-0.1 0.9-0.1 1-0.1-0.1 0-0.4 0-0.7 0.1-0.4 0-0.8 0.1-1.2 0.1-0.3-0.1-0.5-0.2-0.6-0.2z"/>
		<path d="m523 558.5c-0.3 0.1-0.6 0.2-1 0.3 0 2.1-0.1 4.2-0.2 6.3-1.3 1.3-2.8 2.5-4.4 3.5-2.1 1.4-4.5 2.5-6.9 3.2-1.2 0.4-2.6 0.6-3.9 0.8-0.2 0-0.5 0.1-0.7 0.1 0-0.3 0-0.5-0.1-0.8-0.2-0.9-0.5-1.7-0.9-2.5 0.3-0.1 0.6-0.2 0.9-0.3 1-0.3 2-0.6 3-1 2-0.8 3.8-1.6 5.6-2.7s3.4-2.4 4.8-3.9c0.7-0.7 1.5-1.5 2-2.4s0.8-1.9 1.3-2.8c0.6-0.9 1.6-1 2.4-0.3 0.5 0.4 0.8 0.9 1 1.5h-0.1c-0.4-0.1-0.9-0.2-1.3-0.2-0.7 0-1.3 0.5-1.5 1.2z"/>
		<path d="m503.3 572c-0.3-0.4-0.4-0.7-0.1-1.1 0.3-0.7 1.1-1.1 1.9-1.3 0.4 0.8 0.8 1.6 0.9 2.5 0.1 0.3 0.1 0.5 0.1 0.8-1-0.1-2.2-0.1-2.8-0.9z"/>
		<path d="m504.6 578.6c-0.5 0.8-1.1 1.4-1.9 2-0.4-0.3-0.9-0.6-1.3-0.9-0.6-0.5-0.1-1.5 0.6-1.4 0.9 0 1.8 0.1 2.6 0.3z"/>
		<path d="m495.8 569.3c0.6-0.3 1.3-0.4 2-0.6 0.3-0.1 0.6-0.2 0.9-0.2h0.1l1.5 0.9c0.3 0.2 0.8 0.7 1.1 1.1 0.3 0.3 0.7 1.1 0.9 1.4 0.4 1.2 0.5 2.1 0.1 3.3-0.2 0.7-0.3 0.9-0.7 1.5-0.2 0.3-0.2 0.2-0.4 0.5l-0.6 0.6c-1 0.7-2.1 1.1-3.2 1.1-1.2 0-2.3-0.3-3.3-1-1.9-1.5-2.3-4.3-1.2-6.3 0.6-1.1 1.6-1.8 2.8-2.3z" fill="#FFD53F"/>
		<path d="m502 578.2c-0.7 0-1.2 1-0.6 1.4 0.4 0.3 0.9 0.7 1.3 0.9-0.4 0.3-0.8 0.5-1.2 0.8-3.3 1.6-7.7 0.8-10-2.1s-2.5-7.1-0.3-10c1-1.4 2.6-2.4 4.3-2.7 0.4-0.1 0.9-0.1 1.3-0.1 0-0.1 0.1-0.1 0.1-0.1s0.1 0 0.2-0.1l0.2-0.2c0.2-0.2 0.5-0.3 0.7-0.4 0.5-0.1 1.1-0.1 1.6-0.1 1.1 0.1 2.1 0.6 3 1.2 1 0.7 1.9 1.7 2.5 2.7-0.8 0.2-1.5 0.6-1.9 1.3-0.2 0.4-0.1 0.8 0.1 1.1 0.6 0.8 1.7 0.9 2.7 0.8 0.2 2-0.3 4.2-1.5 5.9-0.7-0.1-1.6-0.2-2.5-0.3zm-9-6.6c-1.1 2-0.6 4.9 1.2 6.3 1 0.8 2.1 1.1 3.3 1 1.1 0 2.3-0.4 3.2-1.1l0.6-0.6c0.2-0.3 0.2-0.2 0.4-0.5 0.4-0.6 0.5-0.9 0.7-1.5 0.4-1.2 0.3-2.1-0.1-3.3-0.1-0.4-0.6-1.1-0.9-1.4l-1.1-1.1-1.5-0.9h-0.1c-0.3 0-0.6 0.2-0.9 0.2-0.7 0.2-1.4 0.3-2 0.6-1.2 0.5-2.2 1.2-2.8 2.3z"/>
	</g>
</svg>