<?xml version="1.0" encoding="utf-8"?>
<!-- Generator: Adobe Illustrator 27.5.0, SVG Export Plug-In . SVG Version: 6.00 Build 0)  -->
<!DOCTYPE svg PUBLIC "-//W3C//DTD SVG 1.1//EN" "http://www.w3.org/Graphics/SVG/1.1/DTD/svg11.dtd" [
	<!ENTITY ns_extend "http://ns.adobe.com/Extensibility/1.0/">
	<!ENTITY ns_ai "http://ns.adobe.com/AdobeIllustrator/10.0/">
	<!ENTITY ns_graphs "http://ns.adobe.com/Graphs/1.0/">
	<!ENTITY ns_vars "http://ns.adobe.com/Variables/1.0/">
	<!ENTITY ns_imrep "http://ns.adobe.com/ImageReplacement/1.0/">
	<!ENTITY ns_sfw "http://ns.adobe.com/SaveForWeb/1.0/">
	<!ENTITY ns_custom "http://ns.adobe.com/GenericCustomNamespace/1.0/">
	<!ENTITY ns_adobe_xpath "http://ns.adobe.com/XPath/1.0/">
]>
<svg version="1.1" id="Calque_1" xmlns:x="&ns_extend;" xmlns:i="&ns_ai;" xmlns:graph="&ns_graphs;"
	 xmlns="http://www.w3.org/2000/svg" xmlns:xlink="http://www.w3.org/1999/xlink" x="0px" y="0px" viewBox="0 0 800 1000"
	 enable-background="new 0 0 800 1000" xml:space="preserve">
<metadata>
	<sfw  xmlns="&ns_sfw;">
		<slices></slices>
		<sliceSourceBounds  bottomLeftOrigin="true" height="395.1" width="302.5" x="227.6" y="-705.5"></sliceSourceBounds>
	</sfw>
</metadata>
<g id="XMLID_00000095299217625412323330000007492622077984342698_">
	<g>
		<path fill="#21C488" d="M345,315.4c19,3.7,37.2,11.6,53.3,22.2c17.1,11.3,32.1,26,43.5,43c1,1.4,1.9,2.9,2.8,4.4
			c0.6,0.9,1.1,1.8,1.6,2.7c1.5,2.5,3,5.1,4.4,7.8c1.4,2.6,2.7,5.2,3.9,7.9c1.3,2.6,2.9,5.1,4.2,7.7c0.6,1.3,2.7,0.5,2.4-0.9
			c-0.7-2.7-1.1-5.4-2.1-7.9c-0.9-2.4-2-4.7-3.1-7.1c-1.6-3.3-3.4-6.6-5.2-9.8c16.8-13.5,28.5-33.1,33.1-54.1
			c16.6,9.1,28,25.7,34.1,43.5c8.1,23.6,7.5,49,6.9,73.5c-0.7,26.7-1.3,53.3-1.9,80c-0.7,26.8-1.3,53.6-1.9,80.4
			c-0.3,14.3-0.7,28.7-1,43c-0.1,0.6-0.2,1.2-0.3,1.9c-0.4,1.8-0.9,3.4-1.4,5.2c-1,3.5-2.4,6.9-4.3,10c-3.7,6.4-8.8,11.9-14.6,16.3
			C486,695.1,469,699,452.7,700.3c-3.2,0.2-6.4,0.4-9.7,0.5h0c-10.1-1.8-20.1-3.8-30-6.2c-18.3-4.4-38-10.9-48.3-26.7
			c-5.6-8.7-7.7-19.2-9.2-29.4c-5.4-38.6-3.7-77.8-8.5-116.5c-4.8-38.7-17.2-78.3-45.6-105c-11.3-10.7-24.8-18.9-38.6-26.1
			c-7.7-4-16.1-7.8-24.5-7.8c16.5-3.9,33.2-6.4,50.1-7.4c19.7-1.2,39.4-0.4,59,2c11,1.4,22,2.9,32.8,5.1c1.4,0.3,2-1.7,0.6-2.1
			c-8.8-2.6-17.6-4.9-26.6-6.4c0.4-7.8-0.1-15.7-1.2-23.4c-1.1-8.4-2.7-16.8-5-25C347.2,322.4,346.2,318.9,345,315.4z"/>
		<path fill="#20A069" d="M355.6,638.5c1.5,10.2,3.5,20.7,9.2,29.4c10.3,15.8,29.9,22.3,48.3,26.7c9.9,2.4,20,4.4,30,6.2
			c-5.8,0.1-11.5,0.1-17.2-0.2c-8.1-0.3-16.2-1-24.1-2.3c-1.4-0.2-2.8-0.5-4.2-0.7c-0.1,0-0.1,0-0.2,0c-0.8-0.1-1.6-0.3-2.4-0.5
			c-1.3-0.3-2.6-0.5-4-0.8c-2.2-0.5-4.4-1-6.6-1.6c-1.3-0.4-2.7-0.8-4-1.2c-0.8-0.2-1.5-0.5-2.3-0.7c-1.3-0.4-2.5-0.9-3.7-1.3
			c-8.4-3.2-16.1-7.8-22-14.7c-4.9-5.8-8.2-12.5-10.6-19.5c0-0.1-0.1-0.3-0.1-0.4c-2.3-7-3.6-14.4-4.6-21.7
			c-0.1-0.4-0.1-0.8-0.2-1.2c-0.3-15-0.5-30-0.8-45.1c-0.1-4.7-0.2-9.5-0.2-14.2c-0.1-2.4-0.1-4.8-0.2-7.2c0-0.8,0-1.6-0.1-2.4
			c0.1-0.6,0.1-1.1,0.1-1.7c-0.1-2.5-0.1-5-0.2-7.5c-0.1-4.9-0.3-9.8-0.4-14.7c-0.3-9.9-0.6-19.8-0.9-29.6c-0.2-5-0.3-10-0.5-15
			c-0.1-4.5-0.2-9.1-0.7-13.6c-0.5-4.5-1.4-8.8-3.3-12.9c-1.6-3.5-3.9-6.6-6.4-9.4c-4.4-5.1-9.7-9.4-14.4-14.1
			c-0.3-0.7-0.6-1.5-1.1-2.1c-0.5-0.6-1.1-1.1-1.6-1.6c-1.2-1.2-2.4-2.4-3.5-3.6c-2.4-2.4-4.8-4.7-7.3-7c-4.8-4.5-9.7-8.9-14.7-13.2
			c-10.1-8.7-20.5-17.1-31.3-25.1c-4.6-3.4-9.3-6.7-14-10c1-0.2,1.9-0.5,2.9-0.7c8.5,0,16.9,3.8,24.5,7.8
			c13.8,7.2,27.3,15.4,38.6,26.1c28.4,26.7,40.8,66.4,45.6,105C351.9,560.6,350.1,599.9,355.6,638.5z"/>
		<path d="M376.4,320.4c19.5,8.4,37.3,20.7,52.1,36c7.4,7.6,14,16,19.7,25c0,0.1,0.1,0.1,0.1,0.2c16.1-14.4,27.2-33.6,31.2-54.9
			c0.3-1.8,2.5-2,3.8-1.4c2.3,1.1,4.6,2.4,6.8,3.8c17.4,11.2,28.6,29.9,34.2,49.5c7.1,24.6,5.9,50.7,5.3,76
			c-0.7,27.2-1.4,54.3-2,81.5c-0.7,27-1.4,54.1-2,81.1c-0.3,11.4-0.6,22.8-0.9,34.2c0,0.4-0.1,0.7-0.2,1.1c-1,5.4-2.7,10.7-4.9,15.7
			c0,0.1,0,0.1-0.1,0.2c0-0.3,0-0.6,0-1c-4.6,9.7-12.7,18.1-21.4,23.9c-14.9,9.9-33.2,13-50.8,13.8c-15.2,0.7-30.8,0.1-46-2.3
			c-1.6-0.2-3.1-0.5-4.7-0.8c-0.7-0.1-1.4-0.3-2.1-0.4c-1.5-0.3-3.1-0.6-4.6-1c-0.2,0-0.4-0.1-0.7-0.1c-1.9-0.4-3.7-0.9-5.6-1.4
			c-1.3-0.4-2.7-0.8-4-1.2c-0.9-0.3-1.7-0.5-2.6-0.8c-1.3-0.4-2.6-0.9-3.9-1.4c-3.1-1.2-6.2-2.6-9.2-4.2c-7.3-4-13.6-9.6-18.3-16.5
			c-3.2-4.8-5.7-10.2-7.5-15.7c-0.1-0.1-0.2-0.2-0.3-0.4c-0.2-0.3-0.3-0.5-0.4-0.9c0-0.2-0.1-0.4-0.1-0.6c0,0,0,0,0-0.1
			c-0.1-0.2-0.2-0.4-0.2-0.5c0-0.1,0-0.2-0.1-0.4c0,0.2,0,0.4,0,0.6c-0.1-0.5-0.3-1.1-0.5-1.7c0-0.1-0.1-0.2-0.1-0.4
			c-0.2-0.9-0.3-1.8-0.5-2.7c-0.6-2-1.1-4-1.7-6c-0.6-2.3-1.1-4.7-1.5-7.1c-0.2-1-0.3-2.1-0.4-3.1c0-0.1-0.1-0.1-0.1-0.2
			c-0.1-0.6-0.1-1.2-0.2-1.8c-0.1-7.6-0.3-15.2-0.4-22.7c-0.2-8.7-0.3-17.3-0.5-26c-0.1-4.2-0.2-8.5-0.2-12.7c0-2.2,0-4.3,0-6.5
			c0-1.5,0-3,0.3-4.5c-0.1-2.5-0.2-5-0.3-7.5c-0.2-5.5-0.4-11-0.6-16.5c-0.4-9.7-0.7-19.4-1-29.1c-0.2-4.9-0.3-9.8-0.5-14.7
			c-0.1-4.3-0.2-8.6-0.9-12.9c-0.6-4-1.8-7.9-3.8-11.4c-1.8-3.1-4.2-5.8-6.7-8.4c-4.5-4.6-9.5-8.8-13.1-14.1c0,0,0,0,0,0
			c-0.7-0.6-1.3-1.3-2-1.9c-1.4-1.3-2.8-2.6-4.2-3.9c-2.7-2.5-5.4-5-8.1-7.5c-19.4-17.7-39.9-34.1-61.6-49c-1.7-1.1-1.3-3.8,0.7-4.3
			c10.8-2.8,21.8-5.1,32.9-6.7c19.8-2.9,39.8-3.9,59.8-2.9c9.6,0.5,19.2,1.4,28.8,2.9c-0.3-3.9-0.7-7.8-1-11.7
			c-1.6-16.7-4.9-33.1-10.3-49c-0.6-1.8,1.4-2.9,2.9-2.7C354.1,312.4,365.5,315.7,376.4,320.4z M398.3,337.6
			C382.2,327,364,319.1,345,315.4c1.1,3.5,2.2,6.9,3.1,10.5c2.2,8.2,3.8,16.6,5,25c1,7.8,1.5,15.6,1.2,23.4c9,1.6,17.8,3.9,26.6,6.4
			c1.4,0.4,0.7,2.4-0.6,2.1c-10.8-2.2-21.8-3.8-32.8-5.1c-19.6-2.4-39.3-3.2-59-2c-16.9,1-33.7,3.6-50.1,7.4c-1,0.2-1.9,0.5-2.9,0.7
			c4.7,3.3,9.4,6.6,14,10c10.7,8,21.2,16.3,31.3,25.1c5,4.3,9.9,8.7,14.7,13.2c2.5,2.3,4.9,4.6,7.3,7c1.2,1.2,2.4,2.4,3.5,3.6
			c0.5,0.5,1.1,1.1,1.6,1.6c0.5,0.6,0.8,1.4,1.1,2.1c4.8,4.8,10,9.1,14.4,14.1c2.5,2.8,4.8,5.9,6.4,9.4c1.9,4.1,2.8,8.5,3.3,12.9
			c0.5,4.5,0.5,9.1,0.7,13.6c0.2,5,0.3,10,0.5,15c0.3,9.9,0.6,19.8,0.9,29.6c0.1,4.9,0.3,9.8,0.4,14.7c0,2.5,0.1,5,0.2,7.5
			c0,0.6,0,1.2-0.1,1.7c0,0.8,0,1.6,0.1,2.4c0.1,2.4,0.2,4.8,0.2,7.2c0.1,4.7,0.2,9.5,0.2,14.2c0.3,15,0.5,30,0.8,45.1
			c0.1,0.4,0.1,0.8,0.2,1.2c1,7.2,2.3,14.7,4.6,21.7c0.1,0.1,0.1,0.3,0.1,0.4c2.4,7.1,5.7,13.8,10.6,19.5c5.9,6.9,13.6,11.5,22,14.7
			c1.2,0.5,2.5,0.9,3.7,1.3c0.8,0.3,1.5,0.5,2.3,0.7c1.3,0.4,2.7,0.8,4,1.2c2.2,0.6,4.4,1.1,6.6,1.6c1.3,0.3,2.7,0.6,4,0.8
			c0.8,0.2,1.6,0.3,2.4,0.5c0.1,0,0.1,0,0.2,0c1.4,0.3,2.8,0.5,4.2,0.7c8,1.3,16.1,2,24.1,2.3c5.7,0.2,11.5,0.3,17.2,0.2h0
			c3.2-0.1,6.4-0.2,9.7-0.5c16.3-1.2,33.3-5.2,46.5-15.4c5.8-4.5,10.9-10,14.6-16.3c1.8-3.2,3.3-6.5,4.3-10c0.5-1.7,1-3.4,1.4-5.2
			c0.1-0.6,0.2-1.2,0.3-1.9c0.3-14.3,0.7-28.7,1-43c0.7-26.8,1.3-53.6,1.9-80.4c0.7-26.7,1.3-53.3,1.9-80c0.6-24.6,1.2-50-6.9-73.5
			c-6.1-17.7-17.5-34.3-34.1-43.5c-4.5,21-16.2,40.6-33.1,54.1c1.9,3.2,3.6,6.4,5.2,9.8c1.1,2.3,2.2,4.7,3.1,7.1
			c1,2.6,1.5,5.3,2.1,7.9c0.3,1.4-1.7,2.2-2.4,0.9c-1.3-2.6-2.9-5-4.2-7.7c-1.3-2.6-2.6-5.3-3.9-7.9c-1.4-2.6-2.9-5.2-4.4-7.8
			c-0.5-0.9-1.1-1.8-1.6-2.7c-0.9-1.5-1.9-2.9-2.8-4.4C430.4,363.6,415.4,348.9,398.3,337.6z"/>
	</g>
	<g>
	</g>
</g>
</svg>
