<?xml version="1.0" encoding="utf-8"?>
<!-- Generator: Adobe Illustrator 27.5.0, SVG Export Plug-In . SVG Version: 6.00 Build 0)  -->
<!DOCTYPE svg PUBLIC "-//W3C//DTD SVG 1.1//EN" "http://www.w3.org/Graphics/SVG/1.1/DTD/svg11.dtd" [
	<!ENTITY ns_extend "http://ns.adobe.com/Extensibility/1.0/">
	<!ENTITY ns_ai "http://ns.adobe.com/AdobeIllustrator/10.0/">
	<!ENTITY ns_graphs "http://ns.adobe.com/Graphs/1.0/">
	<!ENTITY ns_vars "http://ns.adobe.com/Variables/1.0/">
	<!ENTITY ns_imrep "http://ns.adobe.com/ImageReplacement/1.0/">
	<!ENTITY ns_sfw "http://ns.adobe.com/SaveForWeb/1.0/">
	<!ENTITY ns_custom "http://ns.adobe.com/GenericCustomNamespace/1.0/">
	<!ENTITY ns_adobe_xpath "http://ns.adobe.com/XPath/1.0/">
]>
<svg version="1.1" id="Calque_1" xmlns:x="&ns_extend;" xmlns:i="&ns_ai;" xmlns:graph="&ns_graphs;"
	 xmlns="http://www.w3.org/2000/svg" xmlns:xlink="http://www.w3.org/1999/xlink" x="0px" y="0px" viewBox="0 0 800 1000"
	 enable-background="new 0 0 800 1000" xml:space="preserve">
<metadata>
	<sfw  xmlns="&ns_sfw;">
		<slices></slices>
		<sliceSourceBounds  bottomLeftOrigin="true" height="115.2" width="159.4" x="327.2" y="-704.1"></sliceSourceBounds>
	</sfw>
</metadata>
<g id="Massue_00000023960779722553680040000013049837105128262550_">
	<g>
		<path fill="#21C488" d="M465.1,648c0.2,2.1,0,4.1-0.2,6.2c-0.4,3.3-0.9,7-3.3,9.5c-1.2,1.2-2.6,2.1-4.2,2.6
			c1.1-5.4,1.3-10.9,0.5-16.3h0c0-0.1,0-0.3-0.1-0.4c-0.3-2.2-0.8-4.5-0.9-6.7c-0.1-2.2,0.1-4.4,0.3-6.5c1-12,1.6-24,1.6-36
			c0-1.4,0-2.8-0.5-4.1c-0.7-1.9-2.4-3.2-4.2-4.1v0c0-0.1,0-0.1,0-0.2c1.4-0.1,3.1-0.1,5,0.2c2.2,0.4,4,1,5.5,1.7
			c-0.4,0.5-0.7,1-0.7,1.7c-0.1,8.4,0.1,16.8-0.2,25.2c-0.1,4.1-0.3,8.2-0.6,12.3c-0.1,2-0.3,3.9-0.1,5.9c0.1,0.9,0.2,1.8,0.5,2.6
			c-0.2,0.6-0.2,1.1,0.1,1.8C464.4,644.7,464.9,646.2,465.1,648z"/>
		<path d="M466.9,593c1.1,0.3,1.7,1.3,1.8,2.4c0.4,8.1,0.2,16.3-0.2,24.5c-0.1,4-0.4,8.1-0.6,12.1c-0.1,1.9-0.3,3.9-0.4,5.8
			c0,0.6,0,1.2,0.1,1.8c-0.5,0.1-1,0.2-1.5,0.4c-0.4-0.1-0.7-0.1-1.1,0c-0.4,0.1-0.7,0.3-1,0.6c-0.2,0.3-0.4,0.6-0.5,0.9
			c-0.3-0.8-0.4-1.7-0.5-2.6c-0.2-2,0-3.9,0.1-5.9c0.2-4.1,0.4-8.2,0.6-12.3c0.3-8.4,0.1-16.8,0.2-25.2c0-0.7,0.3-1.3,0.7-1.7
			c0.3-0.3,0.7-0.5,1.1-0.7C466.1,592.9,466.5,592.9,466.9,593z"/>
		<path d="M454,591.8c0,0.1,0,0.1,0,0.2c-0.1-0.1-0.2-0.1-0.4-0.2C453.8,591.8,453.9,591.8,454,591.8z"/>
		<path d="M453.7,591.8c0.1,0.1,0.2,0.1,0.4,0.2v0c0.1,1.5-0.1,3.1-0.2,4.5c-0.1,2.1-0.2,4.3-0.3,6.4c-0.2,4.4-0.4,8.9-0.6,13.4
			c-0.2,6.8-0.4,13.7-0.4,20.5c-0.5,0.5-1.1,1.1-1.6,1.7c-0.8,0.4-1.5,1-2.1,1.8c0,0-0.1,0.1-0.1,0.1c0,0,0,0,0,0
			c0,0-0.1,0.1-0.1,0.1c0,0,0,0,0,0c0,0,0,0,0-0.1c0.2-0.2,0.4-0.5,0.6-0.7c0.6-0.7,1.5-1.4,1.7-2.3c0.2-0.8-0.3-1.6-1.2-1.6
			c-0.4,0-0.8,0-1.1,0.2c0,0,0,0,0,0c-0.1-6.6-0.1-13.2,0.1-19.9c0.1-4.5,0.3-8.9,0.5-13.4c0.1-2.2,0.2-4.3,0.4-6.4
			c0.1-1.2,0.1-2.3,0.3-3.5c0.2-1.1,0.2-2.3,0.8-3.2c0.6-0.9,2.3-1.2,2.8,0c0.3,0.6,0.4,1.3,0.5,2.1
			C453.9,591.8,453.8,591.8,453.7,591.8z"/>
		<path d="M485.2,646.4c-0.2,0-0.4,0.1-0.6,0.1C484.7,646.3,485,646.3,485.2,646.4z"/>
		<path d="M482.6,646.9c0.7-0.1,1.4-0.3,2-0.4c0.2,0,0.4-0.1,0.6-0.1l1.4,0c0.1,1.6-0.2,3.3-1,4.5c-1.7,2.7-5.1,3.4-7.9,4.4
			c-1.6,0.6-3.3,1.2-4.9,1.7c-1.1,0.3-2.6,0.9-3.8,0.9c0.2-0.9,0.3-1.9,0.4-2.8c0-0.3,0.1-0.6,0.1-0.9c0.8-0.4,1.7-0.7,2.5-1
			c1.8-0.7,3.6-1.3,5.4-2c1.4-0.5,2.9-0.8,4.1-1.7C482.4,649,482.6,648,482.6,646.9z"/>
		<path fill="#9E744D" d="M482.5,646.4c0,0.2,0,0.4,0,0.5c-3.7,0.7-7.3,1.5-11,2.2c-0.6,0.1-1.2,0.2-1.9,0.4c0-2.2-0.3-4.4-1.1-6.4
			c0.1,0,0.2,0,0.3,0c1-0.1,1.9-0.1,2.9-0.2c1.9-0.2,3.9-0.4,5.8-0.7c1.2-0.1,2.8-0.6,3.8,0.3C482.3,643.5,482.5,645.1,482.5,646.4z
			"/>
		<path fill="#825E41" d="M471.5,649.2c3.7-0.7,7.4-1.5,11-2.2c0,1.1-0.2,2-1.2,2.7c-1.2,0.8-2.8,1.2-4.1,1.7
			c-1.8,0.6-3.6,1.3-5.4,2c-0.7,0.3-1.6,0.6-2.5,1c0.2-1.5,0.3-3.1,0.3-4.7C470.3,649.4,470.9,649.3,471.5,649.2z"/>
		<path d="M469.3,655.1c-0.1,0.9-0.2,1.9-0.4,2.8c-0.4,0-0.8-0.1-1.2-0.3c-0.4-0.2-0.8-0.9-0.5-1.4c0.4-1,1.3-1.6,2.3-2
			C469.3,654.5,469.3,654.8,469.3,655.1z"/>
		<path d="M467.6,641.3c0.4,0.6,0.7,1.2,0.9,1.8c-0.5,0-1,0.1-1.4,0.1c0.1-0.1,0.1-0.2,0.2-0.3C467.5,642.4,467.6,641.8,467.6,641.3
			z"/>
		<path d="M482.5,646.4c-0.1-1.3-0.2-2.9-1.2-3.8c-0.9-0.9-2.6-0.5-3.8-0.3c-1.9,0.2-3.9,0.5-5.8,0.7c-1,0.1-1.9,0.2-2.9,0.2
			c-0.1,0-0.2,0-0.3,0c-0.2-0.6-0.6-1.2-0.9-1.8c0-0.6,0-1.2-0.1-1.8c0.3-0.1,0.6-0.1,1-0.2c1-0.2,2-0.3,3-0.5
			c2-0.3,4.1-0.5,6.1-0.7c1.7-0.2,3.3-0.4,4.9,0.3c1.3,0.6,2.4,1.8,3,3.1c0.6,1.3,1.1,3.1,1.1,4.8l-1.4,0c-0.2-0.1-0.5,0-0.6,0.1
			c-0.7,0.1-1.4,0.3-2,0.4C482.6,646.8,482.5,646.6,482.5,646.4z"/>
		<path d="M467.6,639.6c0,0.6,0.1,1.2,0.1,1.8c-0.1-0.1-0.2-0.2-0.2-0.4c-0.4-0.5-0.8-0.9-1.3-1
			C466.5,639.8,467.1,639.7,467.6,639.6z"/>
		<path d="M465.9,643c-1.2-0.3-1.5-2.2-0.4-2.8c0.2-0.1,0.4-0.2,0.5-0.2c0.5,0.1,1,0.5,1.3,1c0.1,0.1,0.2,0.2,0.2,0.4
			c0,0.5-0.1,1-0.3,1.6c0,0.1-0.1,0.2-0.2,0.3C466.7,643.2,466.3,643.1,465.9,643z"/>
		<path d="M465.5,640.2c-1.2,0.6-0.9,2.5,0.4,2.8c0.4,0.1,0.8,0.2,1.2,0.2c-0.4,0.4-1.1,0.7-1.6,0.5c-1.1-0.4-1.7-1.3-2-2.2
			c0.1-0.3,0.2-0.6,0.5-0.9c0.2-0.3,0.6-0.5,1-0.6c0.4-0.1,0.8-0.1,1.1,0C465.9,640,465.7,640.1,465.5,640.2z"/>
		<path d="M468.6,643.1c0.8,2,1.1,4.2,1.1,6.4c0,1.6-0.1,3.2-0.3,4.7c-1,0.4-1.9,1.1-2.3,2c-0.2,0.5,0.1,1.1,0.5,1.4
			c0.4,0.2,0.8,0.3,1.2,0.3c-0.6,3.5-1.9,6.9-4.7,9.4c-2,1.7-4.3,2.8-6.8,3.2l-0.4-2.4c0.1-0.6,0.3-1.3,0.4-1.9
			c1.6-0.5,3.1-1.4,4.2-2.6c2.4-2.5,3-6.1,3.3-9.5c0.2-2,0.4-4.1,0.2-6.2c-0.2-1.8-0.8-3.3-1.5-4.8c-0.3-0.6-0.3-1.2-0.1-1.8
			c0.4,1,0.9,1.8,2,2.2c0.5,0.2,1.2,0,1.6-0.5C467.6,643.2,468.1,643.1,468.6,643.1z"/>
		<path d="M456.9,668.2l0.4,2.4c-1.6,0.3-3.3,0.3-5-0.1c-2-0.4-3.9-1.4-5.5-2.8c-0.9-0.8-1.8-1.7-2.3-2.8c0.9-0.5,1.7-1,2.6-1.5
			c0.6,0.5,1.2,1,1.8,1.5c1.3,0.9,2.9,1.5,4.4,1.7c1.3,0.2,2.7,0.1,4-0.3C457.2,666.9,457.1,667.5,456.9,668.2z"/>
		<path d="M454.7,657.4c-0.4,0.7-0.8,1.5-1.2,2.2c-0.2,0.4-0.5,0.8-0.8,1.2c0,0,0,0.1,0,0.1c0,0-0.1,0.1-0.1,0.1
			c-0.1,0.1-0.2,0.2-0.3,0.3c-1,0.3-2,0.7-3,1.1c-0.2,0.1-0.3,0.1-0.5,0.2c-0.3-0.1-0.6-0.3-0.8-0.6c-0.6-0.6-0.7-1.5-0.3-2.2
			c0.4-0.7,0.9-0.8,1.5-1.2c0.1-0.1,0.3-0.2,0.5-0.4c0.8-0.3,1.7-0.5,2.5-0.7C453.1,657.3,453.9,657.3,454.7,657.4z"/>
		<path d="M452.7,660.8c0.3-0.4,0.6-0.8,0.8-1.2c0.4-0.7,0.8-1.5,1.2-2.2l0,0c-0.1,0.6-0.3,1.3-0.6,1.8c-0.7,1.7-3.2,4.2-5.2,3.3
			c0.1-0.1,0.3-0.1,0.5-0.2c1-0.4,2-0.8,3-1.1c0.1-0.1,0.2-0.2,0.3-0.3C452.6,660.9,452.6,660.9,452.7,660.8
			C452.6,660.8,452.7,660.8,452.7,660.8z"/>
		<path d="M449.8,641.7c2.3,0.3,3.5,2.9,4.3,4.9c0.5,1.2,0.8,2.5,0.9,3.7c0.1,0.8,0.1,1.5,0.1,2.3c0,1.5-0.1,3.2-0.5,4.8l0,0
			c-0.8,0-1.6,0-2.4,0.1c-0.8,0.2-1.7,0.4-2.5,0.7c0.4-0.5,0.6-1.2,0.7-1.9c0.2-0.8,0.3-1.6,0.3-2.4c0-0.6,0-1.3,0-2
			c0-1.5-0.2-2.9-0.7-4.4c-0.2-0.5-0.5-1.1-0.8-1.6c0.5-0.2,1-0.3,1.5-0.5c1.2-0.5,1.1-2.4-0.3-2.4c-0.7,0-1.4-0.1-2.1-0.1
			C448.5,642.2,449.1,641.6,449.8,641.7z"/>
		<path fill="#20A069" d="M448.9,662.5c2,0.9,4.5-1.6,5.2-3.3c0.3-0.6,0.5-1.2,0.6-1.8c0.4-1.6,0.5-3.2,0.5-4.8c0-0.8,0-1.5-0.1-2.3
			l2.9-0.4h0c0.7,5.4,0.5,11-0.5,16.3c-1.3,0.4-2.6,0.5-4,0.3c-1.6-0.2-3.1-0.9-4.4-1.7c-0.6-0.4-1.2-1-1.8-1.5
			C447.7,663.1,448.3,662.8,448.9,662.5z"/>
		<path d="M449.8,635.9c0.9,0,1.4,0.8,1.2,1.6c-0.2,0.9-1.1,1.7-1.7,2.3c-0.2,0.2-0.4,0.5-0.6,0.7c0-1.4,0-2.9,0-4.3c0,0,0,0,0,0
			C449,635.9,449.4,635.8,449.8,635.9z"/>
		<path d="M448.3,642.9c0.7,0,1.4,0.1,2.1,0.1c1.4,0,1.6,1.9,0.3,2.4c-0.5,0.2-1,0.4-1.5,0.5c-0.5-0.9-1-1.7-1-2.7
			C448.2,643.1,448.3,643,448.3,642.9z"/>
		<path d="M443.6,640.5c0.3-0.5,0.7-0.9,1-1.3c0.7-0.8,1.5-1.4,2.3-2c0.4-0.3,0.7-0.5,1.1-0.8c0.2-0.1,0.3-0.2,0.5-0.3
			c0,1.5,0,2.9,0,4.3c-0.3,0.4-0.7,0.7-1,1.1c-0.1,0.2-0.3,0.3-0.4,0.5c0,0.1-0.1,0.1-0.1,0.2c-0.1,0.1-0.1,0.2-0.2,0.3
			c0,0-0.1,0.2-0.2,0.3c-0.1,0-0.2,0-0.4,0c-1.2,0-2.4,0-3.7,0c0.1-0.3,0.1-0.5,0.2-0.8C443.1,641.5,443.3,641,443.6,640.5z"/>
		<path fill="#20A069" d="M455,650.3c-0.2-1.3-0.5-2.5-0.9-3.7c-0.8-2-1.9-4.6-4.3-4.9c-0.7-0.1-1.4,0.5-1.5,1.2c-0.5,0-1.1,0-1.6,0
			c0.1-0.1,0.2-0.3,0.2-0.3c0.1-0.1,0.1-0.2,0.2-0.3c0-0.1,0.1-0.1,0.1-0.2c0.1-0.2,0.3-0.3,0.4-0.5c0.3-0.4,0.7-0.8,1-1.1
			c0,0,0,0.1,0,0.1c0,0,0,0,0,0c0,0,0.1-0.1,0.1-0.1c0,0,0,0,0,0c0-0.1,0.1-0.1,0.1-0.1c0.6-0.7,1.3-1.3,2.1-1.8
			c0.5-0.6,1-1.2,1.6-1.7c0-6.8,0.1-13.7,0.4-20.5c0.1-4.5,0.3-8.9,0.6-13.4c0.1-2.2,0.2-4.3,0.3-6.4c0.1-1.4,0.3-3,0.2-4.5
			c1.9,0.9,3.5,2.2,4.2,4.1c0.5,1.3,0.5,2.7,0.5,4.1c0,12-0.5,24.1-1.6,36c-0.2,2.2-0.4,4.4-0.3,6.5c0.1,2.3,0.6,4.5,0.9,6.7
			c0,0.1,0,0.3,0.1,0.4L455,650.3z"/>
		<path d="M445.3,662.3c0.7,0.2,1.3,0.6,1.9,1.1c-0.9,0.5-1.8,1-2.6,1.5c-0.3-0.6-0.4-1.3-0.3-2
			C444.3,662.4,444.9,662.2,445.3,662.3z"/>
		<path d="M444.6,646c0.5-0.1,0.9-0.3,1.1-0.7c0.2-0.4,0.3-0.8,0.4-1.3c0-0.1,0.1-0.2,0.1-0.3c0-0.1,0-0.1,0-0.1
			c0.1-0.1,0.2-0.2,0.2-0.3c0-0.1,0.1-0.2,0.2-0.3c0,0,0,0,0,0c0,0,0,0,0,0v0c0,0,0,0,0.1-0.1c0.5,0,1.1,0,1.6,0
			c0,0.1-0.1,0.2-0.1,0.3c0,0.9,0.5,1.8,1,2.7c-0.8,0.2-1.6,0.5-2.5,0.6c-0.7,0.1-1.4,0.1-2.2,0.2L444.6,646z"/>
		<path d="M442.3,661.7c2.1-1.3,4.3-2.4,6.6-3.2c0.3-0.1,0.6-0.2,0.9-0.3c-0.1,0.2-0.4,0.3-0.5,0.4c-0.6,0.3-1.2,0.5-1.5,1.2
			c-0.4,0.7-0.3,1.6,0.3,2.2c0.2,0.3,0.5,0.5,0.8,0.6c-0.6,0.3-1.2,0.5-1.7,0.8c-0.6-0.5-1.2-0.9-1.9-1.1c-0.4-0.1-1,0.2-1.1,0.6
			c-0.1,0.7,0,1.4,0.3,2c-7.2,4.5-13.1,11.2-19.8,16.5c-7.9,6.2-16.5,11.3-25.8,15.1c-9.1,3.7-18.8,6.2-28.6,7.2
			c-9.2,1-19.2,0.4-27.5-4.2c-6.4-3.5-11.2-9.4-13.6-16.2l1-0.3c1.2,1.1,2.6,2,4.1,2.7c1.6,3.1,3.8,5.9,6.5,8
			c3.4,2.8,7.5,4.5,11.8,5.4c8.9,2,18.5,0.9,27.3-1c9.3-2,18.2-5.3,26.6-9.8c8.7-4.6,16.4-10.4,23.7-17
			C433.9,667.9,437.9,664.5,442.3,661.7z"/>
		<path d="M445.7,645.3c-0.2,0.4-0.6,0.7-1.1,0.7c-0.3,0-0.6,0-0.9-0.2c-0.7-0.5-1.1-1.2-1.1-2.1c0-0.3,0-0.6,0.1-0.9
			c1.2,0.1,2.4,0.1,3.7,0c0.1,0,0.2,0,0.4,0c0,0,0,0.1-0.1,0.1v0c0,0,0,0,0,0c0,0,0,0,0,0c-0.1,0.1-0.1,0.2-0.2,0.3
			c0,0.1-0.1,0.2-0.2,0.3c0,0,0,0,0,0.1c0,0.1-0.1,0.2-0.1,0.3C446,644.5,445.9,644.9,445.7,645.3z"/>
		<path d="M442.6,643.7c0,0.9,0.4,1.6,1.1,2.1c0.2,0.2,0.6,0.2,0.9,0.2l0,0.6c-0.5,0-1,0.1-1.5,0.1c-10.6,0.3-21-3.3-30.9-6.5
			c-10.4-3.3-21.1-6-32-6.2c-7.9-0.2-15.9,1-23.3,3.9c-0.1-0.4-0.3-0.9-0.4-1.3c-0.2-0.8-0.5-1.6-0.8-2.4c9.3-3.7,19.8-4.9,29.8-4.1
			c11.3,0.9,22.1,4.1,32.9,7.4c5.3,1.6,10.6,3.3,16.1,4.3c2.6,0.5,5.2,0.8,7.9,1c0.1,0,0.3,0,0.5,0
			C442.6,643.1,442.6,643.4,442.6,643.7z"/>
		<path fill="#825E41" d="M387.9,686.3c14.1-6,25.5-17.4,39.2-24.6c7.4-3.9,15.4-6.5,23.7-7.8c0,0.8-0.1,1.6-0.3,2.4
			c-0.1,0.6-0.3,1.4-0.7,1.9c-0.3,0.1-0.6,0.2-0.9,0.3c-2.3,0.9-4.5,1.9-6.6,3.2c-4.4,2.7-8.4,6.2-12.2,9.6
			c-7.3,6.6-15,12.4-23.7,17c-8.4,4.4-17.3,7.7-26.6,9.8c-8.9,1.9-18.4,3.1-27.3,1c-4.2-1-8.4-2.7-11.8-5.4c-2.7-2.2-4.9-5-6.5-8
			c2.3,1.1,4.8,1.8,7.3,2.4c6.7,1.6,13.6,2.7,20.6,2.9c0,0.3,0.2,0.6,0.4,0.7c1.5,1,3.2,1.2,5,1.3c1.9,0.1,3.7,0.1,5.6-0.1
			c3.6-0.3,7.1-1,10.5-2.2c1.6-0.6,3.5-1.2,4.5-2.6c0.3-0.4,0.7-0.9,0.4-1.4C388.4,686.5,388.1,686.4,387.9,686.3z"/>
		<path fill="#9E744D" d="M374.1,682.2c2.8-0.9,5.8-1.1,8.8-0.8c1.6,0.1,3.1,0.4,4.7,0.4c1.5,0,2.8-0.1,4.3-0.4
			c0.2,0,0.2-0.3,0.1-0.4c-0.5-0.4-1.1-0.8-1.6-1.1c-0.7-0.3-1.4-0.6-2.1-0.8c-1.5-0.5-3.1-0.7-4.6-0.9c-3-0.3-6.1-0.2-9.1,0.5
			c-2.9,0.7-5.4,2.1-8,3.6c-2.7,1.5-5.4,2.8-8.5,3.4c-0.4,0.1-0.5,0.8-0.1,0.9C363.6,689.2,369,683.8,374.1,682.2z M375,689.5
			c-2.1,0.3-4.2,0.4-6.3,0.4c-2,0-4.1-0.4-6,0.1c-0.5,0.1-0.7,0.5-0.6,1c-6.9-0.2-13.9-1.3-20.6-2.9c-2.5-0.6-5-1.3-7.3-2.4
			c-0.3-0.6-0.6-1.2-0.9-1.8c-3.5-7.8-3.2-16.8,0.2-24.6c3.1-7.2,8.6-13.1,15.2-17.3c0.4,0.8,0.8,1.6,1.3,2.4
			c0.4,0.7,0.8,1.4,1.2,2.1c-1,0.4-1.8,0.8-2.7,1.5s-1.9,1.3-2.1,2.4c-0.1,0.5,0.2,1,0.8,1c1,0,1.8-0.7,2.7-1.1c1-0.5,1.9-1,3-1.3
			c0.4-0.1,0.7-0.2,1.1-0.3c0.7-0.2,1.4-0.3,2.1-0.4c1.1-0.2,2.1-0.7,3.1-1.2c2-1.1,3.8-1,5.9-0.7c1.1,0.2,2.2,0.4,3.3,0.2
			c1.1-0.2,1.4-0.8,2.1-1.4c0.2-0.2,0.1-0.5-0.2-0.5c-0.2-0.1-0.5-0.4-0.8-0.5c-0.5-0.3-1-0.4-1.5-0.5c-1.2-0.2-2.3-0.3-3.5-0.5
			c-2.1-0.3-4-0.2-5.9,0.6c-0.3-2-1.1-3.9-1.8-5.8c7.4-2.9,15.4-4,23.3-3.9c11,0.2,21.6,2.9,32,6.2c10,3.2,20.3,6.8,30.9,6.5
			c0.5,0,1,0,1.5-0.1c0.7,0,1.4-0.1,2.2-0.2c0.9-0.1,1.7-0.3,2.5-0.6c0.3,0.6,0.6,1.1,0.8,1.6c0.5,1.5,0.7,2.8,0.7,4.4
			c0,0.7,0,1.3,0,2c-8.2,1.3-16.3,3.9-23.7,7.8c-13.7,7.2-25.1,18.6-39.2,24.6c-0.4-0.1-0.9-0.2-1.2-0.1c-0.5,0-0.9,0.2-1.4,0.4
			C381.9,687.7,378.6,689,375,689.5z M374.3,688c0.6,0,1.3-0.1,1.9-0.2c0.5-0.1,1.1-0.2,1.6-0.4c0.3-0.1,0.5-0.2,0.8-0.3
			c0.5-0.2,0.8-0.4,1.2-0.7c0.4-0.4,0.5-1.1,0.3-1.6c-0.2-0.5-0.8-0.9-1.3-0.9c-1.2,0.1-2.2,0.5-3.3,0.9c-0.5,0.1-1,0.3-1.5,0.5
			c-0.5,0.2-1.2,0.4-1.5,0.8c0,0.1-0.1,0.1-0.1,0.1c-0.4,0.3-0.2,1,0.2,1.2c0,0,0.1,0,0.1,0.1C373,688,373.7,688,374.3,688z"/>
		<path d="M373.9,685.3c0.5-0.2,1-0.3,1.5-0.5c1.1-0.3,2.2-0.8,3.3-0.9c0.6,0,1.1,0.4,1.3,0.9c0.2,0.5,0.1,1.2-0.3,1.6
			c-0.4,0.3-0.7,0.5-1.2,0.7c-0.3,0.1-0.5,0.2-0.8,0.3c-0.5,0.2-1.1,0.3-1.6,0.4c-0.6,0.1-1.2,0.2-1.9,0.2c-0.6,0-1.4,0-1.8-0.5
			c0,0-0.1,0-0.1-0.1c-0.4-0.2-0.5-0.9-0.2-1.2c0.1,0,0.1-0.1,0.1-0.1C372.7,685.7,373.4,685.5,373.9,685.3z"/>
		<path d="M388,688.1c-1.1,1.3-3,2-4.5,2.6c-3.4,1.2-6.9,2-10.5,2.2c-1.9,0.2-3.7,0.2-5.6,0.1c-1.7-0.1-3.5-0.3-5-1.3
			c-0.3-0.2-0.4-0.5-0.4-0.7c7.8,0.2,15.5-0.8,22.8-3.4c1-0.4,2.1-0.8,3.1-1.2c0.2,0.1,0.5,0.2,0.6,0.4
			C388.7,687.2,388.3,687.7,388,688.1z"/>
		<path d="M384.8,687.6c-7.3,2.6-15,3.6-22.8,3.4c-0.1-0.4,0.2-0.8,0.6-1c2-0.5,4-0.1,6-0.1c2.1,0,4.2-0.1,6.3-0.4
			c3.6-0.6,6.9-1.8,10.3-3c0.5-0.2,0.9-0.3,1.4-0.4c0.3,0,0.8,0,1.2,0.1C386.9,686.8,385.8,687.2,384.8,687.6z"/>
		<path d="M392,681.3c-1.5,0.3-2.8,0.4-4.3,0.4c-1.6,0-3.1-0.3-4.7-0.4c-3-0.2-6-0.1-8.8,0.8c-5.1,1.7-10.5,7-16.2,4.4
			c-0.4-0.2-0.3-0.9,0.1-0.9c3.1-0.6,5.7-1.9,8.5-3.4c2.6-1.4,5.1-2.9,8-3.6c3-0.7,6.1-0.8,9.1-0.5c1.6,0.2,3.1,0.3,4.6,0.9
			c0.7,0.3,1.5,0.5,2.1,0.8c0.6,0.3,1.1,0.7,1.6,1.1C392.1,681,392.1,681.3,392,681.3z"/>
		<path d="M358.7,644.2c0.1,1.7-2.4,2.4-3.2,1c0.8-0.3,1.6-0.7,2.4-1.1c0.3-0.1,0.5-0.3,0.8-0.4C358.7,643.9,358.7,644,358.7,644.2z
			"/>
		<path d="M358.6,643.7c-0.3,0.1-0.6,0.2-0.8,0.4c-0.8,0.4-1.5,0.8-2.4,1.1c0,0,0-0.1-0.1-0.1c-0.9-1.8-1.2-3.9-1.7-5.9
			c1-0.5,2.1-0.9,3.1-1.3C357.5,639.8,358.4,641.7,358.6,643.7z"/>
		<path d="M356.4,636.6c0.1,0.4,0.3,0.9,0.4,1.3c-1.1,0.4-2.1,0.8-3.1,1.3c-0.1-0.6-0.3-1.1-0.5-1.6c-0.2-0.7-0.5-1.4-0.7-2.1
			c1-0.5,2-0.9,3.1-1.3C356,635,356.2,635.8,356.4,636.6z"/>
		<path d="M370.4,645.2c-0.7,0.6-1,1.3-2.1,1.4c-1.1,0.2-2.2,0-3.3-0.2c-2.2-0.3-4-0.4-5.9,0.7c-1,0.5-2,1-3.1,1.2
			c-0.7,0.1-1.4,0.2-2.1,0.4l-0.1-0.6c0.4-0.2,0.7-0.5,0.8-0.9c0.1-0.6,0.1-1.2-0.1-1.8c0.1,0,0.2-0.1,0.3-0.1
			c0.2,0,0.5-0.1,0.7-0.2c0.8,1.4,3.4,0.7,3.2-1c0-0.2,0-0.3-0.1-0.5c1.9-0.8,3.8-0.9,5.9-0.6c1.1,0.2,2.3,0.3,3.5,0.5
			c0.5,0.1,1,0.2,1.5,0.5c0.3,0.2,0.6,0.5,0.8,0.5C370.5,644.7,370.6,645,370.4,645.2z"/>
		<path d="M352.5,635.5c-0.4-1.5-0.8-2.9-1.1-4.4c0.6-0.2,1.2-0.4,1.8-0.7c0.2-0.1,0.4-0.1,0.6-0.2c0.7,1.3,1.3,2.6,1.8,4
			C354.6,634.6,353.6,635,352.5,635.5z"/>
		<path d="M353,648.1c-0.8-0.3-1.4-0.9-1.9-1.6c0.1-0.1,0.2-0.1,0.3-0.2c1-0.4,2-0.7,3-0.9c0.2,0.6,0.2,1.2,0.1,1.8
			c-0.1,0.4-0.4,0.7-0.8,0.9C353.5,648.2,353.3,648.2,353,648.1z"/>
		<path fill="#D3D3D3" d="M355.4,645.1c0,0,0,0.1,0.1,0.1c-0.2,0.1-0.5,0.1-0.7,0.2c-0.1,0-0.2,0-0.3,0.1c-0.3-1-0.8-2-1.2-2.8
			c-0.4-0.9-0.9-1.7-1.3-2.5c-0.3-0.6-0.6-1.1-0.9-1.7c-0.3-0.6-0.6-1.1-1-1.7c-0.4-0.8-0.9-1.6-1.4-2.3c-0.5-0.8-0.9-1.5-1.5-2.2
			c0.4-0.1,0.9-0.2,1.3-0.3c1-0.2,2-0.5,3-0.8c0.3,1.5,0.7,3,1.1,4.4c0.2,0.7,0.4,1.4,0.7,2.1c0.2,0.5,0.4,1.1,0.5,1.6
			C354.2,641.2,354.5,643.3,355.4,645.1z"/>
		<path d="M351.5,640.3c0.1-0.1,0.3-0.1,0.4-0.2c0.5,0.8,0.9,1.7,1.3,2.5c0.4,0.8,1,1.8,1.2,2.8c-1,0.2-2,0.5-3,0.9
			c-0.1,0-0.2,0.1-0.3,0.2c-0.5-0.7-0.9-1.4-1.2-2.1c-0.4-0.8-0.9-1.6-1.3-2.4C349.6,641.4,350.5,640.9,351.5,640.3z"/>
		<path d="M351.9,640.1c-0.1,0.1-0.3,0.1-0.4,0.2c-1,0.5-1.9,1.1-2.9,1.7c-0.3-0.6-0.6-1.1-0.9-1.7c-0.3-0.6-0.6-1.2-0.9-1.8
			c1-0.6,2-1.2,3.1-1.8c0.3,0.6,0.6,1.1,1,1.7C351.3,639,351.6,639.6,351.9,640.1z"/>
		<path d="M353.2,630.4c-0.6,0.2-1.2,0.5-1.8,0.7c-0.1-0.3-0.1-0.6-0.2-0.9c-0.2-0.7,0.4-1.3,1-1.4c0.4-0.1,0.9,0.1,1.1,0.5
			c0.2,0.3,0.3,0.6,0.4,0.9C353.6,630.3,353.4,630.3,353.2,630.4z"/>
		<path d="M348.6,634.5c0.5,0.8,0.9,1.5,1.4,2.3c-1,0.6-2.1,1.1-3.1,1.8c-0.4-0.9-0.8-1.7-1.2-2.6c-0.5-1.2-1.1-2.3-1.3-3.5
			c0.9,0,1.8-0.1,2.8-0.2C347.7,632.9,348.1,633.7,348.6,634.5z"/>
		<path d="M347.8,640.3c0.3,0.6,0.6,1.1,0.9,1.7c-6.6,4.2-12,10.1-15.2,17.3c-3.4,7.8-3.6,16.8-0.2,24.6c0.3,0.6,0.6,1.2,0.9,1.8
			c-1.5-0.7-2.9-1.6-4.1-2.7l-1,0.3c-0.6-1.5-1-3.1-1.3-4.7c-1.8-9,0.2-18.2,5-26c3.7-6,8.5-10.6,14.1-14.1
			C347.2,639.1,347.5,639.7,347.8,640.3z"/>
		<path d="M351.1,646.5c0.5,0.7,1.1,1.3,1.9,1.6c0.2,0.1,0.5,0.1,0.7,0l0.1,0.6c-0.4,0.1-0.7,0.2-1.1,0.3c-1,0.3-2,0.8-3,1.3
			c-0.9,0.4-1.7,1.1-2.7,1.1c-0.6,0-0.9-0.5-0.8-1c0.2-1.1,1.3-1.8,2.1-2.4S350.2,646.9,351.1,646.5z"/>
		<path d="M347.1,632.2c-0.4-0.5-0.9-1-1.4-1.5c-0.2-0.1-0.4-0.2-0.6-0.1l-0.3-1.7c1.1-0.2,2.2-0.4,3.3-0.7c1.2-0.3,2.4-0.6,3.5-1
			l0.6,1.6c-0.6,0.1-1.1,0.7-1,1.4c0.1,0.3,0.1,0.6,0.2,0.9c-1,0.3-2,0.6-3,0.8C348,632,347.6,632.1,347.1,632.2z"/>
		<path d="M347.1,632.2c-0.9,0.1-1.8,0.2-2.8,0.2c-0.1-0.3-0.1-0.6-0.1-0.8c0-0.5,0.4-0.9,0.8-1c0.2,0,0.4,0,0.6,0.1
			C346.3,631.2,346.8,631.7,347.1,632.2z"/>
		<path fill="#D3D3D3" d="M341.6,628.5c0.6-0.4,1.2-0.8,1.8-1.1c1.2-0.6,2.5-1.2,3.9-1.5c1.3-0.3,2.6-0.5,3.9-0.6
			c1.1,0,2.6-0.2,3.5,0.4c-0.1,0.1-0.1,0.1-0.2,0.2c-0.6,0.4-1.3,0.7-1.9,0.9c-0.3,0.1-0.6,0.3-1,0.4c-1.1,0.4-2.3,0.8-3.5,1
			c-1.1,0.2-2.2,0.5-3.3,0.7c-0.5,0.1-1,0.2-1.6,0.3c-0.8,0.2-1.8,0.2-2.6,0.3c0,0,0,0,0,0c0,0,0,0,0,0c0.1-0.1,0.2-0.2,0.3-0.3
			C341.1,628.9,341.4,628.7,341.6,628.5z"/>
		<path d="M343.3,632.4c-1.5-0.1-3.5-0.1-4.8-1c-0.2-0.2-0.4-0.4-0.4-0.7c0-0.1-0.1-0.1-0.1-0.2c-1-1.8,0.3-3.5,1.7-4.7
			c1.3-1.2,2.8-2.1,4.4-2.8c2.8-1.1,5.8-1.5,8.8-1.4c1.6,0.1,3.4,0.3,4.5,1.6c1.2,1.4,1.2,3.3,0,4.7c-0.9,1-2.3,1.6-3.7,2.2
			c-0.1-0.3-0.3-0.6-0.4-0.9c-0.3-0.5-0.7-0.6-1.1-0.5l-0.6-1.6c0.3-0.1,0.6-0.2,1-0.4c0.6-0.3,1.3-0.5,1.9-0.9
			c0.1-0.1,0.2-0.1,0.2-0.2c-1-0.6-2.5-0.4-3.5-0.4c-1.3,0.1-2.6,0.2-3.9,0.6c-1.4,0.4-2.6,0.9-3.9,1.5c-0.6,0.3-1.3,0.7-1.8,1.1
			c-0.3,0.2-0.5,0.4-0.7,0.6c-0.1,0.1-0.2,0.2-0.3,0.3c0,0,0,0,0,0c0,0,0,0,0,0c0.9-0.1,1.8-0.1,2.6-0.3c0.5-0.1,1-0.2,1.6-0.3
			l0.3,1.7c-0.4,0.1-0.8,0.5-0.8,1c0,0.3,0,0.6,0.1,0.8C344,632.4,343.7,632.4,343.3,632.4z"/>
	</g>
	<g>
	</g>
</g>
</svg>
