<?xml version="1.0" encoding="utf-8"?>
<!-- Generator: Adobe Illustrator 27.5.0, SVG Export Plug-In . SVG Version: 6.00 Build 0)  -->
<!DOCTYPE svg PUBLIC "-//W3C//DTD SVG 1.1//EN" "http://www.w3.org/Graphics/SVG/1.1/DTD/svg11.dtd" [
	<!ENTITY ns_extend "http://ns.adobe.com/Extensibility/1.0/">
	<!ENTITY ns_ai "http://ns.adobe.com/AdobeIllustrator/10.0/">
	<!ENTITY ns_graphs "http://ns.adobe.com/Graphs/1.0/">
	<!ENTITY ns_vars "http://ns.adobe.com/Variables/1.0/">
	<!ENTITY ns_imrep "http://ns.adobe.com/ImageReplacement/1.0/">
	<!ENTITY ns_sfw "http://ns.adobe.com/SaveForWeb/1.0/">
	<!ENTITY ns_custom "http://ns.adobe.com/GenericCustomNamespace/1.0/">
	<!ENTITY ns_adobe_xpath "http://ns.adobe.com/XPath/1.0/">
]>
<svg version="1.1" id="Calque_1" xmlns:x="&ns_extend;" xmlns:i="&ns_ai;" xmlns:graph="&ns_graphs;"
	 xmlns="http://www.w3.org/2000/svg" xmlns:xlink="http://www.w3.org/1999/xlink" x="0px" y="0px" viewBox="0 0 800 1000"
	 enable-background="new 0 0 800 1000" xml:space="preserve">
<metadata>
	<sfw  xmlns="&ns_sfw;">
		<slices></slices>
		<sliceSourceBounds  bottomLeftOrigin="true" height="77" width="39.5" x="447.9" y="-663.9"></sliceSourceBounds>
	</sfw>
</metadata>
<g id="XMLID_00000139983756064947166700000016792331146933986445_">
	<g>
		<path fill="#21C488" d="M477.9,646.2c2.5,0.7,5.2,2.7,4.9,5.5c-0.5,3.4-4,5.2-7,6.1c-3.3,1-7,1.5-10.5,1c-1.8-1.6-3.2-3.7-4-6
			c-0.7-1.9-0.9-4-1.1-6c-0.7-6.4-1.4-12.8-1.6-19.3c-0.3-9.1,0.4-18.2,0.2-27.3c0-2.2-0.1-4.4-1-6.4c-0.8-1.7-2.2-3.2-4-3.7
			c0-0.2-0.1-0.4-0.1-0.6c-0.1-0.6-0.6-0.9-1.1-1c0.2-0.3,0.4-0.5,0.7-0.7c0.7-0.5,1.5-0.7,2.4-0.8c3.1-0.4,6.5-0.2,9.1,1.5
			c0.8,0.5,1.5,1.2,2.1,1.9c-0.6,0.2-1.2,0.7-1.3,1.5c-0.5,2.2-0.5,4.4-0.6,6.6c-0.1,2.2-0.2,4.4-0.2,6.5c-0.1,4.3-0.1,8.5-0.2,12.8
			c0,4.3,0.1,8.5,0.2,12.8c0,2.1,0,4.2-0.1,6.3c0,2.2-0.2,4.6,0.2,6.8c0,0.2,0.1,0.4,0.2,0.5c-0.7,1-0.3,2.8,1.2,2.6
			c2-0.2,4.1-0.4,6.1-0.8C474.1,645.9,476.1,645.8,477.9,646.2z"/>
		<path d="M471.9,638.7c0.1,0,0.1,0.1,0.2,0.1C471.9,638.8,471.9,638.8,471.9,638.7z"/>
		<path d="M472.2,639c-0.1,0-0.1-0.1-0.1-0.1l0,0c0,0,0,0,0,0c0,0,0,0,0,0c0,0,0,0,0,0c0,0,0,0,0,0c-0.1-0.1-0.1-0.1-0.1-0.1
			c-0.1-0.1-0.2-0.2-0.2-0.2c-0.2-0.1-0.4-0.3-0.6-0.4c-0.1-0.1-0.2-0.1-0.3-0.2c-0.2-0.1-0.3-0.1-0.5-0.2c0,0,0,0,0,0
			c0,0-0.1,0-0.1,0c0,0-0.1,0-0.1,0c0,0,0,0-0.1,0h0c-0.1,0-0.2-0.1-0.3-0.1c-0.3-0.1-0.6-0.2-0.9-0.2c0,0,0,0.1,0,0.1
			c0,1.6,0.1,3.3,0,5c1.6-0.6,3.2-1,4.9-1.2c-0.1-0.2-0.2-0.4-0.3-0.6c-0.1-0.2-0.2-0.4-0.3-0.5c0-0.1-0.1-0.2-0.2-0.3c0,0,0,0,0,0
			c0,0-0.1-0.1-0.1-0.1C472.6,639.5,472.4,639.2,472.2,639z M466.9,590.5c1.3-0.5,3.2,0,3.4,1.6c0.2,2.3,0,4.6,0,6.9
			c-0.1,2.1-0.2,4.2-0.3,6.3c-0.2,4.3-0.4,8.5-0.5,12.8c-0.1,4.3-0.4,8.5-0.5,12.8c0,0.8,0,1.6,0,2.4c0.4-0.1,0.8-0.1,1.2,0
			c1.3,0.1,2.5,0.5,3.6,1.1c1.8,1,3.4,2.7,4.1,4.7c0.2,0.7,0.4,1.5,0.2,2.3c0.9,0.2,1.7,0.4,2.5,0.8c4,1.7,7.3,5.6,6.7,10.2
			c-1.1,8.1-10.7,11.5-18.4,11.6l0-2.7c-1.3-0.6-2.5-1.4-3.6-2.3c3.5,0.5,7.2,0,10.5-1c3-0.9,6.5-2.7,7-6.1c0.4-2.9-2.4-4.9-4.9-5.5
			c-1.8-0.5-3.8-0.3-5.6,0c-2,0.3-4.1,0.6-6.1,0.8c-1.4,0.1-1.9-1.7-1.2-2.6c-0.1-0.2-0.2-0.3-0.2-0.5c-0.4-2.2-0.2-4.6-0.2-6.8
			c0-2.1,0.1-4.2,0.1-6.3c0-4.3-0.2-8.5-0.2-12.8c0-4.3,0.1-8.5,0.2-12.8c0-2.2,0.1-4.3,0.2-6.5c0.1-2.2,0.1-4.5,0.6-6.6
			C465.7,591.3,466.2,590.8,466.9,590.5z"/>
		<path d="M470.2,637.8c-0.2-0.1-0.3-0.1-0.3-0.1h0c0,0,0,0,0.1,0C470.1,637.7,470.2,637.7,470.2,637.8
			C470.2,637.8,470.2,637.8,470.2,637.8z"/>
		<path fill="#21C488" d="M468.8,642.4c0.1-1.6,0-3.3,0-5c0,0,0-0.1,0-0.1c0.3,0.1,0.6,0.2,0.9,0.2c0.1,0,0.2,0.1,0.3,0.1
			c0,0,0,0,0.3,0.1c0.2,0.1,0.3,0.1,0.5,0.2c0.1,0,0.2,0.1,0.3,0.2c0.2,0.1,0.4,0.2,0.6,0.4c0.1,0,0.1,0.1,0.2,0.2
			c0,0,0.1,0.1,0.2,0.1c0,0,0,0,0,0c0,0,0,0,0,0c0,0,0,0,0,0l0,0c0,0.1,0.1,0.1,0.1,0.1c0.2,0.2,0.4,0.5,0.7,0.7c0,0,0,0,0.1,0.1
			c0.1,0.1,0.2,0.2,0.2,0.3c0.1,0.2,0.2,0.3,0.3,0.5c0.1,0.2,0.2,0.4,0.3,0.6C472.1,641.4,470.4,641.8,468.8,642.4z"/>
		<path fill="#20A069" d="M465.3,658.9c-0.4-0.1-0.9-0.1-1.3-0.2c-3.1-0.7-6-2.3-8.1-4.7c-2.2-2.6-3-6.1-3.2-9.5
			c-0.2-4,0.1-8,0.3-12c0.1-4.3,0.3-8.7,0.4-13c0.1-5,0.2-9.9,0.3-14.8c0.1-4.7,0.6-9.7-0.1-14.4c1.8,0.4,3.2,1.9,4,3.7
			c0.9,2,1,4.2,1,6.4c0.2,9.1-0.5,18.2-0.2,27.3c0.2,6.5,0.9,12.9,1.6,19.3c0.2,2,0.5,4.1,1.1,6
			C462.1,655.2,463.5,657.2,465.3,658.9z"/>
		<path d="M452.8,590c-0.2,0-0.4,0-0.6,0.2c-0.1,0.2-0.2,0-0.1-0.1c-0.1-0.5,0.1-1,0.3-1.4c0.5,0.1,1,0.4,1.1,1
			c0,0.2,0.1,0.4,0.1,0.6C453.4,590,453.1,590,452.8,590z"/>
		<path d="M450.2,596.8c0.2-2.5,0.3-4.9,0.9-7.4c0.2-0.6,0.8-0.9,1.4-0.9c-0.3,0.4-0.4,0.9-0.3,1.4c-0.2,0.1-0.1,0.3,0.1,0.1
			c0.1-0.2,0.4-0.2,0.6-0.2c0.3,0,0.6,0.1,0.9,0.1c0.7,4.7,0.2,9.7,0.1,14.4c-0.1,5-0.2,9.9-0.3,14.8c-0.1,4.4-0.3,8.7-0.4,13
			c-0.1,4-0.5,8-0.3,12c0.2,3.3,0.9,6.9,3.2,9.5c2.1,2.4,5,4,8.1,4.7c0.4,0.1,0.8,0.2,1.3,0.2c1.1,1,2.3,1.8,3.6,2.3l0,2.7
			c-1.2,0-2.3,0-3.3-0.2c-8.7-1-15.8-7-17.2-15.8c-0.8-4.4-0.5-8.9-0.3-13.4c0.2-5,0.4-10.1,0.7-15.1c0.3-5,0.6-10.1,0.9-15.1
			C449.9,601.9,450,599.3,450.2,596.8z"/>
	</g>
	<g>
	</g>
</g>
</svg>
