<svg width="24" height="24" viewBox="0 0 20 20" fill="none" xmlns="http://www.w3.org/2000/svg">
  <path d="M7.62747 4.50682C8.68301 2.61328 9.21076 1.6665 9.99984 1.6665C10.7889 1.6665 11.3167 2.61327 12.3722 4.50681L12.6453 4.9967C12.9453 5.53478 13.0952 5.80383 13.3291 5.98135C13.5629 6.15886 13.8541 6.22475 14.4366 6.35655L14.9669 6.47653C17.0166 6.9403 18.0415 7.17219 18.2853 7.95628C18.5292 8.74034 17.8305 9.55742 16.4331 11.1914L16.0716 11.6142C15.6745 12.0785 15.4759 12.3107 15.3866 12.5979C15.2973 12.8852 15.3273 13.1949 15.3873 13.8145L15.442 14.3785C15.6533 16.5587 15.7589 17.6488 15.1206 18.1333C14.4822 18.6179 13.5226 18.1761 11.6034 17.2925L11.1069 17.0638C10.5616 16.8128 10.2889 16.6872 9.99984 16.6872C9.71076 16.6872 9.43809 16.8128 8.89276 17.0638L8.39626 17.2925C6.47707 18.1761 5.51749 18.6179 4.87913 18.1333C4.24077 17.6488 4.34641 16.5587 4.55767 14.3785L4.61232 13.8145C4.67236 13.1949 4.70238 12.8852 4.61306 12.5979C4.52374 12.3107 4.3252 12.0785 3.92811 11.6142L3.56659 11.1914C2.16921 9.55742 1.47052 8.74034 1.71436 7.95628C1.95819 7.17219 2.98306 6.9403 5.03279 6.47653L5.56308 6.35655C6.14555 6.22475 6.43678 6.15886 6.67062 5.98135C6.90446 5.80383 7.05445 5.53479 7.3544 4.9967L7.62747 4.50682Z" stroke="black"/>
</svg>
