<svg width="24" height="24" viewBox="0 0 150 150" fill="none" xmlns="http://www.w3.org/2000/svg">
  <path d="M18.75 106.25H29.8741C43.3232 106.25 50.0479 106.25 55.4951 103.398C57.8233 102.179 59.9446 100.601 61.7812 98.721C66.0781 94.323 68.0106 87.882 71.875 75C75.7394 62.1181 77.6719 55.6769 81.9687 51.2787C83.8056 49.3994 85.9269 47.8206 88.255 46.6019C93.7019 43.75 100.427 43.75 113.876 43.75H131.25M131.25 43.75L112.5 62.5M131.25 43.75L112.5 25" stroke="black" stroke-width="8.33333" stroke-linecap="round" stroke-linejoin="round"/>
  <path d="M29.874 47.915C36.6715 47.915 41.5013 47.9187 45.3195 48.2554C49.067 48.5858 51.5087 49.2162 53.5632 50.2918C55.5034 51.3076 57.2714 52.6231 58.802 54.1897C60.3285 55.7521 61.5713 57.7513 62.8735 60.8912C63.0531 61.3242 63.6819 61.31 63.8312 60.8657L67.0085 51.4137C67.0593 51.2625 67.0353 51.0961 66.942 50.9668C66.2797 50.0491 65.5584 49.1852 64.7603 48.3683C62.6178 46.1754 60.143 44.3341 57.4269 42.9121C54.0341 41.1357 50.3899 40.3401 46.0511 39.9576C41.8246 39.5849 36.6284 39.585 30.0686 39.585H18.75C16.4497 39.585 14.585 41.4497 14.585 43.75C14.585 46.0503 16.4497 47.915 18.75 47.915H29.874Z" fill="black"/>
  <path d="M76.9721 99.2582C76.8761 99.1284 76.8508 98.9597 76.9022 98.8067L80.0486 89.4467C80.1975 89.0038 80.8235 88.9874 81.0058 89.4176C82.2612 92.3806 83.4717 94.2995 84.9473 95.81C86.4788 97.377 88.2469 98.6927 90.1866 99.7081C92.2408 100.784 94.6827 101.414 98.4304 101.745C102.249 102.081 107.079 102.085 113.876 102.085H121.195L109.555 90.4451C107.928 88.8186 107.928 86.1814 109.555 84.5549C111.181 82.9284 113.819 82.9284 115.445 84.5549L134.195 103.305C134.976 104.086 135.415 105.145 135.415 106.25C135.415 107.355 134.976 108.414 134.195 109.195L115.445 127.945C113.819 129.572 111.181 129.572 109.555 127.945C107.928 126.319 107.928 123.681 109.555 122.055L121.195 110.415H113.682C107.122 110.415 101.925 110.415 97.6988 110.042C93.36 109.66 89.7157 108.864 86.323 107.088C83.6066 105.666 81.1323 103.824 78.9901 101.632C78.2575 100.883 77.5891 100.093 76.9721 99.2582Z" fill="black"/>
</svg>
