<svg width="24" height="24" viewBox="0 0 22 22" fill="none" xmlns="http://www.w3.org/2000/svg">
  <path d="M7.24984 11.0002C7.24984 12.2658 6.22382 13.2918 4.95817 13.2918C3.69252 13.2918 2.6665 12.2658 2.6665 11.0002C2.6665 9.73452 3.69252 8.7085 4.95817 8.7085C6.22382 8.7085 7.24984 9.73452 7.24984 11.0002Z" stroke="black"/>
  <path d="M11.8333 5.9585L7.25 9.16683" stroke="black" stroke-linecap="round"/>
  <path d="M11.8333 16.0418L7.25 12.8335" stroke="black" stroke-linecap="round"/>
  <path d="M16.4163 16.9582C16.4163 18.2238 15.3903 19.2498 14.1247 19.2498C12.859 19.2498 11.833 18.2238 11.833 16.9582C11.833 15.6925 12.859 14.6665 14.1247 14.6665C15.3903 14.6665 16.4163 15.6925 16.4163 16.9582Z" stroke="black"/>
  <path d="M16.4163 5.04167C16.4163 6.30732 15.3903 7.33333 14.1247 7.33333C12.859 7.33333 11.833 6.30732 11.833 5.04167C11.833 3.77602 12.859 2.75 14.1247 2.75C15.3903 2.75 16.4163 3.77602 16.4163 5.04167Z" stroke="black"/>
</svg>
