<svg width="421" height="431" viewBox="0 0 421 431" fill="none" xmlns="http://www.w3.org/2000/svg">
<path d="M170.527 342.88C169.958 343.03 169.399 343.06 168.8 343.04C168.541 343.04 168.291 343.01 168.042 343C167.962 342.96 167.892 342.92 167.802 342.88C166.874 342.501 165.875 342.371 164.977 341.872C164.178 341.423 163.44 340.893 162.801 340.245C161.413 338.837 160.435 337.04 160.185 335.073C159.956 333.276 160.395 331.379 161.283 329.802C162.072 328.404 163.07 327.366 164.278 326.448C165.157 326.288 166.095 325.819 166.824 325.709C168.082 325.509 169.489 325.699 170.647 326.218C173.233 327.386 174.81 330.072 175.429 332.737C176.068 335.463 175.728 338.727 173.812 340.883C172.933 341.862 171.795 342.561 170.527 342.88Z" fill="#21C488"/>
<path d="M170.318 321.686C177.106 323.113 180.66 330.89 179.801 337.28C179.332 340.724 177.575 343.869 174.59 345.755C172.733 346.933 168.98 348.141 166.894 346.804C165.536 346.764 164.068 346.075 162.911 345.446C161.723 344.807 160.624 343.939 159.686 342.96C157.819 341.013 156.472 338.438 156.132 335.752C155.443 330.261 158.578 323.962 164.078 322.215C164.248 322.155 164.418 322.145 164.588 322.155C164.737 322.075 164.887 322.015 165.017 321.965C166.714 321.346 168.571 321.316 170.318 321.686ZM173.812 340.884C175.728 338.727 176.068 335.463 175.429 332.737C174.81 330.072 173.233 327.386 170.647 326.218C169.489 325.699 168.082 325.509 166.824 325.709C166.095 325.819 165.157 326.288 164.278 326.448C163.07 327.366 162.072 328.405 161.283 329.802C160.395 331.38 159.956 333.276 160.185 335.073C160.435 337.04 161.413 338.837 162.801 340.245C163.44 340.894 164.178 341.423 164.977 341.872C165.875 342.371 166.874 342.501 167.802 342.88C167.892 342.92 167.962 342.96 168.042 343C168.291 343.01 168.541 343.04 168.8 343.04C169.399 343.06 169.958 343.03 170.527 342.88C171.795 342.561 172.933 341.862 173.812 340.884Z" fill="black"/>
<path d="M229.026 393.505C229.016 393.575 229.016 393.645 229.006 393.715C228.976 394.114 228.936 394.514 228.906 394.913L228.796 396.061L228.597 398.128C228.367 400.733 228.087 403.349 227.918 405.964C227.748 408.65 227.688 411.385 227.309 414.041C227.249 414.46 227.219 415.059 227.009 415.448C226.889 415.648 227.149 415.518 226.66 415.618C225.522 415.838 224.394 416.057 223.246 416.217C221.289 416.487 219.293 416.716 217.286 416.856C218.065 415.638 218.624 414.26 218.993 412.853C219.602 410.547 219.752 408.161 219.902 405.785C220.281 399.535 220.62 393.276 220.501 387.036C221.339 386.677 222.228 386.467 223.126 386.417C224.024 386.357 224.973 386.407 225.771 386.866C226.63 387.366 227.119 388.264 227.548 389.133C228.227 390.53 228.646 392.008 229.026 393.505Z" fill="#21C488"/>
<path d="M220.501 387.036C220.62 393.276 220.281 399.535 219.902 405.785C219.752 408.161 219.602 410.547 218.993 412.853C218.624 414.26 218.065 415.638 217.286 416.856C214.002 417.096 210.698 417.116 207.483 416.736C203.939 416.327 199.347 414.001 201.414 409.748C202.372 407.801 204.109 406.603 206.056 405.765C207.663 405.066 209.45 404.856 211.127 404.367C211.127 405.715 211.197 407.112 211.676 408.26C212.355 409.918 214.96 410.227 215.429 408.191C215.849 406.453 215.489 404.507 215.449 402.74C215.399 400.893 215.429 399.046 215.519 397.189C215.579 395.841 215.679 394.484 215.829 393.126C215.869 392.757 215.909 392.397 215.959 392.028V391.998C215.978 391.868 215.998 391.738 216.018 391.618C216.458 390.59 216.987 389.612 217.845 388.773C218.604 388.034 219.512 387.435 220.501 387.036Z" fill="#20A069"/>
<path d="M232.899 397.528C232.68 398.277 231.991 399.575 231.042 398.966C230.164 398.417 229.944 396.919 229.675 395.991C229.445 395.162 229.236 394.334 229.026 393.505C229.096 392.806 229.216 392.167 229.365 391.529C229.435 391.549 229.505 391.558 229.575 391.568C230.693 391.778 231.831 391.968 232.959 392.148C233.318 393.945 233.398 395.871 232.899 397.528Z" fill="black"/>
<path d="M232.34 389.831C232.58 390.56 232.799 391.339 232.959 392.147C231.831 391.968 230.693 391.778 229.575 391.568C229.505 391.558 229.435 391.548 229.365 391.528C229.215 392.167 229.096 392.806 229.026 393.505C228.646 392.008 228.227 390.53 227.548 389.132C227.119 388.264 226.63 387.365 225.771 386.866C224.973 386.407 224.024 386.357 223.126 386.417C222.227 386.467 221.339 386.677 220.5 387.036C220.471 385.558 220.411 384.081 220.321 382.603C220.63 382.524 220.95 382.454 221.259 382.394C223.665 381.954 226.33 382.044 228.377 383.522C230.473 385.029 231.541 387.455 232.34 389.831Z" fill="black"/>
<path d="M233.778 393.136C233.708 393.974 233.638 394.833 233.558 395.672C233.548 395.811 233.538 395.941 233.528 396.081C233.508 396.34 233.478 396.61 233.458 396.87C233.328 398.397 233.199 399.924 233.069 401.472C232.759 405.066 232.28 408.65 231.941 412.254C231.681 415.069 231.901 418.363 228.936 419.831C227.578 420.51 225.931 420.67 224.454 420.909C222.807 421.179 221.159 421.428 219.492 421.548C218.175 421.648 216.857 421.708 215.539 421.718L215.519 418.962C216.208 418.343 216.797 417.635 217.286 416.856C219.293 416.716 221.289 416.487 223.246 416.217C224.394 416.057 225.522 415.838 226.66 415.618C227.149 415.518 226.89 415.648 227.009 415.448C227.219 415.059 227.249 414.46 227.309 414.041C227.688 411.385 227.748 408.65 227.918 405.964C228.087 403.349 228.367 400.733 228.597 398.127L228.796 396.061L228.906 394.913C228.936 394.513 228.976 394.114 229.006 393.715C229.016 393.645 229.016 393.575 229.026 393.505C229.235 394.334 229.445 395.162 229.675 395.991C229.944 396.919 230.164 398.417 231.042 398.966C231.991 399.575 232.679 398.277 232.899 397.528C233.398 395.871 233.318 393.944 232.959 392.147C233.239 392.197 233.508 392.237 233.788 392.277C233.798 392.557 233.798 392.836 233.778 393.136Z" fill="black"/>
<path d="M220.501 387.036C219.512 387.435 218.604 388.034 217.845 388.773C216.987 389.612 216.458 390.59 216.018 391.618C216.118 390.87 216.228 390.121 216.348 389.382C216.388 389.153 216.438 388.923 216.478 388.683C215.399 388.394 214.331 388.084 213.263 387.765C213.593 387.226 213.962 386.737 214.331 386.297C215.849 384.5 218.045 383.212 220.321 382.604C220.411 384.081 220.471 385.559 220.501 387.036Z" fill="black"/>
<path d="M216.478 388.683C216.438 388.923 216.388 389.153 216.348 389.382C216.228 390.121 216.118 390.87 216.019 391.618C215.619 392.527 215.29 393.485 214.841 394.404C214.222 395.682 212.565 395.103 212.135 394.054C211.916 393.525 211.806 392.976 211.786 392.417C211.806 392.267 211.826 392.108 211.846 391.958C211.876 391.708 211.906 391.459 211.946 391.209C211.956 391.069 211.976 390.93 211.996 390.78C212.005 390.68 212.015 390.57 212.025 390.46C212.285 389.512 212.734 388.594 213.263 387.765C214.331 388.084 215.4 388.394 216.478 388.683Z" fill="black"/>
<path d="M215.829 393.126C215.679 394.484 215.579 395.841 215.519 397.189C215.429 399.046 215.399 400.893 215.449 402.74C215.489 404.507 215.849 406.453 215.429 408.191C214.96 410.227 212.355 409.918 211.676 408.26C211.197 407.112 211.127 405.715 211.127 404.367C209.45 404.856 207.663 405.066 206.056 405.765C204.109 406.603 202.372 407.801 201.414 409.748C199.347 414.001 203.939 416.327 207.483 416.736C210.697 417.116 214.002 417.096 217.286 416.856C216.797 417.635 216.208 418.344 215.519 418.963L215.539 421.718C213.722 421.748 211.895 421.688 210.089 421.558C207.233 421.339 204.299 420.929 201.783 419.522C199.497 418.254 197.47 416.077 196.861 413.492C196.253 410.976 196.832 408.27 198.209 406.104C199.736 403.708 202.013 402.021 204.658 401.053C206.595 400.354 209 399.695 211.187 399.865C211.217 398.856 211.276 397.858 211.346 396.86C211.436 395.372 211.596 393.895 211.786 392.417C211.806 392.976 211.915 393.525 212.135 394.054C212.564 395.103 214.221 395.682 214.84 394.404C215.289 393.485 215.619 392.527 216.018 391.618C215.998 391.738 215.978 391.868 215.958 391.998V392.028C215.908 392.397 215.869 392.757 215.829 393.126Z" fill="black"/>
<path d="M212.475 387.525C212.734 387.605 213.004 387.685 213.263 387.765C212.734 388.593 212.285 389.512 212.025 390.46C212.125 389.522 212.215 388.474 212.475 387.525Z" fill="black"/>
<path d="M212.026 390.46C212.016 390.57 212.006 390.68 211.996 390.78C211.976 390.929 211.956 391.069 211.946 391.209C211.906 391.459 211.876 391.708 211.846 391.958C211.826 392.107 211.806 392.267 211.786 392.417C211.756 391.768 211.846 391.109 212.026 390.46Z" fill="black"/>
<path d="M70.8102 77.6354C69.8519 77.865 68.8936 78.0946 67.9352 78.3342C72.6271 81.5888 77.289 84.8932 81.871 88.3075C92.5825 96.2641 102.994 104.62 113.097 113.335C118.068 117.618 122.94 122.021 127.732 126.523C130.177 128.819 132.623 131.126 134.999 133.492C136.187 134.68 137.365 135.878 138.533 137.086C139.062 137.625 139.651 138.144 140.13 138.723C140.609 139.292 140.909 140.111 141.228 140.829C145.97 145.601 151.201 149.894 155.643 154.956C158.139 157.791 160.415 160.886 161.982 164.34C163.849 168.433 164.757 172.776 165.246 177.228C165.736 181.731 165.776 186.273 165.915 190.795C166.075 195.767 166.225 200.739 166.384 205.72C166.684 215.584 166.993 225.457 167.273 235.321C167.413 240.213 167.562 245.114 167.682 250.006C167.732 252.492 167.792 254.978 167.852 257.464C167.872 258.063 167.822 258.632 167.752 259.191C167.782 259.979 167.782 260.778 167.812 261.557C167.882 263.963 167.972 266.369 168.022 268.785C168.102 273.517 168.181 278.259 168.271 282.991C168.531 297.996 168.79 312.99 169.06 327.985C169.11 328.395 169.16 328.794 169.22 329.203C170.208 336.441 171.546 343.829 173.832 350.847C173.881 350.977 173.931 351.106 173.961 351.236C176.307 358.304 179.622 364.983 184.533 370.744C190.383 377.632 198.09 382.214 206.455 385.449C207.673 385.918 208.921 386.367 210.179 386.787C210.937 387.046 211.706 387.286 212.475 387.525C213.802 387.935 215.14 388.324 216.478 388.683C218.654 389.272 220.84 389.792 223.026 390.261C224.364 390.55 225.692 390.82 227.009 391.079C227.798 391.239 228.577 391.389 229.365 391.529C229.435 391.549 229.505 391.559 229.575 391.569C230.972 391.828 232.38 392.068 233.788 392.277C241.764 393.545 249.83 394.264 257.896 394.593C263.626 394.833 269.366 394.913 275.106 394.773H275.116C278.34 394.683 281.555 394.524 284.759 394.284C301.051 393.046 318.031 389.093 331.219 378.95C337.048 374.467 342.11 368.986 345.823 362.627C347.66 359.472 349.098 356.138 350.096 352.624C350.585 350.917 351.104 349.22 351.473 347.473C351.603 346.874 351.673 346.245 351.763 345.626C352.102 331.31 352.472 317.004 352.811 302.688C353.46 275.933 354.099 249.178 354.748 222.422C355.397 195.807 356.036 169.192 356.684 142.576C357.293 118.048 357.872 92.7001 349.786 69.1696C343.707 51.4593 332.357 34.9071 315.755 25.7824C311.253 46.7972 299.534 66.3643 282.753 79.8417C284.629 83.0164 286.356 86.2709 287.974 89.5953C289.092 91.9114 290.14 94.2475 291.078 96.6435C292.096 99.2092 292.546 101.905 293.214 104.57C293.554 105.958 291.517 106.757 290.869 105.469C289.551 102.863 287.934 100.437 286.666 97.8016C285.398 95.156 284.11 92.5204 282.743 89.9348C281.355 87.3192 279.898 84.7335 278.37 82.1878C277.831 81.2893 277.282 80.3908 276.723 79.5023C275.815 78.0348 274.876 76.5872 273.918 75.1596C262.518 58.1581 247.564 43.5027 230.483 32.2416C214.431 21.6594 196.223 13.7027 177.276 10.0488C178.414 13.503 179.462 16.9872 180.41 20.5013C182.626 28.6876 184.244 37.0535 185.362 45.4694C186.39 53.2064 186.899 61.0532 186.53 68.8502C195.524 70.4075 204.339 72.7037 213.093 75.2594C214.471 75.6587 213.802 77.6254 212.455 77.3459C201.663 75.1196 190.672 73.5922 179.741 72.2245C160.205 69.7886 140.529 68.9899 120.863 70.1979C103.993 71.2362 87.2417 73.7519 70.8102 77.6354ZM356.235 73.0431C363.303 97.6319 362.145 123.648 361.526 148.936C360.857 176.06 360.158 203.185 359.48 230.299C358.791 257.304 358.112 284.309 357.433 311.303C357.144 322.694 356.854 334.095 356.555 345.486C356.505 345.855 356.455 346.225 356.385 346.594C355.417 351.965 353.67 357.296 351.454 362.278C351.424 362.348 351.404 362.407 351.374 362.477C351.384 362.158 351.394 361.838 351.394 361.519C346.782 371.233 338.746 379.559 330.001 385.359C315.156 395.222 296.818 398.377 279.329 399.166C264.105 399.855 248.582 399.276 233.458 396.87C231.901 396.62 230.344 396.36 228.796 396.061C228.087 395.941 227.389 395.801 226.68 395.662C225.133 395.352 223.595 395.023 222.068 394.673C221.838 394.633 221.619 394.574 221.389 394.524C219.532 394.094 217.676 393.635 215.829 393.126C214.491 392.767 213.163 392.377 211.846 391.958C210.987 391.698 210.129 391.419 209.28 391.129C207.972 390.7 206.665 390.231 205.387 389.722C202.242 388.504 199.178 387.106 196.223 385.479C188.905 381.465 182.646 375.925 177.974 368.996C174.73 364.165 172.324 358.863 170.537 353.313C170.447 353.193 170.358 353.073 170.278 352.943C170.108 352.674 169.958 352.394 169.898 352.075C169.858 351.895 169.838 351.695 169.789 351.516C169.779 351.486 169.769 351.466 169.759 351.436C169.679 351.256 169.599 351.076 169.529 350.887C169.499 350.767 169.489 350.637 169.469 350.507C169.479 350.697 169.479 350.887 169.479 351.076C169.339 350.527 169.2 349.978 169.03 349.409C168.99 349.29 168.95 349.18 168.91 349.05C168.73 348.161 168.571 347.273 168.401 346.374C167.782 344.418 167.263 342.421 166.744 340.434C166.135 338.118 165.666 335.752 165.296 333.376C165.137 332.378 164.957 331.32 164.867 330.241C164.827 330.182 164.797 330.102 164.757 330.042C164.697 329.433 164.628 328.834 164.558 328.225C164.418 320.668 164.288 313.1 164.148 305.543C163.989 296.897 163.829 288.262 163.669 279.616C163.589 275.374 163.47 271.141 163.45 266.898C163.43 264.741 163.42 262.575 163.41 260.419C163.4 258.881 163.38 257.404 163.739 255.976C163.639 253.49 163.539 251.004 163.44 248.509C163.22 243.038 163.04 237.567 162.841 232.086C162.481 222.392 162.172 212.689 161.842 202.985C161.683 198.093 161.513 193.191 161.353 188.3C161.203 184.007 161.144 179.664 160.485 175.411C159.856 171.398 158.728 167.515 156.661 164C154.835 160.896 152.469 158.18 149.953 155.615C145.461 151.012 140.519 146.829 136.866 141.528C136.856 141.528 136.846 141.518 136.836 141.508C136.157 140.889 135.498 140.25 134.839 139.621C133.442 138.304 132.034 137.016 130.646 135.698C127.981 133.182 125.296 130.686 122.58 128.221C103.174 110.55 82.7096 94.1577 61.0671 79.3126C59.39 78.1645 59.7394 75.529 61.7659 75.0098C72.5971 72.1846 83.5781 69.9583 94.6589 68.341C114.395 65.4558 134.41 64.4675 154.335 65.4459C163.949 65.9151 173.532 66.8435 183.046 68.2911C182.716 64.4076 182.387 60.5241 182.027 56.6406C180.48 40.0085 177.096 23.5462 171.755 7.71277C171.146 5.89582 173.103 4.7777 174.6 5.03727C186.31 7.07385 197.71 10.3483 208.631 15.0305C228.137 23.3864 245.867 35.6858 260.621 50.9402C267.988 58.5574 274.597 66.9134 280.297 75.8484C280.337 75.9183 280.387 75.9882 280.427 76.0581C296.469 61.7321 307.62 42.5443 311.563 21.3C311.892 19.5329 314.018 19.2933 315.306 19.9123C317.622 21.0204 319.878 22.2683 322.044 23.666C339.384 34.8073 350.635 53.5558 356.235 73.0431Z" fill="black"/>
<path d="M349.786 69.1696C357.872 92.7001 357.293 118.048 356.684 142.576C356.035 169.192 355.396 195.807 354.748 222.422C354.099 249.178 353.46 275.933 352.811 302.688C352.472 317.004 352.102 331.31 351.763 345.626C351.673 346.245 351.603 346.874 351.473 347.473C351.104 349.22 350.585 350.917 350.096 352.624C349.097 356.138 347.66 359.472 345.823 362.627C342.11 368.986 337.048 374.467 331.218 378.95C318.031 389.093 301.051 393.046 284.759 394.284C281.555 394.524 278.34 394.683 275.116 394.773H275.106C265.063 393.026 255.061 390.98 245.148 388.623C226.829 384.261 207.213 377.752 196.951 361.948C191.321 353.283 189.255 342.82 187.807 332.587C182.377 294.082 184.124 254.868 179.352 216.273C174.57 177.677 162.142 138.084 133.841 111.409C122.52 100.747 109.104 92.5603 95.3076 85.3724C87.6509 81.3791 79.2754 77.5855 70.8101 77.6354C87.2416 73.7519 103.992 71.2361 120.863 70.1979C140.529 68.9899 160.205 69.7886 179.741 72.2245C190.672 73.5922 201.663 75.1196 212.454 77.3459C213.802 77.6254 214.471 75.6587 213.093 75.2594C204.338 72.7037 195.524 70.4075 186.529 68.8501C186.899 61.0532 186.39 53.2064 185.361 45.4694C184.243 37.0535 182.626 28.6875 180.41 20.5013C179.462 16.9872 178.413 13.503 177.275 10.0488C196.223 13.7027 214.431 21.6594 230.483 32.2416C247.564 43.5027 262.518 58.1581 273.918 75.1596C274.876 76.5872 275.815 78.0347 276.723 79.5023C277.282 80.3908 277.831 81.2893 278.37 82.1878C279.897 84.7335 281.355 87.3191 282.742 89.9347C284.11 92.5204 285.398 95.156 286.666 97.8015C287.933 100.437 289.551 102.863 290.868 105.469C291.517 106.757 293.554 105.958 293.214 104.57C292.545 101.905 292.096 99.2092 291.078 96.6435C290.14 94.2475 289.091 91.9114 287.973 89.5953C286.356 86.2709 284.629 83.0164 282.752 79.8417C299.533 66.3643 311.253 46.7972 315.755 25.7824C332.356 34.9071 343.707 51.4593 349.786 69.1696Z" fill="#21C488"/>
<path d="M275.106 394.773C269.366 394.913 263.626 394.833 257.896 394.594C249.83 394.264 241.764 393.545 233.788 392.277C232.38 392.068 230.973 391.828 229.575 391.569C229.505 391.559 229.435 391.549 229.365 391.529C228.577 391.389 227.798 391.239 227.009 391.079C225.692 390.82 224.364 390.55 223.026 390.261C220.84 389.792 218.654 389.272 216.478 388.683C215.14 388.324 213.802 387.935 212.475 387.525C211.706 387.286 210.937 387.046 210.179 386.787C208.921 386.367 207.673 385.918 206.455 385.449C198.09 382.214 190.383 377.632 184.533 370.744C179.622 364.983 176.307 358.304 173.961 351.236C173.931 351.107 173.882 350.977 173.832 350.847C171.546 343.829 170.208 336.441 169.22 329.203C169.16 328.794 169.11 328.395 169.06 327.985C168.79 312.991 168.531 297.996 168.271 282.991C168.181 278.259 168.102 273.517 168.022 268.785C167.972 266.369 167.882 263.963 167.812 261.557C167.782 260.778 167.782 259.979 167.752 259.191C167.822 258.632 167.872 258.063 167.852 257.464C167.792 254.978 167.732 252.492 167.682 250.006C167.563 245.114 167.413 240.213 167.273 235.321C166.994 225.457 166.684 215.584 166.385 205.721C166.225 200.739 166.075 195.767 165.915 190.796C165.776 186.273 165.736 181.731 165.247 177.228C164.757 172.776 163.849 168.433 161.982 164.34C160.415 160.886 158.139 157.791 155.643 154.956C151.201 149.894 145.97 145.601 141.228 140.829C140.909 140.111 140.609 139.292 140.13 138.723C139.651 138.144 139.062 137.625 138.533 137.086C137.365 135.878 136.187 134.68 134.999 133.492C132.623 131.126 130.177 128.82 127.732 126.523C122.94 122.021 118.068 117.618 113.097 113.336C102.994 104.62 92.5825 96.2642 81.8711 88.3076C77.2891 84.8933 72.6272 81.5889 67.9353 78.3343C68.8936 78.0947 69.852 77.8651 70.8103 77.6355C79.2756 77.5856 87.6511 81.3792 95.3078 85.3725C109.104 92.5604 122.521 100.747 133.841 111.409C162.142 138.084 174.57 177.678 179.352 216.273C184.124 254.868 182.377 294.082 187.807 332.588C189.255 342.82 191.321 353.283 196.952 361.948C207.214 377.752 226.83 384.261 245.148 388.624C255.061 390.98 265.063 393.026 275.106 394.773Z" fill="#20A069"/>
<path d="M225.831 301.799C224.643 302.698 223.336 303.456 221.928 303.996C216.008 306.262 209.649 304.784 205.167 300.901C205.646 300.701 206.106 300.461 206.605 300.252C207.463 299.892 208.362 299.643 209.26 299.383C211.147 298.834 212.994 298.455 214.97 298.445C216.927 298.435 218.834 298.734 220.7 299.313C222.567 299.892 224.164 300.831 225.831 301.799Z" fill="#F4D0E9"/>
<path d="M206.515 287.773C206.445 287.553 206.375 287.343 206.325 287.124C205.886 285.606 205.537 283.929 204.898 282.442C211.277 282.522 217.666 282.581 224.044 282.621C223.605 283.63 223.306 284.688 223.056 285.756C222.926 286.355 222.817 286.964 222.687 287.563C222.647 287.763 222.607 287.952 222.567 288.152C221.858 288.162 221.03 288.002 220.421 287.982C219.363 287.952 218.304 287.942 217.246 287.912L210.668 287.773C209.54 287.743 208.392 287.673 207.264 287.723C207.054 287.733 206.754 287.793 206.515 287.773Z" fill="white"/>
<path d="M219.063 292.584C220.68 292.644 222.727 292.964 224.274 292.415C225.941 291.816 226.39 290.248 226.88 288.721C227.439 286.934 228.058 285.127 228.167 283.25C228.177 283.03 228.147 282.831 228.098 282.641C229.845 282.651 231.591 282.671 233.338 282.681C233.239 286.804 232.829 290.987 231.242 294.811C230.623 296.308 229.775 297.706 228.766 298.964C228.696 298.894 228.637 298.834 228.557 298.764C224.843 295.889 219.832 294.491 215.18 294.501C212.914 294.501 210.558 294.811 208.402 295.5C207.274 295.859 206.176 296.388 205.137 296.947C204.349 297.366 203.49 297.826 202.891 298.504C201.863 297.187 201.005 295.709 200.386 294.082C199.517 291.816 198.978 289.41 198.798 286.994C198.689 285.456 198.758 283.909 198.719 282.372C199.687 282.382 200.665 282.392 201.643 282.402C201.603 283.889 201.973 285.446 202.242 286.864C202.512 288.262 202.722 289.859 203.83 290.877C205.107 292.065 206.984 292.175 208.621 292.235C210.368 292.295 212.105 292.355 213.842 292.405C215.579 292.465 217.326 292.525 219.063 292.584Z" fill="#353B3F"/>
<path d="M235.644 278.139C236.872 278.149 237.93 279.167 237.92 280.415C237.89 286.844 237.391 293.633 234.067 299.313C228.277 309.207 215.08 312.591 205.307 306.551C200.735 303.736 197.58 299.233 195.993 294.142C195.234 291.716 194.845 289.16 194.725 286.615C194.606 284.009 194.665 281.144 196.103 278.888C196.253 278.648 196.482 278.498 196.722 278.408C197.091 278.009 197.63 277.75 198.339 277.75C210.777 277.779 223.206 277.969 235.644 278.139ZM233.338 282.681C231.591 282.671 229.844 282.651 228.097 282.641C228.147 282.831 228.177 283.031 228.167 283.25C228.057 285.127 227.439 286.934 226.879 288.721C226.39 290.249 225.941 291.816 224.274 292.415C222.727 292.964 220.68 292.644 219.063 292.585C217.326 292.525 215.579 292.465 213.842 292.405C212.105 292.355 210.368 292.295 208.621 292.235C206.984 292.175 205.107 292.066 203.83 290.878C202.721 289.859 202.512 288.262 202.242 286.864C201.973 285.447 201.603 283.889 201.643 282.402C200.665 282.392 199.687 282.382 198.718 282.372C198.758 283.909 198.688 285.457 198.798 286.994C198.978 289.41 199.517 291.816 200.385 294.082C201.004 295.709 201.863 297.187 202.891 298.505C203.49 297.826 204.349 297.367 205.137 296.947C206.175 296.388 207.274 295.859 208.402 295.5C210.558 294.811 212.914 294.501 215.18 294.501C219.832 294.491 224.843 295.889 228.557 298.764C228.636 298.834 228.696 298.894 228.766 298.964C229.774 297.706 230.623 296.308 231.242 294.811C232.829 290.987 233.238 286.804 233.338 282.681ZM223.056 285.756C223.306 284.688 223.605 283.63 224.044 282.621C217.666 282.581 211.277 282.522 204.898 282.442C205.537 283.929 205.886 285.606 206.325 287.124C206.375 287.343 206.445 287.553 206.515 287.773C206.754 287.793 207.054 287.733 207.264 287.723C208.392 287.673 209.54 287.743 210.668 287.773L217.246 287.912C218.304 287.942 219.363 287.952 220.421 287.982C221.03 288.002 221.858 288.162 222.567 288.152C222.607 287.952 222.647 287.763 222.687 287.563C222.817 286.964 222.926 286.355 223.056 285.756ZM221.928 303.995C223.336 303.456 224.643 302.698 225.831 301.799C224.164 300.831 222.567 299.892 220.7 299.313C218.834 298.734 216.927 298.435 214.97 298.445C212.994 298.455 211.147 298.834 209.26 299.383C208.362 299.643 207.463 299.892 206.605 300.252C206.106 300.461 205.646 300.701 205.167 300.901C209.649 304.784 216.008 306.262 221.928 303.995Z" fill="black"/>
<path d="M325.648 182.16C328.344 196.116 326.946 210.672 320.966 223.61C315.077 236.389 305.084 247.091 293.115 254.409C281.185 261.686 267.06 265.63 253.054 264.741C238.979 263.843 225.282 258.372 214.182 249.717C214.042 249.856 213.892 249.996 213.722 250.116C211.886 251.344 209.989 252.472 208.012 253.47C191.521 261.776 171.176 261.147 154.874 252.721C139.421 244.735 127.861 229.73 122.86 213.198C117.409 195.168 120.254 175.401 129.049 158.909C137.834 142.417 152.718 128.829 170.777 123.379C179.731 120.673 189.165 120.314 198.289 122.35C202.741 123.339 207.074 124.916 211.057 127.132C214.731 129.169 217.795 131.794 220.571 134.879C231.132 128.59 243.301 125.255 255.63 124.966C262.887 124.796 270.204 125.715 277.192 127.681C280.776 128.7 284.29 129.987 287.634 131.635C289.231 132.433 290.779 133.312 292.276 134.29C293.803 135.259 295.141 136.457 296.629 137.475C296.998 137.724 297.228 138.044 297.337 138.383C297.697 138.353 298.086 138.453 298.475 138.743C301.261 140.769 303.896 143.006 306.332 145.442C316.235 155.355 323.003 168.423 325.648 182.16ZM320.208 212.669C323.752 199.88 322.933 186.403 318.86 173.854C314.797 161.335 307.011 149.884 296.489 141.907C296.11 141.618 295.89 141.259 295.78 140.889C295.441 140.909 295.061 140.829 294.692 140.57C292.017 138.733 288.752 137.415 285.777 136.127C273.219 130.666 259.563 128.6 245.996 130.876C232.56 133.122 220.041 139.322 210.588 149.195C201.494 158.679 195.554 170.979 193.148 183.857C190.752 196.715 192.21 210.393 197.84 222.243C203.57 234.312 213.093 244.356 224.554 251.154C236.074 257.973 249.54 261.357 262.907 260.149C275.944 258.981 288.523 253.45 298.585 245.164C308.817 236.748 316.654 225.477 320.208 212.669ZM214.611 138.863C215.629 138.094 216.677 137.375 217.725 136.676C216.567 135.818 215.35 135.039 214.092 134.33C210.408 132.244 206.824 130.237 202.811 128.839C198.838 127.442 194.705 126.563 190.513 126.234C182.007 125.575 173.462 126.983 165.616 130.317C149.394 137.205 136.436 150.882 129.708 167.095C123.04 183.138 122.171 201.497 128.86 217.69C135.139 232.895 147.168 245.673 162.831 251.264C178.444 256.845 196.362 255.367 210.558 246.702C200.895 238.136 193.477 227.134 189.814 214.685C185.831 201.148 186.42 186.373 190.782 173.005C195.135 159.648 203.34 147.358 214.611 138.863Z" fill="black"/>
<path d="M318.86 173.854C322.933 186.403 323.752 199.88 320.208 212.669C316.654 225.477 308.817 236.748 298.585 245.164C288.523 253.45 275.945 258.981 262.907 260.149C249.54 261.357 236.074 257.973 224.554 251.154C213.094 244.356 203.57 234.312 197.84 222.243C192.21 210.393 190.752 196.716 193.148 183.857C195.554 170.979 201.494 158.679 210.588 149.195C220.041 139.322 232.56 133.122 245.996 130.876C259.563 128.6 273.219 130.666 285.777 136.127C288.752 137.415 292.017 138.733 294.692 140.57C295.061 140.829 295.441 140.909 295.78 140.889C295.89 141.259 296.11 141.618 296.489 141.907C307.011 149.884 314.797 161.335 318.86 173.854ZM247.664 196.156C247.684 195.647 247.564 195.168 247.324 194.729C247.055 194.26 246.795 193.98 246.346 193.681C246.026 193.461 245.687 193.341 245.308 193.311C244.938 193.221 244.559 193.221 244.18 193.331C243.95 193.421 243.73 193.501 243.501 193.591C243.072 193.83 242.722 194.16 242.453 194.569C242.403 194.639 242.353 194.709 242.313 194.769C242.213 194.988 242.113 195.208 242.013 195.428C241.884 195.787 241.854 196.156 241.923 196.536C241.914 196.785 241.973 197.015 242.093 197.235C242.193 197.584 242.373 197.894 242.642 198.153C242.822 198.303 243.002 198.453 243.191 198.602C243.401 198.702 243.621 198.802 243.84 198.902C244.21 199.032 244.579 199.052 244.948 198.982C245.318 198.982 245.667 198.882 245.986 198.682C246.056 198.642 246.126 198.592 246.196 198.552C246.526 198.383 246.805 198.153 247.005 197.854C247.264 197.584 247.444 197.275 247.544 196.905C247.584 196.656 247.624 196.406 247.664 196.156Z" fill="white"/>
<path d="M247.324 194.729C247.564 195.168 247.684 195.647 247.664 196.156C247.624 196.406 247.584 196.656 247.544 196.905C247.444 197.275 247.264 197.584 247.005 197.854C246.805 198.153 246.526 198.383 246.196 198.552C246.126 198.592 246.056 198.642 245.987 198.682C245.667 198.882 245.318 198.982 244.948 198.982C244.579 199.052 244.21 199.032 243.84 198.902C243.621 198.802 243.401 198.702 243.191 198.602C243.002 198.453 242.822 198.303 242.642 198.153C242.373 197.893 242.193 197.584 242.093 197.235C241.974 197.015 241.914 196.785 241.924 196.536C241.854 196.156 241.884 195.787 242.014 195.428C242.113 195.208 242.213 194.988 242.313 194.769C242.353 194.709 242.403 194.639 242.453 194.569C242.722 194.16 243.072 193.83 243.501 193.591C243.731 193.501 243.95 193.421 244.18 193.331C244.559 193.221 244.938 193.221 245.308 193.311C245.687 193.341 246.027 193.461 246.346 193.681C246.795 193.98 247.055 194.26 247.324 194.729Z" fill="black"/>
<path d="M217.726 136.676C216.678 137.375 215.629 138.094 214.611 138.863C203.341 147.358 195.135 159.648 190.782 173.005C186.42 186.373 185.831 201.148 189.814 214.685C193.478 227.134 200.895 238.136 210.558 246.702C196.363 255.367 178.444 256.845 162.831 251.264C147.168 245.673 135.139 232.895 128.86 217.69C122.171 201.498 123.04 183.138 129.708 167.095C136.437 150.882 149.394 137.205 165.616 130.317C173.462 126.983 182.008 125.575 190.513 126.234C194.706 126.563 198.838 127.442 202.812 128.839C206.825 130.237 210.408 132.244 214.092 134.33C215.35 135.039 216.568 135.818 217.726 136.676ZM164.568 191.225C164.588 190.865 164.528 190.526 164.368 190.216C164.278 189.887 164.099 189.597 163.859 189.348C163.63 189.088 163.35 188.899 163.031 188.789C162.721 188.609 162.392 188.529 162.022 188.529L161.324 188.599C160.874 188.709 160.485 188.919 160.146 189.238C160.006 189.408 159.866 189.587 159.726 189.757C159.477 190.157 159.337 190.596 159.327 191.065C159.327 191.325 159.317 191.574 159.317 191.834C159.297 192.193 159.357 192.523 159.507 192.842C159.607 193.171 159.776 193.451 160.026 193.701C160.255 193.96 160.525 194.15 160.844 194.26C161.154 194.429 161.483 194.519 161.843 194.519C162.072 194.489 162.302 194.469 162.531 194.439C162.981 194.33 163.37 194.12 163.709 193.81C163.849 193.641 163.989 193.471 164.129 193.291C164.378 192.892 164.508 192.463 164.528 191.993C164.538 191.734 164.548 191.484 164.568 191.225Z" fill="white"/>
<path d="M164.368 190.216C164.528 190.526 164.588 190.865 164.568 191.225C164.548 191.484 164.538 191.734 164.528 191.993C164.508 192.462 164.378 192.892 164.128 193.291C163.989 193.471 163.849 193.64 163.709 193.81C163.37 194.12 162.98 194.329 162.531 194.439C162.302 194.469 162.072 194.489 161.842 194.519C161.483 194.519 161.154 194.429 160.844 194.259C160.525 194.15 160.255 193.96 160.025 193.7C159.776 193.451 159.606 193.171 159.506 192.842C159.357 192.522 159.297 192.193 159.317 191.834C159.317 191.574 159.327 191.324 159.327 191.065C159.337 190.596 159.476 190.156 159.726 189.757C159.866 189.587 160.006 189.408 160.145 189.238C160.485 188.918 160.874 188.709 161.323 188.599L162.022 188.529C162.391 188.529 162.721 188.609 163.03 188.789C163.35 188.898 163.629 189.088 163.859 189.348C164.098 189.597 164.278 189.887 164.368 190.216Z" fill="black"/>
<path d="M284.24 404.976C284.35 409.059 284.609 411.395 283.541 414.839C282.663 417.685 281.305 419.941 280.017 421.618C277.502 421.708 274.976 421.618 272.5 421.169C270.673 420.829 267.449 420.39 266.591 418.433C265.612 416.207 267.359 413.961 269.176 412.853C271.312 411.545 273.838 411.245 276.274 410.826C276.394 411.425 276.553 412.014 276.773 412.563C277.102 413.402 277.751 414.041 278.71 414.041C279.548 414.041 280.476 413.422 280.646 412.563C281.175 409.888 280.666 406.973 280.556 404.267C280.446 401.512 280.407 398.756 280.437 396.001C280.466 393.326 280.526 390.65 280.586 387.974C280.606 387.036 280.816 384.071 279.987 382.753C281.525 382.404 282.473 382.673 283.062 383.013C286.157 384.78 283.881 390.66 284.24 404.976Z" fill="#20A069"/>
<path d="M299.244 382.653C300.392 384.381 300.063 386.886 300.033 388.883C300.013 390.86 299.983 392.836 299.963 394.813C299.913 398.756 299.853 402.71 299.733 406.663C299.633 410.277 299.514 413.901 299.394 417.525C299.334 419.152 299.244 420.839 298.126 422.147C297.168 423.265 295.79 423.744 294.393 424.054C289.241 425.222 283.921 426.101 278.63 425.991L278.67 423.245C279.089 422.786 279.548 422.237 280.017 421.618C280.277 421.608 280.537 421.598 280.796 421.588C283.611 421.448 286.386 421.139 289.172 420.69C290.599 420.46 292.027 420.24 293.454 419.971C294.323 419.801 295.071 419.801 295.191 418.823C295.381 417.275 295.211 415.618 295.211 414.061C295.221 412.663 295.221 411.265 295.221 409.868C295.231 406.823 295.261 403.778 295.301 400.733C295.331 397.688 295.411 394.643 295.471 391.598C295.501 390.041 295.501 388.474 295.58 386.916C295.65 385.419 295.6 383.911 296.499 382.653C296.609 382.494 296.739 382.364 296.878 382.254C297.617 381.675 298.655 381.775 299.244 382.653Z" fill="black"/>
<path d="M279.329 382.934C279.408 382.734 279.518 382.554 279.658 382.374C279.788 382.474 279.898 382.604 279.987 382.754C279.778 382.804 279.558 382.854 279.329 382.934Z" fill="black"/>
<path d="M276.563 385.249C276.763 384.121 276.993 382.833 278.151 382.314C278.82 382.015 279.309 382.074 279.658 382.374C279.518 382.554 279.409 382.733 279.329 382.933C279.558 382.853 279.778 382.803 279.987 382.753C280.816 384.071 280.606 387.036 280.586 387.975C280.527 390.65 280.467 393.326 280.437 396.001C280.407 398.757 280.447 401.512 280.557 404.267C280.666 406.973 281.175 409.888 280.646 412.563C280.477 413.422 279.548 414.041 278.71 414.041C277.751 414.041 277.103 413.402 276.773 412.563C276.553 412.014 276.394 411.425 276.274 410.826C273.838 411.246 271.313 411.545 269.176 412.853C267.359 413.961 265.612 416.207 266.591 418.433C267.449 420.39 270.674 420.829 272.5 421.169C274.976 421.618 277.502 421.708 280.017 421.618C279.548 422.237 279.089 422.786 278.67 423.245L278.63 425.991C277.212 425.961 275.785 425.851 274.367 425.661C271.422 425.262 267.998 424.593 265.503 422.896C262.947 421.149 261.829 418.284 262.328 415.249C263.356 408.989 270.284 406.853 275.895 406.873C275.875 406.144 275.855 405.435 275.825 404.756C275.705 402.161 275.655 399.565 275.675 396.969C275.695 394.364 275.835 391.788 276.074 389.193C276.194 387.875 276.334 386.547 276.563 385.249Z" fill="black"/>
<path d="M283.541 414.839C284.609 411.395 284.35 409.059 284.24 404.976C283.881 390.66 286.157 384.78 283.062 383.013C282.473 382.673 281.525 382.404 279.987 382.753C279.897 382.604 279.788 382.474 279.658 382.374C280.267 381.475 281.265 380.777 282.273 380.297C286.606 378.231 292.056 378.7 295.97 381.495C296.289 381.725 296.599 381.975 296.878 382.254C296.738 382.364 296.609 382.494 296.499 382.653C295.6 383.911 295.65 385.419 295.58 386.916C295.5 388.474 295.5 390.041 295.471 391.598C295.411 394.643 295.331 397.688 295.301 400.733C295.261 403.778 295.231 406.823 295.221 409.868C295.221 411.265 295.221 412.663 295.211 414.061C295.211 415.618 295.381 417.275 295.191 418.823C295.071 419.801 294.322 419.801 293.454 419.971C292.026 420.24 290.599 420.46 289.171 420.69C286.386 421.139 283.611 421.448 280.796 421.588C280.536 421.598 280.277 421.608 280.017 421.618C281.305 419.941 282.663 417.685 283.541 414.839Z" fill="#21C488"/>
<path d="M300.851 336.501C300.971 334.853 300.871 333.166 300.851 331.529C300.851 331.489 300.851 331.439 300.851 331.399C301.141 331.479 301.43 331.549 301.72 331.649C301.819 331.689 301.909 331.729 302.009 331.769C301.989 331.769 302.049 331.799 302.279 331.878C302.438 331.948 302.588 332.018 302.748 332.088C302.848 332.138 302.957 332.188 303.057 332.248C303.267 332.358 303.467 332.487 303.656 332.617C303.726 332.657 303.806 332.737 303.886 332.817C303.896 332.847 303.956 332.897 304.056 332.927C304.066 332.927 304.065 332.927 304.065 332.927C304.065 332.937 304.075 332.937 304.075 332.937C304.085 332.937 304.085 332.937 304.085 332.937L304.095 332.947C304.145 332.996 304.175 333.026 304.225 333.076C304.465 333.306 304.674 333.556 304.884 333.815C304.894 333.825 304.914 333.845 304.944 333.895C305.004 333.975 305.104 334.105 305.144 334.175C305.243 334.344 305.333 334.524 305.443 334.704C305.543 334.883 305.653 335.083 305.763 335.283C304.095 335.462 302.438 335.902 300.851 336.501Z" fill="#21C488"/>
<path d="M309.916 340.314C312.361 340.973 315.156 342.96 314.767 345.825C314.318 349.249 310.764 351.056 307.819 351.945C304.475 352.963 300.811 353.482 297.327 352.933C295.511 351.316 294.103 349.239 293.324 346.933C292.666 345.007 292.436 342.96 292.206 340.933C291.488 334.524 290.769 328.105 290.559 321.666C290.26 312.561 290.968 303.456 290.789 294.362C290.749 292.175 290.639 289.939 289.751 287.952C288.992 286.245 287.524 284.748 285.757 284.308C285.728 284.119 285.698 283.929 285.668 283.739C285.568 283.15 285.079 282.831 284.55 282.781C284.729 282.501 284.979 282.252 285.258 282.072C285.947 281.593 286.806 281.423 287.644 281.303C290.759 280.874 294.103 281.144 296.768 282.811C297.567 283.32 298.296 283.969 298.885 284.718C298.236 284.957 297.707 285.456 297.547 286.195C297.088 288.372 297.088 290.608 296.978 292.824C296.878 295 296.808 297.167 296.758 299.333C296.669 303.596 296.609 307.849 296.579 312.112C296.549 316.365 296.699 320.627 296.738 324.89C296.758 326.977 296.718 329.053 296.689 331.14C296.669 333.356 296.449 335.742 296.878 337.918C296.918 338.118 296.998 338.288 297.088 338.448C296.359 339.406 296.798 341.213 298.236 341.073C300.272 340.883 302.319 340.634 304.335 340.284C306.162 339.965 308.099 339.835 309.916 340.314Z" fill="#21C488"/>
<path d="M297.327 352.933C296.898 352.873 296.479 352.793 296.059 352.694C292.955 351.965 290.1 350.427 288.003 348.001C285.757 345.406 284.989 341.862 284.819 338.527C284.619 334.534 284.959 330.491 285.098 326.498C285.248 322.165 285.438 317.832 285.538 313.489C285.647 308.548 285.757 303.606 285.867 298.664C285.977 293.952 286.446 288.99 285.757 284.308C287.524 284.748 288.992 286.245 289.75 287.952C290.639 289.939 290.749 292.175 290.789 294.361C290.968 303.456 290.26 312.561 290.559 321.666C290.769 328.105 291.487 334.524 292.206 340.933C292.436 342.96 292.665 345.006 293.324 346.933C294.103 349.239 295.51 351.316 297.327 352.933Z" fill="#20A069"/>
<path d="M303.886 332.817C303.946 332.857 304.006 332.907 304.056 332.927C303.956 332.897 303.896 332.847 303.886 332.817Z" fill="black"/>
<path d="M305.144 334.175C305.104 334.105 305.004 333.975 304.944 333.895C304.954 333.895 304.964 333.905 304.974 333.915C304.944 333.885 304.914 333.845 304.884 333.815C304.675 333.556 304.465 333.306 304.225 333.076C304.175 333.026 304.146 332.997 304.096 332.947L304.086 332.937C304.086 332.937 304.086 332.937 304.076 332.937C304.076 332.937 304.066 332.937 304.066 332.927C304.066 332.927 304.066 332.927 304.056 332.927C304.046 332.907 304.036 332.897 304.026 332.887C303.916 332.787 303.886 332.787 303.886 332.817C303.806 332.737 303.726 332.657 303.656 332.617C303.467 332.487 303.267 332.358 303.057 332.248C302.958 332.188 302.848 332.138 302.748 332.088C302.588 332.018 302.438 331.948 302.279 331.878C302.269 331.868 302.259 331.868 302.249 331.858C302.219 331.848 302.189 331.838 302.169 331.819C302.139 331.809 302.109 331.799 302.079 331.789C302.059 331.789 302.039 331.779 302.019 331.769H302.009C301.909 331.729 301.82 331.689 301.72 331.649C301.43 331.549 301.141 331.479 300.851 331.399C300.851 331.439 300.851 331.489 300.851 331.529C300.871 333.166 300.971 334.853 300.851 336.501C302.439 335.902 304.096 335.462 305.763 335.283C305.653 335.083 305.543 334.883 305.443 334.704C305.333 334.524 305.244 334.344 305.144 334.175ZM298.885 284.718C300.212 284.208 302.069 284.748 302.249 286.345C302.498 288.641 302.299 290.937 302.209 293.243C302.129 295.33 302.039 297.416 301.929 299.493C301.72 303.746 301.53 307.999 301.38 312.251C301.231 316.514 300.961 320.757 300.851 325.01C300.831 325.809 300.831 326.597 300.831 327.386C301.241 327.316 301.66 327.316 302.079 327.366C303.387 327.496 304.525 327.835 305.673 328.484C307.48 329.502 309.057 331.21 309.786 333.166C310.035 333.855 310.175 334.684 310.035 335.442C310.884 335.602 311.722 335.852 312.541 336.201C316.564 337.928 319.858 341.762 319.259 346.374C318.191 354.49 308.568 357.825 300.941 357.945L300.901 355.279C299.593 354.69 298.386 353.891 297.327 352.933C300.811 353.482 304.475 352.963 307.819 351.945C310.764 351.056 314.318 349.249 314.767 345.825C315.156 342.96 312.361 340.973 309.916 340.314C308.099 339.835 306.162 339.965 304.335 340.284C302.319 340.634 300.272 340.883 298.236 341.073C296.798 341.213 296.359 339.406 297.088 338.447C296.998 338.288 296.918 338.118 296.878 337.918C296.449 335.742 296.669 333.356 296.688 331.14C296.718 329.053 296.758 326.977 296.738 324.89C296.698 320.627 296.549 316.364 296.579 312.112C296.609 307.849 296.668 303.596 296.758 299.333C296.808 297.167 296.878 295 296.978 292.824C297.088 290.608 297.088 288.371 297.547 286.195C297.707 285.456 298.236 284.957 298.885 284.718Z" fill="black"/>
<path d="M302.249 331.859C302.259 331.869 302.269 331.869 302.279 331.879C302.049 331.799 301.989 331.769 302.009 331.769H302.019C302.039 331.779 302.059 331.789 302.079 331.789C302.139 331.819 302.189 331.839 302.249 331.859Z" fill="black"/>
<path d="M284.2 284.218C284.11 283.709 284.26 283.2 284.549 282.781C285.078 282.831 285.568 283.15 285.667 283.739C285.697 283.929 285.727 284.119 285.757 284.308C285.458 284.228 285.148 284.178 284.829 284.168C284.619 284.158 284.39 284.178 284.26 284.338C284.14 284.498 284.01 284.288 284.2 284.218Z" fill="black"/>
<path d="M284.2 284.218C284.011 284.288 284.14 284.498 284.26 284.338C284.39 284.179 284.619 284.159 284.829 284.169C285.149 284.179 285.458 284.228 285.757 284.308C286.446 288.99 285.977 293.952 285.867 298.664C285.757 303.606 285.648 308.548 285.538 313.489C285.438 317.832 285.248 322.165 285.099 326.498C284.959 330.491 284.619 334.534 284.819 338.527C284.989 341.862 285.757 345.406 288.004 348.001C290.1 350.427 292.955 351.965 296.06 352.694C296.479 352.793 296.898 352.873 297.327 352.933C298.386 353.892 299.593 354.69 300.901 355.279L300.941 357.945C299.783 357.975 298.675 357.915 297.647 357.795C288.962 356.747 281.904 350.837 280.427 342.041C279.678 337.639 279.957 333.126 280.167 328.684C280.407 323.662 280.586 318.631 280.886 313.609C281.175 308.588 281.475 303.566 281.774 298.544C281.924 296.029 282.054 293.513 282.254 291.007C282.453 288.531 282.563 286.075 283.182 283.659C283.342 283.02 283.971 282.731 284.55 282.781C284.26 283.2 284.11 283.709 284.2 284.218Z" fill="black"/>
</svg>
