<svg width="800" height="1000" viewBox="0 0 800 1000" fill="none" xmlns="http://www.w3.org/2000/svg">
<g clip-path="url(#clip0_211_1022)">
<path fill-rule="evenodd" clip-rule="evenodd" d="M0 32.5C0 33.8807 1.11929 35 2.5 35C3.88071 35 5 33.8807 5 32.5V5H32.5C33.8807 5 35 3.88071 35 2.5C35 1.11929 33.8807 0 32.5 0H2.5C1.11929 0 0 1.11929 0 2.5V32.5Z" fill="#21C488"/>
<path fill-rule="evenodd" clip-rule="evenodd" d="M32.5 1000C33.8807 1000 35 998.881 35 997.5C35 996.119 33.8807 995 32.5 995H5L5 967.5C5 966.119 3.88071 965 2.5 965C1.11929 965 0 966.119 0 967.5L0 997.5C0 998.881 1.11929 1000 2.5 1000H32.5Z" fill="#21C488"/>
<path fill-rule="evenodd" clip-rule="evenodd" d="M767.5 0C766.119 0 765 1.11929 765 2.5C765 3.88071 766.119 5 767.5 5L795 5V32.5C795 33.8807 796.119 35 797.5 35C798.881 35 800 33.8807 800 32.5V2.5C800 1.11929 798.881 0 797.5 0L767.5 0Z" fill="#21C488"/>
<path fill-rule="evenodd" clip-rule="evenodd" d="M800 967.5C800 966.119 798.881 965 797.5 965C796.119 965 795 966.119 795 967.5V995H767.5C766.119 995 765 996.119 765 997.5C765 998.881 766.119 1000 767.5 1000H797.5C798.881 1000 800 998.881 800 997.5V967.5Z" fill="#21C488"/>
</g>
<defs>
<clipPath id="clip0_211_1022">
<rect width="800" height="1000" fill="white"/>
</clipPath>
</defs>
</svg>
