<?xml version="1.0" encoding="utf-8"?>
<!-- Generator: Adobe Illustrator 27.5.0, SVG Export Plug-In . SVG Version: 6.00 Build 0)  -->
<!DOCTYPE svg PUBLIC "-//W3C//DTD SVG 1.1//EN" "http://www.w3.org/Graphics/SVG/1.1/DTD/svg11.dtd" [
	<!ENTITY ns_extend "http://ns.adobe.com/Extensibility/1.0/">
	<!ENTITY ns_ai "http://ns.adobe.com/AdobeIllustrator/10.0/">
	<!ENTITY ns_graphs "http://ns.adobe.com/Graphs/1.0/">
	<!ENTITY ns_vars "http://ns.adobe.com/Variables/1.0/">
	<!ENTITY ns_imrep "http://ns.adobe.com/ImageReplacement/1.0/">
	<!ENTITY ns_sfw "http://ns.adobe.com/SaveForWeb/1.0/">
	<!ENTITY ns_custom "http://ns.adobe.com/GenericCustomNamespace/1.0/">
	<!ENTITY ns_adobe_xpath "http://ns.adobe.com/XPath/1.0/">
]>
<svg version="1.1" id="Calque_1" xmlns:x="&ns_extend;" xmlns:i="&ns_ai;" xmlns:graph="&ns_graphs;"
	 xmlns="http://www.w3.org/2000/svg" xmlns:xlink="http://www.w3.org/1999/xlink" x="0px" y="0px" viewBox="0 0 800 1000"
	 enable-background="new 0 0 800 1000" xml:space="preserve">
<metadata>
	<sfw  xmlns="&ns_sfw;">
		<slices></slices>
		<sliceSourceBounds  bottomLeftOrigin="true" height="114" width="174.7" x="489.6" y="-669.6"></sliceSourceBounds>
	</sfw>
</metadata>
<g id="XMLID_00000077286107994748312280000017659369244414568107_">
	<g>
		<path d="M663.1,659.8c-0.1,0.4-0.5,0.8-1.1,1c-0.6,0.2-1.2,0.3-1.8,0.4C661.2,660.8,662.2,660.3,663.1,659.8z"/>
		<path d="M647.1,668.9c-4.4,0.7-8.8,0.8-13.2,0.4c0.3,0,0.7,0,1.1-0.1c1.1-0.1,2.2-0.4,3.3-0.6c1-0.1,1.1-1.6,0-1.7
			c-1.5-0.1-3.1-0.3-4.6-0.5l0.1-0.5c4.6,0.5,9.4,0.4,13.9-0.5c4.4-0.9,8.6-2.4,12.7-4.3c0.6-0.1,1.2-0.2,1.8-0.4
			c0.6-0.2,1-0.5,1.1-1c0.2-0.1,0.4-0.2,0.5-0.3c0.5-0.2,0.9,0.3,0.5,0.7C659.9,665.3,653.6,667.8,647.1,668.9z"/>
		<path d="M638.2,668.6c-1.1,0.1-2.2,0.5-3.3,0.6c-0.4,0-0.7,0.1-1.1,0.1c-2.2-0.2-4.4-0.6-6.5-1.1c-4.4-1-8.6-2.5-12.6-4.4
			c0.2,0.1,0.4,0.1,0.7,0.2c3.7,0.9,7.3,1.6,11.1,2c2,0.2,4,0.3,6.1,0.4c0.3,0,0.7,0,1,0.1c1.5,0.2,3.1,0.4,4.6,0.5
			C639.4,667,639.3,668.5,638.2,668.6z"/>
		<path d="M626.5,666c-3.8-0.4-7.4-1.1-11.1-2c-0.2-0.1-0.5-0.1-0.7-0.2c-19.6-9.3-34.2-27.6-49.5-42.5c-9.2-8.9-19.2-16.9-30-23.8
			c-3-1.9-6-3.7-9.1-5.4c0-1.3,0.1-2.7,0.1-4c4.7,2.5,9.3,5.2,13.7,8.2c10.6,7,20.5,14.9,29.5,23.8c9.5,9.5,18.3,19.7,28.6,28.4
			c9.3,7.9,20.2,14.6,32.3,16.9c1.1,0.2,2.2,0.4,3.3,0.5l-0.1,0.5c-0.3,0-0.7-0.1-1-0.1C630.6,666.2,628.6,666.2,626.5,666z"/>
		<path fill="#CC2E3C" d="M614.8,663.8c-7.1-1.7-14.2-3.9-21.1-6.2c-14.6-4.9-29-10.6-44.3-12.9c-4.2-0.7-8.4-1.1-12.6-0.9
			c-2.2,0.1-4.4,0.1-6.6,0.2c-1.8,0.1-3.7,0.2-5.4,0.9c0.2-9.2,0.5-18.5,0.7-27.7c0.2-8.3,0.4-16.7,0.6-25c3.1,1.7,6.1,3.5,9.1,5.4
			c10.8,6.8,20.8,14.9,30,23.8C580.6,636.1,595.1,654.5,614.8,663.8z"/>
		<path d="M531,562.3c0.8,0,1.4-1,1-1.7c-0.3-0.5-0.7-0.8-1.1-1.1c3.7,1.1,7.1,2.9,10.4,5c5.5,3.5,10.7,7.7,15.7,11.9
			c9.2,7.8,17.8,16.2,25.6,25.3c7.6,8.8,14.7,18,22.5,26.6c7.5,8.2,15.8,15.8,25.6,21.3c4.7,2.6,9.8,4.8,15,6.2
			c2.5,0.7,5.1,1.2,7.7,1.4c2.7,0.3,5.5,0.1,8.2,0.5c1.1,0.2,1.8,1.3,1.5,2.1c-1,0.5-1.9,0.9-2.9,1.4c-2.4,0.4-5,0.2-7.4-0.1
			c-3-0.3-6-0.9-9-1.7c-6-1.6-11.7-4.2-17-7.4c-20-11.9-33.2-31.6-48.3-48.8c-7.9-9.1-16.6-17.5-25.8-25.2c-7.1-6-14.6-11.7-23-15.8
			C530.2,562.3,530.6,562.3,531,562.3z"/>
		<path d="M531.9,560.6c0.5,0.7-0.2,1.7-1,1.7c-0.4,0-0.8,0-1.2-0.2c0,0-0.1,0-0.1,0c-0.9-0.4-1.8-0.9-2.8-1.2c0-0.7,0-1.5,0.1-2.2
			c1.3,0.2,2.6,0.5,3.8,0.9C531.3,559.8,531.6,560.2,531.9,560.6z"/>
		<path fill="#FF3A4B" d="M526.2,588.1c0.2-9,0.5-18,0.7-27c0,0,0.1,0,0.2,0c0.6,0.2,1.2,0.4,1.8,0.6c0.1,0,0.3,0.1,0.4,0.2
			c0,0,0,0,0,0c0.1,0.1,0.2,0.1,0.4,0.2c0,0,0,0,0.1,0c8.4,4.1,15.8,9.8,23,15.8c9.2,7.7,17.9,16.2,25.8,25.2
			c15,17.2,28.2,36.9,48.3,48.8c5.3,3.2,11,5.8,17,7.4c2.9,0.8,5.9,1.4,9,1.7c2.5,0.3,5,0.5,7.4,0.1c-4.1,1.8-8.3,3.4-12.7,4.3
			c-4.5,0.9-9.3,1-13.9,0.5c-1.1-0.1-2.2-0.3-3.3-0.5c-12.1-2.3-23-9.1-32.3-16.9c-10.3-8.7-19.1-18.9-28.6-28.4
			c-9-8.9-18.9-16.9-29.5-23.8C535.5,593.3,530.9,590.6,526.2,588.1z"/>
		<path d="M530.8,559.5c-1.2-0.4-2.5-0.7-3.8-0.9c0-0.3,0-0.6,0-0.9c0.3,0.1,0.6,0.2,0.9,0.4c0.7,0.3,1.5,0.6,2.2,1
			C530.4,559.2,530.6,559.4,530.8,559.5z"/>
		<path d="M526.9,560.9c0.9,0.4,1.9,0.8,2.8,1.2c-0.1,0-0.3-0.1-0.4-0.2c0,0,0,0,0,0c-0.1-0.1-0.3-0.1-0.4-0.2
			c-0.6-0.2-1.2-0.5-1.8-0.6c0,0-0.1,0-0.2,0C526.9,561,526.9,561,526.9,560.9z"/>
		<path d="M527,557.4c0,0.1,0,0.2,0,0.3c-0.3-0.1-0.6-0.2-0.9-0.3c0.2-0.1,0.4-0.1,0.6-0.2C526.8,557.3,526.9,557.4,527,557.4z"/>
		<path d="M527,557.7c0,0.3,0,0.6,0,0.9c-0.3,0-0.5-0.1-0.8-0.1c0-0.4,0-0.7-0.1-1c0,0,0,0,0,0C526.4,557.5,526.7,557.6,527,557.7z"
			/>
		<path d="M527,558.7c0,0.7,0,1.5-0.1,2.2c-0.4-0.2-0.8-0.4-1.3-0.5c0.3-0.6,0.5-1.2,0.5-1.8C526.4,558.6,526.7,558.6,527,558.7z"/>
		<path d="M526.9,560.9c0,0.1,0,0.2,0,0.2c-0.5-0.1-1-0.2-1.5-0.4c0.1-0.1,0.1-0.3,0.2-0.4C526.1,560.5,526.5,560.7,526.9,560.9z"/>
		<path fill="#FF3A4B" d="M526.9,561.1c-0.2,9-0.5,18-0.7,27c-1.5-0.8-3-1.6-4.5-2.3c-0.1-0.1-0.2-0.1-0.4-0.2
			c0.2-6.8,0.3-13.6,0.5-20.4c0.5-0.5,1-0.9,1.4-1.5c0.7-0.8,1.5-1.8,2.1-3C525.9,560.9,526.4,561,526.9,561.1z"/>
		<path d="M530.2,644c2.2-0.2,4.4-0.2,6.6-0.2c4.3-0.2,8.4,0.3,12.6,0.9c15.3,2.3,29.7,8,44.3,12.9c6.9,2.3,14,4.5,21.1,6.2
			c4,1.9,8.1,3.4,12.6,4.4c2.2,0.5,4.3,0.9,6.5,1.1c-0.7,0-1.5,0-2.2,0c-2.2,0-4.4-0.3-6.5-0.5c-4.2-0.5-8.3-1.1-12.4-1.9
			c-14.9-3-29-9.1-43.4-13.6c-7.3-2.3-14.7-4.2-22.2-5.4c-3.7-0.6-7.5-1-11.2-1.3c-2-0.1-4.1,0-6.1,0.1c-1.7,0.1-3.3,0.4-5,0.1
			c0-0.6,0-1.3,0.1-2C526.4,644.2,528.4,644.2,530.2,644z"/>
		<path d="M526.2,588.1c0,1.3-0.1,2.7-0.1,4c-1.6-0.9-3.2-1.7-4.8-2.6c0-1.3,0.1-2.7,0.1-4c0.1,0,0.2,0.1,0.4,0.2
			C523.3,586.5,524.8,587.3,526.2,588.1z"/>
		<path d="M526.1,557.5C526.1,557.5,526.1,557.5,526.1,557.5C526.1,557.5,526.1,557.5,526.1,557.5
			C526.1,557.5,526.1,557.5,526.1,557.5z"/>
		<path d="M524.8,644.9c0,0.6,0,1.3-0.1,2c-0.1,0-0.3-0.1-0.4-0.1c-0.7-0.2-0.8-1.2-0.2-1.5C524.3,645.1,524.6,645,524.8,644.9z"/>
		<path d="M523.7,559.6c-0.6-0.2-0.6-1.2,0.2-1.2c0.8,0,1.5,0.1,2.3,0.2c0,0.6-0.2,1.2-0.5,1.8C525,560.1,524.4,559.8,523.7,559.6z"
			/>
		<path d="M523,558.5c0.1-0.8,0.8-1.2,1.6-1.3c0.4,0,0.9,0.1,1.3,0.2c0,0,0.1,0,0.1,0c0,0,0,0,0,0C525,557.9,524,558.2,523,558.5z"
			/>
		<path d="M523,558.5c1-0.3,2-0.7,3-1c0.1,0.3,0.1,0.7,0.1,1c-0.8-0.1-1.5-0.1-2.3-0.2c-0.7,0-0.8,1-0.2,1.2
			c0.7,0.2,1.3,0.5,1.9,0.7c-0.1,0.1-0.1,0.3-0.2,0.4c-0.1,0-0.2-0.1-0.3-0.1c-0.9-0.3-2.2-0.7-2.1-1.9
			C523,558.7,523,558.6,523,558.5z"/>
		<path d="M523,558.8c-0.1,1.2,1.2,1.5,2.1,1.9c0.1,0,0.2,0.1,0.3,0.1c-0.6,1.1-1.5,2.2-2.1,3c-0.5,0.5-0.9,1-1.4,1.5
			c0-2.1,0.1-4.2,0.2-6.3c0.3-0.1,0.6-0.2,1-0.3C523,558.6,523,558.7,523,558.8z"/>
		<path fill="#FF3A4B" d="M521.9,565.2c-0.2,6.8-0.3,13.6-0.5,20.4c-3.1-1.6-6.2-3-9.4-4.3c-2.4-1-4.9-2.1-7.4-2.7
			c1.1-1.7,1.6-3.8,1.5-5.9c0.2,0,0.5,0,0.7-0.1c1.3-0.2,2.6-0.4,3.9-0.8c2.4-0.8,4.8-1.9,6.9-3.2
			C519.1,567.6,520.6,566.5,521.9,565.2z"/>
		<path d="M521.4,585.6c0,1.3-0.1,2.6-0.1,4c-1-0.5-1.9-1-2.9-1.5c-2.8-1.4-5.6-2.8-8.5-4.1c-1.6-0.7-3.1-1.4-4.7-2.1
			c-0.9-0.4-1.7-0.8-2.5-1.4c0.7-0.6,1.4-1.2,1.9-2c2.5,0.6,5,1.7,7.4,2.7C515.2,582.6,518.3,584,521.4,585.6z"/>
		<path d="M519.9,648.2c0.3-13.2,0.6-26.4,1-39.6c0.2-6.3,0.3-12.6,0.5-19c1.6,0.8,3.2,1.7,4.8,2.6c-0.2,8.3-0.4,16.7-0.6,25
			c-0.2,9.2-0.5,18.5-0.7,27.7c-0.2,0.1-0.4,0.2-0.7,0.3c-0.6,0.4-0.5,1.3,0.2,1.5c0.1,0,0.3,0.1,0.4,0.1c0,0.2,0,0.3,0,0.5
			c-0.1,0-0.2,0-0.2,0.1c-0.9,0.4-2.2,0.9-3.2,0.9c0.5-0.1,0.9-0.1,1-0.1c-0.1,0-0.4,0-0.7,0.1c-0.4,0-0.8,0.1-1.2,0.1
			C520.2,648.3,520,648.2,519.9,648.2z"/>
		<path d="M523,558.5c-0.3,0.1-0.6,0.2-1,0.3c0,2.1-0.1,4.2-0.2,6.3c-1.3,1.3-2.8,2.5-4.4,3.5c-2.1,1.4-4.5,2.5-6.9,3.2
			c-1.2,0.4-2.6,0.6-3.9,0.8c-0.2,0-0.5,0.1-0.7,0.1c0-0.3,0-0.5-0.1-0.8c-0.2-0.9-0.5-1.7-0.9-2.5c0.3-0.1,0.6-0.2,0.9-0.3
			c1-0.3,2-0.6,3-1c2-0.8,3.8-1.6,5.6-2.7c1.8-1.1,3.4-2.4,4.8-3.9c0.7-0.7,1.5-1.5,2-2.4c0.5-0.9,0.8-1.9,1.3-2.8
			c0.6-0.9,1.6-1,2.4-0.3c0.5,0.4,0.8,0.9,1,1.5c0,0-0.1,0-0.1,0c-0.4-0.1-0.9-0.2-1.3-0.2C523.8,557.3,523.2,557.8,523,558.5z"/>
		<path d="M503.3,572c-0.3-0.4-0.4-0.7-0.1-1.1c0.3-0.7,1.1-1.1,1.9-1.3c0.4,0.8,0.8,1.6,0.9,2.5c0.1,0.3,0.1,0.5,0.1,0.8
			C505.1,572.8,503.9,572.8,503.3,572z"/>
		<path d="M504.6,578.6c-0.5,0.8-1.1,1.4-1.9,2c-0.4-0.3-0.9-0.6-1.3-0.9c-0.6-0.5-0.1-1.5,0.6-1.4
			C502.9,578.3,503.8,578.4,504.6,578.6z"/>
		<path fill="#FFD53F" d="M495.8,569.3c0.6-0.3,1.3-0.4,2-0.6c0.3-0.1,0.6-0.2,0.9-0.2c0,0,0.1,0,0.1,0c0.5,0.3,1,0.6,1.5,0.9
			c0.3,0.2,0.8,0.7,1.1,1.1c0.3,0.3,0.7,1.1,0.9,1.4c0.4,1.2,0.5,2.1,0.1,3.3c-0.2,0.7-0.3,0.9-0.7,1.5c-0.2,0.3-0.2,0.2-0.4,0.5
			c-0.1,0.1-0.2,0.2-0.3,0.3c0,0-0.2,0.2-0.3,0.3c-1,0.7-2.1,1.1-3.2,1.1c-1.2,0-2.3-0.3-3.3-1c-1.9-1.5-2.3-4.3-1.2-6.3
			C493.6,570.5,494.6,569.8,495.8,569.3z"/>
		<path d="M502,578.2c-0.7,0-1.2,1-0.6,1.4c0.4,0.3,0.9,0.7,1.3,0.9c-0.4,0.3-0.8,0.5-1.2,0.8c-3.3,1.6-7.7,0.8-10-2.1
			c-2.3-2.9-2.5-7.1-0.3-10c1-1.4,2.6-2.4,4.3-2.7c0.4-0.1,0.9-0.1,1.3-0.1c0-0.1,0.1-0.1,0.1-0.1c0,0,0.1,0,0.2-0.1
			c0,0,0.1-0.1,0.2-0.2c0.2-0.2,0.5-0.3,0.7-0.4c0.5-0.1,1.1-0.1,1.6-0.1c1.1,0.1,2.1,0.6,3,1.2c1,0.7,1.9,1.7,2.5,2.7
			c-0.8,0.2-1.5,0.6-1.9,1.3c-0.2,0.4-0.1,0.8,0.1,1.1c0.6,0.8,1.7,0.9,2.7,0.8c0.2,2-0.3,4.2-1.5,5.9
			C503.8,578.4,502.9,578.3,502,578.2z M493,571.6c-1.1,2-0.6,4.9,1.2,6.3c1,0.8,2.1,1.1,3.3,1c1.1,0,2.3-0.4,3.2-1.1
			c0.1-0.1,0.2-0.2,0.3-0.3c0.1-0.1,0.2-0.2,0.3-0.3c0.2-0.3,0.2-0.2,0.4-0.5c0.4-0.6,0.5-0.9,0.7-1.5c0.4-1.2,0.3-2.1-0.1-3.3
			c-0.1-0.4-0.6-1.1-0.9-1.4c-0.4-0.4-0.9-0.9-1.1-1.1c-0.5-0.3-1-0.6-1.5-0.9c0,0-0.1,0-0.1,0c-0.3,0-0.6,0.2-0.9,0.2
			c-0.7,0.2-1.4,0.3-2,0.6C494.6,569.8,493.6,570.5,493,571.6z"/>
	</g>
	<g>
	</g>
</g>
</svg>
