<svg width="800" height="1000" viewBox="0 0 800 1000" fill="none" xmlns="http://www.w3.org/2000/svg">
<path fill-rule="evenodd" clip-rule="evenodd" d="M158.116 186.442C203.598 124.63 275.911 96.5535 284.497 102.871C287.476 105.063 279.68 109.114 266.329 116.053C241.203 129.112 196.401 152.396 166.701 192.759C136.941 233.204 128.318 282.679 123.507 310.28C120.965 324.861 119.488 333.338 116.52 331.154C107.935 324.837 112.634 248.253 158.116 186.442ZM534.596 767.896C565.596 767.896 686.596 637.379 686.596 484.396C686.596 331.413 565.596 202.896 534.596 202.896C523.88 202.896 535.03 218.252 554.21 244.666C590.516 294.668 655.596 384.294 655.596 484.396C655.596 584.294 590.781 674.613 554.432 725.265C535.116 752.181 523.839 767.896 534.596 767.896ZM399.425 765.896C524.242 765.896 625.425 641.879 625.425 488.896C625.425 335.913 524.242 211.896 399.425 211.896C274.609 211.896 173.425 335.913 173.425 488.896C173.425 641.879 274.609 765.896 399.425 765.896ZM173.724 689.972C102.333 579.325 129.123 428.343 151.591 413.846C159.387 408.816 158.547 425.456 157.109 453.956C154.401 507.589 149.574 603.223 196.193 675.476C242.906 747.876 331.899 782.266 381.547 801.452C407.775 811.587 423.022 817.479 415.256 822.49C392.788 836.987 245.116 800.619 173.724 689.972ZM294.556 859.514C302.964 879.643 420.351 922.889 519.48 881.486C618.609 840.083 669.07 726.733 660.663 706.604C657.757 699.646 650.83 711.042 638.916 730.645C616.363 767.752 575.936 834.266 511.073 861.357C446.341 888.393 370.239 870.751 327.56 860.856C304.881 855.599 291.639 852.529 294.556 859.514ZM484.171 123.612C482.645 116.685 412.75 103.731 337.805 120.238C262.86 136.746 205.856 177.652 207.382 184.579C207.909 186.974 214.883 182.825 226.879 175.689C249.587 162.181 290.292 137.967 339.331 127.166C388.27 116.386 435.707 121.123 462.31 123.78C476.446 125.192 484.7 126.016 484.171 123.612Z" fill="#DFF1F5"/>
</svg>
