<?xml version="1.0" encoding="utf-8"?>
<!-- Generator: Adobe Illustrator 27.5.0, SVG Export Plug-In . SVG Version: 6.00 Build 0)  -->
<!DOCTYPE svg PUBLIC "-//W3C//DTD SVG 1.1//EN" "http://www.w3.org/Graphics/SVG/1.1/DTD/svg11.dtd" [
	<!ENTITY ns_extend "http://ns.adobe.com/Extensibility/1.0/">
	<!ENTITY ns_ai "http://ns.adobe.com/AdobeIllustrator/10.0/">
	<!ENTITY ns_graphs "http://ns.adobe.com/Graphs/1.0/">
	<!ENTITY ns_vars "http://ns.adobe.com/Variables/1.0/">
	<!ENTITY ns_imrep "http://ns.adobe.com/ImageReplacement/1.0/">
	<!ENTITY ns_sfw "http://ns.adobe.com/SaveForWeb/1.0/">
	<!ENTITY ns_custom "http://ns.adobe.com/GenericCustomNamespace/1.0/">
	<!ENTITY ns_adobe_xpath "http://ns.adobe.com/XPath/1.0/">
]>
<svg version="1.1" id="Calque_1" xmlns:x="&ns_extend;" xmlns:i="&ns_ai;" xmlns:graph="&ns_graphs;"
	 xmlns="http://www.w3.org/2000/svg" xmlns:xlink="http://www.w3.org/1999/xlink" x="0px" y="0px" viewBox="0 0 800 1000"
	 enable-background="new 0 0 800 1000" xml:space="preserve">
<metadata>
	<sfw  xmlns="&ns_sfw;">
		<slices></slices>
		<sliceSourceBounds  bottomLeftOrigin="true" height="34.6" width="31.6" x="360.4" y="-610.1"></sliceSourceBounds>
	</sfw>
</metadata>
<g id="XMLID_00000170241257090783552280000015365863655616223120_">
	<g>
		<path d="M364.6,585.9c-1.5,3.8-1.9,8.1-1.2,12.1c0.6,3.2,2.1,8.5,6.2,8.6c1.6,0,2.8-1.2,3.4-2.6c0.4-0.9,0.6-1.9,0.6-2.9
			c0.1-1.1,0-2.2,0.9-3c0.6-0.5,1.3-0.6,1.9-0.3c-0.2,0.1-0.4,0.2-0.5,0.2h0.9c0,0,0.1,0,0.1,0.1c0.8,0.7,0.9,1.7,0.9,2.8
			c1.3-0.3,2.7-0.3,4-0.3c1.1,0,2.2,0.2,3.3,0.5c1.2,0.3,2.9,0.8,3.4,2c0.3,0.6,0.3,1.3,0,1.8c-0.2,0.4-0.6,0.8-1.1,0.9
			c-0.7,0.2-1.4,0-2.1-0.2c-0.3-0.1-0.5-0.2-0.8-0.3c0,0-0.5-0.2-0.5-0.2c-0.9-0.3-1.8-0.7-2.7-1c-1.3-0.4-2.6-0.5-3.9-0.7
			c-0.3,1.3-0.8,2.5-1.6,3.6c-1.8,2.4-4.5,3.6-7.5,2.9c-5.5-1.4-7.2-7.5-7.8-12.4c-0.7-5.4,0.1-11,2.3-16c0.9-2.2,2.6-4.3,4.8-5.3
			c2.5-1.2,5.3-0.7,7.4,1c2.5,2.1,3.5,5.5,3.1,8.7c0.1,0.1,0.2,0.1,0.3,0.2c0.1,0,0.6,0.4,0.8,0.5c0,0,0,0,0,0l0,0
			c0.2,0.2,0.5,0.3,0.7,0.5c1,0.6,2,1.2,2.9,1.5c1.2,0.4,2.4,0.8,3.7,1c0.7,0.1,1.4,0.2,2.1,0.3c0.1,0,0.2,0,0.3,0
			c0.2,0.2,0.6,0.7,1.1,1.4c-0.4,0.3-0.8,0.6-1.2,0.8c-0.7,0.4-1.5,0.6-2.3,0.8c-1.6,0.3-3.4,0.3-5-0.2c-1.4-0.4-2.9-1-4.1-1.9
			c-0.2-0.2-0.5-0.4-0.7-0.6c-0.4,0.7-0.8,1.3-1.2,1.8c-0.8,0.9-2.1,0.1-2.2-0.9c-0.1-2.6,1-5.1,0.6-7.6c-0.2-1.5-1-3.2-2.5-3.8
			C368.4,578.5,365.5,583.6,364.6,585.9z"/>
		<path fill="#20A069" d="M388.8,604.9c0.2-0.5,0.2-1.2,0-1.8c-0.5-1.2-2.2-1.7-3.4-2c-1.1-0.3-2.2-0.4-3.3-0.5
			c-1.3-0.1-2.7,0-4,0.3c0-1.1-0.1-2.1-0.9-2.8c0,0-0.1-0.1-0.1-0.1h8.1c1.5,0.4,3.9,0.6,7,0c-0.2,3.9-2.5,6.5-3,7L388.8,604.9z"/>
		<path fill="#21C488" d="M385,598h7C388.9,598.6,386.5,598.4,385,598z"/>
		<path fill="#21C488" d="M376.9,598H376c0.2-0.1,0.3-0.2,0.5-0.2C376.7,597.8,376.8,597.9,376.9,598z"/>
		<path fill="#21C488" d="M392,597c0,0.3,0,0.7,0,1h-7c-1.8-0.4-3-1.1-5-1c-1.4,0-2.6,0.4-3.5,0.8c-0.6-0.3-1.3-0.2-1.9,0.3
			c-0.9,0.8-0.8,1.8-0.9,3c-0.1,1-0.3,2-0.6,2.9c-0.6,1.4-1.8,2.6-3.4,2.6c-4.1,0-5.7-5.3-6.2-8.6c-0.7-4-0.3-8.3,1.2-12.1
			c0.9-2.3,3.8-7.4,7-6.1c1.4,0.6,2.3,2.3,2.5,3.8c0.3,2.6-0.8,5.1-0.6,7.6c0.1,1,1.4,1.8,2.2,0.9c0.5-0.6,0.9-1.2,1.2-1.8
			c0.2,0.2,0.5,0.4,0.7,0.6c1.2,0.9,2.7,1.5,4.1,1.9c1.6,0.4,3.4,0.5,5,0.2c0.8-0.1,1.5-0.4,2.3-0.8c0.4-0.2,0.8-0.5,1.2-0.8
			C390.9,592.6,391.9,594.5,392,597z M370.7,593c0.1-1,0.1-2.1,0.1-3.1c0-1.1-0.2-2.2-0.1-3.2c0.1-1.6-2.2-2.2-2.9-0.8
			c-1.2,2.2-1.6,4.9-1.6,7.4c0,1.4,0.1,2.8,0.3,4.2c0.1,0.3,0.1,0.7,0.2,1c0.1,0.4,0.2,0.6,0.5,1c0,0.1,0.1,0.1,0.1,0.1
			c0.1,0.4,0.4,0.7,0.9,0.8c0.7,0.2,1.5-0.2,1.7-1C370.3,597.3,370.5,595.2,370.7,593z"/>
		<path fill="#20A069" d="M385,598h-8.1c-0.1-0.1-0.3-0.2-0.4-0.2c0.9-0.4,2-0.7,3.5-0.8C382,596.9,383.2,597.6,385,598z"/>
		<path d="M389,590c0.6,0.1,1.1,0.2,1.7,0.1c0.4,0,0.5,0.5,0.2,0.7c-0.3,0.2-0.5,0.4-0.8,0.6C389.6,590.7,389.2,590.2,389,590z"/>
		<path d="M369.8,599.4c-0.2,0.7-1,1.2-1.7,1c-0.5-0.1-0.7-0.5-0.9-0.8c-0.1,0-0.1-0.1-0.1-0.1c-0.3-0.3-0.4-0.5-0.5-1
			c-0.1-0.3-0.1-0.7-0.2-1c-0.2-1.4-0.3-2.8-0.3-4.2c0-2.5,0.4-5.2,1.6-7.4c0.8-1.4,3-0.8,2.9,0.8c0,1.1,0.1,2.1,0.1,3.2
			c0,1,0,2.1-0.1,3.1C370.5,595.2,370.3,597.3,369.8,599.4z"/>
	</g>
	<g>
	</g>
</g>
</svg>
