<?xml version="1.0" encoding="utf-8"?>
<!-- Generator: Adobe Illustrator 27.5.0, SVG Export Plug-In . SVG Version: 6.00 Build 0)  -->
<!DOCTYPE svg PUBLIC "-//W3C//DTD SVG 1.1//EN" "http://www.w3.org/Graphics/SVG/1.1/DTD/svg11.dtd" [
	<!ENTITY ns_extend "http://ns.adobe.com/Extensibility/1.0/">
	<!ENTITY ns_ai "http://ns.adobe.com/AdobeIllustrator/10.0/">
	<!ENTITY ns_graphs "http://ns.adobe.com/Graphs/1.0/">
	<!ENTITY ns_vars "http://ns.adobe.com/Variables/1.0/">
	<!ENTITY ns_imrep "http://ns.adobe.com/ImageReplacement/1.0/">
	<!ENTITY ns_sfw "http://ns.adobe.com/SaveForWeb/1.0/">
	<!ENTITY ns_custom "http://ns.adobe.com/GenericCustomNamespace/1.0/">
	<!ENTITY ns_adobe_xpath "http://ns.adobe.com/XPath/1.0/">
]>
<svg version="1.1" id="Calque_1" xmlns:x="&ns_extend;" xmlns:i="&ns_ai;" xmlns:graph="&ns_graphs;"
	 xmlns="http://www.w3.org/2000/svg" xmlns:xlink="http://www.w3.org/1999/xlink" x="0px" y="0px" viewBox="0 0 800 1000"
	 enable-background="new 0 0 800 1000" xml:space="preserve">
<metadata>
	<sfw  xmlns="&ns_sfw;">
		<slices></slices>
		<sliceSourceBounds  bottomLeftOrigin="true" height="31.9" width="43.3" x="362.5" y="-615.4"></sliceSourceBounds>
	</sfw>
</metadata>
<g id="heeeey_00000165926873113957392320000008411897691338176908_">
	<g>
		<path d="M403.5,584c1.2,0,2.3,1,2.3,2.3c0,6.4-0.5,13.2-3.9,18.9c-5.8,9.9-19,13.3-28.8,7.2c-4.6-2.8-7.7-7.3-9.3-12.4
			c-0.8-2.4-1.1-5-1.3-7.5c-0.1-2.6-0.1-5.5,1.4-7.7c0.1-0.2,0.4-0.4,0.6-0.5c0.4-0.4,0.9-0.7,1.6-0.7
			C378.6,583.6,391,583.8,403.5,584z M401.2,588.5c-1.8,0-3.5,0-5.2,0c0,0.2,0.1,0.4,0.1,0.6c-0.1,1.9-0.7,3.7-1.3,5.5
			c-0.5,1.5-0.9,3.1-2.6,3.7c-1.5,0.5-3.6,0.2-5.2,0.2c-1,0-1.9-0.1-2.9-0.1c-0.8,0-1.6,0-2.3-0.1c-1.7,0-3.5-0.1-5.2-0.2
			c-1.6-0.1-3.5-0.2-4.8-1.4c-1.1-1-1.3-2.6-1.6-4c-0.3-1.4-0.6-3-0.6-4.5c-1,0-2,0-2.9,0c0,1.5,0,3.1,0.1,4.6
			c0.2,2.4,0.7,4.8,1.6,7.1c0.6,1.6,1.5,3.1,2.5,4.4c0.6-0.7,1.5-1.1,2.2-1.6c1-0.6,2.1-1.1,3.3-1.4c2.2-0.7,4.5-1,6.8-1
			c0.3,0,0.6,0,0.9,0c4.4,0.2,9,1.6,12.5,4.2c0.1,0.1,0.1,0.1,0.2,0.2c1-1.3,1.9-2.7,2.5-4.2C400.7,596.8,401.1,592.6,401.2,588.5z
			 M390.9,591.6c0.2-1.1,0.5-2.1,1-3.1c-6.4,0-12.8-0.1-19.2-0.2c0.6,1.5,1,3.2,1.4,4.7c0,0.2,0.1,0.4,0.2,0.6c0.2,0,0.5,0,0.8,0
			c1.1,0,2.3,0,3.4,0l6.6,0.1c1.1,0,2.1,0,3.2,0.1c0.6,0,1.4,0.2,2.1,0.2c0-0.2,0.1-0.4,0.1-0.6
			C390.6,592.8,390.8,592.2,390.9,591.6z M389.8,609.8c1.4-0.5,2.7-1.3,3.9-2.2c-1.7-1-3.3-1.9-5.1-2.5c-1.9-0.6-3.8-0.9-5.7-0.9
			c-2,0-3.8,0.4-5.7,0.9c-0.9,0.3-1.8,0.5-2.7,0.9c-0.5,0.2-1,0.5-1.4,0.7C377.5,610.6,383.8,612.1,389.8,609.8z"/>
		<path fill="#F4D0E9" d="M393.7,607.7c-1.2,0.9-2.5,1.7-3.9,2.2c-5.9,2.3-12.3,0.8-16.8-3.1c0.5-0.2,0.9-0.4,1.4-0.7
			c0.9-0.4,1.8-0.6,2.7-0.9c1.9-0.5,3.7-0.9,5.7-0.9c2,0,3.9,0.3,5.7,0.9C390.4,605.7,392,606.7,393.7,607.7z"/>
		<path fill="#353B3F" d="M396.4,604.6c-3.5-2.7-8.1-4.1-12.5-4.2l0.1-2c1,0,1.9,0.1,2.9,0.1c1.6,0.1,3.7,0.4,5.2-0.2
			c1.7-0.6,2.1-2.2,2.6-3.7c0.6-1.8,1.2-3.6,1.3-5.5c0-0.2,0-0.4-0.1-0.6c1.8,0,3.5,0,5.2,0c-0.1,4.1-0.5,8.3-2.1,12.2
			c-0.6,1.5-1.5,2.9-2.5,4.2C396.5,604.7,396.5,604.7,396.4,604.6z"/>
		<path fill="#FFFFFF" d="M374.3,593.6c-0.1-0.2-0.1-0.4-0.2-0.6c-0.4-1.5-0.8-3.2-1.4-4.7c6.4,0.1,12.8,0.1,19.2,0.2
			c-0.4,1-0.7,2.1-1,3.1c-0.1,0.6-0.2,1.2-0.4,1.8c0,0.2-0.1,0.4-0.1,0.6c-0.7,0-1.5-0.1-2.1-0.2c-1.1,0-2.1,0-3.2-0.1l-6.6-0.1
			c-1.1,0-2.3-0.1-3.4,0C374.9,593.6,374.6,593.6,374.3,593.6z"/>
		<path fill="#353B3F" d="M381.7,598.2c0.8,0,1.6,0,2.3,0.1l-0.1,2c-0.3,0-0.6,0-0.9,0c-2.3,0-4.6,0.3-6.8,1
			c-1.1,0.4-2.2,0.9-3.3,1.4c-0.8,0.4-1.6,0.9-2.2,1.6c-1-1.3-1.9-2.8-2.5-4.4c-0.9-2.3-1.4-4.7-1.6-7.1c-0.1-1.5,0-3.1-0.1-4.6
			c1,0,1.9,0,2.9,0c0,1.5,0.3,3.1,0.6,4.5c0.3,1.4,0.5,3,1.6,4c1.3,1.2,3.2,1.3,4.8,1.4C378.2,598.1,379.9,598.2,381.7,598.2z"/>
	</g>
	<g>
	</g>
</g>
</svg>
