<?xml version="1.0" encoding="utf-8"?>
<!-- Generator: Adobe Illustrator 27.5.0, SVG Export Plug-In . SVG Version: 6.00 Build 0)  -->
<!DOCTYPE svg PUBLIC "-//W3C//DTD SVG 1.1//EN" "http://www.w3.org/Graphics/SVG/1.1/DTD/svg11.dtd" [
	<!ENTITY ns_extend "http://ns.adobe.com/Extensibility/1.0/">
	<!ENTITY ns_ai "http://ns.adobe.com/AdobeIllustrator/10.0/">
	<!ENTITY ns_graphs "http://ns.adobe.com/Graphs/1.0/">
	<!ENTITY ns_vars "http://ns.adobe.com/Variables/1.0/">
	<!ENTITY ns_imrep "http://ns.adobe.com/ImageReplacement/1.0/">
	<!ENTITY ns_sfw "http://ns.adobe.com/SaveForWeb/1.0/">
	<!ENTITY ns_custom "http://ns.adobe.com/GenericCustomNamespace/1.0/">
	<!ENTITY ns_adobe_xpath "http://ns.adobe.com/XPath/1.0/">
]>
<svg version="1.1" id="Calque_1" xmlns:x="&ns_extend;" xmlns:i="&ns_ai;" xmlns:graph="&ns_graphs;"
	 xmlns="http://www.w3.org/2000/svg" xmlns:xlink="http://www.w3.org/1999/xlink" x="0px" y="0px" viewBox="0 0 800 1000"
	 enable-background="new 0 0 800 1000" xml:space="preserve">
<metadata>
	<sfw  xmlns="&ns_sfw;">
		<slices></slices>
		<sliceSourceBounds  bottomLeftOrigin="true" height="23.3" width="52.8" x="355.7" y="-611.5"></sliceSourceBounds>
	</sfw>
</metadata>
<g id="XMLID_00000074409027264401995620000015303826483896159121_">
	<g>
		<path fill="#D3D3D3" d="M399.4,608.3c-0.1,0-0.2,0-0.3-0.1c0,0-0.1-0.1-0.1-0.1c0,0,0-0.1,0-0.1c-0.1-0.3,0,0.1-0.1-0.3
			c0-0.1,0-0.1,0-0.1c0,0,0,0,0-0.1c0-0.1-0.1-0.2-0.1-0.4c-0.1-0.3-0.2-0.6-0.3-0.9c-0.2-0.6-0.3-1.2-0.4-1.8
			c-0.3-1.3-0.4-2.6-0.6-4c-0.1-0.3-0.1-0.9-0.2-1.5c0,0,0.1-0.1,0.1-0.1c0.3,0.3,0.5,0.6,0.9,0.8c0.5,0.3,1,0.5,1.5,0.8
			c1,0.6,1.9,1.2,2.8,1.8c0.8,0.6,1.6,1.3,2.4,2c0.3,0.3,0.5,0.5,0.7,0.9c0.1,0.2,0,0.3-0.1,0.5c-0.6,0.7-1.5,1.2-2.5,1.7
			c-0.9,0.4-1.9,0.8-2.9,1c0,0-0.1,0-0.1,0c-0.1,0-0.2,0-0.4,0C399.5,608.3,399.4,608.3,399.4,608.3z"/>
		<path d="M399.1,608.2c0.1,0,0.2,0.1,0.3,0.1c0,0,0,0,0.1,0c0.1,0,0.2,0,0.4,0c0,0,0.1,0,0.1,0c1-0.2,2-0.5,2.9-1
			c0.9-0.5,1.8-0.9,2.5-1.7c0.1-0.2,0.2-0.3,0.1-0.5c-0.2-0.3-0.4-0.6-0.7-0.9c-0.8-0.7-1.6-1.4-2.4-2c-0.9-0.7-1.9-1.3-2.8-1.8
			c-0.5-0.3-1-0.5-1.5-0.8c-0.3-0.2-0.6-0.5-0.9-0.8c0.4-0.5,0.7-1.1,0.8-1.8c0.6,0,1.2,0.1,1.7,0.4c0.7,0.3,1.3,0.7,2,1.1
			c1.3,0.8,2.6,1.7,3.8,2.7c0.9,0.8,2.1,1.7,2.6,2.8c0.7,1.4,0.3,3-0.8,4.1c-0.9,1-2.2,1.6-3.4,2.2c-1.3,0.6-2.7,1.1-4.1,1.2
			c-1.6,0.2-3-0.5-3.9-1.9c-0.7-1.2-0.9-2.7-1.1-4c-0.2-1.5-0.5-3-0.4-4.4c0-0.4,0.1-0.9,0.1-1.3c0.8-0.1,1.5-0.3,2.1-0.7
			c0.1-0.1,0.2-0.1,0.3-0.2c0.1,0.6,0.1,1.2,0.2,1.5c0.2,1.3,0.4,2.6,0.6,4c0.1,0.6,0.3,1.2,0.4,1.8c0.1,0.3,0.2,0.6,0.3,0.9
			c0,0.1,0.1,0.2,0.1,0.4c0,0,0,0.1,0,0.1c0,0,0,0.1,0,0.1c0.2,0.4,0,0,0.1,0.3c0,0.1,0,0.1,0,0.1
			C399,608.1,399.1,608.2,399.1,608.2z"/>
		<path d="M397.2,598.8c0,0-0.1,0.1-0.1,0.1c0-0.1-0.1-0.2-0.1-0.4C397.1,598.6,397.1,598.7,397.2,598.8z"/>
		<path d="M397.4,597c0.2,0,0.4,0,0.6,0c-0.1,0.7-0.4,1.3-0.8,1.8c-0.1-0.1-0.1-0.2-0.2-0.2c0,0.1,0.1,0.2,0.1,0.4
			c-0.1,0.1-0.2,0.2-0.3,0.2c-0.6,0.4-1.3,0.6-2.1,0.7c0-0.4,0.1-0.7,0.2-1.1c0.1-0.6,0.3-1.3,0.9-1.5c0.4-0.1,0.6,0,0.8,0.4
			C396.7,597.3,397,597,397.4,597z"/>
		<path d="M397.2,594.3c-0.5,0.2-0.9,0.3-1.4,0.4c0-0.5,0-0.9,0-1.4c0.5,0,1,0.1,1.5,0.3C397.5,593.7,397.5,594.2,397.2,594.3z"/>
		<path d="M394.6,590.5c-0.2-0.8,0.5-1.6,1.4-1.4c0.1,0,0.2,0,0.2,0.1c0.7,0.8,0.4,2.4-1,2.4c0,0-0.1,0-0.1,0
			C394.9,591.3,394.8,590.9,394.6,590.5z"/>
		<path fill="#D3D3D3" d="M392.4,594.8c1.1,0,2.3,0,3.4-0.1c0,0.5-0.1,1-0.2,1.4c-0.2,1-0.8,0.8-1.7,0.8c-0.7,0-1.4,0-2.2-0.1
			c0-0.3,0-0.6,0-1c0-0.3,0-0.7,0.1-1C392,594.8,392.2,594.8,392.4,594.8z"/>
		<path d="M392.4,594.8c-0.2,0-0.4,0-0.5,0c0-0.2,0-0.5,0-0.8c0-0.2,0-0.5,0-0.7c0.2,0,0.5,0,0.7,0c1,0,2.1-0.1,3.1,0
			c0,0.4,0.1,0.9,0,1.4C394.6,594.8,393.5,594.8,392.4,594.8z"/>
		<path d="M391,594.1c0-0.3-0.1-0.5-0.1-0.8c0.3,0,0.7,0,1,0c0,0.2,0,0.5,0,0.7c0,0.2,0,0.5,0,0.8c-0.3,0-0.5,0-0.8,0
			C391,594.6,391,594.3,391,594.1z"/>
		<path fill="#D3D3D3" d="M391.7,591.6c1.1,0,2.2,0,3.4,0c0.2,0.4,0.5,0.8,0.5,1.3c0,0.1,0,0.2,0.1,0.3c-1-0.1-2.1,0-3.1,0
			c-0.2,0-0.5,0-0.7,0c0,0,0-0.1,0-0.1c0-0.3-0.1-0.6-0.1-0.9C391.7,592.1,391.8,591.8,391.7,591.6z"/>
		<path d="M391.2,596.7c-0.1-0.3-0.1-0.6-0.1-0.9c0-0.3,0-0.7-0.1-1c0.3,0,0.5,0,0.8,0c0,0.3,0,0.7-0.1,1c0,0.3,0,0.6,0,1
			C391.5,596.7,391.4,596.7,391.2,596.7z"/>
		<path d="M391.2,596.7c0.2,0,0.4,0,0.6,0c0,0.2-0.1,0.4-0.2,0.6c0,0.1-0.2,0.1-0.2,0C391.3,597.1,391.2,596.9,391.2,596.7z"/>
		<path d="M391.7,591.4c0,0.1,0,0.1,0,0.2c-0.3,0-0.5,0-0.8,0c0,0,0,0,0,0c0-0.3,0.1-0.5,0.3-0.7c0,0,0.1-0.1,0.2,0
			C391.6,591,391.7,591.2,391.7,591.4z"/>
		<path d="M391,592.4c0-0.3,0-0.5,0-0.8c0.3,0,0.5,0,0.8,0c0,0.2,0,0.5,0,0.7c0,0.3,0.1,0.6,0.1,0.9c0,0,0,0.1,0,0.1
			c-0.3,0-0.7,0-1,0c0,0,0,0,0,0C390.9,593,391,592.7,391,592.4z"/>
		<path fill="#D3D3D3" d="M387.7,595.5c0-0.2,0-0.4,0-0.7c1.1,0,2.2,0,3.3-0.1c0,0.3,0.1,0.6,0.1,1c0,0.3,0,0.6,0.1,0.9
			c-0.3,0-0.5,0-0.8,0c-1,0-1.9,0-2.9-0.1c0-0.1,0.1-0.1,0.1-0.2C387.7,596.1,387.7,595.8,387.7,595.5z"/>
		<path d="M391,594.1c0,0.2,0,0.5,0.1,0.7c-1.1,0-2.2,0-3.3,0.1c0-0.4,0-0.7,0-1.1c0-0.1,0-0.3-0.1-0.4c1.1,0,2.2,0,3.3,0
			C390.9,593.6,390.9,593.8,391,594.1z"/>
		<path fill="#D3D3D3" d="M387.6,591.6c1.1,0,2.2,0,3.4,0c0,0.3,0.1,0.5,0,0.8c0,0.3-0.1,0.6-0.1,0.9c0,0,0,0,0,0
			c-1.1,0-2.2,0-3.3,0h0c0-0.2-0.1-0.3-0.1-0.5c0-0.3,0-0.6,0-0.9C387.6,591.9,387.6,591.7,387.6,591.6z"/>
		<path d="M387.5,596.6c-0.1,0.1-0.2,0.3-0.4,0.4c-0.1,0.1-0.1,0.1-0.2,0c-0.1-0.1-0.2-0.3-0.3-0.4
			C386.9,596.6,387.2,596.6,387.5,596.6z"/>
		<path d="M387.3,590.5c0.3,0.3,0.3,0.7,0.3,1c-0.3,0-0.6,0-1,0c0-0.4,0.1-0.7,0.4-1C387.1,590.5,387.2,590.5,387.3,590.5z"/>
		<path d="M387.1,594.9c-0.2,0-0.5,0-0.7,0c0-0.4,0-0.7,0-1.1c0-0.1,0-0.3,0.1-0.4c0.4,0,0.7,0,1.1,0h0c0,0.1,0.1,0.3,0.1,0.4
			c0,0.3,0,0.7,0,1.1C387.5,594.9,387.3,594.9,387.1,594.9z"/>
		<path d="M387.6,593.4c-0.4,0-0.7,0-1.1,0c0,0,0,0,0-0.1c0-0.1,0.1-0.3,0.1-0.4c0-0.3,0-0.6,0-0.9c0-0.2,0-0.3,0-0.5
			c0.3,0,0.6,0,1,0c0,0.1,0,0.3,0,0.5c0,0.3-0.1,0.6,0,0.9C387.5,593.1,387.6,593.2,387.6,593.4z"/>
		<path d="M387.5,596.6c-0.3,0-0.6,0-0.9,0c-0.1-0.1-0.1-0.1-0.1-0.2c-0.1-0.3-0.1-0.6-0.1-0.9c0-0.2,0-0.4,0-0.6c0.2,0,0.4,0,0.7,0
			c0.2,0,0.4,0,0.6,0c0,0.2,0,0.4,0,0.7c0,0.3,0,0.6-0.1,0.9C387.6,596.5,387.6,596.6,387.5,596.6z"/>
		<path d="M386.5,594.9c-1.2,0-2.4,0-3.5,0c0-0.2,0-0.4,0-0.6c0-0.3,0-0.6,0-0.9c1.2,0,2.4,0,3.6,0c0,0.1,0,0.3-0.1,0.4
			C386.5,594.1,386.5,594.5,386.5,594.9z"/>
		<path fill="#D3D3D3" d="M386.7,592.9c0,0.1-0.1,0.3-0.1,0.4c0,0,0,0,0,0.1c-1.2,0-2.4,0-3.6,0c0-0.2,0-0.4,0-0.5
			c0-0.4,0-0.9,0-1.3c1.2,0,2.5,0,3.7,0c0,0.1,0,0.3,0,0.5C386.7,592.3,386.7,592.6,386.7,592.9z"/>
		<path d="M381.9,591.3c0.1-0.5,0.9-0.5,1,0c0,0.1,0,0.2,0,0.3c-0.4,0-0.7,0-1.1,0C381.9,591.5,381.9,591.4,381.9,591.3z"/>
		<path fill="#D3D3D3" d="M386.6,596.6c-1.3,0-2.6,0-4,0c0,0,0,0,0,0c0.1-0.2,0.1-0.5,0.1-0.7c0-0.3,0.1-0.6,0.1-0.9
			c1.2,0,2.4,0,3.5,0c0,0.2,0,0.4,0,0.6c0,0.3,0,0.6,0.1,0.9C386.5,596.5,386.6,596.6,386.6,596.6z"/>
		<path d="M382.9,594.9c-0.3,0-0.7,0-1,0c0-0.2,0-0.4,0-0.5c0-0.3,0-0.6,0-0.9c0.4,0,0.8,0,1.1,0c0,0.3,0,0.6,0,0.9
			C382.9,594.5,382.9,594.7,382.9,594.9z"/>
		<path d="M382.1,596.6c0.2,0,0.4,0,0.6,0c-0.1,0.2-0.1,0.4-0.2,0.7c0,0.1-0.2,0.1-0.2,0C382.3,597,382.2,596.8,382.1,596.6z"/>
		<path d="M382,595.8c0-0.3-0.1-0.6-0.1-0.9c0.3,0,0.7,0,1,0c0,0.3-0.1,0.6-0.1,0.9c0,0.2,0,0.5-0.1,0.7c0,0,0,0,0,0
			c-0.2,0-0.4,0-0.6,0c0,0,0-0.1,0-0.1C382,596.3,382,596.1,382,595.8z"/>
		<path d="M381.9,594.3c0,0.2,0,0.4,0,0.5c-1.4,0-2.7,0-4.1-0.1c0-0.2,0.1-0.5,0.1-0.7c0-0.2,0.1-0.4,0.1-0.6c1.3,0,2.6-0.1,3.9-0.1
			C381.9,593.7,381.9,594,381.9,594.3z"/>
		<path d="M383,591.5c0.1,0.4,0,0.9,0,1.3c0,0.2,0,0.4,0,0.5c-0.4,0-0.7,0-1.1,0c0-0.2,0-0.4,0-0.6c0-0.4,0-0.9,0-1.3
			C382.2,591.5,382.6,591.5,383,591.5z"/>
		<path fill="#D3D3D3" d="M382.1,596.6c-1.5,0-3,0-4.6,0c0.1-0.6,0.2-1.2,0.3-1.8c1.4,0,2.7,0.1,4.1,0.1c0,0.3,0,0.6,0.1,0.9
			c0,0.2,0,0.5,0.1,0.7C382.1,596.5,382.1,596.6,382.1,596.6z"/>
		<path fill="#D3D3D3" d="M381.9,593.4c-1.3,0-2.6,0-3.9,0.1c0-0.4,0-0.8,0.1-1.1c0-0.3,0-0.5,0-0.8c0,0,0,0,0,0c1.3,0,2.6,0,3.8,0
			c-0.1,0.4,0,0.9,0,1.3C381.8,593,381.8,593.2,381.9,593.4z"/>
		<path d="M377.5,596.7c0,0.3-0.1,0.6-0.1,0.9c0,0.1-0.2,0.1-0.2,0c0-0.3,0-0.5-0.1-0.8c0,0,0,0,0,0
			C377.3,596.7,377.4,596.7,377.5,596.7z"/>
		<path d="M377.2,590.7c0.1-0.3,0.5-0.3,0.6,0c0.1,0.3,0.2,0.6,0.2,0.9c-0.4,0-0.7,0-1.1,0c0,0,0,0,0,0
			C377,591.2,377.1,590.9,377.2,590.7z"/>
		<path d="M377.2,594.8c0.2,0,0.4,0,0.7,0c-0.1,0.6-0.2,1.2-0.3,1.8c-0.1,0-0.2,0-0.4,0c0,0,0,0,0,0c-0.1-0.6-0.1-1.2-0.2-1.9
			C377,594.8,377.1,594.8,377.2,594.8z"/>
		<path d="M376.9,593.5c0.2,0,0.4,0,0.6,0c0.2,0,0.4,0,0.6,0c0,0.2,0,0.4-0.1,0.6c0,0.2-0.1,0.5-0.1,0.7c-0.2,0-0.4,0-0.7,0
			c-0.1,0-0.1,0-0.2,0c0-0.2,0-0.5-0.1-0.7C376.9,593.9,376.9,593.7,376.9,593.5z"/>
		<path d="M377.4,593.5c-0.2,0-0.4,0-0.6,0c0-0.4,0-0.8,0-1.2c0-0.3,0-0.6,0.1-0.9c0.4,0,0.7,0,1.1,0h0c0,0,0,0,0,0
			c0.1,0.3,0,0.6,0,0.8c0,0.4,0,0.8-0.1,1.1C377.8,593.5,377.6,593.5,377.4,593.5z"/>
		<path d="M377,594.8c-1.5,0-2.9-0.1-4.4,0c0-0.4,0-0.8,0-1.2c0,0,0,0,0-0.1c1.4,0,2.9,0,4.3,0c0,0.2,0,0.3,0,0.5
			C376.9,594.3,376.9,594.5,377,594.8z"/>
		<path fill="#D3D3D3" d="M372.6,594.8c1.5,0,2.9,0,4.4,0c0,0.6,0.1,1.2,0.2,1.9c-1.5,0-3.1,0-4.6,0.1c0-0.4,0.1-0.7,0.1-1.1
			C372.6,595.4,372.6,595.1,372.6,594.8z"/>
		<path d="M371.8,596.1c-0.1-0.4-0.1-0.9-0.1-1.3c0.3,0,0.6,0,1,0c0,0.3,0,0.6,0,0.9c0,0.4,0,0.7-0.1,1.1v0c-0.2,0-0.5,0-0.7,0
			C371.8,596.5,371.8,596.3,371.8,596.1z"/>
		<path fill="#D3D3D3" d="M376.9,593.5c-1.4,0-2.9,0-4.3,0c0-0.7,0-1.4-0.1-2v0c0.8,0,1.6,0,2.5,0c0.6,0,1.3,0,1.9,0
			c-0.1,0.3-0.1,0.6-0.1,0.9C376.9,592.8,376.9,593.2,376.9,593.5z"/>
		<path d="M372.6,593.6c0,0.4,0,0.8,0,1.2c-0.3,0-0.6,0-1,0c0-0.2,0-0.4,0-0.5c0-0.2,0-0.5,0-0.7
			C371.9,593.5,372.3,593.5,372.6,593.6C372.6,593.5,372.6,593.6,372.6,593.6z"/>
		<path d="M371.9,596.8c0.2,0,0.5,0,0.7,0c0,0.4-0.1,0.7-0.1,1.1c0,0.2-0.4,0.3-0.4,0C372,597.5,371.9,597.1,371.9,596.8z"/>
		<path d="M372.5,591.5c0.1,0.7,0.1,1.3,0.1,2c-0.3,0-0.6,0-0.9,0c0-0.7,0-1.3,0.1-2C372,591.5,372.2,591.5,372.5,591.5L372.5,591.5
			z"/>
		<path d="M372.5,591.5c-0.3,0-0.5,0-0.8,0c0-0.3,0.1-0.6,0.2-0.9c0-0.1,0.1-0.2,0.2-0.2C372.5,590.3,372.5,591.2,372.5,591.5z"/>
		<path fill="#D3D3D3" d="M367.4,594.8c1.4,0,2.8,0,4.2,0c0,0.4,0,0.9,0.1,1.3c0,0.2,0.1,0.5,0.1,0.7c-1.5,0-3,0-4.4,0
			C367.5,596.1,367.5,595.4,367.4,594.8z"/>
		<path d="M367.4,594.8c0,0.7,0,1.3,0,2c-0.2,0-0.3,0-0.5,0c-0.1-0.7-0.1-1.3-0.2-2C367,594.8,367.2,594.8,367.4,594.8z"/>
		<path d="M367.4,596.7c0,0.3,0,0.6-0.1,1c0,0.1-0.2,0.2-0.2,0c-0.1-0.3-0.1-0.7-0.2-1C367.1,596.7,367.3,596.8,367.4,596.7z"/>
		<path d="M367.4,593.4c1.4,0,2.8,0.1,4.3,0.1c0,0.2,0,0.5,0,0.7c0,0.2,0,0.4,0,0.5c-1.4,0-2.8,0-4.2,0c0-0.4,0-0.7,0-1.1
			C367.4,593.6,367.4,593.5,367.4,593.4z"/>
		<path d="M366.8,593.8c0-0.2,0-0.3,0-0.5c0.2,0,0.4,0,0.6,0c0,0.1,0,0.2,0,0.3c0,0.4,0,0.7,0,1.1c-0.2,0-0.4,0-0.6,0
			C366.8,594.4,366.8,594.1,366.8,593.8z"/>
		<path fill="#D3D3D3" d="M367.3,591.5c1.5,0,3,0,4.4,0c-0.1,0.7-0.1,1.3-0.1,2c-1.4,0-2.9-0.1-4.3-0.1c0-0.5,0-1.1-0.1-1.6
			C367.3,591.7,367.3,591.6,367.3,591.5z"/>
		<path d="M366.7,591.9c0-0.1,0-0.2-0.1-0.4c0.2,0,0.5,0,0.7,0c0,0.1,0,0.2,0,0.3c0,0.6,0,1.1,0.1,1.6c-0.2,0-0.4,0-0.6,0
			C366.7,592.9,366.7,592.4,366.7,591.9z"/>
		<path d="M366.9,590.5c0.4,0,0.4,0.6,0.4,1c-0.2,0-0.5,0-0.7,0C366.6,591,366.6,590.5,366.9,590.5z"/>
		<path d="M366.8,594.8c-1.5,0-3,0-4.6-0.2c0-0.3,0-0.7,0-1.1c0-0.1,0-0.1,0-0.2c1.5,0,3,0,4.4,0c0,0.2,0,0.3,0,0.5
			C366.8,594.1,366.8,594.4,366.8,594.8z"/>
		<path fill="#D3D3D3" d="M367,596.7c-1,0-2,0-2.9-0.1c-0.6,0-1.3,0-1.9-0.1c0-0.7,0.1-1.3,0.1-2c1.5,0.1,3,0.2,4.6,0.2
			C366.8,595.4,366.9,596.1,367,596.7z"/>
		<path fill="#D3D3D3" d="M362.5,591.4c0.8,0,1.5,0,2.3,0c0.6,0,1.2,0,1.9,0c0,0.2,0,0.3,0.1,0.4c0,0.5,0,1,0.1,1.5
			c-1.5,0-3,0-4.4,0c0-0.5,0.1-1.1,0.1-1.7C362.4,591.6,362.5,591.5,362.5,591.4z"/>
		<path d="M362.4,591.7c-0.1,0.5-0.1,1.1-0.1,1.7c-0.3,0-0.7,0-1,0c0-0.6-0.1-1.1-0.1-1.7c0-0.1,0-0.2,0-0.3c0.4,0,0.9,0,1.3,0
			C362.5,591.5,362.4,591.6,362.4,591.7z"/>
		<path d="M362.3,593.5c0,0.4,0,0.7,0,1.1c-0.3,0-0.6,0-0.8-0.1c0-0.3-0.1-0.6-0.1-0.9c0-0.1,0-0.2,0-0.2c0.3,0,0.7,0,1,0
			C362.3,593.4,362.3,593.5,362.3,593.5z"/>
		<path d="M361.4,594.5c0.3,0,0.6,0,0.8,0.1c0,0.7-0.1,1.3-0.1,2c-0.1,0-0.2,0-0.4,0C361.6,595.9,361.5,595.2,361.4,594.5z"/>
		<path d="M362.1,597.3c0,0.1-0.1,0.1-0.1,0c-0.1-0.2-0.1-0.5-0.2-0.8c0.1,0,0.2,0,0.4,0C362.1,596.8,362.1,597.1,362.1,597.3z"/>
		<path d="M358.4,594.2c0-0.2,0-0.4,0-0.6c1-0.1,2-0.2,2.9-0.2c0,0.1,0,0.2,0,0.2c0,0.3,0,0.6,0.1,0.9
			C360.4,594.5,359.4,594.3,358.4,594.2z"/>
		<path d="M362,590.1c0.2,0.2,0.4,0.3,0.5,0.6c0.1,0.2,0,0.5,0,0.7c-0.4,0-0.9,0-1.3,0c0-0.2,0-0.5,0-0.7c0.1-0.3,0.3-0.5,0.5-0.6
			C361.8,590,361.9,590,362,590.1z"/>
		<path d="M363.5,588.3c3.5,0,7,0.1,10.5,0.2c7.1,0.1,14.2,0.2,21.2,0.3c0.5,0,0.8,0.2,1,0.5c-0.1,0-0.1-0.1-0.2-0.1
			c-0.8-0.2-1.6,0.5-1.4,1.4c0.1,0.4,0.3,0.8,0.5,1.1c-1.1,0-2.2,0-3.4,0c0-0.1,0-0.1,0-0.2c0-0.2-0.2-0.4-0.3-0.6
			c-0.1-0.1-0.2,0-0.2,0c-0.2,0.2-0.3,0.4-0.3,0.7c0,0,0,0,0,0c-1.1,0-2.2,0-3.4,0c0-0.4,0-0.7-0.3-1c-0.1-0.1-0.2-0.1-0.3,0
			c-0.3,0.3-0.4,0.6-0.4,1c-1.2,0-2.4,0-3.7,0c0-0.1,0-0.2,0-0.3c-0.1-0.5-0.9-0.5-1,0c0,0.1,0,0.2,0,0.2c-1.3,0-2.6,0-3.8,0h0
			c-0.1-0.3-0.1-0.6-0.2-0.9c-0.1-0.3-0.5-0.3-0.6,0c-0.1,0.3-0.2,0.5-0.3,0.8c0,0,0,0,0,0c-0.6,0-1.3,0-1.9,0c-0.8,0-1.7,0-2.5,0
			c0-0.3,0-1.2-0.5-1.1c-0.1,0-0.1,0.1-0.2,0.2c-0.1,0.3-0.1,0.6-0.2,0.9c-1.5,0-3,0-4.4,0c0-0.4,0-1-0.4-1c-0.3,0-0.3,0.6-0.3,1
			c-0.6,0-1.2,0-1.9,0c-0.8,0-1.5,0-2.3,0c0-0.2,0.1-0.5,0-0.7c-0.1-0.3-0.2-0.4-0.5-0.6c-0.1,0-0.2,0-0.3,0
			c-0.3,0.2-0.4,0.3-0.5,0.6c-0.1,0.2-0.1,0.4,0,0.7c-0.5,0-0.9,0-1.4-0.1c-0.4,0-0.9-0.1-1.4-0.1c0-0.4,0-0.8,0-1.2
			c0-0.9-0.9-1.2-1.5-0.9C358.2,588.1,362.9,588.3,363.5,588.3z"/>
		<path fill="#D3D3D3" d="M361.3,593.4c-1,0-2,0.1-2.9,0.2c0-0.1,0-0.3,0-0.4c0-0.7,0-1.3,0-2c0.5,0.1,1,0.1,1.4,0.1
			c0.5,0,0.9,0,1.4,0.1c0,0.1,0,0.2,0,0.3C361.2,592.2,361.3,592.8,361.3,593.4z"/>
		<path fill="#D3D3D3" d="M360.6,596.5c-0.5,0-2.1,0.1-2.3-0.3c-0.2-0.2,0.1-1.2,0.1-1.5c0-0.2,0-0.4,0-0.6c1,0.2,2,0.3,3,0.4
			c0.1,0.7,0.2,1.4,0.4,2.1C361.4,596.6,361,596.5,360.6,596.5z"/>
		<path d="M358.4,593.6c0,0.2,0,0.4,0,0.6c-0.4,0-0.8-0.1-1.1-0.2c-0.2,0-0.1-0.3,0-0.3C357.6,593.6,358,593.6,358.4,593.6z"/>
		<path d="M358.3,589.9c0,0.4,0,0.8,0,1.2c-0.8-0.1-1.5-0.4-1.8-1.2c-0.2-0.4,0-0.7,0.3-0.9C357.4,588.7,358.2,589,358.3,589.9z"/>
		<path d="M358.1,599c-1.5-0.4-2.3-1.4-2.4-3c-0.1-2,0.2-4.2,0.5-6.2c0.1-0.5,0.3-0.8,0.6-0.9c-0.4,0.2-0.5,0.5-0.3,0.9
			c0.3,0.8,1.1,1.1,1.8,1.2c0,0.7,0,1.3,0,2c0,0.1,0,0.3,0,0.4c-0.4,0-0.7,0.1-1.1,0.1c-0.2,0-0.2,0.3,0,0.3
			c0.4,0.1,0.8,0.1,1.1,0.2c0,0.2,0,0.4,0,0.6c0,0.3-0.3,1.2-0.1,1.5c0.3,0.4,1.8,0.2,2.3,0.3c0.4,0,0.8,0,1.2,0.1
			c0.1,0.2,0.1,0.5,0.2,0.8c0,0.1,0.1,0.1,0.1,0c0-0.2,0-0.5,0-0.7c0.6,0,1.3,0.1,1.9,0.1c1,0,2,0.1,2.9,0.1c0,0.3,0.1,0.7,0.2,1
			c0,0.1,0.2,0.1,0.2,0c0-0.3,0.1-0.6,0.1-1c1.5,0,3,0,4.4,0c0.1,0.4,0.1,0.8,0.2,1.1c0,0.2,0.4,0.2,0.4,0c0-0.4,0-0.7,0.1-1.1v0
			c1.5,0,3.1,0,4.6-0.1c0,0.3,0,0.5,0.1,0.8c0,0.1,0.2,0.2,0.2,0c0-0.3,0.1-0.6,0.1-0.9c1.5,0,3,0,4.6,0c0.1,0.2,0.2,0.4,0.2,0.7
			c0,0.1,0.2,0.1,0.2,0c0.1-0.2,0.1-0.4,0.2-0.7c1.3,0,2.6,0,4,0c0.1,0.2,0.2,0.3,0.3,0.4c0.1,0.1,0.1,0.1,0.2,0
			c0.1-0.1,0.2-0.3,0.4-0.4c1,0,1.9,0,2.9,0.1c0.3,0,0.5,0,0.8,0c0,0.2,0.1,0.4,0.2,0.6c0,0.1,0.2,0.1,0.2,0
			c0.1-0.2,0.1-0.4,0.2-0.6c0.7,0,1.4,0,2.2,0.1c0.8,0,1.5,0.2,1.7-0.8c0.1-0.4,0.1-0.9,0.2-1.4c0.5-0.1,1-0.2,1.4-0.4
			c0.3-0.1,0.4-0.6,0-0.7c-0.5-0.2-1-0.3-1.5-0.3c0-0.1,0-0.2-0.1-0.3c-0.1-0.5-0.3-0.9-0.5-1.3c0,0,0.1,0,0.1,0
			c1.4,0,1.7-1.6,1-2.4c1.8,0.7,2.2,3.3,2.1,4.9c0,0.9,0,1.9-0.3,2.9c-0.2,0-0.4,0-0.6,0c-0.4,0-0.7,0.3-0.8,0.6
			c-0.2-0.3-0.5-0.5-0.8-0.4c-0.7,0.2-0.8,0.9-0.9,1.5c-0.1,0.4-0.2,0.7-0.2,1.1c-1.2,0.1-2.5,0-3.6,0c-2.2,0-4.5,0-6.7,0
			c-4.4,0-8.8-0.2-13.2-0.3c-2.2,0-4.5,0-6.7,0C362.4,599.6,360.1,599.6,358.1,599z"/>
	</g>
	<g>
	</g>
</g>
</svg>
