<?xml version="1.0" encoding="utf-8"?>
<!-- Generator: Adobe Illustrator 27.5.0, SVG Export Plug-In . SVG Version: 6.00 Build 0)  -->
<!DOCTYPE svg PUBLIC "-//W3C//DTD SVG 1.1//EN" "http://www.w3.org/Graphics/SVG/1.1/DTD/svg11.dtd" [
	<!ENTITY ns_extend "http://ns.adobe.com/Extensibility/1.0/">
	<!ENTITY ns_ai "http://ns.adobe.com/AdobeIllustrator/10.0/">
	<!ENTITY ns_graphs "http://ns.adobe.com/Graphs/1.0/">
	<!ENTITY ns_vars "http://ns.adobe.com/Variables/1.0/">
	<!ENTITY ns_imrep "http://ns.adobe.com/ImageReplacement/1.0/">
	<!ENTITY ns_sfw "http://ns.adobe.com/SaveForWeb/1.0/">
	<!ENTITY ns_custom "http://ns.adobe.com/GenericCustomNamespace/1.0/">
	<!ENTITY ns_adobe_xpath "http://ns.adobe.com/XPath/1.0/">
]>
<svg version="1.1" id="Calque_1" xmlns:x="&ns_extend;" xmlns:i="&ns_ai;" xmlns:graph="&ns_graphs;"
	 xmlns="http://www.w3.org/2000/svg" xmlns:xlink="http://www.w3.org/1999/xlink" x="0px" y="0px" viewBox="0 0 800 1000"
	 enable-background="new 0 0 800 1000" xml:space="preserve">
<metadata>
	<sfw  xmlns="&ns_sfw;">
		<slices></slices>
		<sliceSourceBounds  bottomLeftOrigin="true" height="23.5" width="34.9" x="367.1" y="-613"></sliceSourceBounds>
	</sfw>
</metadata>
<g id="XMLID_00000067232258421649892050000010317614008666321078_">
	<g>
		<path d="M400.3,608.2c1.1,0.3,1.9,1.4,1.8,2.5c-0.2,1.3-1.2,2-2.4,2.1c-0.4,0-0.9,0.1-1.3,0.1c-0.9,0.1-1.9,0.1-2.8,0
			c-0.6,0-1.3-0.1-1.9-0.2c-2.1,0.2-4.3-0.1-6.3-0.2c-2.3-0.1-4.6-0.2-6.9-0.2c-2.3-0.1-4.6-0.2-6.9-0.4c-1.8-0.2-5-0.1-6.2-1.7
			c-0.2-0.3-0.1-0.8,0.1-1c1.2-1.4,4.6-1.2,6.3-1.3c1.1-0.1,2.3-0.1,3.4-0.1c-0.7-2-0.9-4.2-1.3-6.3c-0.5-3.1-1-6.3-1.1-9.5
			c-0.1-1.3,1.1-2.3,2.3-2.3c3.7-0.1,7.4-0.3,11,0.1c3.8,0.4,7.5,1,11.1,1.9c1.2,0.3,2,1.7,1.6,2.9c-0.8,2.5-1.5,5-2.3,7.5
			c-0.6,2-1.1,4-1.7,6c0.6,0,1.1,0,1.7,0C399.1,608.2,399.8,608.1,400.3,608.2z M394.1,600.9c0.5-1.7,1-3.4,1.5-5.2
			c-2.6-0.5-5.2-0.9-7.9-1.2c-2.6-0.2-5.3-0.4-8-0.4c0.3,2.1,0.6,4.3,1,6.4c0.4,2.4,1,4.8,1.1,7.2c2,0,4,0,6,0c1.4,0,2.9-0.1,4.4,0
			C392.7,605.5,393.5,603.2,394.1,600.9z"/>
		<path fill="#FFFFFF" d="M395.6,595.7c-0.5,1.7-1,3.4-1.5,5.2c-0.7,2.3-1.4,4.6-2,6.9c-1.5,0-3,0.1-4.4,0c-2,0-4,0-6,0
			c-0.1-2.4-0.7-4.8-1.1-7.2c-0.4-2.1-0.7-4.2-1-6.4c2.7,0,5.3,0.2,8,0.4C390.3,594.8,393,595.2,395.6,595.7z"/>
	</g>
	<g>
	</g>
</g>
</svg>
