<?xml version="1.0" encoding="utf-8"?>
<!-- Generator: Adobe Illustrator 27.5.0, SVG Export Plug-In . SVG Version: 6.00 Build 0)  -->
<!DOCTYPE svg PUBLIC "-//W3C//DTD SVG 1.1//EN" "http://www.w3.org/Graphics/SVG/1.1/DTD/svg11.dtd" [
	<!ENTITY ns_extend "http://ns.adobe.com/Extensibility/1.0/">
	<!ENTITY ns_ai "http://ns.adobe.com/AdobeIllustrator/10.0/">
	<!ENTITY ns_graphs "http://ns.adobe.com/Graphs/1.0/">
	<!ENTITY ns_vars "http://ns.adobe.com/Variables/1.0/">
	<!ENTITY ns_imrep "http://ns.adobe.com/ImageReplacement/1.0/">
	<!ENTITY ns_sfw "http://ns.adobe.com/SaveForWeb/1.0/">
	<!ENTITY ns_custom "http://ns.adobe.com/GenericCustomNamespace/1.0/">
	<!ENTITY ns_adobe_xpath "http://ns.adobe.com/XPath/1.0/">
]>
<svg version="1.1" id="Calque_1" xmlns:x="&ns_extend;" xmlns:i="&ns_ai;" xmlns:graph="&ns_graphs;"
	 xmlns="http://www.w3.org/2000/svg" xmlns:xlink="http://www.w3.org/1999/xlink" x="0px" y="0px" viewBox="0 0 800 1000"
	 enable-background="new 0 0 800 1000" xml:space="preserve">
<metadata>
	<sfw  xmlns="&ns_sfw;">
		<slices></slices>
		<sliceSourceBounds  bottomLeftOrigin="true" height="57.4" width="30.1" x="369.3" y="-635.4"></sliceSourceBounds>
	</sfw>
</metadata>
<g>
	<g>
		<g id="XMLID_00000158000021937272836930000015866532322492731271_">
			<g>
				<path fill="#D5EEFF" d="M394.5,610.6c1.1,0.4,1.5,1.4,1.8,2.6c0.4,1.7,0.7,3.3,0.7,5c0,0.7,0,2.1-0.8,2.5
					c-0.7,0.4-1.1-0.7-1.3-1.2c-0.7-1.6-1.1-3.2-1.5-4.9c-0.1-0.6-0.2-1.1-0.4-1.7c0-0.4-0.2-0.8-0.5-1.1c-0.1-0.2-0.3-0.3-0.5-0.4
					c0.6-0.3,1.2-0.7,1.8-1.1C394,610.3,394.2,610.4,394.5,610.6C394.5,610.5,394.5,610.6,394.5,610.6z"/>
				<path d="M391,610.9C391,610.9,391,610.9,391,610.9L391,610.9C391,610.9,391,610.9,391,610.9z"/>
				<path d="M391,610.9L391,610.9C390.9,610.9,390.9,610.9,391,610.9C390.9,610.9,390.9,610.9,391,610.9z"/>
				<path fill="#353B3F" d="M384.9,593.8c2.2-1.1,2.7-3.5,2.5-5.7c-0.1-1.4-0.5-2.8-0.8-4.2c-0.1-0.4-0.2-0.8-0.3-1.2
					c2.8,2,4.1,6.1,4.8,9.4c0.6,3,1,6,1.3,9c0.1,1.3,0.3,2.7,0.2,4c0,0.6-0.2,1-0.4,1.4c-0.1,0-0.2,0-0.4-0.1
					c-2.1-0.3-4.2-0.5-6.3-0.5c-2.1,0-4.2,0.2-6.3,0.6c-1.4,0.3-3.2,0.6-4.5,1.3c-0.4-2.7-1.2-5.2-1.3-7.9c-0.1-2.7-0.2-5.5,0.2-8.1
					c0.1-0.6,0.2-1.1,0.4-1.7c0.1,0.4,0.2,0.8,0.3,1.2c0.2,1,0.4,2.1,1.1,2.9c0.8,1,1.9,1.4,3.2,1.3c1.1-0.1,2.2-0.4,3.3-0.7
					C382.9,594.6,384,594.3,384.9,593.8z"/>
				<path d="M389.3,613.2C389.3,613.2,389.3,613.2,389.3,613.2C389.3,613.2,389.2,613.2,389.3,613.2c-0.1,0-0.1,0-0.1,0
					c-0.1,0-0.2,0-0.2,0l-0.2-0.7c1-0.3,2.2-0.7,3.2-1.2c0.2,0.1,0.4,0.2,0.5,0.4c0.3,0.4,0.5,0.7,0.5,1.1c0.2,0.6,0.3,1.1,0.4,1.7
					c0.4,1.7,0.9,3.3,1.5,4.9c0.2,0.6,0.6,1.6,1.3,1.2c0.8-0.4,0.8-1.7,0.8-2.5c0-1.7-0.2-3.4-0.7-5c-0.3-1.2-0.7-2.2-1.8-2.6
					c0,0,0,0,0,0c-0.2-0.1-0.5-0.2-0.7-0.3c1-0.7,1.7-1.7,2.1-2.8c0.4,0.2,0.8,0.4,1.1,0.7c1.5,1.2,2.1,3,2.3,4.9
					c0.3,1.9,0.2,4,0.1,5.9c-0.1,1.6-0.4,3.4-1.9,4.4c-3.7,2.3-5.5-3-6.3-5.5c-0.3-0.9-0.5-1.9-0.7-2.8c-0.1-0.5-0.2-1.3-0.6-1.8
					C389.7,613.2,389.5,613.2,389.3,613.2C389.3,613.2,389.3,613.2,389.3,613.2z"/>
				<path d="M395.7,607.3c-1.1-0.5-2.3-0.7-3.4-0.9c0.3-0.4,0.4-0.8,0.4-1.4c0.1-1.3-0.1-2.7-0.2-4c-0.3-3-0.7-6-1.3-9
					c-0.7-3.2-2-7.4-4.8-9.4c-0.1-0.2-0.1-0.5-0.2-0.8c-0.2-0.7-0.3-1.5-0.7-2.1c-0.3-0.4-0.7-0.7-1.2-0.7l0.2-1
					c0.8,0.1,1.5,0.4,2.3,0.7c6.6,2.9,7.9,11.1,8.7,17.5c0.2,2.1,0.4,4.1,0.6,6.2c0.2,1.5,0.4,3.1,0,4.6c0,0.1-0.1,0.3-0.1,0.4
					C395.8,607.4,395.7,607.4,395.7,607.3z"/>
				<path d="M386.3,611.7c0.3-0.3,0.7-0.5,1.1-0.7c0.6-0.3,1.4-0.5,2.1-0.5c0.5,0.1,0.9,0.2,1.3,0.4c0.1,0,0.1,0.1,0.2,0.1
					c0,0,0,0,0,0c0,0,0,0,0,0s0,0,0,0h0l0,0c0.1,0,0.2,0.1,0.2,0.1c0,0,0.1,0,0.1,0h0c0.1,0,0.6,0.2,0.6,0.2c0,0,0,0,0,0
					c-1,0.5-2.2,0.9-3.2,1.2c-0.1,0-0.2,0.1-0.3,0.1c-1.1,0.3-2.2,0.5-3.3,0.7C385.4,612.7,385.8,612.2,386.3,611.7
					C386.2,611.7,386.2,611.7,386.3,611.7z"/>
				<path fill="#D5EEFF" d="M385.1,613.3C385.1,613.3,385.1,613.3,385.1,613.3c-1,2-1.5,4-1.6,6.1l-2.5-0.1c0-1.6-0.2-3.1-0.8-4.7
					c-0.1-0.4-0.3-0.7-0.5-1.1C381.5,613.7,383.3,613.6,385.1,613.3z"/>
				<path fill="#D5EEFF" d="M380.1,626c0.5-2.2,0.9-4.4,0.9-6.6l2.5,0.1c0,1.2,0.1,2.4,0.4,3.6c0.6,2.5,2.5,7.7-0.9,9.2
					c-1.2,0.5-2.2-0.3-2.7-1.3C379.5,629.4,379.8,627.5,380.1,626z"/>
				<path d="M382.6,580.2c0.2-0.8,0.9-1.2,1.6-1.1c0.5,0,0.9,0.3,1.2,0.7c0.4,0.6,0.5,1.4,0.7,2.1c0.1,0.2,0.1,0.5,0.2,0.8
					c-1-0.7-2.3-1.1-3.8-1.1C382.5,581.1,382.5,580.6,382.6,580.2z"/>
				<path d="M379.4,612.9c0.1,0.2,0.3,0.5,0.4,0.7c0,0-0.1,0-0.1,0c0,0,0,0,0-0.1c0-0.1-0.1-0.1-0.1-0.2c0,0,0-0.1,0-0.1
					c0,0,0,0,0,0c0,0,0-0.1,0-0.1C379.4,613.1,379.4,613,379.4,612.9z"/>
				<path fill="#D5EEFF" d="M391.9,611.3c0,0-0.5-0.2-0.6-0.2h0c0,0-0.1,0-0.1,0c0,0-0.1-0.1-0.2-0.1l0,0h0c0,0,0,0,0,0s0,0,0,0
					c0,0,0,0,0,0c-0.1,0-0.1-0.1-0.2-0.1c-0.4-0.2-0.8-0.3-1.3-0.4c-0.7-0.1-1.5,0.1-2.1,0.5c-0.4,0.2-0.8,0.4-1.1,0.7
					c0,0,0,0-0.1,0c-0.4,0.5-0.9,1.1-1.1,1.6c-1.8,0.3-3.6,0.4-5.3,0.3c-0.1-0.2-0.2-0.5-0.4-0.7c0,0,0,0,0,0
					c-0.1-0.2-0.2-0.4-0.3-0.7c-0.1-0.3-0.3-0.5-0.5-0.8c-0.2-0.2-0.3-0.5-0.5-0.7c-0.1-0.1-0.1-0.1-0.2-0.2c0.2,0,0.3-0.1,0.5-0.1
					c0.1-0.1,0.2-0.2,0.4-0.2c2.7-0.4,5.4-0.6,8.1-0.6c1.4,0,2.8-0.1,4.1,0.1c0.9,0.1,1.8,0.2,2.7,0.5
					C393.2,610.7,392.6,611,391.9,611.3C391.9,611.3,391.9,611.3,391.9,611.3z"/>
				<path fill="#FFFFFF" d="M378.1,592c-0.1-0.4-0.3-0.6-0.4-1.1c-0.4-1.2-0.8-2.3-1.1-3.5c-0.2-0.6-0.4-1.2-0.6-1.7c0,0,0,0,0,0
					c1.5-2.2,3.5-3.9,6.4-4.1c0.1,0,0.2,0,0.2,0c0,0.3,0.1,0.5,0.1,0.8c0.1,0.6,0.1,1.2,0.2,1.8c0.2,1.3,0.4,2.6,0.6,3.9
					c0.1,0.5,0.2,1,0.3,1.5c0,0,0,0.4,0,0.4c0,0.1-0.1,0.3-0.1,0.3c-0.4,0.6-1.5,0.8-2.3,1c-0.5,0.2-1.1,0.3-1.6,0.5
					c-0.3,0.1-0.6,0.2-0.9,0.2c0,0-0.4,0.1-0.4,0.1C378.4,592,378.3,592,378.1,592z"/>
				<path d="M379.1,612.2c0.1,0.2,0.2,0.4,0.3,0.7c0,0,0,0,0,0c-0.2-0.3-0.3-0.5-0.5-0.8c-0.4-0.1-0.7-0.3-0.8-0.7
					c0-0.1,0-0.2,0-0.3c-0.2-0.2-0.4-0.4-0.6-0.5c0.2,0,0.3-0.1,0.4-0.1c0,0.1,0.1,0.1,0.2,0.2c0.2,0.2,0.3,0.5,0.5,0.7
					C378.8,611.7,378.9,612,379.1,612.2z"/>
				<path d="M377.1,614.5c0.1,0,0.1,0.1,0.1,0.1C377.1,614.6,377.1,614.5,377.1,614.5z"/>
				<path d="M379.9,615.5c-0.2,0.7-1,1-1.7,0.7c-0.4-0.2-0.7-0.6-0.9-1c-0.1-0.2-0.2-0.4-0.3-0.5c0,0,0,0,0,0c0,0,0,0,0,0l0-0.1
					c0,0,0.1,0.1,0.1,0.1c0,0,0-0.1-0.1-0.1c-0.1-0.1-0.1-0.1-0.2-0.2l0,0c-0.2-0.4-0.5-0.8-0.7-1.1c0.4,0.1,0.8,0.1,1.2,0.2
					c0.7,0.1,1.5,0.2,2.2,0.2c0.1,0.2,0.2,0.4,0.2,0.6C380,614.6,380.1,615,379.9,615.5z"/>
				<path d="M383.1,635.2c-3.2,0.7-5.8-2.1-6.3-5.1c-0.3-2,0.2-4,0.6-6c0.4-1.9,0.7-3.9,0.6-5.9c-0.1-1.5-0.5-2.8-1.2-4
					c0.1,0,0.1,0.1,0.2,0.2l0,0.1c0,0,0,0,0,0c0,0,0,0,0,0c0.1,0.2,0.2,0.4,0.3,0.5c0.2,0.4,0.5,0.8,0.9,1c0.7,0.3,1.4,0,1.7-0.7
					c0.1-0.4,0.1-0.9-0.1-1.3c-0.1-0.2-0.1-0.4-0.2-0.6c0,0,0.1,0,0.1,0c0.2,0.3,0.3,0.7,0.5,1.1c0.6,1.5,0.8,3.1,0.8,4.7
					c0,2.2-0.4,4.4-0.9,6.6c-0.3,1.6-0.7,3.5,0.1,5c0.5,1,1.5,1.8,2.7,1.3c3.5-1.5,1.5-6.7,0.9-9.2c-0.3-1.2-0.4-2.4-0.4-3.6
					c0-2.1,0.6-4.1,1.5-6.1c0,0,0,0,0,0c1.1-0.2,2.2-0.4,3.3-0.7c0.1,0,0.2-0.1,0.3-0.1l0.2,0.7c-0.8,0.7-1.5,2.6-1.7,3.1
					c-0.6,1.8-0.7,3.6-0.5,5.4c0.3,2,0.9,3.9,1,5.9C388,630.8,386.6,634.5,383.1,635.2z"/>
				<path d="M376.8,614.3c-0.2-0.2-0.3-0.4-0.4-0.6c-0.1-0.2-0.2-0.3-0.3-0.5h0C376.4,613.6,376.6,613.9,376.8,614.3
					C376.8,614.3,376.8,614.3,376.8,614.3z"/>
				<path d="M376,585.7c0.2,0.6,0.4,1.1,0.6,1.7c0.4,1.2,0.8,2.3,1.1,3.5c0.2,0.5,0.3,0.7,0.4,1.1c0.1,0,0.2,0,0.3,0
					c0,0,0.4-0.1,0.4-0.1c0.3-0.1,0.6-0.1,0.9-0.2c0.6-0.1,1.1-0.3,1.6-0.5c0.8-0.2,1.9-0.5,2.3-1c0,0,0.1-0.2,0.1-0.3
					c0,0,0-0.4,0-0.4c-0.1-0.5-0.2-1-0.3-1.5c-0.2-1.3-0.5-2.6-0.6-3.9c-0.1-0.6-0.1-1.2-0.2-1.8c0-0.3-0.1-0.5-0.1-0.8
					c1.5,0,2.7,0.4,3.8,1.1c0.1,0.4,0.2,0.8,0.3,1.2c0.3,1.4,0.7,2.8,0.8,4.2c0.2,2.3-0.3,4.6-2.5,5.7c-1,0.5-2.1,0.8-3.1,1.2
					c-1.1,0.3-2.2,0.6-3.3,0.7c-1.2,0.1-2.4-0.4-3.2-1.3c-0.7-0.9-0.9-1.9-1.1-2.9c-0.1-0.4-0.2-0.8-0.3-1.2
					C374.4,588.6,375.1,587,376,585.7C376,585.7,376,585.7,376,585.7z"/>
				<path d="M373.2,586c-0.1-0.5-0.1-1,0.1-1.4c0.1-0.1,0.1-0.2,0.2-0.3c0.3-0.4,0.8-0.5,1.2-0.3c0.7,0.4,1,0.9,1.2,1.6
					c-0.9,1.4-1.5,2.9-2,4.5c-0.2-0.8-0.3-1.5-0.5-2.3C373.4,587.3,373.3,586.7,373.2,586z"/>
				<path d="M376,613c-0.2-0.2-0.3-0.5-0.5-0.7c-0.2-0.3-0.3-0.7-0.5-1c0-0.1-0.1-0.2-0.1-0.4c0,0,0-0.1,0-0.1c0,0,0,0,0,0
					c0,0,0,0,0,0h0v0l-0.1-0.1c-0.1-0.3-0.1-0.6-0.2-0.9c-0.1-0.5,0.3-0.9,0.8-0.8c0.3,0.1,0.6,0.2,0.9,0.3c0.3,0.1,0.5,0.3,0.8,0.5
					c0.1,0.1,0.2,0.1,0.3,0.2c0.2,0.2,0.4,0.3,0.6,0.5c-0.1,0-0.3,0.1-0.4,0.1c0.2,0.2,0.4,0.4,0.6,0.5c0,0.1,0,0.2,0,0.3
					c0.1,0.4,0.4,0.6,0.8,0.7c0.2,0.2,0.4,0.5,0.5,0.8c0,0.1,0,0.2,0,0.2c0,0,0,0.1,0,0.1c0,0,0,0,0,0c0,0,0,0,0,0.1
					c0,0.1,0.1,0.1,0.1,0.2c0,0,0,0,0,0.1c-0.8,0-1.5-0.1-2.2-0.2c-0.4,0-0.8-0.1-1.2-0.2h0c0,0,0,0,0,0
					C376.1,613.1,376,613.1,376,613z"/>
				<path d="M377.4,609.1c-0.9-0.1-2.1-0.1-2.6-0.9c0-0.1,0-0.2,0-0.2c0-0.1,0-0.1,0-0.1c1.4-0.7,3.1-1.1,4.5-1.3
					c2.1-0.4,4.2-0.6,6.3-0.6c2.1,0,4.2,0.2,6.3,0.5c0.1,0,0.2,0,0.4,0.1c-0.3,0.5-0.8,0.8-1.4,1.1c-1.2,0.6-2.7,0.8-4,1.1
					c-1.5,0.3-3.1,0.6-4.7,0.6C380.6,609.4,379,609.3,377.4,609.1z"/>
				<path d="M374.8,610.8C374.8,610.8,374.9,610.8,374.8,610.8L374.8,610.8z"/>
				<path d="M374.7,608.2c0.5,0.8,1.7,0.8,2.6,0.9c1.6,0.2,3.2,0.2,4.8,0.2c1.6-0.1,3.1-0.3,4.7-0.6c1.3-0.3,2.8-0.6,4-1.1
					c0.6-0.3,1.1-0.6,1.4-1.1c1.1,0.2,2.4,0.4,3.4,0.9c0.1,0,0.1,0.1,0.2,0.1c-0.4,1.2-1.2,2.1-2.1,2.8c-0.9-0.3-1.8-0.4-2.7-0.5
					c-1.4-0.1-2.8-0.1-4.1-0.1c-2.7,0-5.4,0.2-8.1,0.6c-0.1,0-0.3,0.1-0.4,0.2c-0.2,0-0.3,0.1-0.5,0.1c-0.2-0.2-0.3-0.4-0.6-0.5
					c-0.1-0.1-0.2-0.1-0.3-0.2c-0.2-0.2-0.5-0.3-0.8-0.5c-0.3-0.1-0.6-0.2-0.9-0.3c-0.5-0.1-0.9,0.3-0.8,0.8
					c0.1,0.3,0.1,0.6,0.2,0.9l0.1,0.1v0h0c0,0,0,0,0,0l0,0c0,0,0,0.1,0,0.1c0,0.1,0.1,0.2,0.1,0.4c0.1,0.4,0.2,0.7,0.5,1
					c0.2,0.2,0.3,0.5,0.5,0.7c0,0,0.1,0.1,0.1,0.2c-0.8-1-1.9-1.9-3.1-2.6c-0.7-0.4-0.5-1.5,0.2-1.6c0-0.1,0.1-0.1,0.1-0.2
					c0.4-0.4,0.9-0.7,1.4-1c0,0,0,0.1,0,0.1C374.7,608,374.7,608.1,374.7,608.2z"/>
				<path d="M382.6,580.2c-0.1,0.5-0.1,0.9-0.1,1.4c-0.1,0-0.1,0-0.2,0c-2.8,0.2-4.9,1.8-6.4,4.1c-0.3-0.8-0.5-1.3-1.2-1.6
					c-0.5-0.2-0.9-0.1-1.2,0.3c-0.1,0.1-0.1,0.2-0.2,0.3l-1.1-0.4c2.6-4.1,7.2-7.1,12.1-6.2l-0.2,1
					C383.6,579,382.9,579.3,382.6,580.2z"/>
				<path d="M373.2,609c-0.7,0.2-0.9,1.3-0.2,1.6c1.3,0.7,2.3,1.5,3.1,2.6c0,0,0,0,0,0c-1.4-0.2-2.7-0.6-3.8-1.5
					c-1.2-1.1-1.7-2.8-0.8-4.2c-1.7-2.7-2.1-6.3-2.2-9.3c-0.1-4,0.3-8.1,1.9-11.8c0.3-0.7,0.7-1.4,1.1-2.1l1.1,0.4
					c-0.2,0.5-0.2,0.9-0.1,1.4c0.1,0.6,0.2,1.2,0.3,1.8c0.1,0.8,0.3,1.5,0.5,2.3c-0.1,0.6-0.3,1.1-0.4,1.7c-0.5,2.7-0.4,5.4-0.2,8.1
					c0.1,2.7,0.9,5.2,1.3,7.9c-0.5,0.3-1,0.6-1.4,1C373.3,608.9,373.2,608.9,373.2,609z"/>
			</g>
			<g>
			</g>
		</g>
	</g>
</g>
</svg>
