<svg width="24" height="24" viewBox="0 0 24 24" fill="none" xmlns="http://www.w3.org/2000/svg">
<path d="M12.7822 5.47052C14.0167 5.47052 15.0174 4.46976 15.0174 3.23526C15.0174 2.00076 14.0167 1 12.7822 1C11.5477 1 10.5469 2.00076 10.5469 3.23526C10.5469 4.46976 11.5477 5.47052 12.7822 5.47052Z" fill="#21C488"/>
<path d="M17.9637 11.5667L16.0333 9.8394C16.0333 9.8394 14.9156 7.90899 14.5092 7.09616C14.4076 6.79136 14.1028 6.48655 12.6804 6.38495C11.8676 6.38495 11.2579 6.38495 10.8515 6.38495C10.2419 6.38495 9.53069 6.89296 9.02268 7.09616C8.00665 7.60418 7.60024 8.01059 7.39704 8.11219L7.29544 8.21379C7.19383 8.31539 7.09223 8.5186 7.09223 8.6202C7.09223 8.6202 6.0762 11.2619 6.0762 11.3635C5.9746 11.5667 5.9746 11.7699 6.0762 12.0747C6.27941 12.6843 6.68582 12.9891 7.29544 12.7859C7.70185 12.6843 7.90505 12.3795 8.00665 12.0747L8.92108 9.7378C9.02268 9.43302 9.8355 9.12822 9.8355 9.12822C9.8355 9.6362 9.42909 12.8875 9.42909 13.0907L9.02268 16.5452V16.6468L6.48261 19.9997C6.38101 20.2029 6.27941 20.4061 6.17781 20.6093C6.0762 21.2189 6.58422 21.7269 7.19383 21.8286C7.60024 21.8286 7.90505 21.7269 8.20986 21.4221C8.20986 21.4221 10.7499 18.2725 11.1563 17.7644C11.2579 17.6628 11.2579 17.5612 11.2579 17.4596C11.2579 17.4596 11.4611 16.7484 11.766 15.1228C11.766 14.9196 11.8676 14.818 11.8676 14.6148L13.6964 17.2564C13.798 17.358 13.8996 17.5612 14.0012 17.7644L15.2204 21.3205C15.322 21.5237 15.4236 21.7269 15.6269 21.8286C16.1349 22.1334 16.8461 22.0318 17.1509 21.5237C17.3541 21.2189 17.3541 20.8125 17.2525 20.5077L16.0333 16.5452C16.0333 16.4436 15.8301 16.2404 15.8301 16.1388C15.7285 15.9356 15.4236 15.2244 14.814 14.5132C14.5092 14.1068 14.306 13.7003 14.1028 13.4971C14.0012 13.3955 14.0012 13.2939 14.0012 13.1923C14.0012 12.7859 14.1028 11.1603 14.2044 10.7539C14.306 10.8555 14.306 10.9571 14.4076 11.0587C14.5092 11.1603 14.6108 11.3635 14.7124 11.4651L16.8461 13.3955C17.0493 13.4971 17.2525 13.5987 17.4557 13.5987C18.0653 13.7003 18.5733 13.1923 18.6749 12.5827C18.3701 12.1763 18.1669 11.7699 17.9637 11.5667Z" fill="#21C488"/>
</svg>
