<svg width="100" height="100" viewBox="0 0 100 100" fill="none" xmlns="http://www.w3.org/2000/svg">
<path fill-rule="evenodd" clip-rule="evenodd" d="M94.1644 74.3175C91.9775 76.8698 88.7728 78.1334 85.5029 78.6668C83.2855 79.0342 79.9138 79.0948 77.6913 78.8632C76.593 78.8434 75.484 78.7121 74.3908 78.5915C72.2798 78.3497 70.1738 78.053 68.0882 77.6301C60.5606 76.0946 53.4274 73.0487 46.1074 70.7885C42.4268 69.6505 38.6755 68.6688 34.8585 68.085C32.9805 67.798 31.0618 67.5817 29.1635 67.4509C28.136 67.3802 27.0932 67.4509 26.0702 67.5059C25.2198 67.5512 24.5622 67.6265 23.5444 67.8082C23.5037 67.8235 23.4584 67.8331 23.4177 67.8484C22.9622 68.0245 22.4746 68.1207 21.9509 68.2311C21.7534 68.251 21.5545 68.3014 21.3621 68.3268C21.271 68.2963 21.1799 68.2612 21.1091 68.2311C21.2659 61.5809 21.4333 54.9256 21.5952 48.2754C21.671 45.0884 21.7519 41.9066 21.8282 38.7201C21.3422 38.4682 20.8511 38.2219 20.3549 37.9802C18.9324 37.2804 17.4998 36.5907 16.057 35.9414C15.2671 35.5841 14.4772 35.2416 13.6879 34.8894C13.2171 34.6777 12.8069 34.4665 12.4069 34.2044C12.2145 34.3504 12.0069 34.4762 11.7845 34.582C10.1136 35.3775 7.88095 34.9698 6.70175 33.5046C5.54749 32.0699 5.41568 29.9202 6.56994 28.4453C7.10177 27.7608 8.03821 27.0157 8.89373 26.8544C9.11155 26.8142 9.78437 26.6482 10.0022 26.6533C10.1997 26.5948 10.5442 26.5978 10.8022 26.6177C11.3488 26.6681 11.8654 26.92 12.3056 27.2371C12.8222 27.6045 13.2675 28.0727 13.5815 28.6163C13.7434 28.5613 13.9103 28.516 14.0625 28.4753C14.5785 28.3343 15.0747 28.1531 15.5709 27.9669C16.5684 27.5892 17.51 27.1663 18.4108 26.5978C19.2968 26.0339 20.1121 25.3693 20.846 24.6191C21.2155 24.2466 21.585 23.8593 21.8532 23.4058C22.1316 22.9478 22.1794 22.8877 22.4731 22.4394C22.7566 22.0068 23.3942 21.8429 23.779 22.1798C24.037 22.4012 26.2677 23.3911 26.2677 23.3911C28.2184 24.2115 30.2165 25.0573 31.8868 26.1245C34.6763 27.9017 37.2988 29.9807 39.8297 32.0948C44.4921 35.9968 48.8307 40.2658 52.8101 44.8517C56.652 49.282 60.2313 53.9388 64.2051 58.2581C68.022 62.4013 72.2238 66.2071 77.1803 68.966C79.5794 70.2999 82.121 71.3774 84.7837 72.067C86.0698 72.4044 87.3758 72.6512 88.6969 72.782C90.0843 72.9179 91.4813 72.8471 92.8636 73.0334C93.4305 73.1092 94.7797 73.5994 94.1644 74.3175ZM85.7405 76.9349C83.4371 77.3833 81.0426 77.4387 78.704 77.1619C78.1422 77.0911 77.5803 77.0056 77.0281 76.9003C70.8879 75.7272 65.3949 72.3291 60.6715 68.3721C57.1986 65.459 54.061 62.1942 50.924 58.9304C49.3559 57.2987 47.7879 55.6671 46.1782 54.0797C41.6222 49.5843 36.6204 45.5821 31.2491 42.0832C29.0017 40.6134 26.683 39.2438 24.3139 37.9751C23.5642 37.5725 22.81 37.1847 22.0507 36.802C22.0354 36.7943 22.0206 36.7867 22.0059 36.7796C21.9616 36.7572 21.9188 36.7353 21.8735 36.7165C20.3091 35.9312 18.7248 35.2212 17.1099 34.5571C16.917 34.4772 16.7237 34.3962 16.5298 34.3148C15.4966 33.8807 14.4457 33.4394 13.3586 33.1977C13.9255 32.3371 14.1887 31.2744 14.0976 30.2474C14.2243 30.2372 14.3459 30.2225 14.4574 30.2072C15.1154 30.1217 15.7837 30.0209 16.4163 29.8194C17.6362 29.4321 18.821 28.8733 19.8994 28.1837C20.6938 27.6753 21.4486 27.091 22.1265 26.4365C22.3748 26.1999 22.6074 25.9581 22.8354 25.7016C23.1846 25.3138 23.6202 24.7805 23.919 24.2115C24.0523 24.2532 24.1892 24.2868 24.3256 24.3209C24.4371 24.3484 24.5485 24.3764 24.6579 24.4079C24.6706 24.4105 24.6834 24.414 24.6961 24.4181C24.7088 24.4217 24.721 24.4257 24.7338 24.4283C25.0427 24.5189 25.3516 24.6293 25.6554 24.7454C25.6967 24.7601 25.7364 24.7764 25.7756 24.7927C25.803 24.8039 25.8305 24.8156 25.858 24.8257C25.8626 24.8308 25.8677 24.8308 25.8727 24.8308C25.9338 24.8609 25.9995 24.8909 26.0651 24.9113C26.0804 24.9214 26.0906 24.9265 26.1058 24.9311C30.3478 26.975 34.1297 29.8749 37.7441 32.8755C42.4217 36.7618 46.7904 41.0109 50.8049 45.577C52.5312 47.5405 54.2086 49.5675 55.8896 51.5982C61.6293 58.5324 67.4042 65.5099 75.2514 70.159C77.9396 71.7499 80.8299 73.0538 83.8473 73.8843C85.3354 74.2971 86.8541 74.579 88.388 74.7455C89.6283 74.8814 90.9144 74.977 92.1495 74.7908C90.0894 75.7221 87.9529 76.5023 85.7405 76.9349ZM36.0433 66.4743C33.9119 66.147 31.7957 65.9302 29.6394 66.0112C29.2689 66.0244 28.8984 66.032 28.5289 66.0402C27.7874 66.0554 27.0479 66.0712 26.3084 66.1318C26.1695 66.1425 26.0285 66.1516 25.887 66.1613C25.1007 66.2137 24.2869 66.2677 23.5744 66.5746C23.6579 63.5143 23.7368 60.4516 23.8156 57.3908V57.3817C23.8569 55.7933 23.8976 54.2059 23.9393 52.6196C24.036 48.8016 24.1322 44.979 24.2289 41.1564L24.2309 41.0831L24.237 40.8449L24.2579 40.0138C25.8223 40.8699 27.3563 41.7763 28.8647 42.7224C34.3475 46.1607 39.4149 50.2032 44.062 54.6838C45.8641 56.4203 47.6444 58.2509 49.4399 60.0979C55.3858 66.2132 61.4996 72.5011 69.1361 76.0896C65.5268 75.2234 61.9729 74.1414 58.4597 72.9683C57.0729 72.5067 55.6891 72.0308 54.3038 71.5544C48.3208 69.4973 42.3204 67.4346 36.0433 66.4743Z" fill="black"/>
<path d="M69.1362 76.0896C65.5268 75.2234 61.9729 74.1414 58.4593 72.9683C51.0838 70.5117 43.7735 67.6571 36.0433 66.4744C33.9119 66.1471 31.7958 65.9303 29.6394 66.0112C28.5254 66.0515 27.4169 66.0413 26.3085 66.1319C25.397 66.2021 24.4147 66.2123 23.5745 66.5746C23.7012 61.923 23.8177 57.2662 23.9389 52.6197C24.0452 48.4215 24.1516 44.2177 24.2579 40.0139C25.8224 40.8699 27.3563 41.7759 28.8648 42.7225C34.3475 46.1608 39.415 50.2033 44.0621 54.6839C51.833 62.1698 59.1937 71.4176 69.1362 76.0896Z" fill="#CC2E3C"/>
<path d="M92.1496 74.7907C90.9144 74.977 89.6284 74.8813 88.3881 74.7454C86.8542 74.579 85.3355 74.297 83.8474 73.8843C80.8299 73.0537 77.9397 71.7498 75.2515 70.1589C65.1064 64.1484 58.4242 54.2461 50.8049 45.5769C46.7905 41.0108 42.4218 36.7617 37.7442 32.8755C34.1297 29.8748 30.3479 26.9754 26.1059 24.9316C26.0906 24.9265 26.0804 24.9214 26.0652 24.9112C25.9995 24.8914 25.9339 24.8608 25.8728 24.8308C25.8677 24.8308 25.8626 24.8308 25.8575 24.8257C25.7919 24.8008 25.7262 24.7702 25.6555 24.7453C25.3517 24.6293 25.0427 24.5188 24.7338 24.4282C24.7084 24.4231 24.6834 24.413 24.658 24.4079C24.4147 24.3371 24.1618 24.2867 23.919 24.2114C23.6203 24.7804 23.1846 25.3138 22.8355 25.7016C22.6075 25.9581 22.3749 26.1998 22.1265 26.4365C21.4481 27.091 20.6939 27.6752 19.8995 28.1836C18.821 28.8732 17.6362 29.4321 16.4163 29.8199C15.7837 30.0209 15.1155 30.1217 14.4574 30.2072C14.346 30.2224 14.2244 30.2377 14.0976 30.2474C14.1887 31.2744 13.9256 32.337 13.3586 33.1976C14.6498 33.4847 15.8901 34.0537 17.11 34.557C18.7248 35.2212 20.3091 35.9311 21.8736 36.7164C21.9342 36.7419 21.9902 36.7719 22.0507 36.8019C22.81 37.1846 23.5643 37.5724 24.3139 37.975C26.683 39.2438 29.0017 40.6133 31.2492 42.0831C36.6204 45.582 41.6222 49.5843 46.1782 54.0797C51.0075 58.8423 55.4627 64.0023 60.6716 68.372C65.395 72.329 70.8874 75.7271 77.0282 76.9002C77.5799 77.0056 78.1422 77.0911 78.7041 77.1618C81.0427 77.4387 83.4372 77.3832 85.7406 76.9353C87.9529 76.5022 90.0895 75.722 92.1496 74.7907Z" fill="#FF3A4B"/>
<path d="M12.2144 29.8296C12.4322 30.449 12.4424 30.9121 12.2648 31.5162C12.1686 31.8486 12.108 31.9794 11.9004 32.2964C11.7991 32.4425 11.8195 32.4226 11.6978 32.5534C11.6475 32.6089 11.5966 32.6639 11.5411 32.7143C11.5258 32.7295 11.4347 32.8099 11.3991 32.8507C10.9187 33.2227 10.3263 33.3942 9.76949 33.409C9.18218 33.4192 8.59995 33.2782 8.09866 32.8858C7.15713 32.1407 6.91895 30.7009 7.47114 29.6937C7.78464 29.1151 8.31139 28.7527 8.90379 28.5059C9.22238 28.37 9.57201 28.3145 9.90587 28.2239C10.058 28.1837 10.225 28.113 10.3817 28.1079C10.4021 28.1033 10.4174 28.113 10.4326 28.113C10.6957 28.254 10.9589 28.395 11.2021 28.5665C11.3436 28.6621 11.5965 28.9085 11.7793 29.1202C11.9156 29.2759 12.1538 29.6535 12.2144 29.8296Z" fill="#FFD53F"/>
</svg>
