<svg width="100" height="100" viewBox="0 0 100 100" fill="none" xmlns="http://www.w3.org/2000/svg">
<path fill-rule="evenodd" clip-rule="evenodd" d="M94.1646 74.3175C91.9778 76.8698 88.773 78.1334 85.5031 78.6668C83.2857 79.0342 79.914 79.0948 77.6915 78.8632C76.5932 78.8434 75.4843 78.7121 74.3911 78.5915C72.28 78.3497 70.1741 78.053 68.0885 77.6301C60.5608 76.0946 53.4276 73.0487 46.1076 70.7885C42.427 69.6505 38.6757 68.6688 34.8587 68.085C32.9808 67.798 31.0621 67.5817 29.1638 67.4509C28.1362 67.3802 27.0934 67.4509 26.0705 67.5059C25.22 67.5512 24.5625 67.6265 23.5446 67.8082C23.5039 67.8235 23.4586 67.8331 23.4179 67.8484C22.9624 68.0245 22.4749 68.1207 21.9512 68.2311C21.7537 68.251 21.5547 68.3014 21.3623 68.3268C21.2712 68.2963 21.1801 68.2612 21.1094 68.2311C21.2661 61.5809 21.4336 54.9256 21.5954 48.2754C21.6712 45.0884 21.7522 41.9066 21.8285 38.7201C21.3425 38.4682 20.8514 38.2219 20.3552 37.9802C18.9327 37.2804 17.5 36.5907 16.0572 35.9414C15.2673 35.5841 14.4775 35.2416 13.6881 34.8894C13.2174 34.6777 12.8072 34.4665 12.4071 34.2044C12.2148 34.3504 12.0071 34.4762 11.7847 34.582C10.1139 35.3775 7.88119 34.9698 6.702 33.5046C5.54774 32.0699 5.41592 29.9202 6.57018 28.4453C7.10202 27.7608 8.03846 27.0157 8.89397 26.8544C9.1118 26.8142 9.78461 26.6482 10.0024 26.6533C10.1999 26.5948 10.5444 26.5978 10.8025 26.6177C11.3491 26.6681 11.8656 26.92 12.3058 27.2371C12.8224 27.6045 13.2677 28.0727 13.5818 28.6163C13.7436 28.5613 13.9105 28.516 14.0627 28.4753C14.5788 28.3343 15.075 28.1531 15.5712 27.9669C16.5687 27.5892 17.5102 27.1663 18.411 26.5978C19.2971 26.0339 20.1124 25.3693 20.8463 24.6191C21.2157 24.2466 21.5852 23.8593 21.8534 23.4058C22.1318 22.9478 22.1797 22.8877 22.4733 22.4394C22.7568 22.0068 23.3945 21.8429 23.7792 22.1798C24.0373 22.4012 26.2679 23.3911 26.2679 23.3911C28.2187 24.2115 30.2167 25.0573 31.8871 26.1245C34.6765 27.9017 37.2991 29.9807 39.83 32.0948C44.4923 35.9968 48.831 40.2658 52.8103 44.8517C56.6522 49.282 60.2315 53.9388 64.2053 58.2581C68.0223 62.4013 72.224 66.2071 77.1805 68.966C79.5796 70.2999 82.1213 71.3774 84.784 72.067C86.0701 72.4044 87.376 72.6512 88.6972 72.782C90.0845 72.9179 91.4816 72.8471 92.8638 73.0334C93.4308 73.1092 94.7799 73.5994 94.1646 74.3175ZM85.7408 76.9349C83.4374 77.3833 81.0428 77.4387 78.7043 77.1619C78.1424 77.0911 77.5806 77.0056 77.0284 76.9003C70.8881 75.7272 65.3952 72.3291 60.6718 68.3721C57.1988 65.459 54.0613 62.1942 50.9242 58.9304C49.3562 57.2987 47.7882 55.6671 46.1784 54.0797C41.6224 49.5843 36.6206 45.5821 31.2493 42.0832C29.0019 40.6134 26.6832 39.2438 24.3141 37.9751C23.5645 37.5725 22.8102 37.1847 22.0509 36.802C22.0356 36.7943 22.0209 36.7867 22.0061 36.7796C21.9618 36.7572 21.9191 36.7353 21.8738 36.7165C20.3093 35.9312 18.725 35.2212 17.1102 34.5571C16.9173 34.4772 16.7239 34.3962 16.53 34.3148C15.4969 33.8807 14.4459 33.4394 13.3588 33.1977C13.9258 32.3371 14.1889 31.2744 14.0978 30.2474C14.2245 30.2372 14.3462 30.2225 14.4576 30.2072C15.1157 30.1217 15.7839 30.0209 16.4165 29.8194C17.6364 29.4321 18.8212 28.8733 19.8996 28.1837C20.6941 27.6753 21.4488 27.091 22.1267 26.4365C22.3751 26.1999 22.6077 25.9581 22.8357 25.7016C23.1848 25.3138 23.6205 24.7805 23.9192 24.2115C24.0525 24.2532 24.1895 24.2868 24.3258 24.3209C24.4373 24.3484 24.5487 24.3764 24.6582 24.4079C24.6709 24.4105 24.6836 24.414 24.6963 24.4181C24.7091 24.4217 24.7213 24.4257 24.734 24.4283C25.0429 24.5189 25.3518 24.6293 25.6557 24.7454C25.6969 24.7601 25.7366 24.7764 25.7758 24.7927C25.8033 24.8039 25.8308 24.8156 25.8582 24.8257C25.8628 24.8308 25.8679 24.8308 25.873 24.8308C25.9341 24.8609 25.9997 24.8909 26.0654 24.9113C26.0806 24.9214 26.0908 24.9265 26.1061 24.9311C30.348 26.975 34.1299 29.8749 37.7444 32.8755C42.422 36.7618 46.7907 41.0109 50.8051 45.577C52.5314 47.5405 54.2088 49.5675 55.8898 51.5982C61.6296 58.5324 67.4045 65.5099 75.2517 70.159C77.9399 71.7499 80.8301 73.0538 83.8476 73.8843C85.3357 74.2971 86.8543 74.579 88.3883 74.7455C89.6285 74.8814 90.9146 74.977 92.1498 74.7908C90.0896 75.7221 87.9531 76.5023 85.7408 76.9349ZM36.0435 66.4743C33.9121 66.147 31.796 65.9302 29.6396 66.0112C29.2691 66.0244 28.8986 66.032 28.5291 66.0402C27.7876 66.0554 27.0481 66.0712 26.3086 66.1318C26.1697 66.1425 26.0287 66.1516 25.8873 66.1613C25.101 66.2137 24.2872 66.2677 23.5747 66.5746C23.6581 63.5143 23.737 60.4516 23.8159 57.3908V57.3817C23.8571 55.7933 23.8978 54.2059 23.9396 52.6196C24.0362 48.8016 24.1325 44.979 24.2292 41.1564L24.2312 41.0831L24.2373 40.8449L24.2581 40.0138C25.8226 40.8699 27.3565 41.7763 28.865 42.7224C34.3477 46.1607 39.4152 50.2032 44.0623 54.6838C45.8644 56.4203 47.6446 58.2509 49.4402 60.0979C55.386 66.2132 61.4998 72.5011 69.1364 76.0896C65.527 75.2234 61.9731 74.1414 58.46 72.9683C57.0731 72.5067 55.6893 72.0308 54.304 71.5544C48.321 69.4973 42.3207 67.4346 36.0435 66.4743Z" fill="black"/>
<path d="M69.1364 76.0896C65.5271 75.2234 61.9732 74.1414 58.4595 72.9683C51.0841 70.5117 43.7737 67.6571 36.0436 66.4744C33.9122 66.1471 31.796 65.9303 29.6397 66.0112C28.5256 66.0515 27.4172 66.0413 26.3087 66.1319C25.3972 66.2021 24.415 66.2123 23.5747 66.5746C23.7014 61.923 23.818 57.2662 23.9391 52.6197C24.0455 48.4215 24.1518 44.2177 24.2582 40.0139C25.8226 40.8699 27.3566 41.7759 28.865 42.7225C34.3478 46.1608 39.4152 50.2033 44.0623 54.6839C51.8332 62.1698 59.1939 71.4176 69.1364 76.0896Z" fill="#CC2E3C"/>
<path d="M92.1499 74.7907C90.9147 74.977 89.6286 74.8813 88.3883 74.7454C86.8544 74.579 85.3358 74.297 83.8476 73.8843C80.8302 73.0537 77.9399 71.7498 75.2518 70.1589C65.1067 64.1484 58.4244 54.2461 50.8052 45.5769C46.7907 41.0108 42.422 36.7617 37.7444 32.8755C34.13 29.8748 30.3481 26.9754 26.1061 24.9316C26.0909 24.9265 26.0807 24.9214 26.0654 24.9112C25.9998 24.8914 25.9341 24.8608 25.873 24.8308C25.868 24.8308 25.8629 24.8308 25.8578 24.8257C25.7921 24.8008 25.7265 24.7702 25.6557 24.7453C25.3519 24.6293 25.043 24.5188 24.7341 24.4282C24.7086 24.4231 24.6837 24.413 24.6582 24.4079C24.4149 24.3371 24.162 24.2867 23.9193 24.2114C23.6205 24.7804 23.1849 25.3138 22.8357 25.7016C22.6077 25.9581 22.3751 26.1998 22.1268 26.4365C21.4484 27.091 20.6941 27.6752 19.8997 28.1836C18.8213 28.8732 17.6365 29.4321 16.4166 29.8199C15.784 30.0209 15.1157 30.1217 14.4577 30.2072C14.3462 30.2224 14.2246 30.2377 14.0979 30.2474C14.189 31.2744 13.9258 32.337 13.3589 33.1976C14.65 33.4847 15.8903 34.0537 17.1102 34.557C18.7251 35.2212 20.3094 35.9311 21.8738 36.7164C21.9344 36.7419 21.9904 36.7719 22.051 36.8019C22.8103 37.1846 23.5645 37.5724 24.3142 37.975C26.6833 39.2438 29.002 40.6133 31.2494 42.0831C36.6207 45.582 41.6225 49.5843 46.1785 54.0797C51.0077 58.8423 55.4629 64.0023 60.6718 68.372C65.3952 72.329 70.8877 75.7271 77.0285 76.9002C77.5801 77.0056 78.1425 77.0911 78.7044 77.1618C81.0429 77.4387 83.4374 77.3832 85.7409 76.9353C87.9532 76.5022 90.0897 75.722 92.1499 74.7907Z" fill="#FF3A4B"/>
<path d="M12.2146 29.8296C12.4325 30.449 12.4426 30.9121 12.265 31.5162C12.1688 31.8486 12.1083 31.9794 11.9006 32.2964C11.7994 32.4425 11.8197 32.4226 11.6981 32.5534C11.6477 32.6089 11.5968 32.6639 11.5413 32.7143C11.5261 32.7295 11.435 32.8099 11.3993 32.8507C10.9189 33.2227 10.3265 33.3942 9.76974 33.409C9.18243 33.4192 8.6002 33.2782 8.0989 32.8858C7.15737 32.1407 6.91919 30.7009 7.47138 29.6937C7.78489 29.1151 8.31163 28.7527 8.90403 28.5059C9.22262 28.37 9.57226 28.3145 9.90612 28.2239C10.0583 28.1837 10.2252 28.113 10.382 28.1079C10.4023 28.1033 10.4176 28.113 10.4329 28.113C10.696 28.254 10.9591 28.395 11.2024 28.5665C11.3439 28.6621 11.5968 28.9085 11.7795 29.1202C11.9159 29.2759 12.1541 29.6535 12.2146 29.8296Z" fill="#FFD53F"/>
</svg>
