<?xml version="1.0" encoding="utf-8"?>
<!-- Generator: Adobe Illustrator 27.5.0, SVG Export Plug-In . SVG Version: 6.00 Build 0)  -->
<!DOCTYPE svg PUBLIC "-//W3C//DTD SVG 1.1//EN" "http://www.w3.org/Graphics/SVG/1.1/DTD/svg11.dtd" [
	<!ENTITY ns_extend "http://ns.adobe.com/Extensibility/1.0/">
	<!ENTITY ns_ai "http://ns.adobe.com/AdobeIllustrator/10.0/">
	<!ENTITY ns_graphs "http://ns.adobe.com/Graphs/1.0/">
	<!ENTITY ns_vars "http://ns.adobe.com/Variables/1.0/">
	<!ENTITY ns_imrep "http://ns.adobe.com/ImageReplacement/1.0/">
	<!ENTITY ns_sfw "http://ns.adobe.com/SaveForWeb/1.0/">
	<!ENTITY ns_custom "http://ns.adobe.com/GenericCustomNamespace/1.0/">
	<!ENTITY ns_adobe_xpath "http://ns.adobe.com/XPath/1.0/">
]>
<svg version="1.1" id="Calque_1" xmlns:x="&ns_extend;" xmlns:i="&ns_ai;" xmlns:graph="&ns_graphs;"
	 xmlns="http://www.w3.org/2000/svg" xmlns:xlink="http://www.w3.org/1999/xlink" x="0px" y="0px" viewBox="0 0 800 1000"
	 enable-background="new 0 0 800 1000" xml:space="preserve">
<metadata>
	<sfw  xmlns="&ns_sfw;">
		<slices></slices>
		<sliceSourceBounds  bottomLeftOrigin="true" height="26" width="23.9" x="323.8" y="-653.3"></sliceSourceBounds>
	</sfw>
</metadata>
<g id="XMLID_00000085234928515091065950000006703627269305641402_">
	<g>
		<path d="M338.1,627.6c6.8,1.4,10.4,9.2,9.5,15.6c-0.5,3.5-2.2,6.6-5.2,8.5c-1.9,1.2-5.6,2.4-7.7,1c-1.4,0-2.8-0.7-4-1.4
			c-1.2-0.6-2.3-1.5-3.2-2.5c-1.9-2-3.2-4.5-3.6-7.2c-0.7-5.5,2.4-11.8,8-13.6c0.2-0.1,0.3-0.1,0.5-0.1c0.1-0.1,0.3-0.1,0.4-0.2
			C334.5,627.2,336.3,627.2,338.1,627.6z M341.6,646.8c1.9-2.2,2.3-5.4,1.6-8.2c-0.6-2.7-2.2-5.4-4.8-6.5c-1.2-0.5-2.6-0.7-3.8-0.5
			c-0.7,0.1-1.7,0.6-2.5,0.7c-1.2,0.9-2.2,2-3,3.4c-0.9,1.6-1.3,3.5-1.1,5.3c0.2,2,1.2,3.8,2.6,5.2c0.6,0.7,1.4,1.2,2.2,1.6
			c0.9,0.5,1.9,0.6,2.8,1c0.1,0,0.2,0.1,0.2,0.1c0.2,0,0.5,0,0.8,0c0.6,0,1.2,0,1.7-0.2C339.5,648.5,340.7,647.8,341.6,646.8z"/>
		<path fill="#21C488" d="M338.3,648.8c-0.6,0.2-1.1,0.2-1.7,0.2c-0.3,0-0.5,0-0.8,0c-0.1,0-0.1-0.1-0.2-0.1c-0.9-0.4-1.9-0.5-2.8-1
			c-0.8-0.4-1.5-1-2.2-1.6c-1.4-1.4-2.4-3.2-2.6-5.2c-0.2-1.8,0.2-3.7,1.1-5.3c0.8-1.4,1.8-2.4,3-3.4c0.9-0.2,1.8-0.6,2.5-0.7
			c1.3-0.2,2.7,0,3.8,0.5c2.6,1.2,4.2,3.9,4.8,6.5c0.6,2.7,0.3,6-1.6,8.2C340.7,647.8,339.5,648.5,338.3,648.8z"/>
	</g>
	<g>
	</g>
</g>
</svg>
