<svg width="100" height="100" viewBox="0 0 100 100" fill="#000" xmlns="http://www.w3.org/2000/svg">
<path d="M41.7619 3.2522C46.4062 4.15661 50.8549 6.08765 54.7903 8.67867C58.9702 11.4408 62.6367 15.034 65.4233 19.1894C65.6677 19.5316 65.8877 19.8983 66.1077 20.2649C66.2544 20.4849 66.3766 20.7049 66.4988 20.9249C66.8655 21.536 67.2321 22.1715 67.5743 22.8315C67.9165 23.467 68.2343 24.1025 68.5276 24.7625C68.8454 25.3981 69.2365 26.0091 69.5542 26.6447C69.7009 26.9624 70.2142 26.7669 70.1409 26.4247C69.9698 25.7647 69.872 25.1047 69.6276 24.4936C69.4076 23.907 69.1387 23.3448 68.8698 22.7582C68.4787 21.9515 68.0387 21.1449 67.5988 20.3627C71.7053 17.0628 74.5652 12.2719 75.6896 7.13872C79.7472 9.36308 82.5338 13.4207 84.0248 17.7717C86.0048 23.5403 85.8581 29.749 85.7114 35.7377C85.5403 42.2641 85.3937 48.7661 85.247 55.2925C85.0759 61.8434 84.9292 68.3943 84.7826 74.9451C84.7092 78.4406 84.6115 81.9604 84.5381 85.4559C84.5137 85.6025 84.4893 85.7492 84.4648 85.9203C84.367 86.3603 84.2448 86.7514 84.1226 87.1913C83.8782 88.0469 83.536 88.878 83.0715 89.6357C82.1671 91.2001 80.9205 92.5445 79.5028 93.62C76.2273 96.0644 72.0719 97.0177 68.0876 97.3354C67.3054 97.3843 66.5232 97.4332 65.7166 97.4576C63.2478 97.0177 60.8035 96.5288 58.3835 95.9421C53.9104 94.8666 49.095 93.2778 46.5773 89.4157C45.2085 87.2891 44.6952 84.7226 44.3285 82.2293C43.0086 72.7941 43.4241 63.2122 42.2508 53.7526C41.0775 44.2929 38.0465 34.6133 31.1045 28.0868C28.3424 25.4714 25.0425 23.467 21.6693 21.7071C19.7872 20.7293 17.7339 19.8005 15.6807 19.8005C19.7138 18.8472 23.7959 18.2361 27.9269 17.9917C32.7423 17.6983 37.5576 17.8939 42.3486 18.4805C45.0374 18.8227 47.7262 19.1894 50.3661 19.7271C50.7083 19.8005 50.8549 19.3116 50.5127 19.2138C48.3617 18.5783 46.2107 18.0161 44.0107 17.6494C44.1085 15.7428 43.9863 13.8118 43.7174 11.9297C43.4485 9.8764 43.0574 7.82314 42.4952 5.81877C42.2997 4.96325 42.0553 4.10772 41.7619 3.2522Z" fill="#21C488"/>
<path d="M44.3533 82.2295C44.72 84.7228 45.2088 87.2894 46.6021 89.416C49.1198 93.278 53.9107 94.8669 58.4084 95.9424C60.8283 96.529 63.2971 97.0179 65.7414 97.4579C64.3237 97.4823 62.9304 97.4823 61.5371 97.409C59.5572 97.3357 57.5773 97.1646 55.6462 96.8468C55.304 96.7979 54.9618 96.7246 54.6196 96.6757H54.5707C54.3752 96.6512 54.1796 96.6023 53.9841 96.5535C53.6663 96.4801 53.3485 96.4312 53.0063 96.3579C52.4686 96.2357 51.9308 96.1135 51.3931 95.9668C51.0753 95.8691 50.7331 95.7713 50.4153 95.6735C50.2198 95.6246 50.0487 95.5513 49.8531 95.5024C49.5354 95.4046 49.242 95.2824 48.9487 95.1846C46.8954 94.4024 45.0133 93.278 43.5711 91.5914C42.3734 90.1737 41.5668 88.536 40.9801 86.8249C40.9801 86.8005 40.9557 86.7516 40.9557 86.7272C40.3935 85.0161 40.0757 83.2073 39.8313 81.4229C39.8068 81.3251 39.8068 81.2274 39.7824 81.1296C39.709 77.4631 39.6602 73.7965 39.5868 70.1056C39.5624 68.9567 39.5379 67.7834 39.5379 66.6346C39.5135 66.0479 39.5135 65.4613 39.4891 64.8746C39.4891 64.6791 39.4891 64.4835 39.4646 64.288C39.4891 64.1413 39.4891 64.0191 39.4891 63.8724C39.4646 63.2614 39.4646 62.6503 39.4402 62.0392C39.4157 60.8414 39.3668 59.6437 39.3424 58.446C39.2691 56.0261 39.1957 53.6062 39.1224 51.2107C39.0735 49.9885 39.0491 48.7663 39.0002 47.5442C38.9757 46.4442 38.9513 45.3198 38.8291 44.2198C38.7069 43.1199 38.4869 42.0688 38.0224 41.0666C37.6313 40.2111 37.0691 39.4533 36.458 38.7689C35.3825 37.5223 34.087 36.4712 32.9382 35.3224C32.8648 35.1513 32.7915 34.9557 32.6693 34.8091C32.5471 34.6624 32.4004 34.5402 32.2782 34.418C31.9849 34.1246 31.6916 33.8313 31.4227 33.538C30.836 32.9514 30.2494 32.3891 29.6383 31.8269C28.465 30.727 27.2673 29.6515 26.0451 28.6004C23.5763 26.4738 21.0342 24.4206 18.3943 22.4651C17.2699 21.634 16.121 20.8274 14.9722 20.0207C15.2166 19.9718 15.4366 19.8985 15.681 19.8496C17.7587 19.8496 19.812 20.7785 21.6697 21.7562C25.0429 23.5161 28.3428 25.5205 31.1049 28.136C38.0469 34.6624 41.0779 44.3665 42.2512 53.8017C43.4489 63.188 43.0089 72.7943 44.3533 82.2295Z" fill="#20A069"/>
<path d="M49.4375 4.47451C54.204 6.52777 58.5549 9.53432 62.1726 13.2742C63.9814 15.1319 65.5947 17.1852 66.988 19.3851C66.988 19.4095 67.0124 19.4095 67.0124 19.434C70.9478 15.9141 73.6611 11.2209 74.6388 6.01446C74.7121 5.57447 75.2499 5.52558 75.5677 5.67224C76.1299 5.94112 76.6921 6.25889 77.2298 6.6011C81.483 9.33878 84.2207 13.9097 85.5895 18.7007C87.325 24.7138 87.0317 31.0935 86.885 37.2778C86.7139 43.9264 86.5428 50.5506 86.3961 57.1992C86.225 63.799 86.0539 70.4232 85.9073 77.023L85.6873 85.3827C85.6873 85.4804 85.6628 85.5538 85.6384 85.6515C85.394 86.9715 84.9784 88.267 84.4407 89.4892C84.4407 89.5136 84.4407 89.5136 84.4162 89.5381V89.2936C83.2918 91.6647 81.3119 93.7179 79.1853 95.1356C75.5432 97.5555 71.07 98.3133 66.768 98.5088C63.0526 98.6799 59.2394 98.5333 55.5239 97.9466C55.1328 97.8978 54.7662 97.8244 54.3751 97.7511C54.204 97.7267 54.0329 97.6778 53.8618 97.6533C53.4951 97.58 53.104 97.5067 52.7374 97.4089C52.6885 97.4089 52.6396 97.3844 52.5663 97.3844C52.1019 97.2867 51.6619 97.1644 51.1974 97.0422C50.8797 96.9445 50.5375 96.8467 50.2197 96.7489C49.9997 96.6756 49.8042 96.6267 49.5842 96.5534C49.2664 96.4556 48.9486 96.3334 48.6309 96.2112C47.8731 95.9178 47.1154 95.5756 46.3821 95.1845C44.5977 94.2068 43.0577 92.8379 41.9089 91.1513C41.1267 89.978 40.5156 88.6581 40.0756 87.3137C40.0512 87.2893 40.0267 87.2648 40.0023 87.2159C39.9534 87.1426 39.929 87.0937 39.9045 86.9959C39.9045 86.947 39.8801 86.8982 39.8801 86.8493V86.8248C39.8556 86.7759 39.8312 86.7271 39.8312 86.7026C39.8312 86.6782 39.8312 86.6537 39.8067 86.6048V86.7515C39.7823 86.6293 39.7334 86.4826 39.6845 86.336C39.6845 86.3115 39.6601 86.2871 39.6601 86.2382C39.6112 86.0182 39.5867 85.7982 39.5379 85.5782C39.3912 85.0893 39.269 84.6005 39.1223 84.1116C38.9757 83.5494 38.8534 82.9627 38.7557 82.3761C38.7068 82.1317 38.6823 81.8628 38.6579 81.6184C38.6579 81.5939 38.6335 81.5939 38.6335 81.5695C38.609 81.4228 38.609 81.2761 38.5846 81.1295C38.5601 79.2718 38.5112 77.4141 38.4868 75.5808C38.4379 73.4542 38.4135 71.3521 38.3646 69.2255C38.3401 68.1988 38.3157 67.1478 38.3157 66.1211V64.5323C38.3157 64.1657 38.3157 63.799 38.389 63.4323L38.3157 61.5991L38.169 57.5659C38.0712 55.1949 37.9979 52.8239 37.9246 50.4528C37.8757 49.2551 37.8513 48.0574 37.8024 46.8596C37.7779 45.8086 37.7535 44.7575 37.5824 43.7064C37.4357 42.7287 37.1424 41.7754 36.6535 40.9198C36.2135 40.1621 35.6269 39.5021 35.0158 38.8666C33.9158 37.7422 32.6937 36.7156 31.8137 35.42C31.6426 35.2734 31.4959 35.1023 31.3248 34.9556L30.2982 34.0023L28.3183 32.1691C23.5762 27.8425 18.5653 23.8338 13.261 20.1917C12.8455 19.9228 12.9433 19.2629 13.4322 19.1406C16.0721 18.4562 18.7608 17.894 21.4741 17.5029C26.3139 16.7941 31.2026 16.5496 36.0913 16.7941C38.4379 16.9163 40.7845 17.1363 43.1311 17.5029C43.0577 16.5496 42.96 15.5963 42.8866 14.643C42.4955 10.561 41.6889 6.55221 40.3689 2.66569C40.2223 2.2257 40.7112 1.95682 41.0778 2.00571C43.9866 2.51902 46.7732 3.32566 49.4375 4.47451ZM54.7906 8.6788C50.8552 6.08779 46.4065 4.15674 41.7622 3.25233C42.0311 4.10786 42.3 4.93894 42.52 5.8189C43.0577 7.82328 43.4488 9.87653 43.7422 11.9298C43.9866 13.8364 44.1088 15.743 44.0355 17.6496C46.2354 18.0407 48.3864 18.6029 50.5375 19.214C50.8797 19.3117 50.7086 19.8006 50.3908 19.7273C47.7509 19.1895 45.0621 18.7984 42.3733 18.4807C37.5824 17.894 32.767 17.6985 27.9516 17.9918C23.8207 18.2362 19.7141 18.8718 15.7054 19.8006C15.461 19.8495 15.241 19.9228 14.9965 19.9717C16.1454 20.7784 17.2942 21.585 18.4186 22.4161C21.0341 24.3716 23.6007 26.4004 26.0695 28.5514C27.2916 29.6025 28.4894 30.678 29.6627 31.778C30.2738 32.3402 30.8604 32.9024 31.447 33.489C31.7404 33.7823 32.0337 34.0757 32.3026 34.369L32.6937 34.7601C32.8159 34.9067 32.8892 35.1023 32.9625 35.2734C34.1358 36.4467 35.4069 37.4977 36.4824 38.7199C37.0935 39.4043 37.6557 40.1621 38.0468 41.0176C38.5112 42.0198 38.7312 43.0953 38.8534 44.1708C38.9757 45.2708 38.9757 46.3952 39.0245 47.4952C39.0734 48.7173 39.0979 49.9395 39.1468 51.1617C39.2201 53.5816 39.2934 56.0015 39.3668 58.397C39.3912 59.5947 39.4401 60.7925 39.4645 61.9902C39.4645 62.6013 39.489 63.2124 39.5134 63.8235C39.5134 63.9701 39.5134 64.1168 39.489 64.239C39.489 64.4345 39.489 64.6301 39.5134 64.8256C39.5379 65.4123 39.5623 65.9989 39.5623 66.5856C39.5868 67.7344 39.6112 68.9077 39.6112 70.0566C39.6845 73.7231 39.7334 77.3896 39.8067 81.0806C39.8312 81.1784 39.8312 81.2761 39.8556 81.3739C40.1001 83.1339 40.4178 84.9671 40.98 86.6782C41.0045 86.7026 41.0045 86.7515 41.0045 86.7759C41.5911 88.5114 42.3978 90.1491 43.5955 91.5424C45.0377 93.229 46.9198 94.3534 48.9731 95.1356C49.2664 95.2579 49.5842 95.3556 49.8775 95.4534C50.073 95.5267 50.2441 95.5756 50.4397 95.6245C50.7575 95.7223 51.0997 95.8201 51.4174 95.9178C51.9552 96.0645 52.4929 96.1867 53.0307 96.3089C53.3485 96.3823 53.6907 96.4556 54.0084 96.5045C54.204 96.5534 54.3995 96.5778 54.5951 96.6267H54.644C54.9862 96.7 55.3284 96.7489 55.6706 96.7978C57.6261 97.1156 59.606 97.2867 61.5615 97.36C62.9548 97.4089 64.3725 97.4333 65.7658 97.4089C66.548 97.3844 67.3302 97.36 68.1368 97.2867C72.1211 96.9933 76.2765 96.0156 79.5031 93.5224C80.9208 92.4224 82.1674 91.078 83.0718 89.5381C83.5118 88.7559 83.8785 87.9492 84.1229 87.0937C84.2451 86.6782 84.3673 86.2626 84.4651 85.8226C84.4896 85.676 84.514 85.5293 84.5384 85.3582C84.6118 81.8628 84.7095 78.3429 84.7829 74.8475C84.954 68.2966 85.1007 61.7458 85.2473 55.1949C85.4184 48.6685 85.5651 42.1665 85.7117 35.64C85.8584 29.6269 86.0051 23.4183 84.0251 17.674C82.5341 13.3475 79.7475 9.28989 75.6899 7.04108C74.5899 12.1742 71.73 16.9652 67.5991 20.265C68.0635 21.0472 68.479 21.8294 68.8701 22.6605C69.139 23.2227 69.4079 23.8094 69.6279 24.396C69.8723 25.0315 69.9945 25.6915 70.1412 26.327C70.2145 26.6693 69.7257 26.8648 69.5545 26.547C69.2368 25.9115 68.8457 25.3249 68.5279 24.6649C68.2101 24.0294 67.8924 23.3694 67.5746 22.7338C67.2324 22.0983 66.8658 21.4628 66.4991 20.8272C66.3769 20.6073 66.2302 20.3873 66.108 20.1673C65.888 19.8006 65.6436 19.4584 65.4236 19.0918C62.637 15.0341 58.9705 11.4409 54.7906 8.6788Z"/>
</svg>
