<svg width="100" height="100" viewBox="0 0 100 100" fill="none" xmlns="http://www.w3.org/2000/svg">
<path d="M38.2689 47.0917C37.6346 46.7393 37.4936 45.6821 37.2822 44.9772C37.1412 44.4133 37.0002 43.779 36.8593 43.2151C36.9297 42.7217 37.0002 42.2988 37.0707 41.8054H37.2117C37.987 41.9464 38.8328 42.0873 39.6081 42.2283C39.8901 43.497 39.8901 44.8362 39.5377 46.0345C39.3967 46.5984 38.9033 47.5147 38.2689 47.0917Z" fill="black"/>
<path d="M39.1853 40.607C39.3263 41.1004 39.5377 41.6643 39.6082 42.2281C38.8329 42.0872 37.987 41.9462 37.2117 41.8052H37.0708C37.0003 42.2281 36.8593 42.7215 36.8593 43.2149C36.5774 42.1577 36.2954 41.1004 35.802 40.1136C35.5201 39.4792 35.1677 38.8449 34.5333 38.4925C33.9694 38.14 33.2646 38.14 32.7007 38.14C32.0664 38.2105 31.432 38.3515 30.8681 38.563C30.8681 37.5057 30.7977 36.4484 30.7272 35.4617C30.9386 35.3912 31.1501 35.3207 31.3615 35.3207C33.0532 35.0387 34.9562 35.1092 36.3659 36.096C37.8461 37.2238 38.6214 38.9859 39.1853 40.607Z" fill="black"/>
<path d="M37.2822 44.977C37.4936 45.6113 37.6346 46.6686 38.2689 47.0915C38.9033 47.5144 39.3967 46.5981 39.6081 46.1047C39.9606 44.9065 39.8901 43.5673 39.6786 42.2986C39.8901 42.2986 40.0311 42.3691 40.2425 42.3691V43.0034C40.172 43.5673 40.172 44.2017 40.1015 44.7655V45.0474C40.1015 45.2589 40.0311 45.3999 40.0311 45.6114C39.9606 46.6686 39.8196 47.7964 39.7491 48.8536C39.5377 51.3911 39.1852 53.9285 38.9738 56.4659C38.7623 58.4395 38.9738 60.7655 36.8593 61.8228C35.8725 62.3161 34.7447 62.3866 33.6875 62.5981C32.5597 62.8095 31.3615 62.9505 30.1632 63.021C29.2469 63.0914 28.3307 63.1619 27.3439 63.1619V61.1884C27.8373 60.7655 28.2602 60.2721 28.6126 59.7082C30.0223 59.6377 31.432 59.4263 32.8417 59.2853C33.6875 59.1443 34.4628 59.0034 35.2381 58.8624C35.5906 58.7919 35.3791 58.8624 35.5201 58.7214C35.661 58.4395 35.661 58.0166 35.7315 57.7346C36.0134 55.8316 36.0134 53.9285 36.1544 52.0254C36.2954 50.1928 36.4364 48.3602 36.6478 46.5276L36.7888 45.0474L36.8593 44.2017C36.8593 43.9197 36.9297 43.6378 36.9297 43.3558V43.2149C37.0002 43.7787 37.1412 44.4131 37.2822 44.977Z" fill="black"/>
<path d="M36.8593 43.215V43.3559C36.8593 43.6379 36.7888 43.9198 36.7888 44.2018L36.7183 45.0475L36.5773 46.5277C36.4364 48.3603 36.2249 50.1929 36.0839 52.0255C35.943 53.9286 35.943 55.8317 35.661 57.7347C35.5906 58.0167 35.5905 58.4396 35.4496 58.7215C35.3791 58.8625 35.5201 58.792 35.1676 58.8625C34.3923 59.0035 33.5465 59.1444 32.7712 59.2854C31.3615 59.4968 29.9518 59.6378 28.5421 59.7083C29.106 58.8625 29.4584 57.8757 29.7403 56.889C30.1632 55.2678 30.3042 53.5762 30.3747 51.8845C30.6566 47.444 30.8681 43.074 30.7976 38.6335C31.3615 38.3515 31.9958 38.2106 32.6302 38.2106C33.2646 38.1401 33.9694 38.2106 34.4628 38.563C35.0972 38.9154 35.4496 39.5498 35.7315 40.1842C36.2954 41.1004 36.5773 42.1577 36.8593 43.215Z" fill="#21C488"/>
<path d="M30.7976 38.6335C30.8681 43.0036 30.6567 47.4441 30.3748 51.8846C30.2338 53.5762 30.1633 55.2679 29.7404 56.889C29.4584 57.8758 29.106 58.8626 28.5422 59.7084C26.2162 59.8494 23.8902 59.9198 21.6347 59.6379C19.0972 59.3559 15.9255 57.7348 17.3351 54.704C18.04 53.2943 19.2382 52.4485 20.5774 51.8846C21.7052 51.3912 22.9739 51.2503 24.1721 50.8978C24.1721 51.8141 24.2426 52.8714 24.5245 53.6467C25.0179 54.8449 26.8505 55.0564 27.203 53.5762C27.4849 52.378 27.2734 50.9683 27.203 49.6996C27.203 48.3604 27.2029 47.0916 27.2734 45.7524C27.3439 44.7657 27.4144 43.8494 27.4849 42.8626C27.4849 42.5807 27.5554 42.3692 27.5554 42.0873C27.5554 42.0168 27.5554 41.8758 27.6258 41.8053C27.9078 41.1005 28.3307 40.3957 28.8946 39.8318C29.4585 39.3384 30.0928 38.9155 30.7976 38.6335Z" fill="#20A069"/>
<path d="M30.7977 38.6335C30.0928 38.9154 29.4585 39.3383 28.8946 39.8317C28.2603 40.3956 27.9078 41.1004 27.6259 41.8053C27.6964 41.2414 27.7669 40.748 27.8374 40.2546C27.8374 40.1136 27.9079 39.9022 27.9079 39.7612C27.1325 39.5497 26.4277 39.3383 25.6523 39.1269C25.8638 38.7744 26.1457 38.422 26.4277 38.0696C27.4849 36.8009 29.0356 35.8846 30.6567 35.4617C30.7272 36.5894 30.7977 37.5762 30.7977 38.6335Z" fill="black"/>
<path d="M27.9783 39.8316C27.9783 39.9726 27.9078 40.1841 27.9078 40.325C27.8373 40.8184 27.7668 41.3823 27.6963 41.8757C27.4144 42.51 27.203 43.2149 26.8505 43.8493C26.4276 44.7656 25.2294 44.3426 24.9475 43.6378C24.8065 43.2853 24.736 42.8625 24.6655 42.51C24.6655 42.4396 24.6655 42.2986 24.736 42.1576C24.736 42.0166 24.8065 41.8052 24.8065 41.5938V41.3118V41.1004C25.0179 40.3955 25.2999 39.7611 25.6523 39.1973C26.4276 39.4087 27.203 39.6202 27.9783 39.8316Z" fill="black"/>
<path d="M26.8505 43.8493C27.1324 43.215 27.4143 42.5101 27.6963 41.8757C27.6963 41.9462 27.6963 42.0167 27.6258 42.1577C27.6258 42.4396 27.5553 42.6511 27.5553 42.933C27.4848 43.9198 27.4143 44.8361 27.3439 45.8229C27.2734 47.1621 27.2734 48.4308 27.2734 49.77C27.2734 51.0387 27.5553 52.3779 27.2734 53.6466C26.9209 55.0563 25.0884 54.8449 24.595 53.7171C24.2426 52.9418 24.2426 51.955 24.2426 50.9682C23.0443 51.3207 21.7756 51.4616 20.6478 51.955C19.3086 52.5189 18.0399 53.3647 17.4056 54.7744C15.9254 57.8052 19.1677 59.4264 21.7051 59.7083C23.9606 59.9902 26.2866 59.9902 28.6126 59.7788C28.2602 60.3427 27.8372 60.836 27.3439 61.2589V63.2325C26.0751 63.2325 24.8064 63.2325 23.4672 63.0916C21.4232 62.9506 19.3791 62.6686 17.617 61.6819C15.9959 60.7656 14.5862 59.2149 14.1633 57.4528C13.7404 55.6907 14.1633 53.7876 15.1501 52.2369C16.2073 50.5453 17.8285 49.3471 19.7316 48.6423C21.0708 48.1489 22.8329 47.6555 24.313 47.7964C24.313 47.0916 24.3835 46.3867 24.454 45.6819C24.5245 44.6246 24.595 43.5674 24.7359 42.5101C24.7359 42.933 24.8064 43.2854 25.0179 43.6378C25.2293 44.3427 26.3571 44.7656 26.8505 43.8493Z" fill="black"/>
<path d="M25.1589 38.9858C25.3703 39.0563 25.5113 39.1268 25.7228 39.1268C25.3704 39.6907 25.0179 40.3955 24.877 41.0299C24.877 40.3955 24.9474 39.6907 25.1589 38.9858Z" fill="black"/>
<path d="M24.8065 41.1006V41.312V41.594C24.8065 41.735 24.736 41.9464 24.736 42.1579C24.736 42.2283 24.736 42.3693 24.6655 42.5103C24.6655 42.0169 24.736 41.5235 24.8065 41.1006Z" fill="black"/>
<path d="M83.8019 38.563C83.8724 37.5057 83.8019 36.4484 84.4362 35.5321C84.5067 35.3912 84.5772 35.3207 84.7182 35.2502C85.2115 34.8273 85.9869 34.8978 86.4098 35.5321C87.1851 36.7304 86.9737 38.4925 86.9737 39.9022C86.9737 41.3118 86.9737 42.7216 86.9032 44.0608C86.9032 46.8801 86.8327 49.629 86.7622 52.4484C86.6917 54.9858 86.6212 57.5233 86.5508 60.1312C86.4803 61.2589 86.4803 62.4571 85.6345 63.3734C84.9296 64.1488 84.0133 64.5012 83.0265 64.7127C79.3613 65.5585 75.6257 66.1224 71.89 66.0519V64.0783C72.172 63.7259 72.5244 63.3735 72.8768 62.9506H73.4407C75.4142 62.8801 77.3878 62.5981 79.3614 62.3162C80.3481 62.1752 81.4054 61.9638 82.3922 61.8228C83.0265 61.6819 83.5199 61.6818 83.5904 60.977C83.7314 59.9197 83.5904 58.7215 83.5904 57.5938V54.6334C83.5904 52.4484 83.5904 50.3339 83.6609 48.1488C83.6609 46.0343 83.7314 43.8493 83.8019 41.6643V38.563Z" fill="black"/>
<path d="M84.7181 35.2503C84.6476 35.3208 84.5066 35.3912 84.4361 35.5322C83.8018 36.4485 83.8018 37.5058 83.8018 38.5631C83.7313 39.6908 83.7313 40.7481 83.7313 41.8758C83.6608 44.0608 83.6608 46.1754 83.5903 48.3604C83.5903 50.4749 83.5199 52.6599 83.5199 54.8449V57.8053C83.5199 58.933 83.6608 60.0608 83.5199 61.1885C83.4494 61.8934 82.8855 61.8934 82.3216 62.0344C81.3348 62.2458 80.2776 62.3868 79.2908 62.5278C77.3172 62.8802 75.3437 63.0916 73.3701 63.1621H72.8062C73.7225 61.9639 74.6388 60.4132 75.2732 58.3692C76.0485 55.9022 75.8371 54.281 75.7666 51.3912C75.4846 41.3119 77.1058 37.1533 74.9208 35.8846C74.4978 35.6732 73.8635 35.4617 72.7357 35.6732C72.6653 35.6027 72.5948 35.4618 72.5243 35.3913C72.9472 34.7569 73.652 34.2635 74.3569 33.9111C77.3877 32.4309 81.2643 32.7833 84.0132 34.7569C84.2952 34.8979 84.5771 35.1093 84.7181 35.2503Z" fill="#21C488"/>
<path d="M74.9913 35.8142C77.1763 37.0829 75.5552 41.2415 75.8371 51.3208C75.9076 54.2106 76.119 55.8318 75.3437 58.2987C74.7094 60.2723 73.7931 61.8934 72.8768 63.0917C71.1147 63.1622 69.2821 63.0917 67.5904 62.7392C66.3217 62.5278 63.9957 62.1754 63.4319 60.8362C62.727 59.2855 63.9957 57.6644 65.2645 56.8891C66.7446 55.9728 68.5772 55.7613 70.2688 55.4794C70.3393 55.9023 70.4803 56.3251 70.6213 56.6776C70.8327 57.2414 71.3261 57.7348 71.9605 57.7348C72.5243 57.7348 73.2292 57.3119 73.2997 56.6776C73.6521 54.7745 73.2997 52.7305 73.2292 50.8274C73.1587 48.8538 73.1587 46.9507 73.1587 44.9772C73.1587 43.0741 73.2292 41.171 73.2292 39.3384C73.2292 38.7041 73.3701 36.5895 72.8063 35.6732C73.934 35.3913 74.5684 35.6028 74.9913 35.8142Z" fill="#20A069"/>
<path d="M72.5948 35.3914C72.6653 35.4618 72.7358 35.5323 72.8062 35.6733C72.6653 35.6733 72.5243 35.7438 72.3129 35.8142C72.4538 35.6028 72.5243 35.4618 72.5948 35.3914Z" fill="black"/>
<path d="M71.5375 35.3208C72.0309 35.1093 72.3833 35.1798 72.5948 35.3913L72.3833 35.8142C72.5243 35.7437 72.6653 35.7437 72.8767 35.6732C73.4406 36.5895 73.2996 38.704 73.2996 39.3384C73.2291 41.2415 73.2291 43.1446 73.2291 44.9771C73.2291 46.9507 73.2291 48.8538 73.2996 50.8273C73.3701 52.7304 73.7225 54.7745 73.3701 56.6775C73.2292 57.3119 72.5948 57.7348 72.0309 57.7348C71.3261 57.7348 70.9032 57.3119 70.6917 56.6775C70.5507 56.3251 70.4098 55.9022 70.3393 55.4793C68.6477 55.7613 66.8151 55.9727 65.3349 56.889C64.0662 57.6643 62.7975 59.2855 63.5023 60.8361C64.1367 62.2458 66.3922 62.5278 67.6609 62.7392C69.423 63.0916 71.1851 63.0916 72.9472 63.0916C72.5948 63.5145 72.3129 63.9374 71.9604 64.2194V66.1929C70.9737 66.1929 69.9164 66.1224 68.9296 65.9815C66.8151 65.6995 64.4186 65.2062 62.6565 64.0079C60.8239 62.7392 60.0486 60.7656 60.401 58.5806C61.1058 54.1401 66.0397 52.66 69.9869 52.66C69.9869 52.1666 69.9869 51.6732 69.9164 51.1798C69.8459 49.3472 69.7754 47.5146 69.8459 45.682C69.8459 43.8494 69.9869 42.0168 70.1278 40.1842C70.1983 39.2679 70.3393 38.2811 70.4803 37.3648C70.5507 36.5895 70.6917 35.6732 71.5375 35.3208Z" fill="black"/>
</svg>
