<svg width="100" height="100" viewBox="0 0 100 100" fill="#000" xmlns="http://www.w3.org/2000/svg">
    <path d="m38.269 47.092c-0.6343-0.3524-0.7753-1.4096-0.9868-2.1145-0.1409-0.5639-0.2819-1.1982-0.4229-1.7621 0.0705-0.4934 0.141-0.9163 0.2115-1.4097h0.141c0.7753 0.141 1.6211 0.2819 2.3964 0.4229 0.282 1.2687 0.282 2.6079-0.0704 3.8062-0.141 0.5639-0.6344 1.4802-1.2688 1.0572z"/>
    <path d="m39.185 40.607c0.141 0.4934 0.3525 1.0573 0.4229 1.6211-0.7753-0.1409-1.6211-0.2819-2.3964-0.4229h-0.141c-0.0705 0.4229-0.2114 0.9163-0.2114 1.4097-0.282-1.0572-0.5639-2.1145-1.0573-3.1013-0.2819-0.6344-0.6344-1.2687-1.2687-1.6211-0.5639-0.3525-1.2687-0.3525-1.8326-0.3525-0.6344 0.0705-1.2687 0.2115-1.8326 0.423 0-1.0573-0.0705-2.1146-0.141-3.1013 0.2115-0.0705 0.4229-0.141 0.6344-0.141 1.6916-0.282 3.5947-0.2115 5.0044 0.7753 1.4801 1.1278 2.2555 2.8899 2.8193 4.511z"/>
    <path d="m37.282 44.977c0.2115 0.6343 0.3525 1.6916 0.9868 2.1145 0.6344 0.4229 1.1278-0.4934 1.3392-0.9868 0.3524-1.1982 0.282-2.5374 0.0705-3.8061 0.2115 0 0.3524 0.0705 0.5639 0.0705v0.6343c-0.0705 0.5639-0.0705 1.1983-0.141 1.7621v0.2819c0 0.2115-0.0705 0.3525-0.0705 0.564-0.0705 1.0572-0.2114 2.185-0.2819 3.2422-0.2115 2.5375-0.5639 5.0749-0.7753 7.6123-0.2115 1.9736 0 4.2996-2.1146 5.3569-0.9868 0.4933-2.1145 0.5638-3.1718 0.7753-1.1277 0.2114-2.326 0.3524-3.5242 0.4229-0.9163 0.0704-1.8326 0.1409-2.8194 0.1409v-1.9735c0.4934-0.4229 0.9164-0.9163 1.2688-1.4802 1.4097-0.0705 2.8193-0.2819 4.229-0.4229 0.8458-0.141 1.6212-0.2819 2.3965-0.4229 0.3524-0.0705 0.141 0 0.2819-0.141 0.141-0.2819 0.141-0.7048 0.2115-0.9868 0.2819-1.903 0.2819-3.8061 0.4229-5.7092 0.141-1.8326 0.2819-3.6652 0.4934-5.4978l0.1409-1.4802 0.0705-0.8457c0-0.282 0.0705-0.5639 0.0705-0.8459v-0.1409c0.0705 0.5638 0.2115 1.1982 0.3524 1.7621z"/>
    <path d="m36.859 43.215v0.1409c0 0.282-0.0705 0.5639-0.0705 0.8459l-0.0705 0.8457-0.141 1.4802c-0.1409 1.8326-0.3524 3.6652-0.4934 5.4978-0.1409 1.9031-0.1409 3.8062-0.4228 5.7092-0.0705 0.282-0.0705 0.7049-0.2115 0.9868-0.0705 0.141 0.0705 0.0705-0.2819 0.141-0.7754 0.141-1.6212 0.2819-2.3965 0.4229-1.4097 0.2114-2.8194 0.3524-4.2291 0.4229 0.5639-0.8458 0.9163-1.8326 1.1983-2.8193 0.4229-1.6212 0.5638-3.3128 0.6343-5.0045 0.282-4.4405 0.4934-8.8105 0.4229-13.251 0.5639-0.282 1.1983-0.4229 1.8326-0.4229 0.6344-0.0705 1.3392 0 1.8326 0.3524 0.6344 0.3524 0.9868 0.9868 1.2687 1.6212 0.5639 0.9162 0.8458 1.9735 1.1278 3.0308z" fill="#21C488"/>
    <path d="m30.798 38.634c0.0705 4.3701-0.1409 8.8106-0.4229 13.251-0.1409 1.6916-0.2114 3.3833-0.6344 5.0044-0.2819 0.9868-0.6343 1.9736-1.1982 2.8194-2.326 0.141-4.652 0.2114-6.9075-0.0705-2.5374-0.282-5.7092-1.9031-4.2995-4.9339 0.7049-1.4097 1.9031-2.2555 3.2423-2.8194 1.1277-0.4934 2.3965-0.6343 3.5947-0.9868 0 0.9163 0.0705 1.9736 0.3524 2.7489 0.4934 1.1982 2.326 1.4097 2.6784-0.0705 0.282-1.1982 0.0705-2.6079 0-3.8766 0-1.3392 0-2.608 0.0705-3.9472 0.0705-0.9867 0.141-1.903 0.2115-2.8898 0-0.2819 0.0704-0.4934 0.0704-0.7753 0-0.0705 0-0.2115 0.0705-0.282 0.282-0.7048 0.7049-1.4096 1.2687-1.9735 0.5639-0.4934 1.1983-0.9163 1.9031-1.1983z" fill="#20A069"/>
    <path d="m30.798 38.634c-0.7048 0.2819-1.3392 0.7048-1.903 1.1982-0.6344 0.5639-0.9868 1.2687-1.2688 1.9736 0.0705-0.5639 0.141-1.0573 0.2115-1.5507 0-0.141 0.0705-0.3524 0.0705-0.4934-0.7753-0.2115-1.4802-0.4229-2.2555-0.6343 0.2114-0.3525 0.4934-0.7049 0.7753-1.0573 1.0573-1.2687 2.6079-2.185 4.2291-2.6079 0.0705 1.1277 0.1409 2.1145 0.1409 3.1718z"/>
    <path d="m27.978 39.832c0 0.141-0.0704 0.3525-0.0704 0.4934-0.0705 0.4934-0.141 1.0573-0.2115 1.5507-0.2819 0.6343-0.4934 1.3392-0.8458 1.9736-0.4229 0.9163-1.6211 0.4933-1.9031-0.2115-0.1409-0.3525-0.2114-0.7753-0.2819-1.1278 0-0.0704 0-0.2114 0.0705-0.3524 0-0.141 0.0705-0.3524 0.0705-0.5638v-0.4934c0.2114-0.7049 0.4934-1.3393 0.8458-1.9031 0.7753 0.2114 1.5506 0.4229 2.3259 0.6343z"/>
    <path d="m26.85 43.849c0.2819-0.6343 0.5638-1.3392 0.8458-1.9736 0 0.0705 0 0.141-0.0705 0.282 0 0.2819-0.0705 0.4934-0.0705 0.7753-0.0705 0.9868-0.141 1.9031-0.2114 2.8899-0.0705 1.3392-0.0705 2.6079-0.0705 3.9471 0 1.2687 0.2819 2.6079 0 3.8766-0.3525 1.4097-2.185 1.1983-2.6784 0.0705-0.3524-0.7753-0.3524-1.7621-0.3524-2.7489-1.1983 0.3525-2.467 0.4934-3.5948 0.9868-1.3392 0.5639-2.6079 1.4097-3.2422 2.8194-1.4802 3.0308 1.7621 4.652 4.2995 4.9339 2.2555 0.2819 4.5815 0.2819 6.9075 0.0705-0.3524 0.5639-0.7754 1.0572-1.2687 1.4801v1.9736c-1.2688 0-2.5375 0-3.8767-0.1409-2.044-0.141-4.0881-0.423-5.8502-1.4097-1.6211-0.9163-3.0308-2.467-3.4537-4.2291s0-3.6652 0.9868-5.2159c1.0572-1.6916 2.6784-2.8898 4.5815-3.5946 1.3392-0.4934 3.1013-0.9868 4.5814-0.8459 0-0.7048 0.0705-1.4097 0.141-2.1145 0.0705-1.0573 0.141-2.1145 0.2819-3.1718 0 0.4229 0.0705 0.7753 0.282 1.1277 0.2114 0.7049 1.3392 1.1278 1.8326 0.2115z"/>
    <path d="m25.159 38.986c0.2115 0.0705 0.3525 0.141 0.5639 0.141-0.3524 0.5639-0.7048 1.2687-0.8458 1.9031 0-0.6344 0.0705-1.3392 0.2819-2.0441z"/>
    <path d="m24.806 41.101v0.4934c0 0.141-0.0705 0.3524-0.0705 0.5639 0 0.0704 0 0.2114-0.0705 0.3524 0-0.4934 0.0705-0.9868 0.141-1.4097z"/>
    <path d="m83.802 38.563c0.0705-1.0573 0-2.1146 0.6344-3.0309 0.0704-0.1409 0.1409-0.2114 0.2819-0.2819 0.4934-0.4229 1.2687-0.3524 1.6916 0.2819 0.7754 1.1983 0.5639 2.9604 0.5639 4.3701 0 1.4096 0 2.8194-0.0705 4.1586 0 2.8193-0.0705 5.5682-0.1409 8.3876-0.0705 2.5374-0.141 5.0749-0.2115 7.6828-0.0705 1.1277-0.0705 2.3259-0.9163 3.2422-0.7048 0.7754-1.6211 1.1278-2.6079 1.3393-3.6652 0.8458-7.4009 1.4097-11.136 1.3392v-1.9736c0.2819-0.3524 0.6343-0.7048 0.9867-1.1277h0.5639c1.9736-0.0705 3.9471-0.3525 5.9207-0.6344 0.9868-0.141 2.044-0.3524 3.0308-0.4934 0.6344-0.1409 1.1278-0.141 1.1983-0.8458 0.1409-1.0573 0-2.2555 0-3.3832v-2.9604c0-2.185-1e-4 -4.2995 0.0704-6.4846 0-2.1145 0.0705-4.2995 0.141-6.4845v-3.1013z"/>
    <path d="m84.718 35.25c-0.0705 0.0705-0.2114 0.1409-0.2819 0.2819-0.6344 0.9163-0.6344 1.9736-0.6344 3.0309-0.0705 1.1277-0.0705 2.185-0.0705 3.3127-0.0704 2.185-0.0704 4.2996-0.1409 6.4846 0 2.1145-0.0705 4.2995-0.0705 6.4845v2.9604c0 1.1277 0.141 2.2555 0 3.3832-0.0705 0.7049-0.6344 0.7049-1.1982 0.8459-0.9868 0.2114-2.0441 0.3524-3.0309 0.4934-1.9735 0.3524-3.9471 0.5638-5.9206 0.6343h-0.5639c0.9163-1.1982 1.8326-2.7489 2.4669-4.7929 0.7754-2.467 0.5639-4.0882 0.4934-6.978-0.2819-10.079 1.3392-14.238-0.8458-15.507-0.4229-0.2114-1.0573-0.4229-2.185-0.2114-0.0705-0.0705-0.141-0.2114-0.2115-0.2819 0.4229-0.6344 1.1278-1.1278 1.8326-1.4802 3.0309-1.4802 6.9075-1.1278 9.6564 0.8458 0.2819 0.141 0.5639 0.3524 0.7048 0.4934z" fill="#21C488"/>
    <path d="m74.991 35.814c2.185 1.2687 0.5639 5.4273 0.8458 15.507 0.0705 2.8898 0.2819 4.511-0.4934 6.9779-0.6343 1.9736-1.5506 3.5947-2.4669 4.793-1.7621 0.0705-3.5947 0-5.2864-0.3525-1.2687-0.2114-3.5947-0.5638-4.1585-1.903-0.7049-1.5507 0.5638-3.1718 1.8326-3.9471 1.4801-0.9163 3.3127-1.1278 5.0043-1.4097 0.0705 0.4229 0.2115 0.8457 0.3525 1.1982 0.2114 0.5638 0.7048 1.0572 1.3392 1.0572 0.5638 0 1.2687-0.4229 1.3392-1.0572 0.3524-1.9031 0-3.9471-0.0705-5.8502-0.0705-1.9736-0.0705-3.8767-0.0705-5.8502 0-1.9031 0.0705-3.8062 0.0705-5.6388 0-0.6343 0.1409-2.7489-0.4229-3.6652 1.1277-0.2819 1.7621-0.0704 2.185 0.141z" fill="#20A069"/>
    <path d="m72.595 35.391c0.0705 0.0704 0.1409 0.1409 0.2114 0.2819-0.1409 0-0.2819 0.0705-0.4933 0.1409 0.1409-0.2114 0.2114-0.3524 0.2819-0.4228z"/>
    <path d="m71.538 35.321c0.4934-0.2115 0.8458-0.141 1.0573 0.0705l-0.2115 0.4229c0.141-0.0705 0.282-0.0705 0.4934-0.141 0.5639 0.9163 0.4229 3.0308 0.4229 3.6652-0.0705 1.9031-0.0705 3.8062-0.0705 5.6387 0 1.9736 0 3.8767 0.0705 5.8502 0.0705 1.9031 0.4229 3.9472 0.0705 5.8502-0.1409 0.6344-0.7753 1.0573-1.3392 1.0573-0.7048 0-1.1277-0.4229-1.3392-1.0573-0.141-0.3524-0.2819-0.7753-0.3524-1.1982-1.6916 0.282-3.5242 0.4934-5.0044 1.4097-1.2687 0.7753-2.5374 2.3965-1.8326 3.9471 0.6344 1.4097 2.8899 1.6917 4.1586 1.9031 1.7621 0.3524 3.5242 0.3524 5.2863 0.3524-0.3524 0.4229-0.6343 0.8458-0.9868 1.1278v1.9735c-0.9867 0-2.044-0.0705-3.0308-0.2114-2.1145-0.282-4.511-0.7753-6.2731-1.9736-1.8326-1.2687-2.6079-3.2423-2.2555-5.4273 0.7048-4.4405 5.6387-5.9206 9.5859-5.9206 0-0.4934 0-0.9868-0.0705-1.4802-0.0705-1.8326-0.141-3.6652-0.0705-5.4978 0-1.8326 0.141-3.6652 0.2819-5.4978 0.0705-0.9163 0.2115-1.9031 0.3525-2.8194 0.0704-0.7753 0.2114-1.6916 1.0572-2.044z"/>
</svg>
