<svg width="100" height="100" viewBox="0 0 100 100" fill="#000" xmlns="http://www.w3.org/2000/svg">
    <path d="m11.388 51.709c-0.3471 0.1157-0.6364 0.1157-0.9835 0.1157h-0.46287c-0.05786 0-0.05785-0.0578-0.11571-0.0578-0.52071-0.2315-1.0993-0.2893-1.62-0.5786-0.46286-0.2314-0.86784-0.5786-1.2728-0.9257-0.80999-0.81-1.3886-1.8514-1.5043-3.0086-0.11572-1.0414 0.11571-2.1407 0.63642-3.0664 0.46286-0.81 1.0414-1.3885 1.7357-1.9671 0.52071-0.1157 1.0414-0.3471 1.4464-0.405 0.75213-0.1157 1.5621 0 2.1985 0.2893 1.5043 0.6943 2.43 2.2564 2.7771 3.7607 0.3472 1.5621 0.1736 3.4714-0.9257 4.7442-0.5207 0.5208-1.215 0.9257-1.9093 1.0993z" fill="#21C488"/>
    <path d="m11.272 39.443c3.9343 0.81 6.0171 5.3228 5.4964 9.0257-0.2893 2.0249-1.2729 3.8185-3.0086 4.9178-1.0992 0.6943-3.2399 1.3885-4.4549 0.5785-0.80999 0-1.62-0.405-2.3143-0.81-0.69428-0.3471-1.3307-0.8678-1.8514-1.4464-1.0993-1.1571-1.8514-2.6035-2.0828-4.1657-0.405-3.1821 1.3886-6.827 4.6285-7.8685 0.11571-0.0578 0.17357-0.0578 0.28928-0.0578 0.05786-0.0579 0.17357-0.0579 0.23142-0.1157 0.98357-0.2893 2.025-0.2893 3.0664-0.0579zm2.025 11.108c1.0993-1.2729 1.3307-3.1243 0.9257-4.7443-0.3471-1.5621-1.2729-3.1242-2.7771-3.7607-0.6943-0.2892-1.5043-0.4049-2.1986-0.2892-0.40499 0.0578-0.98356 0.3471-1.4464 0.405-0.69428 0.5207-1.2728 1.1571-1.7357 1.9671-0.52071 0.9257-0.75214 2.025-0.63643 3.0664 0.11571 1.1571 0.69428 2.1986 1.5043 3.0086 0.34714 0.405 0.80998 0.6942 1.2728 0.9256 0.52071 0.2893 1.0993 0.3472 1.62 0.5786 0.05786 0 0.1157 0.0579 0.1157 0.0579h0.46291c0.3471 0 0.6942 0 0.9835-0.1157 0.6943-0.1157 1.3886-0.5208 1.9093-1.0993z"/>
    <path d="m84.75 51.246c0.1157 1.215 0 2.3722-0.1157 3.5872-0.2315 1.9092-0.5207 4.0499-1.9093 5.4963-0.6943 0.6943-1.5043 1.215-2.43 1.5043 0.6364-3.1243 0.7522-6.3064 0.2893-9.4306 0-0.0579 0-0.1736-0.0579-0.2315-0.1735-1.2728-0.4628-2.6035-0.5207-3.8763-0.0578-1.2729 0.0579-2.5457 0.1736-3.7607 0.5786-6.9428 0.9257-13.886 0.9257-20.828 0-0.81 0-1.62-0.2893-2.3722-0.405-1.0992-1.3885-1.8514-2.4299-2.3721v-0.1157c0.81-0.0578 1.7935-0.0578 2.8928 0.1157 1.2728 0.2315 2.3143 0.5786 3.1821 0.9836-0.2314 0.2893-0.405 0.5785-0.405 0.9835-0.0578 4.86 0.0579 9.72-0.1157 14.58-0.0579 2.3721-0.1736 4.7443-0.3471 7.1164-0.0579 1.1571-0.1736 2.2564-0.0579 3.4135 0.0579 0.5207 0.1157 1.0414 0.2893 1.5043-0.1157 0.3471-0.1157 0.6364 0.0578 1.0414 0.4629 0.7522 0.7522 1.62 0.8679 2.6614z" fill="#21C488"/>
    <path d="m85.792 19.425c0.6364 0.1736 0.9836 0.7522 1.0414 1.3886 0.2315 4.6864 0.1157 9.4306-0.1157 14.175-0.0578 2.3142-0.2314 4.6863-0.3471 7.0006-0.0579 1.0993-0.1736 2.2564-0.2314 3.3557 0 0.3471 0 0.6943 0.0578 1.0414-0.2893 0.0579-0.5786 0.1157-0.8678 0.2314-0.2315-0.0578-0.405-0.0578-0.6365 0-0.2314 0.0579-0.405 0.1736-0.5785 0.3472-0.1157 0.1735-0.2315 0.3471-0.2893 0.5207-0.1736-0.4629-0.2314-0.9836-0.2893-1.5043-0.1157-1.1571 0-2.2564 0.0579-3.4135l0.3471-7.1164c0.1736-4.8599 0.0579-9.7199 0.1157-14.58 0-0.405 0.1736-0.7521 0.405-0.9835 0.1736-0.1736 0.405-0.2893 0.6364-0.405 0.2315-0.1158 0.4629-0.1157 0.6943-0.0579z"/>
    <path d="m78.328 18.731v0.1157c-0.0579-0.0579-0.1157-0.0579-0.2314-0.1157h0.2314z"/>
    <path d="m78.154 18.731c0.0578 0.0578 0.1157 0.0578 0.2314 0.1157 0.0579 0.8678-0.0579 1.7936-0.1157 2.6035-0.0579 1.215-0.1157 2.4879-0.1736 3.7029-0.1157 2.5457-0.2314 5.1492-0.3471 7.7528-0.1157 3.9342-0.2315 7.9263-0.2315 11.861-0.2892 0.2892-0.6364 0.6364-0.9257 0.9835-0.4628 0.2315-0.8678 0.5786-1.215 1.0414l-0.1157 0.1158v-0.0579c0.1158-0.1157 0.2315-0.2893 0.3472-0.405 0.3471-0.405 0.8678-0.81 0.9835-1.3307 0.1158-0.4628-0.1735-0.9257-0.6942-0.9257-0.2315 0-0.4629 0-0.6365 0.1157-0.0578-3.8185-0.0578-7.6371 0.0579-11.514 0.0578-2.6035 0.1736-5.1492 0.2893-7.7527 0.0578-1.2729 0.1157-2.4879 0.2314-3.7029 0.0579-0.6943 0.0579-1.3307 0.1736-2.025 0.1157-0.6364 0.1157-1.3307 0.4628-1.8514 0.3472-0.5207 1.3307-0.6943 1.62 0 0.1736 0.3472 0.2314 0.7522 0.2893 1.215-0.1157 0.0579-0.1736 0.0579-0.2314 0.0579z"/>
    <path d="m96.379 50.321c-0.1157 0-0.2314 0.0579-0.3471 0.0579 0.0579-0.1157 0.2314-0.1157 0.3471-0.0579z"/>
    <path d="m94.875 50.61c0.405-0.0579 0.81-0.1736 1.1571-0.2315 0.1157 0 0.2314-0.0578 0.3472-0.0578h0.8099c0.0579 0.9257-0.1157 1.9093-0.5785 2.6035-0.9836 1.5622-2.9507 1.9672-4.5707 2.5457-0.9257 0.3472-1.9093 0.6943-2.835 0.9836-0.6364 0.1736-1.5043 0.5207-2.1985 0.5207 0.1157-0.5207 0.1735-1.0993 0.2314-1.62 0-0.1736 0.0579-0.3471 0.0579-0.5207 0.4628-0.2314 0.9835-0.405 1.4464-0.5786 1.0414-0.405 2.0828-0.7521 3.1242-1.1571 0.81-0.2893 1.6779-0.4628 2.3722-0.9836 0.5207-0.2892 0.6364-0.8678 0.6364-1.5042z"/>
    <path d="m94.817 50.32v0.2893c-2.1407 0.405-4.2235 0.8678-6.3642 1.2728-0.3472 0.0579-0.6943 0.1158-1.0993 0.2315 0-1.2729-0.1736-2.5457-0.6364-3.7029h0.1735c0.5786-0.0578 1.0993-0.0578 1.6779-0.1157 1.0993-0.1157 2.2564-0.2314 3.3557-0.405 0.6942-0.0578 1.6199-0.3471 2.1985 0.1736 0.5786 0.5786 0.6943 1.5043 0.6943 2.2564z" fill="#9E744D"/>
    <path d="m88.453 51.94c2.1407-0.405 4.2814-0.8678 6.3642-1.2728 0 0.6364-0.1157 1.1571-0.6942 1.5621-0.6943 0.4629-1.62 0.6943-2.3722 0.9836-1.0414 0.3471-2.0828 0.7521-3.1242 1.1571-0.405 0.1736-0.9257 0.3472-1.4464 0.5786 0.1157-0.8679 0.1735-1.7936 0.1735-2.7193 0.405-0.1736 0.7522-0.2314 1.0993-0.2893z" fill="#825E41"/>
    <path d="m87.18 55.354c-0.0578 0.5207-0.1157 1.0993-0.2314 1.62-0.2314 0-0.4628-0.0579-0.6943-0.1736-0.2314-0.1157-0.4628-0.5207-0.2893-0.81 0.2315-0.5785 0.7522-0.9257 1.3307-1.1571-0.1157 0.1736-0.1157 0.3471-0.1157 0.5207z"/>
    <path d="m86.196 47.37c0.2314 0.3472 0.405 0.6943 0.5207 1.0414-0.2893 0-0.5785 0.0579-0.81 0.0579 0.0579-0.0578 0.0579-0.1157 0.1157-0.1736 0.1157-0.2892 0.1736-0.6364 0.1736-0.9257z"/>
    <path d="m94.817 50.321c-0.0579-0.7521-0.1158-1.6778-0.6943-2.1985-0.5207-0.5208-1.5043-0.2893-2.1986-0.1736-1.0992 0.1157-2.2564 0.2893-3.3556 0.405-0.5786 0.0579-1.0993 0.1157-1.6779 0.1157h-0.1736c-0.1157-0.3471-0.3471-0.6943-0.5207-1.0414 0-0.3471 0-0.6943-0.0578-1.0414 0.1735-0.0579 0.3471-0.0579 0.5785-0.1157 0.5786-0.1157 1.1572-0.1736 1.7357-0.2893 1.1572-0.1736 2.3722-0.2893 3.5293-0.405 0.9836-0.1157 1.9093-0.2314 2.835 0.1735 0.7521 0.3472 1.3885 1.0415 1.7357 1.7936 0.3471 0.7521 0.6364 1.7936 0.6364 2.7771h-0.81c-0.1157-0.0578-0.2893 0-0.3471 0.0579-0.405 0.0578-0.81 0.1736-1.1572 0.2314 0-0.0578-0.0578-0.1736-0.0578-0.2893z"/>
    <path d="m86.196 46.386c0 0.3472 0.0578 0.6943 0.0578 1.0415-0.0578-0.0579-0.1157-0.1157-0.1157-0.2315-0.2314-0.2892-0.4628-0.5207-0.7521-0.5785 0.1735-0.1157 0.5207-0.1736 0.81-0.2315z"/>
    <path d="m85.213 48.353c-0.6942-0.1736-0.8678-1.2729-0.2314-1.62 0.1157-0.0579 0.2315-0.1157 0.2893-0.1157 0.2893 0.0578 0.5786 0.2893 0.7521 0.5785 0.0579 0.0579 0.1158 0.1158 0.1158 0.2315 0 0.2893-0.0579 0.5785-0.1736 0.9257 0 0.0578-0.0579 0.1157-0.1157 0.1735-0.1736-0.0578-0.405-0.1157-0.6365-0.1735z"/>
    <path d="m84.982 46.733c-0.6943 0.3472-0.5207 1.4464 0.2314 1.62 0.2314 0.0579 0.4629 0.1157 0.6943 0.1157-0.2314 0.2315-0.6364 0.405-0.9257 0.2893-0.6364-0.2314-0.9836-0.7521-1.1572-1.2728 0.0579-0.1736 0.1158-0.3472 0.2893-0.5208 0.1157-0.1735 0.3472-0.2892 0.5786-0.3471 0.2314-0.0578 0.4628-0.0578 0.6364 0-0.1157 0-0.2314 0.0579-0.3471 0.1157z"/>
    <path d="m86.775 48.412c0.4628 1.1572 0.6364 2.43 0.6364 3.7029 0 0.9257-0.0578 1.8514-0.1736 2.7192-0.5785 0.2315-1.0992 0.6365-1.3307 1.1572-0.1157 0.2893 0.0579 0.6364 0.2893 0.8099 0.2315 0.1158 0.4629 0.1736 0.6943 0.1736-0.3471 2.025-1.0993 3.9921-2.7193 5.4385-1.1571 0.9836-2.4878 1.62-3.9342 1.8515l-0.2314-1.3886c0.0578-0.3472 0.1735-0.7521 0.2314-1.0993 0.9257-0.2892 1.7935-0.81 2.43-1.5043 1.3885-1.4464 1.7357-3.5292 1.9092-5.4963 0.1157-1.1572 0.2315-2.3721 0.1158-3.5871-0.1158-1.0414-0.4629-1.9093-0.8679-2.7772-0.1736-0.3471-0.1736-0.6942-0.0579-1.0414 0.2315 0.5786 0.5208 1.0414 1.1572 1.2729 0.2893 0.1157 0.6943 0 0.9257-0.2893 0.3471 0.1157 0.6364 0.0578 0.9257 0.0578z"/>
    <path d="m80.006 62.933 0.2314 1.3885c-0.9257 0.1736-1.9093 0.1736-2.8928-0.0578-1.1572-0.2315-2.2565-0.81-3.1822-1.62-0.5207-0.4629-1.0414-0.9836-1.3307-1.62 0.5208-0.2893 0.9836-0.5786 1.5043-0.8679l1.0414 0.8679c0.7522 0.5207 1.6779 0.8678 2.5457 0.9835 0.7522 0.1157 1.5621 0.0579 2.3143-0.1735-0.0579 0.3471-0.1157 0.6943-0.2314 1.0993z"/>
    <path d="m78.733 56.685c-0.2314 0.405-0.4628 0.8678-0.6943 1.2728-0.1157 0.2314-0.2893 0.4629-0.4628 0.6943v0.0579l-0.2315 0.2314c-0.5785 0.1735-1.1571 0.405-1.7357 0.6364-0.1157 0.0579-0.1735 0.0578-0.2892 0.1157-0.1736-0.0579-0.3472-0.1736-0.4629-0.3471-0.3471-0.3472-0.405-0.8679-0.1736-1.2729 0.2315-0.405 0.5208-0.4628 0.8679-0.6943 0.0579-0.0578 0.1736-0.1157 0.2893-0.2314 0.4628-0.1735 0.9835-0.2893 1.4464-0.405 0.5207-0.1157 0.9836-0.1157 1.4464-0.0578z"/>
    <path d="m77.576 58.652c0.1736-0.2315 0.3471-0.4629 0.4628-0.6943 0.2315-0.405 0.4629-0.8678 0.6943-1.2728-0.0578 0.3471-0.1736 0.7521-0.3471 1.0414-0.405 0.9835-1.8514 2.4299-3.0086 1.9092 0.0579-0.0578 0.1736-0.0578 0.2893-0.1157 0.5786-0.2314 1.1571-0.4628 1.7357-0.6364l0.1736-0.1736c-0.0579 0-0.0579 0 0-0.0578z"/>
    <path d="m75.898 47.602c1.3307 0.1736 2.025 1.6779 2.4878 2.835 0.2893 0.6943 0.4629 1.4464 0.5208 2.1407 0.0578 0.4629 0.0578 0.8678 0.0578 1.3307 0 0.8678-0.0578 1.8514-0.2893 2.7771-0.4628 0-0.9257 0-1.3885 0.0579-0.4629 0.1157-0.9836 0.2314-1.4464 0.405 0.2314-0.2893 0.3471-0.6943 0.4049-1.0993 0.1158-0.4629 0.1736-0.9257 0.1736-1.3885v-1.1572c0-0.8678-0.1157-1.6778-0.405-2.5457-0.1157-0.2893-0.2893-0.6364-0.4628-0.9257 0.2893-0.1157 0.5785-0.1735 0.8678-0.2893 0.6943-0.2892 0.6364-1.3885-0.1736-1.3885-0.405 0-0.81-0.0579-1.2149-0.0579 0.1157-0.405 0.4628-0.7521 0.8678-0.6943z"/>
    <path d="m75.377 59.636c1.1571 0.5207 2.6035-0.9257 3.0085-1.9092 0.1736-0.3472 0.2893-0.6943 0.3472-1.0414 0.2314-0.9258 0.2892-1.8515 0.2892-2.7772 0-0.4628 0-0.8678-0.0578-1.3307l1.6778-0.2314c0.405 3.1243 0.2893 6.3642-0.2893 9.4306-0.7521 0.2315-1.5042 0.2893-2.3142 0.1736-0.9257-0.1157-1.7936-0.5207-2.5457-0.9836-0.3471-0.2314-0.6943-0.5785-1.0414-0.8678l0.9257-0.4629z" fill="#20A069"/>
    <path d="m75.898 44.246c0.5207 0 0.81 0.4629 0.6943 0.9257-0.1157 0.5207-0.6364 0.9836-0.9836 1.3307-0.1157 0.1157-0.2314 0.2893-0.3471 0.405v-2.4878c0.1736-0.1736 0.405-0.2314 0.6364-0.1736z"/>
    <path d="m75.03 48.296c0.405 0 0.81 0.0578 1.215 0.0578 0.81 0 0.9257 1.0993 0.1736 1.3886-0.2893 0.1157-0.5786 0.2314-0.8678 0.2893-0.2893-0.5207-0.5786-0.9836-0.5786-1.5621 0-0.0579 0.0578-0.1157 0.0578-0.1736z"/>
    <path d="m72.311 46.907c0.1735-0.2892 0.405-0.5207 0.5785-0.7521 0.405-0.4628 0.8679-0.81 1.3307-1.1571 0.2315-0.1736 0.405-0.2893 0.6365-0.4629 0.1157-0.0578 0.1735-0.1157 0.2892-0.1736v2.4879c-0.1735 0.2314-0.405 0.405-0.5785 0.6364-0.0579 0.1157-0.1736 0.1736-0.2315 0.2893 0 0.0578-0.0578 0.0578-0.0578 0.1157-0.0579 0.0579-0.0579 0.1157-0.1157 0.1736 0 0-0.0579 0.1157-0.1157 0.1735h-2.3722c0.0579-0.1735 0.0579-0.2892 0.1158-0.4628 0.2314-0.2893 0.3471-0.5786 0.5207-0.8679z"/>
    <path d="m78.907 52.577c-0.1157-0.7522-0.2893-1.4465-0.5207-2.1407-0.4629-1.1572-1.0993-2.6614-2.4879-2.835-0.405-0.0578-0.81 0.2893-0.8678 0.6943h-0.9257c0.0578-0.0579 0.1157-0.1736 0.1157-0.1736 0.0579-0.0579 0.0579-0.1157 0.1157-0.1736 0-0.0578 0.0579-0.0578 0.0579-0.1157 0.0578-0.1157 0.1735-0.1736 0.2314-0.2893 0.1736-0.2314 0.405-0.4628 0.5786-0.6364v0.0579l0.0578-0.0579c0-0.0578 0.0579-0.0578 0.0579-0.0578 0.3471-0.405 0.7521-0.7522 1.215-1.0415 0.2892-0.3471 0.5785-0.6942 0.9257-0.9835 0-3.9343 0.0578-7.9264 0.2314-11.861 0.0578-2.6036 0.1736-5.1493 0.3471-7.7528 0.0579-1.2729 0.1157-2.4879 0.1736-3.7029 0.0579-0.8099 0.1736-1.7357 0.1157-2.6035 1.0993 0.5207 2.025 1.2729 2.43 2.3721 0.2893 0.7522 0.2893 1.5622 0.2893 2.3721 0 6.9428-0.2893 13.944-0.9257 20.828-0.1157 1.2729-0.2315 2.5457-0.1736 3.7607 0.0579 1.3307 0.3472 2.6036 0.5207 3.8764 0 0.0579 0 0.1736 0.0579 0.2315l-1.62 0.2314z" fill="#20A069"/>
    <path d="m73.294 59.52c0.405 0.1157 0.7521 0.3472 1.0993 0.6365-0.5207 0.2893-1.0415 0.5785-1.5043 0.8678-0.1736-0.3471-0.2314-0.7521-0.1736-1.1571 0-0.2893 0.3471-0.405 0.5786-0.3472z"/>
    <path d="m72.889 50.089c0.2893-0.0578 0.5207-0.1735 0.6364-0.405 0.1157-0.2314 0.1736-0.4628 0.2315-0.7521 0-0.0578 0.0578-0.1157 0.0578-0.1736v-0.0578c0.0579-0.0579 0.1157-0.1157 0.1157-0.1736s0.0579-0.1157 0.1157-0.1736l0.0579-0.0578h0.9257c0 0.0579-0.0579 0.1157-0.0579 0.1736 0 0.5207 0.2893 1.0414 0.5786 1.5621-0.4628 0.1157-0.9257 0.2893-1.4464 0.3471-0.405 0.0579-0.81 0.0579-1.2729 0.1157l0.0579-0.405z"/>
    <path d="m71.559 59.172c1.215-0.7521 2.4878-1.3885 3.8185-1.8514 0.1736-0.0578 0.3471-0.1157 0.5207-0.1735-0.0578 0.1157-0.2314 0.1735-0.2893 0.2314-0.3471 0.1735-0.6942 0.2893-0.8678 0.6943-0.2314 0.4049-0.1736 0.9257 0.1736 1.2728 0.1157 0.1736 0.2892 0.2893 0.4628 0.3471-0.3471 0.1736-0.6943 0.2893-0.9835 0.4629-0.3472-0.2893-0.6943-0.5207-1.0993-0.6364-0.2315-0.0579-0.5786 0.1157-0.6364 0.3471-0.0579 0.405 0 0.81 0.1735 1.1572-4.1657 2.6035-7.5792 6.4799-11.456 9.5463-4.5707 3.5871-9.5463 6.5378-14.927 8.7363-5.265 2.1407-10.877 3.5872-16.547 4.1657-5.3228 0.5786-11.108 0.2315-15.911-2.43-3.7028-2.0249-6.4799-5.4385-7.8685-9.3727l0.57857-0.1736c0.69428 0.6364 1.5043 1.1571 2.3721 1.5621 0.92571 1.7936 2.1986 3.4136 3.7607 4.6286 1.9671 1.62 4.3392 2.6035 6.8271 3.1242 5.1492 1.1571 10.703 0.5207 15.795-0.5786 5.3807-1.1571 10.53-3.0664 15.39-5.6699 5.0335-2.6614 9.4885-6.0171 13.712-9.8356 2.1407-1.9672 4.455-3.9343 7.0007-5.5543z"/>
    <path d="m73.526 49.684c-0.1158 0.2314-0.3472 0.405-0.6365 0.405-0.1735 0-0.3471 0-0.5207-0.1157-0.405-0.2893-0.6364-0.6943-0.6364-1.215 0-0.1736 0-0.3471 0.0579-0.5207 0.6942 0.0578 1.3885 0.0578 2.1406 0h0.2315s0 0.0579-0.0579 0.0579c-0.0578 0.0578-0.0578 0.1157-0.1157 0.1735 0 0.0579-0.0579 0.1157-0.1157 0.1736v0.0578c0 0.0579-0.0579 0.1158-0.0579 0.1736-0.1157 0.3472-0.1735 0.5786-0.2892 0.81z"/>
    <path d="m71.732 48.758c0 0.5207 0.2314 0.9257 0.6364 1.215 0.1157 0.1157 0.3471 0.1157 0.5207 0.1157v0.3471c-0.2893 0-0.5786 0.0579-0.8678 0.0579-6.1328 0.1735-12.15-1.9093-17.878-3.7607-6.0171-1.9093-12.208-3.4714-18.514-3.5871-4.5706-0.1157-9.1992 0.5786-13.481 2.2564-0.0578-0.2314-0.1735-0.5207-0.2314-0.7522-0.1157-0.4628-0.2893-0.9257-0.4628-1.3885 5.3806-2.1407 11.456-2.835 17.241-2.3721 6.5378 0.5207 12.786 2.3721 19.035 4.2814 3.0664 0.9257 6.1328 1.9092 9.3149 2.4878 1.5043 0.2893 3.0085 0.4628 4.5707 0.5786h0.2892c-0.1735 0.1735-0.1735 0.3471-0.1735 0.5207z"/>
    <path d="m40.085 73.406c8.1577-3.4714 14.753-10.067 22.68-14.233 4.2814-2.2564 8.9099-3.7607 13.712-4.5128 0 0.4628-0.0579 0.9256-0.1736 1.3885-0.0578 0.3471-0.1736 0.81-0.405 1.0993-0.1736 0.0578-0.3471 0.1157-0.5207 0.1735-1.3307 0.5208-2.6035 1.0993-3.8185 1.8515-2.5457 1.5621-4.86 3.5871-7.0585 5.5542-4.2236 3.8185-8.6785 7.1742-13.712 9.8356-4.8599 2.5457-10.009 4.455-15.39 5.67-5.1493 1.0992-10.646 1.7935-15.795 0.5785-2.43-0.5785-4.8599-1.5621-6.8271-3.1242-1.5621-1.2729-2.835-2.8928-3.7606-4.6285 1.3306 0.6364 2.7772 1.0414 4.2236 1.3885 3.8764 0.9257 7.8685 1.5621 11.918 1.6779 0 0.1735 0.1158 0.3471 0.2315 0.405 0.8678 0.5785 1.8514 0.6942 2.8928 0.7521 1.0993 0.0578 2.1407 0.0579 3.24-0.0579 2.0828-0.1735 4.1078-0.5785 6.0749-1.2728 0.9257-0.3471 2.025-0.6943 2.6036-1.5043 0.1735-0.2314 0.405-0.5207 0.2314-0.81-0.0579-0.1157-0.2314-0.1736-0.3471-0.2314z" fill="#825E41"/>
    <path d="m32.101 71.033c1.62-0.5207 3.3557-0.6364 5.0914-0.4628 0.9257 0.0579 1.7936 0.2314 2.7193 0.2314 0.8678 0 1.6199-0.0578 2.4878-0.2314 0.1157 0 0.1157-0.1736 0.0579-0.2314-0.2893-0.2315-0.6365-0.4629-0.9258-0.6365-0.405-0.1735-0.81-0.3471-1.215-0.4628-0.8678-0.2893-1.7935-0.405-2.6613-0.5207-1.7357-0.1736-3.5293-0.1157-5.265 0.2893-1.6778 0.405-3.1243 1.2149-4.6285 2.0828-1.5622 0.8678-3.1243 1.62-4.9178 1.9671-0.2315 0.0579-0.2893 0.4629-0.0579 0.5207 3.24 1.5043 6.3642-1.62 9.3149-2.5457zm0.5207 4.2236c-1.215 0.1735-2.4299 0.2314-3.6449 0.2314-1.1572 0-2.3722-0.2314-3.4714 0.0579-0.2893 0.0578-0.405 0.2892-0.3472 0.5785-3.9921-0.1157-8.0421-0.7521-11.918-1.6778-1.4464-0.3472-2.8928-0.7522-4.2235-1.3886l-0.52072-1.0414c-2.025-4.5128-1.8514-9.7199 0.11572-14.233 1.7936-4.1657 4.9757-7.5793 8.7942-10.009 0.2315 0.4628 0.4629 0.9257 0.7522 1.3885l0.6943 1.215c-0.5786 0.2314-1.0415 0.4629-1.5622 0.8679s-1.0993 0.7521-1.215 1.3885c-0.0578 0.2893 0.1157 0.5786 0.4629 0.5786 0.5786 0 1.0414-0.405 1.5621-0.6364 0.5786-0.2893 1.0993-0.5786 1.7357-0.7522 0.2314-0.0578 0.405-0.1157 0.6364-0.1735 0.405-0.1157 0.81-0.1736 1.215-0.2315 0.6364-0.1157 1.215-0.405 1.7936-0.6943 1.1571-0.6364 2.1985-0.5785 3.4135-0.4049 0.6364 0.1157 1.2729 0.2314 1.9093 0.1157 0.6364-0.1158 0.81-0.4629 1.215-0.81 0.1157-0.1157 0.0578-0.2893-0.1157-0.2893-0.1158-0.0579-0.2893-0.2314-0.4629-0.2893-0.2893-0.1736-0.5786-0.2314-0.8678-0.2893-0.6943-0.1157-1.3307-0.1735-2.025-0.2892-1.215-0.1736-2.3143-0.1158-3.4136 0.3471-0.1735-1.1572-0.6364-2.2564-1.0414-3.3557 4.2814-1.6778 8.9099-2.3143 13.481-2.2564 6.3642 0.1157 12.497 1.6778 18.514 3.5871 5.7857 1.8514 11.745 3.9342 17.878 3.7607 0.2893 0 0.5786 0 0.8679-0.0579 0.405 0 0.81-0.0578 1.2728-0.1157 0.5208-0.0578 0.9836-0.1735 1.4465-0.3471 0.1735 0.3471 0.3471 0.6364 0.4628 0.9257 0.2893 0.8678 0.405 1.62 0.405 2.5457v1.1571c-4.7442 0.7522-9.4306 2.2564-13.712 4.5128-7.9264 4.1657-14.522 10.761-22.68 14.233-0.2315-0.0578-0.5207-0.1156-0.6943-0.0578-0.2893 0-0.5207 0.1157-0.81 0.2314-1.9093 0.6364-3.8185 1.3886-5.9014 1.6779zm-0.405-0.8679c0.3472 0 0.7522-0.0578 1.0993-0.1157 0.2893-0.0579 0.6364-0.1157 0.9257-0.2314 0.1736-0.0579 0.2893-0.1157 0.4629-0.1736 0.2892-0.1157 0.4628-0.2314 0.6942-0.405 0.2315-0.2314 0.2893-0.6364 0.1736-0.9257s-0.4628-0.5207-0.7521-0.5207c-0.6943 0.0579-1.2729 0.2893-1.9093 0.5207-0.2893 0.0579-0.5786 0.1736-0.8678 0.2893-0.2893 0.1157-0.6943 0.2314-0.8679 0.4628 0 0.0579-0.0579 0.0579-0.0579 0.0579-0.2314 0.1736-0.1157 0.5786 0.1158 0.6943 0 0 0.0578 0 0.0578 0.0578 0.1736 0.2893 0.5786 0.2893 0.9257 0.2893z" fill="#9E744D"/>
    <path d="m31.985 72.827c0.2892-0.1158 0.5785-0.1736 0.8678-0.2893 0.6364-0.1736 1.2729-0.4629 1.9093-0.5207 0.3471 0 0.6364 0.2314 0.7521 0.5207s0.0579 0.6943-0.1735 0.9257c-0.2315 0.1736-0.405 0.2893-0.6943 0.405-0.1736 0.0578-0.2893 0.1157-0.4629 0.1736-0.2893 0.1157-0.6364 0.1735-0.9257 0.2314-0.3471 0.0578-0.6943 0.1157-1.0993 0.1157-0.3471 0-0.81 0-1.0414-0.2893 0 0-0.0578 0-0.0578-0.0578-0.2315-0.1157-0.2893-0.5207-0.1157-0.6943 0.0578 0 0.0578-0.0579 0.0578-0.0579 0.2893-0.2314 0.6943-0.3471 0.9836-0.4628z"/>
    <path d="m40.143 74.447c-0.6364 0.7521-1.7357 1.1572-2.6036 1.5043-1.9671 0.6943-3.9921 1.1571-6.0749 1.2729-1.0993 0.1157-2.1407 0.1157-3.24 0.0578-0.9836-0.0579-2.025-0.1736-2.8928-0.7521-0.1736-0.1157-0.2314-0.2893-0.2314-0.405 4.5128 0.1157 8.9677-0.4629 13.191-1.9672 0.5785-0.2314 1.215-0.4628 1.7935-0.6942 0.1157 0.0578 0.2893 0.1157 0.3472 0.2314 0.1157 0.2314-0.1158 0.5207-0.2893 0.7521z"/>
    <path d="m38.291 74.157c-4.2235 1.5043-8.6784 2.0829-13.191 1.9671-0.0578-0.2314 0.1158-0.4628 0.3472-0.5785 1.1571-0.2893 2.3142-0.0579 3.4714-0.0579 1.215 0 2.43-0.0578 3.6449-0.2314 2.0829-0.3471 3.9922-1.0414 5.9593-1.7357 0.2893-0.1157 0.5207-0.1736 0.81-0.2314 0.1735 0 0.4628 0 0.6942 0.0578-0.5207 0.3472-1.1571 0.5786-1.7357 0.81z"/>
    <path d="m42.457 70.512c-0.8679 0.1736-1.62 0.2315-2.4878 0.2315-0.9257 0-1.7936-0.1736-2.7193-0.2315-1.7357-0.1157-3.4714-0.0578-5.0914 0.4629-2.9507 0.9835-6.0749 4.0499-9.3728 2.5457-0.2314-0.1157-0.1735-0.5207 0.0579-0.5207 1.7935-0.3472 3.2978-1.0993 4.9178-1.9672 1.5043-0.8099 2.9507-1.6778 4.6285-2.0828 1.7357-0.405 3.5293-0.4629 5.265-0.2893 0.9257 0.1157 1.7935 0.1736 2.6614 0.5207 0.405 0.1736 0.8678 0.2893 1.215 0.4629 0.3471 0.1735 0.6364 0.405 0.9257 0.6364 0.0578 0.0579 0.0578 0.2314 0 0.2314z"/>
    <path d="m23.191 49.048c0.0578 0.9835-1.3886 1.3885-1.8515 0.5786 0.4629-0.1736 0.9257-0.4051 1.3886-0.6365 0.1736-0.0579 0.2893-0.1735 0.4629-0.2314v0.2893z"/>
    <path d="m23.133 48.758c-0.1736 0.0579-0.3472 0.1157-0.4629 0.2314-0.4628 0.2314-0.8678 0.4629-1.3885 0.6365 0 0 0-0.0579-0.0579-0.0579-0.5207-1.0414-0.6942-2.2564-0.9835-3.4135 0.5785-0.2893 1.215-0.5207 1.7935-0.7522 0.4629 1.0993 0.9836 2.1986 1.0993 3.3557z"/>
    <path d="m21.86 44.651c0.0579 0.2315 0.1736 0.5208 0.2314 0.7522-0.6364 0.2314-1.2149 0.4629-1.7935 0.7521-0.0579-0.3471-0.1736-0.6364-0.2893-0.9257-0.1157-0.405-0.2893-0.81-0.405-1.215 0.5786-0.2892 1.1572-0.5207 1.7936-0.7521 0.2314 0.4629 0.3471 0.9257 0.4628 1.3885z"/>
    <path d="m29.96 49.626c-0.405 0.3472-0.5786 0.7521-1.215 0.81-0.6364 0.1157-1.2728 0-1.9093-0.1157-1.2728-0.1736-2.3142-0.2314-3.4135 0.405-0.5786 0.2893-1.1571 0.5786-1.7936 0.6943-0.405 0.0578-0.81 0.1157-1.2149 0.2314l-0.0579-0.3472c0.2314-0.1157 0.405-0.2892 0.4629-0.5206 0.0578-0.3472 0.0578-0.6943-0.0579-1.0415 0.0579 0 0.1157-0.0578 0.1736-0.0578 0.1157 0 0.2892-0.0579 0.405-0.1157 0.4628 0.8099 1.9671 0.4049 1.8514-0.5786 0-0.1157 0-0.1736-0.0579-0.2893 1.0993-0.4629 2.1986-0.5207 3.4136-0.3471 0.6364 0.1157 1.3307 0.1735 2.0249 0.2893 0.2893 0.0578 0.5786 0.1157 0.8679 0.2892 0.1736 0.1158 0.3471 0.2893 0.4628 0.2893 0.1158 0.1157 0.1736 0.2893 0.0579 0.405z"/>
    <path d="m19.604 44.014c-0.2315-0.8678-0.4629-1.6778-0.6365-2.5457 0.3472-0.1157 0.6943-0.2314 1.0415-0.4049 0.1157-0.0579 0.2314-0.0579 0.3471-0.1157 0.405 0.7521 0.7521 1.5042 1.0414 2.3142-0.5785 0.2314-1.1571 0.4629-1.7935 0.7521z"/>
    <path d="m19.893 51.304c-0.4628-0.1736-0.81-0.5207-1.0992-0.9257 0.0578-0.0579 0.1157-0.0579 0.1735-0.1157 0.5786-0.2315 1.1572-0.405 1.7357-0.5207 0.1157 0.3471 0.1157 0.6943 0.0579 1.0414-0.0579 0.2314-0.2314 0.405-0.4629 0.5207-0.1157 0.0578-0.2314 0.0578-0.405 0z"/>
    <path d="m21.281 49.568s0 0.0579 0.0579 0.0579c-0.1157 0.0579-0.2893 0.0579-0.405 0.1157-0.0579 0-0.1157 0-0.1736 0.0579-0.1735-0.5786-0.4628-1.1572-0.6942-1.62-0.2315-0.5207-0.5208-0.9836-0.7522-1.4464-0.1735-0.3472-0.3471-0.6365-0.5207-0.9836s-0.3471-0.6364-0.5786-0.9836c-0.2314-0.4628-0.5207-0.9257-0.8099-1.3307-0.2893-0.4628-0.5208-0.8678-0.8679-1.2728 0.2314-0.0579 0.5207-0.1157 0.7521-0.1736 0.5786-0.1157 1.1572-0.2893 1.7357-0.4628 0.1736 0.8678 0.405 1.7356 0.6365 2.5456 0.1157 0.405 0.2314 0.8101 0.405 1.215 0.1157 0.2893 0.2314 0.6365 0.2892 0.9257 0.2315 1.0993 0.405 2.3143 0.9257 3.3557z" fill="#D3D3D3"/>
    <path d="m19.025 46.792c0.0578-0.0579 0.1736-0.0579 0.2314-0.1157 0.2893 0.4628 0.5207 0.9835 0.7522 1.4464 0.2314 0.4629 0.5785 1.0414 0.6942 1.62-0.5785 0.1157-1.1571 0.2893-1.7357 0.5207-0.0578 0-0.1157 0.0579-0.1735 0.1157-0.2893-0.405-0.5208-0.81-0.6943-1.215-0.2315-0.4628-0.5207-0.9257-0.7522-1.3885 0.5786-0.3472 1.0993-0.6365 1.6779-0.9836z"/>
    <path d="m19.256 46.676c-0.0579 0.0579-0.1736 0.0579-0.2315 0.1157-0.5785 0.2893-1.0992 0.6365-1.6778 0.9836-0.1736-0.3471-0.3471-0.6364-0.5207-0.9836l-0.5207-1.0414c0.5785-0.3471 1.1571-0.6943 1.7935-1.0414 0.1736 0.3471 0.3472 0.6364 0.5786 0.9836 0.2314 0.3471 0.405 0.6942 0.5786 0.9835z"/>
    <path d="m20.008 41.064c-0.3471 0.1157-0.6942 0.2893-1.0414 0.405-0.0578-0.1736-0.0578-0.3471-0.1157-0.5207-0.1157-0.405 0.2314-0.7522 0.5786-0.81 0.2314-0.0579 0.5207 0.0578 0.6364 0.2893 0.1157 0.1735 0.1736 0.3471 0.2314 0.5207-0.0578 0.0579-0.1735 0.0579-0.2893 0.1157z"/>
    <path d="m17.347 43.436c0.2893 0.4628 0.5207 0.8678 0.81 1.3306-0.5786 0.3472-1.215 0.6365-1.7936 1.0415-0.2314-0.5208-0.4628-0.9836-0.6942-1.5043-0.2893-0.6943-0.6365-1.3307-0.7522-2.025 0.5207 0 1.0414-0.0578 1.62-0.1157 0.2893 0.3471 0.5207 0.81 0.81 1.2729z"/>
    <path d="m16.884 46.791c0.1736 0.3472 0.3471 0.6364 0.5207 0.9836-3.8185 2.43-6.9428 5.8435-8.7942 10.009-1.9671 4.5128-2.0828 9.7199-0.11572 14.233l0.52072 1.0414c-0.86785-0.405-1.6778-0.9257-2.3721-1.5621l-0.57857 0.1736c-0.34714-0.8679-0.57858-1.7936-0.75215-2.7193-1.0414-5.2071 0.11572-10.53 2.8928-15.043 2.1407-3.4714 4.9178-6.1328 8.1578-8.1578l0.5207 1.0414z"/>
    <path d="m18.793 50.378c0.2893 0.405 0.6365 0.7521 1.0993 0.9257 0.1157 0.0579 0.2893 0.0579 0.405 0l0.0579 0.3472c-0.2315 0.0578-0.405 0.1157-0.6364 0.1735-0.5786 0.1736-1.1572 0.4629-1.7357 0.7522-0.5208 0.2314-0.9836 0.6364-1.5622 0.6364-0.3471 0-0.5207-0.2893-0.4628-0.5786 0.1157-0.6364 0.7521-1.0414 1.2149-1.3885 0.4629-0.3472 1.0993-0.6365 1.62-0.8679z"/>
    <path d="m16.479 42.105c-0.2315-0.2892-0.5207-0.5785-0.81-0.8678-0.1157-0.0579-0.2314-0.1157-0.3472-0.0579l-0.1735-0.9835c0.6364-0.1157 1.2728-0.2314 1.9092-0.405 0.6943-0.1736 1.3886-0.3472 2.025-0.5786l0.3472 0.9257c-0.3472 0.0579-0.6365 0.405-0.5786 0.81 0.0579 0.1736 0.0578 0.3471 0.1157 0.5207-0.5786 0.1736-1.1571 0.3472-1.7357 0.4629-0.2314 0.0578-0.4628 0.1157-0.7521 0.1735z"/>
    <path d="m16.479 42.105c-0.5207 0.0579-1.0414 0.1157-1.62 0.1157-0.0578-0.1735-0.0578-0.3471-0.0578-0.4628 0-0.2893 0.2314-0.5207 0.4628-0.5786 0.1158 0 0.2315 0 0.3472 0.0579 0.405 0.2893 0.6943 0.5785 0.8678 0.8678z"/>
    <path d="m13.297 39.964c0.3471-0.2315 0.6942-0.4629 1.0414-0.6364 0.6943-0.3472 1.4464-0.6943 2.2564-0.8679 0.7521-0.1736 1.5043-0.2893 2.2564-0.3472 0.6364 0 1.5043-0.1157 2.025 0.2315l-0.1157 0.1157c-0.3472 0.2314-0.7522 0.405-1.0993 0.5207-0.1736 0.0579-0.3471 0.1736-0.5786 0.2314-0.6364 0.2315-1.3307 0.4629-2.0249 0.5786-0.6365 0.1157-1.2729 0.2893-1.9093 0.405-0.2893 0.0579-0.5786 0.1157-0.9257 0.1736-0.4629 0.1157-1.0414 0.1157-1.5043 0.1735l0.1736-0.1735c0.1157-0.1736 0.2893-0.2893 0.405-0.405z" fill="#D3D3D3"/>
    <path d="m14.281 42.22c-0.8678-0.0579-2.0249-0.0579-2.7771-0.5786-0.1157-0.1157-0.2314-0.2314-0.2314-0.405 0-0.0578-0.0578-0.0578-0.0578-0.1157-0.5786-1.0414 0.1735-2.025 0.9835-2.7193 0.7522-0.6942 1.62-1.215 2.5457-1.6199 1.62-0.6365 3.3557-0.8679 5.0914-0.8101 0.9257 0.0579 1.9671 0.1736 2.6035 0.9258 0.6943 0.81 0.6943 1.9092 0 2.7192-0.5207 0.5786-1.3307 0.9257-2.1406 1.2729-0.0579-0.1736-0.1736-0.3472-0.2315-0.5207-0.1736-0.2893-0.405-0.3472-0.6364-0.2893l-0.3471-0.9257c0.1735-0.0579 0.3471-0.1157 0.5785-0.2314 0.3472-0.1736 0.7522-0.2893 1.0993-0.5208 0.0579-0.0578 0.1157-0.0578 0.1157-0.1157-0.5785-0.3471-1.4464-0.2314-2.025-0.2314-0.7521 0.0579-1.5042 0.1157-2.2564 0.3471-0.81 0.2315-1.5043 0.5207-2.2564 0.8679-0.3471 0.1736-0.7521 0.405-1.0414 0.6364-0.1736 0.1157-0.2893 0.2314-0.405 0.3472l-0.1736 0.1735c0.5207-0.0578 1.0415-0.0578 1.5043-0.1735 0.2893-0.0579 0.5786-0.1158 0.9257-0.1736l0.1736 0.9836c-0.2314 0.0578-0.4629 0.2892-0.4629 0.5785 0 0.1736 0 0.3472 0.0579 0.4629-0.2315 0.1157-0.405 0.1157-0.6365 0.1157z"/>
</svg>
