<svg width="100" height="100" viewBox="0 0 100 100" fill="#000" xmlns="http://www.w3.org/2000/svg">
    <path d="m11.349 63.691c-0.3456 0.1152-0.6335 0.1152-0.979 0.1152h-0.46076c-0.05759 0-0.05757-0.0576-0.11516-0.0576-0.51831-0.2304-1.0942-0.2879-1.6125-0.5759-0.46072-0.2303-0.86383-0.5759-1.267-0.9214-0.80625-0.8063-1.3822-1.8429-1.4973-2.9947-0.11517-1.0366 0.11519-2.1308 0.63349-3.0522 0.46071-0.8063 1.0366-1.3821 1.7277-1.958 0.51831-0.1152 1.0366-0.3456 1.4397-0.4031 0.74866-0.1152 1.5549 0 2.1884 0.2879 1.4973 0.6911 2.4187 2.246 2.7643 3.7433 0.3455 1.5549 0.1727 3.4554-0.9215 4.7223-0.5183 0.5183-1.2094 0.9214-1.9004 1.0942z" fill="#21C488"/>
    <path d="m11.234 51.482c3.916 0.8063 5.9892 5.2982 5.4709 8.984-0.2879 2.0156-1.2669 3.8008-2.9946 4.895-1.0942 0.6911-3.225 1.3822-4.4344 0.5759-0.80625 0-1.6125-0.4031-2.3036-0.8062-0.69107-0.3456-1.3246-0.8639-1.8429-1.4398-1.0942-1.1517-1.8429-2.5915-2.0732-4.1464-0.40312-3.1674 1.3821-6.7955 4.6071-7.8321 0.11518-0.0576 0.17277-0.0576 0.28794-0.0576 0.05759-0.0576 0.17277-0.0576 0.23036-0.1152 0.97901-0.2879 2.0157-0.2879 3.0523-0.0576zm2.0156 11.057c1.0942-1.267 1.3245-3.1099 0.9214-4.7224-0.3455-1.5549-1.267-3.1098-2.7643-3.7433-0.691-0.2879-1.4973-0.4031-2.1884-0.2879-0.40312 0.0576-0.97901 0.3455-1.4397 0.4031-0.69107 0.5183-1.267 1.1518-1.7277 1.9581-0.5183 0.9214-0.74866 2.0156-0.63349 3.0522 0.11518 1.1518 0.69108 2.1884 1.4973 2.9946 0.34553 0.4032 0.80623 0.6911 1.267 0.9214 0.5183 0.288 1.0942 0.3456 1.6125 0.5759 0.05758 0 0.11516 0.0576 0.11516 0.0576h0.4607c0.3456 0 0.6911 0 0.979-0.1151 0.6911-0.1152 1.3822-0.5184 1.9005-1.0942z"/>
    <path d="m91.744 62.194c1.4398 0.4031 2.9947 1.5549 2.8219 3.1674-0.2879 1.958-2.3036 2.9946-4.0312 3.5129-1.9005 0.5759-4.0313 0.8638-6.0469 0.5759-1.0366-0.9214-1.8429-2.1308-2.3036-3.4553-0.4031-1.0942-0.5183-2.3036-0.6334-3.4554-0.4032-3.6857-0.8063-7.3714-0.9215-11.115-0.1727-5.2406 0.2304-10.481 0.1152-15.722 0-1.267-0.0576-2.534-0.5759-3.6858-0.4607-0.979-1.267-1.8428-2.3036-2.1308 0-0.1152-0.0575-0.2303-0.0575-0.3455-0.0576-0.3455-0.3456-0.5183-0.6335-0.5759 0.1152-0.1728 0.2303-0.2879 0.4031-0.4031 0.4031-0.288 0.8638-0.4031 1.3822-0.4607 1.7852-0.2304 3.7432-0.1152 5.2406 0.8638 0.4607 0.288 0.8638 0.6911 1.2093 1.0942-0.3455 0.1152-0.691 0.4031-0.7486 0.8639-0.288 1.2669-0.288 2.5339-0.3456 3.8008-0.0575 1.267-0.1151 2.534-0.1151 3.7433-0.0576 2.4764-0.0576 4.8951-0.1152 7.3714 0 2.4764 0.0576 4.8951 0.1152 7.3714 0 1.2094 0 2.4188-0.0576 3.6282 0 1.267-0.1152 2.6491 0.1151 3.916 0 0.1152 0.0576 0.2304 0.1152 0.288-0.4031 0.5759-0.1727 1.6125 0.6911 1.4973 1.1518-0.1152 2.3612-0.2304 3.5129-0.4607 0.9791-0.0576 2.1308-0.1152 3.1674 0.1152z" fill="#21C488"/>
    <path d="m86.503 60.005c0.0576-0.9214 0-1.9004 0-2.8794v-0.0576c0.1728 0.0575 0.3456 0.1151 0.5183 0.1151 0.0576 0 0.1152 0.0576 0.1728 0.0576l0.1728 0.0576c0.1151 0.0576 0.1727 0.0576 0.2879 0.1152 0.0576 0 0.1152 0.0576 0.1728 0.1152 0.1152 0.0576 0.2304 0.1152 0.3455 0.2303 0.0576 0 0.0576 0.0576 0.1152 0.1152 0 0 0.0576 0.0576 0.1152 0.0576 0 0.0576 0.0576 0.0576 0.0576 0.0576 0.1152 0.1152 0.2303 0.2879 0.4031 0.4031l0.0576 0.0576c0.0576 0.0576 0.1152 0.1152 0.1152 0.1728 0.0576 0.1152 0.1151 0.1727 0.1727 0.2879l0.1728 0.3455c-0.979 0.1728-1.958 0.4032-2.8795 0.7487z" fill="#21C488"/>
    <path d="m84.487 69.507c-0.2303-0.0576-0.5183-0.0576-0.7486-0.1152-1.7853-0.4031-3.4554-1.3245-4.6648-2.7067-1.2669-1.4973-1.7276-3.5129-1.8428-5.4709-0.1152-2.3036 0.0576-4.6072 0.1728-6.9107 0.0575-2.4764 0.1727-5.0103 0.2303-7.4866 0.0576-2.8795 0.1152-5.7014 0.1728-8.5232 0.0576-2.7067 0.3455-5.5862-0.0576-8.2929 1.0366 0.2304 1.8429 1.0942 2.3036 2.1308 0.5183 1.1518 0.5759 2.4188 0.5759 3.6857 0.1151 5.2407-0.288 10.481-0.1152 15.722 0.1152 3.7433 0.5183 7.429 0.9214 11.115 0.1152 1.1518 0.288 2.3612 0.6335 3.4553 0.5759 1.267 1.3821 2.4188 2.4187 3.3978z" fill="#20A069"/>
    <path d="m88.288 57.874c0.0576 0 0.0576 0.0576 0.1152 0.0576-0.1152 0-0.1152 0-0.1152-0.0576z"/>
    <path d="m88.461 58.047c-0.0576 0-0.0576-0.0576-0.0576-0.0576l-0.1728-0.1728c-0.1152-0.0576-0.2303-0.1727-0.3455-0.2303-0.0576-0.0576-0.1152-0.0576-0.1728-0.1152-0.1152-0.0576-0.1728-0.0576-0.2879-0.1152h-0.1728c-0.0576 0-0.1152-0.0576-0.1728-0.0576-0.1727-0.0576-0.3455-0.1152-0.5183-0.1152v0.0576c0 0.9214 0.0576 1.9005 0 2.8795 0.9215-0.3456 1.8429-0.5759 2.8219-0.6911l-0.1728-0.3455c-0.0576-0.1152-0.1151-0.2304-0.1727-0.288 0-0.0576-0.0576-0.1151-0.1152-0.1727l-0.0576-0.0576c-0.1728-0.2304-0.2879-0.4031-0.4031-0.5183zm-3.0523-27.931c0.7487-0.2879 1.8429 0 1.9581 0.9214 0.1152 1.3246 0 2.6491 0 3.9737l-0.1728 3.6281c-0.1152 2.4763-0.2303 4.8951-0.2879 7.3714-0.0576 2.4764-0.2304 4.8951-0.288 7.3715v1.3821c0.2304-0.0576 0.4607-0.0576 0.6911 0 0.7487 0.0576 1.4397 0.288 2.0732 0.6335 1.0366 0.5759 1.958 1.5549 2.3612 2.7067 0.1151 0.4031 0.2303 0.8638 0.1151 1.3245 0.5183 0.1152 0.9791 0.2304 1.4398 0.4607 2.3035 0.9791 4.204 3.225 3.8584 5.8741-0.6334 4.6648-6.162 6.6228-10.596 6.6804v-1.5549c-0.7486-0.3456-1.4397-0.8063-2.0732-1.3246 2.0156 0.288 4.1464 0 6.0469-0.5759 1.7277-0.5183 3.7433-1.5549 4.0312-3.5129 0.2304-1.6701-1.3821-2.8219-2.8218-3.1674-1.0366-0.288-2.1884-0.1728-3.225 0-1.1518 0.1728-2.3612 0.3455-3.513 0.4607-0.8062 0.0576-1.0942-0.979-0.691-1.4973-0.0576-0.1152-0.1152-0.1728-0.1152-0.288-0.2304-1.2669-0.1152-2.6491-0.1152-3.916 0-1.2094 0.0576-2.4188 0.0576-3.6282 0-2.4763-0.1152-4.895-0.1152-7.3714 0-2.4763 0.0576-4.895 0.1152-7.3714 0-1.2669 0.0576-2.4763 0.1152-3.7433 0.0576-1.2669 0.0576-2.5915 0.3455-3.8009 0.1152-0.5759 0.4031-0.8638 0.8062-1.0366z"/>
    <path d="m87.309 57.356c-0.1152-0.0576-0.1728-0.0576-0.1728-0.0576h0.0576c0.0576 0 0.1152 0 0.1152 0.0576z"/>
    <path d="m77.288 29.829c-0.1151 0-0.2303 0-0.3455 0.1152-0.0576 0.1152-0.1152 0-0.0576-0.0576-0.0576-0.2879 0.0576-0.5759 0.1728-0.8062 0.2879 0.0576 0.5759 0.2303 0.6335 0.5759 0 0.1151 0.0576 0.2303 0.0576 0.3455-0.1152-0.1728-0.288-0.1728-0.4608-0.1728z"/>
    <path d="m75.791 33.744c0.1152-1.4397 0.1728-2.8219 0.5183-4.2616 0.1152-0.3455 0.4607-0.5183 0.8063-0.5183-0.1728 0.2304-0.2304 0.5183-0.1728 0.8063-0.1152 0.0576-0.0576 0.1727 0.0576 0.0575 0.0576-0.1151 0.2303-0.1151 0.3455-0.1151 0.1728 0 0.3455 0.0576 0.5183 0.0576 0.4031 2.7067 0.1152 5.5861 0.0576 8.2928-0.0576 2.8794-0.1152 5.7013-0.1728 8.5232-0.0576 2.5339-0.1727 5.0102-0.2303 7.4866-0.0576 2.3035-0.288 4.6071-0.1728 6.9107 0.1152 1.9004 0.5183 3.9736 1.8429 5.4709 1.2093 1.3822 2.8794 2.3036 4.6647 2.7067 0.2303 0.0576 0.4607 0.1152 0.7486 0.1152 0.6335 0.5759 1.3246 1.0366 2.0733 1.3246v1.5549c-0.6911 0-1.3246 0-1.9005-0.1152-5.0103-0.5759-9.0991-4.0312-9.9053-9.0991-0.4607-2.5339-0.288-5.1254-0.1728-7.7169 0.1152-2.8795 0.2304-5.8165 0.4031-8.696 0.1728-2.8795 0.3456-5.8165 0.5183-8.696 0-1.1517 0.0576-2.6491 0.1728-4.0888z"/>/>
</svg>
