<?xml version="1.0" encoding="UTF-8"?>
<svg id="Calque_1" data-name="Calque 1" xmlns="http://www.w3.org/2000/svg" viewBox="0 0 800 1000">
  <defs>
    <style>
      .cls-1 {
        fill: #fff;
      }

      .cls-2 {
        fill: #ffdd65;
      }

      .cls-3 {
        fill: #ffd53f;
      }

      .cls-4 {
        fill: #ff3a4b;
      }

      .cls-5 {
        fill: #d1a033;
      }

      .cls-6 {
        fill: #ccaa32;
      }

      .cls-7 {
        fill: #ededed;
      }
    </style>
  </defs>
  <g id="Couronne">
    <g>
      <path class="cls-4" d="m507.83,343.76c1.3-1.07,2.62-2.12,3.96-3.15.35-.26.7-.54,1.05-.81-.01,1.71.06,3.43.08,5.12l-2.36.02c.03-.2-.26-.33-.38-.17-.11.15-.24.27-.37.39l-1.98-1.4Z"/>
      <path class="cls-4" d="m503.15,358.22c.01.51.59.84,1.01.41.55-.56,1.14-1.1,1.65-1.69.56-.64,1.02-1.32,1.48-2.05.42-.66.83-1.38,1.11-2.11l.44-1.11c.16-.39.08-.78.11-1.19.03-.22-.12-.41-.31-.44l.46-2.15c.22.04.39-.07.51-.27l.37-.57c.07-.11.15-.21.2-.32.05-.1.08-.22.12-.32.05-.13.13-.28.15-.42.02-.11.02-.22.03-.33.02-.24.01-.48.07-.7v-.02s2.36-.02,2.36-.02c.01.33.02.65.01.98,0,1.69.04,3.37.03,5.05-.02,1.26-.24,2.78-.05,4.12-.01,0-.03.01-.04.02-.72.4-1.39.87-2.08,1.31-1.34.86-2.68,1.73-4,2.6-1.29.84-2.57,1.73-3.85,2.59-.33.23-.68.45-1.01.69-.02-.44-.06-.88-.1-1.33-.08-.86-.18-1.72-.25-2.57l1.58-.16Z"/>
      <path class="cls-4" d="m501.42,356.98c-.12-1.32-.23-2.65-.36-3.97-.11-1.08-.1-2.26-.29-3.36,1.13-.67,2.16-1.78,3.08-2.54,1.35-1.1,2.64-2.24,3.97-3.35l1.98,1.4s-.09.07-.13.12c-.07.07-.15.14-.21.22-.1.11-.17.27-.24.4-.06.1-.11.19-.16.3-.06.13-.1.29-.15.43l-.21.69c-.07.23.12.48.32.54.03,0,.06.02.08.02l-.46,2.15c-.09-.02-.17,0-.26.06-.34.2-.72.31-1.01.6-.26.28-.53.59-.79.88-.55.61-1.05,1.33-1.48,2.05-.42.69-.79,1.35-1.11,2.1-.31.74-.55,1.51-.81,2.26-.04.09-.04.18-.04.25l-1.58.16c-.05-.47-.1-.93-.14-1.4Z"/>
      <path class="cls-3" d="m525.09,311.05c-.03.27-.08.53-.21.76-.47.82-1.62.85-2.56.78-1.39-.09-2.77-.13-4.15-.1.26-.33.47-.68.62-1.08t0,0c.17-.21.28-.48.31-.8.15-1.26-.12-2.45.06-3.6.16-1.06.54-2.1,1.16-2.95,1-1.39,2.43-2.27,4.03-2.6-.41,1.43-.49,2.95-.22,4.4.33,1.74,1.15,3.44.95,5.2Z"/>
      <path class="cls-6" d="m492.38,326.89c.33.75.61,1.46,1.04,2.05-4.61,4.29-9.24,8.6-13.79,12.96-1.68,1.61-3.36,3.22-5.04,4.83-.46.45-1.03.95-1.6,1.49-.08-.21-.14-.41-.21-.6-.35-1.08-.71-2.15-1.08-3.23-.72-2.16-1.46-4.3-2.2-6.45-1.32-3.82-2.66-7.64-4-11.45,1.45-1,2.72-2.39,3.89-3.65,1.41-1.5,2.85-2.99,4.21-4.53,1.37-1.55,2.72-3.1,4.08-4.65,1.44-1.65,3.06-3.23,4.2-5.11.13-.22.22-.44.26-.67.29-.04.58-.11.8-.32.3-.26.38-.69.45-1.09.46-2.66.92-5.32,1.39-7.97.28-.12.57-.22.88-.27,2.87-.53,4.13,2.52,3.21,4.97-.76,2.02-2.41,3.48-2.66,5.74-.29,2.52,1,5.02,1.85,7.33.89,2.39,1.84,4.76,2.83,7.1.5,1.18.99,2.35,1.5,3.53Z"/>
      <path class="cls-5" d="m483.38,306.47c-.07.39-.15.83-.45,1.09-.22.21-.5.28-.8.32.12-.56-.02-1.11-.31-1.59.2-1.67-.14-3.37.47-5.03.46-1.26,1.3-2.27,2.49-2.75-.47,2.65-.93,5.31-1.39,7.97Z"/>
      <path class="cls-4" d="m440.82,346.52c-1.36,1.26-2.69,2.56-4.02,3.84-.58.56-1.12,1.15-1.68,1.75-.12-.56-.23-1.11-.35-1.65-.2-1.01-.4-2.02-.57-3.02l2.04-.35c.08.31.53.4.7.08.24-.44.56-.77.83-1.16.26-.38.47-.82.7-1.23.43-.76.93-1.49,1.29-2.28.38-.85.78-1.67,1.03-2.57.12-.47.23-.9.23-1.4,0-.44-.04-.89,0-1.33,0-.1-.07-.22-.16-.23l.1-1.6c.12.02.25-.03.31-.14.3-.51.72-.93,1.01-1.46.33-.61.5-1.31.54-2.01.03-.63.01-1.25-.04-1.87-.02-.18-.03-.36-.08-.52l2.32-.53.31,1.36c.42,1.88.82,3.78,1.26,5.66.34,1.44.6,3.27,1.44,4.6-1.08.56-2.04,1.32-2.97,2.17-1.41,1.3-2.84,2.59-4.25,3.89Z"/>
      <path class="cls-4" d="m436.61,344.15c-.11.45-.25.9-.29,1.36-.04.48,0,.93-.09,1.41-.01.06,0,.11,0,.16l-2.04.35c-.12-.69-.24-1.38-.34-2.08-.26-1.71-.5-3.43-.71-5.15-.21-1.75-.38-3.72-1.17-5.33-.03-.07-.07-.13-.1-.19.45-.44.88-.88,1.29-1.37,1.38-1.64,2.73-3.31,4.13-4.94,1.98-2.28,4.06-4.45,6.2-6.58.17.85.33,1.71.51,2.56.31,1.49.67,2.98,1.01,4.46l-2.32.53c-.06-.19-.19-.33-.28-.5-.12-.2-.18-.44-.3-.64-.09-.16-.32-.15-.44-.03-.16.16-.28.36-.41.52-.14.15-.29.24-.4.42-.1.15-.14.3-.2.46-.23.62-.46,1.24-.55,1.89-.04.29-.04.58-.06.86-.02.35-.01.6.06.93l.09.35c.07.27.2.48.27.73.08.3.22.55.3.83.03.1.11.15.18.16l-.1,1.6s-.08,0-.13.04c-.68.57-1.44.98-1.96,1.73-.29.42-.59.82-.79,1.29-.2.43-.39.87-.56,1.3-.37.91-.57,1.88-.79,2.84Z"/>
      <path class="cls-3" d="m442.46,297.7c.28-1.39-1.1-2.44-1.59-3.61s-.46-2.38-.08-3.64c.55-1.78,1.81-3.18,3.31-4.12-.45,2.45-.4,4.99.35,7.36.33,1.05.79,2.24.25,3.2-.35.61-1.02.96-1.65,1.27-.23.11-.47.22-.7.35.08-.27.11-.53.1-.76h0s0-.02,0-.03Z"/>
      <path class="cls-5" d="m403.75,285.93c.25.79.66,1.58.57,2.4s-.68,1.5-1.26,2.07c-.2.19-.4.38-.62.56,0,0,0-.02-.01-.04-.03-.18-.1-.35-.2-.53-.85-1.51-1.31-3.39-.28-4.94.41-.61.93-1.11,1.54-1.47-.02.66.07,1.32.26,1.94Z"/>
      <path class="cls-1" d="m391.79,397.26l.49.18c-.25-.18-.5-.35-.49-.18Zm-56.14-17.16c-.11-1.22.28-2.41.66-3.56.63-1.9,1.54-3.58,2.18-5.47-2.03-3.54-3.33-7.5-3.77-11.56-.24-2.23-.2-4.57.4-6.73.37-.19.73-.36,1.11-.52.99-.43,2.03-.75,3.08-.98.98-.23,1.97-.37,2.97-.44,1.65-.11,3.3.06,4.93.33.27.05.53.09.81.15-1.16.6-2.2,1.33-3.07,2.26-.58.62.03,1.56.79,1.52,2.1-.11,3.92-.74,5.95-1.25.47-.12.93-.22,1.4-.34,1.45-.31,2.93-.55,4.4-.72,4.05-.44,8.08-.28,12.1.2,8.8,1.06,17.12,4.23,25.05,8.06,4.27,2.07,8.44,4.49,13.01,5.83-.83.69-1.53,1.5-1.82,2.42-.25.81.61,1.39,1.29,1.39.77,0,1.42-.41,2.1-.76.82-.42,1.67-.8,2.49-1.2,1.5-.74,3.01-1.4,4.6-1.94,3.26-1.09,6.64-1.69,10.08-1.74,6.65-.09,13.35,2.06,18.72,5.99,1.55,1.14,3.02,2.41,4.4,3.76.77.75,1.58,1.44,2.39,2.11-.8.45-1.56,1.04-1.84,1.81-.24.68.08,1.22.55,1.45,0,0-.01.02-.02.04,1.14.4,2.5.02,3.81-.48.88-.33,1.73-.72,2.46-.97,2.11-.71,4.26-1.32,6.41-1.85,4.35-1.07,8.85-1.6,13.32-1.67,9.08-.13,18.03,1.67,26.27,5.47,2.35,1.09,4.56,2.36,6.79,3.66.41.23.83.44,1.24.61h.02c.23.24.47.46.7.68.4.36.83.68,1.23,1.04.2.19.4.38.61.56.2.18.45.32.67.48.79.57,1.81.62,2.55-.06.7-.64.86-1.74.29-2.53-.43-.59-.91-1.11-1.45-1.61-.47-.42-.92-.81-1.41-1.16.54.04,1.08.1,1.62.17.26.03.51.07.76.11h.03c.4.18.79.33,1.19.48,1.65.6,3.22,1.3,4.81,2.06,2.92,1.41,5.52,3.42,7.4,6.08,3.57,5.02,4.08,11.42.99,16.79-.78,1.37-1.85,2.54-3.04,3.56-1.15.99-2.58,1.84-3.02,3.34-.05.15.04.37.16.45.78.54,1.66.63,2.55.44-.01.13,0,.27,0,.42.06.86-.08,1.79-.16,2.67-.16,1.66-.58,3.26-1.52,4.66-.52.77-1.16,1.45-1.87,2.05-6.83-1.32-13.58-3.16-19.79-6.27-6.92-3.46-13.17-8.62-16.95-15.38-6.15,4.89-14.07,7.51-21.93,7.27-7.86-.26-15.59-3.38-21.42-8.65-8.44,2.89-17.62,3.16-26.44,1.89-8.65-1.25-17.01-4.11-25.23-7.11.1.07.2.14.28.18-6.73-.22-13.49-.45-20.13-1.62-6.71-1.18-13.24-3.25-18.88-7.08-3.07,1.13-6.55,1.14-9.62.01-3.08-1.12-5.74-3.37-7.36-6.21-.47-.82-.85-1.7-.94-2.63Z"/>
      <path class="cls-6" d="m390.43,313.39c1.65-2.41,3.19-4.89,4.74-7.36,1.48-2.38,2.92-4.79,4.37-7.19.74-1.2,1.46-2.4,2.19-3.6.87-1.44,1.54-2.66.7-4.27.21-.19.42-.37.62-.56.59-.58,1.17-1.25,1.26-2.07s-.32-1.61-.57-2.4c-.2-.62-.28-1.29-.26-1.94.95-.57,2.09-.8,3.22-.63,1.6.25,3.14,1.23,3.43,2.93.28,1.6-.37,3.16-1.74,4.01-.8.5-1.2,1.7-.84,2.57,1.71,4.28,3.37,8.55,5.34,12.71.99,2.08,2.02,4.14,3.09,6.18.94,1.82,1.83,3.67,3.16,5.2l-.27.3c-3.3,3.52-6.59,7.05-9.89,10.57-1.65,1.76-3.27,3.54-4.89,5.34-1.28,1.42-2.75,2.82-3.9,4.4-.73-1.21-1.71-2.37-2.41-3.4-1.36-1.98-2.72-3.97-4.08-5.97-2.28-3.35-4.57-6.7-6.85-10.05.42-.43.81-.88,1.18-1.38.82-1.12,1.64-2.23,2.41-3.39Z"/>
      <path class="cls-4" d="m366.25,333.55c.1-.25.19-.51.26-.78.08-.3.06-.64.06-.95.02-.62-.03-1.22-.06-1.84-.03-.62-.14-1.22-.28-1.83-.07-.3-.17-.59-.22-.89-.04-.29-.03-.6-.04-.9-.01-.15-.19-.21-.29-.14l-.19-.47c.1.02.2-.08.2-.19.03-.86-.29-1.66-.53-2.49-.24-.79-.49-1.59-.73-2.38-.25-.78-.6-1.55-.96-2.3-.35-.77-.93-1.48-1.42-2.19l1.37-1.01c.45.61.9,1.22,1.36,1.84,1.1,1.49,2.18,3.01,3.27,4.51.87,1.2,1.69,2.65,2.84,3.62-.3,1.01-.48,2.09-.82,3.08-.4,1.22-.81,2.44-1.28,3.62-.32.82-.67,1.62-1.05,2.41l-1.49-.72Z"/>
      <path class="cls-4" d="m362.04,316.2c-.11-.17-.43-.08-.4.14.14.84.2,1.73.45,2.53.24.82.54,1.64.9,2.41.37.78.75,1.55,1.13,2.32.2.4.41.8.61,1.19.19.37.38.62.67.91.03.02.05.04.08.04l.19.47s-.07.07-.08.12c-.06.29-.08.6-.16.9s-.2.57-.27.88c-.17.63-.28,1.27-.26,1.92s.05,1.27.19,1.9c.06.28.11.62.23.88.12.26.3.53.49.75.11.14.35.16.43-.03l1.49.72c-.19.4-.39.8-.6,1.19-.32.63-.68,1.26-1.05,1.87-.06.11-.13.22-.2.33-.14-.26-.27-.5-.37-.66-.43-.68-.84-1.37-1.25-2.08-.77-1.3-1.54-2.6-2.27-3.92-.71-1.29-1.39-2.6-2.03-3.92-.35-.73-.66-1.47-1.01-2.2-.21-.42-.53-.78-.91-1.08.86-2.25,1.27-4.65,1.71-7.02.32-1.75.64-3.5.96-5.25.9,1.22,1.8,2.44,2.7,3.67l-1.37,1.01Z"/>
      <path class="cls-3" d="m352.49,306.78c-1.33,13.51-2.65,27.02-4.13,40.52-1.09-.34-2.23-.56-3.36-.66-1.48-.13-2.97-.14-4.45.02.44-1.99.89-4.01,1.28-6.02.77-4.09,1.54-8.17,2.32-12.25,1.56-8.26,3.07-16.51,4.54-24.78.41-2.29.79-4.59,1.17-6.88.39-2.37,1.16-4.95,1.04-7.35-.02-.32-.08-.61-.19-.87h0c-.05-1.06-.79-2.05-2.14-1.86-2.84.4-5.78-.67-7.42-2.93-1.83-2.52-1.92-5.97-.74-8.76.38-.88.85-1.71,1.42-2.46.41,2.28,1.71,4.44,3.39,6.08,2.32,2.27,5.3,3.73,8.25,5.07.4.17.82.38,1.01.75.17.32.13.7.1,1.05-.47,4.82-.94,9.64-1.42,14.46-.22,2.3-.44,4.58-.67,6.88Z"/>
      <path class="cls-7" d="m336.3,376.54c-.38,1.15-.77,2.34-.66,3.56.09.93.48,1.81.94,2.63,1.62,2.84,4.27,5.09,7.36,6.21,3.07,1.12,6.56,1.12,9.62-.01,5.64,3.83,12.17,5.9,18.88,7.08,6.64,1.16,13.4,1.39,20.13,1.62.14.08.23.12.23,0-.08,0-.15,0-.23,0-.08-.04-.18-.11-.28-.18,8.22,3,16.57,5.86,25.23,7.11,8.82,1.27,18.01.99,26.44-1.89,5.82,5.27,13.55,8.39,21.42,8.65,7.85.25,15.78-2.38,21.93-7.27,3.78,6.76,10.03,11.91,16.95,15.38,6.21,3.11,12.96,4.95,19.79,6.27-1.91,1.62-4.42,2.57-6.86,2.92-4.37.61-8.92-.39-13.04-1.85-3.26-1.15-6.44-2.71-9.15-4.9-1.46-1.17-2.71-2.51-3.73-4.08-.2-.31-.4-.62-.6-.92-.3-.46-.59-.9-.87-1.37-.42-.72-1.1-1.51-2.05-1.2-1.12.36-1.11,1.71-.78,2.98-.04.01-.09.04-.13.05-.91.35-1.85.58-2.78.84-1.82.52-3.62,1.04-5.48,1.4-3.96.77-7.94,1.09-11.97.58-3.99-.51-7.87-1.64-11.49-3.41-1.8-.88-3.49-1.9-5.12-3.05-.92-.65-1.85-1.49-2.84-2.2-.75-.57-1.54-1.05-2.38-1.32-1.15-.36-2.27.5-1.9,1.74.03.09.05.17.09.26-.43.07-.86.15-1.28.24-1.59.35-3.22.64-4.82.9-3.39.57-6.78.88-10.22.81-6.57-.14-13.23-1.64-19.25-4.28-1.75-.76-3.47-1.6-5.13-2.53-1.6-.89-3.36-2.3-5.18-2.67-.93-.18-2,.89-1.51,1.82.05.11.12.21.19.32-2.41.15-4.82.49-7.22.64-3.29.22-6.57.06-9.82-.39-6.73-.92-12.93-3.28-18.79-6.66-3.31-1.91-6.21-4.4-9.21-6.74-1.25-.98-3.03.55-2.08,1.9.12.17.25.36.39.51-1.71.02-3.44.35-5.15.41-2.28.07-4.53-.13-6.74-.69-3.75-.97-7.26-3.03-9.66-6.1-2.27-2.9-3.52-6.49-2.98-10.19.37-2.59,1.47-4.82,3.06-6.75.68-.84,1.47-1.6,2.31-2.32,1.32-1.1.31-3.57-1.49-2.82-1.03.42-1.95.98-2.75,1.65.04-.77.07-1.54.2-2.31.25-1.64.64-3.32,1.25-4.86,1.25-3.16,3.16-6.06,5.94-8.06.66-.48,1.36-.9,2.09-1.26-.6,2.16-.64,4.5-.4,6.73.44,4.06,1.73,8.01,3.77,11.56-.63,1.89-1.54,3.57-2.18,5.47Z"/>
      <path class="cls-2" d="m357.85,306.7c-.75,3.17-1.35,6.34-1.82,9.56-.43,2.87-.76,5.76-.24,8.62,0,.23,0,.47.01.68.07.7.54,1.43.84,2.06.54,1.19,1.1,2.37,1.68,3.55,1.19,2.39,2.41,4.75,3.79,7.04.63,1.03,1.22,2.32,2.19,3.09,1.32,1.04,2.99.59,3.89-.73,1.47-2.17,2.59-4.64,3.5-7.1.52-1.43,1-2.87,1.3-4.36.23-1.2.56-2.56.55-3.83.21-.26.31-.58.24-.94-.36-1.84-1.72-3.29-2.82-4.77-1.1-1.5-2.21-2.99-3.3-4.5-2.17-3.01-4.38-5.99-6.49-9.04-.93-1.36-2.98-.85-3.34.68Zm-9.49,40.61c1.48-13.5,2.8-27.01,4.13-40.52.23-2.3.45-4.58.67-6.88.48-4.82.95-9.64,1.42-14.46.03-.35.07-.73-.1-1.05-.19-.38-.61-.58-1.01-.75-2.96-1.34-5.94-2.8-8.25-5.07-1.68-1.64-2.98-3.8-3.39-6.08,1.28-1.7,3.04-3.01,5.1-3.67,2.88-.91,6.28-.13,8.36,2.1,1.11,1.19,1.66,2.73,1.72,4.34.03.83-.11,1.65-.31,2.45-.25,1.04-.88,1.9-.48,2.99.11.34.35.63.64.81,1.79,4.3,4.57,8.13,7.17,11.99,2.7,3.99,5.42,7.97,8.16,11.93,3.43,4.95,6.88,9.9,10.3,14.86,2.06,2.97,4.12,5.93,6.17,8.9,1.51,2.18,3.02,4.37,4.54,6.55.8,1.16,1.61,2.33,2.41,3.48.79,1.16,1.62,2.42,2.95,2.99.88.38,1.78.08,2.24-.59.42.07.88,0,1.28-.26,2.05-1.32,3.73-3.45,5.41-5.19,1.63-1.68,3.24-3.35,4.84-5.06,3.36-3.59,6.72-7.17,10.07-10.76.46-.5.92-.99,1.38-1.49,2.84-3.03,5.68-6.07,8.51-9.09,1.66-1.76,3.3-3.53,4.95-5.29.8-.85,1.59-1.7,2.39-2.55.92-.99,1.99-1.92,2.57-3.14.06-.11.1-.22.14-.32.23-.12.47-.23.7-.35.63-.31,1.3-.66,1.65-1.27.54-.96.09-2.15-.25-3.2-.75-2.37-.79-4.91-.35-7.36.64-.41,1.32-.72,2.01-.96,2.3-.79,4.89-.5,6.72.84,1.95,1.42,3.2,3.58,3.06,5.86-.06,1.12-.54,2.42-1.23,3.3-.45.57-.79.93-1.27,1.28-.73.52-1.54.87-2.07,1.64-.53.76-.59,1.72-.18,2.43.15.96.54,1.91.84,2.82.39,1.16.75,2.32,1.15,3.47.76,2.14,1.59,4.27,2.37,6.4,1.59,4.35,3.2,8.69,4.78,13.04.06.16.12.32.18.49,1.52,4.19,2.98,8.4,4.42,12.62.73,2.16,1.47,4.3,2.18,6.47l1.08,3.23c.4,1.24.7,2.66,1.51,3.69.6.76,1.38,1.04,2.12.94h0s.05,0,.07,0c1.91-.05,3.76-1.88,5.09-3.09,1.6-1.46,3.21-2.91,4.81-4.36,3.09-2.8,6.14-5.63,9.18-8.46,2.42-2.26,4.85-4.51,7.27-6.77,3.73-3.47,7.46-6.95,11.19-10.42,1.77-1.64,3.53-3.28,5.3-4.94.85-.79,1.71-1.57,2.54-2.38.34-.34.64-.64.89-.96,1.38-.02,2.77.01,4.15.1.94.06,2.09.04,2.56-.78.13-.23.19-.5.21-.76.19-1.76-.63-3.46-.95-5.2-.28-1.45-.2-2.97.22-4.4.43-.11.88-.16,1.33-.18,2.18-.08,4.34,1.22,5.91,2.91,1.43,1.54,2.69,3.58,2.12,5.74-.3,1.16-1.06,2.21-1.93,3.01-1.12,1.02-3.03,1.63-3.65,3.1-.32.77-.16,1.54.34,2.05-.38,1.8-.28,3.64-.22,5.5.06,2.25.08,4.51.14,6.76.13,4.59.16,9.18.13,13.77-.09,9.2-.43,18.41-1.13,27.58-.19,2.57-.46,5.14-.66,7.7-.08,1-.2,2.03-.18,3.04-.1-.07-.19-.12-.29-.18-1.99-1.17-4.14-1.95-6.4-2.36-.12-.02-.24-.04-.35-.07-.98-.32-2-.59-2.99-.81-1.26-.28-2.5-.46-3.79-.53-1.11-.05-2.71-.05-3.79.5-.83-.44-1.65-.85-2.44-1.26-4.36-2.22-8.99-3.92-13.75-5.1-9.35-2.32-19.09-2.32-28.47-.16-2.56.59-5.07,1.3-7.51,2.26-.91.36-1.82.74-2.73,1.15-.36-.97-.84-1.88-1.5-2.76-1.13-1.5-2.48-2.86-3.9-4.08-2.91-2.47-6.26-4.5-9.82-5.9-7.18-2.82-15.25-3.03-22.6-.62-1.99.66-3.91,1.53-5.76,2.54-.45.24-.93.52-1.42.84-3.42-3.24-7.6-5.51-11.77-7.65-4.27-2.2-8.65-4.22-13.17-5.85-8.32-2.99-17.1-4.67-25.95-3.63-1.79.21-3.76.47-5.67.94-.17-.22-.36-.43-.6-.62-.67-.53-1.45-1.01-2.23-1.35-.41-.17-.83-.33-1.26-.46Zm168.79,9.23c.9-1.64.6-3.96.59-5.77-.01-1.68,0-3.37-.1-5.04-.18-3.08-.33-6.44-1.22-9.45.31-1.35-.86-3.06-2.36-2.75-1.87.39-3.49,1.95-4.95,3.14-1.39,1.12-2.77,2.27-4.11,3.45-1.38,1.19-2.78,2.39-4.06,3.69s-3.02,2.7-3.46,4.54v.05c-.13.17-.23.38-.28.61-.29,1.35-.07,2.94-.05,4.33.03,1.34.11,2.67.19,3.99.08,1.33.17,2.66.28,3.99.06.69.17,1.37.26,2.06.1.7.12,1.5.42,2.15-.12.65.08,1.38.49,1.82.74.81,1.72.83,2.65.35,1.36-.69,2.65-1.67,3.89-2.53,1.31-.91,2.64-1.8,3.92-2.73,1.25-.91,2.52-1.81,3.77-2.72.63-.45,1.28-.88,1.87-1.38.26-.22.54-.43.8-.67h0c.57-.1,1.1-.47,1.46-1.11Zm-66.2-15.53c.92-1.8.23-4.19-.12-6.05-.37-1.95-.81-3.9-1.24-5.84-.41-1.89-.81-3.79-1.28-5.66-.5-1.96-1.16-3.9-1.57-5.87-.28-1.36-1.9-2.68-3.25-1.57-3.58,2.98-6.8,6.43-9.61,10.15-1.4,1.86-2.66,3.75-3.78,5.79-.13.25-.77,1.6-1.09,2.78-.07.11-.11.24-.16.38-.49,1.71-.27,3.71-.04,5.44.24,1.85.52,3.68.84,5.51.63,3.59.98,7.54,2.65,10.82.54,1.08,2.15.94,2.85.17,1.34-1.47,2.95-2.65,4.4-4.02,1.36-1.27,2.72-2.51,4.04-3.81,1.31-1.3,2.62-2.6,3.94-3.9,1.15-1.14,2.11-2.28,2.75-3.7.27-.11.5-.33.66-.62Z"/>
      <g>
        <path d="m517.64,345.72c-.18-3.08-.33-6.44-1.22-9.45.31-1.35-.86-3.06-2.36-2.75-1.87.39-3.49,1.95-4.95,3.14-1.39,1.12-2.77,2.27-4.11,3.45-1.38,1.19-2.78,2.39-4.06,3.69s-3.02,2.7-3.46,4.54c0,.02,0,.03,0,.05-.12.17-.22.38-.27.61-.29,1.35-.07,2.94-.05,4.33.03,1.34.11,2.67.19,3.99.08,1.33.17,2.66.28,3.99.06.69.17,1.37.26,2.06.1.7.12,1.5.42,2.15-.12.65.08,1.38.49,1.82.74.81,1.72.83,2.65.35,1.36-.69,2.65-1.67,3.89-2.53,1.31-.91,2.64-1.8,3.92-2.73,1.25-.91,2.52-1.81,3.77-2.72.63-.45,1.28-.88,1.87-1.38.26-.22.54-.43.8-.67h0c.57-.1,1.1-.47,1.46-1.11.9-1.64.6-3.96.59-5.77-.01-1.68,0-3.37-.1-5.04Zm-4.73,9.35s-.03.01-.04.02c-.72.4-1.39.87-2.08,1.31-1.34.86-2.68,1.73-4,2.6-1.29.84-2.57,1.73-3.85,2.59-.33.23-.68.45-1.01.69-.02-.44-.06-.88-.1-1.33-.08-.86-.18-1.72-.25-2.57-.05-.47-.1-.93-.14-1.4-.12-1.32-.23-2.65-.36-3.97-.11-1.08-.1-2.26-.29-3.36,1.13-.67,2.16-1.78,3.08-2.54,1.35-1.1,2.64-2.24,3.97-3.35,1.3-1.07,2.62-2.12,3.96-3.15.35-.26.7-.54,1.05-.81-.01,1.71.06,3.43.08,5.12.01.33.02.65.01.98,0,1.69.04,3.37.03,5.05-.02,1.26-.24,2.78-.05,4.12Z"/>
        <path d="m510.18,344.77c-.11.15-.24.27-.37.39-.05.04-.09.08-.13.12-.07.07-.15.14-.21.22-.1.11-.17.27-.24.4-.06.1-.11.19-.16.3-.06.13-.1.29-.15.43l-.21.69c-.07.23.12.48.32.54.03,0,.06.02.08.02.22.04.39-.07.51-.27.12-.19.25-.38.37-.57.07-.11.15-.21.2-.32.05-.1.08-.22.12-.32.05-.13.13-.28.15-.42.02-.11.02-.22.03-.33.02-.24.01-.48.07-.7t0-.02c.03-.2-.26-.33-.38-.17Z"/>
        <path d="m508.65,350.04c-.09-.02-.17,0-.26.06-.34.2-.72.31-1.01.6-.26.28-.53.59-.79.88-.55.61-1.05,1.33-1.48,2.05-.42.69-.79,1.35-1.11,2.1-.31.74-.55,1.51-.81,2.26-.04.09-.04.18-.04.25.01.51.59.84,1.01.41.55-.56,1.14-1.1,1.65-1.69.56-.64,1.02-1.32,1.48-2.05.42-.66.83-1.38,1.11-2.11.15-.37.29-.74.44-1.11.16-.39.08-.78.11-1.19.03-.22-.12-.41-.31-.44Z"/>
        <path d="m449.6,329.11c-.41-1.89-.81-3.79-1.28-5.66-.5-1.96-1.16-3.9-1.57-5.87-.28-1.36-1.9-2.68-3.25-1.57-3.58,2.98-6.8,6.43-9.61,10.15-1.4,1.86-2.66,3.75-3.78,5.79-.13.25-.77,1.6-1.09,2.78-.07.11-.11.24-.16.38-.49,1.71-.27,3.71-.04,5.44.24,1.85.52,3.68.84,5.51.63,3.59.98,7.54,2.65,10.82.54,1.08,2.15.94,2.85.17,1.34-1.47,2.95-2.65,4.4-4.02,1.36-1.27,2.72-2.51,4.04-3.81,1.31-1.3,2.62-2.6,3.94-3.9,1.15-1.14,2.11-2.28,2.75-3.7.27-.11.5-.33.66-.62.92-1.8.23-4.19-.12-6.05-.37-1.95-.81-3.9-1.24-5.84Zm-4.53,13.51c-1.41,1.3-2.84,2.59-4.25,3.89-1.36,1.26-2.69,2.56-4.02,3.84-.58.56-1.12,1.15-1.68,1.75-.12-.56-.23-1.11-.35-1.65-.2-1.01-.4-2.02-.57-3.02-.12-.69-.24-1.38-.34-2.08-.26-1.71-.5-3.43-.71-5.15-.21-1.75-.38-3.72-1.17-5.33-.03-.07-.07-.13-.1-.19.45-.44.88-.88,1.29-1.37,1.38-1.64,2.73-3.31,4.13-4.94,1.98-2.28,4.06-4.45,6.2-6.58.17.85.33,1.71.51,2.56.31,1.49.67,2.98,1.01,4.46.1.45.21.91.31,1.36.42,1.88.82,3.78,1.26,5.66.34,1.44.6,3.27,1.44,4.6-1.08.56-2.04,1.32-2.97,2.17Z"/>
        <path d="m442.69,329.35c-.06-.19-.19-.33-.28-.5-.12-.2-.18-.44-.3-.64-.09-.16-.32-.15-.44-.03-.16.16-.28.36-.41.52-.14.15-.29.24-.4.42-.1.15-.14.3-.2.46-.23.62-.46,1.24-.55,1.89-.04.29-.04.58-.06.86-.02.35-.01.6.06.93.03.12.06.23.09.35.07.27.2.48.27.73.08.3.22.55.3.83.03.1.11.15.18.16.12.02.25-.03.31-.14.3-.51.72-.93,1.01-1.46.33-.61.5-1.31.54-2.01.03-.63.01-1.25-.04-1.87-.02-.18-.03-.36-.08-.52Z"/>
        <path d="m441.01,337.18c0-.1-.07-.22-.16-.23-.04,0-.08,0-.13.04-.68.57-1.44.98-1.96,1.73-.29.42-.59.82-.79,1.29-.2.43-.39.87-.56,1.3-.37.91-.57,1.88-.79,2.84-.11.45-.25.9-.29,1.36-.04.48,0,.93-.09,1.41-.01.06,0,.11,0,.16.08.31.53.4.7.08.24-.44.56-.77.83-1.16.26-.38.47-.82.7-1.23.43-.76.93-1.49,1.29-2.28.38-.85.78-1.67,1.03-2.57.12-.47.23-.9.23-1.4,0-.44-.04-.89,0-1.33Z"/>
        <path d="m366.23,328.16c-.07-.3-.17-.59-.22-.89-.04-.29-.03-.6-.04-.9-.01-.15-.19-.21-.29-.14-.04.02-.07.07-.08.12-.06.29-.08.6-.16.9-.07.29-.2.57-.27.88-.17.63-.28,1.27-.26,1.92.02.65.05,1.27.19,1.9.06.28.11.62.23.88.12.26.3.53.49.75.11.14.35.16.43-.03.1-.25.19-.51.26-.78.08-.3.06-.64.06-.95.02-.62-.03-1.22-.06-1.84-.03-.62-.14-1.22-.28-1.83Z"/>
        <path d="m365.49,325.75c.1.02.2-.08.2-.19.03-.86-.29-1.66-.53-2.49-.24-.79-.49-1.59-.73-2.38-.25-.78-.6-1.55-.96-2.3-.35-.77-.93-1.48-1.42-2.19-.11-.17-.43-.08-.4.14.14.84.2,1.73.45,2.53.24.82.54,1.64.9,2.41.37.78.75,1.55,1.13,2.32.2.4.41.8.61,1.19.19.37.38.62.67.91.03.02.05.04.08.04Z"/>
        <path d="m370.97,319.56c-1.1-1.5-2.21-2.99-3.3-4.5-2.17-3.01-4.38-5.99-6.49-9.04-.93-1.36-2.98-.85-3.34.68-.75,3.17-1.35,6.34-1.82,9.56-.43,2.87-.76,5.76-.24,8.62,0,.23,0,.47.01.68.07.7.54,1.43.84,2.06.54,1.19,1.1,2.37,1.68,3.55,1.19,2.39,2.41,4.75,3.79,7.04.63,1.03,1.22,2.32,2.19,3.09,1.32,1.04,2.99.59,3.89-.73,1.47-2.17,2.59-4.64,3.5-7.1.52-1.43,1-2.87,1.3-4.36.23-1.2.56-2.56.55-3.83.21-.26.31-.58.24-.94-.36-1.84-1.72-3.29-2.82-4.77Zm-.91,8.67c-.4,1.22-.81,2.44-1.28,3.62-.32.82-.67,1.62-1.05,2.41-.19.4-.39.8-.6,1.19-.32.63-.68,1.26-1.05,1.87-.06.11-.13.22-.2.33-.14-.26-.27-.5-.37-.66-.43-.68-.84-1.37-1.25-2.08-.77-1.3-1.54-2.6-2.27-3.92-.71-1.29-1.39-2.6-2.03-3.91-.35-.73-.66-1.47-1.01-2.2-.21-.42-.53-.78-.91-1.08.86-2.25,1.27-4.65,1.71-7.02.32-1.75.64-3.5.96-5.25.9,1.22,1.8,2.44,2.7,3.67.45.61.9,1.22,1.36,1.84,1.1,1.49,2.18,3.01,3.27,4.51.87,1.2,1.69,2.65,2.84,3.62-.3,1.01-.48,2.09-.82,3.08Z"/>
        <path d="m537.61,312.18c1.38-3.55.41-7.14-1.91-10.03-2.17-2.73-5.23-5.02-8.81-5.34-3.46-.32-6.99.89-9.35,3.48-1.28,1.41-2.16,3.19-2.58,5.03-.26,1.1-.39,2.45-.22,3.71-1.15.78-2.18,2.02-3.05,2.83-1.52,1.42-3.03,2.84-4.56,4.26-3.04,2.84-6.07,5.68-9.11,8.53-.29.27-.58.54-.87.81-.04-.08-.06-.16-.1-.24-.47-1.1-.93-2.2-1.38-3.3-.87-2.14-1.71-4.29-2.58-6.44l-1.23-3.11c-.34-.87-.98-1.97-.87-2.94.09-.82.72-1.59,1.15-2.27.54-.84,1.02-1.65,1.34-2.6,1.16-3.38.43-7.54-2.5-9.82-3.12-2.44-7.65-2.04-10.62.46-1.77,1.5-2.99,3.62-3.32,5.93-.22,1.58-.22,3.44.38,5.01-1.32,1.24-2.47,2.73-3.67,4.07-1.37,1.55-2.74,3.09-4.09,4.63-1.37,1.55-2.65,3.16-3.97,4.75-.6.73-1.24,1.49-1.83,2.29-1.25-3.55-2.55-7.08-3.88-10.6-.8-2.12-1.57-4.26-2.45-6.36-.54-1.31-1.06-2.82-1.73-4.19.78-.53,1.48-1.22,2.03-1.89,1.26-1.51,2.16-3.37,2.53-5.29.76-3.93-.88-7.94-3.82-10.55-3.91-3.46-9.29-3.7-13.63-1.65-3.13,1.48-5.71,4.15-6.81,7.69-.74,2.37-.43,4.87.79,7.02.2.36.44.73.72,1.06-.54.55-1.04,1.16-1.54,1.7-.8.86-1.59,1.7-2.39,2.56-1.59,1.7-3.18,3.4-4.77,5.1l-6.82,7.28c-.6-1.43-1.43-2.8-2.14-4.16-1.02-1.97-2-3.97-2.94-5.98-1.67-3.56-3.33-7.14-4.75-10.81,1.93-1.99,2.64-5,2.02-7.71-.78-3.39-3.67-5.83-7.06-6.37-3.8-.6-7.54,1.03-9.56,4.32-1.58,2.58-1.6,6.34.44,8.57-.27.38-.5.8-.73,1.19l-2.15,3.62c-1.48,2.47-2.98,4.93-4.43,7.43-1.42,2.42-2.81,4.83-4.12,7.31-.65,1.24-1.25,2.49-1.87,3.75-.03.06-.05.1-.07.16-5.16-7.57-10.28-15.17-15.52-22.69-2.87-4.1-5.61-8.48-9.14-12.05.85-1.29,1.23-3.18,1.31-4.37.14-2.35-.39-4.69-1.64-6.7-2.43-3.93-7.43-6.04-11.95-5.52-9.86,1.14-16.28,12.75-11.6,21.6,1.73,3.28,5.34,5.69,9.06,5.96-.22,1.13-.36,2.28-.56,3.38-.38,2.05-.76,4.09-1.12,6.14-.73,4.09-1.42,8.19-2.12,12.29-1.44,8.28-2.69,16.58-4.03,24.88-.37,2.3-.71,4.61-1.01,6.92-.11.89-.27,1.8-.4,2.71-.23.07-.44.16-.66.24-6.1,2.43-10.66,7.76-12.13,14.15-.4,1.71-.52,3.43-.37,5.17.07.88.16,1.81.42,2.66.13.43.31.85.49,1.26-3.15,3.99-3.96,9.92-2.64,14.72,2.01,7.35,8.83,12.77,16.12,14.24,2.28.47,4.68.61,7.01.45,2.27-.16,4.97-.55,6.81-1.99,4.09,4.29,9.61,7.43,15,9.56,6.84,2.68,14.16,3.94,21.51,3.51,3.54-.22,7.26-.77,10.38-2.53.46.35.93.68,1.38.97,1.57,1.03,3.17,2.02,4.87,2.84,3.24,1.59,6.66,2.81,10.14,3.71,6.95,1.81,14.45,2.06,21.53.89,1.98-.33,3.94-.81,5.82-1.49,1.04-.37,1.93-.78,2.87-1.34t.02-.02c.83.87,1.81,1.62,2.66,2.29,1.8,1.41,3.79,2.63,5.81,3.68,3.96,2.07,8.33,3.48,12.76,4.01,4.41.53,9,.37,13.33-.66,2.15-.52,4.26-1.23,6.22-2.24.96-.49,1.85-1.08,2.76-1.65.93,1.56,2.11,2.97,3.42,4.22,3.01,2.9,6.84,4.91,10.75,6.33,8.64,3.11,20.66,4.37,26.76-4.19,1.41-1.96,2.33-4.31,2.46-6.74.07-1.41-.19-2.5-.76-3.77-.21-.47-.45-.86-.73-1.18,1.38-.94,2.62-2.21,3.38-3.13,2.43-2.92,3.8-6.44,3.94-10.23.24-6.23-2.65-12.04-7.14-16.15.07-.14.13-.28.19-.44.38-1.19.66-2.28.83-3.52.32-2.31.49-4.64.68-6.97.4-4.71.71-9.42.94-14.14.47-9.33.54-18.67.29-28.01-.07-2.57-.19-5.14-.36-7.71-.14-2.12-.18-4.26-.81-6.26.89-.45,1.73-1.13,2.37-1.68,1.37-1.18,2.57-2.61,3.25-4.32Zm-68.22,10.65c1.41-1.5,2.85-2.99,4.21-4.53,1.37-1.55,2.72-3.1,4.08-4.65,1.44-1.65,3.06-3.23,4.2-5.11.13-.22.22-.44.26-.67.12-.56-.02-1.11-.31-1.59.2-1.67-.14-3.37.47-5.03.46-1.26,1.3-2.27,2.49-2.76.28-.12.57-.22.88-.27,2.87-.53,4.13,2.52,3.21,4.97-.76,2.02-2.41,3.48-2.66,5.74-.29,2.52,1,5.02,1.85,7.33.89,2.39,1.84,4.76,2.83,7.1.5,1.18.99,2.35,1.5,3.53.33.75.61,1.46,1.04,2.05-4.61,4.29-9.24,8.6-13.79,12.96-1.68,1.61-3.36,3.22-5.04,4.83-.46.45-1.03.95-1.6,1.49-.08-.21-.14-.41-.21-.6-.35-1.08-.71-2.15-1.08-3.23-.72-2.16-1.46-4.3-2.2-6.45-1.32-3.82-2.66-7.64-4-11.45,1.45-1,2.72-2.39,3.89-3.65Zm-81.37-6.05c.82-1.12,1.64-2.23,2.41-3.39,1.65-2.41,3.19-4.89,4.74-7.36,1.48-2.38,2.92-4.79,4.37-7.19.74-1.2,1.46-2.4,2.19-3.6.87-1.44,1.54-2.66.7-4.27,0,0,0-.02-.01-.04-.03-.18-.1-.35-.2-.53-.85-1.51-1.31-3.39-.28-4.94.41-.61.93-1.11,1.54-1.47.95-.57,2.09-.8,3.22-.63,1.6.25,3.14,1.23,3.43,2.93.28,1.6-.37,3.16-1.74,4.01-.8.5-1.2,1.7-.84,2.57,1.71,4.28,3.37,8.55,5.34,12.71.99,2.08,2.02,4.14,3.09,6.18.94,1.82,1.83,3.67,3.16,5.2l-.27.3c-3.3,3.52-6.59,7.05-9.89,10.57-1.65,1.76-3.27,3.54-4.89,5.34-1.28,1.42-2.75,2.82-3.9,4.4-.73-1.21-1.71-2.37-2.41-3.4-1.36-1.98-2.72-3.97-4.08-5.97-2.28-3.35-4.57-6.7-6.85-10.05.42-.43.81-.88,1.18-1.38Zm142.91,91.31c-.78,1.37-1.85,2.54-3.04,3.56-1.15.99-2.58,1.84-3.02,3.34-.05.15.04.37.16.45.78.54,1.66.63,2.55.44-.01.13,0,.27,0,.42.06.86-.08,1.79-.16,2.67-.16,1.66-.58,3.26-1.52,4.66-.52.77-1.16,1.45-1.87,2.05-1.91,1.62-4.42,2.57-6.86,2.92-4.37.61-8.92-.39-13.04-1.85-3.26-1.15-6.44-2.71-9.15-4.9-1.46-1.17-2.71-2.51-3.73-4.08-.2-.31-.4-.62-.6-.92-.3-.46-.59-.9-.87-1.37-.42-.72-1.1-1.51-2.05-1.2-1.12.36-1.11,1.71-.78,2.98-.04.01-.09.04-.13.05-.91.35-1.85.58-2.78.84-1.82.52-3.62,1.04-5.48,1.4-3.96.77-7.94,1.09-11.97.58-3.99-.51-7.87-1.64-11.49-3.41-1.8-.88-3.49-1.9-5.12-3.05-.92-.65-1.85-1.49-2.84-2.2-.75-.57-1.54-1.05-2.38-1.32-1.15-.36-2.27.5-1.9,1.74.03.09.05.17.09.26-.43.07-.86.15-1.28.24-1.59.35-3.22.64-4.82.9-3.39.57-6.78.88-10.22.81-6.57-.14-13.23-1.64-19.25-4.28-1.75-.76-3.47-1.6-5.13-2.53-1.6-.89-3.36-2.3-5.18-2.67-.93-.18-2,.89-1.51,1.82.05.11.12.21.19.32-2.41.15-4.82.49-7.22.64-3.29.22-6.57.06-9.82-.39-6.73-.92-12.93-3.28-18.79-6.66-3.31-1.91-6.21-4.4-9.21-6.74-1.25-.98-3.03.55-2.08,1.9.12.17.25.36.39.51-1.71.02-3.44.35-5.15.41-2.28.07-4.53-.13-6.74-.69-3.75-.97-7.26-3.03-9.66-6.1-2.27-2.9-3.52-6.49-2.98-10.19.37-2.59,1.47-4.82,3.06-6.75.68-.84,1.47-1.6,2.31-2.32,1.32-1.1.31-3.57-1.49-2.82-1.03.42-1.95.98-2.75,1.65.04-.77.07-1.54.2-2.31.25-1.64.64-3.32,1.25-4.86,1.25-3.16,3.16-6.06,5.94-8.06.66-.48,1.36-.9,2.09-1.26.37-.19.73-.36,1.11-.52.99-.43,2.03-.75,3.08-.98.98-.23,1.97-.37,2.97-.44,1.65-.11,3.3.06,4.93.33.27.05.53.09.81.15-1.16.6-2.2,1.33-3.07,2.26-.58.62.03,1.56.79,1.52,2.1-.11,3.92-.74,5.95-1.25.47-.12.93-.22,1.4-.34,1.45-.31,2.93-.55,4.4-.72,4.05-.44,8.08-.28,12.1.2,8.8,1.06,17.12,4.23,25.05,8.06,4.27,2.07,8.44,4.49,13.01,5.83-.83.69-1.53,1.5-1.82,2.42-.25.81.61,1.39,1.29,1.39.77,0,1.42-.41,2.1-.76.82-.42,1.67-.8,2.49-1.2,1.5-.74,3.01-1.41,4.6-1.94,3.26-1.09,6.64-1.69,10.08-1.74,6.65-.09,13.35,2.06,18.72,5.99,1.55,1.14,3.02,2.41,4.4,3.76.77.75,1.58,1.44,2.39,2.11-.8.45-1.56,1.04-1.84,1.81-.24.68.08,1.22.55,1.45,0,0-.01.02-.02.04,1.14.4,2.5.02,3.81-.48.88-.33,1.73-.72,2.46-.97,2.11-.71,4.26-1.32,6.41-1.85,4.35-1.07,8.85-1.6,13.32-1.67,9.08-.13,18.03,1.67,26.27,5.47,2.35,1.09,4.56,2.36,6.79,3.66.41.23.83.44,1.24.61,0,0,.02,0,.02,0,.23.23.47.46.7.68.4.36.83.68,1.23,1.04.2.19.4.38.61.56.2.18.45.32.67.48.79.57,1.81.62,2.55-.06.7-.64.86-1.74.29-2.53-.43-.59-.91-1.11-1.45-1.61-.47-.42-.92-.81-1.41-1.16.54.04,1.08.1,1.62.17.26.03.51.07.76.11,0,0,.02,0,.03,0,.4.17.79.33,1.19.47,1.65.6,3.22,1.3,4.81,2.06,2.92,1.41,5.52,3.42,7.4,6.08,3.57,5.02,4.08,11.42.99,16.79Zm2.78-98.16c-.3,1.16-1.06,2.21-1.93,3.01-1.12,1.02-3.03,1.64-3.65,3.1-.32.77-.16,1.54.34,2.05-.38,1.8-.28,3.64-.22,5.5.06,2.25.08,4.51.14,6.76.13,4.59.16,9.18.13,13.77-.09,9.2-.43,18.41-1.13,27.58-.19,2.57-.46,5.14-.66,7.7-.08,1-.2,2.03-.18,3.04-.1-.07-.19-.12-.29-.18-1.99-1.17-4.14-1.95-6.4-2.36-.12-.02-.24-.04-.35-.07-.98-.32-2-.59-2.99-.81-1.26-.28-2.5-.46-3.79-.53-1.11-.05-2.71-.05-3.79.5-.83-.44-1.65-.85-2.44-1.26-4.36-2.22-8.99-3.92-13.75-5.1-9.35-2.32-19.09-2.32-28.47-.16-2.56.59-5.07,1.3-7.51,2.26-.91.36-1.82.74-2.73,1.15-.36-.97-.84-1.88-1.5-2.76-1.13-1.5-2.48-2.86-3.9-4.08-2.91-2.47-6.26-4.5-9.82-5.9-7.18-2.82-15.25-3.03-22.6-.62-1.99.66-3.91,1.53-5.76,2.54-.45.24-.93.52-1.42.84-3.42-3.24-7.6-5.51-11.77-7.65-4.27-2.2-8.65-4.22-13.17-5.85-8.32-2.99-17.1-4.67-25.95-3.63-1.79.21-3.76.47-5.67.94-.17-.22-.36-.43-.6-.62-.67-.53-1.45-1.01-2.23-1.35-.41-.17-.83-.33-1.26-.46-1.09-.34-2.23-.56-3.36-.66-1.48-.13-2.97-.14-4.45.02.44-1.99.89-4.01,1.28-6.02.77-4.09,1.54-8.17,2.32-12.25,1.56-8.26,3.07-16.51,4.54-24.78.41-2.29.79-4.59,1.17-6.88.39-2.37,1.16-4.95,1.04-7.35-.02-.32-.08-.61-.19-.87h0c-.05-1.06-.79-2.05-2.14-1.86-2.84.4-5.78-.67-7.42-2.93-1.83-2.52-1.92-5.97-.74-8.76.38-.88.85-1.71,1.42-2.46,1.28-1.7,3.04-3.01,5.1-3.67,2.88-.91,6.28-.13,8.36,2.1,1.11,1.19,1.66,2.73,1.72,4.34.03.83-.11,1.65-.31,2.45-.25,1.04-.88,1.9-.48,2.99.11.34.35.63.64.81,1.79,4.3,4.57,8.13,7.17,11.99,2.7,3.99,5.42,7.97,8.16,11.93,3.43,4.95,6.88,9.9,10.3,14.86,2.06,2.97,4.12,5.93,6.17,8.9,1.51,2.18,3.02,4.37,4.54,6.55.8,1.16,1.61,2.33,2.41,3.48.79,1.16,1.62,2.42,2.95,2.99.88.38,1.78.08,2.24-.59.42.07.88,0,1.28-.26,2.05-1.32,3.73-3.45,5.41-5.19,1.63-1.68,3.24-3.35,4.84-5.06,3.36-3.59,6.72-7.17,10.07-10.76.46-.5.92-.99,1.38-1.49,2.84-3.03,5.68-6.07,8.51-9.09,1.66-1.76,3.3-3.53,4.95-5.29.8-.85,1.59-1.7,2.39-2.55.92-.99,1.99-1.92,2.57-3.14.06-.11.1-.22.14-.32.08-.27.11-.53.1-.76h0s0-.02,0-.03c.28-1.39-1.1-2.44-1.59-3.61-.49-1.17-.46-2.38-.08-3.64.55-1.78,1.81-3.18,3.31-4.12.64-.41,1.32-.72,2.01-.96,2.3-.79,4.89-.5,6.72.84,1.95,1.42,3.2,3.58,3.06,5.86-.06,1.12-.54,2.42-1.23,3.3-.45.57-.79.93-1.27,1.28-.73.52-1.54.87-2.07,1.64-.53.76-.59,1.72-.18,2.43.15.96.54,1.91.84,2.82.39,1.16.75,2.32,1.15,3.47.76,2.14,1.59,4.27,2.37,6.4,1.59,4.35,3.2,8.69,4.78,13.04.06.16.12.32.18.49,1.52,4.19,2.98,8.4,4.42,12.62.73,2.16,1.47,4.3,2.18,6.47l1.08,3.23c.4,1.24.7,2.66,1.51,3.69.6.76,1.38,1.04,2.12.94h0s.05,0,.07,0c1.91-.05,3.76-1.88,5.09-3.09,1.6-1.46,3.21-2.91,4.81-4.36,3.09-2.8,6.14-5.63,9.18-8.46,2.42-2.26,4.85-4.51,7.27-6.77,3.73-3.47,7.46-6.95,11.19-10.42,1.77-1.64,3.53-3.28,5.3-4.94.85-.79,1.71-1.57,2.54-2.38.34-.34.64-.64.89-.96.26-.33.47-.68.62-1.08t0,0c.17-.21.28-.48.31-.8.15-1.26-.12-2.45.06-3.6.16-1.06.54-2.1,1.16-2.95,1-1.39,2.43-2.27,4.03-2.6.43-.11.88-.16,1.33-.18,2.18-.08,4.34,1.22,5.91,2.91,1.43,1.54,2.69,3.58,2.12,5.74Z"/>
      </g>
    </g>
  </g>
</svg>