<?xml version="1.0" encoding="utf-8"?>
<!-- Generator: Adobe Illustrator 27.5.0, SVG Export Plug-In . SVG Version: 6.00 Build 0)  -->
<!DOCTYPE svg PUBLIC "-//W3C//DTD SVG 1.1//EN" "http://www.w3.org/Graphics/SVG/1.1/DTD/svg11.dtd" [
	<!ENTITY ns_extend "http://ns.adobe.com/Extensibility/1.0/">
	<!ENTITY ns_ai "http://ns.adobe.com/AdobeIllustrator/10.0/">
	<!ENTITY ns_graphs "http://ns.adobe.com/Graphs/1.0/">
	<!ENTITY ns_vars "http://ns.adobe.com/Variables/1.0/">
	<!ENTITY ns_imrep "http://ns.adobe.com/ImageReplacement/1.0/">
	<!ENTITY ns_sfw "http://ns.adobe.com/SaveForWeb/1.0/">
	<!ENTITY ns_custom "http://ns.adobe.com/GenericCustomNamespace/1.0/">
	<!ENTITY ns_adobe_xpath "http://ns.adobe.com/XPath/1.0/">
]>
<svg version="1.1" id="Calque_1" xmlns:x="&ns_extend;" xmlns:i="&ns_ai;" xmlns:graph="&ns_graphs;"
	 xmlns="http://www.w3.org/2000/svg" xmlns:xlink="http://www.w3.org/1999/xlink" x="0px" y="0px" viewBox="0 0 800 1000"
	 enable-background="new 0 0 800 1000" xml:space="preserve">
<metadata>
	<sfw  xmlns="&ns_sfw;">
		<slices></slices>
		<sliceSourceBounds  bottomLeftOrigin="true" height="169.3" width="217.7" x="320.5" y="-433"></sliceSourceBounds>
	</sfw>
</metadata>
<g id="Couronne">
	<g>
		<path fill="#FF3A4B" d="M507.8,343.8c1.3-1.1,2.6-2.1,4-3.1c0.4-0.3,0.7-0.5,1.1-0.8c0,1.7,0.1,3.4,0.1,5.1l-2.4,0
			c0-0.2-0.3-0.3-0.4-0.2c-0.1,0.2-0.2,0.3-0.4,0.4L507.8,343.8z"/>
		<path fill="#FF3A4B" d="M510.8,356.4c-1.3,0.9-2.7,1.7-4,2.6c-1.3,0.8-2.6,1.7-3.8,2.6c-0.3,0.2-0.7,0.5-1,0.7
			c0-0.4-0.1-0.9-0.1-1.3c-0.1-0.9-0.2-1.7-0.3-2.6l1.6-0.2c0,0.5,0.6,0.8,1,0.4c0.6-0.6,1.1-1.1,1.7-1.7c0.6-0.6,1-1.3,1.5-2
			c0.4-0.7,0.8-1.4,1.1-2.1c0.1-0.4,0.3-0.7,0.4-1.1c0.2-0.4,0.1-0.8,0.1-1.2c0-0.2-0.1-0.4-0.3-0.4l0.5-2.2c0.2,0,0.4-0.1,0.5-0.3
			c0.1-0.2,0.2-0.4,0.4-0.6c0.1-0.1,0.1-0.2,0.2-0.3c0-0.1,0.1-0.2,0.1-0.3c0.1-0.1,0.1-0.3,0.2-0.4c0-0.1,0-0.2,0-0.3
			c0-0.2,0-0.5,0.1-0.7c0,0,0,0,0,0l2.4,0c0,0.3,0,0.7,0,1c0,1.7,0,3.4,0,5c0,1.3-0.2,2.8,0,4.1c0,0,0,0,0,0
			C512.1,355.5,511.5,356,510.8,356.4z"/>
		<path fill="#FF3A4B" d="M509.5,345.5c-0.1,0.1-0.2,0.3-0.2,0.4c-0.1,0.1-0.1,0.2-0.2,0.3c-0.1,0.1-0.1,0.3-0.1,0.4
			c-0.1,0.2-0.1,0.5-0.2,0.7s0.1,0.5,0.3,0.5c0,0,0.1,0,0.1,0l-0.5,2.2c-0.1,0-0.2,0-0.3,0.1c-0.3,0.2-0.7,0.3-1,0.6
			c-0.3,0.3-0.5,0.6-0.8,0.9c-0.6,0.6-1.1,1.3-1.5,2c-0.4,0.7-0.8,1.4-1.1,2.1c-0.3,0.7-0.5,1.5-0.8,2.3c0,0.1,0,0.2,0,0.2l-1.6,0.2
			c-0.1-0.5-0.1-0.9-0.1-1.4c-0.1-1.3-0.2-2.6-0.4-4c-0.1-1.1-0.1-2.3-0.3-3.4c1.1-0.7,2.2-1.8,3.1-2.5c1.3-1.1,2.6-2.2,4-3.3l2,1.4
			c0,0-0.1,0.1-0.1,0.1C509.6,345.3,509.5,345.4,509.5,345.5z"/>
		<path d="M528.5,413.4c0.6,0.4,1.1,0.8,1.5,1.3c-0.8,0.5-1.6,1-2.5,1.2c0-0.7,0-1.3,0-2C527.5,413.4,528.1,413.2,528.5,413.4z"/>
		<path d="M531.5,419.7c-0.1,2.4-1.1,4.8-2.5,6.7l-1.9-0.4c-0.2,0.1-0.5,0.1-0.8,0.1c-0.8-0.1-1.6-0.3-2.4-0.4
			c0.7-0.6,1.3-1.3,1.9-2.1c0.9-1.4,1.4-3,1.5-4.7c0.1-0.9,0.2-1.8,0.2-2.7c0-0.1,0-0.3,0-0.4c0.8-0.2,1.7-0.6,2.5-1.2
			c0.3,0.3,0.5,0.7,0.7,1.2C531.4,417.2,531.6,418.3,531.5,419.7z"/>
		<path d="M530.2,385.2c-0.4,0.8-1,1.2-1.6,1.9c-0.2,0.3-0.7,0.1-0.8-0.2c-0.3-0.6-0.8-1.1-1-1.7c-0.2-0.6-0.2-1.3-0.3-1.9
			c0-0.3-0.1-0.6-0.1-0.9C527.9,383.3,529.1,384.2,530.2,385.2z"/>
		<path d="M529.4,318.6c-0.4-0.1-0.7-0.3-0.9-0.5c0.1-0.5,0.2-0.9,0.4-1.4c0.4-1,2-1.1,2.5-0.2c0.3,0.5,0.5,1.1,0.6,1.6
			C531.1,318.6,530.3,318.8,529.4,318.6z"/>
		<path d="M528.5,318.1c0.2,0.3,0.6,0.4,0.9,0.5c0.8,0.2,1.7,0,2.6-0.5c0.6,2,0.7,4.1,0.8,6.3c0.2,2.6,0.3,5.1,0.4,7.7
			c0.3,9.3,0.2,18.7-0.3,28c-0.2,4.7-0.5,9.4-0.9,14.1c-0.2,2.3-0.4,4.7-0.7,7c-0.2,1.2-0.5,2.3-0.8,3.5c-0.1,0.2-0.1,0.3-0.2,0.4
			c-1.1-1-2.4-2-3.7-2.8c0-1,0.1-2,0.2-3c0.2-2.6,0.5-5.1,0.7-7.7c0.7-9.2,1-18.4,1.1-27.6c0-4.6,0-9.2-0.1-13.8
			c-0.1-2.3-0.1-4.5-0.1-6.8C528.2,321.7,528.1,319.9,528.5,318.1z"/>
		<path d="M514.7,309c-0.2-1.3,0-2.6,0.2-3.7c0.4-1.8,1.3-3.6,2.6-5c2.4-2.6,5.9-3.8,9.4-3.5c3.6,0.3,6.6,2.6,8.8,5.3
			c2.3,2.9,3.3,6.5,1.9,10c-0.7,1.7-1.9,3.1-3.2,4.3c-0.6,0.5-1.5,1.2-2.4,1.7c-0.2-0.5-0.4-1.1-0.6-1.6c-0.5-0.9-2.1-0.8-2.5,0.2
			c-0.2,0.4-0.3,0.9-0.4,1.4c-0.5-0.5-0.7-1.3-0.3-2c0.6-1.5,2.5-2.1,3.7-3.1c0.9-0.8,1.6-1.9,1.9-3c0.6-2.2-0.7-4.2-2.1-5.7
			c-1.6-1.7-3.7-3-5.9-2.9c-0.4,0-0.9,0.1-1.3,0.2c-1.6,0.3-3,1.2-4,2.6c-0.6,0.9-1,1.9-1.2,3c-0.2,1.2,0.1,2.3-0.1,3.6
			c0,0.3-0.1,0.6-0.3,0.8c0.1-0.4,0.2-0.8,0.3-1.3c0.1-1.1-1.2-1.8-2.2-1.8C516.1,308.3,515.4,308.6,514.7,309z"/>
		<path d="M516.5,382.7c0.9,0.2,1.9,0.4,2.8,0.6c0.6,0.1,1.3,0.3,1.9,0.2c0.3,0,0.5-0.2,0.7-0.3c0.3-0.1,0.6-0.1,0.9-0.2
			c0.2,0,0.3-0.2,0.2-0.3c-0.2-0.2-0.4-0.5-0.5-0.7c-0.2-0.3-0.2-0.6-0.5-0.9c-0.5-0.4-1.1-0.7-1.7-1c-0.3-0.1-0.6-0.2-0.9-0.3
			c0.1,0,0.2,0.1,0.4,0.1c2.3,0.4,4.4,1.2,6.4,2.4c0.1,0.1,0.2,0.1,0.3,0.2c0,0.3,0,0.6,0.1,0.9c0.1,0.6,0.1,1.3,0.3,1.9
			c0.2,0.7,0.7,1.1,1,1.7c0.1,0.3,0.6,0.5,0.8,0.2c0.6-0.7,1.2-1.1,1.6-1.9c4.5,4.1,7.4,9.9,7.1,16.1c-0.1,3.8-1.5,7.3-3.9,10.2
			c-0.8,0.9-2,2.2-3.4,3.1c-0.4-0.5-0.9-0.9-1.5-1.3c-0.4-0.3-1,0-1,0.5c0.1,0.7,0,1.3,0,2c-0.9,0.2-1.8,0.1-2.6-0.4
			c-0.1-0.1-0.2-0.3-0.2-0.5c0.4-1.5,1.9-2.4,3-3.3c1.2-1,2.3-2.2,3-3.6c3.1-5.4,2.6-11.8-1-16.8c-1.9-2.7-4.5-4.7-7.4-6.1
			c-1.6-0.8-3.2-1.5-4.8-2.1C517.3,383,516.9,382.9,516.5,382.7z"/>
		<path d="M513.5,387.3c-0.2-0.2-0.4-0.4-0.6-0.6c-0.4-0.4-0.8-0.7-1.2-1c-0.2-0.2-0.5-0.4-0.7-0.7c1.9,0.8,3.8,1.1,5.6,2.1
			c0.2,0.1,0.5-0.2,0.3-0.4c-0.7-0.8-1.3-1.5-1.8-2.3c-0.4-0.8-0.9-1.4-1.4-2c0.2,0,0.4,0,0.5,0c0.5,0.4,0.9,0.7,1.4,1.2
			c0.5,0.5,1,1,1.4,1.6c0.6,0.8,0.4,1.9-0.3,2.5c-0.7,0.7-1.8,0.6-2.5,0.1C513.9,387.6,513.7,387.5,513.5,387.3z"/>
		<path d="M512.8,381.6c0.3,0.2,0.7,0.4,1,0.6c0.1,0.1,0.2,0.1,0.3,0.2c-0.2,0-0.3,0-0.5,0C513.4,382.1,513.1,381.8,512.8,381.6z"/>
		<path fill="#FFD53F" d="M525.1,311c0,0.3-0.1,0.5-0.2,0.8c-0.5,0.8-1.6,0.8-2.6,0.8c-1.4-0.1-2.8-0.1-4.2-0.1
			c0.3-0.3,0.5-0.7,0.6-1.1c0,0,0,0,0,0c0.2-0.2,0.3-0.5,0.3-0.8c0.1-1.3-0.1-2.4,0.1-3.6c0.2-1.1,0.5-2.1,1.2-3
			c1-1.4,2.4-2.3,4-2.6c-0.4,1.4-0.5,2.9-0.2,4.4C524.5,307.6,525.3,309.3,525.1,311z"/>
		<path d="M513.8,382.2c-0.3-0.2-0.7-0.4-1-0.6c0,0,0,0,0,0c0,0-0.1-0.1-0.1-0.1c0,0,0.1,0,0.1,0c1.3,0.2,2.5,0.7,3.8,1.2
			c-0.3,0-0.5-0.1-0.8-0.1c-0.5-0.1-1.1-0.1-1.6-0.2C514,382.3,513.9,382.3,513.8,382.2z"/>
		<path d="M512.3,381.2c0.1,0.1,0.2,0.2,0.3,0.2C512.5,381.4,512.4,381.3,512.3,381.2z"/>
		<path d="M516.5,382.7c-1.2-0.5-2.5-1.1-3.8-1.2c0,0-0.1,0-0.1,0c-0.1-0.1-0.2-0.2-0.3-0.2c-0.2-0.4,0-1,0.5-1
			c1.2-0.1,2.3-0.3,3.5-0.5c1-0.1,2.2,0,3.2,0.2c0.3,0.1,0.6,0.2,0.9,0.3c0.6,0.2,1.2,0.5,1.7,1c0.3,0.3,0.4,0.6,0.5,0.9
			c0.1,0.3,0.3,0.5,0.5,0.7c0.1,0.1,0,0.3-0.2,0.3c-0.3,0.1-0.6,0.1-0.9,0.2c-0.2,0.1-0.4,0.2-0.7,0.3c-0.6,0.1-1.3-0.1-1.9-0.2
			C518.4,383.1,517.5,382.8,516.5,382.7C516.5,382.7,516.5,382.7,516.5,382.7z"/>
		<path d="M512.1,382.2c-0.9-0.1-1.8-0.1-2.7-0.4c0.3-0.7,1.1-1,1.8-0.8c0.4,0.1,0.8,0.2,1.2,0.4c0.1,0.1,0.2,0.1,0.4,0.2
			c0,0,0,0,0,0c0.3,0.3,0.6,0.5,0.8,0.8C513.1,382.3,512.6,382.3,512.1,382.2z"/>
		<path d="M512.3,381.2c-1-0.8-2.2-1.5-3.4-2.2c1.1-0.6,2.7-0.5,3.8-0.5c1.3,0.1,2.5,0.2,3.8,0.5c1,0.2,2,0.5,3,0.8
			c-1-0.2-2.2-0.3-3.2-0.2c-1.2,0.2-2.3,0.4-3.5,0.5C512.3,380.2,512.1,380.8,512.3,381.2z"/>
		<path d="M515.5,354.4c0.8,0.2,1.2,0.8,1.1,1.6c-0.1,0.7-0.4,1.2-0.9,1.6l0,0c-0.9,0.2-2-0.3-2.4-1.3c-0.2-0.4-0.3-0.8-0.4-1.2
			C513.7,354.6,514.5,354.1,515.5,354.4z"/>
		<path d="M516.6,356c0.1-0.8-0.3-1.4-1.1-1.6c-0.9-0.3-1.8,0.2-2.6,0.7c-0.2-1.3,0-2.9,0-4.1c0-1.7,0-3.4,0-5c0-0.3,0-0.6,0-1
			c0-1.7-0.1-3.4-0.1-5.1c0.4-0.3,0.7-0.5,1.1-0.8c0.9-0.7,1.8-1.3,2.3-2.2c0.1-0.1,0.1-0.3,0.2-0.5c0.9,3,1,6.4,1.2,9.4
			c0.1,1.7,0.1,3.4,0.1,5c0,1.8,0.3,4.1-0.6,5.8c-0.4,0.6-0.9,1-1.5,1.1C516.2,357.2,516.5,356.7,516.6,356z"/>
		<path d="M509.4,381.8c0.9,0.3,1.8,0.3,2.7,0.4c0.5,0,1,0.1,1.5,0.1c0.6,0.6,1,1.3,1.4,2c0.5,0.9,1.2,1.6,1.8,2.3
			c0.2,0.2-0.1,0.5-0.3,0.4c-1.8-1-3.8-1.3-5.6-2.1c0,0,0,0,0,0c-0.1-0.1-0.3-0.3-0.4-0.4c-0.3-0.3-0.5-0.6-0.7-0.9
			c-0.1-0.2-0.3-0.4-0.4-0.6c-0.1-0.3-0.1-0.6-0.1-0.9C509.3,382,509.3,381.9,509.4,381.8z"/>
		<path d="M516.1,335.3c0.1,0.3,0.2,0.6,0.3,0.9c0,0.2-0.1,0.3-0.2,0.5c-0.5,1-1.5,1.6-2.3,2.2c-0.4,0.3-0.7,0.5-1.1,0.8
			c0-1.4,0.1-2.9,0.3-4.3C513.4,334,515.6,333.9,516.1,335.3z"/>
		<path d="M508.4,381.4c-0.8-0.5-0.5-1.6,0.1-2.1c0.1-0.1,0.3-0.2,0.4-0.3c1.2,0.6,2.4,1.3,3.4,2.2c0.1,0.1,0.2,0.2,0.3,0.2
			c0,0,0.1,0.1,0.1,0.1c-0.1-0.1-0.3-0.1-0.4-0.2c-0.3-0.2-0.8-0.3-1.2-0.4c-0.7-0.2-1.5,0.2-1.8,0.8
			C509,381.7,508.7,381.6,508.4,381.4z"/>
		<path d="M514.7,309c0.7-0.5,1.4-0.8,2.1-0.8c1,0,2.2,0.7,2.2,1.8c0,0.5-0.1,0.9-0.3,1.3c0,0,0,0,0,0c-0.7,1-2.4,0.9-3.2-0.1
			C515.1,310.7,514.9,309.9,514.7,309z"/>
		<path d="M509.1,336.7c1.5-1.2,3.1-2.8,5-3.1c1.5-0.3,2.7,1.4,2.4,2.8c-0.1-0.3-0.2-0.6-0.3-0.9c-0.5-1.4-2.7-1.3-3,0.2
			c-0.2,1.4-0.3,2.8-0.3,4.3c-0.4,0.3-0.7,0.5-1.1,0.8c-1.3,1-2.7,2.1-4,3.1c-1.3,1.1-2.6,2.3-4,3.3c-0.9,0.8-1.9,1.9-3.1,2.5
			c0-0.3-0.1-0.6-0.2-0.9c-0.4-1.5-2.3-1.4-3.1-0.4c0,0,0,0,0,0c0.4-1.8,2.2-3.2,3.5-4.5c1.3-1.3,2.7-2.5,4.1-3.7
			C506.3,338.9,507.7,337.8,509.1,336.7z"/>
		<path d="M509.6,347.6c-0.1,0.2-0.3,0.3-0.5,0.3c0,0,0,0-0.1,0c-0.2-0.1-0.4-0.3-0.3-0.5s0.1-0.5,0.2-0.7c0-0.1,0.1-0.3,0.1-0.4
			c0-0.1,0.1-0.2,0.2-0.3c0.1-0.1,0.1-0.3,0.2-0.4c0.1-0.1,0.1-0.1,0.2-0.2c0,0,0.1-0.1,0.1-0.1c0.1-0.1,0.3-0.2,0.4-0.4
			c0.1-0.2,0.4,0,0.4,0.2c0,0,0,0,0,0c-0.1,0.2,0,0.5-0.1,0.7c0,0.1,0,0.2,0,0.3c0,0.1-0.1,0.3-0.2,0.4c0,0.1-0.1,0.2-0.1,0.3
			c-0.1,0.1-0.1,0.2-0.2,0.3C509.9,347.2,509.7,347.4,509.6,347.6z"/>
		<path d="M508.4,352.8c-0.3,0.7-0.7,1.5-1.1,2.1c-0.5,0.7-0.9,1.4-1.5,2c-0.5,0.6-1.1,1.1-1.7,1.7c-0.4,0.4-1,0.1-1-0.4
			c0-0.1,0-0.2,0-0.2c0.3-0.7,0.5-1.5,0.8-2.3c0.3-0.7,0.7-1.4,1.1-2.1c0.4-0.7,0.9-1.4,1.5-2c0.3-0.3,0.5-0.6,0.8-0.9
			c0.3-0.3,0.7-0.4,1-0.6c0.1-0.1,0.2-0.1,0.3-0.1c0.2,0,0.3,0.2,0.3,0.4c0,0.4,0,0.8-0.1,1.2C508.7,352,508.5,352.4,508.4,352.8z"
			/>
		<path d="M502,363c0.1,0.8,0.2,1.5,0,2.3c-0.2,0.8-0.8,1.5-1.7,1.5c-0.9,0.1-1.5-0.5-1.9-1.3c0,0,0-0.1,0-0.1
			c0.1-0.3,0.2-0.6,0.5-0.9c1-0.9,2.1-1.6,3.2-2.4C501.9,362.5,502,362.8,502,363z"/>
		<path d="M529.1,426.4c-6.1,8.6-18.1,7.3-26.8,4.2c-3.9-1.4-7.7-3.4-10.7-6.3c-1.3-1.3-2.5-2.7-3.4-4.2c0,0,0.1,0,0.1-0.1
			c0.9-0.6,1.5-1.3,2.3-2.1c0.2-0.2,0.2-0.6,0-0.9l0.1-0.1c0.2,0.3,0.4,0.6,0.6,0.9c1,1.6,2.3,2.9,3.7,4.1c2.7,2.2,5.9,3.7,9.1,4.9
			c4.1,1.5,8.7,2.5,13,1.8c2.4-0.3,4.9-1.3,6.9-2.9c0.8,0.2,1.6,0.3,2.4,0.4c0.3,0,0.6,0.1,0.8-0.1L529.1,426.4z"/>
		<path d="M487,417.3c0.9-0.4,1.9-0.5,2.9-0.7c0.3-0.1,0.6,0.1,0.7,0.3c0.2,0.3,0.2,0.7,0,0.9c-0.7,0.8-1.3,1.6-2.3,2.1
			c0,0-0.1,0-0.1,0.1c-0.1-0.2-0.2-0.4-0.3-0.6C487.6,419,487.2,418.2,487,417.3z"/>
		<path d="M505.3,365.1c-1.2,0.9-2.5,1.8-3.9,2.5c-0.9,0.5-1.9,0.5-2.6-0.3c-0.4-0.4-0.6-1.2-0.5-1.8c0,0,0,0.1,0,0.1
			c0.4,0.8,1,1.3,1.9,1.3c0.9-0.1,1.5-0.7,1.7-1.5c0.2-0.7,0.1-1.5,0-2.3c0-0.2,0-0.5-0.1-0.7c0.3-0.2,0.7-0.5,1-0.7
			c1.3-0.9,2.6-1.7,3.8-2.6c1.3-0.9,2.7-1.7,4-2.6c0.7-0.4,1.4-0.9,2.1-1.3c0,0,0,0,0,0c0.1,0.4,0.2,0.9,0.4,1.2
			c0.5,1,1.5,1.5,2.4,1.3c-0.3,0.2-0.5,0.5-0.8,0.7c-0.6,0.5-1.2,0.9-1.9,1.4c-1.3,0.9-2.5,1.8-3.8,2.7
			C508,363.3,506.6,364.2,505.3,365.1z"/>
		<path d="M489.8,416.6c-1,0.2-1.9,0.3-2.9,0.7c-0.3-1.3-0.3-2.6,0.8-3c0.9-0.3,1.6,0.5,2,1.2c0.3,0.5,0.6,0.9,0.9,1.4l-0.1,0.1
			C490.4,416.7,490.2,416.5,489.8,416.6z"/>
		<path d="M497.5,348.4c0.8-1.1,2.7-1.1,3.1,0.4c0.1,0.3,0.2,0.6,0.2,0.9c-0.4,0.2-0.8,0.4-1.2,0.5
			C498.5,350.4,497.2,349.6,497.5,348.4z"/>
		<path d="M497.5,348.4c-0.3,1.3,1,2,2.1,1.8c0.4-0.1,0.8-0.3,1.2-0.5c0.2,1.1,0.2,2.3,0.3,3.4c0.1,1.3,0.2,2.7,0.4,4
			c0,0.5,0.1,0.9,0.1,1.4c0.1,0.9,0.2,1.7,0.3,2.6c0,0.4,0.1,0.9,0.1,1.3c-1.1,0.7-2.2,1.5-3.2,2.4c-0.3,0.2-0.4,0.5-0.5,0.9
			c-0.3-0.6-0.3-1.5-0.4-2.2c-0.1-0.7-0.2-1.4-0.3-2.1c-0.1-1.3-0.2-2.7-0.3-4c-0.1-1.3-0.2-2.7-0.2-4c0-1.4-0.2-3,0.1-4.3
			C497.2,348.8,497.3,348.5,497.5,348.4z"/>
		<path d="M515.6,311.3c0.7,1,2.5,1.1,3.2,0.1c-0.2,0.4-0.4,0.7-0.6,1.1c-0.2,0.3-0.5,0.6-0.9,1c-0.8,0.8-1.7,1.6-2.5,2.4
			c-1.8,1.7-3.5,3.3-5.3,4.9c-3.7,3.5-7.5,6.9-11.2,10.4l-1.3-1.4c0.3-0.3,0.6-0.7,0.7-1.2c0.3-1.1-0.1-2.1-0.5-3.2
			c0.3-0.3,0.6-0.5,0.9-0.8c3-2.8,6.1-5.7,9.1-8.5c1.5-1.4,3-2.8,4.6-4.3c0.9-0.8,1.9-2,3-2.8C514.9,309.9,515.1,310.7,515.6,311.3z
			"/>
		<path d="M493.4,328.9c1.2-1.2,2.5-2.3,3.7-3.5c0.4,1,0.8,2,0.5,3.2c-0.1,0.5-0.4,0.9-0.7,1.2c-0.6,0.5-1.4,0.7-2.2,0.3
			C494.2,329.8,493.7,329.4,493.4,328.9z"/>
		<path fill="#CCAA32" d="M492.4,326.9c0.3,0.7,0.6,1.5,1,2c-4.6,4.3-9.2,8.6-13.8,13c-1.7,1.6-3.4,3.2-5,4.8
			c-0.5,0.4-1,0.9-1.6,1.5c-0.1-0.2-0.1-0.4-0.2-0.6c-0.4-1.1-0.7-2.2-1.1-3.2c-0.7-2.2-1.5-4.3-2.2-6.5c-1.3-3.8-2.7-7.6-4-11.5
			c1.5-1,2.7-2.4,3.9-3.6c1.4-1.5,2.9-3,4.2-4.5c1.4-1.5,2.7-3.1,4.1-4.7c1.4-1.6,3.1-3.2,4.2-5.1c0.1-0.2,0.2-0.4,0.3-0.7
			c0.3,0,0.6-0.1,0.8-0.3c0.3-0.3,0.4-0.7,0.5-1.1c0.5-2.7,0.9-5.3,1.4-8c0.3-0.1,0.6-0.2,0.9-0.3c2.9-0.5,4.1,2.5,3.2,5
			c-0.8,2-2.4,3.5-2.7,5.7c-0.3,2.5,1,5,1.9,7.3c0.9,2.4,1.8,4.8,2.8,7.1C491.4,324.5,491.9,325.7,492.4,326.9z"/>
		<path fill="#D1A033" d="M484.8,298.5c-0.5,2.6-0.9,5.3-1.4,8c-0.1,0.4-0.2,0.8-0.5,1.1c-0.2,0.2-0.5,0.3-0.8,0.3
			c0.1-0.6,0-1.1-0.3-1.6c0.2-1.7-0.1-3.4,0.5-5C482.7,300,483.6,299,484.8,298.5z"/>
		<path d="M477,350.8c-1.3,1.2-3.2,3-5.1,3.1c0,0-0.1,0-0.1,0c1-0.2,2-1.1,2-2.4c0-1.1-0.4-2.2-0.8-3.3c0.6-0.5,1.1-1,1.6-1.5
			c1.7-1.6,3.4-3.2,5-4.8c4.6-4.4,9.2-8.7,13.8-13c0.3,0.5,0.7,0.9,1.3,1.2c0.8,0.4,1.6,0.2,2.2-0.3l1.3,1.4
			c-2.4,2.3-4.9,4.5-7.3,6.8c-3,2.8-6.1,5.7-9.2,8.5C480.2,347.9,478.6,349.3,477,350.8z"/>
		<path d="M481.8,306.3c0.3,0.5,0.4,1,0.3,1.6c-0.1,0-0.3,0-0.4,0c-0.2,0-0.3,0-0.5,0c0.2-0.2,0.4-0.5,0.5-0.9
			C481.7,306.8,481.8,306.5,481.8,306.3z"/>
		<path d="M481.9,308.5c-1.1,1.9-2.8,3.5-4.2,5.1c-1.4,1.6-2.7,3.1-4.1,4.7c-1.4,1.5-2.8,3-4.2,4.5c-1.2,1.3-2.4,2.7-3.9,3.6
			c-0.2-0.6-0.4-1.3-0.7-1.9c-0.3-0.9-0.6-1.8-1-2.7c0.6-0.8,1.2-1.6,1.8-2.3c1.3-1.6,2.6-3.2,4-4.8c1.4-1.5,2.7-3.1,4.1-4.6
			c1.2-1.3,2.3-2.8,3.7-4.1c0.3,0.7,0.7,1.4,1.3,1.9c0.8,0.7,1.9,0.5,2.5-0.2c0.2,0,0.3,0,0.5,0c0.1,0,0.3,0,0.4,0
			C482.1,308.1,482,308.3,481.9,308.5z"/>
		<path d="M473.8,351.5c0,1.3-1,2.2-2,2.4l0,0c-0.9,0-1.5-0.7-1.4-1.6c0.1-1.5,1.4-2.9,2.6-4C473.4,349.3,473.8,350.4,473.8,351.5z"
			/>
		<path d="M481.2,307.9c-0.6,0.7-1.7,0.9-2.5,0.2c-0.6-0.5-1-1.2-1.3-1.9c0.3-0.3,0.6-0.5,0.8-0.7c1.2-0.9,2.8-0.3,3.5,0.9
			c0,0.3-0.1,0.5-0.1,0.8C481.6,307.4,481.4,307.7,481.2,307.9z"/>
		<path d="M484.8,298.5c-1.2,0.5-2,1.5-2.5,2.8c-0.6,1.7-0.3,3.4-0.5,5c-0.7-1.1-2.3-1.8-3.5-0.9c-0.3,0.2-0.6,0.5-0.8,0.7
			c-0.6-1.6-0.6-3.4-0.4-5c0.3-2.3,1.6-4.4,3.3-5.9c3-2.5,7.5-2.9,10.6-0.5c2.9,2.3,3.7,6.4,2.5,9.8c-0.3,0.9-0.8,1.8-1.3,2.6
			c-0.4,0.7-1.1,1.4-1.2,2.3c-0.1,1,0.5,2.1,0.9,2.9c0.4,1,0.8,2.1,1.2,3.1c0.9,2.1,1.7,4.3,2.6,6.4c0.4,1.1,0.9,2.2,1.4,3.3
			c0,0.1,0.1,0.2,0.1,0.2c-1.2,1.2-2.5,2.3-3.7,3.5c-0.4-0.6-0.7-1.3-1-2c-0.5-1.2-1-2.3-1.5-3.5c-1-2.3-1.9-4.7-2.8-7.1
			c-0.9-2.3-2.1-4.8-1.9-7.3c0.3-2.3,1.9-3.7,2.7-5.7c0.9-2.4-0.3-5.5-3.2-5C485.3,298.3,485,298.4,484.8,298.5z"/>
		<path d="M469.7,352.9c-0.8-1-1.1-2.5-1.5-3.7c-0.4-1.1-0.7-2.2-1.1-3.2c-0.7-2.2-1.4-4.3-2.2-6.5c-1.4-4.2-2.9-8.4-4.4-12.6
			l1.6-0.6c0.4,0.8,1.4,1.3,2.4,0.7c0.3-0.2,0.7-0.4,1-0.6c1.3,3.8,2.7,7.6,4,11.5c0.7,2.1,1.5,4.3,2.2,6.5c0.4,1.1,0.7,2.2,1.1,3.2
			c0.1,0.2,0.1,0.4,0.2,0.6c-1.2,1.2-2.4,2.6-2.6,4c-0.1,0.9,0.5,1.6,1.4,1.6C471.1,354,470.3,353.7,469.7,352.9z"/>
		<path d="M465.5,326.5c-0.3,0.2-0.6,0.4-1,0.6c-1,0.5-2,0.1-2.4-0.7c-0.2-0.4-0.2-0.9,0-1.4c0.4-1.1,1-2.1,1.8-3.1
			c0.3,0.9,0.6,1.8,1,2.7C465.1,325.2,465.3,325.8,465.5,326.5z"/>
		<path d="M506.5,377.7c0.8,0.4,1.6,0.8,2.4,1.3c-0.2,0.1-0.3,0.2-0.4,0.3c-0.6,0.5-0.9,1.6-0.1,2.1c0.3,0.2,0.6,0.3,1,0.5
			c0,0.1-0.1,0.2-0.1,0.3c0,0.3,0,0.6,0.1,0.9c0.1,0.2,0.2,0.4,0.4,0.6c0.2,0.3,0.5,0.6,0.7,0.9c0.2,0.1,0.3,0.3,0.4,0.4
			c-0.4-0.2-0.8-0.4-1.2-0.6c-2.2-1.3-4.4-2.6-6.8-3.7c-8.2-3.8-17.2-5.6-26.3-5.5c-4.5,0.1-9,0.6-13.3,1.7
			c-2.2,0.5-4.3,1.1-6.4,1.9c-0.7,0.2-1.6,0.6-2.5,1l-0.3-1c0,0,0,0,0,0l0,0c0.3,0.1,0.7-0.3,0.6-0.6c-0.2-0.8-0.4-1.5-0.7-2.2
			c0.9-0.4,1.8-0.8,2.7-1.2c2.4-1,4.9-1.7,7.5-2.3c9.4-2.2,19.1-2.2,28.5,0.2C497.5,373.8,502.1,375.5,506.5,377.7z"/>
		<path d="M454.7,378.1c0.1,0.4-0.2,0.7-0.6,0.6c-0.1,0-0.1,0-0.2-0.1c-0.7-0.6-1.4-1.1-2-1.7c0.4-0.2,0.9-0.5,1.3-0.7
			c0.3-0.1,0.6-0.3,0.8-0.4C454.3,376.6,454.5,377.3,454.7,378.1z"/>
		<path d="M454.1,378.8C454.2,378.8,454.2,378.8,454.1,378.8l0.3,1c-1.3,0.5-2.7,0.9-3.8,0.5c0,0,0,0,0,0c-0.5-0.2-0.8-0.8-0.6-1.4
			c0.3-0.8,1-1.4,1.8-1.8c0.7,0.6,1.4,1.1,2,1.7C454,378.7,454.1,378.7,454.1,378.8L454.1,378.8z"/>
		<path d="M450,413.7c1.6,1.1,3.3,2.2,5.1,3.1c3.6,1.8,7.5,2.9,11.5,3.4c4,0.5,8,0.2,12-0.6c1.9-0.4,3.7-0.9,5.5-1.4
			c0.9-0.3,1.9-0.5,2.8-0.8c0,0,0.1,0,0.1,0c0.2,0.9,0.6,1.7,0.9,2.2c0.1,0.2,0.2,0.4,0.3,0.6c-0.9,0.6-1.8,1.2-2.8,1.7
			c-2,1-4.1,1.7-6.2,2.2c-4.3,1-8.9,1.2-13.3,0.7c-4.4-0.5-8.8-1.9-12.8-4c-2-1.1-4-2.3-5.8-3.7c-0.8-0.7-1.8-1.4-2.7-2.3
			c0.9-0.5,1.7-1.1,2.5-1.7c0.4-0.3,0.3-1-0.1-1.2l0.2-0.3C448.1,412.2,449.1,413.1,450,413.7z"/>
		<path d="M447,411.8c0.5,0.2,0.6,0.9,0.1,1.2c-0.8,0.6-1.6,1.1-2.5,1.7c-0.7-0.7-1.3-1.6-1.6-2.5c1.2-0.2,2.4-0.3,3.7-0.5
			C446.8,411.7,446.9,411.7,447,411.8z"/>
		<path d="M460.3,326.4c-1.6-4.4-3.2-8.7-4.8-13c-0.8-2.1-1.6-4.3-2.4-6.4c-0.4-1.1-0.8-2.3-1.2-3.5c-0.3-0.9-0.7-1.9-0.8-2.8
			c0.3,0.4,0.7,0.8,1.3,0.9c1.2,0.2,2.3-0.2,3.3-0.9c0.7,1.4,1.2,2.9,1.7,4.2c0.9,2.1,1.6,4.2,2.4,6.4c1.3,3.5,2.6,7.1,3.9,10.6
			c-0.7,1-1.4,2-1.8,3.1c-0.2,0.5-0.2,1,0,1.4l-1.6,0.6C460.4,326.8,460.4,326.6,460.3,326.4z"/>
		<path d="M442.9,411.9c-0.4-1.2,0.7-2.1,1.9-1.7c0.8,0.3,1.6,0.7,2.4,1.3l-0.2,0.3c-0.1,0-0.2-0.1-0.3,0c-1.2,0.2-2.4,0.3-3.7,0.5
			C442.9,412.1,442.9,412,442.9,411.9z"/>
		<path d="M448.9,341.4c-0.3-0.3-0.6-0.6-0.8-1c0.5-0.3,1-0.5,1.6-0.6c0.5-0.1,1.2,0.3,1,0.9c-0.1,0.3-0.2,0.6-0.4,0.9
			C449.8,341.8,449.3,341.8,448.9,341.4z"/>
		<path d="M429,334.7c0.3-1.2,1-2.5,1.1-2.8c1.1-2,2.4-3.9,3.8-5.8c2.8-3.7,6-7.2,9.6-10.1c1.4-1.1,3,0.2,3.2,1.6
			c0.4,2,1.1,3.9,1.6,5.9c0.5,1.9,0.9,3.8,1.3,5.7c0.4,1.9,0.9,3.9,1.2,5.8c0.3,1.9,1,4.3,0.1,6c-0.2,0.3-0.4,0.5-0.7,0.6
			c0.1-0.3,0.3-0.6,0.4-0.9c0.2-0.6-0.5-1-1-0.9c-0.6,0.2-1.1,0.4-1.6,0.6c-0.8-1.3-1.1-3.2-1.4-4.6c-0.4-1.9-0.8-3.8-1.3-5.7
			c-0.1-0.5-0.2-0.9-0.3-1.4c-0.3-1.5-0.7-3-1-4.5c-0.2-0.9-0.3-1.7-0.5-2.6c-2.1,2.1-4.2,4.3-6.2,6.6c-1.4,1.6-2.7,3.3-4.1,4.9
			c-0.4,0.5-0.8,0.9-1.3,1.4C431.2,333.6,429.6,333.5,429,334.7z"/>
		<path d="M455.8,300.7c-1,0.7-2.1,1.1-3.3,0.9c-0.6-0.1-1.1-0.5-1.3-0.9c0-0.2-0.1-0.5-0.1-0.7c0-1.5,1.9-2.9,3.2-1.6
			C454.9,299.1,455.4,299.9,455.8,300.7z"/>
		<path d="M445.3,282.8l-2.4-1.4c4.3-2.1,9.7-1.8,13.6,1.6c2.9,2.6,4.6,6.6,3.8,10.5c-0.4,1.9-1.3,3.8-2.5,5.3
			c-0.6,0.7-1.3,1.4-2,1.9c-0.4-0.9-0.9-1.7-1.6-2.4c-1.2-1.4-3.1,0.1-3.2,1.6c0,0.3,0,0.5,0.1,0.7c-0.4-0.7-0.4-1.7,0.2-2.4
			c0.5-0.8,1.3-1.1,2.1-1.6c0.5-0.4,0.8-0.7,1.3-1.3c0.7-0.9,1.2-2.2,1.2-3.3c0.1-2.3-1.1-4.4-3.1-5.9c-1.8-1.3-4.4-1.6-6.7-0.8
			c-0.7,0.2-1.4,0.6-2,1c0.2-1,0.5-2,0.8-2.9C445,283.1,445.1,282.9,445.3,282.8z"/>
		<path d="M442.8,331.8c0,0.7-0.2,1.4-0.5,2c-0.3,0.5-0.7,1-1,1.5c-0.1,0.1-0.2,0.2-0.3,0.1c-0.1,0-0.2-0.1-0.2-0.2
			c-0.1-0.3-0.2-0.5-0.3-0.8c-0.1-0.2-0.2-0.5-0.3-0.7c0-0.1-0.1-0.2-0.1-0.4c-0.1-0.3-0.1-0.6-0.1-0.9c0-0.3,0-0.6,0.1-0.9
			c0.1-0.7,0.3-1.3,0.6-1.9c0.1-0.2,0.1-0.3,0.2-0.5c0.1-0.2,0.3-0.3,0.4-0.4c0.1-0.2,0.3-0.4,0.4-0.5c0.1-0.1,0.3-0.1,0.4,0
			c0.1,0.2,0.2,0.4,0.3,0.6c0.1,0.2,0.2,0.3,0.3,0.5c0.1,0.2,0.1,0.3,0.1,0.5C442.8,330.5,442.8,331.1,442.8,331.8z"/>
		<path fill="#FF3A4B" d="M440.8,346.5c-1.4,1.3-2.7,2.6-4,3.8c-0.6,0.6-1.1,1.2-1.7,1.7c-0.1-0.6-0.2-1.1-0.4-1.7
			c-0.2-1-0.4-2-0.6-3l2-0.3c0.1,0.3,0.5,0.4,0.7,0.1c0.2-0.4,0.6-0.8,0.8-1.2c0.3-0.4,0.5-0.8,0.7-1.2c0.4-0.8,0.9-1.5,1.3-2.3
			c0.4-0.8,0.8-1.7,1-2.6c0.1-0.5,0.2-0.9,0.2-1.4c0-0.4,0-0.9,0-1.3c0-0.1-0.1-0.2-0.2-0.2l0.1-1.6c0.1,0,0.2,0,0.3-0.1
			c0.3-0.5,0.7-0.9,1-1.5c0.3-0.6,0.5-1.3,0.5-2c0-0.6,0-1.2,0-1.9c0-0.2,0-0.4-0.1-0.5l2.3-0.5c0.1,0.5,0.2,0.9,0.3,1.4
			c0.4,1.9,0.8,3.8,1.3,5.7c0.3,1.4,0.6,3.3,1.4,4.6c-1.1,0.6-2,1.3-3,2.2C443.7,343.9,442.2,345.2,440.8,346.5z"/>
		<path d="M438,340c0.2-0.5,0.5-0.9,0.8-1.3c0.5-0.8,1.3-1.2,2-1.7c0,0,0.1,0,0.1,0c0.1,0,0.2,0.1,0.2,0.2c0,0.4,0,0.9,0,1.3
			c0,0.5-0.1,0.9-0.2,1.4c-0.2,0.9-0.6,1.7-1,2.6c-0.4,0.8-0.9,1.5-1.3,2.3c-0.2,0.4-0.4,0.8-0.7,1.2c-0.3,0.4-0.6,0.7-0.8,1.2
			c-0.2,0.3-0.6,0.2-0.7-0.1c0-0.1,0-0.1,0-0.2c0.1-0.5,0-0.9,0.1-1.4c0-0.5,0.2-0.9,0.3-1.4c0.2-1,0.4-1.9,0.8-2.8
			C437.6,340.9,437.8,340.4,438,340z"/>
		<path fill="#FF3A4B" d="M433.9,345.3c-0.3-1.7-0.5-3.4-0.7-5.1c-0.2-1.8-0.4-3.7-1.2-5.3c0-0.1-0.1-0.1-0.1-0.2
			c0.5-0.4,0.9-0.9,1.3-1.4c1.4-1.6,2.7-3.3,4.1-4.9c2-2.3,4.1-4.5,6.2-6.6c0.2,0.9,0.3,1.7,0.5,2.6c0.3,1.5,0.7,3,1,4.5l-2.3,0.5
			c-0.1-0.2-0.2-0.3-0.3-0.5c-0.1-0.2-0.2-0.4-0.3-0.6c-0.1-0.2-0.3-0.1-0.4,0c-0.2,0.2-0.3,0.4-0.4,0.5c-0.1,0.1-0.3,0.2-0.4,0.4
			c-0.1,0.1-0.1,0.3-0.2,0.5c-0.2,0.6-0.5,1.2-0.6,1.9c0,0.3,0,0.6-0.1,0.9c0,0.4,0,0.6,0.1,0.9c0,0.1,0.1,0.2,0.1,0.4
			c0.1,0.3,0.2,0.5,0.3,0.7c0.1,0.3,0.2,0.5,0.3,0.8c0,0.1,0.1,0.2,0.2,0.2l-0.1,1.6c0,0-0.1,0-0.1,0c-0.7,0.6-1.4,1-2,1.7
			c-0.3,0.4-0.6,0.8-0.8,1.3c-0.2,0.4-0.4,0.9-0.6,1.3c-0.4,0.9-0.6,1.9-0.8,2.8c-0.1,0.4-0.2,0.9-0.3,1.4c0,0.5,0,0.9-0.1,1.4
			c0,0.1,0,0.1,0,0.2l-2,0.3C434.1,346.7,434,346,433.9,345.3z"/>
		<path fill="#FFD53F" d="M442.5,297.7c0.3-1.4-1.1-2.4-1.6-3.6c-0.5-1.2-0.5-2.4-0.1-3.6c0.6-1.8,1.8-3.2,3.3-4.1
			c-0.4,2.4-0.4,5,0.3,7.4c0.3,1.1,0.8,2.2,0.2,3.2c-0.3,0.6-1,1-1.7,1.3c-0.2,0.1-0.5,0.2-0.7,0.3
			C442.4,298.2,442.5,298,442.5,297.7L442.5,297.7C442.5,297.7,442.5,297.7,442.5,297.7z"/>
		<path d="M442.5,297.7L442.5,297.7c-0.3,1.3-1.8,1.2-2.8,0.9c-0.8-0.3-1.5-0.8-2.1-1.5c0.4-0.4,0.9-0.8,1.4-1.1
			C440.5,295.2,442.4,296.2,442.5,297.7z"/>
		<path d="M442.5,297.7c-0.1-1.5-1.9-2.5-3.4-1.7c-0.5,0.3-1,0.7-1.4,1.1c-0.3-0.3-0.5-0.7-0.7-1.1c-1.2-2.2-1.5-4.6-0.8-7
			c1.1-3.5,3.7-6.2,6.8-7.7l2.4,1.4c-0.2,0.1-0.4,0.4-0.4,0.6c-0.3,1-0.6,1.9-0.8,2.9c-1.5,0.9-2.8,2.3-3.3,4.1
			c-0.4,1.3-0.4,2.5,0.1,3.6C441.4,295.3,442.7,296.3,442.5,297.7C442.5,297.7,442.5,297.7,442.5,297.7z"/>
		<path d="M430.9,335.6c-0.5,0.5-1,1.1-1.7,1c-0.5-0.1-0.4-0.9-0.2-1.8c0.6-1.2,2.1-1.2,2.9,0C431.6,335,431.3,335.3,430.9,335.6z"
			/>
		<path d="M432,334.9c0.8,1.6,1,3.6,1.2,5.3c0.2,1.7,0.4,3.4,0.7,5.1c0.1,0.7,0.2,1.4,0.3,2.1c0.2,1,0.4,2,0.6,3
			c0.1,0.5,0.2,1.1,0.4,1.7c0.6-0.6,1.1-1.2,1.7-1.7c1.3-1.3,2.7-2.6,4-3.8c1.4-1.3,2.8-2.6,4.2-3.9c0.9-0.9,1.9-1.6,3-2.2
			c0.2,0.4,0.5,0.7,0.8,1c0.4,0.4,1,0.4,1.4,0.2c-0.6,1.4-1.6,2.6-2.8,3.7c-1.3,1.3-2.6,2.6-3.9,3.9c-1.3,1.3-2.7,2.5-4,3.8
			c-1.5,1.4-3.1,2.5-4.4,4c-0.7,0.8-2.3,0.9-2.9-0.2c-1.7-3.3-2-7.2-2.6-10.8c-0.3-1.8-0.6-3.7-0.8-5.5c-0.2-1.7-0.4-3.7,0-5.4
			c0-0.1,0.1-0.3,0.2-0.4c-0.3,0.9-0.3,1.8,0.2,1.8c0.7,0.1,1.3-0.5,1.7-1c0.3-0.3,0.6-0.6,0.9-0.9C431.9,334.7,432,334.8,432,334.9
			z"/>
		<path d="M422.7,315.6c-0.1-0.6-0.4-1.3-0.6-1.9l6.8-7.3c1.6-1.7,3.2-3.4,4.8-5.1c0.8-0.9,1.6-1.7,2.4-2.6c0.5-0.5,1-1.2,1.5-1.7
			c0.6,0.7,1.3,1.3,2.1,1.5c1,0.3,2.5,0.4,2.8-0.9c0,0.2,0,0.5-0.1,0.8c0,0.1-0.1,0.2-0.1,0.3c-0.6,1.2-1.7,2.1-2.6,3.1
			c-0.8,0.8-1.6,1.7-2.4,2.5c-1.6,1.8-3.3,3.5-4.9,5.3c-2.8,3-5.7,6.1-8.5,9.1l-1.5-1.4C422.7,317,422.9,316.3,422.7,315.6z"/>
		<path d="M419.8,317.6c-0.2-0.2-0.4-0.4-0.6-0.7l3-3.2c0.3,0.6,0.5,1.2,0.6,1.9c0.2,0.7-0.1,1.3-0.5,1.8
			C421.7,318.2,420.6,318.5,419.8,317.6z"/>
		<path d="M401.2,340.5c0-1-0.4-2-1-2.9c1.1-1.6,2.6-3,3.9-4.4c1.6-1.8,3.2-3.6,4.9-5.3c3.3-3.5,6.6-7.1,9.9-10.6l0.3-0.3
			c0.2,0.2,0.4,0.5,0.6,0.7c0.9,0.9,1.9,0.5,2.5-0.2l1.5,1.4c-0.5,0.5-0.9,1-1.4,1.5c-3.4,3.6-6.7,7.2-10.1,10.8
			c-1.6,1.7-3.2,3.4-4.8,5.1c-1.7,1.7-3.4,3.9-5.4,5.2c-0.4,0.3-0.9,0.3-1.3,0.3C401.1,341.3,401.2,340.9,401.2,340.5z"/>
		<path d="M409.4,366.3c0.4,0.4,0.1,1.1-0.5,1c-0.4-0.1-0.8-0.2-1.3-0.3c0.4-0.4,0.9-0.7,1.4-1C409.1,366,409.3,366.1,409.4,366.3z"
			/>
		<path d="M398.7,406.7c0.8,0,1.3,1,0.6,1.5c-0.4,0.3-0.8,0.6-1.3,0.8c-0.9-0.6-1.7-1.4-2.2-2.3
			C396.7,406.7,397.7,406.7,398.7,406.7z"/>
		<path d="M408.9,367.2c0.6,0.1,0.8-0.6,0.5-1c-0.1-0.1-0.2-0.2-0.3-0.3c0.5-0.3,1-0.6,1.4-0.8c1.8-1,3.8-1.9,5.8-2.5
			c7.4-2.4,15.4-2.2,22.6,0.6c3.6,1.4,6.9,3.4,9.8,5.9c1.4,1.2,2.8,2.6,3.9,4.1c0.7,0.9,1.1,1.8,1.5,2.8c-0.3,0.1-0.6,0.2-0.8,0.4
			c-0.4,0.2-0.8,0.4-1.3,0.7c-0.8-0.7-1.6-1.4-2.4-2.1c-1.4-1.3-2.9-2.6-4.4-3.8c-5.4-3.9-12.1-6.1-18.7-6
			c-3.4,0.1-6.8,0.7-10.1,1.7c-1.6,0.5-3.1,1.2-4.6,1.9c-0.8,0.4-1.7,0.8-2.5,1.2c-0.7,0.3-1.3,0.8-2.1,0.8c-0.7,0-1.5-0.6-1.3-1.4
			c0.3-0.9,1-1.7,1.8-2.4C408.1,367,408.5,367.1,408.9,367.2z"/>
		<path d="M397.1,404.7c1.8,0.4,3.6,1.8,5.2,2.7c1.7,0.9,3.4,1.8,5.1,2.5c6,2.6,12.7,4.1,19.3,4.3c3.4,0.1,6.8-0.2,10.2-0.8
			c1.6-0.3,3.2-0.5,4.8-0.9c0.4-0.1,0.9-0.2,1.3-0.2c0.3,0.9,0.9,1.7,1.6,2.5c0,0,0,0,0,0c-0.9,0.6-1.8,1-2.9,1.3
			c-1.9,0.7-3.8,1.2-5.8,1.5c-7.1,1.2-14.6,0.9-21.5-0.9c-3.5-0.9-6.9-2.1-10.1-3.7c-1.7-0.8-3.3-1.8-4.9-2.8
			c-0.5-0.3-0.9-0.6-1.4-1c0.4-0.2,0.9-0.5,1.3-0.8c0.7-0.5,0.2-1.5-0.6-1.5c-1,0-1.9,0-2.9,0.1c-0.1-0.1-0.1-0.2-0.2-0.3
			C395.1,405.6,396.2,404.5,397.1,404.7z"/>
		<path d="M400.2,337.6c0.5,0.9,0.9,1.9,1,2.9c0,0.4-0.1,0.8-0.3,1.2c-1.2-0.2-2.2-1.4-1.5-2.7C399.6,338.5,399.8,338,400.2,337.6z"
			/>
		<path d="M394.6,361.1c-7.9-3.8-16.3-7-25-8.1c-4-0.5-8.1-0.6-12.1-0.2c-1.5,0.2-2.9,0.4-4.4,0.7l-0.4-1.6c0.5-0.2,0.9-0.8,0.5-1.3
			c-0.3-0.3-0.5-0.6-0.7-0.9c1.9-0.5,3.9-0.7,5.7-0.9c8.8-1,17.6,0.6,26,3.6c4.5,1.6,8.9,3.6,13.2,5.8c4.2,2.1,8.3,4.4,11.8,7.6
			c-0.5,0.3-0.9,0.6-1.4,1C403.1,365.6,398.9,363.1,394.6,361.1z"/>
		<path d="M402.4,291c0.3,1.4-1,2.6-2.4,2c0,0-0.1,0-0.1,0C400.8,292.3,401.6,291.7,402.4,291z"/>
		<path fill="#D1A033" d="M402.2,290.4c-0.9-1.5-1.3-3.4-0.3-4.9c0.4-0.6,0.9-1.1,1.5-1.5c0,0.7,0.1,1.3,0.3,1.9
			c0.2,0.8,0.7,1.6,0.6,2.4c-0.1,0.8-0.7,1.5-1.3,2.1c-0.2,0.2-0.4,0.4-0.6,0.6c0,0,0,0,0,0C402.4,290.8,402.3,290.6,402.2,290.4z"
			/>
		<path d="M402.4,290.9c-0.3-0.6-1.1-0.9-1.8-0.9c-1.2,0-1.9,0.7-2.5,1.6c-2-2.2-2-6-0.4-8.6c2-3.3,5.8-4.9,9.6-4.3
			c3.4,0.5,6.3,3,7.1,6.4c0.6,2.7-0.1,5.7-2,7.7c1.4,3.7,3.1,7.3,4.8,10.8c0.9,2,1.9,4,2.9,6c0.7,1.4,1.5,2.7,2.1,4.2l-3,3.2
			c-1.3-1.5-2.2-3.4-3.2-5.2c-1.1-2-2.1-4.1-3.1-6.2c-2-4.2-3.6-8.4-5.3-12.7c-0.4-0.9,0-2.1,0.8-2.6c1.4-0.8,2-2.4,1.7-4
			c-0.3-1.7-1.8-2.7-3.4-2.9c-1.1-0.2-2.3,0.1-3.2,0.6c-0.6,0.4-1.1,0.9-1.5,1.5c-1,1.5-0.6,3.4,0.3,4.9
			C402.3,290.6,402.4,290.8,402.4,290.9L402.4,290.9z"/>
		<path d="M402.4,291c-0.8,0.7-1.6,1.4-2.5,1.9c-0.7-0.3-1.3-0.8-1.8-1.3c0.6-0.9,1.3-1.6,2.5-1.6C401.3,290,402.1,290.3,402.4,291
			L402.4,291C402.4,290.9,402.4,291,402.4,291z"/>
		<path fill="#FFFFFF" d="M392.3,397.4c-0.3-0.2-0.5-0.4-0.5-0.2C391.9,397.3,392.1,397.4,392.3,397.4z M335.6,380.1
			c-0.1-1.2,0.3-2.4,0.7-3.6c0.6-1.9,1.5-3.6,2.2-5.5c-2-3.5-3.3-7.5-3.8-11.6c-0.2-2.2-0.2-4.6,0.4-6.7c0.4-0.2,0.7-0.4,1.1-0.5
			c1-0.4,2-0.8,3.1-1c1-0.2,2-0.4,3-0.4c1.7-0.1,3.3,0.1,4.9,0.3c0.3,0,0.5,0.1,0.8,0.2c-1.2,0.6-2.2,1.3-3.1,2.3
			c-0.6,0.6,0,1.6,0.8,1.5c2.1-0.1,3.9-0.7,6-1.3c0.5-0.1,0.9-0.2,1.4-0.3c1.5-0.3,2.9-0.5,4.4-0.7c4-0.4,8.1-0.3,12.1,0.2
			c8.8,1.1,17.1,4.2,25,8.1c4.3,2.1,8.4,4.5,13,5.8c-0.8,0.7-1.5,1.5-1.8,2.4c-0.3,0.8,0.6,1.4,1.3,1.4c0.8,0,1.4-0.4,2.1-0.8
			c0.8-0.4,1.7-0.8,2.5-1.2c1.5-0.7,3-1.4,4.6-1.9c3.3-1.1,6.6-1.7,10.1-1.7c6.7-0.1,13.4,2.1,18.7,6c1.5,1.1,3,2.4,4.4,3.8
			c0.8,0.8,1.6,1.4,2.4,2.1c-0.8,0.4-1.6,1-1.8,1.8c-0.2,0.7,0.1,1.2,0.6,1.4c0,0,0,0,0,0c1.1,0.4,2.5,0,3.8-0.5
			c0.9-0.3,1.7-0.7,2.5-1c2.1-0.7,4.3-1.3,6.4-1.9c4.3-1.1,8.9-1.6,13.3-1.7c9.1-0.1,18,1.7,26.3,5.5c2.3,1.1,4.6,2.4,6.8,3.7
			c0.4,0.2,0.8,0.4,1.2,0.6c0,0,0,0,0,0c0.2,0.2,0.5,0.5,0.7,0.7c0.4,0.4,0.8,0.7,1.2,1c0.2,0.2,0.4,0.4,0.6,0.6
			c0.2,0.2,0.5,0.3,0.7,0.5c0.8,0.6,1.8,0.6,2.5-0.1c0.7-0.6,0.9-1.7,0.3-2.5c-0.4-0.6-0.9-1.1-1.4-1.6c-0.5-0.4-0.9-0.8-1.4-1.2
			c0.5,0,1.1,0.1,1.6,0.2c0.3,0,0.5,0.1,0.8,0.1c0,0,0,0,0,0c0.4,0.2,0.8,0.3,1.2,0.5c1.7,0.6,3.2,1.3,4.8,2.1
			c2.9,1.4,5.5,3.4,7.4,6.1c3.6,5,4.1,11.4,1,16.8c-0.8,1.4-1.9,2.5-3,3.6c-1.1,1-2.6,1.8-3,3.3c0,0.2,0,0.4,0.2,0.5
			c0.8,0.5,1.7,0.6,2.6,0.4c0,0.1,0,0.3,0,0.4c0.1,0.9-0.1,1.8-0.2,2.7c-0.2,1.7-0.6,3.3-1.5,4.7c-0.5,0.8-1.2,1.5-1.9,2.1
			c-6.8-1.3-13.6-3.2-19.8-6.3c-6.9-3.5-13.2-8.6-16.9-15.4c-6.1,4.9-14.1,7.5-21.9,7.3c-7.9-0.3-15.6-3.4-21.4-8.7
			c-8.4,2.9-17.6,3.2-26.4,1.9c-8.7-1.2-17-4.1-25.2-7.1c0.1,0.1,0.2,0.1,0.3,0.2c-6.7-0.2-13.5-0.5-20.1-1.6
			c-6.7-1.2-13.2-3.3-18.9-7.1c-3.1,1.1-6.6,1.1-9.6,0c-3.1-1.1-5.7-3.4-7.4-6.2C336.1,381.9,335.7,381,335.6,380.1z"/>
		<path fill="#CCAA32" d="M393.7,328.2c-2.3-3.3-4.6-6.7-6.9-10.1c0.4-0.4,0.8-0.9,1.2-1.4c0.8-1.1,1.6-2.2,2.4-3.4
			c1.6-2.4,3.2-4.9,4.7-7.4c1.5-2.4,2.9-4.8,4.4-7.2c0.7-1.2,1.5-2.4,2.2-3.6c0.9-1.4,1.5-2.7,0.7-4.3c0.2-0.2,0.4-0.4,0.6-0.6
			c0.6-0.6,1.2-1.2,1.3-2.1c0.1-0.8-0.3-1.6-0.6-2.4c-0.2-0.6-0.3-1.3-0.3-1.9c1-0.6,2.1-0.8,3.2-0.6c1.6,0.2,3.1,1.2,3.4,2.9
			c0.3,1.6-0.4,3.2-1.7,4c-0.8,0.5-1.2,1.7-0.8,2.6c1.7,4.3,3.4,8.6,5.3,12.7c1,2.1,2,4.1,3.1,6.2c0.9,1.8,1.8,3.7,3.2,5.2l-0.3,0.3
			c-3.3,3.5-6.6,7-9.9,10.6c-1.6,1.8-3.3,3.5-4.9,5.3c-1.3,1.4-2.8,2.8-3.9,4.4c-0.7-1.2-1.7-2.4-2.4-3.4
			C396.4,332.2,395,330.2,393.7,328.2z"/>
		<path d="M386.7,311.2c1.3-2.5,2.7-4.9,4.1-7.3c1.4-2.5,2.9-5,4.4-7.4l2.2-3.6c0.2-0.4,0.5-0.8,0.7-1.2c0.5,0.5,1.1,1,1.8,1.3
			c0,0,0.1,0,0.1,0c1.5,0.6,2.7-0.6,2.4-2c0.8,1.6,0.2,2.8-0.7,4.3c-0.7,1.2-1.5,2.4-2.2,3.6c-1.5,2.4-2.9,4.8-4.4,7.2
			c-1.5,2.5-3.1,4.9-4.7,7.4c-0.8,1.2-1.6,2.3-2.4,3.4c-0.4,0.5-0.8,0.9-1.2,1.4c-0.4-0.6-0.9-1.3-1.3-1.9c-0.3-0.4-0.5-0.8-0.8-1.2
			c0-0.1,0-0.1,0.1-0.2C385.4,313.7,386,312.4,386.7,311.2z"/>
		<path d="M383.4,319c0.4-1.3,0.7-2.6,1.3-3.9c0.3,0.4,0.5,0.8,0.8,1.2c0.4,0.6,0.9,1.3,1.3,1.9c-0.5,0.6-1.1,1.1-1.6,1.7
			c-0.5,0.5-1.4,0.3-1.7-0.2C383.4,319.4,383.4,319.2,383.4,319z"/>
		<path d="M388.7,329.2c-2.1-3-4.1-5.9-6.2-8.9l1-0.7c0.3,0.5,1.2,0.7,1.7,0.2c0.6-0.6,1.1-1.1,1.6-1.7c2.3,3.3,4.6,6.7,6.9,10.1
			c1.4,2,2.7,4,4.1,6c0.7,1,1.7,2.2,2.4,3.4c-0.3,0.4-0.6,0.9-0.9,1.4c-0.7,1.3,0.3,2.5,1.5,2.7c-0.5,0.7-1.4,1-2.2,0.6
			c-1.3-0.6-2.2-1.8-3-3c-0.8-1.2-1.6-2.3-2.4-3.5C391.7,333.6,390.2,331.4,388.7,329.2z"/>
		<path d="M371.7,325.7c-0.3-0.2-0.6-0.4-0.8-0.6c0.1-0.4,0.2-0.7,0.4-1.1c0.5-1.1,2.1-0.7,2.2,0.4c0,0.2,0,0.5,0,0.7
			C373.1,325.8,372.3,326.1,371.7,325.7z"/>
		<path d="M364.9,330c0-0.7,0.1-1.3,0.3-1.9c0.1-0.3,0.2-0.6,0.3-0.9c0.1-0.3,0.1-0.6,0.2-0.9c0,0,0-0.1,0.1-0.1
			c0.1-0.1,0.3,0,0.3,0.1c0,0.3,0,0.6,0,0.9c0,0.3,0.2,0.6,0.2,0.9c0.1,0.6,0.2,1.2,0.3,1.8c0,0.6,0.1,1.2,0.1,1.8
			c0,0.3,0,0.7-0.1,1c-0.1,0.3-0.2,0.5-0.3,0.8c-0.1,0.2-0.3,0.2-0.4,0c-0.2-0.2-0.4-0.5-0.5-0.8c-0.1-0.3-0.2-0.6-0.2-0.9
			C365,331.3,364.9,330.7,364.9,330z"/>
		<path d="M351.1,398.5c-0.7-0.8-1.4-1.6-2.1-2.5c0.6,0,1.1,0,1.7,0.1c1.1,0.2,1.3,1.6,0.5,2.3C351.2,398.5,351.1,398.5,351.1,398.5
			z"/>
		<path d="M350.7,393.7c3,2.3,5.9,4.8,9.2,6.7c5.9,3.4,12.1,5.7,18.8,6.7c3.3,0.4,6.5,0.6,9.8,0.4c2.4-0.2,4.8-0.5,7.2-0.6
			c0.5,0.9,1.4,1.6,2.2,2.3c-3.1,1.8-6.8,2.3-10.4,2.5c-7.3,0.4-14.7-0.8-21.5-3.5c-5.4-2.1-10.9-5.3-15-9.6c0,0,0.1-0.1,0.1-0.1
			c0.8-0.7,0.6-2.1-0.5-2.3c-0.6-0.1-1.1-0.1-1.7-0.1c-0.1-0.2-0.3-0.3-0.4-0.5C347.7,394.2,349.5,392.7,350.7,393.7z"/>
		<path fill="#FF3A4B" d="M364.4,320.7c-0.2-0.8-0.6-1.5-1-2.3c-0.4-0.8-0.9-1.5-1.4-2.2l1.4-1c0.5,0.6,0.9,1.2,1.4,1.8
			c1.1,1.5,2.2,3,3.3,4.5c0.9,1.2,1.7,2.6,2.8,3.6c-0.3,1-0.5,2.1-0.8,3.1c-0.4,1.2-0.8,2.4-1.3,3.6c-0.3,0.8-0.7,1.6-1,2.4
			l-1.5-0.7c0.1-0.2,0.2-0.5,0.3-0.8c0.1-0.3,0.1-0.6,0.1-1c0-0.6,0-1.2-0.1-1.8c0-0.6-0.1-1.2-0.3-1.8c-0.1-0.3-0.2-0.6-0.2-0.9
			c0-0.3,0-0.6,0-0.9c0-0.2-0.2-0.2-0.3-0.1l-0.2-0.5c0.1,0,0.2-0.1,0.2-0.2c0-0.9-0.3-1.7-0.5-2.5
			C364.9,322.3,364.7,321.5,364.4,320.7z"/>
		<path d="M364.1,323.6c-0.4-0.8-0.8-1.5-1.1-2.3c-0.4-0.8-0.7-1.6-0.9-2.4c-0.3-0.8-0.3-1.7-0.5-2.5c0-0.2,0.3-0.3,0.4-0.1
			c0.5,0.7,1.1,1.4,1.4,2.2c0.4,0.8,0.7,1.5,1,2.3c0.2,0.8,0.5,1.6,0.7,2.4c0.2,0.8,0.6,1.6,0.5,2.5c0,0.1-0.1,0.2-0.2,0.2
			c0,0-0.1,0-0.1,0c-0.3-0.3-0.5-0.5-0.7-0.9C364.5,324.4,364.3,324,364.1,323.6z"/>
		<path fill="#FF3A4B" d="M359.8,316.8c0.3-1.8,0.6-3.5,1-5.3c0.9,1.2,1.8,2.4,2.7,3.7l-1.4,1c-0.1-0.2-0.4-0.1-0.4,0.1
			c0.1,0.8,0.2,1.7,0.5,2.5c0.2,0.8,0.5,1.6,0.9,2.4c0.4,0.8,0.7,1.6,1.1,2.3c0.2,0.4,0.4,0.8,0.6,1.2c0.2,0.4,0.4,0.6,0.7,0.9
			c0,0,0.1,0,0.1,0l0.2,0.5c0,0-0.1,0.1-0.1,0.1c-0.1,0.3-0.1,0.6-0.2,0.9c-0.1,0.3-0.2,0.6-0.3,0.9c-0.2,0.6-0.3,1.3-0.3,1.9
			c0,0.7,0.1,1.3,0.2,1.9c0.1,0.3,0.1,0.6,0.2,0.9c0.1,0.3,0.3,0.5,0.5,0.8c0.1,0.1,0.3,0.2,0.4,0l1.5,0.7c-0.2,0.4-0.4,0.8-0.6,1.2
			c-0.3,0.6-0.7,1.3-1,1.9c-0.1,0.1-0.1,0.2-0.2,0.3c-0.1-0.3-0.3-0.5-0.4-0.7c-0.4-0.7-0.8-1.4-1.3-2.1c-0.8-1.3-1.5-2.6-2.3-3.9
			c-0.7-1.3-1.4-2.6-2-3.9c-0.4-0.7-0.7-1.5-1-2.2c-0.2-0.4-0.5-0.8-0.9-1.1C358.9,321.6,359.3,319.2,359.8,316.8z"/>
		<path d="M356,325.7c-0.1-0.3-0.1-0.6-0.2-0.9c0-0.3,0.1-0.7,0.2-1c0.2-0.5,0.7-0.9,1.3-0.6c0.3,0.1,0.6,0.3,0.8,0.5
			c-0.2,0.7-0.5,1.3-0.9,2C356.9,326.2,356.1,326.3,356,325.7z"/>
		<path d="M356.6,327.6c-0.3-0.6-0.8-1.4-0.8-2.1c0-0.2,0-0.5,0-0.7c0.1,0.3,0.1,0.6,0.2,0.9c0.1,0.6,0.9,0.5,1.2,0.1
			c0.3-0.6,0.6-1.3,0.9-2c0.4,0.3,0.7,0.7,0.9,1.1c0.4,0.7,0.7,1.5,1,2.2c0.6,1.3,1.3,2.6,2,3.9c0.7,1.3,1.5,2.6,2.3,3.9
			c0.4,0.7,0.8,1.4,1.3,2.1c0.1,0.2,0.2,0.4,0.4,0.7c0.1-0.1,0.1-0.2,0.2-0.3c0.4-0.6,0.7-1.2,1-1.9c0.2-0.4,0.4-0.8,0.6-1.2
			c0.4-0.8,0.7-1.6,1-2.4c0.5-1.2,0.9-2.4,1.3-3.6c0.3-1,0.5-2.1,0.8-3.1c0.3,0.2,0.5,0.4,0.8,0.6c0.6,0.3,1.4,0.1,1.8-0.5
			c0,1.3-0.3,2.6-0.6,3.8c-0.3,1.5-0.8,2.9-1.3,4.4c-0.9,2.5-2,4.9-3.5,7.1c-0.9,1.3-2.6,1.8-3.9,0.7c-1-0.8-1.6-2.1-2.2-3.1
			c-1.4-2.3-2.6-4.7-3.8-7C357.7,330,357.2,328.8,356.6,327.6z"/>
		<path d="M355.8,324.9c-0.5-2.9-0.2-5.7,0.2-8.6c0.5-3.2,1.1-6.4,1.8-9.6c0.4-1.5,2.4-2,3.3-0.7c2.1,3.1,4.3,6,6.5,9
			c1.1,1.5,2.2,3,3.3,4.5c1.1,1.5,2.5,2.9,2.8,4.8c0.1,0.4,0,0.7-0.2,0.9c0-0.3,0-0.5,0-0.7c-0.1-1.1-1.8-1.6-2.2-0.4
			c-0.2,0.3-0.3,0.7-0.4,1.1c-1.2-1-2-2.4-2.8-3.6c-1.1-1.5-2.2-3-3.3-4.5c-0.5-0.6-0.9-1.2-1.4-1.8c-0.9-1.2-1.8-2.4-2.7-3.7
			c-0.3,1.8-0.6,3.5-1,5.3c-0.4,2.4-0.8,4.8-1.7,7c-0.3-0.2-0.5-0.4-0.8-0.5c-0.6-0.3-1.1,0.1-1.3,0.6
			C355.9,324.2,355.8,324.5,355.8,324.9z"/>
		<path d="M348,351.3c1.4-0.7,2.9-1.2,4.4-1.6c0.2,0.3,0.5,0.6,0.7,0.9c0.4,0.5,0,1.1-0.5,1.3c-0.1,0-0.2,0-0.4,0
			c-0.9-0.2-1.8-0.1-2.6-0.3C349.1,351.6,348.6,351.4,348,351.3z"/>
		<path d="M364,293.5c-2.6-3.9-5.4-7.7-7.2-12c0.3,0.2,0.7,0.3,1,0.3c0.9,0,1.7-0.6,2.2-1.4c3.5,3.6,6.3,8,9.1,12.1
			c5.2,7.5,10.4,15.1,15.5,22.7c-0.6,1.3-0.9,2.6-1.3,3.9c-0.1,0.3-0.1,0.5,0.1,0.7l-1,0.7c-3.4-5-6.9-9.9-10.3-14.9
			C369.5,301.5,366.7,297.5,364,293.5z"/>
		<path d="M348,351.3c-0.3-0.1-0.5-0.1-0.8-0.2c-1.6-0.3-3.3-0.4-4.9-0.3c-1,0.1-2,0.2-3,0.4c0.6-1.4,0.9-3,1.2-4.6l0-0.1
			c1.5-0.2,3-0.2,4.4,0c1.1,0.1,2.3,0.3,3.4,0.7c0.4,0.1,0.9,0.3,1.3,0.5c0.8,0.3,1.6,0.8,2.2,1.4c0.2,0.2,0.4,0.4,0.6,0.6
			C350.9,350.1,349.4,350.6,348,351.3z"/>
		<path d="M356.7,281.2c-0.6-1.4,1.4-2.7,2.5-1.7c0.3,0.3,0.6,0.6,0.9,0.9c-0.5,0.8-1.2,1.4-2.2,1.4c-0.4,0-0.7-0.1-1-0.3
			C356.8,281.4,356.8,281.3,356.7,281.2z"/>
		<path d="M344.9,353.6c0.9-0.9,1.9-1.7,3.1-2.3c0.6,0.1,1.1,0.2,1.7,0.3c0.9,0.2,1.8,0.1,2.6,0.3c0.1,0,0.2,0,0.4,0l0.4,1.6
			c-0.5,0.1-0.9,0.2-1.4,0.3c-2,0.5-3.9,1.1-6,1.3C345,355.1,344.4,354.2,344.9,353.6z"/>
		<path fill="#FFD53F" d="M354.6,285.4c-0.5,4.8-0.9,9.6-1.4,14.5c-0.2,2.3-0.4,4.6-0.7,6.9c-1.3,13.5-2.7,27-4.1,40.5
			c-1.1-0.3-2.2-0.6-3.4-0.7c-1.5-0.1-3-0.1-4.4,0c0.4-2,0.9-4,1.3-6c0.8-4.1,1.5-8.2,2.3-12.3c1.6-8.3,3.1-16.5,4.5-24.8
			c0.4-2.3,0.8-4.6,1.2-6.9c0.4-2.4,1.2-5,1-7.3c0-0.3-0.1-0.6-0.2-0.9l0,0c-0.1-1.1-0.8-2-2.1-1.9c-2.8,0.4-5.8-0.7-7.4-2.9
			c-1.8-2.5-1.9-6-0.7-8.8c0.4-0.9,0.8-1.7,1.4-2.5c0.4,2.3,1.7,4.4,3.4,6.1c2.3,2.3,5.3,3.7,8.3,5.1c0.4,0.2,0.8,0.4,1,0.8
			C354.7,284.7,354.6,285.1,354.6,285.4z"/>
		<path fill="#EDEDED" d="M327.5,389.7c-2.3-2.9-3.5-6.5-3-10.2c0.4-2.6,1.5-4.8,3.1-6.7c0.7-0.8,1.5-1.6,2.3-2.3
			c1.3-1.1,0.3-3.6-1.5-2.8c-1,0.4-1.9,1-2.8,1.7c0-0.8,0.1-1.5,0.2-2.3c0.3-1.6,0.6-3.3,1.2-4.9c1.2-3.2,3.2-6.1,5.9-8.1
			c0.7-0.5,1.4-0.9,2.1-1.3c-0.6,2.2-0.6,4.5-0.4,6.7c0.4,4.1,1.7,8,3.8,11.6c-0.6,1.9-1.5,3.6-2.2,5.5c-0.4,1.2-0.8,2.3-0.7,3.6
			c0.1,0.9,0.5,1.8,0.9,2.6c1.6,2.8,4.3,5.1,7.4,6.2c3.1,1.1,6.6,1.1,9.6,0c5.6,3.8,12.2,5.9,18.9,7.1c6.6,1.2,13.4,1.4,20.1,1.6
			c0.1,0.1,0.2,0.1,0.2,0c-0.1,0-0.2,0-0.2,0c-0.1,0-0.2-0.1-0.3-0.2c8.2,3,16.6,5.9,25.2,7.1c8.8,1.3,18,1,26.4-1.9
			c5.8,5.3,13.6,8.4,21.4,8.7c7.9,0.2,15.8-2.4,21.9-7.3c3.8,6.8,10,11.9,16.9,15.4c6.2,3.1,13,5,19.8,6.3c-1.9,1.6-4.4,2.6-6.9,2.9
			c-4.4,0.6-8.9-0.4-13-1.8c-3.3-1.2-6.4-2.7-9.1-4.9c-1.5-1.2-2.7-2.5-3.7-4.1c-0.2-0.3-0.4-0.6-0.6-0.9c-0.3-0.5-0.6-0.9-0.9-1.4
			c-0.4-0.7-1.1-1.5-2-1.2c-1.1,0.4-1.1,1.7-0.8,3c0,0-0.1,0-0.1,0c-0.9,0.3-1.8,0.6-2.8,0.8c-1.8,0.5-3.6,1-5.5,1.4
			c-4,0.8-7.9,1.1-12,0.6c-4-0.5-7.9-1.6-11.5-3.4c-1.8-0.9-3.5-1.9-5.1-3.1c-0.9-0.6-1.9-1.5-2.8-2.2c-0.8-0.6-1.5-1-2.4-1.3
			c-1.2-0.4-2.3,0.5-1.9,1.7c0,0.1,0.1,0.2,0.1,0.3c-0.4,0.1-0.9,0.1-1.3,0.2c-1.6,0.4-3.2,0.6-4.8,0.9c-3.4,0.6-6.8,0.9-10.2,0.8
			c-6.6-0.1-13.2-1.6-19.3-4.3c-1.7-0.8-3.5-1.6-5.1-2.5c-1.6-0.9-3.4-2.3-5.2-2.7c-0.9-0.2-2,0.9-1.5,1.8c0.1,0.1,0.1,0.2,0.2,0.3
			c-2.4,0.1-4.8,0.5-7.2,0.6c-3.3,0.2-6.6,0.1-9.8-0.4c-6.7-0.9-12.9-3.3-18.8-6.7c-3.3-1.9-6.2-4.4-9.2-6.7c-1.3-1-3,0.5-2.1,1.9
			c0.1,0.2,0.3,0.4,0.4,0.5c-1.7,0-3.4,0.3-5.1,0.4c-2.3,0.1-4.5-0.1-6.7-0.7C333.4,394.8,329.9,392.8,327.5,389.7z"/>
		<path d="M337.4,338c1.3-8.3,2.6-16.6,4-24.9c0.7-4.1,1.4-8.2,2.1-12.3c0.4-2,0.7-4.1,1.1-6.1c0.2-1.1,0.3-2.3,0.6-3.4
			c1.4,0.1,2.8-0.1,4.2-0.7c0.9-0.4,1.3-1.3,1.3-2.2c0.1,0.3,0.2,0.5,0.2,0.9c0.1,2.4-0.7,5-1,7.3c-0.4,2.3-0.8,4.6-1.2,6.9
			c-1.5,8.3-3,16.5-4.5,24.8c-0.8,4.1-1.5,8.2-2.3,12.3c-0.4,2-0.8,4-1.3,6c-1.5,0.1-3.1,0.5-4.5,1c0.1-0.9,0.3-1.8,0.4-2.7
			C336.7,342.6,337.1,340.3,337.4,338z"/>
		<path d="M350.7,288.5c0,0.9-0.4,1.8-1.3,2.2c-1.3,0.6-2.8,0.8-4.2,0.7c0.1-0.7,0.3-1.3,0.4-1.9c0-0.3,0.1-0.5,0.2-0.7
			c0-0.1,0.1-0.2,0.1-0.2C347.1,286.6,349.9,286.7,350.7,288.5L350.7,288.5z"/>
		<path d="M335.9,350.7c-0.1-1,0-2,0.1-3c1.5-0.5,3-0.8,4.5-1l0,0.1c-0.3,1.5-0.6,3.1-1.2,4.6c-1.1,0.2-2.1,0.5-3.1,1
			c0-0.1-0.1-0.2-0.1-0.3C336,351.6,335.9,351.1,335.9,350.7z"/>
		<path fill="#FFDD65" d="M361.2,306c-0.9-1.4-3-0.9-3.3,0.7c-0.8,3.2-1.4,6.3-1.8,9.6c-0.4,2.9-0.8,5.8-0.2,8.6c0,0.2,0,0.5,0,0.7
			c0.1,0.7,0.5,1.4,0.8,2.1c0.5,1.2,1.1,2.4,1.7,3.5c1.2,2.4,2.4,4.8,3.8,7c0.6,1,1.2,2.3,2.2,3.1c1.3,1,3,0.6,3.9-0.7
			c1.5-2.2,2.6-4.6,3.5-7.1c0.5-1.4,1-2.9,1.3-4.4c0.2-1.2,0.6-2.6,0.6-3.8c0.2-0.3,0.3-0.6,0.2-0.9c-0.4-1.8-1.7-3.3-2.8-4.8
			c-1.1-1.5-2.2-3-3.3-4.5C365.5,312.1,363.3,309.1,361.2,306z M353.2,299.9c0.5-4.8,1-9.6,1.4-14.5c0-0.3,0.1-0.7-0.1-1.1
			c-0.2-0.4-0.6-0.6-1-0.8c-3-1.3-5.9-2.8-8.3-5.1c-1.7-1.6-3-3.8-3.4-6.1c1.3-1.7,3-3,5.1-3.7c2.9-0.9,6.3-0.1,8.4,2.1
			c1.1,1.2,1.7,2.7,1.7,4.3c0,0.8-0.1,1.7-0.3,2.5c-0.3,1-0.9,1.9-0.5,3c0.1,0.3,0.3,0.6,0.6,0.8c1.8,4.3,4.6,8.1,7.2,12
			c2.7,4,5.4,8,8.2,11.9c3.4,5,6.9,9.9,10.3,14.9c2.1,3,4.1,5.9,6.2,8.9c1.5,2.2,3,4.4,4.5,6.6c0.8,1.2,1.6,2.3,2.4,3.5
			c0.8,1.2,1.6,2.4,3,3c0.9,0.4,1.8,0.1,2.2-0.6c0.4,0.1,0.9,0,1.3-0.3c2-1.3,3.7-3.5,5.4-5.2c1.6-1.7,3.2-3.4,4.8-5.1
			c3.4-3.6,6.7-7.2,10.1-10.8c0.5-0.5,0.9-1,1.4-1.5c2.8-3,5.7-6.1,8.5-9.1c1.7-1.8,3.3-3.5,4.9-5.3c0.8-0.8,1.6-1.7,2.4-2.5
			c0.9-1,2-1.9,2.6-3.1c0.1-0.1,0.1-0.2,0.1-0.3c0.2-0.1,0.5-0.2,0.7-0.3c0.6-0.3,1.3-0.7,1.7-1.3c0.5-1,0.1-2.1-0.2-3.2
			c-0.7-2.4-0.8-4.9-0.3-7.4c0.6-0.4,1.3-0.7,2-1c2.3-0.8,4.9-0.5,6.7,0.8c1.9,1.4,3.2,3.6,3.1,5.9c-0.1,1.1-0.5,2.4-1.2,3.3
			c-0.5,0.6-0.8,0.9-1.3,1.3c-0.7,0.5-1.5,0.9-2.1,1.6c-0.5,0.8-0.6,1.7-0.2,2.4c0.1,1,0.5,1.9,0.8,2.8c0.4,1.2,0.8,2.3,1.2,3.5
			c0.8,2.1,1.6,4.3,2.4,6.4c1.6,4.3,3.2,8.7,4.8,13c0.1,0.2,0.1,0.3,0.2,0.5c1.5,4.2,3,8.4,4.4,12.6c0.7,2.2,1.5,4.3,2.2,6.5
			c0.4,1.1,0.7,2.2,1.1,3.2c0.4,1.2,0.7,2.7,1.5,3.7c0.6,0.8,1.4,1,2.1,0.9l0,0c0,0,0.1,0,0.1,0c1.9-0.1,3.8-1.9,5.1-3.1
			c1.6-1.5,3.2-2.9,4.8-4.4c3.1-2.8,6.1-5.6,9.2-8.5c2.4-2.3,4.9-4.5,7.3-6.8c3.7-3.5,7.5-6.9,11.2-10.4c1.8-1.6,3.5-3.3,5.3-4.9
			c0.8-0.8,1.7-1.6,2.5-2.4c0.3-0.3,0.6-0.6,0.9-1c1.4,0,2.8,0,4.2,0.1c0.9,0.1,2.1,0,2.6-0.8c0.1-0.2,0.2-0.5,0.2-0.8
			c0.2-1.8-0.6-3.5-1-5.2c-0.3-1.4-0.2-3,0.2-4.4c0.4-0.1,0.9-0.2,1.3-0.2c2.2-0.1,4.3,1.2,5.9,2.9c1.4,1.5,2.7,3.6,2.1,5.7
			c-0.3,1.2-1.1,2.2-1.9,3c-1.1,1-3,1.6-3.7,3.1c-0.3,0.8-0.2,1.5,0.3,2c-0.4,1.8-0.3,3.6-0.2,5.5c0.1,2.3,0.1,4.5,0.1,6.8
			c0.1,4.6,0.2,9.2,0.1,13.8c-0.1,9.2-0.4,18.4-1.1,27.6c-0.2,2.6-0.5,5.1-0.7,7.7c-0.1,1-0.2,2-0.2,3c-0.1-0.1-0.2-0.1-0.3-0.2
			c-2-1.2-4.1-1.9-6.4-2.4c-0.1,0-0.2,0-0.4-0.1c-1-0.3-2-0.6-3-0.8c-1.3-0.3-2.5-0.5-3.8-0.5c-1.1-0.1-2.7-0.1-3.8,0.5
			c-0.8-0.4-1.6-0.9-2.4-1.3c-4.4-2.2-9-3.9-13.8-5.1c-9.4-2.3-19.1-2.3-28.5-0.2c-2.6,0.6-5.1,1.3-7.5,2.3
			c-0.9,0.4-1.8,0.7-2.7,1.2c-0.4-1-0.8-1.9-1.5-2.8c-1.1-1.5-2.5-2.9-3.9-4.1c-2.9-2.5-6.3-4.5-9.8-5.9c-7.2-2.8-15.2-3-22.6-0.6
			c-2,0.7-3.9,1.5-5.8,2.5c-0.4,0.2-0.9,0.5-1.4,0.8c-3.4-3.2-7.6-5.5-11.8-7.6c-4.3-2.2-8.6-4.2-13.2-5.8c-8.3-3-17.1-4.7-26-3.6
			c-1.8,0.2-3.8,0.5-5.7,0.9c-0.2-0.2-0.4-0.4-0.6-0.6c-0.7-0.5-1.4-1-2.2-1.4c-0.4-0.2-0.8-0.3-1.3-0.5c1.5-13.5,2.8-27,4.1-40.5
			C352.7,304.5,352.9,302.2,353.2,299.9z M517.2,356.5c0.9-1.6,0.6-4,0.6-5.8c0-1.7,0-3.4-0.1-5c-0.2-3.1-0.3-6.4-1.2-9.4
			c0.3-1.3-0.9-3.1-2.4-2.8c-1.9,0.4-3.5,2-5,3.1c-1.4,1.1-2.8,2.3-4.1,3.4c-1.4,1.2-2.8,2.4-4.1,3.7c-1.3,1.3-3,2.7-3.5,4.5
			c0,0,0,0,0,0c-0.1,0.2-0.2,0.4-0.3,0.6c-0.3,1.4-0.1,2.9-0.1,4.3c0,1.3,0.1,2.7,0.2,4c0.1,1.3,0.2,2.7,0.3,4
			c0.1,0.7,0.2,1.4,0.3,2.1c0.1,0.7,0.1,1.5,0.4,2.2c-0.1,0.6,0.1,1.4,0.5,1.8c0.7,0.8,1.7,0.8,2.6,0.3c1.4-0.7,2.6-1.7,3.9-2.5
			c1.3-0.9,2.6-1.8,3.9-2.7c1.3-0.9,2.5-1.8,3.8-2.7c0.6-0.4,1.3-0.9,1.9-1.4c0.3-0.2,0.5-0.4,0.8-0.7l0,0
			C516.3,357.5,516.8,357.2,517.2,356.5z M451,341c0.9-1.8,0.2-4.2-0.1-6c-0.4-2-0.8-3.9-1.2-5.8c-0.4-1.9-0.8-3.8-1.3-5.7
			c-0.5-2-1.2-3.9-1.6-5.9c-0.3-1.4-1.9-2.7-3.2-1.6c-3.6,3-6.8,6.4-9.6,10.1c-1.4,1.9-2.7,3.8-3.8,5.8c-0.1,0.3-0.8,1.6-1.1,2.8
			c-0.1,0.1-0.1,0.2-0.2,0.4c-0.5,1.7-0.3,3.7,0,5.4c0.2,1.8,0.5,3.7,0.8,5.5c0.6,3.6,1,7.5,2.6,10.8c0.5,1.1,2.2,0.9,2.9,0.2
			c1.3-1.5,2.9-2.7,4.4-4c1.4-1.3,2.7-2.5,4-3.8c1.3-1.3,2.6-2.6,3.9-3.9c1.2-1.1,2.1-2.3,2.8-3.7C450.6,341.5,450.8,341.3,451,341z
			"/>
		<path d="M336.2,352.3c-0.4,0.2-0.7,0.3-1.1,0.5c0.2-0.7,0.5-1.4,0.8-2.1c0,0.4,0.1,0.9,0.2,1.3
			C336.1,352.1,336.2,352.2,336.2,352.3z"/>
		<path d="M329.9,370.4c-0.8,0.7-1.6,1.5-2.3,2.3l-2-0.5c0-0.1,0-0.1,0-0.2c-0.1-0.9,0-1.7,0.1-2.6c0-0.1,0-0.2,0-0.3
			c0.8-0.7,1.7-1.2,2.8-1.7C330.2,366.9,331.2,369.3,329.9,370.4z"/>
		<path d="M325.5,372.3c-0.1,0.6-1,0.7-1.2,0.1c-0.2-0.4-0.4-0.8-0.6-1.2c0.5-0.7,1.2-1.3,1.8-1.9c0,0.1,0,0.2,0,0.3
			c-0.1,0.9-0.2,1.7-0.1,2.6C325.5,372.2,325.5,372.2,325.5,372.3z"/>
		<path d="M322.9,367.2c-0.2-1.7,0-3.5,0.4-5.2c1.5-6.4,6-11.7,12.1-14.2c0.2-0.1,0.4-0.2,0.7-0.2c-0.1,1-0.2,2-0.1,3
			c-0.3,0.7-0.6,1.4-0.8,2.1c-0.7,0.4-1.4,0.8-2.1,1.3c-2.8,2-4.7,4.9-5.9,8.1c-0.6,1.5-1,3.2-1.2,4.9c-0.1,0.8-0.2,1.5-0.2,2.3
			c-0.7,0.5-1.3,1.2-1.8,1.9c-0.2-0.4-0.4-0.8-0.5-1.3C323,369,323,368.1,322.9,367.2z"/>
		<path d="M321.2,385.9c-1.3-4.8-0.5-10.7,2.6-14.7c0.2,0.4,0.4,0.8,0.6,1.2c0.2,0.6,1.1,0.5,1.2-0.1l2,0.5
			c-1.6,1.9-2.7,4.2-3.1,6.7c-0.5,3.7,0.7,7.3,3,10.2c2.4,3.1,5.9,5.1,9.7,6.1c2.2,0.6,4.5,0.8,6.7,0.7c1.7-0.1,3.4-0.4,5.1-0.4
			c0.6,0.9,1.3,1.7,2.1,2.5c-1.8,1.4-4.5,1.8-6.8,2c-2.3,0.2-4.7,0-7-0.4C330,398.6,323.2,393.2,321.2,385.9z"/>
		<path d="M336.2,285.4c-4.7-8.9,1.7-20.5,11.6-21.6c4.5-0.5,9.5,1.6,12,5.5c1.2,2,1.8,4.3,1.6,6.7c-0.1,1.2-0.5,3.1-1.3,4.4
			c-0.3-0.3-0.6-0.6-0.9-0.9c-1.1-1-3.1,0.3-2.5,1.7c0.1,0.1,0.1,0.2,0.2,0.4c-0.3-0.2-0.5-0.5-0.6-0.8c-0.4-1.1,0.2-1.9,0.5-3
			c0.2-0.8,0.3-1.6,0.3-2.5c-0.1-1.6-0.6-3.2-1.7-4.3c-2.1-2.2-5.5-3-8.4-2.1c-2.1,0.7-3.8,2-5.1,3.7c-0.6,0.8-1,1.6-1.4,2.5
			c-1.2,2.8-1.1,6.2,0.7,8.8c1.6,2.3,4.6,3.3,7.4,2.9c1.4-0.2,2.1,0.8,2.1,1.9c-0.8-1.8-3.7-1.9-4.7-0.1c0,0.1-0.1,0.2-0.1,0.2
			c-0.1,0.2-0.2,0.5-0.2,0.7c-0.2,0.6-0.3,1.3-0.4,1.9C341.5,291.1,337.9,288.7,336.2,285.4z"/>
	</g>
	<g>
	</g>
</g>
</svg>
