<?xml version="1.0" encoding="utf-8"?>
<!-- Generator: Adobe Illustrator 27.5.0, SVG Export Plug-In . SVG Version: 6.00 Build 0)  -->
<!DOCTYPE svg PUBLIC "-//W3C//DTD SVG 1.1//EN" "http://www.w3.org/Graphics/SVG/1.1/DTD/svg11.dtd" [
	<!ENTITY ns_extend "http://ns.adobe.com/Extensibility/1.0/">
	<!ENTITY ns_ai "http://ns.adobe.com/AdobeIllustrator/10.0/">
	<!ENTITY ns_graphs "http://ns.adobe.com/Graphs/1.0/">
	<!ENTITY ns_vars "http://ns.adobe.com/Variables/1.0/">
	<!ENTITY ns_imrep "http://ns.adobe.com/ImageReplacement/1.0/">
	<!ENTITY ns_sfw "http://ns.adobe.com/SaveForWeb/1.0/">
	<!ENTITY ns_custom "http://ns.adobe.com/GenericCustomNamespace/1.0/">
	<!ENTITY ns_adobe_xpath "http://ns.adobe.com/XPath/1.0/">
]>
<svg version="1.1" id="Calque_1" xmlns:x="&ns_extend;" xmlns:i="&ns_ai;" xmlns:graph="&ns_graphs;"
	 xmlns="http://www.w3.org/2000/svg" xmlns:xlink="http://www.w3.org/1999/xlink" x="0px" y="0px" viewBox="0 0 800 1000"
	 enable-background="new 0 0 800 1000" xml:space="preserve">
<metadata>
	<sfw  xmlns="&ns_sfw;">
		<slices></slices>
		<sliceSourceBounds  bottomLeftOrigin="true" height="471" width="376.4" x="201" y="-644.2"></sliceSourceBounds>
	</sfw>
</metadata>
<g id="Casque_astronaute">
	<circle opacity="0.3" fill="#D5EEFF" cx="390" cy="456" r="186.5"/>
	
		<ellipse transform="matrix(0.7071 -0.7071 0.7071 0.7071 -118.5555 441.7817)" opacity="0.7" fill="#FFFFFF" cx="474" cy="364" rx="30" ry="76"/>
	
		<ellipse transform="matrix(0.866 -0.5 0.5 0.866 -226.6797 203.0197)" opacity="0.7" fill="#FFFFFF" cx="265.5" cy="524.5" rx="21.5" ry="46.5"/>
	
		<ellipse transform="matrix(0.6255 -0.7802 0.7802 0.6255 -341.4809 468.8637)" opacity="0.7" fill="#FFFFFF" cx="317.6" cy="590.1" rx="9.2" ry="20"/>
	<g id="XMLID_00000116917357540972363630000011698271921155130778_">
		<g>
			<path d="M428.9,272.1c2.5,0.5,5,1.1,7.5,1.7c19.4,4.8,38.2,12.5,55.1,23.1c16.9,10.5,31.9,23.8,44.3,39.4
				c12.3,15.5,21.9,32.9,28.8,51.4c6.9,18.5,11.1,38.1,12.3,57.8c1.3,19.7-0.5,39.6-5.2,58.7c-4.8,19.2-12.8,37.6-23.7,54.1
				c-10.8,16.3-24.3,30.8-39.7,42.9c-15.4,12.2-32.6,22.1-50.9,29.3c-18.2,7.2-37.6,11.7-57.1,13.2c-19.6,1.5-39.4-0.3-58.3-5.3
				c-19-5.1-37.1-13.5-53.5-24.3c-16.4-10.8-31.1-24.1-43.7-39.2c-12.6-15.2-22.8-32.2-30.3-50.3c-7.5-18.1-12.1-37.5-13.2-57.1
				c-1.2-19.8,1.1-39.8,6.5-58.9c5.4-19.2,13.7-37.7,24.6-54.4c10.8-16.7,24-31.8,39.3-44.5c7.2-6,14.9-11.4,23-16.2
				c3.6-2.2,7-4.7,10.8-6.6c4.3-2.1,8.8-4.1,13.3-5.9c7.2-2.9,14.7-5.2,22.2-7.1c0,0.2-0.1,0.4-0.1,0.7c-0.2,1.5,0.2,2.8,0.9,3.8
				c-7,1.8-13.9,3.9-20.6,6.5c-0.4,0.2-0.8,0.3-1.2,0.5c-7.3,3.1-14.4,6.8-21.3,10.9c-16.6,10-31.6,22.5-44.5,37
				c-12.9,14.5-23.5,31-31.6,48.7c-8,17.5-13.4,36.4-15.6,55.6c-2.2,19.2-1.2,38.8,3.1,57.7c4.3,18.6,11.7,36.5,21.5,52.9
				c9.9,16.5,22.3,31.5,36.5,44.5c14.1,12.9,30.2,23.6,47.6,31.6c17.3,8,36,13.1,55,14.9c19,1.8,38.3,0.5,56.9-3.8
				c18.8-4.3,36.9-11.3,53.6-20.9c16.6-9.5,31.9-21.4,45-35.4c13.1-14,23.9-30.1,31.7-47.6c7.8-17.6,12.6-36.6,14.3-55.8
				c1.8-19.2,0.6-38.7-3.3-57.5c-3.9-18.9-10.6-37.2-20-54c-9.4-16.9-21.4-32.4-35.9-45.3c-14.5-13-31.2-23.4-49.1-30.9
				c-11.4-4.8-23.4-8.5-35.6-11.1c0.7-1.2,1-2.5,0.7-3.9C429,272.5,428.9,272.3,428.9,272.1z"/>
			<path d="M424.6,267.8c1.8,0.9,3.7,2.3,4.3,4.3c-2.2-0.5-4.4-0.9-6.6-1.3c-0.6-0.2-1.1-0.5-1.6-0.6c-2-0.8-4-1.4-6.1-1.8
				c-0.6-0.1-1.1-0.2-1.7-0.3c-0.2-0.4-0.5-0.8-0.7-1.1c-0.5-0.8-1-1.7-1.6-2.5c2.1-0.3,4.3,0.1,6.4,0.6
				C419.5,265.7,422.1,266.6,424.6,267.8z"/>
			<path d="M424.9,272.8c-0.6-0.8-1.6-1.4-2.7-1.9c2.2,0.4,4.4,0.8,6.6,1.3c0.1,0.2,0.1,0.4,0.1,0.5c0.3,1.4,0,2.7-0.7,3.9
				c-1.4-0.3-2.9-0.6-4.3-0.8C424.9,275,425.7,273.9,424.9,272.8z"/>
			<path fill="#D3D3D3" d="M414.5,268.5c2.1,0.4,4.2,1,6.1,1.8c0.5,0.2,1,0.4,1.6,0.6c-2.9-0.5-5.9-0.9-8.8-1.3
				c-0.1-0.5-0.3-0.9-0.6-1.4C413.4,268.3,414,268.4,414.5,268.5z"/>
			<path d="M412.9,268.2c-1.5-0.2-3-0.4-4.5-0.9c-1.1-0.4-1-1.8,0-2.2c0.7-0.3,1.4-0.4,2.1-0.5c0.6,0.8,1.1,1.7,1.6,2.5
				C412.4,267.4,412.6,267.8,412.9,268.2z"/>
			<path d="M412.2,269.4c-1.4-0.2-2.9-0.3-4.3-0.5c0-0.1-0.1-0.1-0.1-0.2c0.9-0.2,1.9-0.3,2.8-0.3
				C411.3,268.4,411.9,268.8,412.2,269.4z"/>
			<path fill="#D3D3D3" d="M411.4,272.1c1.3,0.2,2.4-1,2.1-2.4c0-0.1,0-0.1-0.1-0.2c2.9,0.4,5.9,0.8,8.8,1.3c1,0.5,2.1,1.1,2.7,1.9
				c0.8,1.1,0,2.2-0.9,3c-5.5-1-11-1.8-16.6-2.4l-0.7-0.1C408.3,273.1,410,272.8,411.4,272.1z"/>
			<path d="M413.5,269.8c0.3,1.4-0.9,2.6-2.1,2.4c0.1,0,0.1,0,0.2-0.1c1.1-0.5,1.2-1.8,0.7-2.7c0.4,0,0.8,0.1,1.3,0.1
				C413.5,269.6,413.5,269.7,413.5,269.8z"/>
			<path d="M411.4,272.1c-0.2,0-0.4-0.1-0.7-0.2c-1.2-0.6-1.9-1.8-2.7-2.8c-0.1-0.1-0.1-0.1-0.2-0.2c1.4,0.1,2.9,0.3,4.3,0.5
				c0.5,0.9,0.4,2.1-0.7,2.7C411.5,272.1,411.4,272.1,411.4,272.1z"/>
			<path fill="#D3D3D3" d="M410.7,271.9c0.2,0.1,0.4,0.2,0.7,0.2c-1.4,0.6-3,0.9-4.6,1.2l-1.2-0.1c-1.8-0.2-3.6-0.3-5.5-0.4
				c-0.4-0.9-0.8-1.7-1.2-2.6c1.8-0.2,3.7-0.5,5.5-0.8c0.9-0.2,1.8-0.4,2.8-0.6c0.2,0,0.5,0,0.7,0.1c0.1,0.1,0.1,0.1,0.2,0.2
				C408.8,270.1,409.5,271.3,410.7,271.9z"/>
			<path fill="#D3D3D3" d="M407.7,268.7c0.1,0.1,0.1,0.1,0.1,0.2c-0.2,0-0.5-0.1-0.7-0.1C407.4,268.8,407.5,268.8,407.7,268.7z"/>
			<path d="M408.4,267.3c1.5,0.5,3,0.7,4.5,0.9c0.3,0.4,0.5,0.9,0.6,1.4c-0.4-0.1-0.8-0.1-1.3-0.1c-0.3-0.6-0.9-1-1.7-1
				c-0.9,0-1.9,0.1-2.8,0.3c-0.6-0.8-1.2-1.7-1.8-2.5c-1.3-2-2.6-4.1-3.7-6.2c-0.7-1.4-1.5-2.8-2.1-4.2c-0.7-1.5-1.4-3-2.1-4.6
				c-2-4.9-3.7-9.9-5-14.9c-1-4.1-1.8-8.3-2.3-12.5c-0.2-2.1-0.4-4.2-0.5-6.4c-0.1-1.2-0.2-2.7-0.1-4.1c1.1-0.2,2.2-0.4,3.3-0.8
				c0.1,0.7,0.1,1.4,0.2,2.1c0.1,1.1,0.2,2.3,0.3,3.4c0.2,2.3,0.5,4.6,0.9,6.9c1.4,8,3.4,15.9,6.7,23.4c0.5,1.1,1,2.2,1.5,3.2
				c0.8,1.6,1.6,3.1,2.4,4.7c0.5,1,1.1,1.9,1.6,2.9c1,1.8,2.1,3.6,3.2,5.3c0,0.1,0.1,0.1,0.1,0.2c-0.7,0.1-1.4,0.3-2.1,0.5
				C407.3,265.5,407.3,266.9,408.4,267.3z"/>
			<path fill="#D3D3D3" d="M403.1,268.5c1.4,0.1,2.7,0.2,4.1,0.4c-0.9,0.2-1.9,0.4-2.8,0.6c-1.8,0.3-3.6,0.6-5.5,0.8
				c-0.3-0.7-0.6-1.4-0.9-2C399.7,268.3,401.4,268.4,403.1,268.5z"/>
			<path fill="#D3D3D3" d="M406,266.2c0.6,0.9,1.2,1.7,1.8,2.5c-0.2,0-0.4,0.1-0.6,0.1c-1.4-0.1-2.7-0.2-4.1-0.4
				c-1.7-0.1-3.4-0.2-5.1-0.3c0.3,0.7,0.6,1.4,0.9,2c-0.2,0-0.4,0-0.6,0.1c-4.1,0.4-8.2,0.7-12.3,0.8c-3.9,0-7.9-0.1-11.8-0.4
				c0.1-0.1,0.1-0.2,0.2-0.4c11.8-6.6,16.8-29,11.8-56.8c1.1,0.1,2.2,0,3.3-0.1c0.2,0,0.5-0.1,0.7-0.1c-0.1,1.4,0,2.8,0.1,4.1
				c0.1,2.1,0.2,4.2,0.5,6.4c0.5,4.2,1.2,8.4,2.3,12.5c1.3,5.1,3,10.1,5,14.9c0.6,1.6,1.3,3.1,2.1,4.6c0.7,1.4,1.4,2.8,2.1,4.2
				C403.4,262.1,404.6,264.2,406,266.2z"/>
			<path fill="#FF3A4B" d="M398.4,182.8c5.1,5.3,5.5,13.5,1.5,19.6c-1.6,2.5-3.8,4.2-6.4,5.3c-8.5-1.6-16.1-7.7-19.4-15.7
				c-0.8-2.1-1.4-4.3-1.4-6.6c1.5-2.4,3.6-4.4,6.2-5.8C385.4,176.1,393.4,177.6,398.4,182.8z M398,191.5c1.2-1.2,0.2-4.3-2.2-6.8
				s-5.5-3.5-6.8-2.2s-0.2,4.3,2.2,6.8S396.8,192.7,398,191.5z"/>
			<path d="M393.1,211.2c0.2,0.4,0.4,0.9,0.5,1.4c-1.1,0.4-2.2,0.6-3.3,0.8c0.1-0.8,0.2-1.5,0.5-2.1c0.2-0.4,0.6-0.6,1-0.6
				C392.3,210.5,392.8,210.7,393.1,211.2z"/>
			<path d="M393.5,207.7c2.6-1.1,4.8-2.9,6.4-5.3c4-6.1,3.6-14.3-1.5-19.6c-5.1-5.2-13-6.7-19.5-3.2c-2.5,1.4-4.7,3.4-6.2,5.8
				c-2.6,4.1-3.4,9.1-1.4,13.9c1.4,3.4,4.4,6.1,7.7,7.8c1,0.5,2,0.9,3.1,1.2l-0.7,2.2c-0.5,0-0.9,0.2-1.2,0.7
				c-0.2,0.3-0.3,0.7-0.4,1c-1.6-0.4-3.1-1-4.5-1.8c-4.9-2.6-8.7-7.3-9.7-12.9c-1.8-10,4.7-19.7,14-23.2c8.7-3.3,18.7,0.4,23.9,7.9
				c5.3,7.6,4.2,18.3-1.9,25.1c-2.2,2.5-5.1,4.2-8.2,5.2c-0.1-0.5-0.2-0.9-0.5-1.4c-0.3-0.5-0.8-0.7-1.3-0.6l-0.5-2
				C392,208.3,392.8,208.1,393.5,207.7z"/>
			<path fill="#CC2E3C" d="M393.5,207.7c-0.8,0.3-1.5,0.6-2.3,0.8c-0.3,0.1-0.6,0.2-0.9,0.2c-1.4,0.3-2.8,0.4-4.2,0.3
				c-0.3,0-0.5-0.1-0.8-0.1c-1.1-0.2-2.2-0.4-3.2-0.7c-1.1-0.3-2.1-0.7-3.1-1.2c-3.3-1.6-6.3-4.3-7.7-7.8c-2-4.8-1.2-9.8,1.4-13.9
				c0,2.2,0.5,4.5,1.4,6.6C377.4,200,385,206.1,393.5,207.7z"/>
			<path d="M391.2,208.5l0.5,2c-0.4,0.1-0.8,0.3-1,0.6c-0.3,0.6-0.5,1.4-0.5,2.1c-0.2,0-0.5,0.1-0.7,0.1c-1,0.1-2.2,0.2-3.3,0.1
				c-0.1-0.6-0.2-1.3-0.3-1.9l0.2-2.5c1.4,0.1,2.8,0,4.2-0.3C390.6,208.7,390.9,208.6,391.2,208.5z"/>
			<path d="M385.9,211.6c0.1,0.6,0.2,1.3,0.3,1.9c-1.1,0-2.1-0.2-3.1-0.5c-0.1-0.7-0.2-1.3-0.5-1.9c-0.2-0.4-0.7-0.7-1.1-0.7
				l0.7-2.2c1.1,0.3,2.2,0.6,3.2,0.7c0.2,0,0.5,0.1,0.8,0.1L385.9,211.6z"/>
			<path d="M381.5,212.5c-0.5-0.1-1.1-0.2-1.6-0.3c0.1-0.3,0.2-0.7,0.4-1c0.2-0.4,0.7-0.7,1.2-0.7c0.5,0,0.9,0.2,1.1,0.7
				c0.3,0.6,0.4,1.2,0.5,1.9c-0.1,0-0.2-0.1-0.4-0.1C382.3,212.8,381.9,212.7,381.5,212.5z"/>
			<path d="M371.4,280.9c9.1,0.4,18.3,0.8,27.4,0.5c4.5-0.2,9-0.5,13.5-1.3c3.8-0.7,8.1-1.7,11.3-4c0.2-0.1,0.3-0.2,0.5-0.4
				c1.4,0.2,2.9,0.5,4.3,0.8c-0.5,0.9-1.2,1.6-1.9,2.2c-3.6,3-8.6,4.3-13.1,5.1c-5.2,0.9-10.5,1.3-15.7,1.5
				c-10.6,0.3-21.2-0.3-31.8-1.2c-5.4-0.4-10.8-1-16.1-1.9c-2.9-0.5-6.3-1.8-8-4.2c1.2-0.3,2.5-0.6,3.7-0.9c1.4,1.3,3.5,1.6,5.4,1.9
				c2.3,0.4,4.6,0.7,6.9,0.9C362.2,280.5,366.8,280.7,371.4,280.9z"/>
			<path fill="#D3D3D3" d="M374.4,270.3c-0.1,0.1-0.1,0.2-0.2,0.4c-0.2,0-0.3,0-0.5,0C374,270.5,374.2,270.4,374.4,270.3z"/>
			<path fill="#D3D3D3" d="M400.1,272.8c1.8,0.1,3.6,0.2,5.5,0.4l1.2,0.1c-0.6,0.1-1.1,0.2-1.7,0.3c-2.1,0.4-4.1,0.7-6.2,0.9
				c-4.2,0.5-8.5,0.8-12.8,0.8s-8.6-0.2-12.8-0.7c-2.1-0.2-4.1-0.5-6.2-0.8c-0.3,0-0.6-0.1-0.9-0.1c0.5-0.1,1-0.1,1.6-0.2
				c1.8-0.2,3.7-0.4,5.5-0.5c0.4-0.8,0.7-1.5,1.1-2.3c3.9,0.3,7.8,0.4,11.8,0.4c4.1,0,8.2-0.3,12.3-0.8c0.2,0,0.4,0,0.6-0.1
				C399.3,271.1,399.7,271.9,400.1,272.8z"/>
			<path fill="#BCBCBC" d="M365.2,269.3c1.6-0.2,3.3-0.4,4.9-0.5c1.7-0.2,3.4-0.3,5.1-0.4c-0.3,0.6-0.5,1.3-0.8,1.9
				c-0.2,0.1-0.4,0.2-0.6,0.4c0,0-0.1,0-0.1,0c-2-0.2-4.1-0.4-6.1-0.7c-0.8-0.1-1.7-0.3-2.5-0.4
				C365.1,269.4,365.1,269.4,365.2,269.3z"/>
			<path d="M382.7,212.9c0.1,0,0.2,0.1,0.4,0.1c0.2,1.4,0,3-0.1,4.3c-0.1,2.1-0.2,4.2-0.5,6.4c-0.5,4.2-1.2,8.4-2.2,12.5
				c-1.3,5.1-3,10.2-5.1,15.1c-0.7,1.6-1.4,3.1-2.1,4.6c-0.6,1.4-1.3,2.7-2,4c-1.1,2.1-2.4,4.2-3.7,6.2c-0.2,0.3-0.4,0.6-0.7,1
				l-1.2-0.9c0.9-0.6,0.5-2.2-0.7-2.3c-0.5,0-1-0.1-1.6-0.1c1-1.6,2-3.2,3-4.9c0.5-0.9,1-1.7,1.5-2.6c0.9-1.6,1.7-3.1,2.5-4.7
				c0.6-1.2,1.1-2.3,1.6-3.5c3.3-7.5,5.3-15.4,6.7-23.4c0.4-2.3,0.7-4.6,0.9-6.9c0.1-1.1,0.2-2.3,0.3-3.4c0.1-0.8,0-1.6,0.2-2.4
				c0.5,0.1,1.1,0.2,1.6,0.3C381.9,212.7,382.3,212.8,382.7,212.9z"/>
			<path fill="#BCBCBC" d="M367.4,266.2c1.3-2,2.6-4.1,3.7-6.2c0.7-1.3,1.4-2.6,2-4c0.7-1.5,1.4-3.1,2.1-4.6
				c2.1-4.9,3.8-10,5.1-15.1c1-4.1,1.8-8.3,2.2-12.5c0.2-2.1,0.4-4.2,0.5-6.4c0.1-1.3,0.2-2.9,0.1-4.3c1,0.3,2.1,0.4,3.1,0.5
				c5,27.8,0,50.2-11.8,56.8c0.3-0.6,0.6-1.3,0.8-1.9c-1.7,0.1-3.4,0.2-5.1,0.4c-1.6,0.2-3.3,0.3-4.9,0.5c0,0,0.1-0.1,0.1-0.1
				c0.5-0.6,1-1.3,1.4-2C367,266.9,367.2,266.5,367.4,266.2z"/>
			<path d="M365.5,266.3c-0.1,0.1-0.2,0.1-0.4,0.2c-1.4,0.3-2.7,0.6-4.1,0.9c0.1-0.1,0.2-0.2,0.2-0.4c0.6-0.9,1.1-1.8,1.7-2.7
				c0.1-0.1,0.2-0.3,0.2-0.4c0.5,0,1,0,1.6,0.1C366,264.1,366.4,265.7,365.5,266.3z"/>
			<path d="M365.2,269.3c-0.1,0.1-0.1,0.2-0.2,0.2c-0.3,0-0.6-0.1-0.9-0.1C364.5,269.4,364.8,269.3,365.2,269.3z"/>
			<path fill="#BCBCBC" d="M373,271c-2.5,1.1-5.9,1.8-10.7,1c0.1,0,0.2-0.1,0.3-0.1c1-0.5,1.7-1.5,2.4-2.4c0.9,0.1,1.8,0.3,2.5,0.4
				c2,0.3,4.1,0.5,6.1,0.7c0,0,0.1,0,0.1,0C373.5,270.8,373.2,270.9,373,271z"/>
			<path d="M364.1,269.4c-1,0.1-2.1,0.3-3.1,0.4c0.1-0.1,0.3-0.2,0.5-0.3C362.3,269.3,363.2,269.3,364.1,269.4z"/>
			<path d="M361.5,269.5c-0.2,0-0.4,0.1-0.5,0.3c-0.4,0-0.8,0.1-1.2,0.2c0-0.1,0-0.2,0-0.2c0.2-0.9,0.7-1.6,1.2-2.3
				c1.4-0.3,2.7-0.6,4.1-0.9c0.2,0,0.3-0.1,0.4-0.2l1.2,0.9c-0.5,0.7-0.9,1.3-1.4,2c0,0-0.1,0.1-0.1,0.1c-0.4,0-0.7,0.1-1.1,0.1
				C363.2,269.3,362.3,269.3,361.5,269.5z"/>
			<path d="M360.8,271.9c-0.7-0.6-0.4-1.6,0.2-2.1c1-0.1,2.1-0.3,3.1-0.4c0.3,0,0.6,0.1,0.9,0.1c-0.7,0.9-1.4,1.8-2.4,2.4
				c-0.1,0.1-0.2,0.1-0.3,0.1C361.8,272.2,361.3,272.2,360.8,271.9z"/>
			<path fill="#D3D3D3" d="M373.1,273c-1.8,0.1-3.7,0.3-5.5,0.5c-0.5,0.1-1,0.1-1.6,0.2c-1.8-0.3-3.8-0.6-5.2-1.7c0,0,0,0,0,0
				c0.4,0.2,1,0.3,1.5,0.1c4.8,0.8,8.2,0,10.7-1c0.2-0.1,0.5-0.2,0.8-0.4c0.2,0,0.3,0,0.5,0C373.9,271.5,373.5,272.2,373.1,273z"/>
			<path d="M359.8,270c0.4-0.1,0.8-0.1,1.2-0.2c-0.6,0.5-0.9,1.5-0.2,2.1C360.2,271.6,359.7,270.8,359.8,270z"/>
			<path fill="#D3D3D3" d="M360.9,272c1.4,1.1,3.4,1.4,5.2,1.7c-5.7,0.6-11.4,1.6-17,2.7c-1.2,0.2-2.4,0.5-3.6,0.8
				c0,0-0.1-0.1-0.1-0.1c-2-1.9-0.8-3.5,1-4.7c4.4-1,8.9-1.8,13.4-2.4C359.7,270.8,360.2,271.6,360.9,272
				C360.8,271.9,360.9,272,360.9,272z"/>
			<path d="M363,264.4c-0.6,0.9-1.2,1.8-1.7,2.7c-0.1,0.1-0.2,0.2-0.2,0.4c-3.4,0.8-6.9,1.6-10.2,2.9c-1,0.4-3,1.1-4.4,2.1
				c-1.8,0.4-3.6,0.8-5.4,1.3c0.9-4,5.4-5.8,8.8-7.1c4.3-1.6,8.9-2.7,13.4-2.6C363.1,264.1,363,264.2,363,264.4z"/>
			<path fill="#D3D3D3" d="M350.8,270.3c3.3-1.2,6.8-2.1,10.2-2.9c-0.5,0.7-1,1.4-1.2,2.3c0,0.1,0,0.2,0,0.2
				c-4.5,0.6-9,1.4-13.4,2.4C347.8,271.4,349.8,270.7,350.8,270.3z"/>
			<path fill="#D3D3D3" d="M373.2,274.6c4.3,0.5,8.6,0.7,12.8,0.7s8.6-0.3,12.8-0.8c2.1-0.3,4.2-0.6,6.2-0.9
				c0.5-0.1,1.1-0.2,1.7-0.3l0.7,0.1c5.6,0.5,11.1,1.3,16.6,2.4c-0.1,0.1-0.3,0.3-0.5,0.4c-3.2,2.4-7.5,3.4-11.3,4
				c-4.4,0.8-9,1.1-13.5,1.3c-9.1,0.3-18.3-0.1-27.4-0.5c-4.6-0.2-9.2-0.5-13.7-0.9c-2.3-0.2-4.6-0.6-6.9-0.9
				c-1.8-0.3-3.9-0.6-5.4-1.9c1.2-0.3,2.4-0.5,3.6-0.8c5.6-1.2,11.3-2.1,17-2.7c0.3,0,0.6,0.1,0.9,0.1
				C369,274.1,371.1,274.4,373.2,274.6z"/>
			<path d="M346.4,272.4c-1.8,1.2-3,2.9-1,4.7c0,0,0.1,0.1,0.1,0.1c-1.2,0.3-2.5,0.6-3.7,0.9c-0.7-1-1-2.3-0.9-3.8
				c0-0.2,0.1-0.5,0.1-0.7C342.8,273.2,344.6,272.8,346.4,272.4z"/>
		</g>
		<g>
		</g>
	</g>
</g>
</svg>
