<?xml version="1.0" encoding="utf-8"?>
<!-- Generator: Adobe Illustrator 27.5.0, SVG Export Plug-In . SVG Version: 6.00 Build 0)  -->
<!DOCTYPE svg PUBLIC "-//W3C//DTD SVG 1.1//EN" "http://www.w3.org/Graphics/SVG/1.1/DTD/svg11.dtd" [
	<!ENTITY ns_extend "http://ns.adobe.com/Extensibility/1.0/">
	<!ENTITY ns_ai "http://ns.adobe.com/AdobeIllustrator/10.0/">
	<!ENTITY ns_graphs "http://ns.adobe.com/Graphs/1.0/">
	<!ENTITY ns_vars "http://ns.adobe.com/Variables/1.0/">
	<!ENTITY ns_imrep "http://ns.adobe.com/ImageReplacement/1.0/">
	<!ENTITY ns_sfw "http://ns.adobe.com/SaveForWeb/1.0/">
	<!ENTITY ns_custom "http://ns.adobe.com/GenericCustomNamespace/1.0/">
	<!ENTITY ns_adobe_xpath "http://ns.adobe.com/XPath/1.0/">
]>
<svg version="1.1" id="Calque_1" xmlns:x="&ns_extend;" xmlns:i="&ns_ai;" xmlns:graph="&ns_graphs;"
	 xmlns="http://www.w3.org/2000/svg" xmlns:xlink="http://www.w3.org/1999/xlink" x="0px" y="0px" viewBox="0 0 800 1000"
	 enable-background="new 0 0 800 1000" xml:space="preserve">
<metadata>
	<sfw  xmlns="&ns_sfw;">
		<slices></slices>
		<sliceSourceBounds  bottomLeftOrigin="true" height="140.2" width="140.1" x="309.9" y="-559.7"></sliceSourceBounds>
	</sfw>
</metadata>
<g id="Bas_00000067941018040161812630000005386514453751862713_">
	<g id="XMLID_00000178192776478075761640000013876527565825079716_">
		<g>
			<path d="M448.7,476.8c2.7,14,1.3,28.6-4.7,41.5c-5.9,12.8-15.9,23.5-27.9,30.8c-12,7.3-26.1,11.2-40.1,10.4
				c-13.4-0.9-26.5-5.9-37.3-13.8c0-0.3-0.2-0.6-0.5-0.8c0,0,0,0,0,0c0,0,0,0-0.1,0c0,0,0,0,0,0c0,0,0,0,0,0c0,0-0.1,0-0.1-0.1
				c-0.2-0.1-0.4-0.2-0.5-0.4c-0.5-0.4-1-0.8-1.6-1.1c-0.3-0.2-0.6-0.4-0.9-0.6c0,0-0.1-0.1-0.1-0.1c0,0,0,0,0,0c0,0,0,0,0,0
				c0,0,0,0,0,0l0,0c-0.1-0.1-0.3-0.2-0.4-0.3c-0.3-0.3-0.7-0.5-1-0.9c-0.1-0.1-0.2-0.2-0.4-0.2c0,0,0,0,0,0
				c-9.5-8.5-16.7-19.4-20.3-31.6c-4-13.6-3.4-28.4,1-41.8c4.4-13.4,12.6-25.7,23.9-34.2c1-0.7,1.9-1.4,2.9-2.1
				c0.7-0.4,1.3-0.9,2.1-1.2c0.8-0.4,1.7-0.7,2.4-1.3c0.1-0.1,0.2-0.2,0.2-0.3c10.2-5.7,21.8-8.7,33.5-9c7.3-0.2,14.6,0.8,21.6,2.7
				c3.6,1,7.1,2.3,10.5,4c1.6,0.8,3.2,1.7,4.7,2.7c1.5,1,2.9,2.2,4.4,3.2c0.4,0.2,0.6,0.6,0.7,0.9c0.4,0,0.8,0.1,1.1,0.4
				c2.8,2,5.4,4.3,7.9,6.7C439.2,450,446,463,448.7,476.8z M443.2,507.4c3.6-12.8,2.7-26.3-1.4-38.9c-4.1-12.5-11.9-24-22.4-32
				c-0.4-0.3-0.6-0.6-0.7-1c-0.3,0-0.7-0.1-1.1-0.3c-2.7-1.8-5.9-3.2-8.9-4.4c-12.6-5.5-26.3-7.5-39.9-5.3
				c-13.5,2.2-26,8.5-35.5,18.4c-9.1,9.5-15.1,21.8-17.5,34.7c-2.4,12.9-0.9,26.6,4.7,38.5c5.7,12.1,15.3,22.1,26.8,29
				c11.5,6.8,25,10.2,38.4,9c13.1-1.2,25.7-6.7,35.7-15C431.8,531.5,439.6,520.2,443.2,507.4z"/>
			<path fill="#FFFFFF" d="M441.9,468.5c4.1,12.6,4.9,26.1,1.4,38.9c-3.6,12.8-11.4,24.1-21.7,32.5c-10.1,8.3-22.7,13.8-35.7,15
				c-13.4,1.2-26.9-2.2-38.4-9c-11.5-6.8-21-16.9-26.8-29c-5.6-11.9-7.1-25.6-4.7-38.5c2.4-12.9,8.4-25.2,17.5-34.7
				c9.5-9.9,22-16.1,35.5-18.4c13.6-2.3,27.3-0.2,39.9,5.3c3,1.3,6.2,2.6,8.9,4.4c0.4,0.3,0.8,0.3,1.1,0.3c0.1,0.4,0.3,0.7,0.7,1
				C430,444.5,437.8,456,441.9,468.5z M380.5,489.8c0-0.5-0.1-1-0.3-1.4c-0.3-0.5-0.5-0.8-1-1c-0.3-0.2-0.7-0.3-1-0.4
				c-0.4-0.1-0.8-0.1-1.1,0c-0.2,0.1-0.4,0.2-0.7,0.3c-0.4,0.2-0.8,0.6-1,1c-0.1,0.1-0.1,0.1-0.1,0.2c-0.1,0.2-0.2,0.4-0.3,0.7
				c-0.1,0.4-0.2,0.7-0.1,1.1c0,0.2,0,0.5,0.2,0.7c0.1,0.4,0.3,0.7,0.6,0.9c0.2,0.2,0.4,0.3,0.5,0.5c0.2,0.1,0.4,0.2,0.6,0.3
				c0.4,0.1,0.7,0.2,1.1,0.1c0.4,0,0.7-0.1,1-0.3c0.1,0,0.1-0.1,0.2-0.1c0.3-0.2,0.6-0.4,0.8-0.7c0.3-0.3,0.4-0.6,0.5-1
				C380.5,490.3,380.5,490.1,380.5,489.8z"/>
			<path d="M378.9,492.4c-0.3,0.2-0.7,0.3-1,0.3c-0.4,0.1-0.7,0-1.1-0.1c-0.2-0.1-0.4-0.2-0.6-0.3c-0.2-0.1-0.4-0.3-0.5-0.5
				c-0.3-0.3-0.5-0.6-0.6-0.9c-0.1-0.2-0.2-0.5-0.2-0.7c-0.1-0.4,0-0.8,0.1-1.1c0.1-0.2,0.2-0.4,0.3-0.7c0-0.1,0.1-0.1,0.1-0.2
				c0.3-0.4,0.6-0.7,1-1c0.2-0.1,0.5-0.2,0.7-0.3c0.4-0.1,0.8-0.1,1.1,0c0.4,0,0.7,0.1,1,0.4c0.5,0.3,0.7,0.6,1,1
				c0.2,0.4,0.4,0.9,0.3,1.4c0,0.2-0.1,0.5-0.1,0.8c-0.1,0.4-0.3,0.7-0.5,1c-0.2,0.3-0.5,0.5-0.8,0.7
				C379,492.3,378.9,492.3,378.9,492.4z"/>
			<path d="M338,544.9C338.1,544.9,338.1,544.9,338,544.9C338.1,544.9,338.1,544.9,338,544.9L338,544.9z"/>
		</g>
		<g>
		</g>
	</g>
</g>
</svg>
