<?xml version="1.0" encoding="utf-8"?>
<!-- Generator: Adobe Illustrator 27.5.0, SVG Export Plug-In . SVG Version: 6.00 Build 0)  -->
<!DOCTYPE svg PUBLIC "-//W3C//DTD SVG 1.1//EN" "http://www.w3.org/Graphics/SVG/1.1/DTD/svg11.dtd" [
	<!ENTITY ns_extend "http://ns.adobe.com/Extensibility/1.0/">
	<!ENTITY ns_ai "http://ns.adobe.com/AdobeIllustrator/10.0/">
	<!ENTITY ns_graphs "http://ns.adobe.com/Graphs/1.0/">
	<!ENTITY ns_vars "http://ns.adobe.com/Variables/1.0/">
	<!ENTITY ns_imrep "http://ns.adobe.com/ImageReplacement/1.0/">
	<!ENTITY ns_sfw "http://ns.adobe.com/SaveForWeb/1.0/">
	<!ENTITY ns_custom "http://ns.adobe.com/GenericCustomNamespace/1.0/">
	<!ENTITY ns_adobe_xpath "http://ns.adobe.com/XPath/1.0/">
]>
<svg version="1.1" id="Calque_1" xmlns:x="&ns_extend;" xmlns:i="&ns_ai;" xmlns:graph="&ns_graphs;"
	 xmlns="http://www.w3.org/2000/svg" xmlns:xlink="http://www.w3.org/1999/xlink" x="0px" y="0px" viewBox="0 0 800 1000"
	 enable-background="new 0 0 800 1000" xml:space="preserve">
<metadata>
	<sfw  xmlns="&ns_sfw;">
		<slices></slices>
		<sliceSourceBounds  bottomLeftOrigin="true" height="98.8" width="229.3" x="301.7" y="-550.2"></sliceSourceBounds>
	</sfw>
</metadata>
<g id="Cyclope_00000167375080699870864250000007470005240264945554_">
	<g>
		<path d="M529.4,513.6c-0.1-0.6-0.5-1.4-1.1-1.5c-0.6-0.1-1.1,0.5-1.5,0.7c-0.3,0.2-0.7,0.3-1,0.5c-0.2-4.9,0.2-9.8,0.4-14.7
			c0.2-4.3,0.4-8.7,0.7-13c0-0.7,0.1-1.3,0.1-2c0-0.1,0-0.2,0-0.4c-0.4,0.1-0.9,0.2-1.3,0.3c-2,0.6-4,1-6,1.4
			c-4.1,0.8-8.2,1.4-12.3,1.6c-2.1,0.1-4.3,0.2-6.4,0.1c-1.1-0.1-2.3-0.1-3.4-0.3v-3.7c0.6,0,1.2,0,1.7-0.1c1.3-0.1,2.5-0.1,3.8-0.2
			c2.5-0.1,5.1-0.2,7.6-0.5c4.4-0.4,8.9-1.2,13.2-2.4c1.9-0.5,4.4-1.7,6.1,0c1.6,1.5,0.9,4.1,0.8,6.1c-0.1,4.8-0.2,9.5-0.4,14.2
			c-0.2,4.7-0.2,9.5-0.8,14.2c0,0.1,0,0.2-0.1,0.3C529.4,514.2,529.4,513.9,529.4,513.6z"/>
		<path d="M529.4,514.4c-0.3,0.8-1.3,1.2-2,1.1c-1-0.1-1.6-1-1.7-1.9c0-0.1,0-0.2,0-0.3c0.3-0.1,0.7-0.3,1-0.5
			c0.5-0.2,1-0.8,1.5-0.7c0.7,0.1,1,0.9,1.1,1.5C529.4,513.9,529.4,514.2,529.4,514.4z"/>
		<path d="M529.4,514.4c-0.1,2-2.3,3.1-4,3.6c-4.8,1.4-9.8,2.3-14.8,2.8c-2.5,0.3-4.9,0.4-7.4,0.5c-1.8,0-3.9,0.1-5.7-0.3
			c0-1.2,0-2.4,0-3.6c1-0.2,1.9-0.1,2.9-0.2c1.4-0.1,2.9-0.2,4.3-0.3c2.7-0.2,5.5-0.4,8.2-0.8c2.5-0.4,4.9-0.8,7.3-1.3
			c1.8-0.4,3.8-0.8,5.5-1.5c0,0.1,0,0.2,0,0.3c0,1,0.7,1.8,1.7,1.9C528.1,515.6,529.1,515.2,529.4,514.4z"/>
		<path fill="#778291" d="M526.9,483.2c0,0.2,0,0.3,0,0.4c0,0.7-0.1,1.3-0.1,2c-0.3,4.3-0.5,8.6-0.7,13c-0.2,4.9-0.7,9.8-0.4,14.7
			c-1.8,0.7-3.7,1.1-5.5,1.5c-2.4,0.5-4.8,1-7.3,1.3c-2.7,0.4-5.5,0.7-8.2,0.8c-1.4,0.1-2.9,0.2-4.3,0.3c-0.9,0.1-1.9,0.1-2.9,0.2
			c0-1.9,0-3.8,0-5.7l0-25.4c1.1,0.2,2.3,0.2,3.4,0.3c2.1,0.2,4.3,0,6.4-0.1c4.1-0.2,8.3-0.8,12.3-1.6c2-0.4,4-0.9,6-1.4
			C526,483.5,526.5,483.4,526.9,483.2z"/>
		<path d="M497.5,517.5c0,1.2,0,2.4,0,3.6c-0.6-0.1-1.2-0.3-1.7-0.6c-0.5-0.2-0.8-0.7-0.8-1.1c0-0.7,0.5-1.4,1.1-1.6
			C496.6,517.6,497.1,517.5,497.5,517.5z"/>
		<path d="M497.5,482.7v3.7c-0.9-0.1-1.7-0.4-2.5-0.8c-0.4-0.3-0.6-0.7-0.6-1.1c0-0.5,0.4-1.1,1-1.3
			C496,482.9,496.7,482.8,497.5,482.7z"/>
		<path d="M495.1,519.4c0,0.5,0.2,0.9,0.8,1.1c0.5,0.2,1.1,0.4,1.7,0.6c0,1.9-0.1,3.9-0.2,5.8c-0.2,3.6-0.8,7.2-2.2,10.6l-2,0.2
			c-1.4,0.7-2.9,1.3-4.4,1.7c0.4-0.4,0.7-0.9,1-1.4c2.1-3.4,2.8-7.6,3-11.5c0.1-2.3,0.2-4.7,0.2-7.1L495.1,519.4z"/>
		<path d="M495,485.6c0.8,0.4,1.6,0.7,2.5,0.8l0,25.4c0,1.9,0,3.8,0,5.7c-0.5,0.1-0.9,0.2-1.3,0.3c-0.6,0.2-1.1,1-1.1,1.6l-2.1,0
			c0-2.6-0.1-5.1-0.1-7.7c0-5.4,0-10.7,0-16.1c0-3.7,0-7.4,0-11.1h1.5C494.4,484.9,494.6,485.3,495,485.6z"/>
		<path fill="#FFD53F" d="M478.7,523.9c0.6-3.4,0.5-6.9,0.7-10.4c0.2-3.9,0.4-7.8,0.6-11.7c0.2-3.9,0.4-7.8,0.6-11.7
			c0.2-3.4,0.6-7,0.2-10.4c-0.4-3.3-2-6.1-4.8-8c-2.4-1.6-5.2-2.1-8-2.5c-3.4-0.4-6.8-0.5-10.1-0.7c-4-0.2-8-0.4-11.9-0.6
			c-11.6-0.5-23.2-0.8-34.7-1l0-2.8c15.5,0.2,31,0.6,46.5,1c5.2,0.1,10.5,0.3,15.7,1.1c3.7,0.6,7.8,1.8,9.5,5.1c0.9,1.6,1,3.6,1,5.4
			c0.4,12.4-0.7,24.8-2,37.1c-0.4,3.6-0.8,7.3-2.4,10.6c-0.5,0.9-1.1,1.8-1.8,2.6C478.1,526.1,478.5,525,478.7,523.9z"/>
		<path fill="#FF3A4B" d="M476.4,481.8c0.1,3.5-0.3,7.1-0.4,10.6c-0.3,7.4-0.6,14.8-1,22.1c-0.2,3.1,0,6.4-0.8,9.4
			c-0.5,1.9-1.5,3.2-3.1,4c-0.5,0.3-1.1,0.5-1.7,0.6c-2.8,0.7-5.8,0.5-8.7,0.4c-3.7,0-7.5,0-11.2-0.1c-12.6-0.1-25.1-0.1-37.7-0.2
			c3-5,5.7-10.1,8.1-15.5c1.4-3.3,2.8-6.8,2.2-10.4c-0.1-1-0.5-2-1.1-2.7c-1.9-2.1-5.7-1.2-7.9-3.1c-2-1.8-1.4-5-0.6-7.6
			c2-6.2,4.7-12.1,8-17.7c4.5,0.1,9,0.2,13.5,0.4c7.5,0.2,14.9,0.6,22.4,0.9c3.4,0.2,6.8,0.3,10.2,0.6c2.3,0.2,4.8,0.6,6.8,1.8
			C475.7,476.9,476.3,479.2,476.4,481.8z"/>
		<path d="M471,530.3c2.5,0.1,4.9-1.2,6.6-3.1c-0.9,1.8-2.1,3.3-3.9,4.4c-2.6,1.5-5.6,1.8-8.6,1.9c-7.6,0.2-15.3,0-22.9,0
			c-10.9,0-21.7-0.1-32.6-0.1v-1.2c0.7-1.1,1.4-2.2,2.1-3.4c12.6,0,25.1,0.1,37.7,0.2c3.7,0,7.5,0,11.2,0.1c2.9,0,5.9,0.3,8.7-0.4
			c0.6-0.1,1.2-0.4,1.7-0.6L471,530.3z"/>
		<path fill="#FF616E" d="M365,493.8c0.8-7.8,3.4-15.4,7.4-22.2c5.9-0.1,11.9-0.2,17.8-0.2c10.1,0,20.2,0.1,30.4,0.3
			c-3.3,5.6-6,11.5-8,17.7c-0.8,2.5-1.4,5.8,0.6,7.6c2.1,1.9,5.9,1,7.9,3.1c0.7,0.7,1,1.7,1.1,2.7c0.5,3.5-0.8,7.1-2.2,10.4
			c-2.3,5.3-5,10.5-8.1,15.5c-15.5,0-31-0.1-46.5-0.1c2.4-8.2,8.6-15.3,8.5-23.8c0-1-0.2-2-0.8-2.8c-1.4-1.6-4.2-0.8-6.1-1.9
			C364.9,499,364.7,496.1,365,493.8z"/>
		<path d="M471.1,527.9c1.6-0.8,2.6-2.1,3.1-4c0.8-3,0.6-6.3,0.8-9.4c0.4-7.4,0.6-14.8,1-22.1c0.1-3.5,0.5-7.1,0.4-10.6
			c-0.1-2.5-0.7-4.9-3-6.2c-2-1.2-4.5-1.6-6.8-1.8c-3.4-0.3-6.8-0.4-10.2-0.6c-7.5-0.4-14.9-0.7-22.4-0.9c-4.5-0.1-9-0.3-13.5-0.4
			c-10.1-0.2-20.2-0.3-30.4-0.3c-5.9,0-11.9,0.1-17.8,0.2c0.4-0.6,0.8-1.2,1.2-1.9l0-2.7c8.7-0.1,17.5-0.2,26.2-0.2
			c3.9,0,7.7,0.1,11.6,0.1c11.6,0.2,23.2,0.5,34.7,1c4,0.2,8,0.4,11.9,0.6c3.4,0.2,6.8,0.2,10.1,0.7c2.8,0.3,5.6,0.9,8,2.5
			c2.8,1.9,4.4,4.6,4.8,8c0.4,3.4,0,7-0.2,10.4c-0.2,3.9-0.4,7.8-0.6,11.7c-0.2,3.9-0.4,7.8-0.6,11.7c-0.2,3.5-0.1,7-0.7,10.4
			c-0.2,1.2-0.5,2.3-1,3.3c-1.8,1.9-4.1,3.2-6.6,3.1L471.1,527.9z"/>
		<path d="M409.7,533.2c-14.8-0.1-29.7-0.1-44.5-0.2l0-2.6c0,0,0,0-0.1,0c-0.2-0.1-0.2-0.4-0.1-0.6c0.1-0.4,0.2-0.8,0.3-1.2
			c15.5,0,31,0.1,46.5,0.1c-0.7,1.1-1.4,2.3-2.1,3.4V533.2z"/>
		<path d="M383,451.4c6.1,0.6,12.2,0.6,18.4,0.6c3,0,6.1,0,9.1,0.1c3.1,0.1,6.2,0.4,9.3,0.5c6,0.2,11.9-0.3,17.9-0.2
			c6.2,0.1,12.4,0.4,18.6,0.7c3.3,0.1,6.6,0.1,9.8,0.5c2.3,0.2,4.6,0.6,6.9,0.8c0.9,0,1.9,0,2.8,0.1c0,0,0,0,0.1,0c0,0,0.1,0,0.1,0
			c5.9,0.4,11.7,2.2,15.8,6.4c-0.1-0.1-0.1-0.2-0.2-0.3c0.1,0,0.3,0,0.4,0c0,0,0,0.1,0.1,0.1c0,0.1,0.1,0.1,0.2,0.2
			c1.1,1.6,2.2,3.2,3.1,4.8c0.3,0.6,0.5,1.3,0.7,2c0.1,0.5,0.3,1.1,0.5,1.6c0.3,1.1,0.5,2.2,0.5,3.4c0,1,0.1,2,0.2,3.1
			c0,0.1-0.1,0.2-0.1,0.3c0.1,1.6,0.1,3.3,0.4,4.9v1.9c-0.8,0-1.5,0.2-2.2,0.5c-0.6,0.2-1,0.8-1,1.3h-1.5c0-0.6,0-1.1,0-1.7
			c0-0.1-0.1-0.3-0.1-0.4c0-1-0.1-1.9-0.1-2.9c0-1.9,0.1-3.8-0.1-5.8c-0.3-3.6-1.4-7-4-9.6c-2.5-2.6-5.9-4.2-9.4-5.2
			c-1.7-0.5-3.5-0.9-5.2-1.2c-1.3,0-2.6,0-3.9,0c-10.9-0.2-21.8-0.4-32.7-0.5c-10.9-0.2-21.8-0.5-32.7-0.7c-5.5-0.1-11-0.2-16.5-0.3
			c-1.7,0-3.5-0.1-5.2-0.2c-9.8,0.2-19.7,0.3-29.5,0.5c-5.5,0.1-11,0.2-16.4,0.2c-4.8,0.1-9.6,0-14.4,0.4c-3.6,0.3-7.4,1.2-10.4,3.4
			c0-1,0-2.1,0.1-3.1l-2.4-0.6c6.1-4.5,14.8-4.4,22.1-4.5c16.9-0.3,33.8-0.6,50.7-0.9C382.9,451.3,382.9,451.4,383,451.4z"/>
		<path d="M330.5,468.7c7.4-0.7,14.9-0.8,22.3-1c6.9-0.2,13.8-0.4,20.7-0.5l0,2.7c-0.4,0.6-0.8,1.2-1.2,1.9
			c-8.8,0.1-17.7,0.4-26.5,0.7c-3.6,0.1-7.3,0.3-10.9,0.4c-2.9,0.1-6,0-8.7,1.2c-0.5,0.2-0.9,0.5-1.3,0.8l-1.5-2.3
			c0.5-1,1.2-2,2-2.8C326.9,469.1,328.7,468.9,330.5,468.7z"/>
		<path fill="#FF3A4B" d="M322.2,507.2c-0.2-7.3-0.4-14.6-0.6-21.9c0-1.5-0.1-3.1-0.2-4.6c0.1-0.2,0.1-0.4,0.1-0.7
			c0.6-2,1.7-4,3.4-5.3c0.4-0.3,0.8-0.6,1.3-0.8c2.7-1.2,5.9-1.1,8.7-1.2c3.6-0.2,7.3-0.3,10.9-0.4c8.8-0.3,17.7-0.6,26.5-0.7
			c-4,6.7-6.6,14.4-7.4,22.2c-0.2,2.3-0.1,5.1,1.9,6.3c1.9,1.1,4.7,0.2,6.1,1.9c0.6,0.7,0.8,1.8,0.8,2.8c0.1,8.5-6.1,15.7-8.5,23.8
			c-1.5,0-2.9,0-4.4,0c-7.2,0-14.4-0.1-21.6,0c-4.7,0-10.6,0.2-14.1-3.5c-2-2.1-2.5-4.9-2.7-7.7C322.2,514,322.3,510.6,322.2,507.2z
			"/>
		<path fill="#FFD53F" d="M346.1,463.8c21.7,0,43.4,0.2,65.1,0.5l0,2.8c-3.9-0.1-7.7-0.1-11.6-0.1c-8.7,0-17.4,0-26.2,0.2
			c-6.9,0.1-13.8,0.3-20.7,0.5c-7.4,0.3-14.9,0.3-22.3,1c-1.8,0.2-3.5,0.5-5.2,1.1c2.1-2.3,5-3.9,8.1-4.7
			C337.5,463.9,341.8,463.8,346.1,463.8z"/>
		<path d="M321.5,485.4c0.2,7.3,0.4,14.6,0.6,21.9c0.1,3.4,0,6.8,0.3,10.1c0.2,2.8,0.7,5.6,2.7,7.7c3.5,3.7,9.4,3.5,14.1,3.5
			c7.2,0,14.4,0,21.6,0c1.5,0,2.9,0,4.4,0c-0.1,0.4-0.2,0.8-0.3,1.2c-0.1,0.2-0.1,0.5,0.1,0.6c0,0,0,0,0.1,0l0,2.6
			c-5.4,0-10.8-0.1-16.2-0.1c-11-0.1-27.8,1.2-30.5-13c-0.7-3.4-0.5-7-0.7-10.5c-0.1-3.9-0.1-7.8-0.2-11.7
			c-0.1-5.1-0.2-10.1-0.2-15.2c0.2-1.5,0.4-2.9,0.6-4.4c0.1-0.3,0.2-0.6,0.3-1c0.5-1.5,1.4-2.8,2.2-4.2c0.2-0.3,0.5-0.6,0.8-0.9
			c1.2-1.1,2.5-1.9,4-2.4c-0.8,0.8-1.4,1.8-2,2.8l1.5,2.3c-1.7,1.3-2.8,3.2-3.4,5.3c-0.1,0.2-0.1,0.5-0.1,0.7
			C321.4,482.3,321.5,483.8,321.5,485.4z"/>
		<path fill="#FFDD65" d="M322.7,457c4.8-0.5,9.6-0.4,14.4-0.4c5.5-0.1,11-0.2,16.4-0.2c9.8-0.1,19.7-0.3,29.5-0.5
			c1.7,0.1,3.4,0.2,5.2,0.2c5.5,0.1,11,0.2,16.5,0.3c10.9,0.2,21.8,0.5,32.7,0.7c10.9,0.2,21.8,0.3,32.7,0.5c1.3,0,2.6,0,3.9,0
			c1.8,0.3,3.5,0.7,5.2,1.2c3.4,1.1,6.8,2.6,9.4,5.2c2.5,2.6,3.7,6.1,4,9.6c0.2,1.9,0.1,3.8,0.1,5.8c0,1,0,1.9,0.1,2.9
			c0,0.1,0,0.3,0.1,0.4c0,0.6,0,1.1,0,1.7c0,3.7,0,7.4,0,11.1c0,5.4,0,10.7,0,16.1c0,2.6,0.1,5.1,0.1,7.7c0,2.3,0,4.7-0.2,7.1
			c-0.2,4-0.9,8.1-3,11.5c-0.3,0.5-0.6,0.9-1,1.4c-4.8,1.3-10.1,1.2-15.2,1.1c-42.9-0.9-85.7-1.9-128.6-2.8
			c-6.3-0.1-12.6-0.3-18.7-1.9c-3.7-0.9-7.4-2.6-9.6-5.6c-1.3-1.8-2-4.1-2.4-6.3c-1-4.9-1.3-10-1.5-15c-0.7-16.1-0.8-32.3-0.3-48.5
			C315.2,458.2,319.1,457.4,322.7,457z M346.1,463.8c-4.3,0-8.7,0-12.8,1.2c-3,0.9-6,2.4-8.1,4.7c-1.5,0.5-2.8,1.3-4,2.4
			c-0.3,0.3-0.5,0.5-0.8,0.9c-0.8,1.3-1.6,2.7-2.2,4.2c-0.1,0.3-0.2,0.7-0.3,1c-0.2,1.5-0.4,2.9-0.6,4.4c0,5.1,0.1,10.1,0.2,15.2
			c0.1,3.9,0.1,7.8,0.2,11.7c0.1,3.5,0,7.1,0.7,10.5c2.8,14.2,19.5,12.9,30.5,13c5.4,0,10.8,0.1,16.2,0.1
			c14.8,0.1,29.7,0.2,44.5,0.2c10.9,0,21.7,0.1,32.6,0.1c7.6,0,15.3,0.2,22.9,0c2.9-0.1,6-0.4,8.6-1.9c1.8-1,3.1-2.6,3.9-4.4
			c0.7-0.8,1.4-1.7,1.8-2.6c1.7-3.2,2.1-7,2.4-10.6c1.2-12.3,2.4-24.7,2-37.1c-0.1-1.9-0.2-3.8-1-5.4c-1.7-3.3-5.8-4.5-9.5-5.1
			c-5.2-0.8-10.4-0.9-15.7-1.1c-15.5-0.4-31-0.8-46.5-1C389.5,464,367.8,463.8,346.1,463.8z"/>
		<path fill="#FFD53F" d="M312.3,460.5c-0.5,16.1-0.3,32.3,0.3,48.5c0.2,5,0.5,10.1,1.5,15c0.5,2.2,1.1,4.4,2.4,6.3
			c2.2,3.1,5.9,4.7,9.6,5.6c6.1,1.6,12.5,1.7,18.7,1.9c42.9,0.9,85.7,1.9,128.6,2.8c5.1,0.1,10.3,0.2,15.2-1.1c-2,2.4-4.9,4-7.9,4.8
			c-3.9,1.1-8,1.3-12,1.3c-5.2,0-10.5-0.1-15.7-0.1c-21.9-0.2-43.8-0.3-65.8-0.5c-10.9-0.1-21.8-0.1-32.8-0.1
			c-5.5,0-11-0.1-16.5-0.1c-4.1,0-8.4,0-12.5-0.7c-3.9-0.6-7.7-1.8-10.9-4.2c-3.2-2.5-5.2-6.1-6.3-9.9c-1.1-4-1.5-8.2-1.7-12.4
			c-0.3-5.4-0.5-10.9-0.6-16.3c-0.1-5.4-0.2-10.9-0.1-16.3c0-4.5-0.1-9.1,0.6-13.5c0.6-3.8,2-7.6,4.9-10.3
			C311.8,460.9,312.1,460.7,312.3,460.5z"/>
		<path d="M302.8,519.5c-0.8-11-1.1-22.1-1.1-33.1c0-8.8-0.7-19.3,5.1-26.6c0.9-1.2,2-2.2,3.1-3l2.4,0.6c0,1-0.1,2.1-0.1,3.1
			c-0.3,0.2-0.5,0.4-0.8,0.6c-2.9,2.7-4.2,6.5-4.9,10.3c-0.7,4.4-0.6,9-0.6,13.5c0,5.4,0,10.9,0.1,16.3c0.1,5.4,0.3,10.9,0.6,16.3
			c0.2,4.2,0.6,8.4,1.7,12.4c1.1,3.9,3.1,7.4,6.3,9.9c3.1,2.4,7,3.6,10.9,4.2c4.1,0.7,8.3,0.7,12.5,0.7c5.5,0,11,0,16.5,0.1
			c10.9,0,21.8,0.1,32.8,0.1c21.9,0.2,43.8,0.3,65.8,0.5c5.2,0,10.5,0.1,15.7,0.1c4,0,8.1-0.2,12-1.3c3.1-0.9,5.9-2.4,7.9-4.8
			c1.5-0.4,3-1,4.4-1.7l2-0.2c-0.3,0.8-0.7,1.5-1.1,2.2c-4.6,8.1-13.9,10.1-22.4,10.4c-5.2,0.2-10.3,0-15.5,0
			c-5.7,0-11.3-0.1-17-0.1c-22.7-0.1-45.3-0.2-68-0.5c-11.3-0.1-22.6-0.1-33.9-0.3c-8.4-0.1-17.8-0.6-24.7-5.8
			C305.1,537.7,303.4,528.3,302.8,519.5z"/>
	</g>
	<g>
	</g>
</g>
</svg>
