<?xml version="1.0" encoding="utf-8"?>
<!-- Generator: Adobe Illustrator 27.5.0, SVG Export Plug-In . SVG Version: 6.00 Build 0)  -->
<!DOCTYPE svg PUBLIC "-//W3C//DTD SVG 1.1//EN" "http://www.w3.org/Graphics/SVG/1.1/DTD/svg11.dtd" [
	<!ENTITY ns_extend "http://ns.adobe.com/Extensibility/1.0/">
	<!ENTITY ns_ai "http://ns.adobe.com/AdobeIllustrator/10.0/">
	<!ENTITY ns_graphs "http://ns.adobe.com/Graphs/1.0/">
	<!ENTITY ns_vars "http://ns.adobe.com/Variables/1.0/">
	<!ENTITY ns_imrep "http://ns.adobe.com/ImageReplacement/1.0/">
	<!ENTITY ns_sfw "http://ns.adobe.com/SaveForWeb/1.0/">
	<!ENTITY ns_custom "http://ns.adobe.com/GenericCustomNamespace/1.0/">
	<!ENTITY ns_adobe_xpath "http://ns.adobe.com/XPath/1.0/">
]>
<svg version="1.1" id="Calque_1" xmlns:x="&ns_extend;" xmlns:i="&ns_ai;" xmlns:graph="&ns_graphs;"
	 xmlns="http://www.w3.org/2000/svg" xmlns:xlink="http://www.w3.org/1999/xlink" x="0px" y="0px" viewBox="0 0 800 1000"
	 enable-background="new 0 0 800 1000" xml:space="preserve">
<metadata>
	<sfw  xmlns="&ns_sfw;">
		<slices></slices>
		<sliceSourceBounds  bottomLeftOrigin="true" height="177.4" width="207.2" x="287.7" y="-604"></sliceSourceBounds>
	</sfw>
</metadata>
<g id="Bas_00000039104942223182218340000015446644637729531571_">
	<g id="XMLID_00000046314606741502640230000013496305304808571535_">
		<g>
			<path fill="#FFFFFF" d="M486.9,479.5c4.1,12.6,4.9,26.1,1.4,38.9c-3.6,12.8-11.4,24.1-21.7,32.5c-10.1,8.3-22.7,13.8-35.7,15
				c-13.4,1.2-26.9-2.2-38.4-9c-6.5-3.8-12.3-8.7-17.2-14.4c-3.8-4.4-7-9.3-9.6-14.6c-1.9-4-3.3-8.1-4.2-12.4
				c-1.9-8.5-2.1-17.5-0.5-26.1c0.9-5,2.4-9.9,4.4-14.6c3.1-7.4,7.5-14.3,13.1-20.1c9.5-9.9,22-16.1,35.5-18.4
				c13.6-2.3,27.3-0.2,39.9,5.3c3,1.3,6.2,2.6,8.9,4.4c0.4,0.3,0.8,0.3,1.1,0.3c0.1,0.4,0.3,0.7,0.7,1
				C475,455.5,482.8,467,486.9,479.5z M477,510.3c2.7-11.2,1.9-23.3-2.5-33.9c-4.4-10.6-12.2-19.3-22.5-24.6c-9.9-5.1-21.3-7-32.3-5
				c-0.4,0.1-0.7,0.2-1.1,0.3c-4.4,0.6-8.8,1.7-13,3.5c-11.1,4.5-20.1,12.9-25.8,23.4c-5.6,10.4-7.7,22.5-5.5,34.1
				c2.2,11.6,8.4,22.6,17.4,30.3c9.3,7.9,21.3,12.3,33.5,12.4c12.2,0.2,23.8-4,33.3-11.6C467.5,531.9,474.2,521.6,477,510.3z"/>
			<path d="M473.8,497.5c1.3,3.6,0.9,8-0.5,11.5c-0.5,1.4-1.2,2.7-2.1,3.9c0.9-2.7,1.6-5.5,2-8.4c0.1-0.9,0.2-1.8,0.3-2.7
				c0.1-1.5,0.2-3,0.2-4.5C473.8,497.4,473.8,497.4,473.8,497.5z"/>
			<path d="M473.7,497.3c0,1.5-0.1,3-0.2,4.5c-0.1,0.9-0.2,1.8-0.3,2.7l-3-0.4c0.3-1.9,0.2-4-0.6-5.8c-0.5-1-1.2-1.9-2-2.6
				c-0.3-0.3-0.6-0.5-0.8-0.7c0,0,0,0,0-0.1c-0.9-0.7-2-1.2-3-1.6c-2.4-0.9-5-0.9-7.3,0.1c-3.7,1.5-6.2,5.1-6.6,9l-2.2-0.2
				c0.2-2,0.2-4.1,0.1-6.1c1.9-3.6,5.2-6.4,9.4-7.4c3.2-0.8,6.8-0.4,9.6,1.4c0.8,0.5,1.7,1.2,2.4,1.9c0.5,0.2,1,0.5,1.5,0.8
				C472,494,473.1,495.5,473.7,497.3z"/>
			<path fill="#FFFFFF" d="M469.7,498.4c0.8,1.8,0.8,3.8,0.6,5.8c-0.1,0.7-0.3,1.4-0.4,2c-1.3,4.8-4.8,8.7-10.1,8.5
				c-5-0.2-9-4.2-9.8-9.1c-0.2-1-0.2-2.1-0.1-3.1c0.4-3.9,2.9-7.4,6.6-9c2.3-1,5-0.9,7.3-0.1c1.1,0.4,2.1,0.9,3,1.6c0,0,0,0,0,0.1
				c0.3,0.3,0.5,0.5,0.8,0.7C468.5,496.4,469.2,497.3,469.7,498.4z"/>
			<path d="M471.2,512.9c-2.1,6.4-5.6,12.2-10.2,17.2c-7.3,8-17,13.5-27.7,15.3c-10.9,1.9-22.6-0.3-32.2-5.9
				c-9.5-5.5-16.8-14.4-20.6-24.6c-3.9-10.4-4.1-21.6-0.5-32.1c3.6-10.4,10.6-19.3,20-25.1c4.8-3,10.1-5,15.6-6.2
				c5.5-1.1,11.2-1.2,16.8-0.8c2.8,0.2,5.5,0.8,8.2,1.5c0.3,0.1,0.5,0.1,0.8,0c0.6,0.2,1.2,0.4,1.9,0.6c3.9,1.4,7.6,3.3,11,5.6
				c-2.6-0.3-5.3,0.4-7.5,1.9c-5.7,3.8-7.4,11-5.4,17.3c-1.3-1.7-2.7-3.2-4.3-4.6c-2.5-2.1-5.5-4-8.7-4.9c-1.6-0.5-3.2-0.9-4.9-1.1
				c-0.3-0.1-0.6-0.2-0.9-0.3c-1.8-0.5-3.7-0.7-5.6-0.7c-3.6-0.1-7.3,0.7-10.7,2c-6.5,2.5-12,7.1-15.9,12.9
				c-8.2,12-9.4,29.3,0.6,40.6c4.9,5.6,12,8.2,19.3,8.9c7,0.6,14.2-0.3,20.6-3.1c6.7-2.9,11.5-8.2,14.3-14.9
				c0.6-1.6,1.1-3.2,1.6-4.8c1.5,5,5.4,9.4,10.7,10.6C463,519.8,468.1,517.2,471.2,512.9z"/>
			<path d="M452,451.7c10.2,5.3,18.1,14,22.5,24.6c4.4,10.6,5.2,22.7,2.5,33.9c-2.8,11.3-9.4,21.6-18.5,28.9
				c-9.5,7.6-21.1,11.8-33.3,11.6c-12.2-0.2-24.2-4.5-33.5-12.4c-9-7.7-15.2-18.7-17.4-30.3c-2.2-11.6-0.1-23.8,5.5-34.1
				c5.7-10.5,14.8-18.9,25.8-23.4c4.2-1.7,8.6-2.9,13-3.5c0.4-0.1,0.7-0.2,1.1-0.3C430.7,444.7,442.1,446.6,452,451.7z M465.8,464.5
				c-1.3-2-4-4.5-6.5-4c-1-0.8-2.3-1.4-3.6-1.6c-0.5-0.1-1-0.2-1.4-0.2c-3.4-2.4-7.1-4.3-11-5.6c-0.6-0.2-1.2-0.4-1.9-0.6
				c-0.2,0.1-0.5,0.1-0.8,0c-2.7-0.7-5.4-1.3-8.2-1.5c-5.6-0.4-11.2-0.4-16.8,0.8c-5.5,1.2-10.8,3.2-15.6,6.2
				c-9.3,5.8-16.4,14.7-20,25.1c-3.6,10.5-3.4,21.7,0.5,32.1c3.8,10.2,11.1,19.2,20.6,24.6c9.6,5.6,21.2,7.7,32.2,5.9
				c10.7-1.8,20.4-7.3,27.7-15.3c4.6-5,8.1-10.9,10.2-17.2c0,0,0,0,0,0c0.9-1.2,1.6-2.5,2.1-3.9c1.4-3.6,1.8-7.9,0.5-11.5
				c0-0.1,0-0.1-0.1-0.2c0-8.1-1.9-16.1-5.7-23.2C468.3,470.8,467.6,467.3,465.8,464.5z"/>
			<path fill="#FFFFFF" d="M464.1,472.3c0.2,4.6-2.6,9.5-7.1,11.1c-4.5,1.6-9.1-0.4-11.5-4.5c-2.6-4.4-2.4-10.3,1.4-14
				c1.8-1.8,4.3-2.8,6.9-2.6c1.2,0.1,2.4,0.5,3.5,0.9c0.6,0.2,1.1,0.4,1.6,0.7c0.2,0.1,0.4,0.2,0.7,0.3c0.9,0.7,1.8,1.3,2.4,2.2
				C463.3,468,464,470.1,464.1,472.3z"/>
			<path d="M454.3,458.6c4.9,3.4,9.2,7.8,12.3,13c0.5,0.8,1,1.7,1.4,2.5c0,0.2,0,0.4,0,0.5c-0.6,6.4-4.8,12-11.1,13.3
				c-0.3,0.1-0.6,0.1-0.9,0.2c-4.4,0.6-8.4-1.2-11.2-4.3c-0.9-2.1-2.1-4.2-3.5-6c-2-6.3-0.3-13.5,5.4-17.3
				C449,459,451.6,458.3,454.3,458.6z M445.5,478.8c2.4,4.1,6.9,6.1,11.5,4.5c4.5-1.6,7.3-6.5,7.1-11.1c-0.1-2.1-0.8-4.2-2-5.9
				c-0.7-0.9-1.6-1.5-2.4-2.2c-0.2-0.1-0.5-0.2-0.7-0.3c-0.5-0.3-1.1-0.5-1.6-0.7c-1.1-0.5-2.3-0.9-3.5-0.9
				c-2.6-0.1-5.1,0.9-6.9,2.6C443.2,468.6,442.9,474.4,445.5,478.8z"/>
			<path d="M466.6,471.5c-3.2-5.1-7.4-9.5-12.3-13c0.5,0,1,0.1,1.4,0.2c1.3,0.3,2.5,0.8,3.6,1.6c2.5-0.5,5.3,2.1,6.5,4
				c1.8,2.8,2.5,6.2,2.2,9.5C467.6,473.2,467.1,472.4,466.6,471.5z"/>
			<path d="M466.7,490.1c-2.8-1.9-6.4-2.2-9.6-1.4l-0.2-0.8c6.3-1.4,10.5-6.9,11.1-13.3c0-0.2,0-0.3,0-0.5
				c3.8,7.1,5.7,15.2,5.7,23.2c-0.7-1.8-1.7-3.3-3.2-4.5c-0.4-0.3-0.9-0.6-1.5-0.8C468.3,491.3,467.5,490.6,466.7,490.1z"/>
			<path d="M457.1,488.6c-4.1,1-7.5,3.8-9.4,7.4c-0.1-1.6-0.3-3.3-0.6-4.9c-0.5-2.5-1.2-5-2.3-7.4c2.8,3.1,6.7,4.9,11.2,4.3
				c0.3,0,0.6-0.1,0.9-0.2L457.1,488.6z"/>
			<path d="M446.7,507.8c0.5-1.9,0.8-3.8,0.9-5.7l2.2,0.2c-0.1,1-0.1,2.1,0.1,3.1c0.8,4.9,4.8,8.9,9.8,9.1c5.3,0.2,8.8-3.7,10.1-8.5
				c0.2-0.6,0.3-1.3,0.4-2l3,0.4c-0.4,2.9-1.1,5.6-2,8.4c0,0,0,0,0,0c-3.1,4.3-8.2,6.9-13.8,5.5
				C452.1,517.2,448.2,512.8,446.7,507.8z"/>
			<path d="M447.7,496c0.1,2,0.1,4.1-0.1,6.1c-0.2,1.9-0.5,3.8-0.9,5.7c-0.4-1.4-0.7-2.8-0.7-4.2C445.9,500.9,446.5,498.3,447.7,496
				z"/>
			<path d="M432.3,521.8c10.7-7,12.8-22.2,9.2-33.6c-1.8-5.6-5.3-10.7-10.3-13.9c-2.5-1.6-5.2-2.8-8.1-3.4c-2.8-0.6-5.8-1-8.7-0.9
				c-0.1,0-0.2,0-0.3-0.1c-3.2,0.4-6.2,1.3-9.1,2.7c-6.1,3.1-11.1,8.2-14.2,14.2c-5.9,11.4-5.3,27.5,5.9,35.5
				c5.4,3.8,12.2,4.8,18.6,4.5C421.4,526.4,427.4,525,432.3,521.8z M447.7,496c-1.2,2.3-1.8,4.9-1.8,7.6c0.1,1.4,0.3,2.8,0.7,4.2
				c-0.4,1.6-0.9,3.3-1.6,4.8c-2.7,6.7-7.6,12-14.3,14.9c-6.4,2.8-13.6,3.7-20.6,3.1c-7.3-0.7-14.4-3.3-19.3-8.9
				c-10.1-11.4-8.8-28.6-0.6-40.6c3.9-5.8,9.3-10.4,15.9-12.9c3.4-1.3,7.1-2.1,10.7-2c1.9,0,3.8,0.2,5.6,0.7
				c0.3,0.1,0.6,0.2,0.9,0.3c1.7,0.2,3.3,0.6,4.9,1.1c3.2,0.9,6.2,2.8,8.7,4.9c1.6,1.3,3.1,2.9,4.3,4.6c0,0,0,0.1,0,0.1
				c0.7,2.2,1.9,4.3,3.4,5.9c1,2.4,1.8,4.9,2.3,7.4C447.4,492.8,447.6,494.4,447.7,496z"/>
			<path d="M441.4,477.7c1.4,1.9,2.5,3.9,3.5,6c-1.5-1.7-2.7-3.7-3.4-5.9C441.4,477.8,441.4,477.8,441.4,477.7z"/>
			<path fill="#FFFFFF" d="M441.6,488.1c3.5,11.4,1.4,26.6-9.2,33.6c-5,3.2-11,4.7-16.8,4.9c-6.5,0.3-13.2-0.7-18.6-4.5
				c-11.2-8-11.8-24-5.9-35.5c3.1-6.1,8-11.2,14.2-14.2c2.8-1.4,5.9-2.3,9.1-2.7c0.1,0.1,0.2,0.1,0.3,0.1c2.9-0.1,5.9,0.3,8.7,0.9
				c2.9,0.6,5.6,1.8,8.1,3.4C436.3,477.4,439.8,482.5,441.6,488.1z"/>
			<path d="M375.6,450.4c0.4,0.4,0.6,0.8,0.7,1.3c-0.3-0.3-0.7-0.6-1-0.9C375.4,450.6,375.5,450.5,375.6,450.4z"/>
			<path d="M373.5,454.2c-0.3-0.1-0.6-0.2-1-0.4c0,0-0.1,0-0.1-0.1c0.9-1,1.8-2.1,2.8-3c0.4,0.3,0.7,0.6,1,0.9
				c0.1,0.4,0,0.8-0.1,1.3c-0.2,0.5-0.5,0.8-0.9,1.1C374.8,454.3,374,454.4,373.5,454.2z"/>
			<path d="M375.3,450.8c-0.3-0.2-0.7-0.5-1-0.7c0.1-0.1,0.3-0.2,0.4-0.3c0.2,0.1,0.4,0.2,0.6,0.3c0.1,0.1,0.3,0.2,0.4,0.3
				C375.5,450.5,375.4,450.6,375.3,450.8z"/>
			<path d="M371.8,452.1c0.8-0.7,1.6-1.4,2.5-2c0.4,0.2,0.7,0.4,1,0.7c-1,1-1.9,2-2.8,3c-0.3-0.2-0.6-0.4-0.9-0.7
				c-0.2-0.1-0.4-0.1-0.6-0.2C371.2,452.6,371.5,452.4,371.8,452.1z"/>
			<path d="M374,455.3c-0.4-0.6-1-1-1.5-1.5c0.3,0.1,0.6,0.3,1,0.4c0.5,0.2,1.3,0.1,1.7-0.2c0.4-0.3,0.7-0.6,0.9-1.1
				c0.2-0.4,0.2-0.9,0.1-1.3c0.4,0.4,0.8,0.8,1.1,1.2c-0.6,0.4-1.1,0.8-1.7,1.2c-0.5,0.4-1,0.9-1.5,1.4
				C374.1,455.4,374.1,455.4,374,455.3z"/>
			<path d="M372.5,453.8C372.5,453.8,372.5,453.8,372.5,453.8C372.5,453.9,372.5,453.8,372.5,453.8
				C372.5,453.8,372.5,453.8,372.5,453.8z"/>
			<path d="M373.3,545.1c-0.1,0.5-0.5,1-0.9,1.3c-1.1-1.2-2.2-2.5-3.2-3.8c0.2-0.1,0.4-0.2,0.5-0.3c0.6-0.3,1.2-0.4,1.9-0.2
				c0.3,0.1,0.6,0.2,0.8,0.4c0.2,0.2,0.5,0.4,0.6,0.7C373.4,543.8,373.4,544.6,373.3,545.1z"/>
			<path d="M371.3,449.5c-0.6-0.4-1.2-0.8-1.8-1.1c0.2,0,0.4,0,0.7,0.1c0.5,0.1,1,0.2,1.6,0.3c1,0.2,2,0.5,3,1
				c-0.1,0.1-0.3,0.2-0.4,0.3C373.3,449.6,372.3,449.3,371.3,449.5z"/>
			<path d="M374.2,450.1c-0.8,0.6-1.6,1.3-2.5,2c-0.3,0.2-0.5,0.5-0.8,0.8c0,0-0.1,0-0.1,0c-0.5-0.3-1.1-0.5-1.6-0.7
				c-0.8-0.3-1.6-0.6-2.5-0.8c-0.2-0.5-0.3-1.2,0-1.7c0.4-0.6,0.9-0.9,1.5-1.1c0.1,0,0.2-0.1,0.3-0.1c0.3-0.1,0.5-0.1,0.7-0.1
				c0.6,0.3,1.3,0.6,1.8,1.1C372.3,449.3,373.3,449.6,374.2,450.1z"/>
			<path fill="#FFFFFF" d="M368.3,452.6c0.3,0.1,0.5,0.2,0.8,0.3c1.1,0.2,2.2,0.4,3.2,0.9c0.1,0,0.1,0,0.2,0.1
				c-4.6,5.3-8.3,11.2-11.1,17.6c-0.1-0.1-0.2-0.2-0.3-0.3c-0.8-0.7-1.6-1.3-2.5-1.9c-0.4-0.5-0.7-0.9-1-1.5
				c-2.6-4.4-2.4-10.3,1.4-14c1.3-1.2,2.9-2.1,4.6-2.5c0,0,0,0,0,0c1.4,0.3,2.7,0.6,4,0.9c0.1,0,0.2,0,0.3,0c0,0,0,0,0.1,0
				C368,452.5,368.2,452.6,368.3,452.6z"/>
			<path d="M366.8,451.4c0.9,0.2,1.7,0.5,2.5,0.8c0.6,0.2,1.1,0.4,1.6,0.7c0,0,0,0,0.1,0c-0.1,0.1-0.2,0.2-0.2,0.3
				c-0.2-0.1-0.4-0.1-0.5-0.2c-0.6-0.2-1.2-0.4-1.9-0.6c-0.1,0-0.3,0.1-0.5,0C367.5,452.1,367.1,451.9,366.8,451.4
				C366.9,451.4,366.8,451.4,366.8,451.4z"/>
			<path d="M368.4,452.4c0.6,0.2,1.2,0.4,1.9,0.6c0.2,0.1,0.4,0.1,0.5,0.2c0.1-0.1,0.1-0.2,0.2-0.3c0.2,0.1,0.4,0.2,0.6,0.2
				c0.3,0.2,0.6,0.4,0.9,0.7c0,0,0,0,0,0c-0.1,0-0.1,0-0.2-0.1c-1-0.4-2.1-0.7-3.2-0.9c-0.2-0.1-0.5-0.1-0.8-0.3
				c-0.1-0.1-0.2-0.1-0.3-0.2c0,0,0,0-0.1,0C368.1,452.4,368.2,452.4,368.4,452.4z"/>
			<path d="M369.2,542.7c1,1.3,2.1,2.5,3.2,3.8c-0.1,0-0.1,0.1-0.2,0.1c-0.5,0.3-1.1,0.6-1.6,0.9c-0.7-0.6-1.3-1.4-1.8-2.3
				c-0.3-0.5-0.6-1.1-0.9-1.6c-0.2,0.1-0.3,0.1-0.5,0.2c0.2-0.1,0.5-0.3,0.7-0.4C368.4,543,368.8,542.9,369.2,542.7z"/>
			<path d="M366,544.7c0.2-0.3,0.4-0.5,0.8-0.7c0.1-0.1,0.3-0.1,0.4-0.2c0.1,0,0.1-0.1,0.1-0.1c0.2-0.1,0.3-0.1,0.5-0.2
				c0.3,0.5,0.6,1.1,0.9,1.6c0.5,0.9,1.1,1.6,1.8,2.3c-0.2,0.1-0.4,0.2-0.6,0.2c-0.3,0.1-0.6,0.2-0.9,0.3c-0.2,0-0.3,0.1-0.4,0.1
				c-0.4,0.1-0.7,0.1-1,0.1c-0.4,0-0.7-0.1-1-0.3c-0.3-0.2-0.6-0.4-0.7-0.7v0c-0.1-0.2-0.1-0.3-0.2-0.5
				C365.2,546,365.5,545.2,366,544.7z"/>
			<path d="M368.4,448.6c-0.6,0.2-1.1,0.5-1.5,1.1c-0.3,0.5-0.3,1.2,0,1.7c-0.3-0.1-0.7-0.1-1-0.1c-0.8,0-1.5,0-2.2,0.2c0,0,0,0,0,0
				c-1.4-0.3-2.7-0.5-4.1-0.6c-0.8-0.1-1.5-0.1-2.3-0.1c0.5-0.4,1-0.9,1.6-1.3c2.7-1.8,5.9-2.3,9-1.6c0.6,0.1,1.2,0.3,1.7,0.6
				c-0.2,0-0.5,0-0.7,0.1C368.6,448.5,368.5,448.5,368.4,448.6z"/>
			<path d="M378.4,454.8c-5.6,5.8-10,12.7-13.1,20.1l-0.9-0.4c-0.3-0.4-0.6-0.7-0.9-1.1c0.1-0.3,0.2-0.6,0.3-0.9
				c-0.6-0.1-1.3-0.4-1.8-0.7c0,0,0,0,0,0c-0.2-0.2-0.4-0.4-0.6-0.5c2.8-6.4,6.6-12.3,11.1-17.6c0,0,0.1,0,0.1,0
				c0.5,0.4,1.1,0.9,1.5,1.5c0,0.1,0.1,0.1,0.1,0.2c0.5-0.5,1-1,1.5-1.4L378.4,454.8z"/>
			<path d="M367.6,452.4c-1.3-0.4-2.7-0.7-4-0.9c0.7-0.1,1.5-0.2,2.2-0.2c0.3,0,0.7,0.1,1,0.1c0,0,0,0.1,0,0.1c0.2,0.4,0.6,0.7,1,1
				C367.8,452.4,367.7,452.4,367.6,452.4z"/>
			<path d="M363.8,472.6c-0.1,0.3-0.2,0.6-0.3,0.9c-0.5-0.5-1-1-1.5-1.5C362.5,472.3,363.2,472.5,363.8,472.6z"/>
			<path d="M365.3,474.9c-2,4.7-3.4,9.6-4.4,14.6c-1.6,8.6-1.5,17.5,0.5,26.1l-0.5,0.1c-1.1,1.3-2.3,2.4-3.6,3.4
				c-3.6-13.2-2.9-27.5,1.3-40.5c0.3-1,0.6-1.9,1-2.8c1.1,1.1,2,2.4,2.9,3.7c0.5-1.6,1.2-3.3,2-4.9L365.3,474.9z"/>
			<path d="M362,472c0.5,0.5,1,1,1.5,1.5c-0.4,1-0.7,2-1,3c-0.9-0.3-1.8-0.8-2.7-1.3c0.5-1.2,1-2.4,1.5-3.6
				C361.5,471.7,361.7,471.9,362,472C361.9,472,361.9,472,362,472z"/>
			<path d="M361.4,515.6c1,4.3,2.4,8.4,4.2,12.4c2.5,5.3,5.8,10.2,9.6,14.6l-2.8,0c-0.2-0.2-0.5-0.3-0.8-0.4
				c-0.6-0.1-1.3-0.1-1.9,0.2c-0.2,0.1-0.4,0.2-0.5,0.3c-4.5-5.8-8.2-12.2-10.6-19.2c1.3-0.8,2.4-1.7,3.5-2.7c0,0,0-0.1,0-0.1
				c-0.1-0.2-0.1-0.5-0.2-0.8c-0.3-0.6-0.5-1.4-0.6-2.1c-0.1-0.7-0.2-1.4-0.3-2.1L361.4,515.6z"/>
			<path d="M362.5,476.5c0.3-1,0.6-2,1-3c0.3,0.4,0.6,0.7,0.9,1.1c-0.8,1.6-1.4,3.2-2,4.9c-0.8-1.3-1.8-2.5-2.9-3.7
				c0.1-0.2,0.1-0.4,0.2-0.6C360.6,475.8,361.5,476.2,362.5,476.5z"/>
			<path d="M362.1,520.7c0,0,0,0.1,0,0.1c-1.1,1-2.3,1.9-3.5,2.7c-0.4-1-0.7-2-1-3.1c-0.1-0.4-0.2-0.8-0.4-1.3
				c1.4-1,2.6-2.2,3.6-3.4c0.1,0.7,0.2,1.4,0.3,2.1c0.1,0.8,0.4,1.5,0.6,2.1C361.9,520.2,362,520.4,362.1,520.7z"/>
			<path d="M361.3,471.4c0.2,0.2,0.4,0.4,0.6,0.5c-0.2-0.1-0.5-0.2-0.7-0.4C361.3,471.5,361.3,471.5,361.3,471.4z"/>
			<path d="M361.3,471.4c0,0.1,0,0.1-0.1,0.2c-1-0.6-1.9-1.4-2.7-2.3c0.9,0.6,1.7,1.2,2.5,1.9C361.1,471.2,361.2,471.3,361.3,471.4z
				"/>
			<path d="M353.3,466.6c-1.7-5.6-0.5-11.9,3.9-15.9c0.8,0,1.5,0.1,2.3,0.1c1.4,0.1,2.8,0.3,4.1,0.6c-1.7,0.4-3.3,1.2-4.6,2.5
				c-3.8,3.7-4,9.5-1.4,14c0.3,0.5,0.7,1,1,1.5C356.9,468.2,355.1,467.2,353.3,466.6z"/>
			<path d="M359.8,475.2c-3-1.9-5.2-4.9-6.4-8.4c0-0.1-0.1-0.2-0.1-0.3c1.9,0.7,3.6,1.6,5.3,2.8c0.8,0.9,1.7,1.7,2.7,2.3
				C360.7,472.8,360.2,474,359.8,475.2z"/>
			<path fill="#FFFFFF" d="M314.9,484.8c3.1-6.1,8-11.2,14.2-14.2c2.8-1.4,5.9-2.3,9.1-2.7c0.1,0.1,0.2,0.1,0.3,0.1
				c2.9-0.1,5.9,0.3,8.7,0.9c2.9,0.6,5.6,1.8,8.1,3.4c1.6,1,3,2.2,4.3,3.6c-0.3,0.9-0.7,1.9-1,2.8c-4.2,13-4.9,27.3-1.3,40.5
				c-0.3,0.2-0.6,0.4-0.9,0.6c-5,3.2-11,4.7-16.8,4.9c-6.5,0.3-13.2-0.7-18.6-4.5C309.6,512.2,309,496.2,314.9,484.8z"/>
			<path d="M315,519.7c-10.1-11.4-8.8-28.6-0.6-40.6c3.9-5.8,9.3-10.4,15.9-12.9c3.4-1.3,7.1-2.1,10.7-2c1.9,0,3.8,0.2,5.6,0.7
				c0.3,0.1,0.6,0.2,0.9,0.3c1.7,0.2,3.3,0.6,4.9,1.1c0.3,0.1,0.7,0.2,1,0.3c0,0.1,0.1,0.2,0.1,0.3c1.1,3.5,3.4,6.5,6.4,8.4
				c-0.1,0.2-0.1,0.4-0.2,0.6c-1.3-1.4-2.7-2.6-4.3-3.6c-2.5-1.6-5.2-2.8-8.1-3.4c-2.8-0.6-5.8-1-8.7-0.9c-0.1,0-0.2,0-0.3-0.1
				c-3.2,0.4-6.2,1.3-9.1,2.7c-6.1,3.1-11.1,8.2-14.2,14.2c-5.9,11.4-5.3,27.5,5.9,35.5c5.4,3.8,12.2,4.8,18.6,4.5
				c5.9-0.3,11.9-1.7,16.8-4.9c0.3-0.2,0.6-0.4,0.9-0.6c0.1,0.4,0.2,0.8,0.4,1.3c0.3,1,0.6,2.1,1,3.1c-1.2,0.8-2.4,1.4-3.7,2
				c-6.4,2.8-13.6,3.7-20.6,3.1C327,527.9,319.9,525.3,315,519.7z"/>
			<path d="M327,457.8c4.8-3,10.1-5,15.6-6.2c4.8-1,9.6-1.2,14.5-0.9c-4.3,3.9-5.6,10.2-3.9,15.9c-0.3-0.1-0.7-0.2-1-0.3
				c-1.6-0.5-3.2-0.9-4.9-1.1c-0.3-0.1-0.6-0.2-0.9-0.3c-1.8-0.5-3.7-0.7-5.6-0.7c-3.6-0.1-7.3,0.7-10.7,2
				c-6.5,2.5-12,7.1-15.9,12.9c-8.2,12-9.4,29.3,0.6,40.6c4.9,5.6,12,8.2,19.3,8.9c7,0.6,14.2-0.3,20.6-3.1c1.3-0.6,2.6-1.2,3.7-2
				c2.4,7,6.1,13.4,10.6,19.2c-0.4,0.2-0.8,0.4-1.2,0.6c-0.2,0.1-0.5,0.3-0.7,0.4c-2.3,0.8-4.6,1.3-7,1.8
				c-10.9,1.9-22.6-0.3-32.2-5.9c-9.5-5.5-16.8-14.4-20.6-24.6c-3.9-10.4-4.1-21.6-0.5-32.1C310.7,472.5,317.7,463.5,327,457.8z"/>
			<path d="M342.7,451.6c-5.5,1.2-10.8,3.2-15.6,6.2c-9.3,5.8-16.4,14.7-20,25.1c-3.6,10.5-3.4,21.7,0.5,32.1
				c3.8,10.2,11.1,19.2,20.6,24.6c9.6,5.6,21.2,7.7,32.2,5.9c2.4-0.4,4.7-1,7-1.8c-0.1,0-0.1,0-0.1,0.1c-0.1,0.1-0.3,0.1-0.4,0.2
				c-0.3,0.2-0.5,0.4-0.8,0.7c-0.5,0.5-0.8,1.3-0.5,2c0.1,0.2,0.1,0.3,0.2,0.5v0c0.2,0.3,0.4,0.5,0.7,0.7c0.3,0.2,0.7,0.3,1,0.3
				c0.4,0,0.6,0,1-0.1c0.1,0,0.3-0.1,0.4-0.1c0.3-0.1,0.6-0.2,0.9-0.3c0.2-0.1,0.4-0.2,0.6-0.2c0,0,0.1,0.1,0.1,0.1
				c-5.8,2.2-12.1,3.3-18.4,3.2c-12.2-0.2-24.2-4.5-33.5-12.4c-9-7.7-15.2-18.7-17.4-30.3c-2.2-11.6-0.1-23.8,5.5-34.1
				c5.7-10.5,14.8-18.9,25.8-23.4c4.2-1.7,8.6-2.9,13-3.5c0.4-0.1,0.7-0.2,1.1-0.3c9.5-1.8,19.2-0.6,28,3c0,0,0,0,0,0
				c-0.9-0.5-2-0.8-3-1c-0.5-0.1-1-0.2-1.6-0.3c-0.3,0-0.5-0.1-0.7-0.1c-0.6-0.2-1.2-0.4-1.7-0.6c-3.1-0.7-6.3-0.1-9,1.6
				c-0.6,0.4-1.1,0.8-1.6,1.3C352.3,450.5,347.5,450.6,342.7,451.6z"/>
			<path fill="#FFFFFF" d="M330.6,557c-15.7-5.6-27.7-18.4-34-33.6c-6.7-16.2-5.8-34.6,0.9-50.7c6.7-16.2,19.7-29.9,36-36.8
				c7.9-3.3,16.4-4.8,24.9-4.1c4.2,0.3,8.3,1.2,12.3,2.6c4,1.4,7.6,3.4,11.3,5.5c1.3,0.7,2.5,1.5,3.6,2.4c-1,0.7-2.1,1.4-3.1,2.2
				c-2.4,1.8-4.7,3.8-6.8,6c-0.1-0.1-0.2-0.2-0.4-0.3c-0.2-0.1-0.4-0.2-0.6-0.3c0,0,0,0,0,0c-8.8-3.6-18.6-4.8-28-3
				c-0.4,0.1-0.7,0.2-1.1,0.3c-4.4,0.6-8.8,1.7-13,3.5c-11.1,4.5-20.1,12.9-25.8,23.4c-5.6,10.4-7.7,22.5-5.5,34.1
				c2.2,11.6,8.4,22.6,17.4,30.3c9.3,7.9,21.3,12.3,33.5,12.4c6.4,0.1,12.6-1,18.4-3.2c0,0-0.1-0.1-0.1-0.1c0.6-0.3,1.1-0.6,1.6-0.9
				c0.1,0,0.1-0.1,0.2-0.1c1.9,2.1,3.9,4.1,6,6C364.1,561.1,346.2,562.6,330.6,557z"/>
			<path d="M296.5,523.4c6.3,15.2,18.3,28,34,33.6c15.6,5.6,33.6,4.1,47.8-4.6c-2.1-1.9-4.1-3.9-6-6c0.4-0.3,0.8-0.8,0.9-1.3
				c0.2-0.6,0.1-1.4-0.2-1.9c-0.2-0.3-0.4-0.5-0.6-0.7l2.8,0c4.9,5.7,10.7,10.5,17.2,14.4c11.5,6.8,25,10.2,38.4,9
				c13.1-1.2,25.7-6.7,35.7-15c10.2-8.4,18.1-19.7,21.7-32.5c3.6-12.8,2.7-26.3-1.4-38.9c-4.1-12.5-11.9-24-22.4-32
				c-0.4-0.3-0.6-0.6-0.7-1c-0.3,0-0.7-0.1-1.1-0.3c-2.7-1.8-5.9-3.2-8.9-4.4c-12.6-5.5-26.3-7.5-39.9-5.3
				c-13.5,2.2-26,8.5-35.5,18.4l-2.7-0.7c0.5-0.4,1.1-0.8,1.7-1.2c-0.3-0.4-0.7-0.8-1.1-1.2c-0.1-0.5-0.3-0.9-0.7-1.3
				c2.1-2.1,4.4-4.1,6.8-6c1-0.8,2.1-1.5,3.1-2.2c-1.2-0.9-2.4-1.6-3.6-2.4c-3.7-2.1-7.3-4.1-11.3-5.5c-4-1.4-8.1-2.3-12.3-2.6
				c-8.5-0.7-17.1,0.8-24.9,4.1c-16.2,6.9-29.2,20.6-36,36.8C290.7,488.8,289.8,507.2,296.5,523.4z M322.6,558.5
				c-15.5-8-27.1-23-32.1-39.6c-5.5-18.1-2.6-37.9,6.2-54.4c8.8-16.5,23.7-30.1,41.8-35.6c9-2.7,18.4-3.1,27.6-1
				c4.5,1,8.8,2.6,12.8,4.8c3.7,2,6.8,4.7,9.5,7.8c10.6-6.3,22.8-9.6,35.1-9.9c7.3-0.2,14.6,0.8,21.6,2.7c3.6,1,7.1,2.3,10.5,4
				c1.6,0.8,3.2,1.7,4.7,2.7c1.5,1,2.9,2.2,4.4,3.2c0.4,0.2,0.6,0.6,0.7,0.9c0.4,0,0.8,0.1,1.1,0.4c2.8,2,5.4,4.3,7.9,6.7
				c9.9,9.9,16.7,23,19.4,36.8c2.7,14,1.3,28.6-4.7,41.5c-5.9,12.8-15.9,23.5-27.9,30.8c-12,7.3-26.1,11.2-40.1,10.4
				c-14.1-0.9-27.8-6.4-38.9-15.1c-0.1,0.1-0.3,0.3-0.5,0.4c-1.8,1.2-3.7,2.4-5.7,3.4C359.3,567.6,338.9,566.9,322.6,558.5z"/>
		</g>
		<g>
		</g>
	</g>
	<g>
		<circle fill="#F4D0E9" cx="433.5" cy="590.5" r="13.5"/>
		<path d="M435.6,576.8c-1.6,1.4-3.3,2.6-4.7,4.2c-1.3,1.6-2.6,3.3-3.8,4.9c-1.2,1.6-2.4,3.3-3.5,5c-0.6,0.9-1.2,1.8-1.8,2.7
			c-0.5,0.9-0.8,1.8-1.2,2.6c-0.1,0.3,0.2,0.6,0.5,0.4c0.6-0.7,1.3-1.3,1.9-2.1c0.6-0.8,1.2-1.7,1.8-2.5c1.2-1.7,2.5-3.4,3.8-5
			c1.3-1.6,2.6-3.2,3.9-4.8c1.3-1.6,2.3-3.4,3.4-5.2C436.1,576.8,435.8,576.7,435.6,576.8z"/>
		<path d="M439.5,581.2c-1.4,1.4-2.8,2.8-4,4.2c-1.2,1.4-2.3,2.9-3.4,4.3c-1.1,1.4-2.1,3-3.1,4.5c-0.5,0.8-1.1,1.7-1.6,2.5
			c-0.2,0.4-0.5,0.9-0.7,1.3c-0.2,0.4-0.5,1.2-0.9,1.5c-0.3,0.3,0.3,0.7,0.5,0.4c0.3-0.5,0.8-0.9,1.2-1.3c0.3-0.4,0.7-0.7,1-1.1
			c0.7-0.7,1.3-1.5,1.9-2.2c1.2-1.4,2.3-2.8,3.4-4.3c2.2-3.1,4.2-6.3,5.9-9.8C439.8,581.2,439.6,581.1,439.5,581.2z"/>
		<path d="M439.6,591.9l-0.8,0.7c-0.3,0.2-0.5,0.5-0.8,0.8c-0.5,0.6-1,1.2-1.5,1.9c-0.4,0.6-0.9,1.2-1.3,1.8c-0.4,0.6-1,1.3-0.9,2.1
			c0,0.3,0.3,0.5,0.6,0.5c0.7-0.2,1.2-0.9,1.7-1.4c0.5-0.6,1-1.3,1.4-1.9c0.4-0.6,0.8-1.2,1.2-1.9c0.2-0.3,0.4-0.6,0.5-1
			c0.1-0.4,0.3-0.7,0.4-1.1C440.3,592,439.9,591.7,439.6,591.9z"/>
	</g>
</g>
</svg>
