<?xml version="1.0" encoding="utf-8"?>
<!-- Generator: Adobe Illustrator 27.5.0, SVG Export Plug-In . SVG Version: 6.00 Build 0)  -->
<!DOCTYPE svg PUBLIC "-//W3C//DTD SVG 1.1//EN" "http://www.w3.org/Graphics/SVG/1.1/DTD/svg11.dtd" [
	<!ENTITY ns_extend "http://ns.adobe.com/Extensibility/1.0/">
	<!ENTITY ns_ai "http://ns.adobe.com/AdobeIllustrator/10.0/">
	<!ENTITY ns_graphs "http://ns.adobe.com/Graphs/1.0/">
	<!ENTITY ns_vars "http://ns.adobe.com/Variables/1.0/">
	<!ENTITY ns_imrep "http://ns.adobe.com/ImageReplacement/1.0/">
	<!ENTITY ns_sfw "http://ns.adobe.com/SaveForWeb/1.0/">
	<!ENTITY ns_custom "http://ns.adobe.com/GenericCustomNamespace/1.0/">
	<!ENTITY ns_adobe_xpath "http://ns.adobe.com/XPath/1.0/">
]>
<svg version="1.1" id="Calque_1" xmlns:x="&ns_extend;" xmlns:i="&ns_ai;" xmlns:graph="&ns_graphs;"
	 xmlns="http://www.w3.org/2000/svg" xmlns:xlink="http://www.w3.org/1999/xlink" x="0px" y="0px" viewBox="0 0 800 1000"
	 enable-background="new 0 0 800 1000" xml:space="preserve">
<metadata>
	<sfw  xmlns="&ns_sfw;">
		<slices></slices>
		<sliceSourceBounds  bottomLeftOrigin="true" height="144.1" width="207.2" x="287.7" y="-570.7"></sliceSourceBounds>
	</sfw>
</metadata>
<g id="Face_00000147186436480089962440000011075594460529609611_">
	<g id="XMLID_00000150786243076905215190000012439308252460709542_">
		<g>
			<path fill="#FFFFFF" d="M486.9,479.5c4.1,12.6,4.9,26.1,1.4,38.9c-3.6,12.8-11.4,24.1-21.7,32.5c-10.1,8.3-22.7,13.8-35.7,15
				c-13.4,1.2-26.9-2.2-38.4-9c-11.5-6.8-21-16.9-26.8-29c-5.6-11.9-7.1-25.6-4.7-38.5c2.4-12.9,8.4-25.2,17.5-34.7
				c9.5-9.9,22-16.1,35.5-18.4c13.6-2.3,27.3-0.2,39.9,5.3c3,1.3,6.2,2.6,8.9,4.4c0.4,0.3,0.8,0.3,1.1,0.3c0.1,0.4,0.3,0.7,0.7,1
				C475,455.5,482.8,467,486.9,479.5z M415.5,501.8c0-0.5-0.1-1-0.3-1.4c-0.3-0.5-0.5-0.8-1-1c-0.3-0.2-0.7-0.3-1-0.4
				c-0.4-0.1-0.8-0.1-1.1,0c-0.2,0.1-0.4,0.2-0.7,0.3c-0.4,0.2-0.8,0.6-1,1c-0.1,0.1-0.1,0.1-0.1,0.2c-0.1,0.2-0.2,0.4-0.3,0.7
				c-0.1,0.4-0.2,0.7-0.1,1.1c0,0.2,0,0.5,0.2,0.7c0.1,0.4,0.3,0.7,0.6,0.9c0.2,0.2,0.4,0.3,0.5,0.5c0.2,0.1,0.4,0.2,0.6,0.3
				c0.4,0.1,0.7,0.2,1.1,0.1c0.4,0,0.7-0.1,1-0.3c0.1,0,0.1-0.1,0.2-0.1c0.3-0.2,0.6-0.4,0.8-0.7c0.3-0.3,0.4-0.6,0.5-1
				C415.5,502.3,415.5,502.1,415.5,501.8z"/>
			<path d="M411.1,504.3c-0.2-0.1-0.4-0.3-0.5-0.5c-0.3-0.3-0.5-0.6-0.6-0.9c-0.1-0.2-0.2-0.5-0.2-0.7c-0.1-0.4,0-0.8,0.1-1.1
				c0.1-0.2,0.2-0.4,0.3-0.7c0-0.1,0.1-0.1,0.1-0.2c0.3-0.4,0.6-0.7,1-1c0.2-0.1,0.5-0.2,0.7-0.3c0.4-0.1,0.8-0.1,1.1,0
				c0.4,0,0.7,0.1,1,0.4c0.5,0.3,0.7,0.6,1,1c0.2,0.4,0.4,0.9,0.3,1.4c0,0.2-0.1,0.5-0.1,0.8c-0.1,0.4-0.3,0.7-0.5,1
				c-0.2,0.3-0.5,0.5-0.8,0.7c-0.1,0-0.1,0.1-0.2,0.1c-0.3,0.2-0.7,0.3-1,0.3c-0.4,0.1-0.7,0-1.1-0.1
				C411.5,504.5,411.3,504.4,411.1,504.3z"/>
			<path fill="#FFFFFF" d="M333.4,435.9c7.9-3.3,16.4-4.8,24.9-4.1c4.2,0.3,8.3,1.2,12.3,2.6c4,1.4,7.6,3.4,11.3,5.5
				c1.3,0.7,2.5,1.5,3.6,2.4c-1,0.7-2.1,1.4-3.1,2.2c-11.3,8.5-19.5,20.8-23.9,34.2c-4.4,13.4-5,28.2-1,41.8
				c3.7,12.5,11.1,23.5,20.8,32.1c-14.2,8.7-32.2,10.2-47.8,4.6c-15.7-5.6-27.7-18.4-34-33.6c-6.7-16.2-5.8-34.6,0.9-50.7
				C304.1,456.5,317.1,442.8,333.4,435.9z M332.3,496.9c0-0.4,0-0.7-0.2-1c-0.1-0.3-0.3-0.6-0.5-0.9c-0.2-0.3-0.5-0.5-0.8-0.6
				c-0.3-0.2-0.6-0.3-1-0.3l-0.7,0.1c-0.4,0.1-0.8,0.3-1.2,0.6c-0.1,0.2-0.3,0.4-0.4,0.5c-0.2,0.4-0.4,0.8-0.4,1.3
				c0,0.3,0,0.5,0,0.8c0,0.4,0,0.7,0.2,1c0.1,0.3,0.3,0.6,0.5,0.9c0.2,0.3,0.5,0.5,0.8,0.6c0.3,0.2,0.6,0.3,1,0.3
				c0.2,0,0.5,0,0.7-0.1c0.4-0.1,0.8-0.3,1.2-0.6c0.1-0.2,0.3-0.3,0.4-0.5c0.2-0.4,0.4-0.8,0.4-1.3
				C332.3,497.4,332.3,497.1,332.3,496.9z"/>
			<path d="M338.5,428.9c9-2.7,18.4-3.1,27.6-1c4.5,1,8.8,2.6,12.8,4.8c3.7,2,6.8,4.7,9.5,7.8c10.6-6.3,22.8-9.6,35.1-9.9
				c7.3-0.2,14.6,0.8,21.6,2.7c3.6,1,7.1,2.3,10.5,4c1.6,0.8,3.2,1.7,4.7,2.7c1.5,1,2.9,2.2,4.4,3.2c0.4,0.2,0.6,0.6,0.7,0.9
				c0.4,0,0.8,0.1,1.1,0.4c2.8,2,5.4,4.3,7.9,6.7c9.9,9.9,16.7,23,19.4,36.8c2.7,14,1.3,28.6-4.7,41.5
				c-5.9,12.8-15.9,23.5-27.9,30.8c-12,7.3-26.1,11.2-40.1,10.4c-14.1-0.9-27.8-6.4-38.9-15.1c-0.1,0.1-0.3,0.3-0.5,0.4
				c-1.8,1.2-3.7,2.4-5.7,3.4c-16.5,8.3-36.9,7.7-53.2-0.8c-15.5-8-27.1-23-32.1-39.6c-5.5-18.1-2.6-37.9,6.2-54.4
				C305.5,448,320.4,434.4,338.5,428.9z M358.3,431.8c-8.5-0.7-17.1,0.8-24.9,4.1c-16.2,6.9-29.2,20.6-36,36.8
				c-6.7,16.1-7.6,34.5-0.9,50.7c6.3,15.2,18.3,28,34,33.6c15.6,5.6,33.6,4.1,47.8-4.6c-9.7-8.6-17.1-19.6-20.8-32.1
				c-4-13.6-3.4-28.4,1-41.8c4.4-13.4,12.6-25.7,23.9-34.2c1-0.8,2.1-1.5,3.1-2.2c-1.2-0.9-2.4-1.6-3.6-2.4
				c-3.7-2.1-7.3-4.1-11.3-5.5C366.6,433,362.5,432.1,358.3,431.8z M488.2,518.4c3.6-12.8,2.7-26.3-1.4-38.9
				c-4.1-12.5-11.9-24-22.4-32c-0.4-0.3-0.6-0.6-0.7-1c-0.3,0-0.7-0.1-1.1-0.3c-2.7-1.8-5.9-3.2-8.9-4.4
				c-12.6-5.5-26.3-7.5-39.9-5.3c-13.5,2.2-26,8.5-35.5,18.4c-9.1,9.5-15.1,21.8-17.5,34.7c-2.4,12.9-0.9,26.6,4.7,38.5
				c5.7,12.1,15.3,22.1,26.8,29c11.5,6.8,25,10.2,38.4,9c13.1-1.2,25.7-6.7,35.7-15C476.8,542.5,484.6,531.2,488.2,518.4z"/>
			<path d="M332.3,497.7c0,0.5-0.2,0.9-0.4,1.3c-0.1,0.2-0.3,0.4-0.4,0.5c-0.3,0.3-0.7,0.5-1.2,0.6c-0.2,0-0.5,0.1-0.7,0.1
				c-0.4,0-0.7-0.1-1-0.3c-0.3-0.1-0.6-0.3-0.8-0.6c-0.2-0.2-0.4-0.5-0.5-0.9c-0.2-0.3-0.2-0.7-0.2-1c0-0.3,0-0.5,0-0.8
				c0-0.5,0.2-0.9,0.4-1.3c0.1-0.2,0.3-0.4,0.4-0.5c0.3-0.3,0.7-0.5,1.2-0.6l0.7-0.1c0.4,0,0.7,0.1,1,0.3c0.3,0.1,0.6,0.3,0.8,0.6
				c0.2,0.2,0.4,0.5,0.5,0.9c0.2,0.3,0.2,0.6,0.2,1C332.3,497.1,332.3,497.4,332.3,497.7z"/>
		</g>
		<g>
		</g>
	</g>
</g>
</svg>
