<?xml version="1.0" encoding="utf-8"?>
<!-- Generator: Adobe Illustrator 27.5.0, SVG Export Plug-In . SVG Version: 6.00 Build 0)  -->
<!DOCTYPE svg PUBLIC "-//W3C//DTD SVG 1.1//EN" "http://www.w3.org/Graphics/SVG/1.1/DTD/svg11.dtd" [
	<!ENTITY ns_extend "http://ns.adobe.com/Extensibility/1.0/">
	<!ENTITY ns_ai "http://ns.adobe.com/AdobeIllustrator/10.0/">
	<!ENTITY ns_graphs "http://ns.adobe.com/Graphs/1.0/">
	<!ENTITY ns_vars "http://ns.adobe.com/Variables/1.0/">
	<!ENTITY ns_imrep "http://ns.adobe.com/ImageReplacement/1.0/">
	<!ENTITY ns_sfw "http://ns.adobe.com/SaveForWeb/1.0/">
	<!ENTITY ns_custom "http://ns.adobe.com/GenericCustomNamespace/1.0/">
	<!ENTITY ns_adobe_xpath "http://ns.adobe.com/XPath/1.0/">
]>
<svg version="1.1" id="Calque_1" xmlns:x="&ns_extend;" xmlns:i="&ns_ai;" xmlns:graph="&ns_graphs;"
	 xmlns="http://www.w3.org/2000/svg" xmlns:xlink="http://www.w3.org/1999/xlink" x="0px" y="0px" viewBox="0 0 800 1000"
	 enable-background="new 0 0 800 1000" xml:space="preserve">
<metadata>
	<sfw  xmlns="&ns_sfw;">
		<slices></slices>
		<sliceSourceBounds  bottomLeftOrigin="true" height="157" width="202.8" x="294.9" y="-570"></sliceSourceBounds>
	</sfw>
</metadata>
<g id="XMLID_00000008142968862303702030000002267353699437594535_">
	<g>
		<path d="M491.7,440.9c4,8.1,5.4,17.2,4.2,26.1c-1.2,8.6-4.6,17.6-10.8,23.9c0-0.1-0.1-0.1-0.1-0.2c-0.8-1.1-1.7-2.1-2.5-3.2
			c2.4-3.4,4.6-6.9,6.2-10.8c1.7-4.2,2.7-8.8,3-13.3c0.5-8-1.2-15.9-5.2-22.9c-3.8-6.7-9.5-12.4-16.2-16.1c-7-4-15-5.6-23-5
			c-4.1,0.3-8.2,1.3-12.1,2.6c-3.3,1.2-6.4,2.8-9.4,4.6c-0.9-0.8-1.8-1.6-2.7-2.4c3.5-3.1,7.8-5.3,12.2-6.9c4.7-1.7,9.9-2.5,15-2.5
			C467.6,414.6,484,425.1,491.7,440.9z"/>
		<path fill="#FFFFFF" d="M486.4,440.6c4,7,5.6,14.9,5.2,22.9c-0.3,4.6-1.3,9.1-3,13.3c-1.5,3.9-3.8,7.4-6.2,10.8
			c-3.7-4.2-8-7.6-13.4-9.5c-7.4-2.7-15.7-2.6-23.3-0.9c-2.3,0.5-4.6,1.2-6.9,2.1c0.5-1.3,0.8-2.7,1.1-4.2c0.5-2.5,0.8-4.9,1-7.4
			c0.3-4.9,0-9.8-1-14.6c-1.8-9.1-6.1-17.6-12.4-24.4c-0.6-0.7-1.3-1.4-2-2c3-1.7,6.1-3.4,9.4-4.6c3.9-1.4,8-2.3,12.1-2.6
			c8-0.6,16,1.1,23,5C476.9,428.2,482.5,433.8,486.4,440.6z M449.6,442.3c0.2-0.4,0.3-0.7,0.2-1.1c0-0.3-0.1-0.5-0.1-0.8
			c-0.1-0.5-0.4-0.9-0.8-1.3c-0.2-0.2-0.4-0.3-0.6-0.5c-0.5-0.3-0.9-0.4-1.5-0.4c-0.4,0-0.8,0.1-1.1,0.2c-0.4,0.1-0.7,0.3-0.9,0.6
			c-0.3,0.3-0.5,0.6-0.6,0.9c-0.2,0.3-0.3,0.7-0.2,1.1c0,0.3,0.1,0.5,0.1,0.8c0.1,0.5,0.4,0.9,0.8,1.3c0.2,0.1,0.4,0.3,0.6,0.5
			c0.5,0.3,0.9,0.4,1.5,0.4c0.4,0,0.8-0.1,1.1-0.2c0.4-0.1,0.7-0.3,0.9-0.6C449.3,443,449.5,442.7,449.6,442.3z"/>
		<path fill="#FFFFFF" d="M489,506.5c4.9,11.5,5.9,24.5,0.2,35.9c-2.5,5.1-6.1,9.6-10.5,13.3c-4.8,3.9-10.6,6.4-16.6,7.9
			c-7.1,1.7-14.6,2-21.9,1.2c-3.4-0.4-6.7-1.1-9.8-2.3c-3.1-1.2-5.9-3-8.7-4.7c0,0,0,0,0,0c1.2-1.1,2.4-2.2,3.6-3.4
			c7.4-7.8,12.5-17.9,14.2-28.6c1.7-10.6,0-21.5-6-30.6c-1.3-2-2.9-3.9-4.6-5.6c2.9-2.1,5.8-4.1,8.9-5.6c2.1-1,4.3-1.9,6.6-2.5
			c6.1-1.7,12.8-2.2,19-0.9c6.3,1.3,11.5,4.6,15.8,9.4c0.5,0.6,1,1.2,1.5,1.8C484.2,496.2,486.8,501.4,489,506.5z M470.2,506.3
			c0.2-0.3,0.3-0.7,0.2-1.1c0-0.2-0.1-0.5-0.1-0.8c-0.1-0.5-0.4-0.9-0.7-1.3c-0.2-0.1-0.4-0.3-0.6-0.4c-0.5-0.3-0.9-0.4-1.5-0.4
			c-0.4,0-0.8,0.1-1.1,0.2c-0.4,0.1-0.7,0.3-0.9,0.6c-0.3,0.3-0.5,0.6-0.6,0.9c-0.2,0.3-0.3,0.7-0.2,1.1c0,0.3,0.1,0.5,0.1,0.8
			c0.1,0.5,0.4,0.9,0.8,1.3c0.2,0.1,0.4,0.3,0.6,0.4c0.5,0.3,0.9,0.4,1.5,0.4c0.4,0,0.8-0.1,1.1-0.2c0.4-0.1,0.7-0.3,0.9-0.6
			C469.9,506.9,470,506.6,470.2,506.3z"/>
		<path d="M485,490.9c4.1,5.6,7.6,11.9,9.8,18.5c2.3,6.7,3.4,13.9,2.6,21c-0.8,6.4-2.9,12.5-6.3,18c-3.3,5.3-7.7,10-12.9,13.5
			c-6,4-13,6.3-20.1,7.3c-6.9,1-14,1.1-21,0.1c-6.3-1-13.9-3.2-17.9-8.4c-0.2-0.3-0.4-0.6-0.4-0.9c1-0.7,1.9-1.4,2.8-2.2
			c0,0,0,0,0,0c2.9,1.7,5.6,3.5,8.7,4.7c3.1,1.2,6.5,2,9.8,2.3c7.2,0.8,14.8,0.5,21.9-1.2c6-1.4,11.8-3.9,16.6-7.9
			c4.4-3.6,8-8.2,10.5-13.3c5.7-11.4,4.7-24.4-0.2-35.9c-2.2-5.2-4.8-10.3-8.3-14.8l1-0.8c0.8,0.8,2.1,1.1,3,0.2
			C484.9,491.1,485,491,485,490.9z"/>
		<path d="M484.9,490.7c0.1,0.1,0.1,0.1,0.1,0.2c-0.1,0.1-0.2,0.2-0.3,0.3c-0.9,0.9-2.3,0.6-3-0.2c-0.6-0.6-0.8-1.5-0.2-2.3
			c0.3-0.4,0.5-0.8,0.8-1.2C483.2,488.5,484.1,489.6,484.9,490.7z"/>
		<path d="M481.5,488.7c-0.6,0.8-0.4,1.7,0.2,2.3l-1,0.8c-0.5-0.6-1-1.2-1.5-1.8c-4.2-4.8-9.5-8.1-15.8-9.4
			c-6.2-1.3-12.9-0.8-19,0.9c-2.3,0.6-4.5,1.5-6.6,2.5l-0.9-1.7c0.2-0.1,0.5-0.3,0.6-0.6c0.5-0.8,1-1.7,1.3-2.6
			c2.3-0.9,4.6-1.6,6.9-2.1c7.6-1.6,15.9-1.8,23.3,0.9c5.3,2,9.7,5.4,13.4,9.5C482.1,487.9,481.8,488.3,481.5,488.7z"/>
		<path d="M465.5,503.1c0.3-0.3,0.6-0.5,0.9-0.6c0.3-0.2,0.7-0.3,1.1-0.2c0.5,0,1,0.1,1.5,0.4c0.2,0.1,0.4,0.3,0.6,0.4
			c0.4,0.4,0.6,0.8,0.7,1.3c0,0.3,0.1,0.5,0.1,0.8c0,0.4-0.1,0.8-0.2,1.1c-0.1,0.4-0.3,0.7-0.6,0.9c-0.3,0.3-0.6,0.5-0.9,0.6
			c-0.3,0.2-0.7,0.3-1.1,0.2c-0.5,0-1-0.1-1.5-0.4c-0.2-0.1-0.4-0.3-0.6-0.4c-0.4-0.4-0.6-0.8-0.8-1.3c0-0.3-0.1-0.5-0.1-0.8
			c0-0.4,0.1-0.8,0.2-1.1C465,503.7,465.2,503.4,465.5,503.1z"/>
		<path d="M449.6,442.3c-0.1,0.4-0.3,0.7-0.6,0.9c-0.3,0.3-0.6,0.5-0.9,0.6c-0.3,0.2-0.7,0.3-1.1,0.2c-0.5,0-1-0.1-1.5-0.4
			c-0.2-0.2-0.4-0.3-0.6-0.5c-0.4-0.4-0.6-0.8-0.8-1.3c0-0.3-0.1-0.5-0.1-0.8c0-0.4,0.1-0.8,0.2-1.1c0.1-0.4,0.3-0.7,0.6-0.9
			c0.3-0.3,0.6-0.5,0.9-0.6c0.4-0.2,0.7-0.3,1.1-0.2c0.5,0,1,0.1,1.5,0.4c0.2,0.1,0.4,0.3,0.6,0.5c0.4,0.4,0.6,0.8,0.8,1.3
			c0,0.3,0.1,0.5,0.1,0.8C449.9,441.6,449.8,442,449.6,442.3z"/>
		<path d="M438.8,479.1c-0.3,0.9-0.7,1.8-1.3,2.6c-0.2,0.2-0.4,0.4-0.6,0.6c-1,0.5-2.3,0-2.4-1.2
			C435.9,480.3,437.4,479.7,438.8,479.1z"/>
		<path fill="#FFFFFF" d="M434.9,450.9c1.3,4.9,1.8,9.9,1.7,14.9c-0.1,2.5-0.3,4.9-0.8,7.3c-0.5,2.6-1.2,5.1-1.3,7.7
			c0,0.1,0,0.1,0,0.2c-3.1,1.7-5.9,3.8-8,6.4c-3.7-3.1-8-5.3-12.8-6.5c-1.8-0.9-3.8-1.6-5.8-2.2c-4.9-1.5-10.2-2.1-15.3-1.9
			c-2.5,0.1-4.9,0.4-7.3,0.9c1-11-2.2-22.3-8.6-31.2c-4.1-5.7-9.5-10.4-15.7-13.7c2.2-2.6,4.6-5.1,7.3-7.2c3.1-2.4,6.5-4.3,10.2-5.7
			c7.4-2.8,15.5-3.5,23.3-1.7c7.2,1.7,13.7,5.2,19.1,9.9C427.6,434,432.6,442,434.9,450.9z M421.1,448.5c0.2-0.3,0.3-0.7,0.2-1.1
			c0-0.2-0.1-0.5-0.1-0.8c-0.1-0.5-0.4-0.9-0.7-1.2c-0.2-0.2-0.4-0.3-0.6-0.4c-0.4-0.2-0.9-0.4-1.4-0.4c-0.4,0-0.8,0.1-1.1,0.2
			c-0.4,0.1-0.6,0.3-0.9,0.6c-0.3,0.2-0.5,0.6-0.6,0.9c-0.2,0.3-0.2,0.7-0.2,1.1c0,0.2,0.1,0.5,0.1,0.8c0.1,0.5,0.4,0.9,0.7,1.2
			c0.2,0.1,0.4,0.3,0.6,0.4c0.4,0.2,0.9,0.4,1.4,0.4c0.4,0,0.8-0.1,1.1-0.2c0.3-0.1,0.6-0.3,0.9-0.6
			C420.8,449.2,421,448.9,421.1,448.5z"/>
		<path d="M434.5,481.1c0.1,1.2,1.4,1.6,2.4,1.2l0.9,1.7c-3.1,1.6-6.1,3.5-8.9,5.6c-0.7-0.8-1.5-1.4-2.3-2.1
			C428.7,484.8,431.5,482.7,434.5,481.1z"/>
		<path fill="#FFFFFF" d="M433,504.3c1.7,4.7,2.4,9.6,2.3,14.6c-0.4,19-13.2,38.3-31.8,43.7c-8.8,2.5-18.4,1.9-26.9-1.4
			c-2.7-1.1-5.3-2.4-7.7-4.1c-5.1-3.5-9.3-8.2-12.4-13.6c-4.5-7.8-6.3-17.2-5-26.2c1.2-8.7,5.3-17,11.3-23.4c1.5-1.6,3-3,4.7-4.3
			c4.7-3.8,10.2-6.5,16.1-8c0.9-0.2,1.9-0.5,2.8-0.6c4.6-0.9,9.4-1,14.1-0.4c0.6,0.1,1.2,0.2,1.9,0.3c1.8,0.2,3.5,0.7,5.1,1.3
			c0.7,0.3,1.4,0.6,2.1,0.8c5.4,1.6,10.5,4.5,14.7,8.4c0.6,0.5,1.2,1.1,1.7,1.7C429.1,496.5,431.5,500.1,433,504.3z M422.1,537.4
			c0-0.3,0.1-0.5,0.1-0.8c0-0.3,0-0.6-0.1-0.8c0,0,0,0,0,0c0,0,0,0,0,0c-0.1-0.5-0.4-0.9-0.8-1.3c-0.4-0.4-0.8-0.6-1.3-0.8
			c-0.5-0.1-1-0.1-1.6,0c-0.4,0.1-0.7,0.3-1,0.5c-0.3,0.2-0.6,0.5-0.8,0.8c-0.3,0.5-0.4,1-0.4,1.5c0,0.5,0.1,1,0.4,1.5
			c0.3,0.4,0.6,0.8,1,1.1c0.2,0.1,0.5,0.2,0.7,0.3s0.5,0.1,0.8,0.1c0,0,0,0,0,0c0.3,0,0.5,0,0.8-0.1c0.2-0.1,0.5-0.2,0.7-0.3
			c0.4-0.2,0.8-0.6,1-1L422.1,537.4z"/>
		<path d="M438.8,479.1c-1.5,0.6-2.9,1.2-4.3,1.9c0-0.1,0-0.1,0-0.2c0.1-2.6,0.9-5.1,1.3-7.7c0.4-2.4,0.7-4.9,0.8-7.3
			c0.2-5-0.4-10.1-1.7-14.9c-2.3-8.9-7.3-16.9-14.1-22.9l0.9-1c0.4,0.6,1.2,1,2.1,0.5c0.6-0.3,1.2-0.7,1.8-1c0.7,0.6,1.3,1.3,2,2
			c6.3,6.8,10.6,15.4,12.4,24.4c0.9,4.8,1.3,9.7,1,14.6c-0.2,2.5-0.5,5-1,7.4C439.6,476.4,439.3,477.8,438.8,479.1z"/>
		<path d="M428.8,489.6c1.7,1.7,3.2,3.6,4.6,5.6c6,9.1,7.6,19.9,6,30.6c-1.7,10.6-6.8,20.8-14.2,28.6c-1.1,1.2-2.3,2.3-3.6,3.4
			c-1.7-1-3.1,0.7-2.8,2.2c-6,4.4-12.9,7.2-20.4,8.2c-10.1,1.3-20.6-0.9-29.2-6.2c-0.2-0.2-0.5-0.3-0.7-0.5c0.4-0.5,0.5-1.2,0.2-1.8
			c-0.2-0.5-0.5-0.7-0.9-0.9l1.1-1.6c2.4,1.6,4.9,3,7.7,4.1c8.5,3.3,18.1,3.9,26.9,1.4c18.6-5.3,31.4-24.7,31.8-43.7
			c0.1-5-0.6-9.9-2.3-14.6c-1.5-4.2-3.9-7.8-7-11.1c-0.5-0.6-1.1-1.2-1.7-1.7l2.3-1.4c0.5,0.3,1.1,0.4,1.6,0
			C428.4,489.9,428.6,489.8,428.8,489.6z"/>
		<path d="M428.2,490.1c-0.5,0.4-1.1,0.3-1.6,0c-0.6-0.5-1-1.3-0.5-2c0.1-0.2,0.3-0.4,0.4-0.5c0.8,0.7,1.6,1.4,2.3,2.1
			C428.6,489.8,428.4,489.9,428.2,490.1z"/>
		<path d="M425.6,426.5c-0.6,0.3-1.2,0.7-1.8,1c-0.8,0.5-1.7,0.1-2.1-0.5c-0.4-0.6-0.4-1.3,0.2-1.9c0.3-0.3,0.7-0.6,1-0.9
			C423.8,424.9,424.7,425.7,425.6,426.5z"/>
		<path d="M422.9,424.2c-0.4,0.3-0.7,0.6-1,0.9c-0.6,0.6-0.5,1.4-0.2,1.9l-0.9,1c-5.4-4.8-11.9-8.3-19.1-9.9
			c-7.8-1.8-15.9-1.1-23.3,1.7c-3.6,1.4-7.1,3.4-10.2,5.7c-2.8,2.1-5.1,4.6-7.3,7.2c-1.1-0.6-2.2-1.1-3.3-1.6c2.3-4,5.9-7.3,9.6-10
			c3.9-2.8,8.4-5,13-6.4C395.1,410.3,411.1,414.4,422.9,424.2z"/>
		<path d="M418.8,559.9c-0.3-1.5,1.1-3.2,2.8-2.2C420.7,558.5,419.8,559.2,418.8,559.9z"/>
		<path d="M418.5,539.4c-0.3,0-0.5-0.2-0.7-0.3c-0.4-0.3-0.8-0.6-1-1.1c-0.3-0.5-0.4-1-0.4-1.5c0-0.5,0.1-1,0.4-1.5
			c0.2-0.3,0.4-0.6,0.8-0.8c0.3-0.3,0.6-0.4,1-0.5c0.5-0.1,1-0.1,1.6,0c0.5,0.1,0.9,0.4,1.3,0.8c0.4,0.4,0.6,0.8,0.8,1.3
			c0,0,0,0,0,0c0,0,0,0,0,0c0.1,0.2,0.1,0.4,0.1,0.8c0,0.3-0.1,0.5-0.1,0.8l-0.3,0.7c-0.3,0.4-0.6,0.8-1,1c-0.2,0.1-0.5,0.2-0.7,0.3
			c-0.3,0.1-0.5,0.1-0.8,0.1c0,0,0,0,0,0C419.1,539.5,418.8,539.4,418.5,539.4z"/>
		<path d="M417.1,449.9c-0.2-0.1-0.4-0.3-0.6-0.4c-0.3-0.4-0.6-0.8-0.7-1.2c0-0.2-0.1-0.5-0.1-0.8c0-0.4,0.1-0.8,0.2-1.1
			c0.1-0.3,0.3-0.6,0.6-0.9c0.3-0.3,0.6-0.5,0.9-0.6c0.3-0.2,0.7-0.3,1.1-0.2c0.5,0,1,0.1,1.4,0.4c0.2,0.1,0.4,0.3,0.6,0.4
			c0.4,0.3,0.6,0.8,0.7,1.2c0,0.2,0.1,0.5,0.1,0.8c0,0.4-0.1,0.8-0.2,1.1c-0.1,0.4-0.3,0.7-0.6,0.9c-0.2,0.3-0.6,0.5-0.9,0.6
			c-0.3,0.2-0.7,0.3-1.1,0.2C418,450.3,417.6,450.1,417.1,449.9z"/>
		<path d="M386.5,481.1c-0.9,0.2-1.9,0.4-2.8,0.6l-0.1-0.5c1-0.2,1.5-1.1,1.6-2c0.1-0.5,0.1-1,0.2-1.5c2.4-0.5,4.9-0.8,7.3-0.9
			c5.1-0.2,10.4,0.4,15.3,1.9c1.9,0.6,3.9,1.3,5.8,2.2c4.7,1.2,9,3.4,12.8,6.5c-0.1,0.2-0.3,0.3-0.4,0.5c-0.5,0.7-0.1,1.6,0.5,2
			l-2.3,1.4c-4.2-3.9-9.2-6.9-14.7-8.4c-0.7-0.3-1.4-0.6-2.1-0.8c-1.7-0.7-3.4-1.2-5.1-1.3c-0.6-0.1-1.2-0.2-1.9-0.3
			C395.9,480.1,391.1,480.2,386.5,481.1z"/>
		<path d="M385.2,479.2c-0.1,1-0.7,1.9-1.6,2c-0.1,0-0.3,0-0.4,0c-1.1,0-2.2-1-2.1-2.1c0-0.1,0-0.3,0-0.4c1.4-0.4,2.9-0.8,4.3-1.1
			C385.3,478.2,385.2,478.7,385.2,479.2z"/>
		<path d="M383.1,481.2c0.2,0,0.3,0,0.4,0l0.1,0.5c-5.9,1.5-11.4,4.2-16.1,8l-0.7-0.8c0.3-0.3,0.5-0.7,0.3-1.2
			c-0.1-0.5-0.3-1.1-0.5-1.7c4.3-3.2,9.2-5.7,14.3-7.2c0,0.1,0,0.3,0,0.4C380.9,480.3,382,481.2,383.1,481.2z"/>
		<path d="M351,539.3c-3.6-9.1-4.2-19.2-1.5-28.6c2.5-8.7,7.7-16.7,14.6-22.6c0.3,0.3,0.7,0.5,1,0.8c0.5,0.4,1.3,0.4,1.8,0l0.7,0.8
			c-1.6,1.3-3.2,2.8-4.7,4.3c-6,6.4-10,14.7-11.3,23.4c-1.3,8.9,0.6,18.3,5,26.2c3.1,5.4,7.3,10.1,12.4,13.6l-1.1,1.6
			c-0.3-0.2-0.8-0.2-1.2-0.1c-0.6,0.1-1.1,0.2-1.7,0.3C358.7,553.8,354,547,351,539.3z"/>
		<path d="M367.2,487.6c0.2,0.5,0,1-0.3,1.2c-0.5,0.4-1.2,0.4-1.8,0c-0.4-0.3-0.7-0.5-1-0.8c0.4-0.3,0.7-0.6,1.1-0.9
			c0.5-0.4,1-0.8,1.6-1.2C366.9,486.5,367.1,487.1,367.2,487.6z"/>
		<path d="M366.7,558.6c0.4-0.1,0.8,0,1.2,0.1c0.4,0.2,0.7,0.5,0.9,0.9c0.2,0.6,0.2,1.3-0.2,1.8c-1.2-0.8-2.4-1.6-3.5-2.5
			C365.6,558.8,366.1,558.7,366.7,558.6z"/>
		<path d="M361,432.8c-0.3,0.4-0.7,0.8-1,1.2c-0.7,0.8-1.6,0.7-2.2,0.1c-0.6-0.5-0.9-1.4-0.5-2.2c0.1-0.2,0.2-0.5,0.4-0.7
			C358.8,431.7,359.9,432.2,361,432.8z"/>
		<path d="M370.9,446.2c-3.8-4.5-8.6-8.1-13.9-10.6l0.7-1.5c0.6,0.5,1.6,0.7,2.2-0.1c0.3-0.4,0.7-0.8,1-1.2
			c6.2,3.3,11.6,8,15.7,13.7c6.4,8.9,9.7,20.2,8.6,31.2c-1.5,0.3-2.9,0.6-4.3,1.1C382,467.2,378.5,455.1,370.9,446.2z"/>
		<path fill="#FFFFFF" d="M349.6,478.2c2.9,1,5.8,2.5,8.3,4.3c1.3,0.9,2.4,1.9,3.6,3c0.5,0.5,1.1,1.1,1.6,1.7c0.3,0.4,0.6,0.7,1,0.9
			c-6.9,5.9-12.1,13.9-14.6,22.6c-2.7,9.4-2.1,19.6,1.5,28.6c3,7.6,7.6,14.4,14,19.5c-2.9,0.6-5.8,1.4-8.7,1.9
			c-3.3,0.6-6.6,0.9-10,1c-6.7,0.2-13.4-0.8-19.6-3c-10.2-3.6-19.3-11.1-24-21c-5.5-11.5-4-25.4,1.2-36.7c0.8-1.8,1.8-3.5,2.8-5.1
			c5.4-8.7,13.4-15.5,23.5-18.3C336.6,475.9,343.3,476,349.6,478.2z M314.4,522.9c0.1-0.2,0.1-0.5,0.1-0.8c0-0.5-0.1-1-0.4-1.4
			c-0.2-0.4-0.6-0.7-1-1c-0.4-0.2-0.9-0.4-1.4-0.4s-1,0.1-1.4,0.4c-0.4,0.2-0.8,0.6-1,1c-0.2,0.4-0.4,0.9-0.4,1.4s0.1,1,0.4,1.4
			c0,0,0,0,0,0c0,0,0.4,0.5,0.4,0.6c0,0,0,0,0,0l0,0c0,0,0,0,0,0c0.2,0.1,0.4,0.3,0.6,0.4c0,0,0,0,0,0c0.2,0.1,0.5,0.2,0.7,0.3
			c0.5,0.1,1,0.1,1.4,0c0.4-0.1,0.7-0.2,0.9-0.5c0.3-0.2,0.5-0.5,0.7-0.8C314.3,523.3,314.4,523.1,314.4,522.9z"/>
		<path d="M338.6,444.5c0-0.4,0.1-0.8,0.2-1.1c0.1-0.4,0.3-0.7,0.6-0.9c0.3-0.3,0.6-0.5,1-0.6c0.4-0.2,0.7-0.3,1.1-0.3
			c0.5,0,1,0.1,1.5,0.4l0.6,0.5c0.4,0.4,0.6,0.8,0.8,1.3c0,0.3,0.1,0.5,0.1,0.8c0,0.4-0.1,0.8-0.2,1.1c-0.1,0.4-0.3,0.7-0.6,1
			c-0.3,0.3-0.6,0.5-0.9,0.6c-0.4,0.2-0.7,0.3-1.1,0.2c-0.5,0-1-0.1-1.5-0.4c-0.2-0.1-0.4-0.3-0.6-0.5c-0.4-0.4-0.6-0.8-0.8-1.3
			C338.7,445.1,338.7,444.8,338.6,444.5z"/>
		<path d="M310.4,524.5C310.4,524.5,310.4,524.5,310.4,524.5c-0.2-0.2-0.4-0.3-0.6-0.4c0,0,0,0,0,0l0,0c0,0,0,0,0,0
			c0,0-0.4-0.5-0.4-0.6c0,0,0,0,0,0c-0.2-0.4-0.4-0.9-0.4-1.4s0.1-1,0.4-1.4c0.2-0.4,0.6-0.7,1-1c0.4-0.2,0.9-0.4,1.4-0.4
			s1,0.1,1.4,0.4c0.4,0.2,0.7,0.6,1,1c0.2,0.4,0.4,0.9,0.4,1.4c0,0.3,0,0.5-0.1,0.8c-0.1,0.2-0.2,0.5-0.3,0.7
			c-0.2,0.3-0.4,0.6-0.7,0.8c-0.3,0.2-0.6,0.4-0.9,0.5c-0.5,0.1-1,0.1-1.4,0C310.9,524.7,310.6,524.7,310.4,524.5z"/>
		<path d="M357.9,482.6c-2.5-1.8-5.4-3.3-8.3-4.3c-6.3-2.2-13-2.3-19.4-0.5c-10.1,2.8-18.1,9.6-23.5,18.3l-1.1-0.7
			c0-0.1,0-0.2-0.1-0.4c-0.4-1-0.8-2-1.2-3c7-10.4,17.8-18,30.4-19.6c6.5-0.9,13.1,0.1,19.1,2.7c2.9,1.2,5.5,3,7.9,5.1
			c1.2,1.1,2.3,2.2,3.3,3.4c0.5,0.6,1.1,1.2,1.5,1.9c0.1,0.2,0.2,0.3,0.2,0.5c-0.5,0.4-1.1,0.8-1.6,1.2c-0.4,0.3-0.7,0.6-1.1,0.9
			c-0.4-0.3-0.7-0.6-1-0.9c-0.5-0.6-1-1.1-1.6-1.7C360.4,484.4,359.2,483.5,357.9,482.6z"/>
		<path d="M303.7,496c-0.4-0.3-0.8-0.7-1.2-1.1c0.1-0.2,0.2-0.4,0.3-0.6c0.5-0.8,1-1.6,1.5-2.4c0.4,1,0.9,2,1.2,3
			c0,0.1,0.1,0.3,0.1,0.4C305.6,496.2,304.4,496.6,303.7,496z"/>
		<path fill="#FFFFFF" d="M344.5,444.5c0-0.3-0.1-0.5-0.1-0.8c-0.1-0.5-0.4-0.9-0.8-1.3l-0.6-0.5c-0.5-0.3-1-0.4-1.5-0.4
			c-0.4,0-0.8,0.1-1.1,0.3c-0.4,0.1-0.7,0.3-1,0.6c-0.3,0.3-0.5,0.6-0.6,0.9c-0.2,0.4-0.3,0.7-0.2,1.1c0,0.3,0.1,0.5,0.1,0.8
			c0.1,0.5,0.4,0.9,0.8,1.3c0.2,0.1,0.4,0.3,0.6,0.5c0.5,0.3,1,0.4,1.5,0.4c0.4,0,0.8-0.1,1.1-0.2c0.4-0.1,0.7-0.3,0.9-0.6
			c0.3-0.3,0.5-0.6,0.6-1C344.5,445.3,344.6,444.9,344.5,444.5z M361.7,480.1c-2.3-2.1-5-3.8-7.9-5.1c-6-2.6-12.6-3.6-19.1-2.7
			c-12.6,1.6-23.4,9.2-30.4,19.6c-0.7-1.5-1.4-3-2.1-4.6c-1-2.4-1.8-4.9-2.4-7.4c-1.1-5.2-1.3-10.6-0.3-15.8
			c1.8-9.8,7.6-18.7,15.6-24.6c8.3-6.1,18.3-8.8,28.5-7.7c4.6,0.5,9.1,1.8,13.3,3.8c5.3,2.5,10.1,6.1,13.9,10.6
			c7.6,8.9,11,20.9,10.1,32.5c-5.1,1.5-10,4-14.3,7.2c-0.1-0.2-0.1-0.3-0.2-0.5c-0.4-0.7-1-1.3-1.5-1.9
			C364,482.3,362.9,481.2,361.7,480.1z"/>
		<path d="M297.2,534.5c-4-13-1.4-27.9,5.3-39.5c0.4,0.4,0.8,0.8,1.2,1.1c0.7,0.6,2,0.2,2-0.7l1.1,0.7c-1,1.6-2,3.4-2.8,5.1
			c-5.3,11.3-6.7,25.2-1.2,36.7c4.7,9.9,13.8,17.3,24,21c6.3,2.2,13,3.2,19.6,3c3.3-0.1,6.7-0.4,10-1c2.9-0.5,5.8-1.3,8.7-1.9
			c1.1,0.9,2.3,1.7,3.5,2.5c-0.1,0.2-0.3,0.3-0.5,0.4c-3.7,1.8-7.9,2.7-12,3.3c-4.1,0.6-8.3,1-12.5,0.9c-7.8-0.2-15.5-1.8-22.6-5.2
			C310,555.6,300.9,546.2,297.2,534.5z"/>
		<path d="M348.2,428.2c3.3,0.6,6.4,1.6,9.5,3c-0.1,0.2-0.3,0.5-0.4,0.7c-0.4,0.8-0.1,1.7,0.5,2.2l-0.7,1.5c-4.2-2-8.7-3.3-13.3-3.8
			c-10.2-1.1-20.2,1.6-28.5,7.7c-8,5.9-13.8,14.8-15.6,24.6c-1,5.2-0.8,10.7,0.3,15.8c0.6,2.5,1.3,5,2.4,7.4c0.7,1.5,1.4,3,2.1,4.6
			c-0.5,0.8-1,1.6-1.5,2.4c-0.1,0.2-0.2,0.4-0.3,0.6c-1.9-2-3.3-4.6-4.4-7.1c-1.2-2.9-2.1-6-2.6-9.1c-1.1-6.5-0.8-13.2,1-19.6
			c2.9-10.5,10.1-19.5,19.3-25.2C325.5,428,337.1,426,348.2,428.2z"/>
	</g>
	<g>
	</g>
</g>
</svg>
