<?xml version="1.0" encoding="utf-8"?>
<!-- Generator: Adobe Illustrator 27.5.0, SVG Export Plug-In . SVG Version: 6.00 Build 0)  -->
<!DOCTYPE svg PUBLIC "-//W3C//DTD SVG 1.1//EN" "http://www.w3.org/Graphics/SVG/1.1/DTD/svg11.dtd" [
	<!ENTITY ns_extend "http://ns.adobe.com/Extensibility/1.0/">
	<!ENTITY ns_ai "http://ns.adobe.com/AdobeIllustrator/10.0/">
	<!ENTITY ns_graphs "http://ns.adobe.com/Graphs/1.0/">
	<!ENTITY ns_vars "http://ns.adobe.com/Variables/1.0/">
	<!ENTITY ns_imrep "http://ns.adobe.com/ImageReplacement/1.0/">
	<!ENTITY ns_sfw "http://ns.adobe.com/SaveForWeb/1.0/">
	<!ENTITY ns_custom "http://ns.adobe.com/GenericCustomNamespace/1.0/">
	<!ENTITY ns_adobe_xpath "http://ns.adobe.com/XPath/1.0/">
]>
<svg version="1.1" id="Calque_1" xmlns:x="&ns_extend;" xmlns:i="&ns_ai;" xmlns:graph="&ns_graphs;"
	 xmlns="http://www.w3.org/2000/svg" xmlns:xlink="http://www.w3.org/1999/xlink" x="0px" y="0px" viewBox="0 0 800 1000"
	 enable-background="new 0 0 800 1000" xml:space="preserve">
<metadata>
	<sfw  xmlns="&ns_sfw;">
		<slices></slices>
		<sliceSourceBounds  bottomLeftOrigin="true" height="180.7" width="207.2" x="287.7" y="-607.3"></sliceSourceBounds>
	</sfw>
</metadata>
<g id="Larme_bas_00000095297039852674558610000008002877485458461860_">
	<g id="XMLID_00000098919976753735722470000000490209965921053328_">
		<g>
			<path fill="#FFFFFF" d="M486.9,479.5c4.1,12.6,4.9,26.1,1.4,38.9c-2.5,9-7.1,17.3-13.2,24.3c-5.7-2.1-11.6,1.9-16,5
				c-5,3.6-10.3,6.5-16.2,8.3c-5.8,1.9-11.8,2.8-17.9,2.8c-6,0-12-1-17.7-3c-6.4-2.2-12.1-5.6-17.9-8.9c-0.4-0.2-0.8-0.4-1.1-0.7
				c-1.9-1.8-4-3.5-6.6-4.1c-2.1-0.4-4.2-0.1-5.9,0.9c-4-4.5-7.4-9.6-9.9-15c-5.6-11.9-7.1-25.6-4.7-38.5
				c2.4-12.9,8.4-25.2,17.5-34.7c9.5-9.9,22-16.1,35.5-18.4c13.6-2.3,27.3-0.2,39.9,5.3c3,1.3,6.2,2.6,8.9,4.4
				c0.4,0.3,0.8,0.3,1.1,0.3c0.1,0.4,0.3,0.7,0.7,1C475,455.5,482.8,467,486.9,479.5z M416.5,502.8c0-0.5-0.1-1-0.3-1.4
				c-0.3-0.5-0.5-0.8-1-1c-0.3-0.2-0.7-0.3-1-0.4c-0.4-0.1-0.8-0.1-1.1,0c-0.2,0.1-0.4,0.2-0.7,0.3c-0.4,0.2-0.8,0.6-1,1
				c-0.1,0.1-0.1,0.1-0.1,0.2c-0.1,0.2-0.2,0.4-0.3,0.7c-0.1,0.4-0.2,0.7-0.1,1.1c0,0.2,0,0.5,0.2,0.7c0.1,0.4,0.3,0.7,0.6,0.9
				c0.2,0.2,0.4,0.3,0.5,0.5c0.2,0.1,0.4,0.2,0.6,0.3c0.4,0.1,0.7,0.2,1.1,0.1c0.4,0,0.7-0.1,1-0.3c0.1,0,0.1-0.1,0.2-0.1
				c0.3-0.2,0.6-0.4,0.8-0.7c0.3-0.3,0.4-0.6,0.5-1C416.5,503.3,416.5,503.1,416.5,502.8z"/>
			<path d="M478.5,545.5c0.8,1.2,1.2,2.8,1.1,4.4c-0.2,3.2-2,5.8-4.1,8.1c-4.3,4.7-9.7,8.2-15.5,10.6c-4.9,2-12.7,2.5-15,8
				c-1.2,2.9,0.6,5.7,1.2,8.5c0.7,2.8,0.5,5.8-1.1,8.3c-1.5,2.4-3.9,4.1-6.7,4.4c-2.7,0.3-5.6-1.1-7.3-3.2c-1.8-2.2-2.2-4.9-1.4-7.6
				c0.8-2.3,2.9-4.8,2.6-7.4c-0.2-2.1-2.6-3.5-4.6-3.3c-2.4,0.2-4.3,2.3-5.1,4.3c-1.2,2.8-1,6.2-0.2,9.1c0.9,3.2,2.7,6.4,2.3,9.9
				c-0.7,5.8-7.1,9.4-12.4,6.9c-2.4-1.2-4.4-3.6-4.9-6.2c-0.6-3.2,0.9-5.9,2.3-8.6c2.3-4.5,1.3-10.4-2.9-13.4
				c-2.5-1.8-5.5-2.4-8.4-3.2c-3.1-0.8-6.1-1.8-9.1-3.3c-5.4-2.7-10.4-6.5-14.1-11.3c-0.2-0.2-0.4-0.5-0.6-0.8
				c0.3-0.1,0.7-0.3,1-0.5c0.8-0.4,1.5-0.8,2.3-1.2c3.2,4.1,7.7,7.3,12.2,9.6c2.6,1.3,5.3,2.3,8.2,3.1c2.9,0.8,5.8,1.4,8.5,2.7
				c4.9,2.4,8,7.2,8.3,12.7c0.1,2.7-0.6,5.3-1.8,7.7c-1.1,2.2-2.7,4.6-1.5,7.1c1,2.1,3.2,3.3,5.5,2.6c2.1-0.7,3.8-2.8,3.8-5
				c0-3.1-1.8-6.2-2.5-9.2c-0.3-1.1-0.5-2.2-0.6-3.3c-0.2-1.9-0.1-3.9,0.5-5.7c1.4-4,4.8-7.4,8.9-7.6c1,0,2.1,0.1,3.2,0.5
				c2.4,0.8,4.4,2.6,5.2,5c0.8,2.6-0.3,5.1-1.4,7.4c-1,2-2.4,4.3-0.9,6.4c1.2,1.8,3.7,2.7,5.7,1.8c2-0.8,3.5-3.1,3.5-5.3
				c0-3-1.8-5.7-2.1-8.7c-0.5-5.5,3.7-9.4,8.4-11.4c0.5-0.2,0.9-0.4,1.4-0.5c2.8-1,5.7-1.7,8.4-2.9c2.7-1.1,5.2-2.6,7.6-4.3
				c2.4-1.7,4.6-3.7,6.6-5.9c1.3-1.5,2.9-3.8,2.5-5.9C476.5,547.7,477.5,546.6,478.5,545.5z"/>
			<path d="M478.5,545.5c-1,1.1-1.9,2.2-3,3.2c-0.1-0.3-0.2-0.7-0.4-1c-0.7-1.2-2-1.6-3.3-1.6c1.1-1.1,2.2-2.2,3.2-3.4
				c0,0,0.1,0,0.1,0C476.5,543.3,477.7,544.3,478.5,545.5z"/>
			<path d="M458.9,547.7c4.4-3.1,10.4-7.1,16-5c-1,1.2-2.1,2.3-3.2,3.4c-1,0-2,0.2-2.9,0.4c-2.7,0.8-5.1,2.4-7.4,4
				c-4.8,3.4-9.6,6.3-15,8.4c-8.4,3.2-17.4,4.5-26.4,3.8c-2.7-0.2-5.4-0.6-8-1.2c-6-1.4-11.8-3.8-17.2-6.7
				c-4.8-2.5-9.5-5.2-13.7-8.6c-0.4-0.1-0.7-0.2-1.1-0.2c-0.6-0.1-1.2,0-1.7,0.1c-1-1-2-2.1-2.9-3.1c1.8-1,3.9-1.3,5.9-0.9
				c2.6,0.5,4.7,2.2,6.6,4.1c0.4,0.2,0.8,0.5,1.1,0.7c5.8,3.4,11.5,6.7,17.9,8.9c5.7,2,11.7,3,17.7,3c6.1,0,12.1-0.9,17.9-2.8
				C448.6,554.2,453.9,551.3,458.9,547.7z"/>
			<path fill="#D5EEFF" d="M463,553.7c-1.2,0.8-2.3,1.6-3.5,2.4C460.4,555.3,461.6,554.5,463,553.7z"/>
			<path fill="#FFFFFF" d="M459.5,556c-1.2,0.9-2.1,1.7-2.5,2c-5.2,4.3-12.6,6.2-19.3,6.9C445.4,563.3,452.8,560.2,459.5,556z"/>
			<path fill="#D5EEFF" d="M448.4,566.3c4.4-1.6,8.7-3.7,12.7-6.2c5.2-3.2,10.1-7.1,14.4-11.5c0.5,2.1-1.2,4.4-2.5,5.9
				c-2,2.2-4.2,4.2-6.6,5.9c-2.4,1.7-4.9,3.1-7.6,4.3c-2.7,1.2-5.6,1.8-8.4,2.9c-0.5,0.2-0.9,0.4-1.4,0.5L448.4,566.3z"/>
			<path fill="#FFFFFF" d="M441,587c0.5,1.2,0.5,2.8,0,3c-0.5,0.2-1.5-0.9-2-2c-0.5-1.2-0.5-2.8,0-3
				C439.5,584.8,440.5,585.9,441,587z"/>
			<path fill="#D5EEFF" d="M441,590c0.5-0.2,0.5-1.8,0-3c-0.5-1.1-1.5-2.2-2-2c-0.5,0.2-0.5,1.8,0,3
				C439.5,589.1,440.5,590.2,441,590z M442.8,588.4c0,2.2-1.5,4.4-3.5,5.3c-2,0.8-4.5,0-5.7-1.8c-1.4-2.1-0.1-4.5,0.9-6.4
				c1.1-2.3,2.2-4.8,1.4-7.4c-0.7-2.5-2.8-4.2-5.2-5c-1.1-0.4-2.2-0.5-3.2-0.5l-0.1-1.8c7.1-0.3,14.2-1.8,20.9-4.3l0.7,1.9
				c-4.6,2.1-8.9,5.9-8.4,11.4C441,582.6,442.8,585.4,442.8,588.4z"/>
			<path fill="#FFFFFF" d="M437.7,564.9c6.6-0.7,14.1-2.6,19.3-6.9c0.4-0.3,1.2-1,2.5-2c1.2-0.8,2.4-1.5,3.5-2.4c0,0,0,0,0.1,0
				c1.4-0.9,3.1-1.8,5-2.6c1-0.5,2.8-1.3,3-1c0.4,0.6-7.1,6.9-15,11c-17.4,9-37,7.7-38,5c0-0.1-0.1-0.2-0.1-0.3
				c4.3,0.5,8.6,0.6,12.9,0.2C433.1,565.7,435.5,565.4,437.7,564.9z"/>
			<path fill="#D5EEFF" d="M475.5,548.7c-4.3,4.4-9.2,8.3-14.4,11.5c-4,2.5-8.3,4.5-12.7,6.2c-6.7,2.5-13.7,4-20.9,4.3
				c-2.2,0.1-4.4,0.1-6.6-0.1c-14.1-0.9-27.8-6.4-38.9-15.1c-0.1,0.1-0.3,0.3-0.5,0.4c-1.1,0.8-2.3,1.5-3.4,2.1
				c-0.4-0.5-0.7-0.9-1-1.4c-0.6-0.8-1-1.7-1.4-2.6c0.9-0.5,1.8-1,2.7-1.5c-1-0.9-2-1.9-3-2.9c0-0.1,0-0.1,0.1-0.2
				c0.5-1.6,1.6-2.9,3.1-3.3c4.1,4.2,8.8,7.8,13.9,10.8c7.8,4.6,16.5,7.7,25.5,8.8c0,0.1,0,0.2,0.1,0.3c1,2.7,20.6,4,38-5
				c7.9-4.1,15.4-10.4,15-11c-0.2-0.3-2,0.5-3,1c-1.9,0.8-3.5,1.7-5,2.6c1.2-0.9,2.4-1.8,3.5-2.7c1.8-1.5,3.6-3.1,5.2-4.8
				c1.3,0,2.6,0.4,3.3,1.6C475.3,548,475.4,548.4,475.5,548.7z"/>
			<path fill="#D5EEFF" d="M468.9,546.5c0.8-0.2,1.9-0.4,2.9-0.4c-1.7,1.7-3.4,3.3-5.2,4.8c-1.1,0.9-2.3,1.8-3.5,2.7c0,0,0,0-0.1,0
				c-1.4,0.9-2.6,1.7-3.5,2.4c-6.6,4.2-14,7.2-21.7,8.9c-7.3,0.8-13.6,0.2-14.7,0.1c-0.5-0.1-1.8-0.4-3-0.5l0.2-1.7
				c8.9,0.8,18-0.5,26.4-3.8c5.4-2.1,10.3-5,15-8.4C463.8,549,466.2,547.3,468.9,546.5z"/>
			<path fill="#FFFFFF" d="M417,598c-0.2-1.4,0.5-3,1-3c0.5,0,0.9,1.2,1,2c0.2,1.4-0.5,3-1,3C417.5,600,417.1,598.8,417,598z"/>
			<path fill="#D5EEFF" d="M418,595c-0.5,0-1.2,1.6-1,3c0.1,0.8,0.5,2,1,2c0.5,0,1.2-1.6,1-3C418.9,596.2,418.5,595,418,595z
				 M413.4,593.7c1.2-2.4,2-5,1.8-7.7l2.9-0.2c0.1,1.1,0.3,2.2,0.6,3.3c0.7,3,2.5,6.1,2.5,9.2c0,2.3-1.6,4.4-3.8,5
				c-2.3,0.7-4.5-0.5-5.5-2.6C410.7,598.3,412.3,595.9,413.4,593.7z"/>
			<path fill="#D5EEFF" d="M418.7,580c-0.6,1.8-0.7,3.8-0.5,5.7l-2.9,0.2c-0.3-5.4-3.4-10.3-8.3-12.7c-2.7-1.3-5.6-1.9-8.5-2.7
				c-2.8-0.8-5.6-1.8-8.2-3.1c-4.5-2.3-9-5.5-12.2-9.6c1.2-0.7,2.3-1.4,3.4-2.1c0.2-0.1,0.3-0.3,0.5-0.4
				c11.1,8.7,24.8,14.2,38.9,15.1c2.2,0.1,4.4,0.2,6.6,0.1l0.1,1.8C423.5,572.6,420,576,418.7,580z"/>
			<path fill="#FFFFFF" d="M430.8,565.9c-4.3,0.4-8.6,0.3-12.9-0.2c-0.1-0.4,0.1-0.7,0.1-0.7c0.3-0.5,1.1-0.6,2-0.5
				c1.2,0.1,2.5,0.5,3,0.5c1.2,0.2,7.5,0.7,14.7-0.1C435.5,565.4,433.1,565.7,430.8,565.9z"/>
			<path d="M412.1,505.3c-0.2-0.1-0.4-0.3-0.5-0.5c-0.3-0.3-0.5-0.6-0.6-0.9c-0.1-0.2-0.2-0.5-0.2-0.7c-0.1-0.4,0-0.8,0.1-1.1
				c0.1-0.2,0.2-0.4,0.3-0.7c0-0.1,0.1-0.1,0.1-0.2c0.3-0.4,0.6-0.7,1-1c0.2-0.1,0.5-0.2,0.7-0.3c0.4-0.1,0.8-0.1,1.1,0
				c0.4,0,0.7,0.1,1,0.4c0.5,0.3,0.7,0.6,1,1c0.2,0.4,0.4,0.9,0.3,1.4c0,0.2-0.1,0.5-0.1,0.8c-0.1,0.4-0.3,0.7-0.5,1
				c-0.2,0.3-0.5,0.5-0.8,0.7c-0.1,0-0.1,0.1-0.2,0.1c-0.3,0.2-0.7,0.3-1,0.3c-0.4,0.1-0.7,0-1.1-0.1
				C412.5,505.5,412.3,505.4,412.1,505.3z"/>
			<path fill="#D5EEFF" d="M392.4,556.9c-5.1-3-9.7-6.6-13.9-10.8c0.5-0.1,1.1-0.2,1.7-0.1c0.4,0.1,0.7,0.1,1.1,0.2
				c4.2,3.4,8.9,6.1,13.7,8.6c5.5,2.9,11.2,5.3,17.2,6.7c2.6,0.6,5.3,1,8,1.2l-0.2,1.7c-0.9-0.1-1.7,0-2,0.5c0,0-0.1,0.3-0.1,0.7
				C408.9,564.6,400.2,561.5,392.4,556.9z"/>
			<path d="M375.6,543c0.9,1.1,1.9,2.1,2.9,3.1c-1.5,0.4-2.6,1.6-3.1,3.3c0,0.1,0,0.1-0.1,0.2c-1-1-2-2-2.9-3.1
				c0.3-0.7,0.8-1.3,1.3-2C374.3,543.9,374.9,543.4,375.6,543z"/>
			<path d="M377.1,556.6c0.3,0.5,0.7,0.9,1,1.4c-0.8,0.4-1.5,0.8-2.3,1.2c-0.3,0.2-0.7,0.3-1,0.5c-0.9-1.3-1.7-2.7-2.3-4.2
				c1.1-0.5,2.1-1,3.2-1.5C376,554.9,376.5,555.8,377.1,556.6z"/>
			<path fill="#D5EEFF" d="M378.4,552.5c-0.9,0.5-1.8,1-2.7,1.5c-0.5-1.4-0.7-2.9-0.3-4.4C376.3,550.6,377.3,551.5,378.4,552.5z"/>
			<path d="M375.3,549.6c-0.4,1.5-0.2,3,0.3,4.4c-1,0.6-2.1,1.1-3.2,1.5c-1.2-2.9-1.5-6.1-0.1-9
				C373.4,547.6,374.3,548.6,375.3,549.6z"/>
			<path d="M333.1,496.9c0.2,0.3,0.2,0.6,0.2,1c0,0.3,0,0.5,0,0.8c0,0.5-0.2,0.9-0.4,1.3c-0.1,0.2-0.3,0.4-0.4,0.5
				c-0.3,0.3-0.7,0.5-1.2,0.6c-0.2,0-0.5,0.1-0.7,0.1c-0.4,0-0.7-0.1-1-0.3c-0.3-0.1-0.6-0.3-0.8-0.6c-0.2-0.2-0.4-0.5-0.5-0.9
				c-0.2-0.3-0.2-0.7-0.2-1c0-0.3,0-0.5,0-0.8c0-0.5,0.2-0.9,0.4-1.3c0.1-0.2,0.3-0.4,0.4-0.5c0.3-0.3,0.7-0.5,1.2-0.6l0.7-0.1
				c0.4,0,0.7,0.1,1,0.3c0.3,0.1,0.6,0.3,0.8,0.6C332.8,496.3,333,496.5,333.1,496.9z"/>
			<path fill="#FFFFFF" d="M333.4,435.9c7.9-3.3,16.4-4.8,24.9-4.1c4.2,0.3,8.3,1.2,12.3,2.6c4,1.4,7.6,3.4,11.3,5.5
				c1.3,0.7,2.5,1.5,3.6,2.4c-1,0.7-2.1,1.4-3.1,2.2c-11.3,8.5-19.5,20.8-23.9,34.2c-4.4,13.4-5,28.2-1,41.8
				c2.9,9.8,8.1,18.6,14.8,26.1c-1.4,2.9-1.1,6.1,0.1,9c-13.1,5.9-28.4,6.3-41.9,1.5c-15.7-5.6-27.7-18.4-34-33.6
				c-6.7-16.2-5.8-34.6,0.9-50.7C304.1,456.5,317.1,442.8,333.4,435.9z M333.3,497.9c0-0.4,0-0.7-0.2-1c-0.1-0.3-0.3-0.6-0.5-0.9
				c-0.2-0.3-0.5-0.5-0.8-0.6c-0.3-0.2-0.6-0.3-1-0.3l-0.7,0.1c-0.4,0.1-0.8,0.3-1.2,0.6c-0.1,0.2-0.3,0.4-0.4,0.5
				c-0.2,0.4-0.4,0.8-0.4,1.3c0,0.3,0,0.5,0,0.8c0,0.4,0,0.7,0.2,1c0.1,0.3,0.3,0.6,0.5,0.9c0.2,0.3,0.5,0.5,0.8,0.6
				c0.3,0.2,0.6,0.3,1,0.3c0.2,0,0.5,0,0.7-0.1c0.4-0.1,0.8-0.3,1.2-0.6c0.1-0.2,0.3-0.3,0.4-0.5c0.2-0.4,0.4-0.8,0.4-1.3
				C333.3,498.4,333.3,498.1,333.3,497.9z"/>
			<path d="M475,542.7c6.1-7.1,10.7-15.3,13.2-24.3c3.6-12.8,2.7-26.3-1.4-38.9c-4.1-12.5-11.9-24-22.4-32c-0.4-0.3-0.6-0.6-0.7-1
				c-0.3,0-0.7-0.1-1.1-0.3c-2.7-1.8-5.9-3.2-8.9-4.4c-12.6-5.5-26.3-7.5-39.9-5.3c-13.5,2.2-26,8.5-35.5,18.4
				c-9.1,9.5-15.1,21.8-17.5,34.7c-2.4,12.9-0.9,26.6,4.7,38.5c2.6,5.5,6,10.5,9.9,15c-0.7,0.4-1.3,0.9-1.9,1.6
				c-0.5,0.6-1,1.3-1.3,2c-6.8-7.5-12-16.4-14.8-26.1c-4-13.6-3.4-28.4,1-41.8c4.4-13.4,12.6-25.7,23.9-34.2c1-0.8,2.1-1.5,3.1-2.2
				c-1.2-0.9-2.4-1.6-3.6-2.4c-3.7-2.1-7.3-4.1-11.3-5.5c-4-1.4-8.1-2.3-12.3-2.6c-8.5-0.7-17.1,0.8-24.9,4.1
				c-16.2,6.9-29.2,20.6-36,36.8c-6.7,16.1-7.6,34.5-0.9,50.7c6.3,15.2,18.3,28,34,33.6c13.6,4.8,28.9,4.4,41.9-1.5
				c0.6,1.5,1.4,2.9,2.3,4.2c-16.3,7.8-36.2,7-52.2-1.2c-15.5-8-27.1-23-32.1-39.6c-5.5-18.1-2.6-37.9,6.2-54.4
				c8.8-16.5,23.7-30.1,41.8-35.6c9-2.7,18.4-3.1,27.6-1c4.5,1,8.8,2.6,12.8,4.8c3.7,2,6.8,4.7,9.5,7.8c10.6-6.3,22.8-9.6,35.1-9.9
				c7.3-0.2,14.6,0.8,21.6,2.7c3.6,1,7.1,2.3,10.5,4c1.6,0.8,3.2,1.7,4.7,2.7c1.5,1,2.9,2.2,4.4,3.2c0.4,0.2,0.6,0.6,0.7,0.9
				c0.4,0,0.8,0.1,1.1,0.4c2.8,2,5.4,4.3,7.9,6.7c9.9,9.9,16.7,23,19.4,36.8c2.7,14,1.3,28.6-4.7,41.5c-2.7,5.9-6.3,11.3-10.5,16.2
				c-0.8-1.2-2-2.2-3.4-2.8C475,542.7,475,542.7,475,542.7z"/>
		</g>
		<g>
		</g>
	</g>
</g>
</svg>
