<svg width="100" height="100" viewBox="0 0 100 100" fill="none" xmlns="http://www.w3.org/2000/svg">
<path d="M84.9704 37.3926C86.4723 42.0083 86.7653 46.9537 85.4832 51.6427C84.1644 56.3316 81.3071 60.4711 77.534 63.5482C73.8341 66.5887 69.2184 68.6035 64.4562 69.0431C59.5474 69.4827 54.602 68.2372 50.3893 65.7462C48.0082 64.3541 45.8835 62.5591 44.0885 60.4711C42.6965 58.8593 41.5243 57.0643 40.5718 55.1227C39.8758 53.6574 39.3629 52.1555 39.0332 50.5803C38.3372 47.4666 38.264 44.1696 38.8501 41.0192C39.1798 39.1876 39.7293 37.3926 40.4619 35.6709C41.5975 32.9601 43.2093 30.4325 45.2608 28.3078C48.7408 24.6812 53.3199 22.4099 58.2653 21.5674C63.2473 20.7248 68.266 21.4941 72.8816 23.5089C73.9806 23.9851 75.1529 24.4614 76.1419 25.1207C76.2885 25.2306 76.435 25.2306 76.5449 25.2306C76.5815 25.3772 76.6548 25.4871 76.8013 25.597C80.6111 28.6008 83.4684 32.8136 84.9704 37.3926ZM81.3438 48.6754C82.3328 44.5726 82.0398 40.1401 80.4279 36.257C78.8161 32.374 75.9588 29.1869 72.1856 27.2454C68.559 25.3772 64.3829 24.6812 60.3533 25.4138C60.2068 25.4504 60.0969 25.4871 59.9504 25.5237C58.3386 25.7435 56.7267 26.1465 55.1882 26.8058C51.122 28.4543 47.825 31.5314 45.737 35.3778C43.6856 39.1876 42.9163 43.6201 43.7222 47.8695C44.5281 52.1189 46.7993 56.1485 50.0963 58.9692C53.5031 61.8631 57.899 63.4749 62.3681 63.5116C66.8373 63.5848 71.0867 62.0463 74.5667 59.2622C77.8637 56.588 80.318 52.8149 81.3438 48.6754Z" fill="white"/>
<path d="M80.1712 43.9864C80.6474 45.3051 80.5009 46.917 79.988 48.1991C79.8049 48.7119 79.5484 49.1882 79.2188 49.6278C79.5484 48.6387 79.8049 47.613 79.9514 46.5506C79.988 46.2209 80.0247 45.8912 80.0613 45.5615C80.0979 45.0121 80.1346 44.4626 80.1346 43.9131C80.1712 43.9497 80.1712 43.9497 80.1712 43.9864Z" fill="black"/>
<path d="M80.1348 43.9132C80.1348 44.4627 80.0982 45.0122 80.0615 45.5617C80.0249 45.8914 79.9883 46.2211 79.9516 46.5507L78.8527 46.4042C78.9626 45.7082 78.9259 44.9389 78.6329 44.2795C78.4497 43.9132 78.1933 43.5835 77.9002 43.3271C77.7903 43.2172 77.6804 43.1439 77.6071 43.0707C77.6071 43.0707 77.6071 43.0707 77.6071 43.034C77.2775 42.7776 76.8745 42.5944 76.5082 42.4479C75.629 42.1182 74.6766 42.1182 73.834 42.4845C72.4786 43.034 71.5628 44.3528 71.4163 45.7815L70.6104 45.7082C70.6836 44.9756 70.6836 44.2063 70.647 43.4736C71.343 42.1549 72.5519 41.1291 74.0904 40.7628C75.2627 40.4698 76.5814 40.6163 77.6071 41.2757C77.9002 41.4588 78.2299 41.7153 78.4863 41.9717C78.6695 42.045 78.8527 42.1548 79.0358 42.2647C79.512 42.7043 79.915 43.2538 80.1348 43.9132Z" fill="black"/>
<path d="M78.6694 44.3162C78.9624 44.9756 78.9624 45.7082 78.8892 46.4409C78.8525 46.6973 78.7793 46.9537 78.7426 47.1735C78.2664 48.9319 76.9843 50.3606 75.0428 50.2873C73.2111 50.214 71.7458 48.7487 71.4528 46.9537C71.3795 46.5874 71.3795 46.1844 71.4162 45.8181C71.5627 44.3895 72.4785 43.1073 73.8339 42.5212C74.6764 42.1549 75.6655 42.1915 76.5081 42.4846C76.911 42.6311 77.2773 42.8143 77.607 43.0707C77.607 43.0707 77.607 43.0707 77.607 43.1073C77.7169 43.2172 77.7902 43.2905 77.9001 43.3637C78.2298 43.5835 78.4862 43.9132 78.6694 44.3162Z" fill="white"/>
<path d="M79.2189 49.6278C78.4496 51.9723 77.1675 54.097 75.4824 55.9286C72.8082 58.8592 69.2549 60.874 65.3352 61.5334C61.3423 62.2294 57.0563 61.4235 53.5395 59.372C50.0595 57.3573 47.3853 54.097 45.9933 50.3605C44.5646 46.5507 44.4913 42.4478 45.8101 38.6014C47.1289 34.7917 49.6931 31.5314 53.1366 29.4067C54.8949 28.3077 56.8365 27.5751 58.8513 27.1355C60.866 26.7325 62.9541 26.6959 65.0055 26.8424C66.0312 26.9157 67.0203 27.1355 68.0094 27.3919C68.1193 27.4285 68.1925 27.4285 68.3024 27.3919C68.5222 27.4652 68.742 27.5384 68.9984 27.6117C70.4271 28.1245 71.7825 28.8206 73.028 29.6631C72.0756 29.5532 71.0865 29.8096 70.2806 30.3591C68.1925 31.7512 67.5698 34.3887 68.3024 36.6965C67.8262 36.0738 67.3134 35.5243 66.7272 35.0115C65.8114 34.2422 64.7124 33.5462 63.5402 33.2165C62.9541 33.0333 62.368 32.8868 61.7452 32.8135C61.6353 32.7769 61.5254 32.7402 61.4155 32.7036C60.7561 32.5204 60.0601 32.4472 59.3641 32.4472C58.0453 32.4105 56.6899 32.7036 55.4444 33.1798C53.0633 34.0956 51.0485 35.7807 49.6199 37.9054C46.616 42.3013 46.1764 48.6387 49.8397 52.7782C51.6347 54.8296 54.2356 55.7821 56.9097 56.0385C59.474 56.2583 62.1115 55.9286 64.456 54.9029C66.9104 53.8405 68.6688 51.899 69.6945 49.4447C69.9143 48.8585 70.0974 48.2724 70.2806 47.6863C70.8301 49.5179 72.2587 51.1297 74.2003 51.5693C76.215 52.1555 78.0833 51.203 79.2189 49.6278Z" fill="black"/>
<path d="M72.1855 27.2087C75.922 29.1502 78.816 32.3372 80.4278 36.2203C82.0396 40.1033 82.3327 44.5359 81.3436 48.6387C80.3179 52.7782 77.9002 56.5513 74.5666 59.2255C71.0865 62.0095 66.8372 63.5481 62.368 63.4749C57.8988 63.4016 53.5029 61.8264 50.0961 58.9324C46.7992 56.1117 44.528 52.0822 43.7221 47.8328C42.9161 43.5834 43.6854 39.1143 45.7368 35.3411C47.8249 31.4947 51.1585 28.4176 55.188 26.7691C56.7266 26.1464 58.3384 25.7068 59.9502 25.487C60.0968 25.4503 60.2067 25.4137 60.3532 25.3771C64.3828 24.6444 68.5589 25.3405 72.1855 27.2087ZM77.2408 31.8977C76.7645 31.165 75.7755 30.2492 74.8597 30.4324C74.4933 30.1393 74.0171 29.9195 73.5409 29.8462C73.3577 29.8096 73.1746 29.773 73.028 29.773C71.7825 28.8938 70.4271 28.1978 68.9985 27.7216C68.7787 27.6483 68.5589 27.575 68.3024 27.5018C68.2292 27.5384 68.1193 27.5384 68.0094 27.5018C67.0203 27.2453 66.0312 27.0255 65.0055 26.9523C62.9541 26.8057 60.9027 26.8057 58.8513 27.2453C56.8365 27.6849 54.895 28.4176 53.1366 29.5166C49.7298 31.6412 47.1289 34.9015 45.8101 38.7113C44.4913 42.5577 44.5646 46.6606 45.9933 50.4703C47.3853 54.2068 50.0595 57.5038 53.5396 59.4819C57.0563 61.5333 61.3056 62.3026 65.3352 61.6432C69.2549 60.9839 72.8082 58.9691 75.4824 56.0385C77.1675 54.2068 78.4496 52.0455 79.2189 49.7377C79.5486 49.2981 79.805 48.8219 79.9882 48.309C80.5011 46.9902 80.6476 45.415 80.1714 44.0963C80.1714 44.0596 80.1714 44.0596 80.1347 44.023C80.1347 41.0558 79.4387 38.1252 78.0467 35.5243C78.1566 34.2055 77.9001 32.9234 77.2408 31.8977Z" fill="black"/>
<path d="M76.6182 34.755C76.6914 36.4401 75.6657 38.2351 74.0173 38.8212C72.3688 39.4073 70.6837 38.6747 69.8045 37.1728C68.8521 35.5609 68.9253 33.3996 70.3174 32.0442C70.9768 31.3848 71.8926 31.0185 72.845 31.0918C73.2846 31.1284 73.7242 31.2749 74.1272 31.4215C74.347 31.4947 74.5301 31.568 74.7133 31.6779C74.7865 31.7145 74.8598 31.7512 74.9697 31.7878C75.2994 32.0442 75.6291 32.264 75.8489 32.5937C76.3251 33.1798 76.5815 33.9491 76.6182 34.755Z" fill="white"/>
<path d="M73.0278 29.7364C74.8228 30.9819 76.398 32.5937 77.5336 34.4986C77.7168 34.7917 77.8999 35.1214 78.0465 35.4144C78.0465 35.4877 78.0465 35.561 78.0465 35.5976C77.8267 37.9421 76.2881 39.9935 73.9803 40.4697C73.8704 40.5063 73.7605 40.5064 73.6506 40.543C72.0387 40.7628 70.5734 40.1034 69.5477 38.9678C69.218 38.1985 68.7784 37.4292 68.2656 36.7698C67.5329 34.462 68.1557 31.8245 70.2437 30.4324C71.0863 29.8829 72.0387 29.6265 73.0278 29.7364ZM69.8042 37.1362C70.6833 38.6381 72.3318 39.3707 74.0169 38.7846C75.6654 38.1985 76.6911 36.4035 76.6178 34.7184C76.5812 33.9491 76.3247 33.1799 75.8851 32.5571C75.6287 32.2274 75.299 32.0076 75.006 31.7512C74.9327 31.7146 74.8228 31.6779 74.7495 31.6413C74.5664 31.5314 74.3466 31.4581 74.1634 31.3849C73.7605 31.2017 73.3209 31.0552 72.8813 31.0552C71.9288 31.0185 71.013 31.3849 70.3536 32.0076C68.9616 33.3996 68.8517 35.5243 69.8042 37.1362Z" fill="black"/>
<path d="M77.5341 34.4619C76.3619 32.5937 74.8233 30.9818 73.0283 29.6997C73.2115 29.6997 73.3947 29.7363 73.5412 29.773C74.0174 29.8829 74.457 30.066 74.8599 30.3591C75.7758 30.1759 76.8015 31.1284 77.2411 31.8244C77.9004 32.8501 78.1569 34.0956 78.047 35.3045C77.9004 35.0847 77.7173 34.7916 77.5341 34.4619Z" fill="black"/>
<path d="M77.5705 41.2757C76.5447 40.5797 75.226 40.4698 74.0537 40.7629L73.9805 40.4698C76.2883 39.957 77.8269 37.9422 78.0467 35.5977C78.0467 35.5244 78.0467 35.4878 78.0467 35.4146C79.4387 38.0155 80.1347 40.9827 80.1347 43.9133C79.8783 43.2539 79.512 42.7044 78.9625 42.2648C78.816 42.1549 78.6328 42.045 78.413 41.9718C78.1566 41.7153 77.8635 41.4589 77.5705 41.2757Z" fill="black"/>
<path d="M74.0537 40.7261C72.5517 41.0925 71.3062 42.1182 70.6102 43.4369C70.5736 42.8508 70.5003 42.2281 70.3904 41.642C70.2072 40.7261 69.9508 39.8103 69.5479 38.9312C70.5736 40.0668 72.0022 40.7261 73.6507 40.5063C73.7606 40.5063 73.8705 40.4697 73.9804 40.4331L74.0537 40.7261Z" fill="black"/>
<path d="M70.2441 47.7597C70.4273 47.0637 70.5372 46.3676 70.5738 45.6716L71.3797 45.7449C71.3431 46.1112 71.3431 46.5142 71.4164 46.8805C71.7094 48.6755 73.1747 50.1408 75.0064 50.2141C76.9479 50.2873 78.23 48.8587 78.7062 47.1003C78.7795 46.8805 78.8161 46.6241 78.8528 46.3676L79.9517 46.5142C79.8052 47.5765 79.5488 48.5656 79.2191 49.5913C78.0835 51.1665 76.2152 52.1189 74.1638 51.6061C72.2223 51.2031 70.7936 49.5913 70.2441 47.7597Z" fill="black"/>
<path d="M70.6106 43.437C70.6472 44.1697 70.6472 44.9389 70.5739 45.6716C70.5007 46.3676 70.3908 47.0636 70.2443 47.7596C70.0977 47.2468 69.9878 46.7339 69.9878 46.2211C69.9512 45.232 70.171 44.2796 70.6106 43.437Z" fill="black"/>
<path d="M64.9688 52.8881C68.8885 50.3238 69.6578 44.7557 68.339 40.5796C67.6796 38.5281 66.3975 36.6599 64.5658 35.4876C63.65 34.9015 62.661 34.4619 61.5986 34.2421C60.5729 34.0223 59.4739 33.8758 58.4116 33.9124C58.375 33.9124 58.3383 33.9124 58.3017 33.8758C57.1295 34.0223 56.0305 34.352 54.9681 34.8649C52.7336 36.0005 50.9019 37.8687 49.7663 40.0667C47.605 44.2428 47.8248 50.1406 51.9276 53.0712C53.9058 54.4633 56.3968 54.8296 58.7413 54.7197C60.9759 54.5732 63.1738 54.0603 64.9688 52.8881ZM70.6102 43.4369C70.1706 44.2794 69.9508 45.2319 69.9508 46.221C69.9874 46.7338 70.0607 47.2467 70.2072 47.7595C70.0607 48.3456 69.8775 48.9684 69.6211 49.5179C68.632 51.9722 66.8371 53.9138 64.3827 54.9761C62.0382 56.0018 59.4007 56.3315 56.8364 56.1117C54.1622 55.8553 51.5613 54.9029 49.7663 52.8514C46.0664 48.6753 46.5427 42.3745 49.5465 37.9786C50.9752 35.854 52.9533 34.1689 55.3711 33.2531C56.6166 32.7768 57.972 32.4838 59.2908 32.5204C59.9868 32.5204 60.6828 32.5937 61.3422 32.7768C61.4521 32.8135 61.562 32.8501 61.6719 32.8867C62.2946 32.96 62.8808 33.1065 63.4669 33.2897C64.6391 33.6194 65.7381 34.3154 66.6539 35.0847C67.24 35.5609 67.7895 36.147 68.2291 36.7698V36.8064C68.4855 37.6123 68.9251 38.3816 69.4746 38.9677C69.8409 39.8469 70.134 40.7627 70.3171 41.6785C70.5003 42.2647 70.5736 42.8508 70.6102 43.4369Z" fill="black"/>
<path d="M68.3027 36.7332C68.8156 37.4292 69.2185 38.1618 69.5849 38.9311C69.0354 38.3084 68.5958 37.5757 68.3394 36.7698C68.3027 36.7698 68.3027 36.7698 68.3027 36.7332Z" fill="black"/>
<path d="M68.376 40.5429C69.6581 44.719 68.8888 50.2871 65.0058 52.8514C63.1741 54.0236 60.9762 54.5731 58.8515 54.6464C56.4704 54.7563 54.016 54.3899 52.0379 52.9979C47.935 50.0673 47.7152 44.2061 49.8766 39.9934C51.0122 37.7588 52.8072 35.8905 55.0784 34.7916C56.1041 34.2787 57.2397 33.949 58.4119 33.8025C58.4486 33.8391 58.4852 33.8391 58.5218 33.8391C59.5842 33.8025 60.6831 33.949 61.7088 34.1688C62.7712 34.3886 63.7603 34.8282 64.6761 35.4143C66.4344 36.6232 67.7166 38.4914 68.376 40.5429Z" fill="white"/>
<path d="M44.1983 26.7324C44.3448 26.879 44.4181 27.0255 44.4547 27.2087C44.3448 27.0988 44.1983 26.9888 44.0884 26.8789C44.125 26.8057 44.1617 26.7691 44.1983 26.7324Z" fill="black"/>
<path d="M43.4293 28.1247C43.3194 28.088 43.2095 28.0514 43.063 27.9781C43.063 27.9781 43.0264 27.9781 43.0264 27.9415C43.3561 27.5752 43.6858 27.1722 44.0521 26.8425C44.1986 26.9524 44.3085 27.0623 44.4184 27.1722C44.455 27.3187 44.4184 27.4653 44.3818 27.6484C44.3085 27.8316 44.1986 27.9415 44.0521 28.0514C43.9056 28.1613 43.6125 28.1979 43.4293 28.1247Z" fill="black"/>
<path d="M44.0885 26.879C43.9786 26.8058 43.8321 26.6959 43.7222 26.6226C43.7588 26.586 43.8321 26.5493 43.8687 26.5127C43.942 26.5493 44.0152 26.586 44.0885 26.6226C44.1251 26.6592 44.1984 26.6959 44.235 26.7325C44.1618 26.7691 44.1251 26.8058 44.0885 26.879Z" fill="black"/>
<path d="M42.8062 27.3552C43.0993 27.0988 43.3924 26.8424 43.7221 26.6226C43.8686 26.6958 43.9785 26.7691 44.0884 26.879C43.7221 27.2453 43.3924 27.6116 43.0627 27.978C42.9528 27.9047 42.8429 27.8314 42.733 27.7215C42.6597 27.6849 42.5864 27.6849 42.5132 27.6483C42.5864 27.5384 42.6963 27.4651 42.8062 27.3552Z" fill="black"/>
<path d="M43.6125 28.5275C43.4659 28.3077 43.2462 28.1612 43.063 27.978C43.1729 28.0147 43.2828 28.0879 43.4293 28.1246C43.6125 28.1978 43.9055 28.1612 44.0521 28.0513C44.1986 27.9414 44.3085 27.8315 44.3818 27.6483C44.455 27.5018 44.455 27.3186 44.4184 27.1721C44.5649 27.3186 44.7114 27.4652 44.8213 27.6117C44.6015 27.7582 44.4184 27.9048 44.1986 28.0513C44.0154 28.1978 43.8323 28.381 43.6491 28.5641C43.6491 28.5641 43.6491 28.5641 43.6125 28.5275Z" fill="black"/>
<path d="M43.3559 61.4235C43.3193 61.6066 43.1728 61.7898 43.0262 61.8997C42.6233 61.4601 42.2203 60.9839 41.854 60.5077C41.9273 60.471 42.0005 60.4344 42.0372 60.3978C42.257 60.2879 42.4768 60.2512 42.7332 60.3245C42.8431 60.3611 42.953 60.3978 43.0262 60.471C43.0995 60.5443 43.2094 60.6176 43.246 60.7275C43.3926 60.9473 43.3926 61.2403 43.3559 61.4235Z" fill="black"/>
<path d="M42.6232 26.4027C42.4035 26.2562 42.1837 26.1097 41.9639 25.9998C42.0371 25.9998 42.1104 25.9998 42.2203 26.0364C42.4035 26.073 42.5866 26.1097 42.8064 26.1463C43.1727 26.2195 43.5391 26.3294 43.9054 26.5126C43.8688 26.5492 43.7955 26.5859 43.7589 26.6225C43.3559 26.4393 42.9896 26.3295 42.6232 26.4027Z" fill="black"/>
<path d="M43.6854 26.6225C43.3924 26.8423 43.0993 27.0987 42.7696 27.3552C42.6597 27.4284 42.5865 27.5383 42.4766 27.6482H42.4399C42.2568 27.5383 42.037 27.4651 41.8538 27.3918C41.5608 27.2819 41.2677 27.172 40.938 27.0987C40.8647 26.9156 40.8281 26.6591 40.938 26.476C41.0845 26.2562 41.2677 26.1463 41.4875 26.073C41.5241 26.073 41.5608 26.0364 41.5974 26.0364C41.7073 25.9998 41.7806 25.9998 41.8538 25.9998C42.0736 26.1097 42.33 26.2196 42.5132 26.4027C42.9894 26.3295 43.3558 26.4393 43.6854 26.6225Z" fill="black"/>
<path d="M41.5245 27.5385C41.6344 27.5751 41.7077 27.6117 41.8176 27.6484C42.2205 27.7216 42.6235 27.7949 42.9898 27.9781C43.0264 27.9781 43.0264 27.9781 43.0631 28.0147C41.378 29.9562 40.0226 32.1175 38.9969 34.462C38.9602 34.4254 38.9236 34.3888 38.887 34.3521C38.5939 34.0957 38.3008 33.8759 37.9711 33.6561C37.8246 33.4729 37.7147 33.3264 37.6048 33.1066C36.6524 31.4948 36.7256 29.3335 38.1177 27.9781C38.5939 27.5385 39.18 27.2088 39.8028 27.0623C40.3156 27.1722 40.7918 27.2821 41.2681 27.392C41.3047 27.392 41.3413 27.392 41.378 27.392C41.378 27.392 41.378 27.392 41.4146 27.392C41.4146 27.5019 41.4879 27.5385 41.5245 27.5385Z" fill="white"/>
<path d="M40.9746 27.0989C41.3043 27.1721 41.5974 27.282 41.8904 27.3919C42.1102 27.4652 42.2934 27.5385 42.4765 27.6484C42.4765 27.6484 42.4765 27.6484 42.5132 27.6484C42.4765 27.685 42.4399 27.7216 42.4399 27.7583C42.3666 27.7216 42.2934 27.7216 42.2567 27.685C42.037 27.6117 41.8172 27.5385 41.5607 27.4652C41.5241 27.4652 41.4508 27.5018 41.3776 27.4652C41.231 27.3553 41.0845 27.282 40.9746 27.0989Z" fill="black"/>
<path d="M41.5611 27.4651C41.7809 27.5384 42.0007 27.6116 42.2571 27.6849C42.3304 27.7215 42.4036 27.7215 42.4403 27.7582C42.4769 27.7215 42.4769 27.6849 42.5135 27.6483C42.5868 27.6849 42.6601 27.7215 42.7333 27.7215C42.8432 27.7948 42.9531 27.8681 43.063 27.978C43.0264 27.978 43.0264 27.978 42.9898 27.9413C42.6234 27.7948 42.2205 27.6849 41.8175 27.6116C41.7443 27.575 41.6344 27.575 41.5245 27.5017C41.4878 27.4651 41.4512 27.4651 41.4146 27.4285C41.4146 27.4285 41.4146 27.4285 41.3779 27.4285C41.4512 27.4651 41.4878 27.4651 41.5611 27.4651Z" fill="black"/>
<path d="M41.8537 60.5442C42.2201 61.0204 42.623 61.46 43.026 61.9362C42.9893 61.9362 42.9893 61.9728 42.9527 61.9728C42.7695 62.0827 42.5497 62.1926 42.3666 62.3025C42.1102 62.0827 41.8904 61.7897 41.7072 61.46C41.5973 61.2768 41.4874 61.057 41.3775 60.8739C41.3042 60.9105 41.2676 60.9105 41.1943 60.9471C41.2676 60.9105 41.3775 60.8373 41.4508 60.8006C41.5607 60.6541 41.7072 60.6175 41.8537 60.5442Z" fill="black"/>
<path d="M40.6816 61.277C40.7548 61.1671 40.8281 61.0938 40.9746 61.0206C41.0113 60.9839 41.0845 60.9839 41.1212 60.9473C41.1578 60.9473 41.1578 60.9107 41.1578 60.9107C41.231 60.874 41.2677 60.874 41.3409 60.8374C41.4508 61.0206 41.5607 61.2404 41.6706 61.4235C41.8538 61.7532 42.0736 62.0097 42.33 62.2661C42.2568 62.3027 42.1835 62.3393 42.1102 62.3393C42.0003 62.376 41.8904 62.4126 41.7805 62.4492C41.7073 62.4492 41.6706 62.4859 41.634 62.4859C41.4875 62.5225 41.3776 62.5225 41.2677 62.5225C41.1212 62.5225 41.0113 62.4859 40.9014 62.4126C40.7915 62.3393 40.6816 62.2661 40.6449 62.1562C40.6083 62.0829 40.6083 62.0463 40.5717 61.973C40.3885 61.7532 40.4984 61.4602 40.6816 61.277Z" fill="black"/>
<path d="M41.5608 26.073C41.341 26.1463 41.1579 26.2562 41.0113 26.476C40.9015 26.6592 40.9015 26.9156 41.0113 27.0988C40.9015 27.0621 40.7549 27.0621 40.645 27.0621C40.352 27.0621 40.0955 27.0621 39.8391 27.1354C39.3263 27.0255 38.85 26.9522 38.3372 26.9156C38.0441 26.879 37.7877 26.879 37.4946 26.879C37.6778 26.7324 37.861 26.5493 38.0808 26.4027C39.0698 25.7434 40.2421 25.5602 41.3777 25.8166C41.5975 25.8532 41.8173 25.9265 42.0004 26.0364C41.9272 26.0364 41.8173 26.0364 41.744 26.073C41.6341 26.0364 41.5975 26.0364 41.5608 26.073Z" fill="black"/>
<path d="M45.2241 28.3444C43.1727 30.469 41.5609 32.9967 40.4252 35.7075L40.0956 35.561C39.9857 35.4144 39.8758 35.3045 39.7659 35.158C39.8025 35.0481 39.8391 34.9382 39.8758 34.8283C39.656 34.7917 39.3995 34.6818 39.2164 34.5719C39.1431 34.4986 39.0698 34.4253 38.9966 34.3887C40.0223 32.0442 41.4143 29.8829 43.0628 27.9414H43.0994C43.2826 28.0879 43.5024 28.2711 43.6489 28.4909C43.6489 28.5275 43.6855 28.5275 43.6855 28.5642C43.8687 28.381 44.0519 28.1978 44.235 28.0513L45.2241 28.3444Z" fill="black"/>
<path d="M41.2675 27.4652C40.7913 27.3187 40.2785 27.2088 39.8022 27.1355C40.0587 27.0989 40.3517 27.0623 40.6082 27.0623C40.7181 27.0623 40.8646 27.0989 40.9745 27.0989V27.1355C41.0477 27.2821 41.1943 27.392 41.3408 27.5018C41.3408 27.4652 41.3042 27.4652 41.2675 27.4652Z" fill="black"/>
<path d="M39.8757 34.8651C39.8391 34.975 39.8024 35.0849 39.7658 35.1948C39.5826 35.0116 39.3995 34.8284 39.2163 34.6453C39.3995 34.7552 39.6559 34.8284 39.8757 34.8651Z" fill="black"/>
<path d="M40.4251 35.7075C39.6924 37.4293 39.1796 39.2243 38.8132 41.0559C38.2271 44.2063 38.2638 47.4666 38.9964 50.617L38.8132 50.6536C38.4103 51.1298 37.9707 51.5328 37.4945 51.8991C36.1757 47.0636 36.4321 41.8252 37.9707 37.063C38.0806 36.6966 38.1905 36.3669 38.337 36.0372C38.74 36.4402 39.0697 36.9164 39.3994 37.3926C39.5825 36.8065 39.839 36.1838 40.132 35.5977L40.4251 35.7075Z" fill="black"/>
<path d="M39.2166 34.6451C39.3997 34.8282 39.5829 35.0114 39.7661 35.1945C39.6195 35.5609 39.5096 35.9272 39.3997 36.2935C39.07 36.1836 38.7403 36.0005 38.4106 35.8173C38.5938 35.3777 38.777 34.9381 38.9601 34.4985C39.0334 34.5352 39.1067 34.6084 39.2166 34.6451C39.1799 34.6451 39.1799 34.6451 39.2166 34.6451Z" fill="black"/>
<path d="M38.9964 50.6169C39.3627 52.1921 39.8756 53.6941 40.535 55.1594C41.4508 57.1009 42.6597 58.8959 44.0517 60.5077H43.026C42.9527 60.4344 42.8428 60.3978 42.7329 60.3612C42.5131 60.3246 42.2567 60.3246 42.0369 60.4345C41.9636 60.4711 41.8904 60.5077 41.8537 60.5444C40.2053 58.4197 38.8499 56.0752 37.9707 53.5109C38.4469 53.2179 38.8499 52.8882 39.2528 52.5218V52.4852C39.2162 52.4119 39.2162 52.3021 39.1796 52.1922C39.0697 51.9724 38.9964 51.6793 38.9598 51.4229C38.9231 51.1664 38.8865 50.91 38.8499 50.6536L38.9964 50.6169Z" fill="black"/>
<path d="M39.3998 36.2936C39.5097 35.9272 39.6196 35.5609 39.7661 35.1946C39.876 35.3411 39.9859 35.451 40.0958 35.5975C39.8027 36.1837 39.5829 36.7698 39.3631 37.3925C39.0701 36.9163 38.7037 36.4767 38.3008 36.0371C38.3374 35.9639 38.3374 35.8906 38.3741 35.8173C38.7037 36.0371 39.0334 36.1837 39.3998 36.2936Z" fill="black"/>
<path d="M39.253 52.4852V52.5218C38.85 52.8881 38.4104 53.2178 37.9709 53.5109C37.8243 53.1446 37.7144 52.7783 37.6045 52.3753C37.5679 52.2288 37.5313 52.0822 37.458 51.8991C37.9709 51.5327 38.4104 51.0932 38.7768 50.6536C38.8134 50.91 38.85 51.1664 38.8867 51.4228C38.9233 51.7159 39.0332 51.9723 39.1065 52.1921C39.1797 52.302 39.2164 52.3753 39.253 52.4852Z" fill="black"/>
<path d="M38.96 34.4253C39.0332 34.4986 39.1065 34.5718 39.1798 34.6085C39.1065 34.5718 38.9966 34.5352 38.9233 34.4619C38.96 34.4619 38.96 34.4619 38.96 34.4253Z" fill="black"/>
<path d="M38.9598 34.4253C38.9598 34.4619 38.9598 34.4619 38.9232 34.4986C38.5568 34.2788 38.2271 33.9857 37.9341 33.656C38.2638 33.8758 38.5568 34.0956 38.8499 34.352C38.8865 34.352 38.9232 34.3887 38.9598 34.4253Z" fill="black"/>
<path d="M36.0294 32.6671C35.4066 30.6157 35.8462 28.3078 37.4581 26.8425C37.7511 26.8425 38.0075 26.8792 38.3006 26.8792C38.8135 26.9158 39.3263 26.9891 39.8025 27.0989C39.1798 27.2455 38.5937 27.5385 38.1174 28.0148C36.7254 29.3702 36.6521 31.4948 37.6046 33.1433C37.7145 33.3265 37.861 33.5096 37.9709 33.6928C37.3482 33.2532 36.6888 32.8869 36.0294 32.6671Z" fill="black"/>
<path d="M38.4104 35.8174C37.3114 35.1214 36.5055 34.0224 36.0659 32.7403C36.0659 32.7036 36.0293 32.667 36.0293 32.6304C36.7253 32.8868 37.3481 33.2165 37.9708 33.6561C38.2639 33.9858 38.5936 34.2788 38.9599 34.4986C38.7401 34.9382 38.5569 35.3778 38.4104 35.8174Z" fill="black"/>
<path d="M21.9626 39.334C23.0982 37.0994 24.8932 35.2311 27.1644 34.1321C28.1902 33.6193 29.3258 33.2896 30.498 33.1431C30.5346 33.1797 30.5713 33.1797 30.6079 33.1797C31.6702 33.1431 32.7692 33.2896 33.7949 33.5094C34.8573 33.7292 35.8463 34.1688 36.7621 34.7549C37.3483 35.1212 37.8611 35.5608 38.3374 36.0737C38.2275 36.4034 38.0809 36.7697 37.971 37.0994C36.4325 41.8616 36.176 47.1 37.4948 51.9355C37.3849 52.0088 37.275 52.0821 37.1651 52.1553C35.3335 53.3276 33.1355 53.8771 31.0109 53.9503C28.6297 54.0602 26.1754 53.6939 24.1972 52.3019C20.0211 49.3713 19.8013 43.5101 21.9626 39.334Z" fill="white"/>
<path d="M21.9992 52.1188C18.2994 47.9427 18.7756 41.6419 21.7794 37.246C23.2081 35.1213 25.1863 33.4362 27.604 32.5204C28.8495 32.0442 30.2049 31.7511 31.5237 31.7877C32.2197 31.7877 32.9157 31.861 33.5751 32.0442C33.685 32.0808 33.7949 32.1174 33.9048 32.1541C34.5275 32.2273 35.1137 32.3739 35.6998 32.557C35.8097 32.5937 35.9562 32.6303 36.0661 32.6669C36.0661 32.7036 36.1027 32.7402 36.1027 32.7768C36.5057 34.059 37.3482 35.1579 38.4472 35.8539C38.4106 35.9272 38.4106 36.0005 38.374 36.0737C37.8977 35.5609 37.3849 35.1213 36.7987 34.755C35.8829 34.1688 34.8939 33.7293 33.8315 33.5095C32.8058 33.2897 31.7068 33.1431 30.6445 33.1798C30.6079 33.1798 30.5712 33.1798 30.5346 33.1431C29.3624 33.2897 28.2634 33.6194 27.201 34.1322C24.9665 35.2678 23.1348 37.1361 21.9992 39.334C19.8379 43.5101 20.0577 49.408 24.1605 52.3386C26.1387 53.7306 28.6297 54.0969 30.9742 53.987C33.1355 53.8771 35.3334 53.3643 37.1284 52.192C37.2383 52.1188 37.3482 52.0455 37.4581 51.9722C37.4948 52.1188 37.5314 52.2653 37.6047 52.4484C37.7146 52.8148 37.8245 53.2177 37.971 53.5841C37.5314 53.8771 37.0918 54.0969 36.6156 54.3167C34.2711 55.3424 31.6336 55.6721 29.0693 55.4523C26.3951 55.1226 23.7942 54.1702 21.9992 52.1188Z" fill="black"/>
<path d="M26.3949 29.4434C28.1533 28.3444 30.0948 27.6118 32.1096 27.1722C33.8679 26.8058 35.6263 26.7326 37.4213 26.8425C35.8461 28.2711 35.3699 30.579 35.9926 32.667C35.8827 32.6304 35.7362 32.5938 35.6263 32.5571C35.0402 32.374 34.4541 32.2275 33.8313 32.1542C33.7214 32.1176 33.6115 32.0809 33.5016 32.0443C32.8422 31.8611 32.1462 31.7879 31.4502 31.7879C30.1314 31.7512 28.776 32.0443 27.5305 32.5205C25.1494 33.4363 23.1346 35.1214 21.706 37.2461C18.7021 41.642 18.2625 47.9794 21.9257 52.1189C23.7207 54.1703 26.3217 55.1227 28.9958 55.3792C31.5601 55.599 34.1976 55.2693 36.5421 54.2436C37.0183 54.0238 37.4946 53.804 37.8975 53.5109C38.7767 56.0752 40.1321 58.4197 41.7806 60.5444C41.634 60.6176 41.4875 60.6909 41.341 60.7641C41.2677 60.8008 41.1578 60.874 41.0845 60.9107C40.242 61.2037 39.3994 61.3869 38.5203 61.5701C34.5273 62.2661 30.2413 61.4602 26.7246 59.4087C23.2445 57.394 20.5703 54.1337 19.1783 50.3972C17.7496 46.5874 17.6764 42.4845 18.9951 38.6381C20.4238 34.8284 22.9881 31.5314 26.3949 29.4434Z" fill="black"/>
<path d="M32.1462 27.1721C30.1314 27.6117 28.1899 28.3444 26.4315 29.4434C23.0247 31.568 20.4238 34.8283 19.105 38.6381C17.7863 42.4845 17.8595 46.5874 19.2882 50.3971C20.6802 54.1336 23.3544 57.4306 26.8345 59.4087C30.3512 61.4601 34.6006 62.2294 38.6301 61.57C39.5093 61.4235 40.3519 61.2037 41.1944 60.9107C41.1578 60.9107 41.1578 60.9106 41.1578 60.9473C41.1212 60.9839 41.0479 60.9839 41.0113 61.0205C40.9014 61.0938 40.8281 61.1671 40.7182 61.277C40.535 61.4601 40.4251 61.7532 40.535 62.0096C40.5717 62.0829 40.5717 62.1195 40.6083 62.1928C40.6816 62.3027 40.7548 62.376 40.8647 62.4492C40.9746 62.5225 41.1212 62.5591 41.2311 62.5591C41.3776 62.5591 41.4508 62.5591 41.5974 62.5225C41.634 62.5225 41.7073 62.4858 41.7439 62.4858C41.8538 62.4492 41.9637 62.4126 42.0736 62.376C42.1469 62.3393 42.2201 62.3027 42.2934 62.3027L42.33 62.3393C40.2053 63.1452 37.8975 63.5482 35.5897 63.5116C31.1205 63.4383 26.7246 61.8631 23.3178 58.9691C20.0209 56.1484 17.7496 52.1189 16.9437 47.8695C16.1378 43.6201 16.9071 39.151 18.9585 35.3778C21.0466 31.5314 24.3801 28.4543 28.4097 26.8058C29.9483 26.1831 31.5601 25.7435 33.1719 25.5237C33.3184 25.4871 33.4283 25.4504 33.5749 25.4138C37.055 24.7544 40.6083 25.194 43.832 26.5128C43.5023 26.3296 43.0993 26.2197 42.733 26.1464C42.5498 26.1098 42.3667 26.0732 42.1469 26.0365C42.037 26.0365 41.9637 25.9999 41.8904 25.9999C41.6706 25.9266 41.4509 25.8534 41.2677 25.7801C40.1321 25.5237 38.9598 25.7435 37.9708 26.3662C37.751 26.5128 37.5678 26.6593 37.3846 26.8425C35.6629 26.7692 33.9046 26.8058 32.1462 27.1721Z" fill="black"/>
<path d="M27.714 65.7828C21.9627 63.7314 17.5668 59.0425 15.2589 53.4743C12.8045 47.5399 13.1342 40.7995 15.5886 34.9017C18.043 28.9672 22.8052 23.9485 28.7763 21.4209C31.6703 20.212 34.784 19.6625 37.8978 19.919C39.4363 20.0289 40.9383 20.3586 42.4036 20.8714C43.8689 21.3843 45.1877 22.1169 46.5431 22.8862C47.0193 23.1426 47.4589 23.4357 47.8618 23.7654C47.4955 24.0218 47.0925 24.2782 46.7262 24.5713C45.847 25.2307 45.0045 25.9633 44.2352 26.7693C44.1986 26.7326 44.1619 26.696 44.0887 26.6594C44.0154 26.6227 43.9422 26.5861 43.8689 26.5495C40.6452 25.2307 37.0552 24.7911 33.6118 25.4505C33.4653 25.4871 33.3554 25.5238 33.2088 25.5604C31.597 25.7802 29.9852 26.1831 28.4466 26.8425C24.3804 28.491 21.0835 31.5681 18.9954 35.4145C16.944 39.2243 16.1747 43.6568 16.9806 47.9062C17.7866 52.1556 20.0578 56.1851 23.3547 59.0058C26.7615 61.8998 31.1574 63.5116 35.6266 63.5483C37.9711 63.5849 40.2423 63.1819 42.367 62.376L42.3303 62.3394C42.5501 62.2295 42.7333 62.1196 42.9164 62.0097C42.9531 62.0097 42.9531 61.973 42.9897 61.973C43.6857 62.7423 44.4184 63.475 45.1876 64.171C39.9858 67.2848 33.4286 67.8343 27.714 65.7828Z" fill="white"/>
<path d="M15.2221 53.4742C17.5299 59.0424 21.9258 63.7313 27.6771 65.7827C33.3918 67.8342 39.9856 67.2847 45.1874 64.0977C44.4182 63.4016 43.6855 62.669 42.9895 61.8997C43.136 61.7898 43.2826 61.6066 43.3192 61.4235C43.3925 61.2037 43.3558 60.9106 43.2459 60.7275C43.1727 60.6176 43.0994 60.5443 43.0261 60.471H44.0519C45.8468 62.5591 47.9715 64.3175 50.3526 65.7461C54.5654 68.2371 59.5107 69.4826 64.4195 69.043C69.2184 68.6035 73.834 66.5887 77.4973 63.5482C81.2338 60.471 84.1278 56.3316 85.4465 51.6426C86.7653 46.9537 86.4356 42.0083 84.9337 37.3926C83.4318 32.8135 80.5744 28.6008 76.728 25.6702C76.5815 25.5603 76.5082 25.4504 76.4716 25.3039C76.3617 25.3039 76.2152 25.2672 76.0686 25.194C75.0796 24.5346 73.9073 24.0217 72.8083 23.5821C68.1927 21.5673 63.174 20.8347 58.192 21.6406C53.2466 22.4465 48.6675 24.7544 45.1874 28.381L44.1984 28.1246C44.3815 27.978 44.6013 27.8315 44.8211 27.685C44.7112 27.5384 44.5647 27.3919 44.4182 27.2454C44.3815 27.0622 44.3083 26.9157 44.1617 26.7692C44.931 25.9999 45.7736 25.2672 46.6527 24.5712C47.0191 24.2781 47.422 24.0217 47.7884 23.7653C47.3488 23.4356 46.9092 23.1792 46.4696 22.8861C45.1142 22.1168 43.7954 21.3842 42.3301 20.8713C40.8648 20.3585 39.3629 20.0288 37.8243 19.9189C34.7106 19.6625 31.5602 20.2119 28.7028 21.4208C22.7684 23.9485 18.0062 28.9671 15.5151 34.9016C13.0974 40.7994 12.7677 47.5398 15.2221 53.4742ZM24.7832 66.3322C19.1051 63.4016 14.8558 57.9068 13.0241 51.8258C11.0094 45.1953 12.0717 37.9421 15.2954 31.8977C18.519 25.8533 23.9773 20.8713 30.6077 18.8565C33.9047 17.8675 37.3481 17.7209 40.7183 18.4902C42.3668 18.8565 43.9419 19.4427 45.4072 20.2486C46.7626 20.9812 47.8983 21.9703 48.8873 23.1059C52.7704 20.7981 57.2395 19.5892 61.7453 19.4793C64.4195 19.406 67.0937 19.7724 69.6579 20.4684C70.9767 20.8347 72.2589 21.3109 73.5044 21.9337C74.0905 22.2267 74.6766 22.5564 75.2261 22.9227C75.7756 23.2891 76.2884 23.7287 76.8379 24.095C76.9844 24.1683 77.0577 24.3148 77.0943 24.4247C77.2409 24.4247 77.3874 24.4613 77.4973 24.5712C78.523 25.3039 79.4754 26.1464 80.3913 27.0256C84.0179 30.6522 86.5089 35.4511 87.498 40.5063C88.487 45.6349 87.9742 50.9832 85.7762 55.7088C83.6149 60.3978 79.9517 64.3174 75.5558 66.9916C71.1599 69.6658 65.9947 71.0945 60.8662 70.8014C55.701 70.4717 50.6823 68.4569 46.6161 65.2699C46.5795 65.3065 46.5062 65.3798 46.433 65.4164C45.7736 65.856 45.0776 66.2956 44.3449 66.6619C38.2273 69.6658 30.7543 69.4094 24.7832 66.3322Z" fill="black"/>
<path d="M65.4088 82.9999C68.14 82.9999 70.3541 80.7858 70.3541 78.0545C70.3541 75.3233 68.14 73.1091 65.4088 73.1091C62.6775 73.1091 60.4634 75.3233 60.4634 78.0545C60.4634 80.7858 62.6775 82.9999 65.4088 82.9999Z" fill="#F4D0E9"/>
<path d="M66.1778 73.0359C65.5917 73.5487 64.969 73.9883 64.4561 74.5744C63.9799 75.1605 63.5037 75.7833 63.0641 76.3694C62.6245 76.9555 62.1849 77.5783 61.7819 78.201C61.5621 78.5307 61.3423 78.8604 61.1225 79.1901C60.9394 79.5198 60.8295 79.8495 60.683 80.1426C60.6463 80.2525 60.7562 80.3623 60.8661 80.2891C61.0859 80.0327 61.3423 79.8129 61.5621 79.5198C61.7819 79.2267 62.0017 78.8971 62.2215 78.604C62.6611 77.9812 63.1373 77.3585 63.6136 76.7724C64.0898 76.1863 64.566 75.6001 65.0422 75.014C65.5185 74.4279 65.8848 73.7685 66.2877 73.1091C66.361 73.0359 66.2511 72.9992 66.1778 73.0359Z" fill="black"/>
<path d="M67.6065 74.6479C67.0936 75.1607 66.5808 75.6736 66.1412 76.1864C65.7016 76.6993 65.2986 77.2488 64.8957 77.7616C64.4927 78.2745 64.1264 78.8606 63.7601 79.4101C63.5769 79.7032 63.3571 80.0328 63.174 80.3259C63.1007 80.4724 62.9908 80.6556 62.9175 80.8021C62.8443 80.9487 62.7344 81.2417 62.5878 81.3516C62.4779 81.4615 62.6977 81.608 62.771 81.4981C62.8809 81.315 63.0641 81.1684 63.2106 81.0219C63.3205 80.8754 63.467 80.7655 63.5769 80.619C63.8333 80.3625 64.0531 80.0695 64.2729 79.813C64.7125 79.3002 65.1155 78.7873 65.5184 78.2379C66.3243 77.1022 67.057 75.93 67.6798 74.6479C67.7164 74.6479 67.6431 74.6112 67.6065 74.6479Z" fill="black"/>
<path d="M67.6433 78.5675L67.3503 78.8239C67.2404 78.8972 67.1671 79.0071 67.0572 79.117C66.8741 79.3368 66.6909 79.5566 66.5077 79.813C66.3612 80.0328 66.178 80.2526 66.0315 80.4724C65.885 80.6922 65.6652 80.9486 65.7018 81.2417C65.7018 81.3516 65.8117 81.4248 65.9216 81.4248C66.178 81.3516 66.3612 81.0951 66.5444 80.912C66.7275 80.6922 66.9107 80.4358 67.0572 80.216C67.2037 79.9962 67.3503 79.7764 67.4968 79.5199C67.5701 79.41 67.6433 79.3002 67.68 79.1536C67.7166 79.0071 67.7899 78.8972 67.8265 78.7507C67.8998 78.6041 67.7532 78.4942 67.6433 78.5675Z" fill="black"/>
</svg>
