<svg width="100" height="100" viewBox="0 0 100 100" fill="none" xmlns="http://www.w3.org/2000/svg">
<path d="M89.3803 29.5712C91.0357 32.9234 91.6151 36.6894 91.1185 40.3727C90.6218 43.9318 89.2148 47.6564 86.6489 50.2636C86.6489 50.2223 86.6075 50.2223 86.6075 50.1809C86.2764 49.7256 85.904 49.3118 85.5729 48.8566C86.5661 47.4495 87.4766 46.001 88.1387 44.387C88.8423 42.6488 89.2561 40.7451 89.3803 38.8828C89.5872 35.572 88.8837 32.3026 87.2283 29.4056C85.6556 26.6329 83.2967 24.2739 80.5239 22.7427C77.627 21.0873 74.3162 20.4251 71.0054 20.6734C69.3086 20.7976 67.6118 21.2114 65.9978 21.7494C64.6321 22.2461 63.3492 22.9082 62.1076 23.6531C61.7352 23.3221 61.3627 22.991 60.9902 22.6599C62.4387 21.377 64.2183 20.4665 66.0392 19.8043C67.9843 19.1008 70.1363 18.7697 72.2469 18.7697C79.4065 18.6869 86.1937 23.0324 89.3803 29.5712Z" fill="black"/>
<path d="M87.1868 29.4469C88.8422 32.3439 89.5044 35.6133 89.3388 38.9241C89.2147 40.8278 88.8008 42.6901 88.0973 44.4282C87.4765 46.0423 86.5247 47.4907 85.5314 48.8978C84.0002 47.1597 82.2206 45.7526 79.9858 44.9663C76.9234 43.8489 73.4884 43.8903 70.3432 44.5938C69.3913 44.8007 68.4394 45.0904 67.4876 45.4629C67.6945 44.9249 67.8187 44.3455 67.9428 43.7247C68.1497 42.6901 68.2739 41.6969 68.3567 40.6622C68.4808 38.6344 68.3567 36.6065 67.9428 34.62C67.1979 30.854 65.4183 27.3363 62.8111 24.5221C62.5628 24.2324 62.2731 23.9427 61.9834 23.6944C63.2249 22.9909 64.5079 22.2873 65.8736 21.7907C67.4876 21.2113 69.1844 20.8388 70.8812 20.7147C74.1919 20.4664 77.5027 21.1699 80.3997 22.7839C83.2552 24.3152 85.5728 26.6327 87.1868 29.4469ZM71.9572 30.1504C72.0399 29.9849 72.0813 29.8608 72.0399 29.6952C72.0399 29.5711 71.9986 29.4883 71.9986 29.3641C71.9572 29.1572 71.833 28.9917 71.6675 28.8261C71.5847 28.7434 71.5019 28.702 71.4192 28.6192C71.2122 28.4951 71.0467 28.4537 70.7984 28.4537C70.6328 28.4537 70.4673 28.4951 70.3432 28.5364C70.1776 28.5778 70.0535 28.6606 69.9707 28.7847C69.8465 28.9089 69.7638 29.0331 69.7224 29.1572C69.6396 29.2814 69.5982 29.4469 69.6396 29.6124C69.6396 29.7366 69.681 29.8194 69.681 29.9435C69.7224 30.1504 69.8465 30.316 70.0121 30.4815C70.0948 30.5229 70.1776 30.6057 70.2604 30.6885C70.4673 30.8126 70.6328 30.854 70.8812 30.854C71.0467 30.854 71.2122 30.8126 71.3364 30.7712C71.5019 30.7298 71.6261 30.6471 71.7089 30.5229C71.833 30.4402 71.9158 30.316 71.9572 30.1504Z" fill="white"/>
<path d="M88.2627 56.7198C90.2906 61.4791 90.7044 66.8591 88.3455 71.577C87.3108 73.6876 85.821 75.5499 84.0001 77.0812C82.0136 78.6952 79.6132 79.7298 77.1302 80.3506C74.1918 81.0541 71.088 81.1783 68.0669 80.8472C66.6598 80.6816 65.2941 80.392 64.0111 79.8953C62.7282 79.3987 61.5694 78.6538 60.4106 77.9502C60.9073 77.495 61.4039 77.0398 61.9005 76.5432C64.963 73.3151 67.0736 69.1353 67.7772 64.7071C68.4807 60.3203 67.7772 55.8093 65.2941 52.0433C64.7561 51.2156 64.0939 50.4293 63.3904 49.7257C64.5905 48.8567 65.7907 48.029 67.0736 47.4082C67.9427 46.9943 68.8532 46.6219 69.805 46.3736C72.3295 45.67 75.1023 45.4631 77.6682 46.0011C80.2754 46.5391 82.4274 47.9048 84.207 49.8913C84.4139 50.1396 84.6208 50.3879 84.8277 50.6362C86.2762 52.4571 87.3522 54.6092 88.2627 56.7198ZM80.4823 56.637C80.5651 56.5129 80.6065 56.3473 80.5651 56.1818C80.5651 56.099 80.5237 55.9749 80.5237 55.8507C80.4823 55.6438 80.3582 55.4782 80.234 55.3127C80.1513 55.2713 80.0685 55.1885 79.9857 55.1472C79.7788 55.023 79.6132 54.9816 79.3649 54.9816C79.1994 54.9816 79.0339 55.023 78.9097 55.0644C78.7442 55.1058 78.62 55.1885 78.5372 55.3127C78.4131 55.4369 78.3303 55.561 78.2889 55.6852C78.2062 55.8093 78.1648 55.9749 78.2062 56.1404C78.2062 56.2646 78.2475 56.3473 78.2475 56.4715C78.2889 56.6784 78.4131 56.8439 78.5786 57.0095C78.6614 57.0509 78.7442 57.1336 78.8269 57.175C79.0339 57.2992 79.1994 57.3406 79.4477 57.3406C79.6132 57.3406 79.7788 57.2992 79.9029 57.2578C80.0685 57.2164 80.1926 57.1336 80.2754 57.0095C80.3582 56.8853 80.3996 56.7612 80.4823 56.637Z" fill="white"/>
<path d="M86.6073 50.2637C88.3041 52.5812 89.7525 55.1885 90.663 57.9199C91.6148 60.6927 92.0701 63.6724 91.739 66.6107C91.4079 69.2594 90.5388 71.7838 89.1318 74.06C87.7661 76.2534 85.9451 78.1985 83.7931 79.647C81.31 81.3024 78.4131 82.2542 75.4747 82.6681C72.6192 83.0819 69.6808 83.1233 66.7839 82.7094C64.1766 82.2956 61.0314 81.3851 59.376 79.2331C59.2932 79.109 59.2104 78.9848 59.2104 78.8607C59.6243 78.571 59.9968 78.2813 60.3692 77.9502C61.5694 78.6537 62.6868 79.3987 63.9697 79.8953C65.2526 80.3919 66.6597 80.723 68.0254 80.8471C71.0052 81.1782 74.1504 81.054 77.0887 80.3505C79.5718 79.7711 81.9722 78.7365 83.9586 77.0811C85.7796 75.5913 87.2694 73.6875 88.3041 71.5769C90.663 66.859 90.2491 61.479 88.2213 56.7197C87.3108 54.5677 86.2348 52.4571 84.7863 50.5948L85.2002 50.2637C85.5313 50.5948 86.0693 50.7189 86.4417 50.3464C86.5659 50.3464 86.6073 50.3051 86.6073 50.2637Z" fill="black"/>
<path d="M86.5663 50.1808C86.6077 50.2222 86.6077 50.2221 86.6077 50.2635C86.5663 50.3049 86.5249 50.3463 86.4835 50.3877C86.1111 50.7602 85.5317 50.636 85.242 50.3049C84.9937 50.0566 84.9109 49.6841 85.1592 49.3531C85.2834 49.1875 85.3661 49.022 85.4903 48.8564C85.8627 49.2703 86.2352 49.7255 86.5663 50.1808Z" fill="black"/>
<path d="M85.1588 49.353C84.9105 49.6841 84.9933 50.0565 85.2416 50.3048L84.8278 50.6359C84.6209 50.3876 84.4139 50.1393 84.207 49.891C82.4688 47.9045 80.2754 46.5388 77.6682 46.0008C75.1023 45.4628 72.3295 45.6697 69.805 46.3733C68.8532 46.6216 67.9427 46.9941 67.0736 47.4079L66.7012 46.7044C66.7839 46.663 66.9081 46.5802 66.9495 46.4561C67.1564 46.125 67.3633 45.7525 67.4875 45.38C68.4393 45.0076 69.3912 44.7179 70.3431 44.511C73.4883 43.8488 76.9232 43.766 79.9857 44.8834C82.1791 45.7111 84.0001 47.1182 85.5313 48.815C85.4072 49.0219 85.283 49.1875 85.1588 49.353Z" fill="black"/>
<path d="M78.5375 55.3127C78.6617 55.1885 78.7858 55.1057 78.91 55.0643C79.0341 54.9816 79.1997 54.9402 79.3652 54.9816C79.5721 54.9816 79.779 55.023 79.986 55.1471C80.0687 55.1885 80.1515 55.2713 80.2343 55.3127C80.3998 55.4782 80.4826 55.6437 80.524 55.8507C80.524 55.9748 80.5654 56.0576 80.5654 56.1817C80.5654 56.3473 80.524 56.5128 80.4826 56.637C80.4412 56.8025 80.3584 56.9267 80.2343 57.0094C80.1101 57.1336 79.986 57.2164 79.8618 57.2577C79.7377 57.3405 79.5721 57.3819 79.4066 57.3405C79.1997 57.3405 78.9927 57.2991 78.7858 57.175C78.703 57.1336 78.6203 57.0508 78.5375 57.0094C78.372 56.8439 78.2892 56.6784 78.2064 56.4714C78.2064 56.3473 78.165 56.2645 78.165 56.1404C78.165 55.9748 78.2064 55.8093 78.2478 55.6851C78.3306 55.561 78.4133 55.4368 78.5375 55.3127Z" fill="black"/>
<path d="M71.9572 30.151C71.9158 30.3165 71.833 30.4407 71.7089 30.5235C71.5847 30.6476 71.4606 30.7304 71.3364 30.7718C71.2123 30.8545 71.0467 30.8959 70.8812 30.8545C70.6743 30.8545 70.4673 30.8132 70.2604 30.689C70.1777 30.6062 70.0949 30.5649 70.0121 30.4821C69.8466 30.3165 69.7638 30.151 69.681 29.9441C69.681 29.8199 69.6396 29.7372 69.6396 29.613C69.6396 29.4475 69.681 29.2819 69.7224 29.1578C69.7638 28.9922 69.8466 28.8681 69.9707 28.7853C70.0949 28.6611 70.219 28.5784 70.3432 28.537C70.5087 28.4542 70.6329 28.4128 70.7984 28.4542C71.0053 28.4542 71.2123 28.4956 71.4192 28.6198C71.502 28.6611 71.5847 28.7439 71.6675 28.8267C71.833 28.9922 71.9158 29.1578 71.9986 29.3647C71.9986 29.4888 72.04 29.5716 72.04 29.6958C72.0814 29.8613 72.04 30.0268 71.9572 30.151Z" fill="black"/>
<path d="M67.4876 45.3804C67.3634 45.7528 67.1979 46.1253 66.9496 46.4564C66.8668 46.5392 66.784 46.6219 66.7012 46.7047C66.2874 46.9116 65.7494 46.7047 65.708 46.2081C66.2874 45.877 66.9082 45.6287 67.4876 45.3804Z" fill="black"/>
<path d="M65.8735 33.7098C66.4115 35.7377 66.6184 37.8069 66.577 39.8762C66.5357 40.9108 66.4529 41.904 66.246 42.8973C66.039 43.9733 65.7493 45.0079 65.708 46.0839C65.708 46.1253 65.708 46.1253 65.708 46.1667C64.425 46.8702 63.2662 47.7393 62.3972 48.8153C60.8659 47.5324 59.0864 46.6219 57.0999 46.1253C56.355 45.7528 55.5273 45.4631 54.6996 45.2148C52.6717 44.594 50.4783 44.3457 48.3677 44.4285C47.3331 44.4699 46.3398 44.594 45.3466 44.801C45.7604 40.2486 44.4361 35.5721 41.7875 31.8889C40.0907 29.5299 37.8559 27.5848 35.29 26.2191C36.2005 25.1431 37.1937 24.1085 38.3111 23.2394C39.5941 22.2462 41.0012 21.4599 42.5324 20.8805C45.5949 19.7217 48.9471 19.432 52.1751 20.1769C55.1548 20.8805 57.8448 22.329 60.0796 24.274C62.8524 26.7158 64.9216 30.0265 65.8735 33.7098ZM60.1624 32.7166C60.2452 32.5924 60.2865 32.4269 60.2451 32.2613C60.2451 32.1786 60.2038 32.0544 60.2038 31.9303C60.1624 31.7233 60.0382 31.5578 59.9141 31.4336C59.8313 31.3509 59.7485 31.3095 59.6658 31.2681C59.5002 31.1853 59.2933 31.1026 59.0864 31.1026C58.9208 31.1026 58.7553 31.1439 58.6311 31.1853C58.4656 31.2267 58.3828 31.3095 58.2587 31.4336C58.1345 31.5164 58.0517 31.6819 58.0104 31.8061C57.9276 31.9303 57.9276 32.0958 57.9276 32.2613C57.9276 32.3441 57.969 32.4683 57.969 32.5924C58.0104 32.7993 58.1345 32.9649 58.2587 33.089C58.3414 33.1304 58.4242 33.2132 58.507 33.2546C58.6725 33.3373 58.8794 33.4201 59.0864 33.4201C59.2519 33.4201 59.4175 33.3787 59.5416 33.3373C59.6658 33.296 59.7899 33.2132 59.9141 33.089C60.0382 33.0063 60.121 32.8821 60.1624 32.7166Z" fill="white"/>
<path d="M65.7084 46.208C65.7498 46.7046 66.2878 46.8702 66.7016 46.7046L67.0741 47.4082C65.7911 48.0703 64.5496 48.8566 63.3908 49.7257C63.1011 49.3946 62.77 49.1463 62.439 48.8566C63.308 47.7392 64.4668 46.8702 65.7084 46.208Z" fill="black"/>
<path d="M65.0875 55.8095C65.791 57.7545 66.0807 59.7824 66.0393 61.8517C65.8738 69.7148 60.5765 77.7021 52.8789 79.9369C49.237 80.9715 45.2641 80.7232 41.7464 79.3575C40.629 78.9023 39.553 78.3642 38.5597 77.6607C36.4491 76.2122 34.7109 74.2671 33.428 72.0324C31.5657 68.8043 30.8208 64.9141 31.3588 61.1895C31.8554 57.589 33.5522 54.1541 36.0352 51.5054C36.656 50.8433 37.2768 50.2639 37.9803 49.7259C39.9254 48.1533 42.2016 47.0359 44.6433 46.4151C45.0158 46.3323 45.4296 46.2082 45.8021 46.1668C47.7058 45.7943 49.6923 45.7529 51.6374 46.0012C51.8857 46.0426 52.134 46.084 52.4237 46.1254C53.1686 46.2082 53.8722 46.4151 54.5343 46.6634C54.824 46.7876 55.1137 46.9117 55.4034 46.9945C57.6382 47.6566 59.7488 48.8568 61.487 50.4708C61.7353 50.6777 61.9836 50.926 62.1905 51.1744C63.4735 52.5814 64.4667 54.0713 65.0875 55.8095ZM60.5765 69.5079C60.5765 69.3837 60.6179 69.3009 60.6179 69.1768C60.6179 69.0526 60.6179 68.9285 60.5765 68.8457C60.5351 68.6388 60.411 68.4732 60.2454 68.3077C60.0799 68.1422 59.9144 68.0594 59.7074 67.9766C59.5005 67.9352 59.2936 67.9352 59.0453 67.9766C58.8797 68.018 58.7556 68.1008 58.6314 68.1836C58.5073 68.2663 58.3831 68.3905 58.3003 68.5146C58.1762 68.7216 58.1348 68.9285 58.1348 69.1354C58.1348 69.3423 58.1762 69.5493 58.3003 69.7562C58.4245 69.9217 58.5487 70.0872 58.7142 70.2114C58.797 70.2528 58.9211 70.2942 59.0039 70.3356C59.0866 70.377 59.2108 70.377 59.335 70.377C59.4591 70.377 59.5419 70.377 59.666 70.3356C59.7488 70.2942 59.873 70.2528 59.9557 70.2114C60.1213 70.1286 60.2868 69.9631 60.3696 69.7976L60.5765 69.5079Z" fill="white"/>
<path d="M67.4874 45.3803C66.8666 45.6286 66.2872 45.8769 65.7078 46.1666C65.7078 46.1252 65.7078 46.1252 65.7078 46.0838C65.7492 45.0078 66.0803 43.9732 66.2458 42.8972C66.4114 41.904 66.5355 40.8693 66.5769 39.8761C66.6597 37.8068 66.4114 35.6962 65.8734 33.7097C64.9215 30.0265 62.8523 26.7157 60.0381 24.2326L60.4106 23.8187C60.5761 24.0671 60.9072 24.2326 61.2796 24.0257C61.5279 23.9015 61.7763 23.736 62.0246 23.6118C62.3143 23.8601 62.5626 24.1498 62.8523 24.4395C65.4595 27.2537 67.2391 30.8128 67.984 34.5374C68.3565 36.5239 68.522 38.5518 68.3978 40.5796C68.3151 41.6143 68.1909 42.6489 67.984 43.6421C67.8185 44.2629 67.6943 44.8423 67.4874 45.3803Z" fill="black"/>
<path d="M63.3493 49.7256C64.0528 50.4291 64.6736 51.2154 65.253 52.0431C67.7361 55.8092 68.3983 60.2787 67.7361 64.7069C67.0326 69.0937 64.9219 73.315 61.8594 76.543C61.4042 77.0396 60.9076 77.4949 60.3696 77.9501C59.666 77.5362 59.0866 78.2398 59.2108 78.8606C56.7277 80.6815 53.8721 81.8403 50.7683 82.2541C46.5884 82.7921 42.243 81.8817 38.6839 79.6883C38.6011 79.6055 38.477 79.5641 38.3942 79.4813C38.5597 79.2744 38.6011 78.9847 38.477 78.7364C38.3942 78.5295 38.27 78.4467 38.1045 78.3639L38.5597 77.7018C39.553 78.364 40.5876 78.9433 41.7464 79.3986C45.2641 80.7643 49.237 81.0126 52.8789 79.978C60.5765 77.7846 65.8738 69.7559 66.0393 61.8928C66.0807 59.8235 65.791 57.7956 65.0875 55.8505C64.4667 54.1124 63.4735 52.6225 62.1905 51.2568C61.9836 51.0085 61.7353 50.7602 61.487 50.5533L62.4388 49.9739C62.6458 50.0981 62.8941 50.1394 63.101 49.9739C63.1838 49.8497 63.2665 49.8084 63.3493 49.7256Z" fill="black"/>
<path d="M63.101 49.9326C62.8941 50.0981 62.6458 50.0567 62.4388 49.9326C62.1905 49.7256 62.025 49.3946 62.2319 49.1049C62.2733 49.0221 62.3561 48.9393 62.3974 48.8979C62.7285 49.1876 63.0596 49.4773 63.3493 49.767C63.2665 49.8084 63.1838 49.8498 63.101 49.9326Z" fill="black"/>
<path d="M62.0248 23.612C61.7765 23.7362 61.5282 23.9017 61.2799 24.0259C60.9488 24.2328 60.5763 24.0672 60.4108 23.8189C60.2452 23.5706 60.2452 23.2809 60.4935 23.0326C60.6177 22.9085 60.7832 22.7843 60.9074 22.6602C61.2799 22.9499 61.6523 23.2809 62.0248 23.612Z" fill="black"/>
<path d="M60.9077 22.66C60.7421 22.7842 60.618 22.9083 60.4938 23.0325C60.2455 23.2808 60.2869 23.6119 60.411 23.8188L60.0386 24.2326C57.8038 22.2462 55.1138 20.7977 52.1341 20.1355C48.906 19.3906 45.5538 19.6803 42.4914 20.8391C41.0015 21.4185 39.553 22.2462 38.2701 23.198C37.1113 24.0671 36.1595 25.1017 35.249 26.1777C34.7938 25.9294 34.3385 25.7225 33.8833 25.5156C34.8352 23.8602 36.325 22.4945 37.8563 21.3771C39.4703 20.2183 41.3326 19.3078 43.2363 18.7284C49.4026 16.9075 56.0242 18.6043 60.9077 22.66Z" fill="black"/>
<path d="M59.2107 78.8192C59.0865 78.1984 59.6659 77.4948 60.3695 77.9087C59.997 78.2398 59.6246 78.5295 59.2107 78.8192Z" fill="black"/>
<path d="M59.0864 70.3353C58.9622 70.3353 58.8794 70.2525 58.7967 70.2111C58.6311 70.087 58.4656 69.9628 58.3828 69.7559C58.2587 69.549 58.2173 69.342 58.2173 69.1351C58.2173 68.9282 58.2587 68.7213 58.3828 68.5144C58.4656 68.3902 58.5484 68.266 58.7139 68.1833C58.8381 68.0591 58.9622 68.0177 59.1278 67.9764C59.3347 67.935 59.5416 67.935 59.7899 67.9764C59.9968 68.0177 60.1624 68.1419 60.3279 68.3074C60.4935 68.473 60.5762 68.6385 60.659 68.8454C60.7004 68.9282 60.7004 69.011 60.7004 69.1765C60.7004 69.3007 60.659 69.3834 60.659 69.5076L60.5348 69.7973C60.4107 69.9628 60.2865 70.1284 60.121 70.2111C60.0382 70.2525 59.9141 70.2939 59.8313 70.3353C59.7071 70.3767 59.6244 70.3767 59.5002 70.3767C59.3347 70.3767 59.2105 70.3353 59.0864 70.3353Z" fill="black"/>
<path d="M58.5071 33.2962C58.4244 33.2548 58.3416 33.172 58.2588 33.1306C58.1347 32.9651 58.0105 32.7996 57.9691 32.634C57.9691 32.5512 57.9277 32.4271 57.9277 32.3029C57.9277 32.1374 57.9691 31.9719 58.0105 31.8477C58.0519 31.7235 58.1347 31.5994 58.2588 31.4752C58.383 31.3511 58.5071 31.2683 58.6313 31.2269C58.7554 31.1442 58.921 31.1028 59.0865 31.1442C59.2934 31.1442 59.5004 31.1855 59.6659 31.3097C59.7487 31.3511 59.8314 31.4339 59.9142 31.4752C60.0797 31.5994 60.1625 31.8063 60.2039 31.9719C60.2039 32.0546 60.2453 32.1788 60.2453 32.3029C60.2453 32.4685 60.2039 32.634 60.1625 32.7582C60.1211 32.9237 60.0384 33.0479 59.9142 33.1306C59.8314 33.2548 59.6659 33.3376 59.5417 33.3789C59.4176 33.4617 59.252 33.5031 59.0865 33.4617C58.8796 33.4617 58.714 33.3789 58.5071 33.2962Z" fill="black"/>
<path d="M45.8432 46.2081C45.4708 46.2909 45.0569 46.3736 44.6845 46.4564L44.6431 46.2495C45.0569 46.1667 45.2638 45.7942 45.3052 45.4218C45.3466 45.2148 45.3466 45.0079 45.388 44.801C46.3812 44.5941 47.4159 44.4699 48.4091 44.4285C50.5197 44.3458 52.7131 44.5941 54.741 45.2148C55.5273 45.4632 56.355 45.7528 57.1413 46.1253C59.0864 46.6219 60.866 47.5324 62.4386 48.8153C62.3972 48.8981 62.3144 48.9395 62.273 49.0223C62.0661 49.3119 62.2317 49.6844 62.48 49.85L61.5281 50.4293C59.7899 48.8153 57.7207 47.5738 55.4445 46.953C55.1548 46.8289 54.8651 46.7047 54.5754 46.6219C53.8719 46.3322 53.1684 46.1253 52.4648 46.0839C52.2165 46.0425 51.9682 46.0012 51.6785 45.9598C49.7334 45.7942 47.7469 45.8356 45.8432 46.2081Z" fill="black"/>
<path d="M45.3054 45.4219C45.264 45.8358 45.0157 46.2082 44.6432 46.2496C44.6018 46.2496 44.5191 46.2496 44.4777 46.2496C44.0224 46.2496 43.5672 45.8358 43.6086 45.3805C43.6086 45.3392 43.6086 45.2564 43.6086 45.215C44.188 45.0495 44.8087 44.8839 45.3881 44.7598C45.3467 45.0081 45.3054 45.215 45.3054 45.4219Z" fill="black"/>
<path d="M44.4364 46.2496C44.5192 46.2496 44.5606 46.2496 44.602 46.2496L44.6433 46.4565C42.2016 47.0773 39.9255 48.1947 37.9804 49.7673L37.6907 49.4362C37.8148 49.3121 37.8976 49.1465 37.8148 48.9396C37.7734 48.7327 37.6907 48.4844 37.6079 48.2361C39.3875 46.9117 41.4153 45.8771 43.5259 45.2563C43.5259 45.2977 43.5259 45.3805 43.5259 45.4219C43.5259 45.8771 43.9812 46.2496 44.4364 46.2496Z" fill="black"/>
<path d="M31.1516 70.2941C29.6618 66.528 29.4135 62.3482 30.5308 58.458C31.5655 54.8575 33.7175 51.5467 36.573 49.105C36.6972 49.2291 36.8627 49.3119 36.9869 49.4361C37.1938 49.6016 37.5249 49.6016 37.7318 49.4361L38.0215 49.7671C37.3594 50.3051 36.6972 50.9259 36.0764 51.5467C33.5933 54.1953 31.9379 57.6303 31.3999 61.2308C30.8619 64.914 31.6482 68.8042 33.4692 72.0736C34.7521 74.3084 36.4903 76.2535 38.6009 77.702L38.1457 78.3641C38.0215 78.2813 37.8146 78.2814 37.6491 78.3227C37.4007 78.3641 37.1938 78.4055 36.9455 78.4469C34.3383 76.2949 32.3932 73.4807 31.1516 70.2941Z" fill="black"/>
<path d="M37.8562 48.8979C37.9389 49.1048 37.8562 49.3117 37.732 49.3945C37.5251 49.56 37.2354 49.56 36.9871 49.3945C36.8216 49.2703 36.6974 49.1876 36.5732 49.0634C36.7388 48.9393 36.8629 48.8151 37.0285 48.691C37.2354 48.5254 37.4423 48.3599 37.6906 48.1943C37.732 48.4426 37.8148 48.691 37.8562 48.8979Z" fill="black"/>
<path d="M37.649 78.2813C37.8145 78.2399 37.98 78.2813 38.1456 78.3227C38.3111 78.4055 38.4353 78.5296 38.5181 78.6951C38.6008 78.9435 38.6008 79.2332 38.4353 79.4401C37.9387 79.109 37.4421 78.7779 36.9868 78.4055C37.1937 78.3641 37.4007 78.3227 37.649 78.2813Z" fill="black"/>
<path d="M35.2902 26.2193C35.1661 26.3848 35.0005 26.5504 34.8764 26.7159C34.5867 27.047 34.2142 27.0056 33.9659 26.7573C33.7176 26.5504 33.5934 26.1779 33.759 25.8468C33.8004 25.764 33.8417 25.6399 33.9245 25.5571C34.3798 25.7641 34.835 25.971 35.2902 26.2193Z" fill="black"/>
<path d="M39.3873 31.7648C37.8146 29.9025 35.8282 28.4126 33.6348 27.378L33.9245 26.7572C34.1728 26.9642 34.5866 27.0469 34.8349 26.7159C34.9591 26.5503 35.1246 26.3848 35.2488 26.2192C37.8146 27.5849 40.0494 29.53 41.7462 31.889C44.3948 35.5722 45.7606 40.2487 45.3053 44.8011C44.6845 44.9252 44.1051 45.0494 43.5258 45.2563C43.981 40.4557 42.5325 35.4481 39.3873 31.7648Z" fill="black"/>
<path d="M30.572 45.0077C31.7722 45.4216 32.9723 46.0424 34.007 46.7873C34.545 47.1597 35.0002 47.5736 35.4968 48.0288C35.7037 48.2358 35.952 48.4841 36.159 48.7324C36.2831 48.8979 36.4073 49.0221 36.5728 49.1048C33.7173 51.5465 31.5652 54.8573 30.5306 58.4578C29.4132 62.348 29.6615 66.5693 31.1514 70.2939C32.3929 73.4392 34.2967 76.2533 36.9453 78.364C35.7451 78.6123 34.545 78.9434 33.3448 79.1503C31.9791 79.3986 30.6134 79.5228 29.2063 79.5641C26.4335 79.6469 23.6607 79.2331 21.0949 78.3226C16.8736 76.8327 13.1076 73.7289 11.1625 69.6318C8.88631 64.8725 9.50708 59.12 11.6591 54.4435C11.9902 53.6986 12.404 52.995 12.8179 52.3329C15.0527 48.7324 18.3635 45.9182 22.5433 44.7594C25.192 44.0559 27.9648 44.0973 30.572 45.0077ZM16.0045 63.5068C16.0459 63.424 16.0459 63.2999 16.0459 63.1757C16.0459 62.9688 16.0045 62.7619 15.8804 62.5963C15.7976 62.4308 15.6321 62.3066 15.4665 62.1825C15.301 62.0997 15.0941 62.0169 14.8871 62.0169C14.6802 62.0169 14.4733 62.0583 14.3077 62.1825C14.1422 62.2652 13.9766 62.4308 13.8939 62.5963C13.8111 62.7619 13.7283 62.9688 13.7283 63.1757C13.7283 63.3826 13.7697 63.5896 13.8939 63.7551C13.8939 63.7551 14.0594 63.962 14.0594 64.0034C14.1422 64.0448 14.225 64.1276 14.3077 64.1689C14.3905 64.2103 14.5147 64.2517 14.5974 64.2931C14.8044 64.3345 15.0113 64.3345 15.1768 64.2931C15.3424 64.2517 15.4665 64.2103 15.5493 64.0862C15.6734 64.0034 15.7562 63.8793 15.839 63.7551C15.9631 63.6723 16.0045 63.5896 16.0045 63.5068Z" fill="white"/>
<path d="M26.02 31.061C26.02 30.8955 26.0614 30.7299 26.1028 30.6058C26.1442 30.4402 26.2269 30.3161 26.3511 30.2333C26.4752 30.1091 26.5994 30.0264 26.7649 29.985C26.9305 29.9022 27.0546 29.8608 27.2202 29.8608C27.4271 29.8608 27.634 29.9022 27.841 30.0264L28.0893 30.2333C28.2548 30.3988 28.3376 30.5644 28.4203 30.7713C28.4203 30.8955 28.4617 30.9782 28.4617 31.1024C28.4617 31.2679 28.4203 31.4335 28.379 31.5576C28.3376 31.7232 28.2548 31.8473 28.1307 31.9715C28.0065 32.0956 27.8823 32.1784 27.7582 32.2198C27.5926 32.3025 27.4685 32.3439 27.303 32.3025C27.096 32.3025 26.8891 32.2612 26.6822 32.137C26.5994 32.0956 26.5166 32.0129 26.4339 31.9301C26.2683 31.7645 26.1856 31.599 26.1028 31.3921C26.0614 31.3093 26.0614 31.1852 26.02 31.061Z" fill="black"/>
<path d="M14.3494 64.1691C14.2666 64.0863 14.1839 64.0449 14.1011 64.0036C14.1011 64.0036 13.9356 63.7966 13.9356 63.7553C13.8528 63.5897 13.77 63.3828 13.77 63.1759C13.77 62.9689 13.8114 62.762 13.9356 62.5965C14.0183 62.4309 14.1839 62.3068 14.3494 62.1826C14.5149 62.0999 14.7219 62.0171 14.9288 62.0171C15.1357 62.0171 15.3427 62.0585 15.5082 62.1826C15.6737 62.2654 15.7979 62.4309 15.922 62.5965C16.0048 62.762 16.0876 62.9689 16.0876 63.1759C16.0876 63.3 16.0876 63.3828 16.0462 63.507C16.0048 63.5897 15.9634 63.7139 15.922 63.7966C15.8393 63.9208 15.7565 64.045 15.6323 64.1277C15.5082 64.2105 15.384 64.2933 15.2599 64.3347C15.053 64.376 14.846 64.376 14.6805 64.3347C14.5563 64.2519 14.4322 64.2519 14.3494 64.1691Z" fill="black"/>
<path d="M34.007 46.8289C32.9724 46.084 31.7722 45.4632 30.5721 45.0494C27.9648 44.1389 25.192 44.0975 22.5434 44.8424C18.3635 46.0012 15.0527 48.8154 12.818 52.4159L12.3627 52.1262C12.3627 52.0848 12.3627 52.0434 12.3213 51.9606C12.1558 51.5468 11.9902 51.1329 11.8247 50.7191C14.7217 46.4151 19.1912 43.2698 24.4057 42.6077C27.0958 42.2352 29.8271 42.649 32.3102 43.7251C33.5104 44.2217 34.5864 44.9666 35.5797 45.8357C36.0763 46.2909 36.5315 46.7461 36.9454 47.2428C37.1523 47.4911 37.4006 47.7394 37.5661 48.0291C37.6075 48.1118 37.6489 48.1532 37.6489 48.236C37.442 48.4015 37.1937 48.5671 36.9867 48.7326C36.8212 48.8568 36.6971 48.9809 36.5315 49.1051C36.366 48.9809 36.2418 48.8568 36.1177 48.7326C35.9107 48.4843 35.7038 48.2774 35.4555 48.0291C35.0417 47.5738 34.545 47.2014 34.007 46.8289Z" fill="black"/>
<path d="M11.5767 52.3745C11.4112 52.2504 11.2456 52.0848 11.0801 51.9193C11.1215 51.8365 11.1628 51.7537 11.2042 51.671C11.4112 51.3399 11.6181 51.0088 11.825 50.6777C11.9905 51.0916 12.1975 51.5054 12.3216 51.9193C12.3216 51.9607 12.363 52.0434 12.363 52.0848C12.363 52.4573 11.8664 52.6228 11.5767 52.3745Z" fill="black"/>
<path d="M28.4615 31.0613C28.4615 30.9371 28.4201 30.8544 28.4201 30.7302C28.3787 30.5233 28.2545 30.3577 28.089 30.1922L27.8407 29.9853C27.6338 29.8611 27.4268 29.8197 27.2199 29.8197C27.0544 29.8197 26.8888 29.8611 26.7647 29.9439C26.5991 29.9853 26.475 30.068 26.3508 30.1922C26.2267 30.3164 26.1439 30.4405 26.1025 30.5647C26.0197 30.7302 25.9784 30.8544 26.0198 31.0199C26.0198 31.1441 26.0611 31.2268 26.0611 31.351C26.1025 31.5579 26.2267 31.7234 26.3922 31.889C26.475 31.9304 26.5578 32.0131 26.6405 32.0959C26.8475 32.2201 27.0544 32.2614 27.2613 32.2614C27.4268 32.2614 27.5924 32.2201 27.7165 32.1787C27.8821 32.1373 28.0062 32.0545 28.089 31.9304C28.2132 31.8062 28.2959 31.6821 28.3373 31.5165C28.4615 31.3924 28.5028 31.2268 28.4615 31.0613ZM35.5797 45.7943C34.6278 44.9252 33.5104 44.2217 32.3103 43.6837C29.8272 42.6077 27.0958 42.1938 24.4057 42.5663C19.1912 43.2284 14.7217 46.3737 11.8247 50.6777C11.535 50.057 11.2453 49.4362 10.9556 48.774C10.5418 47.7808 10.2107 46.7462 9.9624 45.7115C9.50716 43.5595 9.4244 41.3247 9.83825 39.1727C10.5832 35.117 12.9835 31.4338 16.2943 28.992C19.7292 26.4676 23.8677 25.3502 28.089 25.8054C29.9927 26.0123 31.855 26.5503 33.5932 27.378C35.7866 28.4127 37.7731 29.9025 39.3457 31.7648C42.4909 35.4481 43.898 40.4143 43.5256 45.2149C41.4149 45.8357 39.3871 46.8703 37.6075 48.1946C37.5662 48.1119 37.5661 48.0705 37.5248 47.9877C37.3592 47.698 37.1109 47.4497 36.904 47.2014C36.5315 46.7048 36.0763 46.2496 35.5797 45.7943Z" fill="white"/>
<path d="M8.88659 68.3075C7.23119 62.9275 8.3072 56.7611 11.08 51.9604C11.2455 52.126 11.4111 52.2915 11.5766 52.4157C11.8663 52.664 12.4043 52.4985 12.4043 52.126L12.8595 52.4157C12.4457 53.0778 12.0318 53.8228 11.7008 54.5263C9.50736 59.2028 8.92797 64.9553 11.2041 69.7146C13.1492 73.8117 16.9153 76.8742 21.1365 78.4054C23.7438 79.3159 26.5166 79.7297 29.248 79.647C30.6137 79.6056 32.0208 79.4814 33.3865 79.2331C34.5866 79.0262 35.7868 78.6951 36.987 78.4468C37.4422 78.8193 37.9388 79.1503 38.4354 79.4814C38.394 79.5642 38.3113 79.6056 38.2285 79.647C36.6973 80.3919 34.9591 80.7644 33.2623 81.0127C31.5655 81.261 29.8274 81.4265 28.0892 81.3851C24.8612 81.3023 21.6745 80.6402 18.7362 79.2331C14.1839 77.0397 10.4178 73.1495 8.88659 68.3075Z" fill="black"/>
<path d="M29.9929 24.3155C31.3586 24.5638 32.6415 24.9777 33.9245 25.5571C33.8831 25.6398 33.8003 25.764 33.7589 25.8467C33.5934 26.1778 33.7175 26.5503 33.9658 26.7572L33.6761 27.378C31.938 26.5503 30.0756 26.0123 28.1719 25.8054C23.9507 25.3501 19.8122 26.4675 16.3772 28.992C13.0664 31.4337 10.6661 35.117 9.9212 39.1727C9.50735 41.3247 9.59012 43.6009 10.0454 45.7115C10.2937 46.7461 10.5834 47.7808 11.0386 48.774C11.3283 49.3948 11.618 50.0155 11.9077 50.6777C11.7007 51.0088 11.4938 51.3399 11.2869 51.6709C11.2455 51.7537 11.2041 51.8365 11.1627 51.9192C10.3764 51.0915 9.79704 50.0155 9.3418 48.9809C8.84518 47.7808 8.47273 46.4978 8.26581 45.2149C7.81057 42.5249 7.93473 39.7521 8.67965 37.1035C9.87982 32.758 12.8595 29.0334 16.6669 26.6744C20.5985 24.2327 25.3992 23.405 29.9929 24.3155Z" fill="black"/>
</svg>
