<svg width="100" height="100" viewBox="0 0 100 100" fill="none" xmlns="http://www.w3.org/2000/svg">
<path d="M93.3291 41.296C95.2108 47.0788 95.5779 53.2747 93.9716 59.1492C92.3194 65.0238 88.7396 70.2099 84.0124 74.0651C79.377 77.8744 73.5942 80.3986 67.6279 80.9494C61.4779 81.5001 55.2821 79.9397 50.0042 76.8188C44.7262 73.698 40.3662 69.0626 37.7043 63.5093C35.1342 58.0478 34.4458 51.7601 35.5472 45.8397C36.6487 39.9192 39.4024 34.2741 43.5789 29.9141C47.9389 25.3705 53.6758 22.525 59.8716 21.4694C66.1133 20.4138 72.401 21.3776 78.1837 23.9018C79.5606 24.4985 81.0292 25.0951 82.2684 25.9212C82.452 26.0589 82.6355 26.0589 82.7732 26.0589C82.8191 26.2425 82.9109 26.3802 83.0945 26.5178C87.8676 30.2812 91.4474 35.5592 93.3291 41.296Z" fill="white"/>
<path d="M22.8803 21.2857C26.506 19.7712 30.4071 19.0827 34.3082 19.404C36.2358 19.5417 38.1175 19.9547 39.9533 20.5973C41.7891 21.2398 43.4413 22.1577 45.1394 23.1215C45.736 23.4428 46.2868 23.8099 46.7916 24.223C46.3327 24.5442 45.8278 24.8655 45.3689 25.2327C40.1827 29.1337 36.4193 34.7788 34.4 40.9288C32.3806 47.0787 32.1052 53.8712 33.941 60.1129C35.6391 65.8498 39.0354 70.8982 43.4872 74.8452C36.9701 78.8381 28.709 79.5265 21.5493 76.9564C14.3438 74.3863 8.83642 68.5117 5.94503 61.5356C2.87006 54.1006 3.28312 45.656 6.35809 38.2669C9.43305 30.7401 15.3994 24.4525 22.8803 21.2857Z" fill="white"/>
<path d="M53.4462 36.1098C53.3544 36.0639 53.2626 35.9721 53.2167 35.8804C53.079 35.7427 52.9873 35.605 52.9414 35.4673C52.8955 35.3755 52.8496 35.2378 52.8496 35.146C52.8037 34.9625 52.8496 34.7789 52.8955 34.6412C52.9414 34.5494 52.9873 34.4576 53.0332 34.3199C53.0332 34.274 53.0791 34.274 53.0791 34.2281C53.2167 34.0446 53.3544 33.9069 53.538 33.7692C53.6298 33.7233 53.7675 33.6774 53.8593 33.6315C54.0428 33.5856 54.2264 33.5856 54.3641 33.6315C54.5477 33.6315 54.6854 33.6774 54.8231 33.8151C55.0525 33.9528 55.1443 34.0904 55.282 34.274C55.3738 34.4576 55.4656 34.6871 55.4197 34.9166C55.4197 35.0083 55.3738 35.146 55.3738 35.2837C55.3279 35.4673 55.2361 35.605 55.1443 35.7427C55.0525 35.8803 54.9148 35.9721 54.7772 36.0639C54.7313 36.0639 54.7313 36.1098 54.6854 36.1098C54.5477 36.2016 54.3641 36.2475 54.2264 36.2475C54.0429 36.2934 53.9052 36.2475 53.7216 36.2016C53.6298 36.2016 53.538 36.1557 53.4462 36.1098Z" fill="black"/>
<path d="M25.2209 18.0731C29.3515 16.834 33.6656 16.6504 37.888 17.6142C39.9532 18.0731 41.9267 18.8074 43.7625 19.8171C45.4606 20.735 46.8834 21.9742 48.1226 23.3969C52.9874 20.5056 58.5866 18.991 64.2317 18.8533C67.5821 18.7616 70.9324 19.2205 74.145 20.0925C75.7973 20.5514 77.4036 21.1481 78.964 21.9283C79.6983 22.2955 80.4327 22.7085 81.1211 23.1675C81.8095 23.6264 82.4521 24.1772 83.1405 24.6361C83.3241 24.7279 83.4158 24.9115 83.4617 25.0492C83.6453 25.0492 83.8289 25.0951 83.9666 25.2327C85.2516 26.1506 86.4449 27.2062 87.5923 28.3077C92.1359 32.8513 95.2568 38.8636 96.4959 45.1971C97.7351 51.6224 97.0926 58.3231 94.3389 64.2435C91.6311 70.1181 87.0416 75.0289 81.5342 78.3792C76.0267 81.7295 69.5555 83.5195 63.1302 83.1523C56.659 82.7392 50.3714 80.215 45.2771 76.2221C45.2312 76.268 45.1394 76.3598 45.0476 76.4057C44.2215 76.9565 43.3495 77.5072 42.4316 77.9662C34.8589 81.7755 25.4963 81.5001 18.0154 77.599C10.9017 73.9274 5.57786 67.0431 3.2831 59.4246C0.758876 51.1176 2.08982 42.0303 6.12859 34.4577C10.0756 26.8391 16.9139 20.5973 25.2209 18.0731ZM34.3081 19.4041C30.4071 19.0828 26.4601 19.7712 22.8803 21.2858C15.4453 24.4525 9.47893 30.7402 6.35806 38.1752C3.2831 45.5643 2.87004 54.009 5.94501 61.4439C8.8364 68.42 14.3438 74.2946 21.5493 76.8647C28.709 79.4348 36.9701 78.7464 43.4871 74.7535C39.0353 70.8065 35.6391 65.7581 33.941 60.0212C32.1052 53.7795 32.3806 46.987 34.3999 40.8371C36.4193 34.6871 40.1827 29.042 45.3688 25.141C45.8278 24.7738 46.3326 24.4525 46.7916 24.1313C46.2409 23.7182 45.6901 23.397 45.1394 23.0298C43.4413 22.066 41.789 21.1481 39.9532 20.5056C38.1174 19.9548 36.2357 19.5418 34.3081 19.4041ZM93.9258 59.1492C95.578 53.2746 95.165 47.0788 93.2833 41.296C91.4016 35.5591 87.8218 30.2812 83.0028 26.6096C82.8192 26.4719 82.7274 26.3342 82.6815 26.1506C82.5438 26.1506 82.3603 26.1048 82.1767 26.013C80.9375 25.1869 79.4689 24.5443 78.092 23.9936C72.3092 21.4694 66.0216 20.5515 59.7799 21.5611C53.5841 22.5708 47.8472 25.4622 43.4871 30.0058C39.3107 34.3659 36.557 40.011 35.4555 45.9314C34.354 51.8519 35.0425 58.1395 37.6126 63.601C40.2286 69.1543 44.6345 73.7438 49.9125 76.9106C55.1904 80.0314 61.3862 81.5919 67.5362 81.0411C73.5484 80.4904 79.3312 77.9661 83.9207 74.1569C88.6938 70.2099 92.2736 65.0238 93.9258 59.1492Z" fill="black"/>
<path d="M17.2811 33.0807C17.2811 33.3102 17.1893 33.4938 17.0975 33.6773C17.0516 33.7691 16.9598 33.8609 16.9139 33.9068C16.7762 34.0445 16.5927 34.1363 16.3632 34.1822C16.2714 34.1822 16.1337 34.2281 16.0419 34.2281C15.8583 34.2281 15.7206 34.1822 15.583 34.0904C15.4453 34.0445 15.3076 33.9527 15.2158 33.815C15.124 33.7232 15.0322 33.5855 14.9863 33.402C14.8945 33.2643 14.8945 33.0807 14.8945 32.943V32.5759C14.8945 32.3464 14.9863 32.1628 15.0781 31.9792C15.124 31.8874 15.2158 31.7956 15.2617 31.7497C15.3994 31.6121 15.583 31.5203 15.8124 31.4744L16.1337 31.4285C16.3173 31.4285 16.455 31.4744 16.5927 31.5662C16.7303 31.6121 16.868 31.7038 16.9598 31.8415C17.0516 31.9333 17.1434 32.071 17.1893 32.2546C17.2811 32.3923 17.2811 32.53 17.2811 32.7135V33.0807Z" fill="black"/>
</svg>
