<svg width="100" height="100" viewBox="0 0 100 100" fill="none" xmlns="http://www.w3.org/2000/svg">
<path d="M84.7474 37.0124C86.2227 41.5462 86.5106 46.4038 85.2512 51.0096C84.3516 54.248 82.6964 57.2345 80.5015 59.7533C78.4505 58.9977 76.3276 60.437 74.7443 61.5524C72.9452 62.8478 71.0381 63.8913 68.9152 64.539C66.8282 65.2226 64.6693 65.5465 62.4743 65.5465C60.3154 65.5465 58.1565 65.1866 56.1055 64.467C53.8026 63.6754 51.7516 62.452 49.6646 61.2646C49.5207 61.1926 49.3768 61.1206 49.2688 61.0127C48.5851 60.365 47.8295 59.7533 46.894 59.5374C46.1384 59.3935 45.3827 59.5014 44.771 59.8612C43.3317 58.242 42.1083 56.4069 41.2088 54.4639C39.1937 50.182 38.654 45.2524 39.5176 40.6107C40.3812 35.969 42.5401 31.5431 45.8145 28.1248C49.2328 24.5625 53.7306 22.3316 58.5883 21.504C63.4819 20.6764 68.4114 21.4321 72.9452 23.4111C74.0247 23.8789 75.1761 24.3466 76.1476 24.9943C76.2916 25.1023 76.4355 25.1023 76.5435 25.1023C76.5794 25.2462 76.6514 25.3541 76.7953 25.4621C80.4655 28.3767 83.2722 32.5146 84.7474 37.0124ZM59.4158 45.3963C59.4158 45.2164 59.3799 45.0365 59.3079 44.8926C59.2 44.7127 59.128 44.6047 58.9481 44.5328C58.8401 44.4608 58.6962 44.4248 58.5883 44.3888C58.4443 44.3528 58.3004 44.3528 58.1924 44.3888C58.1205 44.4248 58.0485 44.4608 57.9406 44.4968C57.7966 44.5687 57.6527 44.7127 57.5807 44.8566C57.5448 44.8926 57.5448 44.8926 57.5448 44.9286C57.5088 45.0005 57.4728 45.0725 57.4368 45.1804C57.4008 45.3244 57.3648 45.4323 57.4008 45.5762C57.4008 45.6482 57.4008 45.7562 57.4728 45.8281C57.5088 45.9721 57.5807 46.08 57.6887 46.152C57.7607 46.2239 57.8326 46.2599 57.8686 46.3319C57.9406 46.3679 58.0125 46.4038 58.0845 46.4398C58.2284 46.4758 58.3364 46.5118 58.4803 46.4758C58.6242 46.4758 58.7322 46.4398 58.8401 46.3679C58.8761 46.3679 58.8761 46.3319 58.9121 46.3319C59.02 46.2599 59.128 46.1879 59.1999 46.08C59.3079 45.9721 59.3439 45.8641 59.3799 45.7202C59.4158 45.5762 59.4158 45.5043 59.4158 45.3963Z" fill="white"/>
<path d="M81.7245 60.7607C82.0124 61.1925 82.1563 61.7683 82.1204 62.344C82.0484 63.4954 81.4007 64.4309 80.6451 65.2585C79.0978 66.9497 77.1548 68.2091 75.0678 69.0727C73.3047 69.7923 70.498 69.9722 69.6705 71.9513C69.2387 72.9947 69.8864 74.0022 70.1022 75.0098C70.3541 76.0173 70.2822 77.0967 69.7064 77.9963C69.1667 78.8599 68.3031 79.4716 67.2956 79.5795C66.3241 79.6875 65.2806 79.1837 64.6689 78.4281C64.0212 77.6365 63.8773 76.665 64.1652 75.6934C64.453 74.8658 65.2086 73.9663 65.1007 73.0307C65.0287 72.2751 64.1652 71.7713 63.4455 71.8433C62.5819 71.9153 61.8983 72.6709 61.6104 73.3905C61.1786 74.3981 61.2506 75.6215 61.5384 76.665C61.8623 77.8164 62.51 78.9678 62.366 80.2272C62.1142 82.3142 59.8113 83.6095 57.9042 82.71C57.0406 82.2782 56.321 81.4146 56.1411 80.4791C55.9252 79.3276 56.4649 78.3561 56.9687 77.3846C57.7963 75.7654 57.4364 73.6424 55.9252 72.563C55.0256 71.9153 53.9462 71.6994 52.9027 71.4115C51.7872 71.1237 50.7077 70.7638 49.6283 70.2241C47.6852 69.2526 45.8861 67.8853 44.5548 66.1581C44.4828 66.0861 44.4108 65.9782 44.3389 65.8702C44.4468 65.8343 44.5907 65.7623 44.6987 65.6903C44.9865 65.5464 45.2384 65.4025 45.5263 65.2585C46.6777 66.7338 48.2969 67.8852 49.9161 68.7128C50.8517 69.1806 51.8232 69.5404 52.8667 69.8283C53.9102 70.1162 54.9537 70.3321 55.9252 70.7998C57.6883 71.6634 58.8038 73.3905 58.9117 75.3696C58.9477 76.3411 58.6958 77.2766 58.264 78.1402C57.8682 78.9318 57.2925 79.7954 57.7243 80.695C58.0841 81.4506 58.8757 81.8824 59.7033 81.6305C60.459 81.3786 61.0707 80.623 61.0707 79.8314C61.0707 78.7159 60.423 77.6005 60.1711 76.521C60.0632 76.1252 59.9912 75.7294 59.9552 75.3336C59.8832 74.6499 59.9192 73.9303 60.1351 73.2826C60.6389 71.8433 61.8623 70.6199 63.3376 70.548C63.6974 70.548 64.0932 70.5839 64.489 70.7279C65.3526 71.0157 66.0722 71.6634 66.3601 72.527C66.6479 73.4625 66.2521 74.3621 65.8563 75.1897C65.4965 75.9093 64.9927 76.7369 65.5325 77.4925C65.9643 78.1402 66.8638 78.4641 67.5835 78.1402C68.3031 77.8524 68.8429 77.0248 68.8429 76.2332C68.8429 75.1537 68.1952 74.1822 68.0872 73.1027C67.9073 71.1237 69.4186 69.7204 71.1097 69.0007C71.2897 68.9287 71.4336 68.8568 71.6135 68.8208C72.621 68.461 73.6645 68.2091 74.636 67.7773C75.6075 67.3815 76.5071 66.8418 77.3707 66.2301C78.2343 65.6184 79.0259 64.8987 79.7455 64.1071C80.2133 63.5674 80.789 62.7398 80.6451 61.9842C81.0049 61.5524 81.3647 61.1565 81.7245 60.7607Z" fill="black"/>
<path d="M81.7248 60.7609C81.365 61.1567 81.0411 61.5525 80.6453 61.9124C80.6093 61.8044 80.5734 61.6605 80.5014 61.5525C80.2495 61.1207 79.7817 60.9768 79.314 60.9768C79.7098 60.581 80.1056 60.1852 80.4654 59.7534H80.5014C81.0051 59.9693 81.4369 60.3291 81.7248 60.7609Z" fill="black"/>
<path d="M74.6722 61.5525C76.2555 60.4371 78.4144 58.9978 80.4294 59.7534C80.0696 60.1852 79.6738 60.581 79.278 60.9768C78.9182 60.9768 78.5583 61.0488 78.2345 61.1207C77.263 61.4086 76.3994 61.9843 75.5718 62.56C73.8446 63.7834 72.1175 64.8269 70.1744 65.5826C67.1519 66.734 63.9135 67.2018 60.6751 66.9499C59.7036 66.8779 58.732 66.734 57.7965 66.5181C55.6376 66.0143 53.5506 65.1508 51.6075 64.1073C49.8804 63.2077 48.1892 62.2362 46.678 61.0128C46.534 60.9768 46.4261 60.9408 46.2821 60.9408C46.0663 60.9049 45.8504 60.9408 45.6704 60.9768C45.3106 60.617 44.9508 60.2212 44.627 59.8614C45.2746 59.5015 46.0303 59.3936 46.7499 59.5375C47.6855 59.7174 48.4411 60.3291 49.1247 61.0128C49.2687 61.0848 49.4126 61.1927 49.5206 61.2647C51.6075 62.4881 53.6585 63.6755 55.9614 64.4671C58.0124 65.1867 60.1713 65.5466 62.3303 65.5466C64.5252 65.5466 66.6841 65.2227 68.7711 64.5391C70.9661 63.8914 72.8731 62.8479 74.6722 61.5525Z" fill="black"/>
<path d="M76.1476 63.7114C75.7158 63.9993 75.32 64.2871 74.8882 64.575C75.212 64.2871 75.6438 63.9993 76.1476 63.7114Z" fill="#D5EEFF"/>
<path d="M74.8881 64.5388C74.4563 64.8627 74.1325 65.1505 73.9885 65.2585C72.1175 66.8057 69.4548 67.4894 67.0439 67.7413C69.8146 67.1655 72.4773 66.0501 74.8881 64.5388Z" fill="white"/>
<path d="M70.894 68.2451C72.4773 67.6694 74.0245 66.9138 75.4638 66.0142C77.3349 64.8628 79.098 63.4594 80.6453 61.8762C80.8252 62.6319 80.2135 63.4595 79.7457 63.9992C79.0261 64.7908 78.2344 65.5105 77.3709 66.1222C76.5073 66.7339 75.6077 67.2376 74.6362 67.6694C73.6647 68.1012 72.6212 68.3171 71.6137 68.7129C71.4338 68.7848 71.2899 68.8568 71.1099 68.8928L70.894 68.2451Z" fill="#D5EEFF"/>
<path d="M68.2315 75.6935C68.4114 76.1253 68.4114 76.701 68.2315 76.773C68.0516 76.8449 67.6918 76.4491 67.5119 76.0533C67.332 75.6215 67.332 75.0458 67.5119 74.9739C67.6918 74.9019 68.0516 75.2977 68.2315 75.6935Z" fill="white"/>
<path d="M68.2315 76.773C68.4114 76.701 68.4114 76.1253 68.2315 75.6935C68.0516 75.2977 67.6918 74.9019 67.5118 74.9739C67.3319 75.0458 67.3319 75.6216 67.5118 76.0533C67.6918 76.4492 68.0516 76.845 68.2315 76.773ZM68.8792 76.1973C68.8792 76.9889 68.3394 77.7805 67.6198 78.1043C66.9001 78.3922 66.0006 78.1044 65.5688 77.4567C65.065 76.701 65.5328 75.8375 65.8926 75.1538C66.2884 74.3262 66.6843 73.4266 66.3964 72.4911C66.1445 71.5915 65.3889 70.9798 64.5253 70.692C64.1295 70.548 63.7337 70.5121 63.3739 70.5121L63.3379 69.8644C65.8926 69.7564 68.4474 69.2167 70.8582 68.3171L71.1101 69.0008C69.4549 69.7564 67.9077 71.1238 68.0876 73.1028C68.2315 74.1103 68.8792 75.1178 68.8792 76.1973Z" fill="#D5EEFF"/>
<path d="M67.0441 67.7414C69.4189 67.4895 72.1176 66.8058 73.9887 65.2586C74.1326 65.1506 74.4205 64.8988 74.8883 64.5389C75.32 64.2511 75.7518 63.9992 76.1476 63.6754C76.1476 63.6754 76.1476 63.6754 76.1836 63.6754C76.6874 63.3515 77.2991 63.0277 77.9827 62.7398C78.3426 62.5599 78.9902 62.2721 79.0622 62.38C79.2061 62.5959 76.5075 64.8628 73.6649 66.3381C67.4039 69.5765 60.3514 69.1087 59.9916 68.1372C59.9916 68.1012 59.9556 68.0652 59.9556 68.0292C61.5028 68.2092 63.05 68.2451 64.5973 68.1012C65.3889 68.0292 66.2525 67.9213 67.0441 67.7414Z" fill="white"/>
<path d="M80.6453 61.9124C79.0981 63.4956 77.3349 64.8989 75.4638 66.0503C74.0246 66.9499 72.4773 67.6695 70.8941 68.2812C68.4833 69.1808 65.9645 69.7205 63.3738 69.8285C62.5822 69.8645 61.7905 69.8645 60.9989 69.7925C55.9254 69.4686 50.9958 67.4896 47.0018 64.3592C46.9658 64.3951 46.8938 64.4671 46.8219 64.5031C46.4261 64.791 45.9943 65.0428 45.5985 65.2587C45.4546 65.0788 45.3466 64.9349 45.2387 64.755C45.0228 64.4671 44.8788 64.1433 44.7349 63.8194C45.0587 63.6395 45.3826 63.4596 45.7064 63.2797C45.3466 62.9558 44.9868 62.596 44.627 62.2362C44.627 62.2002 44.627 62.2002 44.6629 62.1642C44.8428 61.5885 45.2387 61.1207 45.7784 60.9768C47.2537 62.4881 48.9448 63.7834 50.7799 64.8629C53.5866 66.5181 56.717 67.6336 59.9554 68.0294C59.9554 68.0653 59.9554 68.1013 59.9914 68.1373C60.3513 69.1088 67.4038 69.5766 73.6647 66.3382C76.5073 64.8629 79.206 62.596 79.0621 62.3801C78.9901 62.2722 78.3424 62.56 77.9826 62.74C77.2989 63.0278 76.7232 63.3516 76.1835 63.6755C76.6153 63.3516 77.0471 63.0278 77.4429 62.704C78.0906 62.1642 78.7382 61.5885 79.314 60.9768C79.7817 60.9768 80.2495 61.1207 80.5014 61.5525C80.5733 61.6605 80.6093 61.8044 80.6453 61.9124Z" fill="#D5EEFF"/>
<path d="M78.2703 61.1207C78.5582 61.0488 78.954 60.9768 79.3138 60.9768C78.7021 61.5885 78.0904 62.1642 77.4427 62.704C77.0469 63.0278 76.6151 63.3516 76.1834 63.6755C76.1834 63.6755 76.1834 63.6755 76.1474 63.6755C75.6436 63.9993 75.2118 64.2872 74.888 64.5391C72.5132 66.0503 69.8505 67.1298 67.0798 67.7415C64.4531 68.0294 62.1862 67.8135 61.7904 67.7775C61.6105 67.7415 61.1427 67.6336 60.7109 67.5976L60.7829 66.9859C63.9853 67.2737 67.2597 66.806 70.2823 65.6185C72.2253 64.8629 73.9884 63.8194 75.6796 62.596C76.4352 62.0203 77.2988 61.4086 78.2703 61.1207Z" fill="#D5EEFF"/>
<path d="M59.5956 79.6515C59.5236 79.1477 59.7755 78.572 59.9554 78.572C60.1353 78.572 60.2793 79.0038 60.3153 79.2917C60.3872 79.7954 60.1353 80.3711 59.9554 80.3711C59.7755 80.3711 59.6316 79.9394 59.5956 79.6515Z" fill="white"/>
<path d="M59.9554 78.5721C59.7754 78.5721 59.5236 79.1478 59.5955 79.6516C59.6315 79.9394 59.7754 80.3712 59.9554 80.3712C60.1353 80.3712 60.3871 79.7955 60.3152 79.2917C60.2792 79.0039 60.1353 78.5721 59.9554 78.5721ZM58.3002 78.1043C58.732 77.2408 59.0198 76.3052 58.9479 75.3337L59.9913 75.2617C60.0273 75.6575 60.0993 76.0533 60.2072 76.4491C60.4591 77.5286 61.1068 78.6441 61.1068 79.7595C61.1068 80.5871 60.5311 81.3427 59.7395 81.5586C58.9119 81.8105 58.1202 81.3787 57.7604 80.6231C57.3286 79.7595 57.9044 78.8959 58.3002 78.1043Z" fill="#D5EEFF"/>
<path d="M60.2075 73.1748C59.9916 73.8224 59.9556 74.5421 60.0276 75.2258L58.9841 75.2977C58.8761 73.3547 57.7607 71.5915 55.9975 70.728C55.026 70.2602 53.9825 70.0443 52.939 69.7564C51.9315 69.4686 50.924 69.1088 49.9885 68.641C48.3693 67.8134 46.7501 66.6619 45.5986 65.1867C46.0304 64.9348 46.4262 64.6829 46.822 64.431C46.894 64.3951 46.93 64.3231 47.0019 64.2871C50.996 67.4176 55.9256 69.3966 60.9991 69.7205C61.7907 69.7564 62.5823 69.7924 63.3739 69.7564L63.4099 70.4041C61.9346 70.5121 60.6752 71.7355 60.2075 73.1748Z" fill="#D5EEFF"/>
<path d="M64.561 68.1013C63.0137 68.2452 61.4665 68.2092 59.9193 68.0293C59.8833 67.8854 59.9552 67.7774 59.9552 67.7774C60.0632 67.5975 60.351 67.5615 60.6749 67.5975C61.1067 67.6335 61.5744 67.7774 61.7544 67.7774C62.1861 67.8494 64.453 68.0293 67.0438 67.7414C66.2522 67.9213 65.3886 68.0293 64.561 68.1013Z" fill="white"/>
<path d="M57.8323 46.296C57.7603 46.26 57.6884 46.188 57.6524 46.116C57.5444 46.0081 57.4725 45.9002 57.4365 45.7922C57.4005 45.7202 57.3645 45.6123 57.3645 45.5403C57.3285 45.3964 57.3645 45.2525 57.4005 45.1445C57.4365 45.0726 57.4725 45.0006 57.5085 44.8927C57.5085 44.8567 57.5444 44.8567 57.5444 44.8207C57.6524 44.6768 57.7603 44.5688 57.9042 44.4609C57.9762 44.4249 58.0842 44.3889 58.1561 44.3529C58.3001 44.3169 58.444 44.3169 58.5519 44.3529C58.6959 44.3529 58.8038 44.3889 58.9118 44.4968C59.0917 44.6048 59.1636 44.7127 59.2716 44.8567C59.3436 45.0006 59.4155 45.1805 59.3795 45.3604C59.3795 45.4324 59.3435 45.5403 59.3435 45.6483C59.3076 45.7922 59.2356 45.9002 59.1636 46.0081C59.0917 46.1161 58.9837 46.188 58.8758 46.26C58.8398 46.26 58.8398 46.296 58.8038 46.296C58.6959 46.3679 58.5519 46.4039 58.444 46.4039C58.3001 46.4399 58.1921 46.4039 58.0482 46.3679C57.9762 46.3679 57.9043 46.3319 57.8323 46.296Z" fill="black"/>
<path d="M50.7437 64.8628C48.9086 63.7833 47.2534 62.4879 45.7422 60.9767C45.9221 60.9407 46.138 60.9047 46.3539 60.9407C46.4978 60.9767 46.6058 60.9767 46.7497 61.0127C48.2609 62.2361 49.9521 63.2076 51.6793 64.1071C53.6583 65.1506 55.7093 66.0142 57.8683 66.518C58.8038 66.7338 59.7753 66.8778 60.7468 66.9497L60.6749 67.5615C60.351 67.5255 60.0632 67.5615 59.9552 67.7414C59.9552 67.7414 59.9192 67.8493 59.9192 67.9932C56.6808 67.6334 53.5504 66.518 50.7437 64.8628Z" fill="#D5EEFF"/>
<path d="M44.6988 59.8613C45.0226 60.2571 45.3825 60.6169 45.7423 60.9768C45.2026 61.1207 44.8067 61.5525 44.6268 62.1642C44.6268 62.2002 44.6268 62.2002 44.5908 62.2362C44.231 61.8763 43.8712 61.5165 43.5474 61.1207C43.6553 60.8688 43.8352 60.6529 44.0151 60.4011C44.231 60.1852 44.4469 60.0053 44.6988 59.8613Z" fill="black"/>
<path d="M45.2387 64.7549C45.3466 64.9348 45.4906 65.0787 45.5985 65.2586C45.3107 65.4026 45.0588 65.5465 44.7709 65.6904C44.663 65.7624 44.519 65.7984 44.4111 65.8703C44.0872 65.4026 43.7994 64.8988 43.5835 64.3591C43.9793 64.1792 44.3391 63.9992 44.7349 63.8193C44.8429 64.1432 45.0228 64.467 45.2387 64.7549Z" fill="black"/>
<path d="M45.7063 63.2796C45.3825 63.4595 45.0587 63.6394 44.7348 63.8193C44.5549 63.3156 44.4829 62.7758 44.6269 62.2361C44.9507 62.5959 45.3105 62.9198 45.7063 63.2796Z" fill="#D5EEFF"/>
<path d="M44.5911 62.2361C44.4472 62.7758 44.5192 63.3155 44.6991 63.8193C44.3393 64.0352 43.9434 64.2151 43.5476 64.359C43.1158 63.3155 43.0079 62.1641 43.5117 61.1206C43.9075 61.5164 44.2313 61.8762 44.5911 62.2361Z" fill="black"/>
<path d="M29.4065 43.2734C29.4785 43.3814 29.4785 43.4893 29.4785 43.6332C29.4785 43.7412 29.4785 43.8132 29.4785 43.9211C29.4785 44.101 29.4065 44.2449 29.3346 44.3889C29.2986 44.4608 29.2266 44.5328 29.1906 44.5688C29.0827 44.6767 28.9388 44.7487 28.7589 44.7847C28.6869 44.7847 28.5789 44.8207 28.507 44.8207C28.3631 44.8207 28.2551 44.7847 28.1472 44.7127C28.0392 44.6767 27.9313 44.6048 27.8593 44.4968C27.7873 44.4248 27.7154 44.3169 27.6794 44.173C27.6074 44.065 27.6074 43.9211 27.6074 43.8131C27.6074 43.7052 27.6074 43.6332 27.6074 43.5253C27.6074 43.3454 27.6794 43.2014 27.7513 43.0575C27.7873 42.9855 27.8593 42.9136 27.8953 42.8776C28.0032 42.7697 28.1472 42.6977 28.3271 42.6617L28.5789 42.6257C28.7229 42.6257 28.8308 42.6617 28.9388 42.7337C29.0467 42.7697 29.1547 42.8416 29.2266 42.9496C29.2986 43.0575 29.3706 43.1295 29.4065 43.2734Z" fill="black"/>
<path d="M29.5143 21.3241C32.3569 20.1366 35.4154 19.5969 38.4739 19.8488C39.9852 19.9567 41.4605 20.2806 42.8998 20.7843C44.3391 21.2881 45.6344 22.0077 46.9658 22.7634C47.4336 23.0152 47.8654 23.3031 48.2612 23.6269C47.9013 23.8788 47.5055 24.1307 47.1457 24.4186C43.0797 27.4771 40.1291 31.9029 38.5459 36.7245C36.9627 41.5462 36.7468 46.8716 38.1861 51.7652C39.2296 55.2914 41.1007 58.4579 43.5115 61.1565C43.0077 62.2 43.1157 63.3515 43.5475 64.395C38.8338 66.5179 33.3285 66.6618 28.4709 64.9347C22.8216 62.9197 18.5037 58.3139 16.2368 52.8446C13.826 47.0155 14.1499 40.3947 16.5607 34.6016C18.9715 28.7364 23.6492 23.8068 29.5143 21.3241ZM29.4784 43.6331C29.4784 43.4892 29.4784 43.3813 29.4064 43.2733C29.3704 43.1654 29.2984 43.0574 29.2265 42.9495C29.1545 42.8415 29.0466 42.7696 28.9386 42.7336C28.8307 42.6616 28.7227 42.6256 28.5788 42.6256L28.3269 42.6616C28.183 42.6976 28.0391 42.7696 27.8951 42.8775C27.8592 42.9495 27.7872 43.0214 27.7512 43.0574C27.6792 43.2013 27.6073 43.3453 27.6073 43.5252C27.6073 43.6331 27.6073 43.7051 27.6073 43.813C27.6073 43.957 27.6073 44.0649 27.6792 44.1729C27.7152 44.2808 27.7872 44.3888 27.8591 44.4967C27.9311 44.6047 28.0391 44.6766 28.147 44.7126C28.255 44.7846 28.3629 44.8206 28.5068 44.8206C28.5788 44.8206 28.6867 44.8206 28.7587 44.7846C28.9026 44.7486 29.0466 44.6766 29.1905 44.5687C29.2265 44.4967 29.2984 44.4607 29.3344 44.3888C29.4064 44.2448 29.4784 44.1009 29.4784 43.921C29.4784 43.8131 29.4784 43.7051 29.4784 43.6331Z" fill="white"/>
<path d="M80.4654 59.7533C82.6603 57.1986 84.3155 54.248 85.2151 51.0096C86.5105 46.4038 86.1866 41.5462 84.7113 37.0124C83.2361 32.5146 80.4294 28.3767 76.6513 25.4981C76.5074 25.3901 76.4354 25.2822 76.3994 25.1383C76.2915 25.1383 76.1475 25.1023 76.0036 25.0303C75.0321 24.3826 73.8806 23.8789 72.8012 23.4471C68.2674 21.4681 63.3378 20.7484 58.4442 21.54C53.5866 22.3316 49.0888 24.5985 45.6705 28.1608C42.3961 31.5791 40.2371 36.0049 39.3735 40.6467C38.51 45.2884 39.0497 50.218 41.0647 54.4999C42.0003 56.4789 43.2237 58.278 44.627 59.8972C44.3751 60.0411 44.1592 60.2211 43.9433 60.473C43.7634 60.6888 43.5835 60.9407 43.4755 61.1926C41.0287 58.4939 39.1576 55.2915 38.1501 51.8012C36.7108 46.9076 36.9267 41.5822 38.51 36.7606C40.0932 31.9389 43.0437 27.5131 47.1098 24.4546C47.4696 24.1667 47.8654 23.9149 48.2252 23.663C47.7934 23.3391 47.3616 23.0873 46.9298 22.7994C45.5985 22.0438 44.3031 21.3241 42.8638 20.8204C41.4245 20.3166 39.9493 19.9928 38.438 19.8848C35.3795 19.633 32.285 20.1727 29.4784 21.3601C23.6492 23.8429 18.9715 28.7725 16.5247 34.6016C14.1139 40.3948 13.7901 47.0155 16.2009 52.8447C18.4678 58.314 22.7857 62.9197 28.4349 64.9348C33.3285 66.6619 38.8338 66.518 43.5115 64.395C43.7274 64.9348 44.0153 65.4385 44.3391 65.9063C38.474 68.7129 31.3135 68.425 25.5563 65.4745C19.979 62.5959 15.8051 57.1986 14.006 51.2255C12.0269 44.7127 13.0704 37.5882 16.2369 31.6511C19.4033 25.714 24.7647 20.8204 31.2775 18.8413C34.5159 17.8698 37.8983 17.7259 41.2086 18.4815C42.8279 18.8413 44.3751 19.4171 45.8144 20.2087C47.1457 20.9283 48.2612 21.8998 49.2327 23.0153C53.0469 20.7484 57.4367 19.561 61.8625 19.453C64.4892 19.3811 67.116 19.7409 69.6347 20.4246C70.9301 20.7844 72.1895 21.2522 73.4129 21.8639C73.9886 22.1517 74.5643 22.4756 75.104 22.8354C75.6438 23.1952 76.1475 23.627 76.6873 23.9868C76.8312 24.0588 76.9032 24.2027 76.9392 24.3107C77.0831 24.3107 77.227 24.3466 77.3349 24.4546C78.3425 25.1742 79.278 26.0018 80.1776 26.8654C83.7398 30.4277 86.1866 35.1414 87.1581 40.1069C88.1297 45.1445 87.6259 50.3979 85.467 55.0396C84.4954 57.1626 83.2001 59.1056 81.6888 60.8687C81.401 60.437 80.9692 60.0771 80.4654 59.8612C80.4654 59.7533 80.4654 59.7533 80.4654 59.7533Z" fill="black"/>
</svg>
