<svg width="100" height="100" viewBox="0 0 100 100" fill="none" xmlns="http://www.w3.org/2000/svg">
    <path d="M93.325 41.2949C95.2066 47.0774 95.5738 53.273 93.9675 59.1473C92.3154 65.0216 88.7357 70.2075 84.0087 74.0625C79.3735 77.8716 73.591 80.3957 67.6249 80.9465C61.4753 81.4972 55.2797 79.9368 50.002 76.8161C44.7243 73.6954 40.3645 69.0602 37.7027 63.5071C35.1327 58.0459 34.4443 51.7585 35.5457 45.8383C36.6472 39.9181 39.4008 34.2733 43.577 29.9135C47.9369 25.3701 53.6735 22.5247 59.869 21.4692C66.1105 20.4136 72.3978 21.3774 78.1803 23.9015C79.5571 24.4981 81.0257 25.0947 82.2648 25.9208C82.4484 26.0585 82.6319 26.0584 82.7696 26.0584C82.8155 26.242 82.9073 26.3797 83.0909 26.5174C87.8637 30.2806 91.4434 35.5583 93.325 41.2949ZM60.5574 51.529C60.5574 51.2996 60.5115 51.0701 60.4197 50.8865C60.2821 50.6571 60.1903 50.5194 59.9608 50.4276C59.8231 50.3358 59.6396 50.2899 59.5019 50.244C59.3183 50.1982 59.1347 50.1982 58.9971 50.244C58.9053 50.2899 58.8135 50.3358 58.6758 50.3817C58.4922 50.4735 58.3087 50.6571 58.2169 50.8407C58.171 50.8865 58.171 50.8866 58.171 50.9324C58.1251 51.0242 58.0792 51.116 58.0333 51.2537C57.9874 51.4373 57.9415 51.5749 57.9874 51.7585C57.9874 51.8503 57.9874 51.988 58.0792 52.0798C58.1251 52.2633 58.2169 52.401 58.3546 52.4928C58.4463 52.5846 58.5381 52.6305 58.584 52.7223L58.8594 52.86C59.0429 52.9058 59.1806 52.9517 59.3642 52.9058C59.5478 52.9058 59.6855 52.8599 59.8231 52.7682C59.869 52.7682 59.869 52.7223 59.9149 52.7223C60.0526 52.6305 60.1903 52.5387 60.2821 52.401C60.4197 52.2633 60.4656 52.1257 60.5115 51.9421C60.5574 51.7585 60.5574 51.6667 60.5574 51.529Z" fill="white"/>
    <path d="M22.8794 21.2857C26.505 19.7712 30.4059 19.0828 34.3068 19.4041C36.2343 19.5418 38.1159 19.9548 39.9516 20.5973C41.7874 21.2398 43.4395 22.1577 45.1375 23.1214C45.7341 23.4427 46.2849 23.8098 46.7897 24.2228C46.3308 24.5441 45.8259 24.8653 45.367 25.2325C40.1811 29.1334 36.4179 34.7782 34.3986 40.9279C32.3793 47.0775 32.1039 53.8697 33.9397 60.1111C35.6377 65.8478 39.0338 70.896 43.4854 74.8428C36.9686 78.8355 28.7079 79.5239 21.5485 76.9539C14.3434 74.3839 8.8362 68.5095 5.94494 61.5338C2.87011 54.0992 3.28314 45.6549 6.35797 38.2661C9.4328 30.7396 15.3989 24.4523 22.8794 21.2857ZM22.3746 49.2804C22.3746 49.0968 22.3746 48.9592 22.2828 48.8215C22.2369 48.6838 22.1452 48.5461 22.0534 48.4084C21.9616 48.2708 21.8239 48.179 21.6862 48.1331C21.5485 48.0413 21.4109 47.9954 21.2273 47.9954L20.9061 48.0413C20.7225 48.0872 20.5389 48.179 20.3553 48.3166C20.3094 48.4084 20.2177 48.5002 20.1718 48.5461C20.08 48.7297 19.9882 48.9133 19.9882 49.1427V49.5099C19.9882 49.6934 19.9882 49.8311 20.08 49.9688C20.1259 50.1065 20.2176 50.2442 20.3094 50.3818C20.4012 50.5195 20.5389 50.6113 20.6766 50.6572C20.8143 50.749 20.9519 50.7949 21.1355 50.7949C21.2273 50.7949 21.365 50.7949 21.4568 50.749C21.6403 50.7031 21.8239 50.6113 22.0075 50.4736C22.0534 50.3818 22.1452 50.3359 22.191 50.2442C22.2828 50.0606 22.3746 49.877 22.3746 49.6476V49.2804Z" fill="white"/>
    <path d="M58.538 52.6762C58.4462 52.6303 58.3544 52.5385 58.3085 52.4467C58.1708 52.3091 58.0791 52.1714 58.0332 52.0337C57.9873 51.9419 57.9414 51.8043 57.9414 51.7125C57.8955 51.5289 57.9414 51.3453 57.9873 51.2076C58.0332 51.1159 58.0791 51.0241 58.125 50.8864C58.125 50.8405 58.1708 50.8405 58.1708 50.7946C58.3085 50.611 58.4462 50.4734 58.6298 50.3357C58.7216 50.2898 58.8592 50.2439 58.951 50.198C59.1346 50.1521 59.3182 50.1521 59.4558 50.198C59.6394 50.198 59.7771 50.2439 59.9148 50.3816C60.1442 50.5192 60.236 50.6569 60.3737 50.8405C60.4655 51.0241 60.5573 51.2535 60.5114 51.483C60.5114 51.5748 60.4655 51.7125 60.4655 51.8501C60.4196 52.0337 60.3278 52.1714 60.236 52.3091C60.1442 52.4468 60.0066 52.5385 59.8689 52.6303C59.823 52.6303 59.823 52.6762 59.7771 52.6762C59.6394 52.768 59.4558 52.8139 59.3182 52.8139C59.1346 52.8598 58.9969 52.8139 58.8133 52.768C58.7216 52.768 58.6298 52.7221 58.538 52.6762Z" fill="black"/>
    <path d="M25.2199 18.0731C29.3502 16.834 33.6642 16.6504 37.8863 17.6141C39.9515 18.0731 41.9249 18.8074 43.7606 19.817C45.4587 20.7349 46.8814 21.974 48.1205 23.3967C52.9851 20.5054 58.5841 18.9909 64.2289 18.8533C67.5791 18.7615 70.9293 19.2204 74.1418 20.0924C75.7939 20.5513 77.4002 21.1479 78.9606 21.9281C79.6948 22.2952 80.4291 22.7083 81.1175 23.1672C81.8059 23.6261 82.4484 24.1768 83.1368 24.6358C83.3204 24.7276 83.4122 24.9111 83.4581 25.0488C83.6416 25.0488 83.8252 25.0947 83.9629 25.2324C85.2479 26.1502 86.4411 27.2058 87.5884 28.3072C92.1318 32.8506 95.2525 38.8626 96.4917 45.1958C97.7308 51.6208 97.0883 58.3212 94.3347 64.2414C91.627 70.1157 87.0377 75.0262 81.5306 78.3764C76.0234 81.7266 69.5525 83.5165 63.1275 83.1493C56.6566 82.7363 50.3692 80.2121 45.2751 76.2195C45.2292 76.2654 45.1374 76.3572 45.0456 76.403C44.2196 76.9538 43.3476 77.5045 42.4297 77.9634C34.8574 81.7725 25.4952 81.4972 18.0147 77.5963C10.9013 73.9248 5.57769 67.0409 3.28305 59.4226C0.758932 51.116 2.08982 42.0292 6.1284 34.4569C10.0752 26.8386 16.9133 20.5972 25.2199 18.0731ZM34.3067 19.404C30.4058 19.0827 26.459 19.7711 22.8793 21.2856C15.4447 24.4522 9.47859 30.7395 6.35787 38.1742C3.28304 45.563 2.87 54.0073 5.94483 61.4419C8.83609 68.4177 14.3432 74.292 21.5484 76.862C28.7077 79.432 36.9685 78.7436 43.4853 74.7509C39.0337 70.8041 35.6376 65.7559 33.9395 60.0192C32.1038 53.7778 32.3792 46.9856 34.3985 40.836C36.4178 34.6863 40.181 29.0415 45.3669 25.1406C45.8258 24.7734 46.3306 24.4522 46.7896 24.1309C46.2389 23.7179 45.6881 23.3967 45.1374 23.0295C43.4394 22.0658 41.7872 21.1479 39.9515 20.5054C38.1158 19.9547 36.2342 19.5416 34.3067 19.404ZM93.9217 59.1473C95.5738 53.273 95.1608 47.0774 93.2792 41.2949C91.3975 35.5583 87.8179 30.2806 82.9991 26.6092C82.8156 26.4715 82.7238 26.3338 82.6779 26.1502C82.5402 26.1502 82.3566 26.1043 82.1731 26.0126C80.9339 25.1865 79.4654 24.544 78.0886 23.9933C72.3061 21.4691 66.0187 20.5513 59.7773 21.5609C53.5817 22.5706 47.8451 25.4618 43.4853 30.0052C39.309 34.3651 36.5554 40.0099 35.454 45.9301C34.3526 51.8503 35.041 58.1376 37.611 63.5989C40.2269 69.1519 44.6326 73.7412 49.9103 76.9079C55.188 80.0286 61.3835 81.5889 67.5332 81.0382C73.5452 80.4875 79.3277 77.9634 83.917 74.1543C88.6899 70.2075 92.2695 65.0216 93.9217 59.1473Z" fill="black"/>
    <path d="M22.3747 49.6476C22.3747 49.8771 22.2829 50.0607 22.1911 50.2442C22.1452 50.336 22.0535 50.4278 22.0076 50.4737C21.8699 50.6114 21.6863 50.7032 21.4568 50.7491C21.3651 50.7491 21.2274 50.795 21.1356 50.795C20.952 50.795 20.8144 50.7491 20.6767 50.6573C20.539 50.6114 20.4013 50.5196 20.3095 50.3819C20.2177 50.2901 20.126 50.1524 20.0801 49.9689C19.9883 49.8312 19.9883 49.6476 19.9883 49.5099V49.1428C19.9883 48.9133 20.0801 48.7298 20.1719 48.5462C20.2177 48.4544 20.3095 48.3626 20.3554 48.3167C20.4931 48.179 20.6767 48.0873 20.9061 48.0414L21.2274 47.9955C21.411 47.9955 21.5486 48.0414 21.6863 48.1332C21.824 48.179 21.9617 48.2708 22.0535 48.4085C22.1453 48.5003 22.237 48.638 22.2829 48.8216C22.3747 48.9592 22.3747 49.0969 22.3747 49.2805V49.6476Z" fill="black"/>
</svg>
