<svg width="100" height="100" viewBox="0 0 100 100" fill="none" xmlns="http://www.w3.org/2000/svg">
<path d="M92.3696 41.9078C94.2216 47.5931 94.583 53.6845 93.002 59.4601C91.3758 65.2356 87.8524 70.3344 83.1996 74.1246C78.6372 77.8697 72.9455 80.3514 67.0731 80.8928C61.0201 81.4343 54.9218 79.9002 49.727 76.8319C44.5322 73.7636 40.2409 69.2063 37.6209 63.7466C35.0912 58.3772 34.4136 52.1955 35.4978 46.3748C36.5819 40.5542 39.2922 35.0042 43.4029 30.7177C47.6943 26.2506 53.3408 23.4531 59.439 22.4153C65.5825 21.3775 71.7711 22.3251 77.4628 24.8067C78.8179 25.3933 80.2634 25.9799 81.4831 26.7921C81.6638 26.9274 81.8445 26.9275 81.98 26.9275C82.0251 27.1079 82.1155 27.2433 82.2962 27.3787C86.9941 31.0786 90.5175 36.2676 92.3696 41.9078Z" fill="white"/>
<path d="M53.4733 70.8826C53.4028 70.8482 53.3322 70.7794 53.2969 70.7107C53.191 70.6075 53.1205 70.5044 53.0852 70.4012C53.0499 70.3324 53.0146 70.2293 53.0146 70.1605C52.9793 70.023 53.0146 69.8854 53.0499 69.7823C53.0852 69.7135 53.1205 69.6447 53.1558 69.5416C53.1558 69.5072 53.191 69.5072 53.191 69.4728C53.2969 69.3353 53.4028 69.2321 53.5439 69.1289C53.6145 69.0946 53.7203 69.0602 53.7909 69.0258C53.932 68.9914 54.0732 68.9914 54.179 69.0258C54.3202 69.0258 54.426 69.0602 54.5319 69.1633C54.7083 69.2665 54.7789 69.3697 54.8848 69.5072C54.9553 69.6447 55.0259 69.8166 54.9906 69.9886C54.9906 70.0573 54.9553 70.1605 54.9553 70.2637C54.9201 70.4012 54.8495 70.5044 54.7789 70.6075C54.7083 70.7107 54.6025 70.7794 54.4966 70.8482C54.4613 70.8482 54.4613 70.8826 54.426 70.8826C54.3202 70.9514 54.179 70.9858 54.0732 70.9858C53.932 71.0201 53.8262 70.9858 53.685 70.9514C53.6145 70.9514 53.5439 70.917 53.4733 70.8826Z" fill="black"/>
<path d="M23.6212 22.888C27.1662 21.4284 30.9804 20.765 34.7946 21.0746C36.6792 21.2073 38.519 21.6054 40.3139 22.2246C42.1089 22.8438 43.7243 23.7283 45.3846 24.6571C45.9679 24.9667 46.5064 25.3206 47 25.7186C46.5513 26.0282 46.0577 26.3378 45.6089 26.6917C40.5383 30.4511 36.8587 35.8913 34.8843 41.8179C32.9099 47.7446 32.6407 54.2905 34.4356 60.3056C36.0959 65.8342 39.4165 70.6993 43.7691 74.503C37.3972 78.3509 29.3201 79.0144 22.3199 76.5375C15.2748 74.0607 9.89008 68.3994 7.06308 61.6767C4.05659 54.5116 4.46045 46.3735 7.46693 39.2527C10.4734 31.9991 16.3069 25.9398 23.6212 22.888Z" fill="white"/>
<path d="M25.7082 19.0537C29.7475 17.837 33.9664 17.6567 38.0955 18.603C40.1152 19.0537 42.0451 19.7747 43.8403 20.7661C45.5009 21.6674 46.8923 22.8841 48.1041 24.281C52.8615 21.442 58.3371 19.9549 63.8575 19.8198C67.1339 19.7296 70.4102 20.1803 73.5519 21.0365C75.1677 21.4871 76.7385 22.0729 78.2645 22.839C78.9826 23.1995 79.7007 23.6051 80.3739 24.0557C81.0472 24.5064 81.6755 25.0471 82.3487 25.4978C82.5283 25.5879 82.618 25.7681 82.6629 25.9033C82.8424 25.9033 83.022 25.9484 83.1566 26.0836C84.4133 26.9848 85.5802 28.0213 86.7022 29.1028C91.1455 33.5641 94.1975 39.4674 95.4093 45.6862C96.6211 51.995 95.9927 58.5743 93.2998 64.3875C90.6518 70.1556 86.1637 74.9774 80.7779 78.267C75.3921 81.5566 69.0638 83.3141 62.7804 82.9536C56.4521 82.548 50.3033 80.0695 45.3214 76.149C45.2765 76.1941 45.1868 76.2842 45.097 76.3293C44.2891 76.87 43.4364 77.4108 42.5388 77.8615C35.1333 81.6017 25.9774 81.3313 18.6617 77.5009C11.7051 73.8958 6.49885 67.1363 4.25477 59.6558C1.78628 51.4993 3.08784 42.5768 7.03742 35.1413C10.8972 27.6608 17.5846 21.5322 25.7082 19.0537ZM34.5947 20.3605C30.7798 20.0451 26.92 20.721 23.4192 22.2081C16.1484 25.3175 10.3138 31.4912 7.26183 38.7915C4.25476 46.0467 3.85083 54.3383 6.8579 61.6386C9.68544 68.4883 15.0712 74.2564 22.1176 76.7799C29.1192 79.3035 37.1978 78.6275 43.571 74.707C39.2175 70.8316 35.8963 65.8746 34.2357 60.2416C32.4404 54.113 32.7097 47.4436 34.6845 41.4051C36.6593 35.3666 40.3396 29.8238 45.4112 25.9934C45.86 25.6329 46.3537 25.3175 46.8025 25.0021C46.2639 24.5965 45.7253 24.281 45.1868 23.9205C43.5261 22.9742 41.9104 22.0729 40.1152 21.442C38.3199 20.9013 36.4797 20.4957 34.5947 20.3605ZM92.8959 59.3854C94.5116 53.6173 94.1077 47.5338 92.2676 41.8558C90.4274 36.2228 86.9266 31.0405 82.2141 27.4355C82.0346 27.3003 81.9448 27.1651 81.8999 26.9848C81.7653 26.9848 81.5857 26.9398 81.4062 26.8497C80.1944 26.0385 78.7582 25.4076 77.4118 24.8669C71.7567 22.3884 65.6079 21.4871 59.504 22.4785C53.445 23.4699 47.8348 26.3089 43.571 30.7702C39.4868 35.0512 36.7939 40.594 35.7168 46.4072C34.6396 52.2204 35.3128 58.394 37.8262 63.7566C40.3844 69.2093 44.6931 73.7156 49.8545 76.825C55.0158 79.8893 61.0749 81.4214 67.089 80.8807C72.9685 80.3399 78.6236 77.8614 83.1117 74.1212C87.7794 70.2457 91.2802 65.1536 92.8959 59.3854Z" fill="black"/>
<path d="M18 68.1803C18 68.3443 17.9231 68.4754 17.8461 68.6066C17.8077 68.6721 17.7308 68.7377 17.6923 68.7705C17.5769 68.8689 17.4231 68.9344 17.2308 68.9672C17.1538 68.9672 17.0385 69 16.9615 69C16.8077 69 16.6923 68.9672 16.5769 68.9016C16.4615 68.8689 16.3462 68.8033 16.2692 68.7049C16.1923 68.6394 16.1154 68.541 16.0769 68.4098C16 68.3115 16 68.1803 16 68.082C16 67.9836 16 67.918 16 67.8197C16 67.6557 16.0769 67.5246 16.1538 67.3934C16.1923 67.3279 16.2692 67.2623 16.3077 67.2295C16.4231 67.1312 16.5769 67.0656 16.7692 67.0328L17.0385 67C17.1923 67 17.3077 67.0328 17.4231 67.0984C17.5385 67.1311 17.6538 67.1967 17.7308 67.2951C17.8077 67.3607 17.8846 67.459 17.9231 67.5902C18 67.6885 18 67.7869 18 67.918C18 67.9836 18 68.082 18 68.1803Z" fill="black"/>
</svg>
