<svg width="100" height="100" viewBox="0 0 100 100" fill="#000" xmlns="http://www.w3.org/2000/svg">
<path d="M93.3252 41.2948C95.2069 47.0773 95.574 53.2729 93.9677 59.1472C92.3156 65.0215 88.736 70.2074 84.009 74.0624C79.3738 77.8715 73.5913 80.3956 67.6252 80.9463C61.4755 81.497 55.28 79.9367 50.0023 76.816C44.7246 73.6952 40.3648 69.0601 37.703 63.507C35.133 58.0457 34.4446 51.7584 35.546 45.8382C36.6474 39.918 39.401 34.2732 43.5773 29.9133C47.9371 25.3699 53.6737 22.5246 59.8693 21.469C66.1107 20.4135 72.398 21.3773 78.1806 23.9014C79.5574 24.498 81.0259 25.0946 82.265 25.9207C82.4486 26.0583 82.6322 26.0583 82.7699 26.0583C82.8158 26.2419 82.9075 26.3796 83.0911 26.5173C87.864 30.2805 91.4436 35.5582 93.3252 41.2948ZM60.5577 51.5289C60.5577 51.2995 60.5118 51.07 60.42 50.8864C60.2823 50.657 60.1905 50.5193 59.9611 50.4275C59.8234 50.3357 59.6398 50.2898 59.5021 50.2439C59.3186 50.198 59.135 50.198 58.9973 50.2439C58.9055 50.2898 58.8137 50.3357 58.676 50.3816C58.4925 50.4734 58.3089 50.657 58.2171 50.8405C58.1712 50.8864 58.1712 50.8864 58.1712 50.9323C58.1253 51.0241 58.0794 51.1159 58.0336 51.2536C57.9877 51.4372 57.9418 51.5748 57.9877 51.7584C57.9877 51.8502 57.9877 51.9879 58.0794 52.0796C58.1253 52.2632 58.2171 52.4009 58.3548 52.4927C58.4466 52.5845 58.5384 52.6304 58.5843 52.7221L58.8596 52.8598C59.0432 52.9057 59.1809 52.9516 59.3644 52.9057C59.548 52.9057 59.6857 52.8598 59.8234 52.768C59.8693 52.768 59.8693 52.7221 59.9152 52.7221C60.0528 52.6304 60.1905 52.5386 60.2823 52.4009C60.42 52.2632 60.4659 52.1255 60.5118 51.942C60.5577 51.7584 60.5577 51.6666 60.5577 51.5289Z" fill="white"/>
<path d="M22.8794 21.2857C26.505 19.7712 30.4059 19.0828 34.3068 19.4041C36.2343 19.5418 38.1159 19.9548 39.9516 20.5973C41.7874 21.2398 43.4395 22.1577 45.1375 23.1214C45.7341 23.4427 46.2849 23.8098 46.7897 24.2228C46.3308 24.5441 45.8259 24.8653 45.367 25.2325C40.1811 29.1334 36.4179 34.7782 34.3986 40.9279C32.3793 47.0775 32.1039 53.8697 33.9397 60.1111C35.6377 65.8478 39.0338 70.896 43.4854 74.8428C36.9686 78.8355 28.7079 79.5239 21.5485 76.9539C14.3434 74.3839 8.8362 68.5095 5.94494 61.5338C2.87011 54.0992 3.28314 45.6549 6.35797 38.2661C9.4328 30.7396 15.3989 24.4523 22.8794 21.2857ZM22.3746 49.2804C22.3746 49.0968 22.3746 48.9592 22.2828 48.8215C22.2369 48.6838 22.1452 48.5461 22.0534 48.4084C21.9616 48.2708 21.8239 48.179 21.6862 48.1331C21.5485 48.0413 21.4109 47.9954 21.2273 47.9954L20.9061 48.0413C20.7225 48.0872 20.5389 48.179 20.3553 48.3166C20.3094 48.4084 20.2177 48.5002 20.1718 48.5461C20.08 48.7297 19.9882 48.9133 19.9882 49.1427V49.5099C19.9882 49.6934 19.9882 49.8311 20.08 49.9688C20.1259 50.1065 20.2176 50.2442 20.3094 50.3818C20.4012 50.5195 20.5389 50.6113 20.6766 50.6572C20.8143 50.749 20.9519 50.7949 21.1355 50.7949C21.2273 50.7949 21.365 50.7949 21.4568 50.749C21.6403 50.7031 21.8239 50.6113 22.0075 50.4736C22.0534 50.3818 22.1452 50.3359 22.191 50.2442C22.2828 50.0606 22.3746 49.877 22.3746 49.6476V49.2804Z" fill="white"/>
<path d="M58.538 52.6762C58.4462 52.6303 58.3544 52.5385 58.3085 52.4467C58.1708 52.3091 58.0791 52.1714 58.0332 52.0337C57.9873 51.9419 57.9414 51.8043 57.9414 51.7125C57.8955 51.5289 57.9414 51.3453 57.9873 51.2076C58.0332 51.1159 58.0791 51.0241 58.125 50.8864C58.125 50.8405 58.1708 50.8405 58.1708 50.7946C58.3085 50.611 58.4462 50.4734 58.6298 50.3357C58.7216 50.2898 58.8592 50.2439 58.951 50.198C59.1346 50.1521 59.3182 50.1521 59.4558 50.198C59.6394 50.198 59.7771 50.2439 59.9148 50.3816C60.1442 50.5192 60.236 50.6569 60.3737 50.8405C60.4655 51.0241 60.5573 51.2535 60.5114 51.483C60.5114 51.5748 60.4655 51.7125 60.4655 51.8501C60.4196 52.0337 60.3278 52.1714 60.236 52.3091C60.1442 52.4468 60.0066 52.5385 59.8689 52.6303C59.823 52.6303 59.823 52.6762 59.7771 52.6762C59.6394 52.768 59.4558 52.8139 59.3182 52.8139C59.1346 52.8598 58.9969 52.8139 58.8133 52.768C58.7216 52.768 58.6298 52.7221 58.538 52.6762Z"/>
<path d="M25.2199 18.0731C29.3502 16.834 33.6642 16.6504 37.8863 17.6141C39.9515 18.0731 41.9249 18.8074 43.7606 19.817C45.4587 20.7349 46.8814 21.974 48.1205 23.3967C52.9851 20.5054 58.5841 18.9909 64.2289 18.8533C67.5791 18.7615 70.9293 19.2204 74.1418 20.0924C75.7939 20.5513 77.4002 21.1479 78.9606 21.9281C79.6948 22.2952 80.4291 22.7083 81.1175 23.1672C81.8059 23.6261 82.4484 24.1768 83.1368 24.6358C83.3204 24.7276 83.4122 24.9111 83.4581 25.0488C83.6416 25.0488 83.8252 25.0947 83.9629 25.2324C85.2479 26.1502 86.4411 27.2058 87.5884 28.3072C92.1318 32.8506 95.2525 38.8626 96.4917 45.1958C97.7308 51.6208 97.0883 58.3212 94.3347 64.2414C91.627 70.1157 87.0377 75.0262 81.5306 78.3764C76.0234 81.7266 69.5525 83.5165 63.1275 83.1493C56.6566 82.7363 50.3692 80.2121 45.2751 76.2195C45.2292 76.2654 45.1374 76.3572 45.0456 76.403C44.2196 76.9538 43.3476 77.5045 42.4297 77.9634C34.8574 81.7725 25.4952 81.4972 18.0147 77.5963C10.9013 73.9248 5.57769 67.0409 3.28305 59.4226C0.758932 51.116 2.08982 42.0292 6.1284 34.4569C10.0752 26.8386 16.9133 20.5972 25.2199 18.0731ZM34.3067 19.404C30.4058 19.0827 26.459 19.7711 22.8793 21.2856C15.4447 24.4522 9.47859 30.7395 6.35787 38.1742C3.28304 45.563 2.87 54.0073 5.94483 61.4419C8.83609 68.4177 14.3432 74.292 21.5484 76.862C28.7077 79.432 36.9685 78.7436 43.4853 74.7509C39.0337 70.8041 35.6376 65.7559 33.9395 60.0192C32.1038 53.7778 32.3792 46.9856 34.3985 40.836C36.4178 34.6863 40.181 29.0415 45.3669 25.1406C45.8258 24.7734 46.3306 24.4522 46.7896 24.1309C46.2389 23.7179 45.6881 23.3967 45.1374 23.0295C43.4394 22.0658 41.7872 21.1479 39.9515 20.5054C38.1158 19.9547 36.2342 19.5416 34.3067 19.404ZM93.9217 59.1473C95.5738 53.273 95.1608 47.0774 93.2792 41.2949C91.3975 35.5583 87.8179 30.2806 82.9991 26.6092C82.8156 26.4715 82.7238 26.3338 82.6779 26.1502C82.5402 26.1502 82.3566 26.1043 82.1731 26.0126C80.9339 25.1865 79.4654 24.544 78.0886 23.9933C72.3061 21.4691 66.0187 20.5513 59.7773 21.5609C53.5817 22.5706 47.8451 25.4618 43.4853 30.0052C39.309 34.3651 36.5554 40.0099 35.454 45.9301C34.3526 51.8503 35.041 58.1376 37.611 63.5989C40.2269 69.1519 44.6326 73.7412 49.9103 76.9079C55.188 80.0286 61.3835 81.5889 67.5332 81.0382C73.5452 80.4875 79.3277 77.9634 83.917 74.1543C88.6899 70.2075 92.2695 65.0216 93.9217 59.1473Z"/>
<path d="M22.3745 49.6475C22.3745 49.877 22.2827 50.0605 22.1909 50.2441C22.145 50.3359 22.0532 50.4277 22.0073 50.4736C21.8696 50.6113 21.6861 50.703 21.4566 50.7489C21.3648 50.7489 21.2271 50.7948 21.1354 50.7948C20.9518 50.7948 20.8141 50.7489 20.6764 50.6571C20.5388 50.6113 20.4011 50.5195 20.3093 50.3818C20.2175 50.29 20.1257 50.1523 20.0798 49.9688C19.988 49.8311 19.988 49.6475 19.988 49.5098V49.1427C19.988 48.9132 20.0798 48.7296 20.1716 48.5461C20.2175 48.4543 20.3093 48.3625 20.3552 48.3166C20.4929 48.1789 20.6764 48.0872 20.9059 48.0413L21.2271 47.9954C21.4107 47.9954 21.5484 48.0412 21.6861 48.133C21.8237 48.1789 21.9614 48.2707 22.0532 48.4084C22.145 48.5002 22.2368 48.6379 22.2827 48.8214C22.3745 48.9591 22.3745 49.0968 22.3745 49.2804V49.6475Z" fill="black"/>
</svg>
