<svg width="100" height="100" viewBox="0 0 100 100" fill="none" xmlns="http://www.w3.org/2000/svg">
<path d="M92.6338 54.3953C92.5962 54.1696 92.4458 53.8688 92.2201 53.8312C91.9945 53.7936 91.8065 54.0192 91.6561 54.0944C91.5433 54.1697 91.3929 54.2073 91.28 54.2825C91.2048 52.4399 91.3553 50.5973 91.4305 48.7547C91.5057 47.1378 91.5809 45.4832 91.6937 43.8662C91.6937 43.603 91.7313 43.3774 91.7313 43.1141C91.7313 43.0765 91.7313 43.0389 91.7313 42.9637C91.5809 43.0013 91.3929 43.0389 91.2424 43.0765C90.4904 43.3022 89.7383 43.4526 88.9862 43.603C87.4445 43.9038 85.9027 44.1294 84.3609 44.2047C83.5713 44.2423 82.744 44.2799 81.9543 44.2423C81.5407 44.2047 81.0894 44.2046 80.6758 44.1294V42.7381C80.9014 42.7381 81.127 42.7381 81.315 42.7005C81.8039 42.6629 82.2551 42.6629 82.744 42.6253C83.6841 42.5877 84.6618 42.5501 85.6019 42.4373C87.2564 42.2869 88.9486 41.986 90.5656 41.5348C91.2801 41.3468 92.2201 40.8955 92.8594 41.5348C93.4611 42.0988 93.1978 43.0765 93.1602 43.8286C93.1226 45.6336 93.085 47.401 93.0098 49.1684C92.9346 50.9357 92.9346 52.7407 92.709 54.5081C92.709 54.5457 92.709 54.5833 92.6714 54.6209C92.6338 54.6209 92.6338 54.5081 92.6338 54.3953Z" fill="black"/>
<path d="M92.634 54.6962C92.5212 54.9971 92.1452 55.1475 91.8819 55.1099C91.5059 55.0723 91.2803 54.7338 91.2427 54.3954C91.2427 54.3578 91.2427 54.3202 91.2427 54.2826C91.3555 54.245 91.5059 54.1698 91.6187 54.0946C91.8067 54.0194 91.9948 53.7937 92.1828 53.8313C92.446 53.8689 92.5588 54.1698 92.5964 54.3954C92.634 54.5082 92.634 54.621 92.634 54.6962Z" fill="black"/>
<path d="M92.6338 54.6964C92.5962 55.4484 91.7689 55.8621 91.1296 56.0501C89.3247 56.5765 87.4445 56.915 85.5643 57.103C84.6242 57.2158 83.7217 57.2534 82.7816 57.291C82.1047 57.291 81.3151 57.3286 80.6382 57.1782C80.6382 56.727 80.6382 56.2757 80.6382 55.8245C81.0142 55.7493 81.3527 55.7869 81.7287 55.7493C82.2551 55.7117 82.8192 55.6741 83.3457 55.6365C84.361 55.5613 85.4139 55.486 86.4292 55.3356C87.3693 55.1852 88.2718 55.0348 89.1742 54.8468C89.8511 54.6964 90.6032 54.5459 91.2425 54.2827C91.2425 54.3203 91.2425 54.3579 91.2425 54.3955C91.2425 54.7716 91.5057 55.0724 91.8817 55.11C92.1449 55.1476 92.521 54.9972 92.6338 54.6964Z" fill="black"/>
<path d="M91.6937 42.9639C91.6937 43.0391 91.6937 43.0767 91.6937 43.1143C91.6937 43.3775 91.6561 43.6031 91.6561 43.8664C91.5433 45.4833 91.4681 47.1003 91.3929 48.7548C91.3176 50.5974 91.1296 52.44 91.2425 54.2826C90.5656 54.5458 89.8511 54.6962 89.1742 54.8467C88.2718 55.0347 87.3693 55.2227 86.4292 55.3355C85.4139 55.4859 84.361 55.5987 83.3457 55.6363C82.8192 55.6739 82.2551 55.7115 81.7287 55.7492C81.3903 55.7868 81.0142 55.7868 80.6382 55.8244C80.6382 55.1099 80.6382 54.3954 80.6382 53.6809V44.1296C81.0518 44.2048 81.5031 44.2048 81.9167 44.2424C82.7064 44.3176 83.5337 44.2424 84.3233 44.2048C85.8651 44.1296 87.4445 43.904 88.9486 43.6031C89.7007 43.4527 90.4528 43.2647 91.2048 43.0767C91.3553 43.0767 91.5433 43.0391 91.6937 42.9639Z" fill="#778291"/>
<path d="M80.6378 55.8623C80.6378 56.3136 80.6378 56.7648 80.6378 57.216C80.4122 57.1784 80.1866 57.1032 79.9986 56.9904C79.8106 56.9152 79.6978 56.7272 79.6978 56.5768C79.6978 56.3136 79.8858 56.0503 80.1114 55.9751C80.2994 55.8999 80.4874 55.8623 80.6378 55.8623Z" fill="black"/>
<path d="M80.6384 42.7764V44.1677C80.2999 44.1301 79.9991 44.0173 79.6983 43.8669C79.5479 43.7541 79.4727 43.6036 79.4727 43.4532C79.4727 43.2652 79.6231 43.0396 79.8487 42.9644C80.0743 42.8516 80.3375 42.814 80.6384 42.7764Z" fill="black"/>
<path d="M79.7357 56.5767C79.7357 56.7647 79.8109 56.9151 80.0366 56.9903C80.2246 57.0655 80.4502 57.1407 80.6758 57.2159C80.6758 57.9304 80.6382 58.6825 80.6006 59.3969C80.5254 60.7507 80.2998 62.1044 79.7734 63.3829L79.0213 63.4581C78.4948 63.7214 77.9308 63.947 77.3667 64.0974C77.5171 63.947 77.6299 63.759 77.7427 63.571C78.5324 62.2924 78.7956 60.7131 78.8709 59.2465C78.9085 58.3816 78.9461 57.4792 78.9461 56.5767H79.7357Z" fill="black"/>
<path d="M79.6979 43.8668C79.9987 44.0172 80.2995 44.13 80.638 44.1676V53.719C80.638 54.4334 80.638 55.1479 80.638 55.8624C80.45 55.9 80.2995 55.9376 80.1491 55.9752C79.9235 56.0504 79.7355 56.3512 79.7355 56.5769H78.9458C78.9458 55.5992 78.9082 54.6591 78.9082 53.6814C78.9082 51.6508 78.9082 49.6578 78.9082 47.6271C78.9082 46.2358 78.9082 44.8445 78.9082 43.4531H79.4723C79.4723 43.6035 79.5475 43.754 79.6979 43.8668Z" fill="black"/>
<path d="M73.5686 58.2683C73.7942 56.9898 73.7566 55.6736 73.8318 54.3575C73.907 52.891 73.9822 51.4244 74.0574 49.9579C74.1326 48.4913 74.2079 47.0248 74.2831 45.5582C74.3583 44.2797 74.5087 42.926 74.3583 41.6474C74.2078 40.4065 73.6062 39.3536 72.5533 38.6391C71.6508 38.0375 70.5979 37.8495 69.545 37.699C68.2665 37.5486 66.9879 37.511 65.747 37.4358C64.2428 37.3606 62.7387 37.2854 61.2721 37.2102C56.9101 37.0222 52.5481 36.9094 48.2236 36.8342V35.7812C54.0522 35.8565 59.8808 36.0069 65.7094 36.1573C67.6648 36.1949 69.6578 36.2701 71.6132 36.5709C73.0045 36.7966 74.5463 37.2478 75.1855 38.4887C75.524 39.0904 75.5616 39.8425 75.5616 40.5193C75.712 45.1822 75.2984 49.8451 74.8095 54.4703C74.6591 55.8241 74.5087 57.2154 73.907 58.4563C73.719 58.7948 73.4934 59.1332 73.2301 59.434C73.343 59.0956 73.4934 58.682 73.5686 58.2683Z" fill="#FFD53F"/>
<path d="M72.7039 42.4371C72.7415 43.7533 72.5911 45.107 72.5535 46.4231C72.4407 49.2058 72.3279 51.9885 72.1775 54.7336C72.1022 55.8993 72.1775 57.1402 71.8766 58.2683C71.6886 58.9828 71.3126 59.4717 70.7109 59.7725C70.5229 59.8853 70.2973 59.9605 70.0716 59.9981C69.0187 60.2613 67.8906 60.1861 66.8001 60.1485C65.4088 60.1485 63.9798 60.1485 62.5885 60.1109C57.8504 60.0733 53.1499 60.0733 48.4119 60.0357C49.54 58.1555 50.5553 56.2377 51.4578 54.2071C51.9842 52.9662 52.5107 51.6501 52.2851 50.2963C52.2475 49.9203 52.097 49.5443 51.8714 49.281C51.1569 48.4914 49.728 48.8298 48.9007 48.1153C48.1486 47.4384 48.3743 46.2351 48.6751 45.2574C49.4272 42.926 50.4425 40.7074 51.6834 38.6016C53.3756 38.6392 55.0677 38.6768 56.7599 38.752C59.5802 38.8272 62.3629 38.9776 65.1831 39.0904C66.4617 39.1656 67.7402 39.2032 69.0187 39.316C69.8836 39.3912 70.8237 39.5417 71.5758 39.9929C72.4407 40.5946 72.6663 41.4594 72.7039 42.4371Z" fill="#FF3A4B"/>
<path d="M70.6732 60.6755C71.6133 60.7131 72.5158 60.2242 73.155 59.5098C72.8166 60.1866 72.3654 60.7507 71.6885 61.1643C70.7108 61.7284 69.5827 61.8412 68.4546 61.8788C65.5967 61.954 62.7012 61.8788 59.8433 61.8788C55.7445 61.8788 51.6833 61.8412 47.5845 61.8412V61.39C47.8477 60.9763 48.1109 60.5627 48.3742 60.1114C53.1122 60.1114 57.8127 60.149 62.5508 60.1866C63.9421 60.1866 65.3711 60.1866 66.7624 60.2242C67.8529 60.2242 68.981 60.337 70.0339 60.0738C70.2595 60.0362 70.4852 59.9234 70.6732 59.8482V60.6755Z" fill="black"/>
<path d="M30.8131 46.9501C31.1139 44.017 32.0916 41.1591 33.5958 38.6021C35.8144 38.5645 38.0706 38.5269 40.2892 38.5269C44.0872 38.5269 47.8852 38.5645 51.7208 38.6397C50.4799 40.7455 49.4646 42.9641 48.7125 45.2955C48.4117 46.2356 48.186 47.4766 48.9381 48.1534C49.7278 48.8679 51.1567 48.5295 51.9088 49.3191C52.172 49.5824 52.2848 49.9584 52.3225 50.3344C52.5105 51.6506 52.0216 53.0043 51.4952 54.2452C50.6303 56.2382 49.615 58.1936 48.4493 60.0738C42.6207 60.0738 36.7921 60.0362 30.9635 60.0362C31.866 56.9527 34.1974 54.2828 34.1598 51.0865C34.1598 50.7105 34.0846 50.3344 33.859 50.0336C33.3325 49.432 32.2796 49.7328 31.5652 49.3191C30.7755 48.9055 30.7003 47.815 30.8131 46.9501Z" fill="#FF616E"/>
<path d="M70.7106 59.7728C71.3123 59.472 71.6883 58.9831 71.8764 58.2686C72.1772 57.1405 72.102 55.8996 72.1772 54.7339C72.3276 51.9512 72.4028 49.1685 72.5532 46.4234C72.5908 45.1073 72.7412 43.7536 72.7036 42.4374C72.666 41.4973 72.4404 40.5948 71.5755 40.106C70.8235 39.6548 69.8834 39.5043 69.0185 39.4291C67.7399 39.3163 66.4614 39.2787 65.1829 39.2035C62.3626 39.0531 59.5799 38.9403 56.7596 38.8651C55.0675 38.8275 53.3753 38.7523 51.6831 38.7147C47.8851 38.6394 44.0872 38.6018 40.2516 38.6018C38.033 38.6018 35.7767 38.6394 33.5581 38.677C33.7085 38.4514 33.8589 38.2258 34.0094 37.9626V36.9473C37.2809 36.9097 40.59 36.8721 43.8615 36.8721C45.3281 36.8721 46.757 36.9097 48.2236 36.9097C52.5856 36.9849 56.9477 37.0977 61.2721 37.2857C62.7762 37.3609 64.2804 37.4361 65.7469 37.5113C67.0255 37.5865 68.304 37.5865 69.5449 37.7746C70.5978 37.8874 71.6507 38.113 72.5532 38.7147C73.6061 39.4291 74.2078 40.4444 74.3582 41.723C74.5086 43.0015 74.3582 44.3552 74.283 45.6337C74.2078 47.1003 74.1326 48.5668 74.0574 50.0334C73.9822 51.4999 73.907 52.9665 73.8318 54.433C73.7565 55.7492 73.7942 57.0653 73.5685 58.3438C73.4933 58.7951 73.3805 59.2087 73.1925 59.5848C72.5156 60.2992 71.6507 60.7881 70.7106 60.7505V59.7728Z" fill="black"/>
<path d="M47.6217 61.7659C42.0563 61.7283 36.4534 61.7283 30.888 61.6907V60.713C30.888 60.713 30.888 60.713 30.8504 60.713C30.7752 60.6754 30.7752 60.5626 30.8128 60.4874C30.8504 60.337 30.888 60.1865 30.9256 60.0361C36.7542 60.0361 42.5828 60.0738 48.4113 60.0738C48.1481 60.4874 47.8849 60.9386 47.6217 61.3523V61.7659Z" fill="black"/>
<path d="M37.5816 31.006C39.8754 31.2316 42.1693 31.2316 44.5007 31.2316C45.6288 31.2316 46.7945 31.2316 47.9227 31.2692C49.0884 31.3068 50.2541 31.4197 51.4198 31.4573C53.676 31.5325 55.8947 31.3444 58.1509 31.3821C60.4823 31.4197 62.8137 31.5325 65.1452 31.6453C66.3861 31.6829 67.627 31.6829 68.8304 31.8333C69.6952 31.9085 70.5601 32.0589 71.425 32.1341C71.7634 32.1341 72.1395 32.1341 72.4779 32.1717C72.4779 32.1717 72.4779 32.1717 72.5155 32.1717H72.5531C74.7717 32.3221 76.9528 32.999 78.4945 34.5784C78.4569 34.5408 78.4569 34.5032 78.4193 34.4656C78.4569 34.4656 78.5321 34.4656 78.5697 34.4656C78.5697 34.4656 78.5697 34.5032 78.6073 34.5032C78.6073 34.5408 78.6449 34.5408 78.6825 34.5784C79.0962 35.18 79.5098 35.7817 79.8483 36.3834C79.9611 36.609 80.0363 36.8722 80.1115 37.1354C80.1491 37.3235 80.2243 37.5491 80.2995 37.7371C80.4123 38.1507 80.4875 38.5644 80.4875 39.0156C80.4875 39.3917 80.5251 39.7677 80.5627 40.1813C80.5627 40.2189 80.5251 40.2565 80.5251 40.2942C80.5627 40.8958 80.5627 41.5351 80.6755 42.1367V42.8512C80.3747 42.8512 80.1115 42.9264 79.8483 43.0392C79.6226 43.1144 79.4722 43.3401 79.4722 43.5281H78.9082C78.9082 43.3025 78.9082 43.1144 78.9082 42.8888C78.9082 42.8512 78.8706 42.776 78.8706 42.7384C78.8706 42.3624 78.833 42.0239 78.833 41.6479C78.833 40.9334 78.8706 40.2189 78.7954 39.4669C78.6825 38.1131 78.2689 36.8346 77.2912 35.8569C76.3511 34.8792 75.0726 34.2775 73.7565 33.9015C73.1172 33.7135 72.4403 33.5631 71.801 33.4503C71.3122 33.4503 70.8234 33.4503 70.3345 33.4503C66.2357 33.3751 62.1369 33.2998 58.0381 33.2622C53.9393 33.187 49.8404 33.0742 45.7416 32.999C43.6734 32.9614 41.6052 32.9238 39.537 32.8862C38.8978 32.8862 38.2209 32.8486 37.5816 32.811C33.8964 32.8862 30.1737 32.9238 26.4885 32.999C24.4203 33.0366 22.3521 33.0742 20.3215 33.0742C18.5165 33.1118 16.7115 33.0742 14.9065 33.2246C13.5528 33.3374 12.1239 33.6759 10.9957 34.5032C10.9957 34.1271 10.9957 33.7135 11.0333 33.3375L10.1309 33.1118C12.4247 31.4197 15.6962 31.4573 18.4413 31.4197C24.7963 31.3068 31.1514 31.194 37.5064 31.0812C37.544 30.9684 37.544 31.006 37.5816 31.006Z" fill="black"/>
<path d="M17.8398 37.5118C20.6225 37.2486 23.4428 37.211 26.2254 37.1358C28.8201 37.0606 31.4148 36.9854 34.0094 36.9478V37.963C33.859 38.1887 33.7086 38.4143 33.5582 38.6775C30.249 38.7151 26.9023 38.8279 23.5932 38.9407C22.2394 38.9784 20.8481 39.0536 19.4944 39.0912C18.4038 39.1288 17.2381 39.0912 16.2228 39.5424C16.0348 39.6176 15.8844 39.7304 15.734 39.8432L15.1699 38.9784C15.3579 38.6023 15.6212 38.2263 15.922 37.9254C16.4861 37.6622 17.1629 37.587 17.8398 37.5118Z" fill="black"/>
<path d="M14.7188 51.9885C14.6436 49.2434 14.5684 46.4983 14.4932 43.7533C14.4932 43.1892 14.4556 42.5876 14.418 42.0235C14.4556 41.9483 14.4556 41.8731 14.4556 41.7603C14.6812 41.0082 15.0948 40.2561 15.7341 39.7673C15.8845 39.6545 16.0349 39.5417 16.223 39.4664C17.2383 39.0152 18.4416 39.0528 19.4945 39.0152C20.8482 38.94 22.2396 38.9024 23.5933 38.8648C26.9024 38.752 30.2492 38.6392 33.5583 38.6016C32.0541 41.121 31.0764 44.0165 30.7756 46.9496C30.7004 47.8145 30.738 48.8674 31.4901 49.3186C32.2046 49.7323 33.2575 49.3938 33.7839 50.0331C34.0095 50.2963 34.0847 50.71 34.0847 51.086C34.1224 54.2823 31.7909 56.9898 30.8884 60.0357C30.3244 60.0357 29.7979 60.0357 29.2339 60.0357C26.5264 60.0357 23.8189 59.9981 21.1114 60.0357C19.3441 60.0357 17.1254 60.1109 15.8093 58.7196C15.0572 57.9299 14.8692 56.877 14.794 55.8241C14.7188 54.5456 14.7564 53.267 14.7188 51.9885Z" fill="#FF3A4B"/>
<path d="M23.7059 35.6689C31.8659 35.6689 40.0259 35.7442 48.1859 35.857V36.9099C46.7194 36.8723 45.2904 36.8723 43.8239 36.8723C40.5524 36.8723 37.2808 36.8723 33.9717 36.9475C31.377 36.9851 28.7824 37.0603 26.1877 37.1355C23.405 37.2483 20.5847 37.2483 17.8021 37.5115C17.1252 37.5867 16.4859 37.6995 15.8467 37.9252C16.6364 37.0603 17.7269 36.4586 18.8926 36.1578C20.4719 35.7066 22.0889 35.6689 23.7059 35.6689Z" fill="#FFD53F"/>
<path d="M14.4558 43.7915C14.531 46.5366 14.6062 49.2816 14.6815 52.0267C14.7191 53.3052 14.6814 54.5838 14.7943 55.8247C14.8695 56.8776 15.0575 57.9305 15.8096 58.7202C17.1257 60.1115 19.3443 60.0363 21.1117 60.0363C23.8192 60.0363 26.5266 60.0363 29.2341 60.0363C29.7982 60.0363 30.3246 60.0363 30.8887 60.0363C30.8511 60.1867 30.8135 60.3371 30.7759 60.4876C30.7383 60.5628 30.7383 60.6756 30.8135 60.7132C30.8135 60.7132 30.8135 60.7132 30.8511 60.7132V61.6909C28.8205 61.6909 26.7899 61.6533 24.7593 61.6533C20.6228 61.6157 14.3054 62.1045 13.2901 56.7648C13.0269 55.4863 13.1021 54.1325 13.0269 52.8164C12.9893 51.3498 12.9893 49.8833 12.9517 48.4168C12.9141 46.499 12.8765 44.6188 12.8765 42.701C12.9517 42.1369 13.0269 41.6105 13.1021 41.0464C13.1397 40.9336 13.1773 40.8208 13.2149 40.6704C13.4029 40.1063 13.7414 39.6175 14.0422 39.091C14.1174 38.9782 14.2302 38.8654 14.343 38.7526C14.7943 38.3389 15.2831 38.0381 15.8472 37.8501C15.5463 38.1509 15.3207 38.527 15.0951 38.903L15.6592 39.7679C15.0199 40.2567 14.6062 40.9712 14.3806 41.7609C14.343 41.8361 14.343 41.9489 14.343 42.0241C14.4182 42.6258 14.4558 43.1898 14.4558 43.7915Z" fill="black"/>
<path d="M14.9067 33.1119C16.7117 32.9239 18.5167 32.9615 20.3217 32.9615C22.3899 32.9239 24.4581 32.8863 26.4887 32.8863C30.1738 32.8487 33.8966 32.7734 37.5818 32.6982C38.2211 32.7358 38.8603 32.7735 39.5372 32.7735C41.6054 32.8111 43.6736 32.8487 45.7418 32.8863C49.8406 32.9615 53.9394 33.0743 58.0382 33.1495C62.1371 33.2247 66.2359 33.2623 70.3347 33.3375C70.8235 33.3375 71.3124 33.3375 71.8012 33.3375C72.4781 33.4503 73.1174 33.6007 73.7566 33.7887C75.0352 34.2024 76.3137 34.7665 77.2914 35.7442C78.2315 36.7218 78.6827 38.038 78.7955 39.3541C78.8707 40.0686 78.8331 40.7831 78.8331 41.5351C78.8331 41.9112 78.8331 42.2496 78.8707 42.6256C78.8707 42.6632 78.8707 42.7385 78.9083 42.7761C78.9083 43.0017 78.9083 43.1897 78.9083 43.4153C78.9083 44.8067 78.9083 46.198 78.9083 47.5893C78.9083 49.6199 78.9083 51.6129 78.9083 53.6436C78.9083 54.6212 78.9459 55.5613 78.9459 56.539C78.9459 57.4039 78.9459 58.3064 78.8707 59.2089C78.7955 60.7131 78.5323 62.2548 77.7426 63.5334C77.6298 63.7214 77.517 63.8718 77.3666 64.0598C75.5616 64.5486 73.5686 64.511 71.6508 64.4734C55.5188 64.135 39.4244 63.759 23.2924 63.4205C20.9233 63.3829 18.5543 63.3077 16.2604 62.7061C14.8691 62.3676 13.4778 61.7284 12.6505 60.6002C12.1616 59.9234 11.8984 59.0585 11.748 58.2312C11.372 56.3886 11.2591 54.4708 11.1839 52.5906C10.9207 46.5364 10.8831 40.4446 11.0711 34.3528C12.0864 33.5631 13.553 33.2623 14.9067 33.1119ZM23.706 35.6689C22.089 35.6689 20.4345 35.6689 18.8927 36.1202C17.7646 36.4586 16.6365 37.0227 15.8468 37.8876C15.2828 38.0756 14.7939 38.3764 14.3427 38.7901C14.2298 38.9029 14.1546 38.9781 14.0418 39.1285C13.741 39.6173 13.4402 40.1438 13.2145 40.7079C13.1769 40.8207 13.1393 40.9711 13.1017 41.0839C13.0265 41.6479 12.9513 42.1744 12.8761 42.7385C12.8761 44.6562 12.9137 46.5364 12.9513 48.4542C12.9889 49.9208 12.9889 51.3873 13.0265 52.8539C13.0641 54.17 13.0265 55.5237 13.2897 56.8023C14.3427 62.142 20.6225 61.6532 24.7589 61.6908C26.7895 61.6908 28.8201 61.7284 30.8507 61.7284C36.4161 61.766 42.019 61.8036 47.5844 61.8036C51.6832 61.8036 55.7444 61.8412 59.8432 61.8412C62.7011 61.8412 65.5966 61.9164 68.4545 61.8412C69.545 61.8036 70.7107 61.6908 71.6884 61.1267C72.3653 60.7507 72.8541 60.149 73.155 59.4721C73.4182 59.1713 73.6814 58.8329 73.8318 58.4944C74.4711 57.2911 74.6215 55.8622 74.7343 54.5084C75.1856 49.8832 75.6368 45.2203 75.4864 40.5574C75.4488 39.843 75.4112 39.1285 75.1104 38.5268C74.4711 37.2859 72.9293 36.8347 71.538 36.609C69.5826 36.3082 67.6272 36.2706 65.6342 36.1954C59.8056 36.045 53.977 35.8946 48.1485 35.8194C40.026 35.7442 31.866 35.6689 23.706 35.6689Z" fill="#FFDD65"/>
<path d="M10.996 34.4277C10.8079 40.4819 10.8831 46.5738 11.1088 52.6656C11.184 54.5458 11.2968 56.4635 11.6728 58.3061C11.8608 59.1334 12.0865 59.9607 12.5753 60.6752C13.4026 61.8409 14.7939 62.4426 16.1853 62.781C18.4791 63.3827 20.8857 63.4202 23.2172 63.4954C39.3492 63.8339 55.4436 64.2099 71.5756 64.5484C73.4934 64.586 75.4488 64.6236 77.2914 64.1347C76.5393 65.0372 75.4488 65.6389 74.3207 65.9397C72.8542 66.3533 71.3124 66.4285 69.8083 66.4285C67.8529 66.4285 65.8599 66.3909 63.9045 66.3909C55.6692 66.3157 47.434 66.2781 39.1612 66.2029C35.0624 66.1653 30.9636 66.1653 26.8271 66.1653C24.7589 66.1653 22.6907 66.1277 20.6225 66.1277C19.0808 66.1277 17.4638 66.1277 15.9221 65.8645C14.4555 65.6389 13.0266 65.1876 11.8232 64.2851C10.6199 63.345 9.86785 61.9913 9.45421 60.5624C9.04057 59.0582 8.89015 57.4788 8.81494 55.8995C8.70213 53.8689 8.62692 51.8007 8.58931 49.7701C8.55171 47.7395 8.5141 45.6713 8.55171 43.6407C8.55171 41.9485 8.51411 40.2187 8.77733 38.5641C9.00296 37.1352 9.52941 35.7063 10.6199 34.691C10.8079 34.5782 10.9207 34.5029 10.996 34.4277Z" fill="#FFD53F"/>
<path d="M7.42359 56.6142C7.12276 52.4778 7.00995 48.3038 7.00995 44.1673C7.00995 40.8582 6.74672 36.9098 8.92774 34.1647C9.26617 33.7135 9.67981 33.3375 10.0935 33.0366L10.9959 33.2622C10.9959 33.6383 10.9583 34.0519 10.9583 34.428C10.8455 34.5032 10.7703 34.5784 10.6575 34.6536C9.567 35.6689 9.07816 37.0978 8.81493 38.5268C8.5517 40.1813 8.5893 41.9111 8.5893 43.6033C8.5893 45.6339 8.58931 47.7021 8.62691 49.7327C8.66451 51.7633 8.73972 53.8315 8.85254 55.8621C8.92774 57.4415 9.07815 59.0208 9.49179 60.525C9.90543 61.9915 10.6575 63.3077 11.8608 64.2478C13.0266 65.1502 14.4931 65.6015 15.9596 65.8271C17.5014 66.0903 19.0808 66.0903 20.6601 66.0903C22.7283 66.0903 24.7965 66.0903 26.8647 66.1279C30.9636 66.1279 35.0624 66.1656 39.1988 66.1656C47.434 66.2408 55.6692 66.2784 63.9421 66.3536C65.8975 66.3536 67.8905 66.3912 69.8459 66.3912C71.35 66.3912 72.8918 66.316 74.3583 65.9023C75.524 65.5639 76.5769 64.9998 77.329 64.0974C77.8931 63.9469 78.4571 63.7213 78.9836 63.4581L79.7357 63.3829C79.6228 63.6837 79.4724 63.9469 79.322 64.2102C77.5922 67.2561 74.0951 68.0081 70.8988 68.1209C68.9434 68.1961 67.0256 68.1209 65.0702 68.1209C62.9268 68.1209 60.821 68.0833 58.6775 68.0833C50.1415 68.0457 41.643 68.0081 33.107 67.8953C28.8577 67.8577 24.6085 67.8577 20.3593 67.7825C17.2006 67.7449 13.6658 67.5569 11.0712 65.6015C8.28848 63.4581 7.64921 59.9233 7.42359 56.6142Z" fill="black"/>
</svg>
