<svg width="100" height="100" viewBox="0 0 100 100" fill="none" xmlns="http://www.w3.org/2000/svg">
<path d="M82.3731 44.536C83.6273 51.0394 82.977 57.8214 80.1898 63.8138C77.4491 69.7597 72.8039 74.7301 67.2296 78.1211C61.6553 81.5121 55.1055 83.3238 48.6022 82.9522C42.3775 82.5341 36.2923 80.2115 31.2754 76.5418C31.2754 76.4024 31.1825 76.263 31.0431 76.1701C31.0431 76.1701 31.0431 76.1701 30.9967 76.1701C30.9967 76.1701 30.9502 76.1701 30.9502 76.1237C30.8573 76.0772 30.7644 76.0308 30.718 75.9379C30.4857 75.7521 30.2534 75.5662 29.9747 75.4269C29.8354 75.334 29.696 75.2411 29.5567 75.1482L29.5102 75.1017C29.4638 75.0553 29.3709 75.0088 29.3244 74.9624C29.185 74.823 28.9992 74.7301 28.8599 74.5443C28.8134 74.4979 28.767 74.4514 28.6741 74.4514C24.2611 70.5029 20.9165 65.4396 19.2442 59.7724C17.3861 53.4549 17.6648 46.5799 19.7087 40.3553C21.7527 34.1307 25.5618 28.417 30.8109 24.4686C31.2754 24.1434 31.6935 23.8182 32.158 23.4931C32.4832 23.3073 32.7619 23.075 33.1335 22.9356C33.5051 22.7498 33.9232 22.6105 34.2484 22.3318C34.2948 22.2853 34.3413 22.2389 34.3413 22.1924C39.0794 19.5446 44.4679 18.1511 49.9028 18.0117C53.2938 17.9188 56.6849 18.3833 59.9365 19.2659C61.6088 19.7304 63.2347 20.3343 64.8141 21.124C65.5573 21.4956 66.3005 21.9137 66.9973 22.3782C67.6941 22.8427 68.3444 23.4002 69.0412 23.8647C69.227 23.9576 69.3199 24.1434 69.3664 24.2828C69.5522 24.2828 69.738 24.3292 69.8774 24.4686C71.178 25.3976 72.3858 26.466 73.5471 27.5809C77.9601 32.0868 81.1189 38.1256 82.3731 44.536ZM79.8182 58.7505C81.4905 52.8046 81.0724 46.5335 79.1679 40.6805C77.2633 34.8739 73.64 29.5319 68.7625 25.8157C68.5767 25.6763 68.4838 25.537 68.4374 25.3512C68.298 25.3512 68.1122 25.3047 67.9264 25.2118C66.6722 24.3757 65.1857 23.7253 63.7921 23.1679C57.9391 20.613 51.5751 19.684 45.2576 20.7059C38.9865 21.7279 33.1799 24.6544 28.767 29.2532C24.5398 33.6662 21.7527 39.3798 20.6378 45.3722C19.5229 51.3645 20.2197 57.7285 22.8211 63.2563C25.4689 68.8771 29.9283 73.5223 35.2703 76.7275C40.6123 79.8863 46.8834 81.4657 53.1081 80.9083C59.1933 80.3508 65.0463 77.796 69.6916 73.9404C74.5226 69.9455 78.1459 64.6964 79.8182 58.7505Z" fill="black"/>
<path d="M79.2142 40.6806C81.1188 46.5336 81.4904 52.8046 79.8646 58.7505C78.1923 64.6965 74.569 69.9456 69.7844 73.8476C65.0927 77.7031 59.2397 80.258 53.2009 80.8155C46.9762 81.3729 40.7052 79.7935 35.3631 76.6347C30.0211 73.476 25.6081 68.7843 22.9139 63.1635C20.3126 57.6357 19.6158 51.2717 20.7306 45.2793C21.8455 39.287 24.6326 33.5733 28.8598 29.1604C33.2728 24.5616 39.0793 21.6815 45.3504 20.6131C51.6679 19.5447 58.0319 20.5202 63.8849 23.0751C65.2785 23.679 66.765 24.2828 68.0192 25.119C68.205 25.2583 68.3908 25.2583 68.5302 25.2583C68.5766 25.4441 68.6695 25.5835 68.8553 25.7229C73.6864 29.532 77.3097 34.874 79.2142 40.6806ZM50.6924 50.5749C50.6924 50.3426 50.646 50.1104 50.5531 49.9246C50.4137 49.6923 50.3208 49.553 50.0886 49.4601C49.9492 49.3672 49.7634 49.3207 49.624 49.2742C49.4382 49.2278 49.2524 49.2278 49.1131 49.2742C49.0202 49.3207 48.9272 49.3671 48.7879 49.4136C48.6021 49.5065 48.4163 49.6923 48.3234 49.8781C48.2769 49.9246 48.2769 49.9246 48.2769 49.971C48.2305 50.0639 48.184 50.1569 48.1376 50.2962C48.0911 50.482 48.0446 50.6214 48.0911 50.8072C48.0911 50.9001 48.0911 51.0394 48.184 51.1323C48.2305 51.3182 48.3234 51.4575 48.4627 51.5504C48.5556 51.6433 48.6485 51.6898 48.695 51.7827C48.7879 51.8291 48.8808 51.8756 48.9737 51.922C49.1595 51.9685 49.2989 52.0149 49.4847 51.9685C49.6705 51.9685 49.8098 51.922 49.9492 51.8291C49.9956 51.8291 49.9957 51.7827 50.0421 51.7827C50.1815 51.6898 50.3208 51.5969 50.4137 51.4575C50.5531 51.3182 50.5995 51.1788 50.646 50.993C50.6924 50.8072 50.6924 50.7143 50.6924 50.5749Z" fill="white"/>
<path d="M49.9496 51.7831C49.8102 51.876 49.6244 51.9224 49.4851 51.9224C49.2993 51.9689 49.1599 51.9224 48.9741 51.876C48.8812 51.8295 48.7883 51.7831 48.6954 51.7366C48.6025 51.6902 48.5096 51.5973 48.4631 51.5044C48.3238 51.365 48.2309 51.2257 48.1844 51.0863C48.138 50.9934 48.0915 50.854 48.0915 50.7611C48.0451 50.5753 48.0915 50.3895 48.138 50.2502C48.1844 50.1573 48.2309 50.0643 48.2773 49.925C48.2773 49.8785 48.3238 49.8785 48.3238 49.8321C48.4631 49.6463 48.6025 49.5069 48.7883 49.3676C48.8812 49.3211 49.0206 49.2747 49.1135 49.2282C49.2993 49.1817 49.4851 49.1817 49.6244 49.2282C49.8103 49.2282 49.9496 49.2746 50.089 49.414C50.3212 49.5534 50.4141 49.6927 50.5535 49.8785C50.6464 50.0643 50.7393 50.2966 50.6928 50.5289C50.6928 50.6218 50.6464 50.7611 50.6464 50.9005C50.5999 51.0863 50.507 51.2257 50.4141 51.365C50.3212 51.5044 50.1819 51.5973 50.0425 51.6902C49.9961 51.7366 49.9496 51.7366 49.9496 51.7831Z" fill="black"/>
</svg>
