<svg width="100" height="100" viewBox="0 0 100 100" fill="none" xmlns="http://www.w3.org/2000/svg">
<path d="M93.1974 46.1279C93.5671 46.2758 93.641 46.7564 93.5301 47.089C93.3823 47.4587 93.0496 47.6066 92.6799 47.5326C92.3842 47.3478 92.0515 47.2369 91.7558 47.163C91.4601 47.0521 91.2383 46.7933 91.2383 46.4606C91.2383 46.4606 91.2383 46.4606 91.2383 46.4237C91.2383 46.3128 91.2752 46.2019 91.3492 46.091C91.497 45.7953 91.8667 45.7213 92.1624 45.7583C92.4212 45.7953 92.6799 45.8322 92.9017 45.9431C92.9756 46.0171 93.0865 46.091 93.1974 46.1279Z" fill="black"/>
<path d="M93.5303 47.0889C93.6781 46.7562 93.5672 46.2757 93.1976 46.1278C93.0867 46.0909 92.9758 46.0169 92.8649 45.98C93.826 46.2757 94.6392 46.9041 94.8241 47.9761C94.9719 48.7154 94.861 49.4547 94.8241 50.194C94.7871 50.9703 94.7501 51.7835 94.7132 52.5967C94.6392 54.0384 94.6023 55.48 94.5283 56.9217C94.4914 57.6979 94.4544 58.4742 94.4174 59.2135C94.3805 59.805 94.3435 60.5073 94.1957 61.0988C93.863 62.1707 92.8649 62.5034 91.9038 62.2447C92.0147 62.2447 92.1256 62.2447 92.2365 62.2447C93.0497 62.2447 93.2346 61.2466 92.791 60.803C92.9388 60.5443 92.8649 60.1377 92.8649 59.805C92.8649 59.1396 92.8649 58.4373 92.9019 57.7719C92.9758 56.3672 93.0497 54.9625 93.1237 53.5209C93.1976 52.1162 93.3085 50.7115 93.3455 49.3068C93.3455 48.7893 93.4194 48.1979 93.0128 47.7913C92.9019 47.7173 92.791 47.6064 92.6801 47.5695C93.0128 47.6064 93.3824 47.4586 93.5303 47.0889Z" fill="black"/>
<path d="M92.1995 62.2449C92.0886 62.2449 91.9777 62.2449 91.8668 62.2449C91.7929 62.2449 91.7559 62.2079 91.682 62.2079C91.3863 62.097 90.9427 61.7643 91.3124 61.4316C91.5711 61.1729 92.1625 61.1729 92.4952 61.025C92.6061 60.9511 92.717 60.8772 92.754 60.8032C93.1976 61.2468 93.0127 62.2449 92.1995 62.2449Z" fill="black"/>
<path d="M82.3299 65.7568C84.9174 63.0214 88.2813 60.6556 92.1996 60.6187C92.4214 60.6187 92.6062 60.6926 92.7541 60.8035C92.7171 60.9144 92.6062 60.9883 92.4953 61.0253C92.1626 61.1731 91.5712 61.1362 91.3124 61.4319C90.9797 61.7646 91.3864 62.0973 91.6821 62.2082C91.756 62.2451 91.793 62.2451 91.8669 62.2451C87.6159 62.5039 84.363 65.8307 81.8124 68.9358C80.4816 70.5623 79.1878 72.2257 77.7462 73.7413C76.4524 75.109 75.0108 76.3289 73.4952 77.4009C70.4271 79.5818 66.9154 81.2083 63.2558 82.1324C59.4115 83.0935 55.4192 83.2414 51.4639 82.6499C49.5417 82.3542 47.6196 81.8737 45.7713 81.1713C44.1448 80.5429 42.4075 79.8406 40.9658 78.8055C41.1506 78.6946 41.2985 78.5468 41.4094 78.3619C41.5203 78.1032 41.5203 77.6966 41.2985 77.5118C42.2226 77.8814 43.1098 78.362 44.0339 78.7686C45.032 79.2122 46.067 79.5818 47.102 79.9145C49.1721 80.5429 51.3161 80.9865 53.497 81.1713C60.964 81.7997 68.5419 79.397 74.2715 74.5545C77.3396 72.0039 79.5575 68.6401 82.3299 65.7568Z" fill="black"/>
<path d="M90.6468 44.8714C91.3492 45.315 92.1255 45.6477 92.8648 46.0173C92.643 45.9434 92.3842 45.8695 92.1255 45.8325C91.8297 45.7955 91.4601 45.8695 91.3122 46.1652C91.2753 46.2761 91.2383 46.35 91.2013 46.4979V46.5348C91.2013 46.8675 91.4231 47.1263 91.7188 47.2372C92.0146 47.3481 92.3473 47.459 92.643 47.6068C92.643 47.6068 92.606 47.6068 92.569 47.6068C90.462 47.2741 88.5029 45.6477 87.0612 44.1321C85.4348 42.4317 84.2149 40.3986 83.069 38.3286C82.034 36.4433 81.0359 34.5212 79.816 32.7468C78.7441 31.2313 77.5242 29.7896 76.1935 28.5328C73.532 25.9822 70.316 23.9491 66.8782 22.6553C63.1078 21.2506 59.1155 20.6962 55.0863 21.0289C53.0902 21.2137 51.0941 21.5833 49.1719 22.1748C48.2108 22.4705 47.2127 22.8401 46.2886 23.2468C45.5493 23.5795 44.81 23.9861 44.0707 24.2448C44.0337 23.9861 43.9598 23.7273 43.738 23.5055C43.5902 23.3577 43.4423 23.2098 43.2944 23.0619C44.0707 22.4705 44.9948 22.0639 45.919 21.6573C46.991 21.1767 48.0999 20.7701 49.2089 20.4744C51.5007 19.809 53.8665 19.4393 56.2323 19.3285C64.2537 18.9958 72.1643 22.1008 77.8569 27.7196C79.2246 29.0873 80.4814 30.6028 81.5534 32.1923C82.8102 34.0406 83.8083 36.0737 84.9173 37.9959C85.9523 39.8072 87.0612 41.5815 88.5029 43.0971C89.1313 43.7255 89.8336 44.3539 90.6468 44.8714Z" fill="black"/>
<path d="M43.4054 24.4297C42.8509 24.5776 42.4443 23.8752 42.8509 23.4686C42.9988 23.3208 43.1467 23.1729 43.3315 23.062C43.4794 23.2099 43.6272 23.3577 43.7751 23.5056C43.9599 23.7274 44.0708 23.9492 44.1078 24.2449C43.886 24.2819 43.6642 24.3558 43.4054 24.4297Z" fill="black"/>
<path d="M43.774 24.5391C43.811 24.5391 43.811 24.5391 43.848 24.5022L43.8849 24.4652C43.8849 24.4652 43.9219 24.4652 43.9219 24.4282C43.9219 24.4282 43.9219 24.4282 43.9588 24.3913C43.9958 24.3543 44.0697 24.3173 44.1067 24.3173C44.2176 24.2804 44.3655 24.3173 44.4764 24.3913C44.6242 24.5391 44.6242 24.7609 44.4764 24.9088C44.2546 25.1306 43.9589 25.2045 43.6631 25.2415C43.3304 25.2784 42.9608 25.3154 42.6281 25.2045C42.2954 25.1306 41.9627 24.9827 41.704 24.7609C41.4452 24.5761 41.2234 24.3543 40.9277 24.2064C40.7429 24.1325 40.7059 23.8738 40.7798 23.6889C40.8907 23.5041 41.1125 23.4671 41.2974 23.5411C41.5191 23.652 41.7409 23.8368 41.9258 23.9847C41.9627 24.0216 41.9627 24.0216 41.9997 24.0586C42.1845 24.2064 42.4063 24.3543 42.6651 24.4282C42.9238 24.5022 43.1826 24.5391 43.4783 24.5022H43.5892C43.6631 24.5761 43.7371 24.5761 43.774 24.5391Z" fill="#FF3A4B"/>
<path d="M41.298 23.5424C41.1132 23.4684 40.8914 23.5054 40.7805 23.6902C40.7066 23.8381 40.7435 24.1338 40.9284 24.2078C41.2241 24.3186 41.4459 24.5774 41.7046 24.7622C41.9634 24.9471 42.2961 25.1319 42.6288 25.2058C42.9614 25.2797 43.3311 25.2797 43.6638 25.2428C43.9595 25.2058 44.2922 25.1319 44.477 24.9101C44.6249 24.7622 44.6249 24.5404 44.477 24.3926C44.4031 24.3186 44.2552 24.2817 44.1074 24.3186V24.2817C44.8836 23.986 45.586 23.6163 46.3253 23.2836C47.2864 22.877 48.2475 22.5443 49.2086 22.2116C51.1307 21.6202 53.1269 21.2136 55.123 21.0657C59.1152 20.733 63.1444 21.2875 66.9149 22.6922C70.3896 23.986 73.5686 26.019 76.2301 28.5696C77.5609 29.8634 78.8177 31.2681 79.8527 32.7837C81.0726 34.558 82.0706 36.4802 83.1057 38.3654C84.2516 40.4355 85.4714 42.4316 87.0979 44.169C88.5395 45.6845 90.4617 47.274 92.6057 47.6437C92.6057 47.6437 92.6427 47.6437 92.6796 47.6437C92.7905 47.7176 92.9014 47.7916 93.0123 47.8655C93.4189 48.2721 93.345 48.8635 93.345 49.3811C93.3081 50.7857 93.1971 52.1904 93.1232 53.5951C93.0493 54.9998 92.9754 56.4044 92.9014 57.8461C92.8645 58.5115 92.8645 59.2138 92.8645 59.8792C92.8645 60.2118 92.9384 60.6185 92.7905 60.8772C92.6796 60.7663 92.4948 60.6924 92.2361 60.6924C88.3177 60.7294 84.9539 63.0582 82.3663 65.8306C79.594 68.7508 77.376 72.1147 74.271 74.7022C68.5414 79.5447 60.9635 81.9104 53.4965 81.319C51.3156 81.1342 49.2086 80.6906 47.1015 80.0622C46.0665 79.7295 45.0315 79.3598 44.0334 78.9162C43.1093 78.5096 42.2221 78.0291 41.298 77.6594C41.261 77.6225 41.2241 77.5855 41.1871 77.5855C40.7435 77.4007 40.4478 77.4746 40.0042 77.5855C39.6346 77.6964 39.2649 77.8443 38.8953 77.9552C38.156 78.1769 37.3797 78.3987 36.6034 78.5836C35.0509 78.9532 33.4984 79.212 31.9088 79.3598C30.3563 79.5077 28.7668 79.5447 27.1773 79.5077C26.401 79.4707 25.5878 79.4338 24.8115 79.3968C24.257 79.3598 23.5917 79.2489 23.0002 79.2859C22.8524 79.212 22.7415 79.175 22.5936 79.1011C21.8913 78.6945 21.4107 78.066 21.115 77.3267C20.3757 75.6263 20.3757 73.6302 20.2648 71.8189C19.9691 67.531 19.8582 63.206 19.5255 58.9181C18.8971 51.3402 17.4554 43.5406 13.1675 37.1086C12.576 36.2214 11.9476 35.4082 11.2823 34.595C10.6538 33.8557 9.98848 33.1533 9.50793 32.3031C9.47097 32.2662 9.47096 32.2292 9.434 32.1922C9.434 32.1553 9.43399 32.1183 9.39703 32.0813C9.3231 31.6008 9.24917 31.1202 9.3231 30.6397C9.39704 30.1222 9.61883 29.6786 9.87758 29.272C10.0254 29.0502 10.1733 28.8654 10.3212 28.6436C10.3212 28.6066 10.3581 28.6066 10.3581 28.5696C10.506 28.4957 10.5799 28.3479 10.6169 28.237C10.6539 28.2 10.6538 28.163 10.6908 28.163C10.8756 28.0152 11.0974 27.8303 11.2823 27.6455C11.7628 27.2389 12.2434 26.8323 12.7609 26.4257C13.7589 25.6124 14.7939 24.8731 15.8659 24.1708C18.0099 22.8031 20.2648 21.6202 22.6675 20.8439C27.2512 19.3653 32.2046 19.2914 36.7513 21.0287C37.9342 21.4723 39.0801 22.0638 40.1521 22.7661C40.7066 23.1358 41.2241 23.5054 41.7046 23.912C41.7786 23.986 41.8525 24.0599 41.9264 24.1338C41.7046 23.8011 41.5198 23.6163 41.298 23.5424Z" fill="#FF3A4B"/>
<path d="M40.4111 78.3985C39.9675 78.0289 40.448 77.2157 40.9656 77.4005C41.0765 77.4374 41.1504 77.4744 41.2613 77.5114C41.4831 77.6962 41.52 78.1028 41.3722 78.3616C41.2613 78.5464 41.1134 78.6943 40.9286 78.8052C40.7807 78.6943 40.5959 78.5834 40.4111 78.3985Z" fill="black"/>
<path d="M24.6641 79.6923C24.8858 79.6923 25.0707 79.988 24.8489 80.1729C24.5162 80.4686 24.1465 80.6904 23.7769 80.7643C23.2224 80.6904 22.6679 80.5425 22.2613 80.2468C21.8917 79.988 21.9286 79.4336 22.3722 79.2857C22.557 79.2118 22.7419 79.2118 22.9637 79.1748C23.1485 79.2487 23.3703 79.3227 23.5921 79.3966C23.9248 79.5075 24.2574 79.6554 24.6641 79.6923Z" fill="black"/>
<path d="M24.8486 80.1729C25.0334 79.9881 24.8856 79.6924 24.6638 79.6924C24.2941 79.6554 23.9614 79.5075 23.5918 79.3966C23.37 79.3227 23.1852 79.2488 22.9634 79.1748C23.5548 79.1379 24.2202 79.2488 24.7747 79.2857C25.5509 79.3597 26.3272 79.3966 27.1404 79.3966C28.7299 79.4336 30.2825 79.3966 31.872 79.2488C33.4615 79.1009 35.014 78.8422 36.5666 78.4725C37.3428 78.2877 38.0821 78.0659 38.8584 77.8441C39.2281 77.7332 39.5977 77.6223 39.9674 77.4745C40.411 77.3266 40.7067 77.2527 41.1503 77.4745C41.1872 77.5114 41.2242 77.5114 41.2612 77.5484C41.1503 77.5114 41.0763 77.4744 40.9654 77.4375C40.411 77.2157 39.9674 78.0659 40.411 78.4355C40.5958 78.5834 40.7806 78.7313 40.9654 78.8791C40.7436 78.99 40.4849 79.0639 40.2261 79.1748C39.8565 79.3227 39.4868 79.4336 39.1172 79.5445C38.3779 79.7663 37.6016 79.9881 36.8253 80.1729C35.2358 80.5426 33.5724 80.8013 31.9459 80.9861C30.3194 81.134 28.693 81.2079 27.0665 81.134C26.2902 81.097 25.477 81.0231 24.7007 80.9492C24.405 80.9122 24.1093 80.8752 23.7766 80.8383C24.1463 80.6535 24.5159 80.4686 24.8486 80.1729Z" fill="black"/>
<path d="M10.5799 28.0521L10.6169 28.0151C10.5799 28.0521 10.5799 28.0891 10.543 28.0891C10.5799 28.0891 10.5799 28.0891 10.5799 28.0521Z" fill="black"/>
<path d="M10.58 28.0889C10.5431 28.2367 10.4691 28.3476 10.3213 28.4216C10.3952 28.3476 10.5061 28.2367 10.58 28.0889Z" fill="black"/>
<path d="M10.2844 27.165C10.6171 27.202 10.8019 27.4608 10.728 27.7934C10.728 27.8674 10.691 27.9413 10.6541 28.0152C10.6171 28.0152 10.6171 28.0522 10.6171 28.0522C10.691 27.6456 10.3583 27.1281 9.84082 27.2759C9.95172 27.202 10.1365 27.165 10.2844 27.165Z" fill="black"/>
<path d="M9.80385 27.2758C10.3583 27.128 10.691 27.6455 10.6171 28.0521C10.3583 28.2739 10.0626 28.4587 9.72992 28.6066C9.28634 28.7914 8.87972 28.4217 9.10151 27.9782C9.13848 27.8673 9.21241 27.7564 9.28634 27.6455C9.39723 27.4976 9.61902 27.3498 9.80385 27.2758Z" fill="black"/>
<path d="M9.80399 27.2759C9.61916 27.3498 9.43434 27.4977 9.24951 27.6455C9.24951 27.6086 9.28648 27.5716 9.28648 27.5716C9.32344 27.4977 9.36041 27.4607 9.39737 27.3868C9.54523 27.3498 9.65613 27.3128 9.80399 27.2759Z" fill="black"/>
<path d="M36.7144 20.8808C32.1677 19.1804 27.2513 19.2174 22.6307 20.696C20.2279 21.4723 17.9361 22.6552 15.8291 24.0229C14.7571 24.7252 13.722 25.4645 12.724 26.2778C12.2434 26.6844 11.7629 27.091 11.2454 27.4976C11.0236 27.6824 10.8388 27.8673 10.6539 28.0151C10.6909 27.9412 10.7279 27.8673 10.7279 27.7933C10.8018 27.4606 10.58 27.2019 10.2843 27.1649C10.1364 27.1649 9.95159 27.2019 9.80373 27.2758C9.69284 27.3128 9.54498 27.3498 9.43408 27.3867C9.43408 27.3498 9.47105 27.3498 9.47105 27.3128C9.80374 26.9062 10.2104 26.5365 10.58 26.1669C11.0975 25.6494 11.689 25.2058 12.2434 24.7252C13.4263 23.7641 14.6831 22.877 16.0139 22.0637C20.5237 19.3653 25.7357 17.7388 31.0218 18.0345C33.5724 18.1824 36.049 18.7369 38.3778 19.7719C39.5238 20.2524 40.5958 20.8808 41.5938 21.5832C42.1113 21.9528 42.5919 22.3225 43.0724 22.7291C43.1464 22.803 43.2573 22.877 43.3312 22.9509C43.1833 23.0988 42.9985 23.2096 42.8506 23.3575C42.444 23.7641 42.8506 24.4665 43.4051 24.3186C43.6269 24.2447 43.8487 24.1707 44.0705 24.0968V24.1338C43.9966 24.1338 43.9596 24.1707 43.9226 24.2077C43.9226 24.2077 43.9226 24.2077 43.8857 24.2447C43.8857 24.2447 43.8487 24.2447 43.8487 24.2816C43.8487 24.2816 43.8117 24.2816 43.8117 24.3186C43.7748 24.3186 43.7748 24.3186 43.7378 24.3556C43.7008 24.3556 43.6269 24.3925 43.553 24.3925H43.4421C43.1464 24.4295 42.8876 24.4295 42.6288 24.3186C42.4071 24.2447 42.1853 24.1338 41.9635 23.949C41.9265 23.912 41.9265 23.912 41.8895 23.875C41.8156 23.8011 41.7417 23.7272 41.6677 23.6532C41.1872 23.2466 40.6327 22.84 40.1152 22.5073C39.0432 21.9159 37.8973 21.3244 36.7144 20.8808Z" fill="black"/>
<path d="M9.28634 27.5718C9.28634 27.6087 9.24937 27.6457 9.24937 27.6457L9.2124 27.6827C9.24937 27.6457 9.28634 27.6087 9.28634 27.5718Z" fill="black"/>
<path d="M9.36004 32.0811C9.02735 31.4527 8.80556 30.7503 8.95342 30.048C9.10128 29.3826 9.43396 28.7542 10.1363 28.5324C10.2102 28.4955 10.2472 28.4955 10.3211 28.4585C10.3211 28.4955 10.2842 28.4955 10.2842 28.5324C10.1363 28.7542 9.98844 28.939 9.84058 29.1608C9.58183 29.5674 9.36004 30.048 9.2861 30.5285C9.21217 31.0091 9.24914 31.4896 9.36004 31.9702C9.36004 32.0072 9.36004 32.0441 9.36004 32.0811Z" fill="black"/>
<path d="M8.39892 32.5249C7.91837 31.5638 7.8814 30.4549 8.17713 29.4568C8.28802 29.0871 8.43589 28.7545 8.62071 28.4218C8.80554 28.163 9.02732 27.9412 9.21215 27.6825L9.24911 27.6455C9.17518 27.7564 9.13822 27.8673 9.06429 27.9782C8.87946 28.4218 9.28608 28.7914 9.6927 28.6066C10.0254 28.4587 10.2841 28.2739 10.5799 28.0521V28.0891C10.5059 28.2 10.395 28.3109 10.3211 28.4218C10.2841 28.4587 10.2102 28.4957 10.1363 28.4957C9.43394 28.6805 9.10126 29.3089 8.9534 30.0113C8.80554 30.7136 8.99036 31.416 9.36002 32.0444C9.39698 32.2662 9.47091 32.451 9.54484 32.6728C9.61877 32.8946 9.80359 33.1164 9.80359 33.3381C9.80359 33.449 9.84056 33.6339 9.72967 33.7078C9.61877 33.7817 9.39698 33.7078 9.28608 33.6708C9.06429 33.5599 8.87946 33.3012 8.7316 33.0794C8.62071 32.9315 8.50981 32.7467 8.39892 32.5249Z" fill="black"/>
<path d="M9.21253 27.6826C9.0277 27.9414 8.84288 28.1632 8.62109 28.4219C8.69502 28.311 8.76895 28.1632 8.87984 28.0523C8.95377 27.9414 9.06467 27.8305 9.21253 27.6826Z" fill="black"/>
<path d="M8.39902 32.5247C8.50992 32.7465 8.62081 32.9313 8.76867 33.1161C8.91654 33.3379 9.10136 33.5967 9.32315 33.7075C9.43405 33.7445 9.65583 33.8184 9.76673 33.7445C9.87762 33.6706 9.84066 33.4858 9.84066 33.3749C9.8037 33.1161 9.65583 32.9313 9.5819 32.7095C9.50797 32.5247 9.43404 32.3029 9.39708 32.0811C9.39708 32.118 9.43405 32.155 9.47101 32.192C9.95156 33.0422 10.6169 33.7445 11.2453 34.4838C11.9477 35.2971 12.5391 36.1103 13.1306 36.9975C17.4185 43.4294 18.8602 51.2291 19.4886 58.8069C19.8582 63.0949 19.9322 67.4198 20.2279 71.7078C20.3388 73.5191 20.3388 75.5152 21.0781 77.2156C21.4108 77.9549 21.8913 78.5833 22.5567 78.9899C22.6676 79.0638 22.8154 79.1378 22.9633 79.1747C22.7415 79.1747 22.5567 79.2117 22.3719 79.2856C21.9283 79.3965 21.8913 79.988 22.261 80.2467C22.6676 80.5425 23.259 80.6903 23.7765 80.7642C23.259 80.8751 22.7415 80.8382 22.187 80.6164C21.2629 80.2467 20.4497 79.5074 19.9322 78.6572C18.7123 76.6981 18.7493 74.0736 18.6014 71.8556C18.01 63.1688 18.1948 54.3341 15.5333 45.943C14.3504 42.2095 12.613 38.6979 10.1364 35.7037C9.5819 35.0013 8.95349 34.299 8.47295 33.5227C8.10329 32.8204 7.80757 32.0811 7.77061 31.2309C7.73364 30.4546 7.8815 29.7153 8.28812 29.0499C8.39902 28.8651 8.54688 28.6433 8.69474 28.4585C8.50991 28.7912 8.36206 29.1239 8.25116 29.4935C7.88151 30.4546 7.91848 31.5636 8.39902 32.5247Z" fill="black"/>
<path d="M78.5593 43.7623C80.0749 48.4199 80.3706 53.4103 79.0768 58.1418C77.7461 62.8733 74.8628 67.0504 71.0554 70.1555C67.3219 73.2236 62.6643 75.2567 57.8588 75.7003C52.9055 76.1439 47.9152 74.887 43.6642 72.3734C39.4132 69.8598 35.9015 66.1263 33.7575 61.6535C31.6874 57.2546 31.133 52.1904 32.0201 47.4219C32.9073 42.6534 35.1252 38.1067 38.489 34.595C42.0007 30.9354 46.6214 28.6436 51.6117 27.7934C56.639 26.9432 61.7032 27.7194 66.3608 29.7525C67.4698 30.2331 68.6526 30.7136 69.6507 31.379C69.7986 31.4899 69.9464 31.4899 70.0573 31.4899C70.0943 31.6377 70.1682 31.7486 70.3161 31.8595C74.1605 34.8907 77.0437 39.1417 78.5593 43.7623ZM52.1662 52.0056C52.1662 51.8207 52.1292 51.6359 52.0553 51.4881C51.9444 51.3032 51.8704 51.1923 51.6856 51.1184C51.5747 51.0445 51.4269 51.0075 51.316 50.9705C51.1681 50.9336 51.0202 50.9336 50.9093 50.9705C50.8354 51.0075 50.7615 51.0445 50.6506 51.0814C50.5027 51.1554 50.3549 51.3032 50.2809 51.4511C50.244 51.488 50.244 51.4881 50.244 51.525C50.207 51.5989 50.17 51.6729 50.1331 51.7838C50.0961 51.9316 50.0591 52.0425 50.0961 52.1904C50.0961 52.2643 50.0961 52.3752 50.17 52.4491C50.207 52.597 50.2809 52.7079 50.3918 52.7818C50.4658 52.8558 50.5397 52.8927 50.5767 52.9667C50.6506 53.0036 50.7245 53.0406 50.7984 53.0776C50.9463 53.1145 51.0572 53.1515 51.2051 53.1145C51.3529 53.1145 51.4638 53.0776 51.5747 53.0036C51.6117 53.0036 51.6117 52.9667 51.6486 52.9667C51.7595 52.8927 51.8704 52.8188 51.9444 52.7079C52.0553 52.597 52.0922 52.4861 52.1292 52.3383C52.1662 52.1904 52.1662 52.1165 52.1662 52.0056Z" fill="white"/>
<path d="M50.5398 52.9296C50.4659 52.8926 50.3919 52.8187 50.355 52.7448C50.2441 52.6339 50.1702 52.523 50.1332 52.4121C50.0962 52.3382 50.0593 52.2273 50.0593 52.1533C50.0223 52.0055 50.0593 51.8576 50.0962 51.7467C50.1332 51.6728 50.1702 51.5989 50.2071 51.488C50.2071 51.451 50.2441 51.451 50.2441 51.414C50.355 51.2662 50.4659 51.1553 50.6137 51.0444C50.6877 51.0074 50.7986 50.9705 50.8725 50.9335C51.0204 50.8965 51.1682 50.8965 51.2791 50.9335C51.427 50.9335 51.5379 50.9704 51.6488 51.0813C51.8336 51.1922 51.9075 51.3031 52.0184 51.451C52.0923 51.5989 52.1663 51.7837 52.1293 51.9685C52.1293 52.0424 52.0923 52.1533 52.0923 52.2642C52.0554 52.4121 51.9814 52.523 51.9075 52.6339C51.8336 52.7448 51.7227 52.8187 51.6118 52.8926C51.5748 52.8926 51.5748 52.9296 51.5379 52.9296C51.427 53.0035 51.2791 53.0405 51.1682 53.0405C51.0204 53.0775 50.9095 53.0405 50.7616 53.0035C50.6877 53.0035 50.6137 52.9666 50.5398 52.9296Z" fill="black"/>
<path d="M21.8177 27.6453C24.7379 26.4255 27.88 25.871 31.022 26.1297C32.5746 26.2406 34.0902 26.5733 35.5688 27.0908C37.0474 27.6084 38.3781 28.3477 39.7458 29.1239C40.2264 29.3827 40.67 29.6784 41.0766 30.0111C40.7069 30.2698 40.3003 30.5286 39.9306 30.8243C35.7536 33.9664 32.7224 38.5131 31.096 43.4664C29.4695 48.4198 29.2477 53.8906 30.7263 58.9179C32.094 63.5385 34.8294 67.6047 38.4151 70.7837C33.166 73.9997 26.5123 74.5542 20.7457 72.4841C14.9422 70.4141 10.5063 65.6825 8.17754 60.0638C5.70087 54.0754 6.03356 47.2738 8.51023 41.3224C10.9869 35.2601 15.7924 30.1959 21.8177 27.6453ZM21.4111 50.1941C21.4111 50.0462 21.4111 49.9353 21.3372 49.8244C21.3002 49.7135 21.2263 49.6026 21.1523 49.4918C21.0784 49.3809 20.9675 49.3069 20.8566 49.27C20.7457 49.196 20.6348 49.1591 20.4869 49.1591L20.2282 49.196C20.0803 49.233 19.9325 49.3069 19.7846 49.4178C19.7476 49.4917 19.6737 49.5657 19.6368 49.6026C19.5628 49.7505 19.4889 49.8984 19.4889 50.0832C19.4889 50.1941 19.4889 50.268 19.4889 50.3789C19.4889 50.5268 19.4889 50.6377 19.5628 50.7486C19.5998 50.8595 19.6737 50.9704 19.7476 51.0813C19.8216 51.1921 19.9325 51.2661 20.0434 51.303C20.1543 51.377 20.2652 51.4139 20.413 51.4139C20.487 51.4139 20.5978 51.4139 20.6718 51.377C20.8196 51.34 20.9675 51.2661 21.1154 51.1552C21.1523 51.0813 21.2263 51.0443 21.2632 50.9704C21.3372 50.8225 21.4111 50.6746 21.4111 50.4898C21.4111 50.3789 21.4111 50.268 21.4111 50.1941Z" fill="white"/>
<path d="M23.7028 25.0582C27.0297 24.0601 30.5044 23.9122 33.9052 24.6885C35.5686 25.0582 37.1581 25.6496 38.6368 26.4629C40.0045 27.2022 41.1504 28.2002 42.1484 29.3461C46.0668 27.0173 50.5765 25.7975 55.1232 25.6866C57.8217 25.6127 60.5202 25.9823 63.1077 26.6846C64.4385 27.0543 65.7322 27.5348 66.9891 28.1632C67.5805 28.459 68.1719 28.7917 68.7264 29.1613C69.2809 29.531 69.7984 29.9745 70.3529 30.3442C70.5008 30.4181 70.5747 30.566 70.6117 30.6769C70.7595 30.6769 70.9074 30.7138 71.0183 30.8247C72.0533 31.564 73.0144 32.4143 73.9385 33.3014C77.5981 36.961 80.1117 41.8034 81.1098 46.9046C82.1078 52.0797 81.5903 57.4767 79.3724 62.2452C77.1915 66.9767 73.4949 70.932 69.0591 73.6304C64.6233 76.3289 59.4112 77.7706 54.2361 77.4748C49.024 77.1422 43.9597 75.1091 39.8566 71.8931C39.8196 71.93 39.7457 72.004 39.6718 72.0409C39.0064 72.4845 38.3041 72.9281 37.5648 73.2978C31.4655 76.3659 23.9246 76.1441 17.8993 73.002C12.1697 70.0448 7.88171 64.5 6.03345 58.3638C4.00036 51.6731 5.07235 44.354 8.32528 38.2548C11.5043 32.1185 17.0121 27.0913 23.7028 25.0582ZM31.0219 26.1302C27.8799 25.8714 24.7009 26.4259 21.8176 27.6457C15.8292 30.1963 11.0237 35.2606 8.51011 41.2489C6.03344 47.2003 5.70076 54.0019 8.17743 59.9903C10.5062 65.609 14.9421 70.3405 20.7456 72.4106C26.5122 74.4807 33.1659 73.9262 38.415 70.7102C34.8293 67.5312 32.0939 63.465 30.7262 58.8444C29.2476 53.8171 29.4694 48.3462 31.0959 43.3929C32.7223 38.4396 35.7535 33.8929 39.9305 30.7508C40.3002 30.4551 40.7068 30.1963 41.0765 29.9376C40.6329 29.6049 40.1893 29.3461 39.7457 29.0504C38.378 28.2741 37.0473 27.5348 35.5686 27.0173C34.09 26.5737 32.5745 26.2411 31.0219 26.1302ZM79.0397 58.142C80.3705 53.4105 80.0378 48.4202 78.5222 43.7626C77.0066 39.1419 74.1233 34.8909 70.242 31.9337C70.0941 31.8228 70.0202 31.7119 69.9832 31.564C69.8724 31.564 69.7245 31.5271 69.5766 31.4532C68.5786 30.7878 67.3957 30.2703 66.2867 29.8267C61.6291 27.7936 56.5649 27.0543 51.5376 27.8675C46.5473 28.6808 41.9267 31.0096 38.415 34.6691C35.0511 38.1808 32.8332 42.7275 31.946 47.4961C31.0589 52.2646 31.6134 57.3288 33.6834 61.7276C35.7904 66.2004 39.3391 69.897 43.5901 72.4476C47.8411 74.9612 52.8314 76.218 57.7847 75.7744C62.6272 75.3308 67.2848 73.2978 70.9813 70.2296C74.8257 67.0506 77.709 62.8736 79.0397 58.142Z" fill="black"/>
<path d="M21.411 50.4899C21.411 50.6748 21.337 50.8226 21.2631 50.9705C21.2261 51.0444 21.1522 51.1183 21.1152 51.1553C21.0043 51.2662 20.8565 51.3401 20.6716 51.3771C20.5977 51.3771 20.4868 51.4141 20.4129 51.4141C20.265 51.4141 20.1541 51.3771 20.0432 51.3032C19.9324 51.2662 19.8214 51.1923 19.7475 51.0814C19.6736 51.0074 19.5997 50.8965 19.5627 50.7487C19.4888 50.6378 19.4888 50.4899 19.4888 50.379C19.4888 50.2681 19.4888 50.1942 19.4888 50.0833C19.4888 49.8985 19.5627 49.7506 19.6366 49.6028C19.6736 49.5288 19.7475 49.4549 19.7845 49.4179C19.8954 49.307 20.0432 49.2331 20.2281 49.1961L20.4868 49.1592C20.6347 49.1592 20.7456 49.1961 20.8565 49.2701C20.9674 49.307 21.0783 49.381 21.1522 49.4919C21.2261 49.5658 21.3001 49.6767 21.337 49.8245C21.411 49.9354 21.411 50.0463 21.411 50.1942C21.411 50.2681 21.411 50.379 21.411 50.4899Z" fill="black"/>
</svg>
