<?xml version="1.0" encoding="utf-8"?>
<!-- Generator: Adobe Illustrator 27.5.0, SVG Export Plug-In . SVG Version: 6.00 Build 0)  -->
<!DOCTYPE svg PUBLIC "-//W3C//DTD SVG 1.1//EN" "http://www.w3.org/Graphics/SVG/1.1/DTD/svg11.dtd" [
	<!ENTITY ns_extend "http://ns.adobe.com/Extensibility/1.0/">
	<!ENTITY ns_ai "http://ns.adobe.com/AdobeIllustrator/10.0/">
	<!ENTITY ns_graphs "http://ns.adobe.com/Graphs/1.0/">
	<!ENTITY ns_vars "http://ns.adobe.com/Variables/1.0/">
	<!ENTITY ns_imrep "http://ns.adobe.com/ImageReplacement/1.0/">
	<!ENTITY ns_sfw "http://ns.adobe.com/SaveForWeb/1.0/">
	<!ENTITY ns_custom "http://ns.adobe.com/GenericCustomNamespace/1.0/">
	<!ENTITY ns_adobe_xpath "http://ns.adobe.com/XPath/1.0/">
]>
<svg version="1.1" id="Calque_1" xmlns:x="&ns_extend;" xmlns:i="&ns_ai;" xmlns:graph="&ns_graphs;"
	 xmlns="http://www.w3.org/2000/svg" xmlns:xlink="http://www.w3.org/1999/xlink" x="0px" y="0px" viewBox="0 0 800 1000"
	 enable-background="new 0 0 800 1000" xml:space="preserve">
<metadata>
	<sfw  xmlns="&ns_sfw;">
		<slices></slices>
		<sliceSourceBounds  bottomLeftOrigin="true" height="47.1" width="38" x="430.1" y="-732.1"></sliceSourceBounds>
	</sfw>
</metadata>
<g id="XMLID_00000099626338399491418970000015126296982122220968_">
	<g>
		<path d="M463.5,692.9c0.1-1.5,0-3,0.9-4.3c0.1-0.2,0.2-0.3,0.4-0.4c0.7-0.6,1.8-0.5,2.4,0.4c1.1,1.7,0.8,4.2,0.8,6.2
			c0,2,0,4-0.1,5.9c0,4-0.1,7.9-0.2,11.9c-0.1,3.6-0.2,7.2-0.3,10.9c-0.1,1.6-0.1,3.3-1.3,4.6c-1,1.1-2.3,1.6-3.7,1.9
			c-5.2,1.2-10.5,2-15.8,1.9l0-2.8c0.4-0.5,0.9-1,1.4-1.6c0.3,0,0.5,0,0.8,0c2.8-0.1,5.6-0.5,8.4-0.9c1.4-0.2,2.9-0.5,4.3-0.7
			c0.9-0.2,1.6-0.2,1.7-1.2c0.2-1.5,0-3.2,0-4.8c0-1.4,0-2.8,0-4.2c0-3.1,0-6.1,0.1-9.2c0-3,0.1-6.1,0.2-9.2
			C463.5,696,463.5,694.5,463.5,692.9z"/>
		<path fill="#21C488" d="M464.8,688.2c-0.1,0.1-0.3,0.2-0.4,0.4c-0.9,1.3-0.9,2.8-0.9,4.3c-0.1,1.6-0.1,3.1-0.1,4.7
			c-0.1,3.1-0.1,6.1-0.2,9.2c0,3-0.1,6.1-0.1,9.2c0,1.4,0,2.8,0,4.2c0,1.6,0.2,3.2,0,4.8c-0.1,1-0.9,1-1.7,1.2
			c-1.4,0.3-2.9,0.5-4.3,0.7c-2.8,0.5-5.6,0.8-8.4,0.9c-0.3,0-0.5,0-0.8,0c1.3-1.7,2.6-3.9,3.5-6.8c1.1-3.5,0.8-5.8,0.7-9.9
			c-0.4-14.3,1.9-20.2-1.2-22c-0.6-0.3-1.5-0.6-3.1-0.3c-0.1-0.1-0.2-0.3-0.3-0.4c0.6-0.9,1.6-1.6,2.6-2.1c4.3-2.1,9.8-1.6,13.7,1.2
			C464.2,687.7,464.6,688,464.8,688.2z"/>
		<path fill="#20A069" d="M451,689c3.1,1.8,0.8,7.7,1.2,22c0.1,4.1,0.4,6.4-0.7,9.9c-0.9,2.8-2.2,5.1-3.5,6.8
			c-2.5,0.1-5.1,0-7.5-0.5c-1.8-0.3-5.1-0.8-5.9-2.7c-1-2.2,0.8-4.5,2.6-5.6c2.1-1.3,4.7-1.6,7.1-2c0.1,0.6,0.3,1.2,0.5,1.7
			c0.3,0.8,1,1.5,1.9,1.5c0.8,0,1.8-0.6,1.9-1.5c0.5-2.7,0-5.6-0.1-8.3c-0.1-2.8-0.1-5.5-0.1-8.3c0-2.7,0.1-5.4,0.1-8
			c0-0.9,0.2-3.9-0.6-5.2C449.5,688.4,450.4,688.7,451,689z"/>
		<path d="M447.6,688.4c0.1,0.1,0.2,0.2,0.3,0.4c-0.2,0-0.4,0.1-0.7,0.2C447.4,688.7,447.5,688.5,447.6,688.4z"/>
		<path d="M446.1,688.3c0.7-0.3,1.2-0.2,1.5,0.1c-0.1,0.2-0.2,0.4-0.3,0.6c0.2-0.1,0.4-0.1,0.7-0.2c0.8,1.3,0.6,4.3,0.6,5.2
			c-0.1,2.7-0.1,5.4-0.1,8c0,2.8,0,5.5,0.1,8.3c0.1,2.7,0.6,5.6,0.1,8.3c-0.2,0.9-1.1,1.5-1.9,1.5c-1,0-1.6-0.6-1.9-1.5
			c-0.2-0.5-0.4-1.1-0.5-1.7c-2.4,0.4-5,0.7-7.1,2c-1.8,1.1-3.6,3.4-2.6,5.6c0.9,2,4.1,2.4,5.9,2.7c2.5,0.5,5,0.5,7.5,0.5
			c-0.5,0.6-0.9,1.2-1.4,1.6l0,2.8c-1.4,0-2.9-0.1-4.3-0.3c-3-0.4-6.4-1.1-8.9-2.8c-2.6-1.8-3.7-4.6-3.2-7.7c1-6.3,8-8.4,13.6-8.4
			c0-0.7,0-1.4-0.1-2.1c-0.1-2.6-0.2-5.2-0.1-7.8c0-2.6,0.2-5.2,0.4-7.8c0.1-1.3,0.3-2.7,0.5-4C444.7,690.1,444.9,688.8,446.1,688.3
			z"/>
	</g>
	<g>
	</g>
</g>
</svg>
