<?xml version="1.0" encoding="utf-8"?>
<!-- Generator: Adobe Illustrator 27.5.0, SVG Export Plug-In . SVG Version: 6.00 Build 0)  -->
<!DOCTYPE svg PUBLIC "-//W3C//DTD SVG 1.1//EN" "http://www.w3.org/Graphics/SVG/1.1/DTD/svg11.dtd" [
	<!ENTITY ns_extend "http://ns.adobe.com/Extensibility/1.0/">
	<!ENTITY ns_ai "http://ns.adobe.com/AdobeIllustrator/10.0/">
	<!ENTITY ns_graphs "http://ns.adobe.com/Graphs/1.0/">
	<!ENTITY ns_vars "http://ns.adobe.com/Variables/1.0/">
	<!ENTITY ns_imrep "http://ns.adobe.com/ImageReplacement/1.0/">
	<!ENTITY ns_sfw "http://ns.adobe.com/SaveForWeb/1.0/">
	<!ENTITY ns_custom "http://ns.adobe.com/GenericCustomNamespace/1.0/">
	<!ENTITY ns_adobe_xpath "http://ns.adobe.com/XPath/1.0/">
]>
<svg version="1.1" id="Calque_1" xmlns:x="&ns_extend;" xmlns:i="&ns_ai;" xmlns:graph="&ns_graphs;"
	 xmlns="http://www.w3.org/2000/svg" xmlns:xlink="http://www.w3.org/1999/xlink" x="0px" y="0px" viewBox="0 0 800 1000"
	 enable-background="new 0 0 800 1000" xml:space="preserve">
<metadata>
	<sfw  xmlns="&ns_sfw;">
		<slices></slices>
		<sliceSourceBounds  bottomLeftOrigin="true" height="39.6" width="37.2" x="364.4" y="-727.8"></sliceSourceBounds>
	</sfw>
</metadata>
<g id="XMLID_00000129202158668666164280000016699032333724785317_">
	<g>
		<path d="M398.9,705c-0.9-0.5-1.1-2-1.4-3c-0.2-0.8-0.4-1.7-0.6-2.5c0.1-0.7,0.2-1.3,0.3-2c0.1,0,0.1,0,0.2,0
			c1.1,0.2,2.3,0.4,3.4,0.6c0.4,1.8,0.4,3.7-0.1,5.4C400.5,704.3,399.8,705.6,398.9,705z"/>
		<path d="M400.2,695.8c0.2,0.7,0.5,1.5,0.6,2.3c-1.1-0.2-2.3-0.4-3.4-0.6c-0.1,0-0.1,0-0.2,0c-0.1,0.6-0.3,1.3-0.3,2
			c-0.4-1.5-0.8-3-1.5-4.4c-0.4-0.9-0.9-1.8-1.8-2.3c-0.8-0.5-1.8-0.5-2.6-0.5c-0.9,0.1-1.8,0.3-2.6,0.6c0-1.5-0.1-3-0.2-4.4
			c0.3-0.1,0.6-0.2,0.9-0.2c2.4-0.4,5.1-0.3,7.1,1.1C398.3,691,399.4,693.5,400.2,695.8z"/>
		<path d="M397.5,702c0.3,0.9,0.5,2.4,1.4,3c0.9,0.6,1.6-0.7,1.9-1.4c0.5-1.7,0.4-3.6,0.1-5.4c0.3,0,0.5,0.1,0.8,0.1
			c0,0.3,0,0.6,0,0.9c-0.1,0.8-0.1,1.7-0.2,2.5c0,0.1,0,0.3,0,0.4c0,0.3-0.1,0.5-0.1,0.8c-0.1,1.5-0.3,3.1-0.4,4.6
			c-0.3,3.6-0.8,7.2-1.1,10.8c-0.3,2.8,0,6.1-3,7.6c-1.4,0.7-3,0.8-4.5,1.1c-1.6,0.3-3.3,0.5-5,0.6c-1.3,0.1-2.6,0.2-4,0.2l0-2.8
			c0.7-0.6,1.3-1.3,1.8-2.1c2-0.1,4-0.4,6-0.6c1.2-0.2,2.3-0.4,3.4-0.6c0.5-0.1,0.2,0,0.4-0.2c0.2-0.4,0.2-1,0.3-1.4
			c0.4-2.7,0.4-5.4,0.6-8.1c0.2-2.6,0.4-5.2,0.7-7.8l0.2-2.1l0.1-1.2c0-0.4,0.1-0.8,0.1-1.2c0-0.1,0-0.1,0-0.2
			C397.1,700.3,397.3,701.2,397.5,702z"/>
		<path fill="#21C488" d="M396.9,699.5c0,0.1,0,0.1,0,0.2c0,0.4-0.1,0.8-0.1,1.2l-0.1,1.2l-0.2,2.1c-0.2,2.6-0.5,5.2-0.7,7.8
			c-0.2,2.7-0.2,5.4-0.6,8.1c-0.1,0.4-0.1,1-0.3,1.4c-0.1,0.2,0.1,0.1-0.4,0.2c-1.1,0.2-2.3,0.4-3.4,0.6c-2,0.3-4,0.5-6,0.6
			c0.8-1.2,1.3-2.6,1.7-4c0.6-2.3,0.8-4.7,0.9-7.1c0.4-6.3,0.7-12.5,0.6-18.8c0.8-0.4,1.7-0.6,2.6-0.6c0.9-0.1,1.9,0,2.6,0.5
			c0.9,0.5,1.4,1.4,1.8,2.3C396.1,696.5,396.5,698,396.9,699.5z"/>
		<path fill="#20A069" d="M388.3,693c0.1,6.2-0.2,12.5-0.6,18.8c-0.2,2.4-0.3,4.8-0.9,7.1c-0.4,1.4-0.9,2.8-1.7,4
			c-3.3,0.2-6.6,0.3-9.8-0.1c-3.6-0.4-8.1-2.7-6.1-7c1-2,2.7-3.2,4.6-4c1.6-0.7,3.4-0.9,5.1-1.4c0,1.3,0.1,2.8,0.5,3.9
			c0.7,1.7,3.3,2,3.8-0.1c0.4-1.7,0.1-3.7,0-5.5c0-1.9,0-3.7,0.1-5.6c0.1-1.4,0.2-2.7,0.3-4.1c0-0.4,0.1-0.7,0.1-1.1v0
			c0-0.1,0-0.3,0.1-0.4c0.4-1,1-2,1.8-2.8C386.4,694,387.3,693.4,388.3,693z"/>
		<path d="M388.3,693c-1,0.4-1.9,1-2.7,1.7c-0.9,0.8-1.4,1.8-1.8,2.8c0.1-0.8,0.2-1.5,0.3-2.2c0-0.2,0.1-0.5,0.1-0.7
			c-1.1-0.3-2.1-0.6-3.2-0.9c0.3-0.5,0.7-1,1.1-1.5c1.5-1.8,3.7-3.1,6-3.7C388.2,690.1,388.3,691.5,388.3,693z"/>
		<path d="M384.3,694.7c0,0.2-0.1,0.5-0.1,0.7c-0.1,0.7-0.2,1.5-0.3,2.2c-0.4,0.9-0.7,1.9-1.2,2.8c-0.6,1.3-2.3,0.7-2.7-0.3
			c-0.2-0.5-0.3-1.1-0.4-1.6c0-0.1,0-0.3,0.1-0.5c0-0.2,0.1-0.5,0.1-0.8c0-0.1,0-0.3,0-0.4c0-0.1,0-0.2,0-0.3c0.3-1,0.7-1.9,1.2-2.7
			C382.1,694.1,383.2,694.4,384.3,694.7z"/>
		<path d="M382.7,700.4c0.4-0.9,0.8-1.9,1.2-2.8c0,0.1,0,0.2-0.1,0.4v0c0,0.4-0.1,0.7-0.1,1.1c-0.1,1.4-0.2,2.7-0.3,4.1
			c-0.1,1.9-0.1,3.7-0.1,5.6c0,1.8,0.4,3.7,0,5.5c-0.5,2-3.1,1.7-3.8,0.1c-0.5-1.1-0.5-2.5-0.5-3.9c-1.7,0.5-3.5,0.7-5.1,1.4
			c-1.9,0.8-3.7,2-4.6,4c-2.1,4.3,2.5,6.6,6.1,7c3.2,0.4,6.5,0.4,9.8,0.1c-0.5,0.8-1.1,1.5-1.8,2.1l0,2.8c-1.8,0-3.6,0-5.5-0.2
			c-2.9-0.2-5.8-0.6-8.3-2c-2.3-1.3-4.3-3.5-4.9-6c-0.6-2.5,0-5.2,1.4-7.4c1.5-2.4,3.8-4.1,6.5-5.1c1.9-0.7,4.4-1.4,6.5-1.2
			c0-1,0.1-2,0.2-3c0.1-1.5,0.2-3,0.4-4.5c0,0.6,0.1,1.1,0.4,1.6C380.4,701.1,382,701.7,382.7,700.4z"/>
		<path d="M380.3,693.5c0.3,0.1,0.5,0.2,0.8,0.2c-0.5,0.8-1,1.8-1.2,2.7C379.9,695.5,380,694.5,380.3,693.5z"/>
		<path d="M379.8,696.5c0,0.1,0,0.2,0,0.3c0,0.1,0,0.3,0,0.4c0,0.2-0.1,0.5-0.1,0.8c0,0.1,0,0.3-0.1,0.5
			C379.6,697.8,379.7,697.1,379.8,696.5z"/>
	</g>
	<g>
	</g>
</g>
</svg>
