<svg width="100" height="100" viewBox="0 0 100 100" fill="none" xmlns="http://www.w3.org/2000/svg">
<path d="M65.3 57.1999C66.4 57.4999 67.2 58.5999 67.1 59.6999C66.9 60.9999 65.9001 61.6998 64.7001 61.7998C64.3001 61.7998 63.8 61.8999 63.4 61.8999C62.5 61.9999 61.5 61.9999 60.6 61.8999C60 61.8999 59.3 61.7999 58.7 61.6999C56.6 61.8999 54.4 61.5998 52.4 61.4998C50.1 61.3998 47.8 61.2998 45.5 61.2998C43.2 61.1998 40.9 61.0999 38.6 60.8999C36.8 60.6999 33.6 60.7999 32.4 59.1999C32.2 58.8999 32.3 58.3999 32.5 58.1999C33.7 56.7999 37.1 56.9999 38.8 56.8999C39.9 56.7999 41.1 56.7998 42.2 56.7998C41.5 54.7998 41.3 52.5998 40.9 50.4998C40.4 47.3998 39.9 44.1998 39.8 40.9998C39.7 39.6998 40.9 38.6999 42.1 38.6999C45.8 38.5999 49.5 38.3998 53.1 38.7998C56.9 39.1998 60.6 39.7999 64.2 40.6999C65.4 40.9999 66.2 42.3998 65.8 43.5998C65 46.0998 64.3 48.5998 63.5 51.0998C62.9 53.0998 62.4 55.0998 61.8 57.0998C62.4 57.0998 62.9 57.0998 63.5 57.0998C64.1 57.1998 64.8 57.0999 65.3 57.1999ZM59.1 49.8999C59.6 48.1999 60.1 46.4999 60.6 44.6999C58 44.1999 55.4 43.7998 52.7 43.4998C50.1 43.2998 47.4 43.0998 44.7 43.0998C45 45.1998 45.3 47.3998 45.7 49.4998C46.1 51.8998 46.7 54.2999 46.8 56.6999C48.8 56.6999 50.8 56.6999 52.8 56.6999C54.2 56.6999 55.7 56.5999 57.2 56.6999C57.7 54.4999 58.5 52.1999 59.1 49.8999Z" fill="black"/>
<path d="M60.6001 44.6997C60.1001 46.3997 59.6001 48.0997 59.1001 49.8997C58.4001 52.1997 57.7001 54.4997 57.1001 56.7997C55.6001 56.7997 54.1001 56.8997 52.7001 56.7997C50.7001 56.7997 48.7001 56.7997 46.7001 56.7997C46.6001 54.3997 46.0001 51.9997 45.6001 49.5997C45.2001 47.4997 44.9001 45.3997 44.6001 43.1997C47.3001 43.1997 49.9001 43.3997 52.6001 43.5997C55.3001 43.7997 58.0001 44.1997 60.6001 44.6997Z" fill="white"/>
</svg>
