<svg width="100" height="100" viewBox="0 0 100 100" fill="none" xmlns="http://www.w3.org/2000/svg">
<path d="M38.6002 42.9C37.1002 46.7 36.7002 51 37.4002 55C38.0002 58.2 39.5002 63.4999 43.6002 63.5999C45.2002 63.5999 46.4002 62.4 47.0002 61C47.4002 60.1 47.6002 59.0999 47.6002 58.0999C47.7002 56.9999 47.6002 55.8999 48.5002 55.0999C49.1002 54.5999 49.8002 54.4999 50.4002 54.7999C50.2002 54.8999 50.0002 55 49.9002 55H50.8002C50.8002 55 50.9002 54.9999 50.9002 55.0999C51.7002 55.7999 51.8002 56.8 51.8002 57.9C53.1002 57.6 54.5002 57.5999 55.8002 57.5999C56.9002 57.5999 58.0002 57.7999 59.1002 58.0999C60.3002 58.3999 62.0002 58.8999 62.5002 60.0999C62.8002 60.6999 62.8002 61.4 62.5002 61.9C62.3002 62.3 61.9002 62.6999 61.4002 62.7999C60.7002 62.9999 60.0002 62.7999 59.3002 62.5999C59.0002 62.4999 58.8002 62.3999 58.5002 62.2999L58.0002 62.0999C57.1002 61.7999 56.2002 61.3999 55.3002 61.0999C54.0002 60.6999 52.7002 60.6 51.4002 60.4C51.1002 61.7 50.6002 62.9 49.8002 64C48.0002 66.4 45.3002 67.6 42.3002 66.9C36.8002 65.5 35.1002 59.4 34.5002 54.5C33.8002 49.1 34.6002 43.4999 36.8002 38.4999C37.7002 36.2999 39.4002 34.2 41.6002 33.2C44.1002 32 46.9002 32.5 49.0002 34.2C51.5002 36.3 52.5002 39.7 52.1002 42.9C52.2002 43 52.3002 42.9999 52.4002 43.0999C52.5002 43.0999 53.0002 43.4999 53.2002 43.5999C53.4002 43.7999 53.7002 43.8999 53.9002 44.0999C54.9002 44.6999 55.9002 45.2999 56.8002 45.5999C58.0002 45.9999 59.2002 46.3999 60.5002 46.5999C61.2002 46.6999 61.9002 46.8 62.6002 46.9C62.7002 46.9 62.8002 46.9 62.9002 46.9C63.1002 47.1 63.5002 47.5999 64.0002 48.2999C63.6002 48.5999 63.2002 48.8999 62.8002 49.0999C62.1002 49.4999 61.3002 49.7 60.5002 49.9C58.9002 50.2 57.1002 50.2 55.5002 49.7C54.1002 49.3 52.6002 48.6999 51.4002 47.7999C51.2002 47.5999 50.9002 47.4 50.7002 47.2C50.3002 47.9 49.9002 48.5 49.5002 49C48.7002 49.9 47.4002 49.0999 47.3002 48.0999C47.2002 45.4999 48.3002 42.9999 47.9002 40.4999C47.7002 38.9999 46.9002 37.3 45.4002 36.7C42.4002 35.5 39.5002 40.6 38.6002 42.9Z" fill="black"/>
<path d="M62.8001 61.9C63.0001 61.4 63.0001 60.7 62.8001 60.1C62.3001 58.9 60.6001 58.4 59.4001 58.1C58.3001 57.8 57.2001 57.7 56.1001 57.6C54.8001 57.5 53.4001 57.6 52.1001 57.9C52.1001 56.8 52.0001 55.8 51.2001 55.1L51.1001 55H59.2001C60.7001 55.4 63.1001 55.6 66.2001 55C66.0001 58.9 63.7001 61.5 63.2001 62L62.8001 61.9Z" fill="#20A069"/>
<path d="M59 55H66C62.9 55.6 60.5 55.4 59 55Z" fill="#21C488"/>
<path d="M50.9 54.9998H50C50.2 54.8998 50.3 54.7998 50.5 54.7998C50.7 54.7998 50.8 54.8998 50.9 54.9998Z" fill="#21C488"/>
<path d="M66.0001 54C66.0001 54.3 66.0001 54.7 66.0001 55H59.0001C57.2001 54.6 56.0001 53.9 54.0001 54C52.6001 54 51.4001 54.4 50.5001 54.8C49.9001 54.5 49.2001 54.6 48.6001 55.1C47.7001 55.9 47.8001 56.9 47.7001 58.1C47.6001 59.1 47.4001 60.1 47.1001 61C46.5001 62.4 45.3001 63.6 43.7001 63.6C39.6001 63.6 38.0001 58.3 37.5001 55C36.8001 51 37.2001 46.7 38.7001 42.9C39.6001 40.6 42.5001 35.5 45.7001 36.8C47.1001 37.4 48.0001 39.1 48.2001 40.6C48.5001 43.2 47.4001 45.7 47.6001 48.2C47.7001 49.2 49.0001 50 49.8001 49.1C50.3001 48.5 50.7001 47.9 51.0001 47.3C51.2001 47.5 51.5001 47.7 51.7001 47.9C52.9001 48.8 54.4001 49.4 55.8001 49.8C57.4001 50.2 59.2001 50.3 60.8001 50C61.6001 49.9 62.3001 49.6 63.1001 49.2C63.5001 49 63.9001 48.7 64.3001 48.4C64.9001 49.6 65.9001 51.5 66.0001 54ZM44.7001 50C44.8001 49 44.8001 47.9 44.8001 46.9C44.8001 45.8 44.6001 44.7 44.7001 43.7C44.8001 42.1 42.5001 41.5 41.8001 42.9C40.6001 45.1 40.2001 47.8 40.2001 50.3C40.2001 51.7 40.3001 53.1 40.5001 54.5C40.6001 54.8 40.6001 55.2 40.7001 55.5C40.8001 55.9 40.9001 56.1 41.2001 56.5C41.2001 56.6 41.3001 56.6 41.3001 56.6C41.4001 57 41.7001 57.3 42.2001 57.4C42.9001 57.6 43.7001 57.2 43.9001 56.4C44.3001 54.3 44.5001 52.2 44.7001 50Z" fill="#21C488"/>
<path d="M59 54.9999H50.9C50.8 54.8999 50.6 54.7999 50.5 54.7999C51.4 54.3999 52.5 54.0999 54 53.9999C56 53.8999 57.2 54.5999 59 54.9999Z" fill="#20A069"/>
<path d="M63 47C63.6 47.1 64.1 47.2 64.7 47.1C65.1 47.1 65.2 47.6 64.9 47.8C64.6 48 64.4 48.2 64.1 48.4C63.6 47.7 63.2 47.2 63 47Z" fill="black"/>
<path d="M43.8001 56.4C43.6001 57.1 42.8001 57.6 42.1001 57.4C41.6001 57.3 41.4001 56.8999 41.2001 56.5999C41.1001 56.5999 41.1001 56.5 41.1001 56.5C40.8001 56.2 40.7001 56 40.6001 55.5C40.5001 55.2 40.5001 54.8 40.4001 54.5C40.2001 53.1 40.1001 51.6999 40.1001 50.2999C40.1001 47.7999 40.5001 45.1 41.7001 42.9C42.5001 41.5 44.7001 42.1 44.6001 43.7C44.6001 44.8 44.7001 45.8 44.7001 46.9C44.7001 47.9 44.7001 49 44.6001 50C44.5001 52.2 44.3001 54.3 43.8001 56.4Z" fill="black"/>
</svg>
