<svg width="100" height="100" viewBox="0 0 100 100" fill="none" xmlns="http://www.w3.org/2000/svg">
<path d="M60.5 53.6C61.6 54 62 55.0001 62.3 56.2001C62.7 57.9001 63 59.5001 63 61.2001C63 61.9001 63 63.3001 62.2 63.7001C61.5 64.1001 61.1 63.0001 60.9 62.5001C60.2 60.9001 59.8 59.3 59.4 57.6C59.3 57 59.2 56.5001 59 55.9001C59 55.5001 58.8 55.1 58.5 54.8C58.4 54.6 58.2 54.5001 58 54.4001C58.6 54.1001 59.2 53.7 59.8 53.3C60 53.3 60.2 53.4 60.5 53.6Z" fill="#D5EEFF"/>
<path d="M50.9 36.8C53.1 35.7 53.6 33.3 53.4 31.1C53.3 29.7 52.9 28.3001 52.6 26.9001C52.5 26.5001 52.4 26.1001 52.3 25.7001C55.1 27.7001 56.4 31.8 57.1 35.1C57.7 38.1 58.1 41.1 58.4 44.1C58.5 45.4 58.7 46.8 58.6 48.1C58.6 48.7 58.4 49.1001 58.2 49.5001C58.1 49.5001 58 49.5001 57.8 49.4001C55.7 49.1001 53.6 48.9001 51.5 48.9001C49.4 48.9001 47.3 49.1001 45.2 49.5001C43.8 49.8001 42 50.1 40.7 50.8C40.3 48.1 39.5 45.6001 39.4 42.9001C39.3 40.2001 39.2 37.4 39.6 34.8C39.7 34.2 39.8 33.7 40 33.1C40.1 33.5 40.2 33.9 40.3 34.3C40.5 35.3 40.7 36.4001 41.4 37.2001C42.2 38.2001 43.3 38.6001 44.6 38.5001C45.7 38.4001 46.8 38.1 47.9 37.8C48.9 37.6 50 37.3 50.9 36.8Z" fill="#353B3F"/>
<path d="M55.2998 56.2001C55.1998 56.2001 55.1998 56.2001 55.1998 56.2001C55.0998 56.2001 54.9998 56.2001 54.9998 56.2001L54.7998 55.5001C55.7998 55.2001 56.9998 54.8001 57.9998 54.3001C58.1998 54.4001 58.3998 54.5001 58.4998 54.7001C58.7998 55.1001 58.9998 55.4001 58.9998 55.8001C59.1998 56.4001 59.2998 56.9001 59.3998 57.5001C59.7998 59.2001 60.2998 60.8001 60.8998 62.4001C61.0998 63.0001 61.4998 64.0001 62.1998 63.6001C62.9998 63.2001 62.9998 61.9001 62.9998 61.1001C62.9998 59.4001 62.7998 57.7001 62.2998 56.1001C61.9998 54.9001 61.5998 53.9001 60.4998 53.5001C60.2998 53.4001 59.9998 53.3001 59.7998 53.2001C60.7998 52.5001 61.4998 51.5001 61.8998 50.4001C62.2998 50.6001 62.6998 50.8001 62.9998 51.1001C64.4998 52.3001 65.0998 54.1001 65.2998 56.0001C65.5998 57.9001 65.4998 60.0001 65.3998 61.9001C65.2998 63.5001 64.9998 65.3001 63.4998 66.3001C59.7998 68.6001 57.9998 63.3001 57.1998 60.8001C56.8998 59.9001 56.6998 58.9001 56.4998 58.0001C56.3998 57.5001 56.2998 56.7001 55.8998 56.2001C55.6998 56.2001 55.4998 56.2001 55.2998 56.2001Z" fill="black"/>
<path d="M61.6998 50.3C60.5998 49.8 59.3998 49.6 58.2998 49.4C58.5998 49 58.6998 48.6 58.6998 48C58.7998 46.7 58.5998 45.3 58.4998 44C58.1998 41 57.7998 38 57.1998 35C56.4998 31.8 55.1998 27.6 52.3998 25.6C52.2998 25.4 52.2998 25.1 52.1998 24.8C51.9998 24.1 51.8998 23.3 51.4998 22.7C51.1998 22.3 50.7998 22 50.2998 22L50.4998 21C51.2998 21.1 51.9998 21.4 52.7998 21.7C59.3998 24.6 60.6998 32.8 61.4998 39.2C61.6998 41.3 61.8998 43.3 62.0998 45.4C62.2998 46.9 62.4998 48.5 62.0998 50C62.0998 50.1 61.9998 50.3 61.9998 50.4C61.7998 50.4 61.6998 50.4 61.6998 50.3Z" fill="black"/>
<path d="M52.3001 54.7C52.6001 54.4 53.0001 54.2 53.4001 54C54.0001 53.7 54.8001 53.5 55.5001 53.5C56.0001 53.6 56.4001 53.7 56.8001 53.9C56.9001 53.9 56.9001 54 57.0001 54C57.1001 54 57.2001 54.1 57.2001 54.1H57.3001C57.4001 54.1 57.9001 54.3 57.9001 54.3C56.9001 54.8 55.7001 55.2 54.7001 55.5C54.6001 55.5 54.5001 55.6 54.4001 55.6C53.3001 55.9 52.2001 56.1 51.1001 56.3C51.4001 55.7 51.8001 55.2 52.3001 54.7C52.2001 54.7 52.2001 54.7 52.3001 54.7Z" fill="black"/>
<path d="M51.1002 56.3C50.1002 58.3 49.6002 60.3001 49.5002 62.4001L47.0002 62.3C47.0002 60.7 46.8002 59.2 46.2002 57.6C46.1002 57.2 45.9002 56.9001 45.7002 56.5001C47.5002 56.7001 49.3002 56.6 51.1002 56.3Z" fill="#D5EEFF"/>
<path d="M46.1 69.0001C46.6 66.8001 47 64.6001 47 62.4001L49.5 62.5001C49.5 63.7001 49.6 64.9001 49.9 66.1001C50.5 68.6001 52.4 73.8001 49 75.3001C47.8 75.8001 46.8 75.0001 46.3 74.0001C45.5 72.4001 45.8 70.5001 46.1 69.0001Z" fill="#D5EEFF"/>
<path d="M48.6 23.2001C48.8 22.4001 49.5 22.0001 50.2 22.1001C50.7 22.1001 51.1 22.4001 51.4 22.8001C51.8 23.4001 51.9 24.2001 52.1 24.9001C52.2 25.1001 52.2 25.4001 52.3 25.7001C51.3 25.0001 50 24.6001 48.5 24.6001C48.5 24.1001 48.5 23.6001 48.6 23.2001Z" fill="black"/>
<path d="M45.3999 55.9001C45.4999 56.1001 45.6999 56.4001 45.7999 56.6001H45.6999C45.6999 56.6001 45.6999 56.6001 45.6999 56.5001C45.6999 56.4001 45.5999 56.4001 45.5999 56.3001V56.2001V56.1001C45.3999 56.1001 45.3999 56.0001 45.3999 55.9001Z" fill="black"/>
<path d="M57.8999 54.3001C57.8999 54.3001 57.3999 54.1001 57.2999 54.1001H57.1999C57.1999 54.1001 57.0999 54.0001 56.9999 54.0001C56.8999 54.0001 56.8999 53.9001 56.7999 53.9001C56.3999 53.7001 55.9999 53.6001 55.4999 53.5001C54.7999 53.4001 53.9999 53.6001 53.3999 54.0001C52.9999 54.2001 52.5999 54.4001 52.2999 54.7001C52.2999 54.7001 52.2999 54.7001 52.1999 54.7001C51.7999 55.2001 51.2999 55.8001 51.0999 56.3001C49.2999 56.6001 47.4999 56.7001 45.7999 56.6001C45.6999 56.4001 45.5999 56.1001 45.3999 55.9001C45.2999 55.7001 45.1999 55.5001 45.0999 55.2001C44.9999 54.9001 44.7999 54.7001 44.5999 54.4001C44.3999 54.2001 44.2999 53.9001 44.0999 53.7001C43.9999 53.6001 43.9999 53.6001 43.8999 53.5001C44.0999 53.5001 44.1999 53.4001 44.3999 53.4001C44.4999 53.3001 44.5999 53.2001 44.7999 53.2001C47.4999 52.8001 50.1999 52.6001 52.8999 52.6001C54.2999 52.6001 55.6999 52.5001 56.9999 52.7001C57.8999 52.8001 58.7999 52.9001 59.6999 53.2001C59.1999 53.7001 58.5999 54.0001 57.8999 54.3001Z" fill="#D5EEFF"/>
<path d="M44.1 35.0001C44 34.6001 43.8 34.4001 43.7 33.9001C43.3 32.7001 42.9 31.6001 42.6 30.4001C42.4 29.8001 42.2 29.2001 42 28.7001C43.5 26.5001 45.5 24.8001 48.4 24.6001C48.5 24.6001 48.6 24.6001 48.6 24.6001C48.6 24.9001 48.7 25.1001 48.7 25.4001C48.8 26.0001 48.8 26.6001 48.9 27.2001C49.1 28.5001 49.3 29.8001 49.5 31.1001C49.6 31.6001 49.7 32.1001 49.8 32.6001V33.0001C49.8 33.1001 49.7 33.3001 49.7 33.3001C49.3 33.9001 48.2 34.1001 47.4 34.3001C46.9 34.5001 46.3 34.6001 45.8 34.8001C45.5 34.9001 45.2 35.0001 44.9 35.0001L44.5 35.1001C44.4 35.0001 44.3 35.0001 44.1 35.0001Z" fill="white"/>
<path d="M45.1 55.2C45.2 55.4 45.3 55.6 45.4 55.9C45.2 55.6 45.1 55.4 44.9 55.1C44.5 55 44.2 54.8 44.1 54.4C44.1 54.3 44.1 54.2 44.1 54.1C43.9 53.9 43.7 53.7 43.5 53.6C43.7 53.6 43.8 53.5 43.9 53.5C43.9 53.6 44 53.6 44.1 53.7C44.3 53.9 44.4 54.2 44.6 54.4C44.8 54.7 44.9 55 45.1 55.2Z" fill="black"/>
<path d="M43.1001 57.5C43.2001 57.5 43.2001 57.6 43.2001 57.6C43.1001 57.6 43.1001 57.5 43.1001 57.5Z" fill="black"/>
<path d="M45.9001 58.5001C45.7001 59.2001 44.9001 59.5001 44.2001 59.2001C43.8001 59.0001 43.5001 58.6001 43.3001 58.2001C43.2001 58.0001 43.1001 57.8001 43.0001 57.7001V57.6L43.1001 57.7001C43.1001 57.7001 43.1001 57.6 43.0001 57.6C42.9001 57.5 42.9001 57.5001 42.8001 57.4001C42.6001 57.0001 42.3001 56.6 42.1001 56.3C42.5001 56.4 42.9001 56.4001 43.3001 56.5001C44.0001 56.6001 44.8001 56.7001 45.5001 56.7001C45.6001 56.9001 45.7001 57.1 45.7001 57.3C46.0001 57.6 46.1001 58.0001 45.9001 58.5001Z" fill="black"/>
<path d="M49.1 78.2001C45.9 78.9001 43.3 76.1001 42.8 73.1001C42.5 71.1001 43 69.1001 43.4 67.1001C43.8 65.2001 44.1 63.2001 44 61.2001C43.9 59.7001 43.5 58.4001 42.8 57.2001C42.9 57.2001 42.9 57.3001 43 57.4001V57.5001C43.1 57.7001 43.2 57.9001 43.3 58.0001C43.5 58.4001 43.8 58.8001 44.2 59.0001C44.9 59.3001 45.6 59.0001 45.9 58.3001C46 57.9001 46 57.4001 45.8 57.0001C45.7 56.8001 45.7 56.6001 45.6 56.4001H45.7C45.9 56.7001 46 57.1001 46.2 57.5001C46.8 59.0001 47 60.6001 47 62.2001C47 64.4001 46.6 66.6001 46.1 68.8001C45.8 70.4001 45.4 72.3001 46.2 73.8001C46.7 74.8001 47.7 75.6001 48.9 75.1001C52.4 73.6001 50.4 68.4001 49.8 65.9001C49.5 64.7001 49.4 63.5001 49.4 62.3001C49.4 60.2001 50 58.2001 50.9 56.2001C52 56.0001 53.1 55.8001 54.2 55.5001C54.3 55.5001 54.4 55.4001 54.5 55.4001L54.7 56.1001C53.9 56.8001 53.2 58.7001 53 59.2001C52.4 61.0001 52.3 62.8001 52.5 64.6001C52.8 66.6001 53.4 68.5001 53.5 70.5001C54 73.8001 52.6 77.5001 49.1 78.2001Z" fill="black"/>
<path d="M42.8001 57.3C42.6001 57.1 42.5001 56.9001 42.4001 56.7001C42.3001 56.5001 42.2001 56.4001 42.1001 56.2001C42.4001 56.6001 42.6001 56.9 42.8001 57.3Z" fill="black"/>
<path d="M41.9999 28.7C42.1999 29.3 42.3999 29.8 42.5999 30.4C42.9999 31.6 43.3999 32.7 43.6999 33.9C43.8999 34.4 43.9999 34.6 44.0999 35C44.1999 35 44.2999 35 44.3999 35L44.7999 34.9C45.0999 34.8 45.3999 34.8 45.6999 34.7C46.2999 34.6 46.7999 34.4 47.2999 34.2C48.0999 34 49.1999 33.7 49.5999 33.2C49.5999 33.2 49.6999 33 49.6999 32.9V32.5C49.5999 32 49.4999 31.5 49.3999 31C49.1999 29.7 48.8999 28.4 48.7999 27.1C48.6999 26.5 48.6999 25.9 48.5999 25.3C48.5999 25 48.4999 24.8 48.4999 24.5C49.9999 24.5 51.1999 24.9 52.2999 25.6C52.3999 26 52.4999 26.4 52.5999 26.8C52.8999 28.2 53.2999 29.6 53.3999 31C53.5999 33.3 53.0999 35.6 50.8999 36.7C49.8999 37.2 48.7999 37.5 47.7999 37.9C46.6999 38.2 45.5999 38.5 44.4999 38.6C43.2999 38.7 42.0999 38.2 41.2999 37.3C40.5999 36.4 40.3999 35.4 40.1999 34.4C40.0999 34 39.9999 33.6 39.8999 33.2C40.3999 31.6 41.0999 30 41.9999 28.7Z" fill="black"/>
<path d="M39.2 29.0001C39.1 28.5001 39.0999 28.0001 39.2999 27.6001C39.3999 27.5001 39.4 27.4001 39.5 27.3001C39.8 26.9001 40.3 26.8001 40.7 27.0001C41.4 27.4001 41.7 27.9001 41.9 28.6001C41 30.0001 40.4 31.5001 39.9 33.1001C39.7 32.3001 39.6 31.6001 39.4 30.8001C39.4 30.3001 39.3 29.7001 39.2 29.0001Z" fill="black"/>
<path d="M41.9999 56C41.7999 55.8 41.6999 55.5 41.4999 55.3C41.2999 55 41.1999 54.6 40.9999 54.3C40.9999 54.2 40.8999 54.1001 40.8999 53.9001V53.8L40.7999 53.7001C40.6999 53.4001 40.6999 53.1 40.5999 52.8C40.4999 52.3 40.8999 51.9 41.3999 52C41.6999 52.1 41.9999 52.2 42.2999 52.3C42.5999 52.4 42.7999 52.6 43.0999 52.8C43.1999 52.9 43.2999 52.9 43.3999 53C43.5999 53.2 43.7999 53.3 43.9999 53.5C43.8999 53.5 43.6999 53.6 43.5999 53.6C43.7999 53.8 43.9999 54 44.1999 54.1C44.1999 54.2 44.1999 54.3001 44.1999 54.4001C44.2999 54.8001 44.5999 55 44.9999 55.1C45.1999 55.3 45.3999 55.6001 45.4999 55.9001C45.4999 56.0001 45.4999 56.1 45.4999 56.1V56.2001C45.4999 56.2001 45.4999 56.2 45.4999 56.3C45.4999 56.4 45.5999 56.4 45.5999 56.5C45.5999 56.5 45.5999 56.5 45.5999 56.6C44.7999 56.6 44.0999 56.5001 43.3999 56.4001C42.9999 56.4001 42.5999 56.3001 42.1999 56.2001C42.0999 56.1001 41.9999 56.1 41.9999 56Z" fill="black"/>
<path d="M43.3998 52.1C42.4998 52 41.2998 52 40.7998 51.2C40.7998 51.1 40.7998 51 40.7998 51C40.7998 50.9 40.7998 50.9 40.7998 50.9C42.1998 50.2 43.8998 49.8 45.2998 49.6C47.3998 49.2 49.4998 49 51.5998 49C53.6998 49 55.7998 49.2 57.8998 49.5C57.9998 49.5 58.0998 49.5 58.2998 49.6C57.9998 50.1 57.4998 50.4 56.8998 50.7C55.6998 51.3 54.1998 51.5 52.8998 51.8C51.3998 52.1 49.7998 52.4 48.1998 52.4C46.5998 52.4 44.9998 52.3 43.3998 52.1Z" fill="black"/>
<path d="M40.6999 51.2C41.1999 52 42.3999 52 43.2999 52.1C44.8999 52.3 46.4999 52.3 48.0999 52.3C49.6999 52.2 51.1999 52 52.7999 51.7C54.0999 51.4 55.5999 51.1 56.7999 50.6C57.3999 50.3 57.8999 50 58.1999 49.5C59.2999 49.7 60.5999 49.9 61.5999 50.4C61.6999 50.4 61.6999 50.5 61.7999 50.5C61.3999 51.7 60.5999 52.6 59.6999 53.3C58.7999 53 57.8999 52.9 56.9999 52.8C55.5999 52.7 54.1999 52.7 52.8999 52.7C50.1999 52.7 47.4999 52.9 44.7999 53.3C44.6999 53.3 44.4999 53.4 44.3999 53.5C44.1999 53.5 44.0999 53.6 43.8999 53.6C43.6999 53.4 43.5999 53.2 43.2999 53.1C43.1999 53 43.0999 53 42.9999 52.9C42.7999 52.7 42.4999 52.6 42.1999 52.4C41.8999 52.3 41.5999 52.2 41.2999 52.1C40.7999 52 40.3999 52.4 40.4999 52.9C40.5999 53.2 40.5999 53.5 40.6999 53.8L40.7999 53.9V54C40.7999 54.1 40.8999 54.2 40.8999 54.4C40.9999 54.8 41.0999 55.1 41.3999 55.4C41.5999 55.6 41.6999 55.9 41.8999 56.1C41.8999 56.1 41.9999 56.2 41.9999 56.3C41.1999 55.3 40.0999 54.4 38.8999 53.7C38.1999 53.3 38.3999 52.2 39.0999 52.1C39.0999 52 39.1999 52 39.1999 51.9C39.5999 51.5 40.0999 51.2 40.5999 50.9V51C40.6999 51 40.6999 51.1 40.6999 51.2Z" fill="black"/>
<path d="M48.6002 23.2001C48.5002 23.7001 48.5002 24.1001 48.5002 24.6001C48.4002 24.6001 48.4002 24.6001 48.3002 24.6001C45.5002 24.8001 43.4002 26.4001 41.9002 28.7001C41.6002 27.9001 41.4002 27.4001 40.7002 27.1001C40.2002 26.9001 39.8002 27.0001 39.5002 27.4001C39.4002 27.5001 39.4002 27.6001 39.3002 27.7001L38.2002 27.3001C40.8002 23.2001 45.4002 20.2001 50.3002 21.1001L50.1002 22.1001C49.6002 22.0001 48.9002 22.3001 48.6002 23.2001Z" fill="black"/>
<path d="M39.2 52.0001C38.5 52.2001 38.3 53.3 39 53.6C40.3 54.3 41.3 55.1001 42.1 56.2001C40.7 56.0001 39.4 55.6001 38.3 54.7001C37.1 53.6001 36.6 51.9001 37.5 50.5001C35.8 47.8001 35.4 44.2001 35.3 41.2001C35.2 37.2001 35.6 33.1001 37.2 29.4001C37.5 28.7001 37.9 28 38.3 27.3L39.4 27.7001C39.2 28.2001 39.2 28.6 39.3 29.1C39.4 29.7 39.5 30.3001 39.6 30.9001C39.7 31.7001 39.9 32.4001 40.1 33.2001C40 33.8001 39.8 34.3001 39.7 34.9001C39.2 37.6001 39.3 40.3001 39.5 43.0001C39.6 45.7001 40.4 48.2001 40.8 50.9001C40.3 51.2001 39.8 51.5001 39.4 51.9001C39.3 51.9001 39.2 51.9001 39.2 52.0001Z" fill="black"/>
</svg>
