<svg width="100" height="100" viewBox="0 0 100 100" fill="none" xmlns="http://www.w3.org/2000/svg">
<path d="M49.3001 49.1C48.9001 49.9 48.8001 50.7 48.7001 51.6C48.6001 53.3 48.7001 54.9 48.9001 56.6C49.3001 59.8 50.2001 63.6 52.6001 65.9C53.2001 66.5 54.3001 66.1 54.3001 65.2C54.2001 63.9 53.9001 62.6 53.6001 61.3C53.3001 59.9 53.0001 58.6 52.7001 57.2C52.5001 55.9 52.3001 54.7 52.3001 53.4C52.3001 52.1 52.4001 50.7 51.9001 49.5C51.8001 48.8 51.7001 48 51.3001 47.5C51.1001 47.2 50.7001 47.2 50.4001 47.4C49.9001 47.7 49.6001 48.5 49.3001 49.1ZM47.5001 61.1C47.2001 59.7 46.9001 58.2 46.7001 56.8C46.5001 55.3 46.3001 53.8 46.3001 52.2C46.3001 51.4 46.2001 50.7 46.2001 49.9C46.2001 49.1 46.2001 48.4 45.9001 47.6C45.9001 47.2 45.8001 46.8 45.6001 46.4C45.3001 45.8 44.3001 45.6 43.8001 46.2C43.5001 46.6 43.3001 47 43.1001 47.4C42.3001 48.8 42.2001 50.7 42.3001 52.2C42.3001 53.9 42.5001 55.6 42.7001 57.3C43.0001 58.9 43.4001 60.5 44.0001 62.1C44.4001 63 44.7001 63.8 45.2001 64.5C45.6001 65.1 46.2001 65.9 46.9001 66C47.3001 66.1 47.6001 65.9 47.8001 65.6C48.2001 65 48.1001 64.1 48.0001 63.4C47.8001 62.7 47.7001 61.9 47.5001 61.1ZM61.7001 59C62.7001 61.4 64.0001 64 66.3001 65.4C64.2001 66.7 62.3001 67.5 61.0001 68C58.8001 68.8 52.4001 71 45.0001 69C42.9001 68.4 41.2001 67.7 40.1001 67.1C40.2001 66.9 40.2001 66.7 40.1001 66.5C39.7001 65.8 39.7001 65.1 39.5001 64.3C39.4001 63.8 39.1001 63.3 38.9001 62.7C38.5001 61.4 38.0001 60 37.6001 58.7C36.9001 56.1 36.4001 53.5 36.3001 50.9C36.2001 45.9 37.3001 40.3 41.2001 36.8C44.6001 33.7 50.0001 32.9 53.6001 36.2C57.5001 39.8 58.6001 45.5 59.5001 50.4C60.1001 53.2 60.6001 56.3 61.7001 59Z" fill="#21C488"/>
<path d="M51.3003 47.3C51.7003 47.9 51.8003 48.7 51.9003 49.3C52.4003 50.5 52.2003 52 52.3003 53.2C52.4003 54.5 52.5004 55.8 52.7004 57C52.9004 58.4 53.2004 59.7 53.6004 61.1C53.9004 62.4 54.3003 63.7 54.3003 65C54.4003 65.9 53.2004 66.2 52.6004 65.7C50.2004 63.5 49.3003 59.6 48.9003 56.4C48.7003 54.8 48.6004 53.1 48.7004 51.4C48.8004 50.5 48.9003 49.7 49.3003 48.9C49.6003 48.3 49.9003 47.5 50.4003 47C50.7003 47 51.1003 47 51.3003 47.3Z" fill="black"/>
<path d="M45.8001 47.6C46.1001 48.3 46.1001 49.1 46.1001 49.9C46.1001 50.7 46.2001 51.4 46.2001 52.2C46.2001 53.7 46.4001 55.3 46.6001 56.8C46.8001 58.3 47.1001 59.7 47.4001 61.1C47.6001 61.9 47.7001 62.7 47.8001 63.5C47.9001 64.2 48.0001 65.1 47.6001 65.7C47.4001 66 47.1001 66.1 46.7001 66.1C46.0001 66 45.4001 65.1 45.0001 64.6C44.5001 63.8 44.1001 63 43.8001 62.2C43.2001 60.7 42.8001 59 42.5001 57.4C42.2001 55.7 42.1001 54 42.1001 52.3C42.1001 50.8 42.2001 48.9 42.9001 47.5C43.1001 47 43.2001 46.7 43.6001 46.3C44.0001 45.8 45.1001 45.9 45.4001 46.5C45.7001 46.8 45.8001 47.2 45.8001 47.6Z" fill="black"/>
<path d="M39.5002 64.3C39.7002 65.1 39.7002 65.7 40.1002 66.5C40.2002 66.7 40.2002 66.9 40.1002 67.1C39.9002 67.7 39.2002 68.1 38.8002 67.5C38.2002 66.8 37.5002 66.3 36.9002 65.6C36.4002 65 35.9002 64.2 35.5002 63.5C34.7002 62.1 34.1002 60.4 33.6002 58.9C32.7002 55.6 32.3002 52.1 32.5002 48.7C32.9002 42.8 35.0002 36.7 39.9002 33C44.5002 29.5 50.6002 29.2 55.2002 32.7C60.1002 36.5 62.0002 42 63.1002 47.9C63.6002 50.9 64.1002 53.9 65.0002 56.8C65.8002 59.6 67.2002 62.1 68.2002 64.8C68.5002 65.5 67.6002 65.9 67.0002 65.7C66.8002 65.6 66.6002 65.5 66.4002 65.4C64.1002 64.1 62.8002 61.4 61.8002 59C60.7002 56.2 60.2002 53.2 59.7002 50.3C58.8002 45.3 57.7002 39.6 53.8002 36.1C50.2002 32.9 44.8002 33.6 41.4002 36.7C37.5002 40.2 36.4002 45.8 36.5002 50.8C36.5002 53.5 37.0002 56.1 37.8002 58.6C38.2002 60 38.7002 61.3 39.1002 62.6C39.1002 63.2 39.4002 63.8 39.5002 64.3Z" fill="black"/>
</svg>
