<svg width="100" height="100" viewBox="0 0 100 100" fill="none" xmlns="http://www.w3.org/2000/svg">
<path d="M69.5002 34C70.7002 34 71.8002 35 71.8002 36.3C71.8002 42.7 71.3002 49.5 67.9002 55.2C62.1002 65.1 48.9002 68.5 39.1002 62.4C34.5002 59.6 31.4002 55.1 29.8002 50C29.0002 47.6 28.7002 45 28.5002 42.5C28.4002 39.9 28.4002 37 29.9002 34.8C30.0002 34.6 30.3002 34.4 30.5002 34.3C30.9002 33.9 31.4002 33.6 32.1002 33.6C44.6002 33.6 57.0002 33.8 69.5002 34ZM67.2002 38.5C65.4002 38.5 63.7002 38.5 62.0002 38.5C62.0002 38.7 62.1002 38.9 62.1002 39.1C62.0002 41 61.4002 42.8 60.8002 44.6C60.3002 46.1 59.9002 47.7 58.2002 48.3C56.7002 48.8 54.6002 48.5 53.0002 48.5C52.0002 48.5 51.1002 48.4 50.1002 48.4C49.3002 48.4 48.5002 48.4 47.8002 48.3C46.1002 48.3 44.3002 48.2 42.6002 48.1C41.0002 48 39.1002 47.9 37.8002 46.7C36.7002 45.7 36.5002 44.1 36.2002 42.7C35.9002 41.3 35.6002 39.7 35.6002 38.2C34.6002 38.2 33.6002 38.2 32.7002 38.2C32.7002 39.7 32.7002 41.3 32.8002 42.8C33.0002 45.2 33.5002 47.6 34.4002 49.9C35.0002 51.5 35.9002 53 36.9002 54.3C37.5002 53.6 38.4002 53.2 39.1002 52.7C40.1002 52.1 41.2002 51.6 42.4002 51.3C44.6002 50.6 46.9002 50.3 49.2002 50.3C49.5002 50.3 49.8002 50.3 50.1002 50.3C54.5002 50.5 59.1002 51.9 62.6002 54.5C62.7002 54.6 62.7002 54.6 62.8002 54.7C63.8002 53.4 64.7002 52 65.3002 50.5C66.7002 46.8 67.1002 42.6 67.2002 38.5ZM56.9002 41.6C57.1002 40.5 57.4002 39.5 57.9002 38.5C51.5002 38.5 45.1002 38.4 38.7002 38.3C39.3002 39.8 39.7002 41.5 40.1002 43C40.1002 43.2 40.2002 43.4 40.3002 43.6C40.5002 43.6 40.8002 43.6 41.1002 43.6C42.2002 43.6 43.4002 43.6 44.5002 43.6L51.1002 43.7C52.2002 43.7 53.2002 43.7 54.3002 43.8C54.9002 43.8 55.7002 44 56.4002 44C56.4002 43.8 56.5002 43.6 56.5002 43.4C56.6002 42.8 56.8002 42.2 56.9002 41.6ZM55.8002 59.8C57.2002 59.3 58.5002 58.5 59.7002 57.6C58.0002 56.6 56.4002 55.7 54.6002 55.1C52.7002 54.5 50.8002 54.2 48.9002 54.2C46.9002 54.2 45.1002 54.6 43.2002 55.1C42.3002 55.4 41.4002 55.6 40.5002 56C40.0002 56.2 39.5002 56.5 39.1002 56.7C43.5002 60.6 49.8002 62.1 55.8002 59.8Z" fill="black"/>
<path d="M59.7 57.7001C58.5 58.6001 57.2 59.4001 55.8 59.9001C49.9 62.2001 43.5 60.7 39 56.8C39.5 56.6 39.9 56.4 40.4 56.1C41.3 55.7 42.2 55.5001 43.1 55.2001C45 54.7001 46.8 54.3 48.8 54.3C50.8 54.3 52.7 54.6001 54.5 55.2001C56.4 55.7001 58 56.7001 59.7 57.7001Z" fill="#F4D0E9"/>
<path d="M62.4004 54.6C58.9004 51.9 54.3004 50.5 49.9004 50.4L50.0004 48.4C51.0004 48.4 51.9004 48.5 52.9004 48.5C54.5004 48.6 56.6004 48.9 58.1004 48.3C59.8004 47.7 60.2004 46.1 60.7004 44.6C61.3004 42.8 61.9004 41 62.0004 39.1C62.0004 38.9 62.0004 38.7 61.9004 38.5C63.7004 38.5 65.4004 38.5 67.1004 38.5C67.0004 42.6 66.6004 46.8 65.0004 50.7C64.4004 52.2 63.5004 53.6 62.5004 54.9C62.5004 54.7 62.5004 54.7 62.4004 54.6Z" fill="#353B3F"/>
<path d="M40.3002 43.6C40.2002 43.4 40.2002 43.2001 40.1002 43.0001C39.7002 41.5001 39.3002 39.8 38.7002 38.3C45.1002 38.4 51.5002 38.4001 57.9002 38.5001C57.5002 39.5001 57.2002 40.6 56.9002 41.6C56.8002 42.2 56.7002 42.8001 56.5002 43.4001C56.5002 43.6001 56.4002 43.8001 56.4002 44.0001C55.7002 44.0001 54.9002 43.9 54.3002 43.8C53.2002 43.8 52.2002 43.8001 51.1002 43.7001L44.5002 43.6C43.4002 43.6 42.2002 43.5 41.1002 43.6C40.9002 43.6 40.6002 43.6 40.3002 43.6Z" fill="white"/>
<path d="M47.7 48.2C48.5 48.2 49.3 48.1999 50 48.2999L49.9 50.2999C49.6 50.2999 49.3 50.2999 49 50.2999C46.7 50.2999 44.4 50.5999 42.2 51.2999C41.1 51.6999 40 52.2 38.9 52.7C38.1 53.1 37.3 53.5999 36.7 54.2999C35.7 52.9999 34.8 51.5 34.2 49.9C33.3 47.6 32.8 45.1999 32.6 42.7999C32.5 41.2999 32.6 39.7 32.5 38.2C33.5 38.2 34.4 38.2 35.4 38.2C35.4 39.7 35.7 41.3 36 42.7C36.3 44.1 36.5 45.7 37.6 46.7C38.9 47.9 40.8 47.9999 42.4 48.0999C44.2 48.0999 45.9 48.2 47.7 48.2Z" fill="#353B3F"/>
</svg>
