<svg width="100" height="100" viewBox="0 0 100 100" fill="none" xmlns="http://www.w3.org/2000/svg">
<path d="M67.3998 58.2998C67.2998 58.2998 67.1998 58.2998 67.0998 58.1998L66.9998 58.0998V57.9998C66.8998 57.6998 66.9998 58.0998 66.8998 57.6998C66.8998 57.5998 66.8998 57.5998 66.8998 57.5998C66.8998 57.5998 66.8998 57.5998 66.8998 57.4998C66.8998 57.3998 66.7998 57.2998 66.7998 57.0998C66.6998 56.7998 66.5998 56.4998 66.4998 56.1998C66.2998 55.5998 66.1998 54.9998 66.0998 54.3998C65.7998 53.0998 65.6998 51.7998 65.4998 50.3998C65.3998 50.0998 65.3998 49.4998 65.2998 48.8998L65.3998 48.7998C65.6998 49.0998 65.8998 49.3998 66.2998 49.5998C66.7998 49.8998 67.2998 50.0998 67.7998 50.3998C68.7998 50.9998 69.6998 51.5998 70.5998 52.1998C71.3998 52.7998 72.1998 53.4998 72.9998 54.1998C73.2998 54.4998 73.4998 54.6998 73.6998 55.0998C73.7998 55.2998 73.6998 55.3998 73.5998 55.5998C72.9998 56.2998 72.0998 56.7998 71.0998 57.2998C70.1998 57.6998 69.1998 58.0998 68.1998 58.2998H68.0998C67.9998 58.2998 67.8998 58.2998 67.6998 58.2998C67.4998 58.2998 67.3998 58.2998 67.3998 58.2998Z" fill="#D3D3D3"/>
<path d="M67.0998 58.2C67.1998 58.2 67.2997 58.3 67.3997 58.3C67.3997 58.3 67.3998 58.3 67.4998 58.3C67.5998 58.3 67.6997 58.3 67.8997 58.3H67.9998C68.9998 58.1 69.9997 57.8 70.8997 57.3C71.7997 56.8 72.6997 56.4 73.3997 55.6C73.4997 55.4 73.5998 55.3 73.4998 55.1C73.2998 54.8 73.0997 54.5 72.7997 54.2C71.9997 53.5 71.1997 52.8 70.3997 52.2C69.4997 51.5 68.4998 50.9 67.5998 50.4C67.0998 50.1 66.5998 49.9 66.0998 49.6C65.7998 49.4 65.4998 49.1 65.1998 48.8C65.5998 48.3 65.8998 47.7 65.9998 47C66.5998 47 67.1998 47.1 67.6998 47.4C68.3998 47.7 68.9998 48.1 69.6998 48.5C70.9998 49.3 72.2998 50.2 73.4998 51.2C74.3998 52 75.5998 52.9 76.0998 54C76.7998 55.4 76.3997 57 75.2997 58.1C74.3997 59.1 73.0997 59.7 71.8997 60.3C70.5997 60.9 69.1997 61.4 67.7997 61.5C66.1997 61.7 64.7997 61 63.8997 59.6C63.1997 58.4 62.9997 56.9 62.7997 55.6C62.5997 54.1 62.2997 52.6 62.3997 51.2C62.3997 50.8 62.4998 50.3 62.4998 49.9C63.2998 49.8 63.9998 49.6 64.5998 49.2C64.6998 49.1 64.7997 49.1 64.8997 49C64.9997 49.6 64.9998 50.2 65.0998 50.5C65.2998 51.8 65.4998 53.1 65.6998 54.5C65.7998 55.1 65.9998 55.7 66.0998 56.3C66.1998 56.6 66.2997 56.9 66.3997 57.2C66.3997 57.3 66.4998 57.4 66.4998 57.6V57.7V57.8C66.6998 58.2 66.4998 57.8 66.5998 58.1C66.5998 58.2 66.5998 58.2 66.5998 58.2C66.9998 58.1 67.0998 58.2 67.0998 58.2Z" fill="black"/>
<path d="M65.2 48.8L65.1 48.9C65.1 48.8 65 48.7 65 48.5C65.1 48.6 65.1 48.7 65.2 48.8Z" fill="black"/>
<path d="M65.3997 47C65.5997 47 65.7997 47 65.9997 47C65.8997 47.7 65.5997 48.3 65.1997 48.8C65.0997 48.7 65.0997 48.6 64.9997 48.6C64.9997 48.7 65.0997 48.8 65.0997 49C64.9997 49.1 64.8997 49.2 64.7997 49.2C64.1997 49.6 63.4997 49.8 62.6997 49.9C62.6997 49.5 62.7997 49.2 62.8997 48.8C62.9997 48.2 63.1997 47.5 63.7997 47.3C64.1997 47.2 64.3997 47.3 64.5997 47.7C64.6997 47.3 64.9997 47 65.3997 47Z" fill="black"/>
<path d="M65.1998 44.2998C64.6998 44.4998 64.2998 44.5998 63.7998 44.6998C63.7998 44.1998 63.7998 43.7998 63.7998 43.2998C64.2998 43.2998 64.7998 43.3998 65.2998 43.5998C65.4998 43.6998 65.4998 44.1998 65.1998 44.2998Z" fill="black"/>
<path d="M62.5998 40.5C62.3998 39.7 63.0998 38.8999 63.9998 39.0999C64.0998 39.0999 64.1998 39.1 64.1998 39.2C64.8998 40 64.5998 41.5999 63.1998 41.5999H63.0998C62.8998 41.2999 62.7998 40.9 62.5998 40.5Z" fill="black"/>
<path d="M60.3997 44.8002C61.4997 44.8002 62.6997 44.8002 63.7997 44.7002C63.7997 45.2002 63.6997 45.7002 63.5997 46.1002C63.3997 47.1002 62.7997 46.9002 61.8997 46.9002C61.1997 46.9002 60.4997 46.9002 59.6997 46.8002C59.6997 46.5002 59.6997 46.2002 59.6997 45.8002C59.6997 45.5002 59.6997 45.1002 59.7997 44.8002C59.9997 44.8002 60.1997 44.8002 60.3997 44.8002Z" fill="#D3D3D3"/>
<path d="M60.3999 44.8003C60.1999 44.8003 59.9999 44.8003 59.8999 44.8003C59.8999 44.6003 59.8999 44.3003 59.8999 44.0003C59.8999 43.8003 59.8999 43.5003 59.8999 43.3003C60.0999 43.3003 60.3999 43.3003 60.5999 43.3003C61.5999 43.3003 62.6999 43.2003 63.6999 43.3003C63.6999 43.7003 63.7999 44.2003 63.6999 44.7003C62.5999 44.8003 61.4999 44.8003 60.3999 44.8003Z" fill="black"/>
<path d="M58.9999 44.0998C58.9999 43.7998 58.8999 43.5998 58.8999 43.2998C59.1999 43.2998 59.5999 43.2998 59.8999 43.2998C59.8999 43.4998 59.8999 43.7998 59.8999 43.9998C59.8999 44.1998 59.8999 44.4998 59.8999 44.7998C59.5999 44.7998 59.3999 44.7998 59.0999 44.7998C58.9999 44.5998 58.9999 44.2998 58.9999 44.0998Z" fill="black"/>
<path d="M59.6997 41.6001C60.7997 41.6001 61.8997 41.6001 63.0997 41.6001C63.2997 42.0001 63.5997 42.4001 63.5997 42.9001C63.5997 43.0001 63.5997 43.1001 63.6997 43.2001C62.6997 43.1001 61.5997 43.2001 60.5997 43.2001C60.3997 43.2001 60.0997 43.2001 59.8997 43.2001V43.1001C59.8997 42.8001 59.7997 42.5001 59.7997 42.2001C59.6997 42.1001 59.7997 41.8001 59.6997 41.6001Z" fill="#D3D3D3"/>
<path d="M59.2 46.6998C59.1 46.3998 59.1 46.0998 59.1 45.7998C59.1 45.4998 59.1 45.0998 59 44.7998C59.3 44.7998 59.5 44.7998 59.8 44.7998C59.8 45.0998 59.8 45.4998 59.7 45.7998C59.7 46.0998 59.7 46.3998 59.7 46.7998C59.5 46.6998 59.4 46.6998 59.2 46.6998Z" fill="black"/>
<path d="M59.1997 46.7002C59.3997 46.7002 59.5997 46.7002 59.7997 46.7002C59.7997 46.9002 59.6997 47.1002 59.5997 47.3002C59.5997 47.4002 59.3997 47.4002 59.3997 47.3002C59.2997 47.1002 59.1997 46.9002 59.1997 46.7002Z" fill="black"/>
<path d="M59.6999 41.3999C59.6999 41.4999 59.6999 41.4999 59.6999 41.5999C59.3999 41.5999 59.1999 41.5999 58.8999 41.5999C58.8999 41.2999 58.9999 41.0999 59.1999 40.8999C59.1999 40.8999 59.2999 40.7999 59.3999 40.8999C59.5999 40.9999 59.6999 41.1999 59.6999 41.3999Z" fill="black"/>
<path d="M58.9999 42.4001C58.9999 42.1001 58.9999 41.9001 58.9999 41.6001C59.2999 41.6001 59.4999 41.6001 59.7999 41.6001C59.7999 41.8001 59.7999 42.1001 59.7999 42.3001C59.7999 42.6001 59.8999 42.9001 59.8999 43.2001V43.3001C59.5999 43.3001 59.1999 43.3001 58.8999 43.3001C58.8999 43.0001 58.9999 42.7001 58.9999 42.4001Z" fill="black"/>
<path d="M55.7 45.5002C55.7 45.3002 55.7 45.1002 55.7 44.8002C56.8 44.8002 57.9 44.8002 59 44.7002C59 45.0002 59.1 45.3002 59.1 45.7002C59.1 46.0002 59.1 46.3002 59.2 46.6002C58.9 46.6002 58.7 46.6002 58.4 46.6002C57.4 46.6002 56.5 46.6002 55.5 46.5002C55.5 46.4002 55.6 46.4002 55.6 46.3002C55.7 46.1002 55.7 45.8002 55.7 45.5002Z" fill="#D3D3D3"/>
<path d="M58.9997 44.0999C58.9997 44.2999 58.9997 44.5999 59.0997 44.7999C57.9997 44.7999 56.8997 44.7999 55.7997 44.8999C55.7997 44.4999 55.7997 44.1999 55.7997 43.7999C55.7997 43.6999 55.7997 43.4999 55.6997 43.3999C56.7997 43.3999 57.8997 43.3999 58.9997 43.3999C58.8997 43.5999 58.8997 43.7999 58.9997 44.0999Z" fill="black"/>
<path d="M55.6 41.6001C56.7 41.6001 57.8 41.6001 59 41.6001C59 41.9001 59.1 42.1001 59 42.4001C59 42.7001 58.9 43.0001 58.9 43.3001C57.8 43.3001 56.7 43.3001 55.6 43.3001C55.6 43.1001 55.5 43.0001 55.5 42.8001C55.5 42.5001 55.5 42.2001 55.5 41.9001C55.6 41.9001 55.6 41.7001 55.6 41.6001Z" fill="#D3D3D3"/>
<path d="M55.4996 46.6001C55.3996 46.7001 55.2996 46.9001 55.0996 47.0001C54.9996 47.1001 54.9996 47.1001 54.8996 47.0001C54.7996 46.9001 54.6996 46.7001 54.5996 46.6001C54.8996 46.6001 55.1996 46.6001 55.4996 46.6001Z" fill="black"/>
<path d="M55.2996 40.5C55.5996 40.8 55.5996 41.2 55.5996 41.5C55.2996 41.5 54.9996 41.5 54.5996 41.5C54.5996 41.1 54.6996 40.8 54.9996 40.5C55.0996 40.5 55.1996 40.5 55.2996 40.5Z" fill="black"/>
<path d="M55.0999 44.8999C54.8999 44.8999 54.5999 44.8999 54.3999 44.8999C54.3999 44.4999 54.3999 44.1999 54.3999 43.7999C54.3999 43.6999 54.3999 43.4999 54.4999 43.3999C54.8999 43.3999 55.1999 43.3999 55.5999 43.3999C55.5999 43.4999 55.6999 43.6999 55.6999 43.7999C55.6999 44.0999 55.6999 44.4999 55.6999 44.8999C55.4999 44.8999 55.2999 44.8999 55.0999 44.8999Z" fill="black"/>
<path d="M55.6 43.4C55.2 43.4 54.9 43.4 54.5 43.4C54.5 43.4 54.5 43.4 54.5 43.3C54.5 43.2 54.6 43 54.6 42.9C54.6 42.6 54.6 42.3 54.6 42C54.6 41.8 54.6 41.7 54.6 41.5C54.9 41.5 55.2 41.5 55.6 41.5C55.6 41.6 55.6 41.8 55.6 42C55.6 42.3 55.5 42.6 55.6 42.9C55.5 43.1 55.6 43.2 55.6 43.4Z" fill="black"/>
<path d="M55.4999 46.5999C55.1999 46.5999 54.8999 46.5999 54.5999 46.5999C54.4999 46.4999 54.4999 46.4999 54.4999 46.3999C54.3999 46.0999 54.3999 45.7999 54.3999 45.4999C54.3999 45.2999 54.3999 45.0999 54.3999 44.8999C54.5999 44.8999 54.7999 44.8999 55.0999 44.8999C55.2999 44.8999 55.4999 44.8999 55.6999 44.8999C55.6999 45.0999 55.6999 45.2999 55.6999 45.5999C55.6999 45.8999 55.6999 46.1999 55.5999 46.4999C55.5999 46.4999 55.5999 46.5999 55.4999 46.5999Z" fill="black"/>
<path d="M54.5 44.8999C53.3 44.8999 52.1 44.8999 51 44.8999C51 44.6999 51 44.4999 51 44.2999C51 43.9999 51 43.6999 51 43.3999C52.2 43.3999 53.4 43.3999 54.6 43.3999C54.6 43.4999 54.6 43.6999 54.5 43.7999C54.5 44.0999 54.5 44.4999 54.5 44.8999Z" fill="black"/>
<path d="M54.7 42.9001C54.7 43.0001 54.6 43.2001 54.6 43.3001C54.6 43.3001 54.6 43.3001 54.6 43.4001C53.4 43.4001 52.2 43.4001 51 43.4001C51 43.2001 51 43.0001 51 42.9001C51 42.5001 51 42.0001 51 41.6001C52.2 41.6001 53.5 41.6001 54.7 41.6001C54.7 41.7001 54.7 41.9001 54.7 42.1001C54.7 42.3001 54.7 42.6001 54.7 42.9001Z" fill="#D3D3D3"/>
<path d="M49.8998 41.2998C49.9998 40.7998 50.7998 40.7998 50.8998 41.2998C50.8998 41.3998 50.8998 41.4998 50.8998 41.5998C50.4998 41.5998 50.1998 41.5998 49.7998 41.5998C49.8998 41.4998 49.8998 41.3998 49.8998 41.2998Z" fill="black"/>
<path d="M54.5996 46.6C53.2996 46.6 51.9996 46.6 50.5996 46.6C50.6996 46.4 50.6996 46.1 50.6996 45.9C50.6996 45.6 50.7996 45.3 50.7996 45C51.9996 45 53.1996 45 54.2996 45C54.2996 45.2 54.2996 45.4 54.2996 45.6C54.2996 45.9 54.2996 46.2 54.3996 46.5C54.4996 46.5 54.5996 46.6 54.5996 46.6Z" fill="#D3D3D3"/>
<path d="M50.8999 44.9C50.5999 44.9 50.1999 44.9 49.8999 44.9C49.8999 44.7 49.8999 44.5 49.8999 44.4C49.8999 44.1 49.8999 43.8 49.8999 43.5C50.2999 43.5 50.6999 43.5 50.9999 43.5C50.9999 43.8 50.9999 44.1 50.9999 44.4C50.8999 44.5 50.8999 44.7 50.8999 44.9Z" fill="black"/>
<path d="M50.0996 46.6001C50.2996 46.6001 50.4996 46.6001 50.6996 46.6001C50.5996 46.8001 50.5996 47.0001 50.4996 47.3001C50.4996 47.4001 50.2996 47.4001 50.2996 47.3001C50.2996 47.0001 50.1996 46.8001 50.0996 46.6001Z" fill="black"/>
<path d="M49.9999 45.7999C49.9999 45.4999 49.8999 45.1999 49.8999 44.8999C50.1999 44.8999 50.5999 44.8999 50.8999 44.8999C50.8999 45.1999 50.7999 45.4999 50.7999 45.7999C50.7999 45.9999 50.7999 46.2999 50.6999 46.4999C50.4999 46.4999 50.2999 46.4999 50.0999 46.4999V46.3999C49.9999 46.2999 49.9999 46.0999 49.9999 45.7999Z" fill="black"/>
<path d="M49.8998 44.2998C49.8998 44.4998 49.8998 44.6998 49.8998 44.7998C48.4998 44.7998 47.1998 44.7998 45.7998 44.6998C45.7998 44.4998 45.8998 44.1998 45.8998 43.9998C45.8998 43.7998 45.9998 43.5998 45.9998 43.3998C47.2998 43.3998 48.5998 43.2998 49.8998 43.2998C49.8998 43.6998 49.8998 43.9998 49.8998 44.2998Z" fill="black"/>
<path d="M50.9999 41.4999C51.0999 41.8999 50.9999 42.3999 50.9999 42.7999C50.9999 42.9999 50.9999 43.1999 50.9999 43.2999C50.5999 43.2999 50.2999 43.2999 49.8999 43.2999C49.8999 43.0999 49.8999 42.8999 49.8999 42.6999C49.8999 42.2999 49.8999 41.7999 49.8999 41.3999C50.1999 41.4999 50.5999 41.4999 50.9999 41.4999Z" fill="black"/>
<path d="M50.1 46.5998C48.6 46.5998 47.1 46.5998 45.5 46.5998C45.6 45.9998 45.7 45.3998 45.8 44.7998C47.2 44.7998 48.5 44.8998 49.9 44.8998C49.9 45.1998 49.9 45.4998 50 45.7998C50 45.9998 50 46.2998 50.1 46.4998V46.5998Z" fill="#D3D3D3"/>
<path d="M49.9 43.4001C48.6 43.4001 47.3 43.4001 46 43.5001C46 43.1001 46 42.7001 46.1 42.4001C46.1 42.1001 46.1 41.9001 46.1 41.6001C47.4 41.6001 48.7 41.6001 49.9 41.6001C49.8 42.0001 49.9 42.5001 49.9 42.9001C49.8 43.0001 49.8 43.2001 49.9 43.4001Z" fill="#D3D3D3"/>
<path d="M45.4996 46.7002C45.4996 47.0002 45.3996 47.3002 45.3996 47.6002C45.3996 47.7002 45.1996 47.7002 45.1996 47.6002C45.1996 47.3002 45.1996 47.1002 45.0996 46.8002C45.2996 46.7002 45.3996 46.7002 45.4996 46.7002Z" fill="black"/>
<path d="M45.1999 40.7001C45.2999 40.4001 45.6999 40.4001 45.7999 40.7001C45.8999 41.0001 45.9999 41.3001 45.9999 41.6001C45.5999 41.6001 45.2999 41.6001 44.8999 41.6001C44.9999 41.2001 45.0999 40.9001 45.1999 40.7001Z" fill="black"/>
<path d="M45.2 44.8002C45.4 44.8002 45.6 44.8002 45.9 44.8002C45.8 45.4002 45.7 46.0002 45.6 46.6002C45.5 46.6002 45.4 46.6002 45.2 46.6002C45.1 46.0002 45.1 45.4002 45 44.7002C45 44.8002 45.1 44.8002 45.2 44.8002Z" fill="black"/>
<path d="M44.8999 43.5C45.0999 43.5 45.2999 43.5 45.4999 43.5C45.6999 43.5 45.8999 43.5 46.0999 43.5C46.0999 43.7 46.0999 43.9 45.9999 44.1C45.9999 44.3 45.8999 44.6 45.8999 44.8C45.6999 44.8 45.4999 44.8 45.1999 44.8C45.0999 44.8 45.0999 44.8 44.9999 44.8C44.9999 44.6 44.9999 44.3 44.8999 44.1C44.8999 43.9 44.8999 43.7 44.8999 43.5Z" fill="black"/>
<path d="M45.3998 43.4999C45.1998 43.4999 44.9998 43.4999 44.7998 43.4999C44.7998 43.0999 44.7998 42.6999 44.7998 42.2999C44.7998 41.9999 44.7998 41.6999 44.8998 41.3999C45.2998 41.3999 45.5998 41.3999 45.9998 41.3999C46.0998 41.6999 45.9998 41.9999 45.9998 42.1999C45.9998 42.5999 45.9998 42.9999 45.8998 43.2999C45.7998 43.4999 45.5998 43.4999 45.3998 43.4999Z" fill="black"/>
<path d="M44.9996 44.8C43.4996 44.8 42.0996 44.7 40.5996 44.8C40.5996 44.4 40.5996 44 40.5996 43.6C40.5996 43.6 40.5996 43.6 40.5996 43.5C41.9996 43.5 43.4996 43.5 44.8996 43.5C44.8996 43.7 44.8996 43.8 44.8996 44C44.8996 44.3 44.8996 44.5 44.9996 44.8Z" fill="black"/>
<path d="M40.5996 44.7998C42.0996 44.7998 43.4996 44.7998 44.9996 44.7998C44.9996 45.3998 45.0996 45.9998 45.1996 46.6998C43.6996 46.6998 42.0996 46.6998 40.5996 46.7998C40.5996 46.3998 40.6996 46.0998 40.6996 45.6998C40.5996 45.3998 40.5996 45.0998 40.5996 44.7998Z" fill="#D3D3D3"/>
<path d="M39.7997 46.0998C39.6997 45.6998 39.6997 45.1998 39.6997 44.7998C39.9997 44.7998 40.2997 44.7998 40.6997 44.7998C40.6997 45.0998 40.6997 45.3998 40.6997 45.6998C40.6997 46.0998 40.6997 46.3998 40.5997 46.7998C40.3997 46.7998 40.0997 46.7998 39.8997 46.7998C39.7997 46.4998 39.7997 46.2998 39.7997 46.0998Z" fill="black"/>
<path d="M44.9 43.5C43.5 43.5 42 43.5 40.6 43.5C40.6 42.8 40.6 42.1 40.5 41.5C41.3 41.5 42.1 41.5 43 41.5C43.6 41.5 44.3 41.5 44.9 41.5C44.8 41.8 44.8 42.1 44.8 42.4C44.9 42.8 44.9 43.2 44.9 43.5Z" fill="#D3D3D3"/>
<path d="M40.5996 43.5999C40.5996 43.9999 40.5996 44.3999 40.5996 44.7999C40.2996 44.7999 39.9996 44.7999 39.5996 44.7999C39.5996 44.5999 39.5996 44.3999 39.5996 44.2999C39.5996 44.0999 39.5996 43.7999 39.5996 43.5999C39.8996 43.4999 40.2996 43.4999 40.5996 43.5999Z" fill="black"/>
<path d="M39.8999 46.7998C40.0999 46.7998 40.3999 46.7998 40.5999 46.7998C40.5999 47.1998 40.4999 47.4998 40.4999 47.8998C40.4999 48.0998 40.0999 48.1998 40.0999 47.8998C39.9999 47.4998 39.8999 47.0998 39.8999 46.7998Z" fill="black"/>
<path d="M40.4997 41.5C40.5997 42.2 40.5997 42.8 40.5997 43.5C40.2997 43.5 39.9997 43.5 39.6997 43.5C39.6997 42.8 39.6997 42.2 39.7997 41.5C39.9997 41.5 40.1997 41.5 40.4997 41.5Z" fill="black"/>
<path d="M40.4997 41.5003C40.1997 41.5003 39.9997 41.5003 39.6997 41.5003C39.6997 41.2003 39.7997 40.9002 39.8997 40.6002C39.8997 40.5002 39.9997 40.4003 40.0997 40.4003C40.4997 40.3003 40.4997 41.2003 40.4997 41.5003Z" fill="black"/>
<path d="M35.3999 44.7998C36.7999 44.7998 38.1999 44.7998 39.5999 44.7998C39.5999 45.1998 39.5999 45.6998 39.6999 46.0998C39.6999 46.2998 39.7999 46.5998 39.7999 46.7998C38.2999 46.7998 36.7999 46.7998 35.3999 46.7998C35.4999 46.0998 35.4999 45.3998 35.3999 44.7998Z" fill="#D3D3D3"/>
<path d="M35.3997 44.7998C35.3997 45.4998 35.3997 46.0998 35.3997 46.7998C35.1997 46.7998 35.0997 46.7998 34.8997 46.7998C34.7997 46.0998 34.7997 45.4998 34.6997 44.7998C34.9997 44.7998 35.1997 44.7998 35.3997 44.7998Z" fill="black"/>
<path d="M35.3999 46.7002C35.3999 47.0002 35.3999 47.3002 35.2999 47.7002C35.2999 47.8002 35.0999 47.9002 35.0999 47.7002C34.9999 47.4002 34.9999 47.0002 34.8999 46.7002C35.0999 46.7002 35.2999 46.8002 35.3999 46.7002Z" fill="black"/>
<path d="M35.3999 43.3999C36.7999 43.3999 38.1999 43.4999 39.6999 43.4999C39.6999 43.6999 39.6999 43.9999 39.6999 44.1999C39.6999 44.3999 39.6999 44.5999 39.6999 44.6999C38.2999 44.6999 36.8999 44.6999 35.4999 44.6999C35.4999 44.2999 35.4999 43.9999 35.4999 43.5999C35.3999 43.5999 35.3999 43.4999 35.3999 43.3999Z" fill="black"/>
<path d="M34.7998 43.7998C34.7998 43.5998 34.7998 43.4998 34.7998 43.2998C34.9998 43.2998 35.1998 43.2998 35.3998 43.2998C35.3998 43.3998 35.3998 43.4998 35.3998 43.5998C35.3998 43.9998 35.3998 44.2998 35.3998 44.6998C35.1998 44.6998 34.9998 44.6998 34.7998 44.6998C34.7998 44.3998 34.7998 44.0998 34.7998 43.7998Z" fill="black"/>
<path d="M35.2997 41.5C36.7997 41.5 38.2997 41.5 39.6997 41.5C39.5997 42.2 39.5997 42.8 39.5997 43.5C38.1997 43.5 36.6997 43.4 35.2997 43.4C35.2997 42.9 35.2997 42.3 35.1997 41.8C35.2997 41.7 35.2997 41.6 35.2997 41.5Z" fill="#D3D3D3"/>
<path d="M34.6996 41.9C34.6996 41.8 34.6996 41.7 34.5996 41.5C34.7996 41.5 35.0996 41.5 35.2996 41.5C35.2996 41.6 35.2996 41.7 35.2996 41.8C35.2996 42.4 35.2996 42.9 35.3996 43.4C35.1996 43.4 34.9996 43.4 34.7996 43.4C34.6996 42.9 34.6996 42.4 34.6996 41.9Z" fill="black"/>
<path d="M34.8996 40.5C35.2996 40.5 35.2996 41.1 35.2996 41.5C35.0996 41.5 34.7996 41.5 34.5996 41.5C34.5996 41 34.5996 40.5 34.8996 40.5Z" fill="black"/>
<path d="M34.7997 44.7998C33.2997 44.7998 31.7997 44.7998 30.1997 44.5998C30.1997 44.2998 30.1997 43.8998 30.1997 43.4998C30.1997 43.3998 30.1997 43.3998 30.1997 43.2998C31.6997 43.2998 33.1997 43.2998 34.5997 43.2998C34.5997 43.4998 34.5997 43.5998 34.5997 43.7998C34.7997 44.0998 34.7997 44.3998 34.7997 44.7998Z" fill="black"/>
<path d="M34.9997 46.7C33.9997 46.7 32.9997 46.7 32.0997 46.6C31.4997 46.6 30.7997 46.6 30.1997 46.5C30.1997 45.8 30.2997 45.2 30.2997 44.5C31.7997 44.6 33.2997 44.7 34.8997 44.7C34.7997 45.4 34.8997 46.1 34.9997 46.7Z" fill="#D3D3D3"/>
<path d="M30.4996 41.3999C31.2996 41.3999 31.9996 41.3999 32.7996 41.3999C33.3996 41.3999 33.9996 41.3999 34.6996 41.3999C34.6996 41.5999 34.6996 41.6999 34.7996 41.7999C34.7996 42.2999 34.7996 42.7999 34.8996 43.2999C33.3996 43.2999 31.8996 43.2999 30.4996 43.2999C30.4996 42.7999 30.5996 42.1999 30.5996 41.5999C30.3996 41.5999 30.4996 41.4999 30.4996 41.3999Z" fill="#D3D3D3"/>
<path d="M30.3997 41.6999C30.2997 42.1999 30.2997 42.7999 30.2997 43.3999C29.9997 43.3999 29.5997 43.3999 29.2997 43.3999C29.2997 42.7999 29.1997 42.2999 29.1997 41.6999C29.1997 41.5999 29.1997 41.4999 29.1997 41.3999C29.5997 41.3999 30.0997 41.3999 30.4997 41.3999C30.4997 41.4999 30.3997 41.5999 30.3997 41.6999Z" fill="black"/>
<path d="M30.2999 43.4999C30.2999 43.8999 30.2999 44.1999 30.2999 44.5999C29.9999 44.5999 29.6999 44.5999 29.4999 44.4999C29.4999 44.1999 29.3999 43.8999 29.3999 43.5999C29.3999 43.4999 29.3999 43.3999 29.3999 43.3999C29.6999 43.3999 30.0999 43.3999 30.3999 43.3999C30.2999 43.3999 30.2999 43.4999 30.2999 43.4999Z" fill="black"/>
<path d="M29.3999 44.5C29.6999 44.5 29.9999 44.5 30.1999 44.6C30.1999 45.3 30.0999 45.9 30.0999 46.6C29.9999 46.6 29.8999 46.6 29.6999 46.6C29.5999 45.9 29.4999 45.2 29.3999 44.5Z" fill="black"/>
<path d="M30.0998 47.3C30.0998 47.4 29.9998 47.4 29.9998 47.3C29.8998 47.1 29.8998 46.8 29.7998 46.5C29.8998 46.5 29.9998 46.5 30.1998 46.5C30.0998 46.8 30.0998 47.1 30.0998 47.3Z" fill="black"/>
<path d="M26.3999 44.1999C26.3999 43.9999 26.3999 43.7999 26.3999 43.5999C27.3999 43.4999 28.3999 43.3999 29.2999 43.3999C29.2999 43.4999 29.2999 43.5999 29.2999 43.5999C29.2999 43.8999 29.2999 44.1999 29.3999 44.4999C28.3999 44.4999 27.3999 44.2999 26.3999 44.1999Z" fill="black"/>
<path d="M29.9997 40.0999C30.1997 40.2999 30.3997 40.3999 30.4997 40.6999C30.5997 40.8999 30.4997 41.2 30.4997 41.4C30.0997 41.4 29.5997 41.4 29.1997 41.4C29.1997 41.2 29.1997 40.8999 29.1997 40.6999C29.2997 40.3999 29.4997 40.1999 29.6997 40.0999C29.7997 39.9999 29.8997 39.9999 29.9997 40.0999Z" fill="black"/>
<path d="M31.4997 38.3C34.9997 38.3 38.4997 38.4 41.9997 38.5C49.0997 38.6 56.1997 38.7 63.1997 38.8C63.6997 38.8 63.9997 39 64.1997 39.3C64.0997 39.3 64.0997 39.2 63.9997 39.2C63.1997 39 62.3997 39.7 62.5997 40.6C62.6997 41 62.8997 41.4 63.0997 41.7C61.9997 41.7 60.8997 41.7 59.6997 41.7C59.6997 41.6 59.6997 41.6 59.6997 41.5C59.6997 41.3 59.4997 41.1001 59.3997 40.9001C59.2997 40.8001 59.1997 40.9001 59.1997 40.9001C58.9997 41.1001 58.8997 41.3 58.8997 41.6C57.7997 41.6 56.6997 41.6 55.4997 41.6C55.4997 41.2 55.4997 40.9 55.1997 40.6C55.0997 40.5 54.9997 40.5 54.8997 40.6C54.5997 40.9 54.4997 41.2 54.4997 41.6C53.2997 41.6 52.0997 41.6 50.7997 41.6C50.7997 41.5 50.7997 41.4 50.7997 41.3C50.6997 40.8 49.8997 40.8 49.7997 41.3C49.7997 41.4 49.7997 41.5 49.7997 41.5C48.4997 41.5 47.1997 41.5 45.9997 41.5C45.8997 41.2 45.8997 40.9 45.7997 40.6C45.6997 40.3 45.2997 40.3 45.1997 40.6C45.0997 40.9 44.9997 41.1001 44.8997 41.4001C44.2997 41.4001 43.5997 41.4001 42.9997 41.4001C42.1997 41.4001 41.2997 41.4001 40.4997 41.4001C40.4997 41.1001 40.4997 40.2 39.9997 40.3C39.8997 40.3 39.8997 40.4 39.7997 40.5C39.6997 40.8 39.6997 41.1001 39.5997 41.4001C38.0997 41.4001 36.5997 41.4001 35.1997 41.4001C35.1997 41.0001 35.1997 40.4001 34.7997 40.4001C34.4997 40.4001 34.4997 41.0001 34.4997 41.4001C33.8997 41.4001 33.2997 41.4001 32.5997 41.4001C31.7997 41.4001 31.0997 41.4001 30.2997 41.4001C30.2997 41.2001 30.3997 40.9 30.2997 40.7C30.1997 40.4 30.0997 40.3 29.7997 40.1C29.6997 40.1 29.5997 40.1 29.4997 40.1C29.1997 40.3 29.0997 40.4 28.9997 40.7C28.8997 40.9 28.8997 41.1001 28.9997 41.4001C28.4997 41.4001 28.0997 41.4 27.5997 41.3C27.1997 41.3 26.6997 41.2 26.1997 41.2C26.1997 40.8 26.1997 40.4 26.1997 40C26.1997 39.1 25.2997 38.8 24.6997 39.1C26.1997 38.1 30.8997 38.3 31.4997 38.3Z" fill="black"/>
<path d="M29.2999 43.4002C28.2999 43.4002 27.2999 43.5002 26.3999 43.6002C26.3999 43.5002 26.3999 43.3002 26.3999 43.2002C26.3999 42.5002 26.3999 41.9002 26.3999 41.2002C26.8999 41.3002 27.3999 41.3002 27.7999 41.3002C28.2999 41.3002 28.6999 41.3002 29.1999 41.4002C29.1999 41.5002 29.1999 41.6002 29.1999 41.7002C29.1999 42.2002 29.2999 42.8002 29.2999 43.4002Z" fill="#D3D3D3"/>
<path d="M28.5997 46.5001C28.0997 46.5001 26.4997 46.6001 26.2997 46.2001C26.0997 46.0001 26.3997 45.0001 26.3997 44.7001C26.3997 44.5001 26.3997 44.3001 26.3997 44.1001C27.3997 44.3001 28.3997 44.4001 29.3997 44.5001C29.4997 45.2001 29.5997 45.9001 29.7997 46.6001C29.3997 46.6001 28.9997 46.5001 28.5997 46.5001Z" fill="#D3D3D3"/>
<path d="M26.3996 43.6001C26.3996 43.8001 26.3996 44.0001 26.3996 44.2001C25.9996 44.2001 25.5996 44.1001 25.2996 44.0001C25.0996 44.0001 25.1996 43.7001 25.2996 43.7001C25.5996 43.6001 25.9996 43.6001 26.3996 43.6001Z" fill="black"/>
<path d="M26.2999 39.9002C26.2999 40.3002 26.2999 40.7002 26.2999 41.1002C25.4999 41.0002 24.7999 40.7002 24.4999 39.9002C24.2999 39.5002 24.4999 39.2002 24.7999 39.0002C25.3999 38.7002 26.1999 39.0002 26.2999 39.9002Z" fill="black"/>
<path d="M26.0998 48.9999C24.5998 48.5999 23.7998 47.5999 23.6998 45.9999C23.5998 43.9999 23.8998 41.7999 24.1998 39.7999C24.2998 39.2999 24.4998 38.9999 24.7998 38.8999C24.3998 39.0999 24.2998 39.3999 24.4998 39.7999C24.7998 40.5999 25.5998 40.8999 26.2998 40.9999C26.2998 41.6999 26.2998 42.2999 26.2998 42.9999C26.2998 43.0999 26.2998 43.2999 26.2998 43.3999C25.8998 43.3999 25.5998 43.4999 25.1998 43.4999C24.9998 43.4999 24.9998 43.7999 25.1998 43.7999C25.5998 43.8999 25.9998 43.8999 26.2998 43.9999C26.2998 44.1999 26.2998 44.3999 26.2998 44.5999C26.2998 44.8999 25.9998 45.7999 26.1998 46.0999C26.4998 46.4999 27.9998 46.2999 28.4998 46.3999C28.8998 46.3999 29.2998 46.3999 29.6998 46.4999C29.7998 46.6999 29.7998 46.9999 29.8998 47.2999C29.8998 47.3999 29.9998 47.3999 29.9998 47.2999C29.9998 47.0999 29.9998 46.7999 29.9998 46.5999C30.5998 46.5999 31.2998 46.6999 31.8998 46.6999C32.8998 46.6999 33.8998 46.7999 34.7998 46.7999C34.7998 47.0999 34.8998 47.4999 34.9998 47.7999C34.9998 47.8999 35.1998 47.8999 35.1998 47.7999C35.1998 47.4999 35.2998 47.1999 35.2998 46.7999C36.7998 46.7999 38.2998 46.7999 39.6998 46.7999C39.7998 47.1999 39.7998 47.5999 39.8998 47.8999C39.8998 48.0999 40.2998 48.0999 40.2998 47.8999C40.2998 47.4999 40.2998 47.1999 40.3998 46.7999C41.8998 46.7999 43.4998 46.7999 44.9998 46.6999C44.9998 46.9999 44.9998 47.1999 45.0998 47.4999C45.0998 47.5999 45.2998 47.6999 45.2998 47.4999C45.2998 47.1999 45.3998 46.8999 45.3998 46.5999C46.8998 46.5999 48.3998 46.5999 49.9998 46.5999C50.0998 46.7999 50.1998 46.9999 50.1998 47.2999C50.1998 47.3999 50.3998 47.3999 50.3998 47.2999C50.4998 47.0999 50.4998 46.8999 50.5998 46.5999C51.8998 46.5999 53.1998 46.5999 54.5998 46.5999C54.6998 46.7999 54.7998 46.8999 54.8998 46.9999C54.9998 47.0999 54.9998 47.0999 55.0998 46.9999C55.1998 46.8999 55.2998 46.6999 55.4998 46.5999C56.4998 46.5999 57.3998 46.5999 58.3998 46.6999C58.6998 46.6999 58.8998 46.6999 59.1998 46.6999C59.1998 46.8999 59.2998 47.0999 59.3998 47.2999C59.3998 47.3999 59.5998 47.3999 59.5998 47.2999C59.6998 47.0999 59.6998 46.8999 59.7998 46.6999C60.4998 46.6999 61.1998 46.6999 61.9998 46.7999C62.7998 46.7999 63.4998 46.9999 63.6998 45.9999C63.7998 45.5999 63.7998 45.0999 63.8998 44.5999C64.3998 44.4999 64.8998 44.3999 65.2998 44.1999C65.5998 44.0999 65.6998 43.5999 65.2998 43.4999C64.7998 43.2999 64.2998 43.1999 63.7998 43.1999C63.7998 43.0999 63.7998 42.9999 63.6998 42.8999C63.5998 42.3999 63.3998 41.9999 63.1998 41.5999H63.2998C64.6998 41.5999 64.9998 39.9999 64.2998 39.1999C66.0998 39.8999 66.4998 42.4999 66.3998 44.0999C66.3998 44.9999 66.3998 45.9999 66.0998 46.9999C65.8998 46.9999 65.6998 46.9999 65.4998 46.9999C65.0998 46.9999 64.7998 47.2999 64.6998 47.5999C64.4998 47.2999 64.1998 47.0999 63.8998 47.1999C63.1998 47.3999 63.0998 48.0999 62.9998 48.6999C62.8998 49.0999 62.7998 49.3999 62.7998 49.7999C61.5998 49.8999 60.2998 49.7999 59.1998 49.7999C56.9998 49.7999 54.6998 49.7999 52.4998 49.7999C48.0998 49.7999 43.6998 49.5999 39.2998 49.4999C37.0998 49.4999 34.7998 49.4999 32.5998 49.4999C30.3998 49.5999 28.0998 49.5999 26.0998 48.9999Z" fill="black"/>
</svg>
